<svg width="481" height="187" viewBox="0 0 481 187" fill="none" xmlns="http://www.w3.org/2000/svg">
<path d="M176.987 15.7307C176.104 15.1808 174.889 14.8625 173.369 14.7757L171.517 14.6744C170.258 14.602 169.52 14.2258 169.289 13.5456C169.129 13.0392 169.202 12.5761 169.506 12.113C169.81 11.6355 170.302 11.2882 170.953 11.0711C171.474 10.8975 171.937 10.8541 172.342 10.9554C172.718 11.0277 173.181 11.3027 173.731 11.7802C173.804 11.8381 173.919 11.8381 173.977 11.7802L175.627 10.0003C175.627 10.0003 175.685 9.91345 175.67 9.87004C175.67 9.82663 175.641 9.76874 175.612 9.7398C173.934 8.29272 172.096 7.88753 170.142 8.52425C168.695 8.98732 167.61 9.79769 166.901 10.9264C166.177 12.0551 166.018 13.2562 166.409 14.4718C166.988 16.2806 168.609 17.2791 171.228 17.4528L173.022 17.5685C173.485 17.5975 173.89 17.6698 174.223 17.7422C174.556 17.829 174.86 17.9448 175.091 18.0895C175.323 18.2197 175.526 18.3934 175.685 18.6104C175.844 18.813 175.974 19.059 176.061 19.3484C176.293 20.0575 176.235 20.7087 175.916 21.3165C175.583 21.9243 175.048 22.3584 174.325 22.5899C173.398 22.8938 172.603 22.807 171.908 22.3294C171.546 22.0834 171.155 21.548 170.765 20.6942C170.75 20.6508 170.707 20.6074 170.649 20.5929C170.606 20.5785 170.548 20.5929 170.504 20.6074L168.16 21.9532C168.073 21.9966 168.044 22.1124 168.088 22.1992C168.797 23.6029 169.781 24.5869 170.982 25.1078C171.618 25.3828 172.299 25.513 173.008 25.513C173.659 25.513 174.339 25.3973 175.048 25.1802C176.596 24.6737 177.754 23.7621 178.478 22.4597C179.201 21.1573 179.331 19.7536 178.854 18.2776C178.492 17.1778 177.87 16.324 176.973 15.7741L176.987 15.7307Z" fill="#BA9266"/>
<path d="M182.631 5.44044C182.631 5.44044 182.544 5.39702 182.501 5.42596L179.968 6.04821C179.867 6.07715 179.809 6.16398 179.838 6.26527L183.716 22.1687C183.716 22.1687 183.76 22.2556 183.803 22.2845C183.832 22.299 183.861 22.3134 183.89 22.3134C183.89 22.3134 183.919 22.3134 183.933 22.3134L186.466 21.6912C186.567 21.6623 186.625 21.5754 186.596 21.4741L182.718 5.57067C182.718 5.57067 182.674 5.48385 182.631 5.45491V5.44044Z" fill="#BA9266"/>
<path d="M222.599 12.5314C222.599 12.5314 222.469 12.5314 222.411 12.5604C222.02 12.9221 221.644 13.2405 221.282 13.501C220.921 13.7614 220.573 13.9785 220.226 14.1377C219.633 14.456 218.88 14.6442 217.997 14.702C216.275 14.8323 214.77 14.3547 213.511 13.2984C212.253 12.242 211.558 10.8673 211.442 9.21759C211.326 7.53897 211.818 6.06294 212.918 4.81845C214.003 3.57396 215.436 2.87936 217.144 2.74912C218.706 2.63335 220.284 3.12536 221.832 4.18173C221.89 4.22515 221.962 4.22515 222.02 4.18173C222.078 4.15279 222.122 4.08044 222.107 4.00808L221.905 1.08497C221.905 1.08497 221.861 0.954735 221.803 0.940264C220.284 0.231192 218.706 -0.0582246 217.144 0.0430713C214.264 0.245663 211.963 1.44674 210.284 3.58843C208.924 5.35387 208.302 7.30744 208.461 9.42018C208.62 11.7789 209.662 13.7614 211.558 15.3098C213.251 16.6845 215.219 17.3791 217.419 17.3791C217.665 17.3791 217.925 17.3791 218.171 17.3502C219.835 17.2344 221.413 16.7135 222.86 15.8018C222.918 15.7729 222.946 15.7005 222.946 15.6426L222.744 12.6761C222.744 12.6761 222.7 12.5459 222.628 12.5169L222.599 12.5314Z" fill="#BA9266"/>
<path d="M235.941 0.0578834L226.39 0C226.289 0 226.217 0.0868251 226.217 0.17365L226.115 16.5402C226.115 16.5402 226.13 16.6415 226.173 16.6704C226.217 16.6994 226.26 16.7283 226.304 16.7283L235.854 16.7862C235.854 16.7862 235.941 16.7717 235.985 16.7283C236.028 16.6849 236.042 16.6559 236.042 16.5981V14.2827C236.057 14.1814 235.97 14.0946 235.883 14.0946L229.125 14.0512L229.154 8.94298L235.71 8.98639C235.811 8.98639 235.883 8.89957 235.883 8.81274V6.49741C235.898 6.39611 235.825 6.30929 235.724 6.30929L229.169 6.26588L229.198 2.69158L235.956 2.73499C235.956 2.73499 236.057 2.72052 236.086 2.67711C236.115 2.64816 236.144 2.60475 236.144 2.54687V0.246004C236.144 0.246004 236.144 0.144708 236.1 0.115767C236.057 0.0868251 236.014 0.0578834 235.97 0.0578834H235.941Z" fill="#BA9266"/>
<path d="M251.975 0.693891L247.692 0.259766C247.692 0.259766 247.576 0.274236 247.533 0.33212L245.825 2.56063C245.825 2.56063 245.782 2.6764 245.796 2.74875C245.825 2.80663 245.883 2.85005 245.941 2.85005L248.835 3.13946L247.402 17.4077C247.402 17.509 247.46 17.5958 247.562 17.6103L250.253 17.8853C250.253 17.8853 250.253 17.8853 250.268 17.8853C250.311 17.8853 250.354 17.8853 250.383 17.8418C250.427 17.8129 250.441 17.7695 250.456 17.7261L252.149 0.896483C252.149 0.896483 252.149 0.795187 252.105 0.766245C252.062 0.737303 252.033 0.708362 251.99 0.708362L251.975 0.693891Z" fill="#BA9266"/>
<path d="M268.154 4.51539C267.126 3.19854 265.766 2.40265 264.131 2.11323C262.481 1.82381 260.947 2.15664 259.558 3.06831C258.183 3.97997 257.358 5.2534 257.083 6.83073C256.837 8.30675 257.156 9.69595 258.038 10.926C258.936 12.1705 260.122 12.923 261.598 13.169C261.7 13.1834 261.83 13.1979 262.003 13.2124C262.061 13.2124 262.119 13.2124 262.177 13.2124L257.358 17.626C257.358 17.626 257.3 17.6983 257.3 17.7562C257.3 17.8141 257.315 17.8575 257.358 17.8865L259.08 19.594C259.08 19.594 259.167 19.6519 259.211 19.6519C259.254 19.6519 259.297 19.6374 259.326 19.6085L266.822 12.7493C268.255 11.418 269.109 10.0722 269.326 8.74088C269.586 7.23591 269.195 5.8033 268.154 4.50092V4.51539ZM265.086 10.2169C264.377 10.6944 263.581 10.8536 262.713 10.7089C261.844 10.5642 261.135 10.1446 260.629 9.44995C260.122 8.76982 259.934 8.00286 260.079 7.16356C260.209 6.38213 260.643 5.73094 261.352 5.2534C262.061 4.77587 262.857 4.61669 263.725 4.7614C264.608 4.9061 265.303 5.32576 265.809 6.02036C266.33 6.70049 266.518 7.46744 266.374 8.27781C266.229 9.08818 265.809 9.75384 265.086 10.2314V10.2169Z" fill="#BA9266"/>
<path d="M286.387 7.45258C286.387 7.45258 286.315 7.33681 286.257 7.32234L273.32 4.09534C273.219 4.0664 273.132 4.12428 273.103 4.22558L272.524 6.54091C272.495 6.64221 272.553 6.72903 272.654 6.75798L280.888 8.81284L269.124 19.8396C269.124 19.8396 269.066 19.912 269.066 19.9699C269.066 20.0277 269.08 20.0712 269.124 20.1001L270.889 21.8655C270.889 21.8655 270.976 21.9234 271.019 21.9234C271.063 21.9234 271.106 21.9089 271.149 21.88L286.329 7.6407C286.329 7.6407 286.402 7.52493 286.387 7.46705V7.45258Z" fill="#BA9266"/>
<path d="M193.846 19.8536L192.066 8.97148L204.945 18.1026C204.945 18.1026 204.974 18.1026 204.974 18.1171C205.018 18.1315 205.047 18.1171 205.047 18.1171L206.233 17.9289C206.233 17.9289 206.262 17.9289 206.277 17.9C206.277 17.871 206.277 17.8421 206.277 17.8421L203.614 1.63476C203.614 1.63476 203.585 1.54794 203.542 1.51899C203.498 1.49005 203.455 1.47558 203.411 1.49005L200.836 1.90971C200.734 1.92418 200.676 2.02547 200.691 2.1123L202.456 12.9075L189.925 4.00798C189.925 4.00798 189.838 3.93562 189.736 3.9501L188.434 4.21057C188.289 4.23951 188.289 4.39869 188.289 4.39869L190.894 20.3166C190.894 20.3166 190.923 20.4034 190.966 20.4324C190.995 20.4613 191.039 20.4613 191.068 20.4613C191.068 20.4613 191.082 20.4613 191.097 20.4613L193.672 20.0417C193.672 20.0417 193.759 20.0127 193.788 19.9693C193.817 19.9259 193.832 19.8825 193.817 19.8391L193.846 19.8536Z" fill="#BA9266"/>
<path d="M294.013 22.6474L292.378 22.1264L296.14 10.3327C296.14 10.3327 296.184 10.2169 296.068 10.188L295.359 9.9709C295.243 9.92749 295.156 9.99984 295.156 9.99984L280.41 20.8096C280.41 20.8096 280.324 20.9109 280.338 20.9832C280.338 21.0556 280.396 21.099 280.468 21.1279L288.659 23.7471L287.979 25.8599C287.979 25.8599 287.979 25.9612 287.979 26.0046C288.008 26.048 288.037 26.077 288.08 26.0914L290.656 26.9163C290.656 26.9163 290.699 26.9163 290.714 26.9163C290.743 26.9163 290.772 26.9163 290.8 26.9018C290.844 26.8729 290.873 26.8439 290.887 26.8005L291.567 24.6878L293.203 25.2087C293.304 25.2376 293.405 25.1942 293.434 25.0929L294.143 22.8789C294.143 22.8789 294.143 22.7776 294.143 22.7342C294.114 22.6908 294.085 22.6618 294.042 22.6474H294.013ZM289.469 21.2003L286.054 20.115L290.974 16.5117L289.469 21.2003Z" fill="#BA9266"/>
<path d="M467.243 74.5679V68.3599H464.942C464.711 68.3599 464.624 68.2731 464.624 68.0415V67.6074C464.624 67.3759 464.711 67.2891 464.942 67.2891H470.832C471.064 67.2891 471.15 67.3759 471.15 67.6074V68.0415C471.15 68.2731 471.064 68.3599 470.832 68.3599H468.531V74.5679C468.531 74.7994 468.444 74.8863 468.213 74.8863H467.562C467.33 74.8863 467.243 74.7994 467.243 74.5679Z" fill="#BA9266"/>
<path d="M475.578 73.8001L473.292 69.2418V74.5816C473.292 74.8131 473.205 74.8999 472.974 74.8999H472.366C472.134 74.8999 472.048 74.8131 472.048 74.5816V67.6211C472.048 67.3896 472.134 67.3027 472.366 67.3027H473.393C473.567 67.3027 473.697 67.3751 473.77 67.5343L476.215 72.4833L478.661 67.5343C478.733 67.3751 478.863 67.3027 479.037 67.3027H480.064C480.296 67.3027 480.383 67.3896 480.383 67.6211V74.5816C480.383 74.8131 480.296 74.8999 480.064 74.8999H479.442C479.211 74.8999 479.124 74.8131 479.124 74.5816V69.2418L476.837 73.8001C476.765 73.9593 476.635 74.0317 476.461 74.0317H475.969C475.796 74.0317 475.665 73.9593 475.593 73.8001H475.578Z" fill="#BA9266"/>
<path d="M342.751 160.163H309.063V145.33C329.365 142.263 337.758 131.395 337.758 118.473C337.758 107.055 330.914 94.3786 314.923 94.3786C301.552 94.3786 296.69 103.727 296.589 104.61C308.874 104.61 312.811 110.818 312.811 118.473C312.811 126.128 308.874 132.336 296.589 132.336C284.303 132.336 280.367 124.738 280.367 117.083C280.367 109.428 286.141 87.0419 324.3 85.3054H339.249C341.868 85.3054 343.995 82.9467 343.995 80.038V75.335C343.995 72.4264 341.868 70.0676 339.249 70.0676H309.063V65.9145C309.063 61.3272 305.705 57.5938 301.581 57.5938H286.604C285.229 57.5938 284.115 58.8382 284.115 60.3722V70.0821H253.929C251.309 70.0821 249.182 72.4408 249.182 75.3495V80.0525C249.182 82.9611 251.309 85.3199 253.929 85.3199H284.216C268.197 91.8897 255.419 102.584 255.419 118.473C255.419 131.395 263.812 142.263 284.115 145.33V160.163H250.427C246.288 160.163 242.945 163.882 242.945 168.484C242.945 173.086 246.303 176.805 250.427 176.805H342.751C346.889 176.805 350.232 173.086 350.232 168.484C350.232 163.897 346.875 160.163 342.751 160.163Z" fill="#820000"/>
<path d="M451.977 60.3594H437C435.625 60.3594 434.511 61.6039 434.511 63.1378V90.7192H426.957C422.818 90.7192 419.476 94.4382 419.476 99.04C419.476 103.627 422.833 107.361 426.957 107.361H434.511V118.489H434.54C434.525 118.764 434.511 119.039 434.511 119.314C434.511 130.659 427.767 132.337 427.767 132.337C434.424 135.232 459.459 140.976 459.459 118.474V68.6801C459.459 64.0929 456.101 60.3594 451.977 60.3594Z" fill="#820000"/>
<path d="M450.732 140.759H379.622C375.483 140.759 372.141 143.928 372.141 148.515C372.141 153.102 375.498 157.386 379.622 156.271H433.265V165.822C433.265 180.872 422.036 175.532 422.036 175.532C422.036 187.282 458.213 197.6 458.213 165.822V149.065C458.213 144.478 454.856 140.744 450.732 140.744V140.759Z" fill="#820000"/>
<path d="M390.36 117.172C392.111 127.562 397.277 132.714 409.563 132.714C415.105 132.714 420.025 130.442 423.513 128.228C426.624 126.26 427.767 121.918 426.161 118.373L426.002 118.026C424.641 115.059 421.646 113.612 418.723 114.35C417.869 114.567 416.899 114.698 415.814 114.698C410.749 114.698 410.648 111.138 410.648 104.669V81.1541H418.303C421.747 81.1541 424.54 78.0573 424.54 74.2226C424.54 70.3878 421.747 67.291 418.303 67.291H392.111C390.736 67.291 389.622 68.5355 389.622 70.0694V106.058C389.622 108.475 389.694 110.732 389.853 112.816C388.189 113.844 384.514 115.812 380.881 115.812C375.817 115.812 375.715 112.252 375.715 105.783V81.1541H379.623C383.067 81.1541 385.859 78.0573 385.859 74.2226C385.859 70.3878 383.067 67.291 379.623 67.291H357.164C355.789 67.291 354.675 68.5355 354.675 70.0694V107.173C354.675 125.044 358.64 133.278 373.386 133.278C385.758 133.278 389.332 123.409 390.36 117.186V117.172Z" fill="#820000"/>
<path d="M43.6382 103.004C49.9475 114.711 57.2408 122.569 59.4548 124.826C61.1913 126.592 63.304 127.46 65.4168 127.46C67.7466 127.46 70.0764 126.404 71.8708 124.305C73.6652 122.222 74.6492 119.429 74.6492 116.448C74.6492 113.452 73.6507 110.645 71.8418 108.547C69.1792 105.464 55.8516 89.0834 54.1729 69.3162C53.8256 65.221 50.9459 62.1387 47.4585 62.1387H39.1233C35.6358 62.1387 32.7561 65.2354 32.4088 69.3452C30.3539 93.743 16.3751 106.376 13.4665 108.749C9.16861 112.092 5.04442 111.354 3.35133 109.965C2.94615 109.632 2.28049 108.952 2.48308 108.113C2.61332 107.577 2.35284 107.013 1.90425 106.868C1.45565 106.709 0.992582 107.013 0.862344 107.548C-1.16357 115.811 0.428219 123.119 5.13124 127.113C7.37422 129.008 10.0803 129.949 13.0034 129.949C17.0552 129.949 21.4978 128.155 25.6509 124.667C26.3021 124.219 35.9397 117.316 43.6526 103.004H43.6382Z" fill="#820000"/>
<path d="M114.806 90.7036H106.703V68.6645C106.703 64.0772 103.345 60.3438 99.2212 60.3438H84.2438C82.8691 60.3438 81.7549 61.5882 81.7549 63.1221V118.459C81.7549 129.818 74.2734 129.543 74.2734 129.543C80.9156 132.437 106.645 145.36 106.703 118.56V107.331H114.806C118.945 107.331 122.288 103.612 122.288 99.0098C122.288 94.4226 118.93 90.6891 114.806 90.6891V90.7036Z" fill="#820000"/>
<path d="M103.909 139.312H25.6648C24.1164 139.312 22.8574 140.875 22.8574 142.786V165.042C22.8574 187.935 44.7808 186.531 64.7795 186.531C84.7782 186.531 106.701 188.209 106.701 165.042V142.786C106.701 140.861 105.443 139.312 103.894 139.312H103.909ZM81.7104 164.651C81.7104 173.319 73.7224 175.591 64.7939 175.591C55.8654 175.591 47.8775 173.464 47.8775 164.651V150.687H81.7248V164.651H81.7104Z" fill="#820000"/>
<path d="M221.412 60.3594H206.435C205.06 60.3594 203.946 61.6039 203.946 63.1378V100.255C198.794 104.568 186.306 113.048 167.769 113.048C155.99 113.048 154.152 110.819 153.906 103.974L179.49 103.54C182.876 103.396 185.901 101.746 188.071 99.1991C190.097 97.8823 191.472 95.4367 191.472 92.6294V73.0503C191.472 69.8812 189.157 67.3054 186.292 67.3054H132.156C129.768 67.3054 127.844 69.4471 127.844 72.0952V76.3786C127.844 79.0268 129.768 81.1685 132.156 81.1685H166.524V89.7063L131.548 90.4877C130.188 90.5166 129.103 91.7466 129.103 93.2661V104.409C129.103 122.28 138.798 129.689 161.546 129.689C178.882 129.689 195.828 120.023 203.96 111.745V118.648C203.96 129.993 196.479 131.122 196.479 131.122C203.136 134.016 228.923 143.364 228.923 118.648V68.7091C228.923 64.1218 225.565 60.3883 221.441 60.3883L221.412 60.3594Z" fill="#820000"/>
<path d="M226.969 139.312H205.828C204.757 139.312 203.903 140.383 203.903 141.7V150.021H170.056V141.7C170.056 140.383 169.187 139.312 168.131 139.312H146.989C145.918 139.312 145.064 140.383 145.064 141.7V165.186C145.064 186.791 164.861 186.531 186.986 186.531C209.112 186.531 228.909 187.081 228.909 165.186V141.7C228.909 140.383 228.04 139.312 226.984 139.312H226.969ZM203.888 164.651C203.888 173.319 195.901 175.591 186.972 175.591C178.044 175.591 170.056 173.464 170.056 164.651V162.119H203.903V164.651H203.888Z" fill="#820000"/>
</svg>
