<svg width="1711" height="1149" viewBox="0 0 1711 1149" fill="none" xmlns="http://www.w3.org/2000/svg">
<path d="M1516.44 466.755L1516.82 467.497C1517.52 468.918 1519.05 472.374 1520.09 477.229C1522.11 486.621 1522.36 501.25 1511.39 516.473C1494.49 539.88 1473.74 536.721 1470.16 535.979C1469.8 535.915 1469.6 535.852 1469.6 535.852C1469.6 535.852 1471.32 569.583 1441.35 580.078C1410.12 591.04 1391.96 575.032 1391.96 575.032C1391.96 575.032 1377.21 600.729 1351.48 599.033C1339.06 598.227 1328.91 592.905 1321.73 587.626C1314 581.944 1309.71 576.283 1309.71 576.283C1309.71 576.283 1299.86 580.46 1286.83 580.651C1287.04 574.566 1286.3 567.675 1283.79 560.255C1277.61 541.936 1252.99 532.014 1252.99 532.014C1252.99 532.014 1256.19 522.897 1254 510.685C1253.41 507.314 1252.39 503.71 1250.8 500C1248.91 495.632 1246.23 491.116 1242.41 486.642C1242.14 486.324 1241.86 486.006 1241.58 485.688C1231.78 474.642 1216.7 471.632 1203.96 471.42C1201.69 478.798 1198.68 483.165 1198.68 483.165C1198.68 483.165 1216.77 500.869 1217.23 525.293C1217.32 529.152 1216.98 532.671 1216.32 535.873C1210.95 562.163 1183.9 567.845 1183.9 567.845L1184.28 568.587C1184.98 570.007 1186.51 573.463 1187.55 578.319C1189.59 587.711 1189.84 602.34 1178.85 617.563C1161.95 640.97 1141.2 637.81 1137.62 637.068C1137.26 637.005 1137.06 636.962 1137.06 636.962C1137.06 636.962 1138.78 670.673 1108.81 681.189C1077.58 692.15 1059.44 676.143 1059.44 676.143C1059.44 676.143 1044.69 701.84 1018.96 700.143C1006.54 699.338 996.388 694.016 989.212 688.716C981.484 683.034 977.196 677.373 977.196 677.373C977.196 677.373 967.705 681.401 955.031 681.719C955.307 675.528 954.585 668.489 952.016 660.878C945.838 642.56 921.21 632.658 921.21 632.658C921.21 632.658 924.437 623.457 922.208 611.16C921.719 608.531 920.997 605.753 919.936 602.891C917.94 597.527 914.755 591.866 909.83 586.333C909.596 586.078 909.363 585.824 909.108 585.57C899.299 575.159 884.629 572.276 872.209 572.064C869.937 579.442 866.922 583.81 866.922 583.81C866.922 583.81 885.011 601.513 885.478 625.938C885.563 630.029 885.181 633.74 884.438 637.111C878.769 662.892 852.145 668.489 852.145 668.489L852.528 669.231C853.228 670.652 854.757 674.108 855.797 678.942C857.835 688.334 858.09 702.963 847.093 718.186C830.193 741.593 809.45 738.434 805.862 737.692C805.501 737.628 805.31 737.586 805.31 737.586C805.31 737.586 807.03 771.296 777.052 781.812C745.821 792.774 727.669 776.766 727.669 776.766C727.669 776.766 712.913 802.463 687.181 800.767C674.761 799.961 664.613 794.639 657.437 789.339C649.709 783.657 645.42 777.996 645.42 777.996C645.42 777.996 635.569 782.173 622.512 782.364C622.724 776.3 621.981 769.409 619.476 761.968C613.298 743.649 588.67 733.727 588.67 733.727C588.67 733.727 591.876 724.61 589.689 712.398C589.094 709.027 588.075 705.423 586.462 701.691C584.593 697.324 581.897 692.808 578.097 688.355C577.821 688.037 577.545 687.719 577.269 687.401C567.46 676.355 552.386 673.344 539.648 673.132C537.376 680.511 534.361 684.878 534.361 684.878C534.361 684.878 552.45 702.582 552.917 727.006C553.002 730.865 552.662 734.384 552.004 737.586C546.633 763.876 519.584 769.558 519.584 769.558L519.967 770.3C520.667 771.72 522.196 775.176 523.236 780.01C525.274 789.403 525.529 804.032 514.531 819.255C497.632 842.661 476.889 839.502 473.301 838.76C472.94 838.696 472.749 838.654 472.749 838.654C472.749 838.654 474.469 872.386 444.491 882.881C413.26 893.842 395.107 877.835 395.107 877.835C395.107 877.835 380.352 903.531 354.62 901.856C342.2 901.051 332.052 895.729 324.854 890.429C317.126 884.747 312.838 879.086 312.838 879.086C312.838 879.086 285.004 890.895 260.949 875.715C249.251 868.336 243.943 859.368 241.565 852.096C239.081 844.421 239.846 838.675 239.846 838.675L238.338 838.993C232.351 840.096 210.122 842.682 195.983 823.495C179.529 801.169 193.456 769.155 193.456 769.155C192.862 768.922 166.408 758.3 161.397 730.398C161.291 729.847 161.206 729.275 161.143 728.745C163.521 735.995 168.828 744.943 180.505 752.3C204.56 767.48 232.394 755.671 232.394 755.671C232.394 755.671 236.576 761.183 244.113 766.78C251.31 772.144 261.586 777.593 274.155 778.42C299.887 780.116 314.642 754.399 314.642 754.399C314.642 754.399 332.795 770.406 364.025 759.445C394.003 748.929 392.284 715.218 392.284 715.218C392.284 715.218 392.475 715.281 392.836 715.324C396.424 716.087 417.166 719.225 434.066 695.818C445.191 680.405 444.809 665.585 442.707 656.214C441.667 651.549 440.202 648.242 439.523 646.842L439.14 646.1C439.14 646.1 466.167 640.418 471.56 614.128C472.218 610.927 472.558 607.386 472.473 603.549C472.006 579.124 453.917 561.421 453.917 561.421C453.917 561.421 456.932 557.074 459.204 549.696C471.942 549.908 487.037 552.898 496.825 563.965C497.101 564.283 497.377 564.601 497.653 564.919C501.453 569.393 504.149 573.887 506.018 578.255C507.631 581.986 508.629 585.591 509.245 588.962C511.432 601.174 508.226 610.291 508.226 610.291C508.226 610.291 532.854 620.213 539.032 638.51C541.537 645.952 542.28 652.842 542.068 658.906C555.104 658.715 564.955 654.539 564.955 654.539C564.955 654.539 569.137 660.051 576.674 665.648C583.872 671.012 594.147 676.461 606.716 677.288C632.448 678.984 647.203 653.266 647.203 653.266C647.203 653.266 665.356 669.274 696.586 658.313C726.565 647.796 724.845 614.086 724.845 614.086C724.845 614.086 725.036 614.149 725.397 614.192C728.985 614.955 749.706 618.093 766.627 594.686C777.752 579.273 777.349 564.453 775.247 555.081C774.207 550.438 772.742 547.11 772.062 545.71L771.68 544.968C771.68 544.968 798.325 539.371 803.973 513.59C804.716 510.219 805.098 506.508 805.013 502.417C804.525 477.992 786.457 460.289 786.457 460.289C786.457 460.289 789.472 455.942 791.743 448.543C804.164 448.755 818.855 451.617 828.664 462.027C828.919 462.282 829.152 462.536 829.386 462.812C834.312 468.367 837.496 474.027 839.513 479.391C840.575 482.254 841.296 485.01 841.785 487.639C844.035 499.936 840.787 509.137 840.787 509.137C840.787 509.137 865.415 519.06 871.593 537.357C874.162 544.968 874.884 552.007 874.608 558.198C887.283 557.859 896.773 553.852 896.773 553.852C896.773 553.852 900.955 559.364 908.492 564.961C915.69 570.326 925.965 575.774 938.534 576.601C964.266 578.297 979.021 552.601 979.021 552.601C979.021 552.601 997.174 568.608 1028.4 557.647C1058.38 547.131 1056.66 513.42 1056.66 513.42C1056.66 513.42 1056.85 513.484 1057.21 513.526C1060.8 514.289 1081.52 517.427 1098.45 494.021C1109.57 478.607 1109.19 463.808 1107.09 454.416C1106.05 449.773 1104.58 446.444 1103.9 445.045L1103.52 444.303C1103.52 444.303 1130.55 438.621 1135.94 412.331C1136.62 409.129 1136.94 405.61 1136.87 401.751C1136.39 377.327 1118.32 359.623 1118.32 359.623C1118.32 359.623 1121.33 355.277 1123.6 347.899C1136.34 348.111 1151.42 351.121 1161.23 362.167C1161.5 362.485 1161.78 362.803 1162.05 363.121C1165.85 367.595 1168.55 372.111 1170.42 376.457C1172.03 380.189 1173.03 383.793 1173.65 387.164C1175.83 399.376 1172.63 408.493 1172.63 408.493C1172.63 408.493 1197.25 418.415 1203.43 436.734C1205.94 444.175 1206.68 451.066 1206.47 457.13C1219.5 456.939 1229.36 452.762 1229.36 452.762C1229.36 452.762 1233.54 458.275 1241.07 463.872C1248.29 469.236 1258.55 474.685 1271.12 475.512C1296.85 477.208 1311.6 451.511 1311.6 451.511C1311.6 451.511 1329.76 467.519 1360.99 456.557C1390.97 446.041 1389.25 412.331 1389.25 412.331C1389.25 412.331 1389.44 412.394 1389.8 412.437C1393.36 413.179 1414.11 416.338 1431.03 392.931C1442.15 377.517 1441.77 362.719 1439.67 353.326C1438.63 348.683 1437.16 345.354 1436.48 343.955L1436.1 343.213C1436.1 343.213 1470.16 336.068 1469.43 300.661C1468.95 276.237 1450.88 258.533 1450.88 258.533C1450.88 258.533 1453.89 254.187 1456.17 246.788C1468.9 247 1483.98 250.01 1493.79 261.056C1513.62 283.382 1505.19 307.403 1505.19 307.403C1505.19 307.403 1529.82 317.326 1535.99 335.623C1540.75 349.764 1539.18 361.913 1536.63 370.245C1534.36 377.623 1531.34 381.97 1531.34 381.97C1531.34 381.97 1549.43 399.673 1549.9 424.097C1550.6 459.504 1516.57 466.649 1516.57 466.649M1711 671.161C1710.51 646.736 1692.42 629.033 1692.42 629.033C1692.42 629.033 1695.48 624.644 1697.73 617.202C1700.26 608.891 1701.81 596.764 1697.07 582.686C1690.89 564.368 1666.27 554.445 1666.27 554.445C1666.27 554.445 1674.72 530.445 1654.87 508.099C1644.97 496.946 1629.69 493.999 1616.88 493.83C1614.63 501.187 1611.62 505.512 1611.62 505.512C1611.62 505.512 1629.71 523.215 1630.17 547.64C1630.87 583.046 1596.84 590.191 1596.84 590.191L1597.22 590.934C1597.97 592.439 1599.62 596.234 1600.66 601.556C1602.53 610.969 1602.43 625.174 1591.77 639.909C1574.87 663.316 1554.12 660.157 1550.54 659.415C1550.18 659.351 1549.98 659.309 1549.98 659.309C1549.98 659.309 1551.7 693.02 1521.73 703.536C1490.5 714.476 1472.34 698.49 1472.34 698.49C1472.34 698.49 1457.59 724.186 1431.86 722.511C1419.92 721.727 1410.05 716.787 1402.94 711.698C1394.7 705.825 1390.09 699.762 1390.09 699.762C1390.09 699.762 1380.41 703.875 1367.55 704.129C1367.76 698.066 1367.02 691.196 1364.51 683.797C1358.33 665.479 1333.71 655.556 1333.71 655.556C1333.71 655.556 1336.91 646.44 1334.72 634.227C1334.13 630.856 1333.11 627.252 1331.52 623.542C1329.65 619.174 1326.95 614.658 1323.15 610.206C1323.15 610.206 1323.15 610.206 1323.15 610.185C1322.88 609.867 1322.6 609.549 1322.33 609.231C1312.43 598.079 1297.15 595.131 1284.34 594.962C1282.09 602.319 1279.08 606.644 1279.08 606.644C1279.08 606.644 1297.17 624.347 1297.63 648.772C1297.72 652.63 1297.38 656.15 1296.72 659.351C1291.35 685.62 1264.3 691.302 1264.3 691.302L1264.68 692.044C1265.43 693.55 1267.08 697.345 1268.14 702.666C1269.99 712.08 1269.91 726.285 1259.25 741.02C1242.35 764.427 1221.61 761.268 1218.02 760.526C1217.66 760.462 1217.47 760.42 1217.47 760.42C1217.47 760.42 1219.19 794.13 1189.21 804.647C1157.98 815.608 1139.82 799.601 1139.82 799.601C1139.82 799.601 1125.07 825.297 1099.34 823.601C1087.41 822.816 1077.55 817.876 1070.42 812.788C1062.18 806.915 1057.55 800.851 1057.55 800.851C1057.55 800.851 1048.23 804.795 1035.73 805.198C1035.98 799.028 1035.26 792.032 1032.71 784.441C1026.54 766.123 1001.91 756.222 1001.91 756.222C1001.91 756.222 1005.14 747.02 1002.91 734.723C1002.44 732.073 1001.7 729.317 1000.63 726.455C998.639 721.091 995.454 715.43 990.529 709.896C990.295 709.642 990.062 709.387 989.807 709.133C979.913 698.617 965.052 695.797 952.525 695.627C950.275 702.984 947.26 707.31 947.26 707.31C947.26 707.31 965.349 725.013 965.816 749.437C965.901 753.529 965.519 757.24 964.776 760.611C959.107 786.392 932.483 791.989 932.483 791.989L932.865 792.731C933.609 794.237 935.265 798.032 936.326 803.353C938.173 812.767 938.088 826.972 927.43 841.707C910.531 865.114 889.788 861.955 886.2 861.213C885.839 861.149 885.648 861.107 885.648 861.107C885.648 861.107 887.368 894.839 857.39 905.333C826.159 916.273 808.006 900.287 808.006 900.287C808.006 900.287 793.251 925.984 767.519 924.309C755.587 923.524 745.736 918.584 738.603 913.496C730.365 907.623 725.737 901.559 725.737 901.559C725.737 901.559 716.055 905.673 703.189 905.927C703.402 899.863 702.659 892.994 700.153 885.595C693.975 867.276 669.347 857.354 669.347 857.354C669.347 857.354 672.553 848.237 670.366 836.025C669.772 832.654 668.753 829.028 667.139 825.318C665.271 820.951 662.575 816.456 658.795 811.982C658.519 811.664 658.243 811.346 657.967 811.028C648.074 799.876 632.788 796.929 619.985 796.759C617.735 804.116 614.72 808.442 614.72 808.442C614.72 808.442 632.809 826.145 633.276 850.569C633.361 854.428 633.021 857.948 632.363 861.149C626.992 887.439 599.943 893.121 599.943 893.121L600.325 893.863C601.069 895.369 602.725 899.164 603.786 904.464C605.633 913.878 605.548 928.083 594.89 942.818C577.991 966.225 557.248 963.066 553.66 962.324C553.299 962.26 553.108 962.217 553.108 962.217C553.108 962.217 554.828 995.928 524.85 1006.44C493.619 1017.41 475.466 1001.4 475.466 1001.4C475.466 1001.4 460.711 1027.09 434.979 1025.42C423.047 1024.64 413.196 1019.7 406.063 1014.61C397.825 1008.73 393.197 1002.67 393.197 1002.67C393.197 1002.67 365.363 1014.48 341.308 999.299C330.523 992.493 325.152 984.331 322.54 977.398V977.44C327.529 1005.34 354.004 1015.96 354.599 1016.22C354.599 1016.22 340.671 1048.23 357.125 1070.56C371.244 1089.75 393.494 1087.16 399.481 1086.06L400.988 1085.74C400.988 1085.74 399.863 1094.09 404.683 1104.06C407.655 1110.23 412.899 1117.01 422.092 1122.8C446.125 1137.98 473.98 1126.17 473.98 1126.17C473.98 1126.17 490.01 1147.24 515.742 1148.92C541.473 1150.62 556.229 1124.92 556.229 1124.92C556.229 1124.92 574.36 1140.93 605.591 1129.97C635.569 1119.45 633.849 1085.74 633.849 1085.74C633.849 1085.74 634.04 1085.8 634.401 1085.84C637.989 1086.61 658.732 1089.75 675.632 1066.34C692.277 1043.27 683.147 1021.58 681.067 1017.36L680.685 1016.62C680.685 1016.62 707.733 1010.94 713.104 984.649C713.762 981.447 714.102 977.928 714.017 974.069C713.529 949.645 695.461 931.941 695.461 931.941C695.461 931.941 698.519 927.553 700.769 920.111C713.699 920.196 729.303 923.058 739.367 934.38C739.643 934.698 739.919 935.016 740.195 935.334C743.995 939.807 746.67 944.323 748.56 948.691C750.173 952.401 751.171 956.027 751.766 959.398C753.952 971.61 750.747 980.727 750.747 980.727C750.747 980.727 775.374 990.649 781.553 1008.95C784.058 1016.41 784.801 1023.32 784.589 1029.41C797.136 1029.02 806.499 1025.06 806.499 1025.06C806.499 1025.06 822.528 1046.13 848.281 1047.81C874.013 1049.5 888.769 1023.81 888.769 1023.81C888.769 1023.81 906.921 1039.82 938.152 1028.85C968.13 1018.34 966.41 984.628 966.41 984.628C966.41 984.628 966.601 984.691 966.962 984.734C970.529 985.497 991.272 988.635 1008.19 965.228C1024.84 942.161 1015.69 920.471 1013.63 916.252L1013.25 915.51C1013.25 915.51 1039.89 909.913 1045.54 884.132C1046.28 880.761 1046.66 877.05 1046.58 872.958C1046.09 848.534 1028.02 830.831 1028.02 830.831C1028.02 830.831 1031.08 826.442 1033.33 819C1045.96 819.085 1061.16 821.82 1071.21 832.506C1071.46 832.76 1071.67 833.014 1071.91 833.269C1076.83 838.824 1080.02 844.463 1082.01 849.827C1083.07 852.69 1083.82 855.467 1084.28 858.096C1086.51 870.393 1083.29 879.595 1083.29 879.595C1083.29 879.595 1107.91 889.517 1114.09 907.814C1116.66 915.447 1117.38 922.507 1117.11 928.698C1129.29 928.189 1138.27 924.372 1138.27 924.372C1138.27 924.372 1154.3 945.447 1180.06 947.122C1205.79 948.818 1220.54 923.122 1220.54 923.122C1220.54 923.122 1238.7 939.129 1269.93 928.168C1299.91 917.652 1298.19 883.941 1298.19 883.941C1298.19 883.941 1298.38 884.004 1298.74 884.068C1302.3 884.81 1323.05 887.969 1339.97 864.563C1356.61 841.495 1347.48 819.806 1345.4 815.587L1345.02 814.845C1345.02 814.845 1372.05 809.163 1377.44 782.894C1378.12 779.692 1378.44 776.151 1378.35 772.314C1377.89 747.89 1359.8 730.186 1359.8 730.186C1359.8 730.186 1362.86 725.797 1365.11 718.356C1378.04 718.441 1393.64 721.303 1403.7 732.624C1403.98 732.942 1404.26 733.26 1404.53 733.578C1408.33 738.031 1411.03 742.547 1412.9 746.914C1414.51 750.646 1415.51 754.25 1416.12 757.621C1418.31 769.833 1415.1 778.95 1415.1 778.95C1415.1 778.95 1439.73 788.872 1445.91 807.17C1448.42 814.633 1449.18 821.544 1448.93 827.629C1461.47 827.248 1470.84 823.283 1470.84 823.283C1470.84 823.283 1486.89 844.357 1512.62 846.032C1538.35 847.728 1553.11 822.032 1553.11 822.032C1553.11 822.032 1571.26 838.039 1602.49 827.078C1632.47 816.562 1630.75 782.851 1630.75 782.851C1630.75 782.851 1630.94 782.915 1631.3 782.957C1634.87 783.721 1655.61 786.858 1672.53 763.452C1689.17 740.384 1680.02 718.695 1677.96 714.476L1677.58 713.734C1677.58 713.734 1711.64 706.589 1710.92 671.182M345.172 331.404C342.179 328.011 338.973 323.495 336.786 318.047C340.586 322.52 343.283 327.036 345.172 331.404ZM1388.86 177.331C1388.37 152.907 1370.31 135.203 1370.31 135.203C1370.31 135.203 1373.32 130.857 1375.59 123.458C1378.14 115.146 1379.71 102.977 1374.96 88.8564C1368.78 70.5381 1344.15 60.6157 1344.15 60.6157C1344.15 60.6157 1352.6 36.6154 1332.75 14.2689C1322.52 2.73514 1306.51 -0.0210806 1293.43 0.000121052C1291.37 5.51256 1289.18 8.67161 1289.18 8.67161C1289.18 8.67161 1307.27 26.375 1307.74 50.7994C1308.44 86.2062 1274.41 93.3511 1274.41 93.3511L1274.79 94.0932C1275.62 95.7893 1277.59 100.305 1278.59 106.623C1280.05 115.995 1279.31 129.288 1269.35 143.069C1252.45 166.476 1231.71 163.317 1228.12 162.575C1227.76 162.511 1227.57 162.469 1227.57 162.469C1227.57 162.469 1229.29 196.179 1199.31 206.695C1168.08 217.635 1149.93 201.649 1149.93 201.649C1149.93 201.649 1135.17 227.346 1109.44 225.65C1097.6 224.865 1087.81 219.989 1080.7 214.943C1072.35 209.028 1067.68 202.9 1067.68 202.9C1067.68 202.9 1058.19 206.929 1045.5 207.247C1045.39 201.967 1044.52 196.158 1042.44 189.946C1036.26 171.628 1011.63 161.727 1011.63 161.727C1011.63 161.727 1014.84 152.61 1012.65 140.398C1012.06 137.027 1011.04 133.422 1009.42 129.691C1006.43 126.299 1003.25 121.804 1001.06 116.355C1000.78 116.037 1000.51 115.719 1000.23 115.401C989.977 103.846 973.969 101.09 960.89 101.132C958.831 106.623 956.644 109.782 956.644 109.782C956.644 109.782 974.733 127.486 975.2 151.91C975.285 155.769 974.945 159.288 974.287 162.49C968.916 188.78 941.867 194.462 941.867 194.462L942.25 195.204C943.078 196.9 945.052 201.416 946.05 207.734C947.515 217.105 946.772 230.399 936.814 244.18C919.915 267.587 899.172 264.428 895.584 263.685C895.223 263.622 895.032 263.579 895.032 263.579C895.032 263.579 896.752 297.311 866.774 307.806C835.543 318.767 817.39 302.76 817.39 302.76C817.39 302.76 802.635 328.457 776.903 326.782C765.056 325.997 755.269 321.121 748.156 316.075C739.813 310.16 735.142 304.032 735.142 304.032C735.142 304.032 726.013 307.891 713.699 308.357C713.635 302.972 712.786 296.993 710.641 290.633C704.463 272.315 679.835 262.392 679.835 262.392C679.835 262.392 683.062 253.191 680.833 240.894C680.345 238.265 679.623 235.487 678.561 232.625C676.566 227.261 673.381 221.621 668.456 216.067C668.222 215.812 667.988 215.558 667.755 215.303C657.479 204.384 641.896 201.755 629.136 201.777C627.076 207.289 624.89 210.448 624.89 210.448C624.89 210.448 642.978 228.151 643.445 252.576C643.53 256.668 643.148 260.378 642.405 263.749C636.737 289.53 610.113 295.128 610.113 295.128L610.495 295.87C611.323 297.566 613.298 302.082 614.274 308.4C615.739 317.771 614.996 331.064 605.039 344.846C588.139 368.252 567.396 365.093 563.808 364.351C563.447 364.288 563.256 364.245 563.256 364.245C563.256 364.245 564.976 397.956 534.998 408.472C503.767 419.412 485.615 403.426 485.615 403.426C485.615 403.426 470.859 429.122 445.128 427.447C433.281 426.663 423.493 421.786 416.381 416.74C408.037 410.825 403.366 404.698 403.366 404.698C403.366 404.698 393.855 408.726 381.18 409.044C381.074 403.765 380.203 397.935 378.123 391.744C371.945 373.425 347.317 363.524 347.317 363.524C347.317 363.524 350.523 354.408 348.336 342.195C347.741 338.824 346.722 335.22 345.13 331.489C342.136 328.096 338.93 323.58 336.744 318.131C336.468 317.813 336.192 317.495 335.916 317.177C325.661 305.622 309.653 302.866 296.575 302.909C294.515 308.421 292.329 311.58 292.329 311.58C292.329 311.58 310.417 329.284 310.884 353.708C310.969 357.567 310.63 361.086 309.971 364.288C304.6 390.556 277.552 396.238 277.552 396.238L277.934 396.981C278.762 398.677 280.736 403.193 281.713 409.511C283.178 418.882 282.435 432.175 272.478 445.956C255.578 469.363 234.835 466.204 231.247 465.462C230.886 465.398 230.695 465.335 230.695 465.335C230.695 465.335 232.415 499.067 202.437 509.561C171.206 520.523 153.054 504.515 153.054 504.515C153.054 504.515 138.298 530.212 112.566 528.537C100.719 527.753 90.932 522.876 83.8197 517.83C75.4759 511.915 70.8051 505.788 70.8051 505.788C70.8051 505.788 42.9714 517.597 18.9168 502.417C7.94036 495.484 2.59017 487.172 0 480.155C0.106155 481.278 0.254771 482.423 0.46708 483.589C5.47758 511.491 31.9313 522.113 32.5258 522.367C32.5258 522.367 18.5983 554.382 35.0522 576.707C49.1708 595.895 71.4208 593.308 77.4079 592.206L78.9366 591.888C78.9366 591.888 78.151 597.654 80.6563 605.308C83.0341 612.58 88.3419 621.549 100.04 628.948C124.074 644.129 151.928 632.319 151.928 632.319C151.928 632.319 156.111 637.832 163.648 643.429C170.845 648.793 181.121 654.242 193.69 655.069C219.422 656.765 234.177 631.047 234.177 631.047C234.177 631.047 252.329 647.054 283.56 636.093C313.538 625.577 311.819 591.866 311.819 591.866C311.819 591.866 312.01 591.93 312.371 591.994C315.959 592.757 336.701 595.895 353.601 572.488C364.726 557.074 364.344 542.254 362.242 532.883C361.202 528.24 359.737 524.911 359.057 523.512L358.675 522.77C358.675 522.77 385.702 517.088 391.095 490.798C391.753 487.575 392.093 484.056 392.008 480.218C391.519 455.794 373.452 438.091 373.452 438.091C373.452 438.091 376.467 433.744 378.738 426.345C391.477 426.557 406.551 429.568 416.36 440.614C416.636 440.932 416.912 441.228 417.188 441.568C420.988 446.041 423.684 450.578 425.574 454.946C427.187 458.656 428.185 462.282 428.78 465.632C430.966 477.844 427.761 486.96 427.761 486.96C427.761 486.96 452.388 496.883 458.567 515.201C461.072 522.643 461.815 529.533 461.603 535.618C474.638 535.428 484.511 531.251 484.511 531.251C484.511 531.251 488.693 536.763 496.23 542.36C503.428 547.725 513.703 553.173 526.272 554C552.004 555.696 566.759 529.979 566.759 529.979C566.759 529.979 584.912 545.986 616.143 535.025C646.121 524.509 644.401 490.798 644.401 490.798C644.401 490.798 644.592 490.862 644.953 490.904C648.52 491.667 669.262 494.805 686.183 471.398C697.308 455.985 696.926 441.165 694.803 431.794C693.763 427.151 692.298 423.822 691.618 422.423L691.236 421.68C691.236 421.68 717.86 416.083 723.529 390.302C724.272 386.931 724.654 383.221 724.569 379.129C724.081 354.704 706.013 337.001 706.013 337.001C706.013 337.001 709.028 332.655 711.3 325.255C723.741 325.467 738.411 328.329 748.22 338.761C748.454 339.015 748.687 339.27 748.921 339.524C753.846 345.058 757.031 350.718 759.027 356.082C759.027 356.082 759.027 356.082 759.027 356.104C760.088 358.966 760.81 361.743 761.298 364.372C763.549 376.669 760.301 385.871 760.301 385.871C760.301 385.871 784.928 395.793 791.107 414.111C793.676 421.723 794.397 428.762 794.121 434.953C806.796 434.613 816.286 430.606 816.286 430.606C816.286 430.606 820.469 436.119 828.006 441.716C835.203 447.08 845.479 452.55 858.069 453.356C883.801 455.052 898.556 429.334 898.556 429.334C898.556 429.334 916.709 445.342 947.939 434.38C977.917 423.864 976.198 390.154 976.198 390.154C976.198 390.154 976.389 390.217 976.75 390.281C980.338 391.023 1001.08 394.182 1017.98 370.775C1029.13 355.362 1028.72 340.542 1026.6 331.17C1025.56 326.527 1024.09 323.199 1023.42 321.821L1023.03 321.078C1023.03 321.078 1050.08 315.396 1055.45 289.106C1056.11 285.905 1056.45 282.385 1056.37 278.527C1055.88 254.102 1037.81 236.399 1037.81 236.399C1037.81 236.399 1040.85 232.053 1043.1 224.653C1055.83 224.865 1070.91 227.876 1080.72 238.922C1080.99 239.24 1081.27 239.537 1081.55 239.855C1085.35 244.328 1088.04 248.866 1089.91 253.233C1091.52 256.943 1092.52 260.569 1093.12 263.919C1095.3 276.131 1092.1 285.248 1092.1 285.248C1092.1 285.248 1116.73 295.17 1122.9 313.467C1125.41 320.909 1126.15 327.799 1125.92 333.884C1138.95 333.693 1148.83 329.517 1148.83 329.517C1148.83 329.517 1153.01 335.029 1160.55 340.626C1167.76 345.99 1178.02 351.46 1190.61 352.266C1216.34 353.962 1231.1 328.266 1231.1 328.266C1231.1 328.266 1249.25 344.273 1280.48 333.312C1310.46 322.796 1308.74 289.085 1308.74 289.085C1308.74 289.085 1308.93 289.149 1309.29 289.191C1312.88 289.933 1333.6 293.092 1350.52 269.686C1361.67 254.272 1361.26 239.452 1359.14 230.081C1358.1 225.438 1356.63 222.109 1355.96 220.731L1355.57 219.989C1355.57 219.989 1389.61 212.844 1388.91 177.437" fill="#7F0402"/>
</svg>
