<svg width="1920" height="625" viewBox="0 0 1920 625" fill="none" xmlns="http://www.w3.org/2000/svg">
<path d="M1468.42 450.123C1515.88 433.878 1608.7 393.888 1641.78 429.708C1659.05 448.443 1646.15 465.498 1635.46 474.852C1633.06 476.965 1634.78 481.396 1637.94 480.933C1655.57 478.327 1688.26 471.464 1715.67 454.264C1755.42 429.361 1780.82 412.044 1822.75 427.218C1848.57 436.542 1859.35 448.328 1863.8 456.03C1865.52 458.984 1870.66 460.315 1873.17 457.999C1881.88 449.891 1897.77 436.311 1907.75 434.805C1912.26 434.122 1916.42 433.868 1920 433.841V578.91C1908.48 583.904 1889.11 589.191 1861.38 586.712C1827.98 583.729 1806.6 561.317 1796.5 547.592C1794.61 545.044 1788.7 546.347 1787.99 549.416C1784.89 563.055 1775.91 583.556 1749.9 587.784C1710.15 594.27 1706.84 558.567 1657.16 562.91C1607.49 567.254 1558.91 585.438 1508.14 576.78C1473.77 570.931 1459.15 541.134 1453.3 522.457C1452.32 519.301 1445.86 518.982 1444.65 522.052C1436.17 543.683 1416.47 582.05 1381.21 589.753C1331.54 600.583 1305.04 574.58 1281.86 579.994C1264.85 583.961 1254.99 608.922 1250.91 621.924C1250.08 624.588 1245.89 625.167 1244.24 622.938C1235.08 610.515 1211.48 585.149 1169.25 581.095C1112.96 575.68 1103.01 607.069 1040.11 602.755C977.201 598.44 967.248 537.804 967.248 537.804C967.248 537.804 950.68 571.365 914.267 571.365C877.911 571.365 838.228 526.048 838.102 525.903C838.196 526.083 868.922 584.76 803.873 595.573C738.753 606.403 731.015 567.427 676.911 566.355C637.013 565.545 605.531 600.09 591.739 618.275C589.82 620.824 584.06 619.144 583.617 615.987C581.195 598.439 570.563 569.396 526.767 568.527C472.663 567.456 473.785 606.403 395.405 607.475C317.203 608.546 313.747 531.666 275.354 524.86C275.177 524.86 275.029 524.861 275.059 525.063C275.178 529.294 290.177 590.506 217.706 610.341C142.711 630.879 100.784 573.655 100.697 573.537C100.673 573.562 77.4976 597.951 46.5928 605.534C28.2235 610.033 10.9635 607.626 0 604.941V440.352C10.0021 435.298 24.8343 429.83 38.8848 432.344C57.4314 435.645 78.5477 463.849 87.4961 476.995C89.0615 479.282 93.1362 478.645 94.0518 476.039C99.3086 461.329 115.67 431.33 160.294 440.422C218.798 452.323 214.399 469.64 247.505 468.568C280.611 467.497 320.362 437.179 358.991 446.908C386.752 453.916 393.456 491.097 394.991 511.482C395.168 513.77 399.746 514.61 400.75 512.554C410.319 493.239 433.06 458.028 471.57 458.81C524.552 459.881 579.748 475.054 611.762 463.124C643.775 451.223 682.404 431.735 722.155 441.465C761.906 451.194 762.999 470.682 830.334 457.709C872.33 449.601 886.417 433.53 891.083 422.556C891.32 421.977 896.633 421.629 896.96 422.208C904.432 435.239 926.966 453.076 994.832 436.078C1094.18 411.175 1105.23 480.47 1105.23 480.47C1105.26 480.43 1132.84 448.017 1183.61 462.053C1216.42 471.145 1224.8 491.995 1226.63 505.604C1226.73 506.241 1231.01 506.994 1231.27 506.386C1238.12 491.965 1253.39 469.929 1281.86 472.854C1323.27 477.139 1384.04 485.624 1400.46 428.579C1400.85 427.276 1401.85 426.9 1402.68 428C1408.17 435.442 1426.9 464.341 1468.42 450.123Z" fill="#FFF8E3"/>
<path d="M1431.15 123.258C1432.77 121.694 1437.14 123.808 1436.91 126.037C1434.84 145.641 1437.71 185.37 1491.13 199.24C1563.16 217.917 1601.23 135.912 1640.15 142.427C1679.03 148.905 1668.32 199.117 1668.3 199.24C1668.38 199.159 1694.02 175.127 1730.41 179.752C1764.28 184.088 1770.96 203.224 1770.98 203.294C1771.08 203.308 1788.52 205.659 1837.22 182.185C1870.4 166.194 1902.7 171.553 1920 176.636V349.338C1905.63 351.085 1881.01 352.285 1854.59 345.56C1825.09 338.031 1807.37 320.222 1799.63 310.608C1797.33 307.742 1792.31 307.481 1789.5 309.885C1781.53 316.69 1764.49 326.795 1735.4 323.639C1682.68 317.963 1652.62 291.178 1626.92 296.043C1601.26 300.908 1585.52 334.179 1510.18 330.125C1434.84 326.071 1424.09 271.662 1395.09 270.04C1395.91 270.045 1373.56 316.313 1319.75 316.313C1265.94 316.313 1242.76 264.161 1187.3 270.677C1136.74 276.584 1133.64 328.359 1112.79 345.473C1110.28 347.529 1106.79 345.009 1106.58 341.795C1105.73 328.098 1095.8 300.068 1030.77 293.379C943.829 284.46 954.608 328.272 906.588 327.49C875.992 326.969 865.891 306.352 862.613 291.439C862.111 289.152 856.087 288.254 855.023 290.339C844.451 311.217 819.111 348.224 771.652 349.382C705.41 351.003 677.265 305.541 615.188 307.974C568.349 309.798 533.294 349.063 518.911 368.232C517.021 370.752 509.992 369.362 508.574 366.554C504.646 358.649 495.816 348.253 476.118 339.652C438.877 323.408 425.617 330.733 401.606 307.191C389.498 295.319 384.331 282.636 382.204 272.965C381.938 271.749 374.614 270.445 373.964 271.517C369.8 278.119 363.302 286.14 353.438 293.958C331.112 311.622 297.503 321.12 270.806 316.14C230.814 308.679 207.139 269.163 207.074 269.056C207.027 269.193 188.758 321.827 115.995 330.763C65.5531 336.931 46.8585 322.51 40.125 313.041C39.7703 312.52 36.2859 313.273 36.1973 313.881C35.3113 321.612 32.417 332.876 23.2324 338.899C15.7563 343.776 6.93722 343.153 0 341.317V215.382C17.4928 213.583 51.0114 208.365 79.4629 193.564C120.041 172.455 134.925 153.778 165.551 171.645C187.907 184.675 189.975 204.221 189.473 213.806C189.325 216.586 191.776 219.105 194.582 218.642C203.708 217.107 221.427 213.545 232.059 207.609C268.059 187.513 292.631 189.25 303.499 194.578C325.592 205.409 327.823 220.273 327.834 220.35C327.98 220.242 385.827 177.334 425.528 187.89C465.279 198.459 490.943 219.568 531.521 215.485C566.577 211.982 647.969 170.891 669.469 159.801C672.009 158.469 675.228 160.12 675.996 162.842C678.625 171.992 686.48 189.019 708.688 191.943C739.314 195.997 755.055 189.511 798.114 200.862C841.173 212.213 890.847 222.782 934.732 213.863C978.618 204.945 1010.07 155.428 1054.78 157.05C1099.5 158.671 1124.33 178.16 1128.47 191.943C1132.59 205.69 1130.14 223.497 1130.12 223.593C1130.23 223.425 1161.63 176.523 1192.23 183.807C1222.85 191.103 1231.98 218.689 1231.98 218.699C1232.04 218.62 1246.11 199.974 1279.17 177.291C1312.31 154.56 1321.41 156.182 1367.77 152.128C1399.02 149.406 1420.46 133.393 1431.15 123.258Z" fill="#FFF8E3"/>
<path d="M1052.1 0C1048.03 19.0712 1035.29 41.7482 999.291 50.8945C932.222 67.95 866.836 47.6506 838.662 53.3262C821.326 56.83 805.91 66.1544 796.578 72.8145C794.038 74.6387 789.49 71.8301 789.963 68.7607C792.089 55.2379 791.882 33.8681 770.737 28.9453C739.285 21.6482 716.101 41.9464 682.168 37.0527C660.491 33.9254 649.948 24.1959 645.164 17.5938C643.304 15.0167 638.785 14.2927 636.54 16.5801C622.601 30.8558 581.225 67.8053 529.011 63.8672C464.423 59.0024 476.856 37.8926 446.23 37.8926C415.605 37.8929 360.969 95.5163 274.852 89.8408C188.734 84.1651 198.687 35.4605 174.677 33.8389C150.667 32.2173 95.2041 71.9744 51.3184 70.3818C26.9719 69.4822 10.1518 64.8299 0 60.8662V0H1052.1Z" fill="#FFF8E3"/>
<path d="M1920 73.3252C1910.12 72.8757 1895.76 70.8729 1881.05 64.1279C1856.27 52.7479 1850.34 39.9487 1830.73 36.9951C1828.39 36.6479 1825.83 38.3853 1824.91 40.499C1819.86 51.9081 1801.08 83.5864 1754.39 79.5615C1708.4 75.5944 1698.86 47.7668 1696.92 37.7188C1696.56 35.8657 1694.67 34.5339 1692.84 35.0547C1685.63 37.0817 1668.89 42.2944 1655.04 50.3154C1636.82 60.8848 1582.18 90.9127 1533.33 80.3438C1484.49 69.7745 1520.9 33.26 1506.84 23.5303C1492.78 13.8008 1441.43 28.3949 1419.9 41.3965C1403.57 51.2418 1380.12 66.676 1369.72 73.5967C1366.59 75.6524 1362.46 75.3913 1359.47 73.1328C1347.37 63.9825 1314.29 42.5841 1275.01 47.0723C1225.34 52.7478 1202.15 81.5884 1136.74 75.9131C1095.01 72.2908 1072.32 30.0901 1061.34 0H1920V73.3252Z" fill="#FFF8E3"/>
</svg>
