<svg width="24" height="24" viewBox="0 0 24 24" fill="none" xmlns="http://www.w3.org/2000/svg">
<path d="M4.27906 22C3.64734 22 3.10957 21.7805 2.66574 21.3416C2.22191 20.9027 2 20.362 2 19.7196C2 19.0772 2.22043 18.5303 2.6613 18.079C3.10217 17.6276 3.63847 17.402 4.27018 17.402C4.9019 17.402 5.43504 17.6261 5.86963 18.0745C6.30421 18.5228 6.5215 19.0682 6.5215 19.7106C6.5215 20.353 6.30569 20.8952 5.87406 21.3371C5.44244 21.779 4.91077 22 4.27906 22ZM14.813 22C14.1795 22 13.6471 21.7805 13.2158 21.3416C12.7844 20.9027 12.5687 20.362 12.5687 19.7196C12.5687 19.0772 12.7864 18.5303 13.2219 18.079C13.6574 17.6276 14.1937 17.402 14.8308 17.402C15.4679 17.402 16.0037 17.6261 16.4383 18.0745C16.8729 18.5228 17.0902 19.0682 17.0902 19.7106C17.0902 20.353 16.8709 20.8952 16.4325 21.3371C15.9942 21.779 15.4544 22 14.813 22ZM9.47212 17.0353C8.83504 17.0353 8.29958 16.8111 7.86574 16.3628C7.4319 15.9144 7.21498 15.3691 7.21498 14.7267C7.21498 14.0842 7.43273 13.5421 7.86824 13.1001C8.30374 12.6582 8.84004 12.4372 9.47711 12.4372C10.1142 12.4372 10.65 12.6567 11.0846 13.0956C11.5192 13.5346 11.7365 14.0752 11.7365 14.7176C11.7365 15.36 11.5184 15.9069 11.0821 16.3583C10.6459 16.8096 10.1092 17.0353 9.47212 17.0353ZM19.7298 17.0353C19.0981 17.0353 18.5603 16.8111 18.1165 16.3628C17.6727 15.9144 17.4508 15.3691 17.4508 14.7267C17.4508 14.0842 17.6735 13.5421 18.119 13.1001C18.5645 12.6582 19.1031 12.4372 19.7348 12.4372C20.3665 12.4372 20.902 12.6567 21.3412 13.0956C21.7804 13.5346 22 14.0752 22 14.7176C22 15.36 21.7796 15.9069 21.3387 16.3583C20.8978 16.8096 20.3615 17.0353 19.7298 17.0353ZM4.27906 11.591C3.64734 11.591 3.10957 11.3695 2.66574 10.9267C2.22191 10.4838 2 9.93841 2 9.29055C2 8.64269 2.22043 8.09779 2.6613 7.65585C3.10217 7.21392 3.63847 6.99295 4.27018 6.99295C4.9019 6.99295 5.43504 7.21476 5.86963 7.65839C6.30421 8.10202 6.5215 8.64777 6.5215 9.29563C6.5215 9.94349 6.30569 10.488 5.87406 10.9292C5.44244 11.3704 4.91077 11.591 4.27906 11.591ZM14.813 11.591C14.1795 11.591 13.6471 11.3695 13.2158 10.9267C12.7844 10.4838 12.5687 9.93841 12.5687 9.29055C12.5687 8.64269 12.7864 8.09779 13.2219 7.65585C13.6574 7.21392 14.1937 6.99295 14.8308 6.99295C15.4679 6.99295 16.0037 7.21476 16.4383 7.65839C16.8729 8.10202 17.0902 8.64777 17.0902 9.29563C17.0902 9.94349 16.8709 10.488 16.4325 10.9292C15.9942 11.3704 15.4544 11.591 14.813 11.591ZM9.47212 6.62623C8.83504 6.62623 8.29958 6.40009 7.86574 5.94781C7.4319 5.49553 7.21498 4.94546 7.21498 4.2976C7.21498 3.64974 7.43273 3.10484 7.86824 2.66291C8.30374 2.22097 8.84004 2 9.47711 2C10.1142 2 10.65 2.22294 11.0846 2.66883C11.5192 3.11453 11.7365 3.66347 11.7365 4.31566C11.7365 4.95994 11.5184 5.50606 11.0821 5.95402C10.6459 6.40216 10.1092 6.62623 9.47212 6.62623ZM19.7298 6.62623C19.0981 6.62623 18.5603 6.40009 18.1165 5.94781C17.6727 5.49553 17.4508 4.94546 17.4508 4.2976C17.4508 3.64974 17.6735 3.10484 18.119 2.66291C18.5645 2.22097 19.1031 2 19.7348 2C20.3665 2 20.902 2.22294 21.3412 2.66883C21.7804 3.11453 22 3.66347 22 4.31566C22 4.95994 21.7796 5.50606 21.3387 5.95402C20.8978 6.40216 20.3615 6.62623 19.7298 6.62623Z" fill="#FF7ABA"/>
</svg>
