<svg width="24" height="24" viewBox="0 0 24 24" fill="none" xmlns="http://www.w3.org/2000/svg">
<path d="M9.65351 13.7039H11.598V9.28555H9.65351V13.7039ZM5.62392 17.2996V12.6933C4.82737 12.2703 4.19092 11.678 3.71455 10.9166C3.23818 10.1551 3 9.32957 3 8.43995C3 7.18136 3.45052 6.1067 4.35155 5.21598C5.25243 4.32542 6.32473 3.88014 7.56843 3.88014C7.72462 3.88014 7.87307 3.88633 8.0138 3.89871C8.15468 3.91093 8.30298 3.93608 8.45869 3.97415L8.64612 4.02115L8.73983 3.85664C9.14669 3.22256 9.68569 2.75456 10.3568 2.45264C11.0281 2.15088 11.7386 2 12.4883 2C13.238 2 13.9523 2.15096 14.6312 2.45288C15.3103 2.75496 15.8557 3.22288 16.2674 3.85664L16.3611 4.02115L16.5486 3.97415C16.6999 3.94281 16.8555 3.91931 17.0153 3.90364C17.175 3.88797 17.3271 3.88014 17.4714 3.88014C18.7256 3.88014 19.7939 4.32644 20.6763 5.21904C21.5588 6.11148 22 7.18496 22 8.43948C22 9.35496 21.7618 10.1871 21.2854 10.9358C20.8091 11.6844 20.1804 12.2703 19.3995 12.6933V17.2996H5.62392ZM13.4254 13.7039H15.3699V9.28555H13.4254V13.7039ZM5.62392 22V18.7098H19.3995V22H5.62392Z" fill="#76CA22"/>
</svg>
