<svg width="24" height="24" viewBox="0 0 24 24" fill="none" xmlns="http://www.w3.org/2000/svg">
<path d="M20.341 17.2074L6.79263 3.65899C7.54531 3.15207 8.38495 2.74885 9.31152 2.44931C10.2382 2.14977 11.2264 2 12.276 2C13.6416 2 14.9162 2.25023 16.0998 2.75069C17.2832 3.25131 18.3121 3.93886 19.1866 4.81336C20.0611 5.68786 20.7487 6.71682 21.2493 7.90023C21.7498 9.08379 22 10.3584 22 11.724C22 12.7736 21.8502 13.7618 21.5507 14.6885C21.2512 15.6151 20.8479 16.4547 20.341 17.2074Z" fill="#006DA8"/>
<path d="M20.5945 22L18.129 19.5576C17.3149 20.1567 16.4089 20.6175 15.4111 20.9401C14.4131 21.2627 13.3708 21.424 12.2843 21.424C10.935 21.424 9.65853 21.1773 8.45484 20.6839C7.25115 20.1906 6.21713 19.5118 5.35276 18.6472C4.48825 17.7829 3.80937 16.7488 3.31613 15.5452C2.82273 14.3415 2.57604 13.065 2.57604 11.7157C2.57604 10.6292 2.73733 9.58694 3.05991 8.58894C3.38249 7.59109 3.84332 6.6851 4.4424 5.87097L2 3.40553L3.10599 2.29954L21.7005 20.894L20.5945 22ZM20.341 17.2074L6.79263 3.65899C7.54531 3.15207 8.38495 2.74885 9.31152 2.44931C10.2382 2.14977 11.2264 2 12.276 2C13.6416 2 14.9162 2.25023 16.0998 2.75069C17.2832 3.25131 18.3121 3.93886 19.1866 4.81336C20.0611 5.68786 20.7487 6.71682 21.2493 7.90023C21.7498 9.08379 22 10.3584 22 11.724C22 12.7736 21.8502 13.7618 21.5507 14.6885C21.2512 15.6151 20.8479 16.4547 20.341 17.2074Z" fill="#006DA8"/>
</svg>
