<svg width="24" height="24" viewBox="0 0 24 24" fill="none" xmlns="http://www.w3.org/2000/svg">
<path d="M22 11.2683H19.7C19.4 10.1951 18.9 9.12195 18.2 8.34146L21.6 3.07317L19.9 2L16.7 6.97561C16.3 6.68293 16 6.48781 15.5 6.29268L16.4 2.78049L14.5 2.29268L13.7 5.60976C13.1 5.5122 12.6 5.41463 12 5.41463C8.3 5.41463 5.2 7.95122 4.3 11.2683H2C2 15.2683 4.5 18.6829 8 20.2439V22H16V20.2439C19.5 18.6829 22 15.2683 22 11.2683ZM12 7.36585C14.6 7.36585 16.8 9.02439 17.6 11.2683H6.4C7.2 9.02439 9.4 7.36585 12 7.36585Z" fill="#FFE14A"/>
</svg>
