<svg width="24" height="24" viewBox="0 0 24 24" fill="none" xmlns="http://www.w3.org/2000/svg">
<path d="M11.995 23C11.7523 23 11.5125 22.9636 11.2757 22.8908C11.0388 22.8181 10.8377 22.7159 10.6726 22.5841L9.71731 21.881C9.52132 21.7492 9.30839 21.6457 9.07854 21.5703C8.8487 21.495 8.61439 21.4573 8.37562 21.4573H7.21771C6.71608 21.4573 6.27017 21.3055 5.87999 21.002C5.48981 20.6985 5.20745 20.3112 5.03292 19.8403L4.68616 18.7494C4.6107 18.5265 4.50395 18.3105 4.36591 18.1012C4.22771 17.8921 4.06886 17.7217 3.88937 17.5899L2.93407 16.9119C2.53563 16.6251 2.26805 16.2414 2.13133 15.7609C1.99461 15.2804 1.98759 14.8047 2.11028 14.3338L2.47115 13.2147C2.52779 12.9919 2.56023 12.758 2.56849 12.5131C2.57675 12.268 2.55256 12.0244 2.49592 11.7823L2.08551 10.6806C1.96283 10.1907 1.97216 9.71622 2.1135 9.25716C2.25501 8.79826 2.53324 8.41704 2.94818 8.11351L3.87526 7.42115C4.05474 7.29893 4.2159 7.1341 4.35873 6.92667C4.50156 6.71924 4.6107 6.49866 4.68616 6.26494L5.08245 5.15997C5.24047 4.70576 5.51045 4.32505 5.89237 4.01783C6.2743 3.71062 6.71608 3.55701 7.21771 3.55701H8.37562C8.61439 3.55701 8.84638 3.52536 9.07161 3.46208C9.29683 3.3988 9.51207 3.29759 9.71731 3.15846L10.6585 2.41612C10.8495 2.29156 11.0595 2.19111 11.2884 2.11477C11.5172 2.03826 11.7518 2 11.992 2C12.2324 2 12.471 2.0406 12.7078 2.1218C12.9448 2.203 13.1588 2.30948 13.3498 2.44124L14.291 3.1444C14.4705 3.28336 14.6777 3.38691 14.9127 3.45505C15.1478 3.52302 15.3785 3.55701 15.6047 3.55701H16.7827C17.2698 3.55701 17.7092 3.71062 18.1011 4.01783C18.4929 4.32505 18.7678 4.70576 18.9259 5.15997L19.2833 6.26494C19.3589 6.50402 19.468 6.72359 19.6107 6.92366C19.7535 7.12356 19.9147 7.29047 20.0942 7.42441L21.0324 8.10497C21.4422 8.42357 21.7196 8.81241 21.8646 9.27147C22.0096 9.73037 22.0078 10.2001 21.8591 10.6806L21.4876 11.7823C21.4145 12.021 21.382 12.2638 21.3903 12.5105C21.3985 12.7572 21.4392 12.9919 21.5124 13.2147L21.8839 14.3338C22.0419 14.8055 22.0386 15.2778 21.874 15.7504C21.7092 16.2232 21.425 16.6103 21.0215 16.9119L20.0942 17.5899C19.9147 17.7217 19.7529 17.8893 19.609 18.0927C19.4651 18.2961 19.3695 18.5103 19.3221 18.7353L18.9011 19.8403C18.7431 20.3112 18.4723 20.6985 18.0887 21.002C17.7051 21.3055 17.2698 21.4573 16.7827 21.4573H15.6047C15.3752 21.4573 15.1414 21.4992 14.9033 21.5829C14.6652 21.6666 14.4574 21.7612 14.2801 21.8667L13.3498 22.5841C13.1517 22.7085 12.937 22.809 12.7058 22.8855C12.4747 22.9618 12.2377 23 11.995 23ZM12.1867 16.9631C12.6821 17.4581 13.2724 17.7057 13.9579 17.7057C14.6431 17.7057 15.2391 17.4581 15.7459 16.9631L16.8 15.9191L15.4561 14.5708L14.4017 15.6145C14.2696 15.7391 14.1222 15.8014 13.9596 15.8014C13.797 15.8014 13.6559 15.7398 13.5363 15.6168C13.4004 15.4842 13.3325 15.3304 13.3325 15.1554C13.3325 14.9805 13.4022 14.8307 13.5415 14.7062L15.7459 12.4854C16.2153 12.0075 16.45 11.4205 16.45 10.7245C16.45 10.0284 16.2129 9.42918 15.7387 8.92692C15.2387 8.4414 14.6455 8.20283 13.9591 8.2112C13.2725 8.21957 12.69 8.45815 12.2115 8.92692L9.27793 11.9011C9.14765 12.0256 8.99177 12.0879 8.8103 12.0879C8.629 12.0879 8.48163 12.0264 8.36819 11.9033C8.24534 11.7707 8.18392 11.6187 8.18392 11.4473C8.18392 11.276 8.24534 11.1282 8.36819 11.0038L10.8698 8.50327L9.57861 7.1547L7.07505 9.67654C6.58811 10.1624 6.34464 10.7557 6.34464 11.4563C6.34464 12.157 6.58761 12.7547 7.07356 13.2496C7.55241 13.7351 8.13736 13.9779 8.82839 13.9779C9.51942 13.9779 10.1126 13.7351 10.608 13.2496L13.5415 10.2361C13.6477 10.1284 13.7846 10.0769 13.9522 10.0816C14.1198 10.0863 14.2696 10.1378 14.4017 10.2361C14.5246 10.3851 14.586 10.5478 14.586 10.7243C14.586 10.9006 14.5246 11.0454 14.4017 11.1587L12.2362 13.4329C11.7574 13.9091 11.505 14.4975 11.4791 15.1981C11.4533 15.8988 11.6892 16.4871 12.1867 16.9631Z" fill="#B94300"/>
</svg>
