<svg width="24" height="24" viewBox="0 0 24 24" fill="none" xmlns="http://www.w3.org/2000/svg">
<path d="M4.14431 20.9258V10.5325C3.5101 10.1597 2.99417 9.68077 2.5965 9.09563C2.19883 8.51049 2 7.77962 2 6.90301C2 5.7759 2.37882 4.83129 3.13646 4.06918C3.89409 3.30691 4.83521 2.92578 5.95982 2.92578H18.0268C19.1514 2.92578 20.0948 3.30691 20.8569 4.06918C21.619 4.83129 22 5.7759 22 6.90301C22 7.77962 21.8012 8.51049 21.4035 9.09563C21.0058 9.68077 20.4978 10.1597 19.8796 10.5325V20.9258H4.14431ZM12.0172 18.2234L17.4241 12.8613L12.0172 7.50934L6.64771 12.8613L12.0172 18.2234ZM12.0036 15.9048L9.02441 12.9426L12.0036 9.96718L14.9966 12.9426L12.0036 15.9048Z" fill="#9406B7"/>
</svg>
