<svg width="24" height="24" viewBox="0 0 24 24" fill="none" xmlns="http://www.w3.org/2000/svg">
<path d="M3.51751 17.9405C4.52918 18.8007 5.70947 19.1371 7.05837 18.9497H16.9416C18.2041 19.1371 19.3627 18.7964 20.4176 17.9278C21.4725 17.0591 22 15.935 22 14.5553C22 13.6526 21.706 12.7626 21.118 11.8854C20.53 11.0083 19.7345 10.4504 18.7315 10.212C18.3165 8.61092 17.4864 7.34199 16.2412 6.40519C14.9961 5.4684 13.578 5 11.987 5C10.4133 5 8.99092 5.47266 7.71984 6.41797C6.44877 7.36328 5.623 8.63647 5.24254 10.2375C4.23952 10.476 3.44834 11.0296 2.869 11.8982C2.28967 12.7669 2 13.6526 2 14.5553C2 15.952 2.50584 17.0804 3.51751 17.9405Z" fill="#D00667"/>
</svg>
