<svg width="34" height="34" viewBox="0 0 34 34" fill="none" xmlns="http://www.w3.org/2000/svg">
<path d="M3.66866 30.3313C3.27861 29.9413 3.08358 29.4886 3.08358 28.9731C3.08358 28.4577 3.27861 28.005 3.66866 27.6149L5.84179 25.3582C4.95025 24.1881 4.25373 22.8995 3.75224 21.4925C3.25075 20.0856 3 18.5881 3 17C3 13.0995 4.35821 9.79104 7.07463 7.07463C9.79104 4.35821 13.0995 3 17 3H31V17C31 20.9005 29.6418 24.209 26.9254 26.9254C24.209 29.6418 20.9005 31 17 31C15.4119 31 13.9075 30.7493 12.4866 30.2478C11.0657 29.7463 9.77015 29.0498 8.6 28.1582L6.38507 30.3313C5.99503 30.7214 5.54229 30.9164 5.02687 30.9164C4.51144 30.9164 4.05871 30.7214 3.66866 30.3313ZM10.8985 23.1015C11.3164 23.4915 11.7831 23.6866 12.2985 23.6866C12.8139 23.6866 13.2667 23.4915 13.6567 23.1015L19.7582 17C20.1483 16.61 20.3433 16.1502 20.3433 15.6209C20.3433 15.0915 20.1483 14.6318 19.7582 14.2418C19.396 13.8796 18.9433 13.6985 18.4 13.6985C17.8567 13.6985 17.404 13.8796 17.0418 14.2418L10.7731 20.4687C10.4109 20.8308 10.2438 21.2697 10.2716 21.7851C10.2995 22.3005 10.5085 22.7393 10.8985 23.1015Z" fill="#238600"/>
</svg>
