<svg width="1920" height="843" viewBox="0 0 1920 843" fill="none" xmlns="http://www.w3.org/2000/svg">
<path d="M1750.76 228.255C1752.47 225.732 1759.55 226.954 1760.08 229.858C1764.77 255.392 1784.37 304.787 1866.13 304.56C1886.94 304.496 1904.62 300.288 1920 293.472V467.288C1829.39 474.245 1795.28 419.284 1756.5 426.297C1757.68 426.028 1743.78 492.117 1666.88 510.051C1589.98 527.985 1536.5 469.618 1459.78 496.36C1389.82 520.698 1405.59 587.348 1382.47 615.986C1379.69 619.428 1373.72 617.397 1372.17 613.393C1365.6 596.32 1340.49 564.104 1244.94 577.301C1117.2 594.976 1149.7 646.908 1080.76 661.922C1036.83 671.459 1014.36 648.696 1003.85 630.889C1002.24 628.157 993.282 629.028 992.576 632.024C985.612 662.008 963.836 717.353 896.462 734.639C802.424 758.772 744.463 710.537 656.692 734.31C590.464 752.233 555.684 813.679 542.608 842.767C542.573 842.846 542.532 842.924 542.489 843H526.061C517.079 834.542 500.506 824.964 470.299 820.809C410.738 812.633 394.645 826.337 351.146 804.504C329.208 793.493 316.873 779.142 310.061 767.594C309.205 766.142 298.233 766.931 297.721 768.505C294.345 778.26 288.189 790.591 277.143 803.787C264.131 819.301 245.895 833.03 225.748 843H93.0732C71.6798 832.532 58.2471 821.01 58.2471 821.01C58.2422 821.074 57.5624 829.953 52.4287 843H0V734.11C6.93131 742.432 10.0936 750.982 11.5352 756.855C12.4087 760.428 16.8948 762.803 20.7236 761.281C33.1668 756.295 57.102 745.875 69.9805 734.809C113.59 697.341 149.384 691.353 166.995 694.483C202.808 700.849 211.79 718.955 211.829 719.034C211.925 718.927 277.895 645.189 338.785 645.335C399.72 645.481 444.634 663.68 501.033 644.981C549.766 628.857 650.057 549.654 676.457 528.433C679.567 525.898 684.812 526.918 686.972 530.111C694.298 540.832 712.169 559.792 745.049 556.097C790.399 551.027 810.365 537.56 876.332 537.595C942.299 537.629 1017.42 534.467 1076.66 508.537C1135.9 482.607 1161.53 409.371 1226.06 396.523C1290.59 383.676 1333.69 400.095 1344.98 416.186C1356.27 432.276 1359.69 455.746 1359.69 455.746C1359.69 455.746 1386.27 385.591 1432.93 384.622C1479.55 383.663 1503.36 415.595 1503.36 415.595C1503.36 415.595 1516.16 387.239 1554.65 347.387C1593.13 307.535 1606.77 306.558 1671.45 285.967C1715.04 272.103 1739.44 244.662 1750.76 228.255Z" fill="#F2D6AE"/>
<path d="M1826.04 625.428C1826.08 623.649 1827.36 622.837 1828.98 623.956C1838.94 631 1872.34 657.611 1920 636.111V758.344C1912.21 787.049 1895.84 820.473 1861.4 836.108C1855.42 838.82 1849.59 841.094 1843.91 843H1042.43C1082.82 821.816 1093.62 801.048 1095.7 787.569C1095.81 786.757 1103.27 784.545 1103.96 785.17C1119.72 799.194 1158.89 814.29 1249.25 770.129C1381.52 705.456 1424.34 789.594 1424.34 789.594C1424.34 789.594 1451.09 739.261 1529.17 740.13C1579.61 740.718 1599.73 764.345 1607.66 780.982C1608.03 781.76 1614.45 781.287 1614.59 780.428C1618.75 759.868 1631.98 726.853 1673.81 721.07C1734.65 712.702 1824.83 703.196 1826.04 625.428Z" fill="#F2D6AE"/>
<path d="M1920 133.319C1907.1 136.924 1893.71 139.279 1880.06 139.812C1806.12 142.697 1843.92 84.2839 1820.03 76.6387C1796.14 68.9939 1728.44 104.607 1702.74 128.26C1683.24 146.18 1655.75 173.556 1643.6 185.792C1639.92 189.441 1633.91 190.488 1628.77 188.62C1607.89 181.059 1552.27 164.964 1497.89 183.743C1429.11 207.492 1407.23 251.77 1311.53 266.38C1241.75 277.029 1187.84 215.498 1163.72 181.396C1163.47 181.023 1158.57 182.874 1158.69 183.277C1164.81 209.463 1163.39 251.879 1105.33 280.482C1016.14 324.451 914.77 320.519 876.719 337.103C853.31 347.321 834.917 364.276 824.178 375.827C821.26 378.986 813.664 376.941 813.142 372.894C810.904 355.047 802.271 328.033 770.13 328.842C722.332 330.077 697.119 363.529 646.714 368.637C614.514 371.898 595.65 363.081 586.236 356.309C582.572 353.663 575.832 354.252 573.517 357.898C559.165 380.637 514.449 441.254 438.29 453.666C344.085 469.028 353.617 438.131 309.849 448.338C266.08 458.546 210.48 549.784 85.1895 571.294C47.036 577.844 20.0579 576.368 0 571.314V347.853C46.2442 325.858 106.691 310.384 139.3 339C163.218 359.972 150.192 388.34 139.722 403.998C137.423 407.405 141.374 411.715 145.453 409.978C164.313 401.882 198.023 384.423 226.335 353.984C268.242 308.93 280.252 298.42 309.522 290.492C338.749 282.577 380.9 300.234 381.027 300.287C381.073 300.186 408.143 239.922 470.273 227.673C532.444 215.377 608.186 247.312 665.887 216.234C723.545 185.167 743.918 131.879 798.353 135.743C832.25 138.143 837.101 158.015 835.949 172.641C835.731 175.602 842.573 178.726 845.056 176.652C863.322 161.34 900.733 135.624 952.973 127.217C1029.09 114.972 1066.79 146.771 1099.03 123.795C1131.28 100.856 1163.9 66.7773 1216.23 67.7881C1248.37 68.4353 1265.8 80.3793 1274.44 89.4951C1275.58 90.6849 1281.5 89.187 1281.65 87.6182C1283 70.7043 1292.14 41.472 1337.69 33.957C1402.85 23.1647 1569.41 41.0787 1604.76 7.4668C1607.46 4.89681 1609.71 2.40613 1611.55 0H1920V133.319Z" fill="#F2D6AE"/>
<path d="M768.466 0C761.969 10.4207 749.657 20.4618 728.537 28.873C639.696 64.3023 613.43 17.4853 535.688 34.1602C478.362 46.4676 446.836 100.704 434.221 128.348C432.471 132.217 423.587 132.007 421.722 128.155C411.403 106.687 384.887 73.4586 321.955 86.9551C244.214 103.63 261.013 152.615 149.425 180.133C75.6937 198.291 35.4663 162.21 0 136.97V0H69.75C91.0342 14.9143 104.444 41.2956 111.358 58.543C112.504 61.3829 119.374 60.9214 120.007 57.9814C123.434 42.5373 130.795 19.4477 146.256 0H768.466Z" fill="#F2D6AE"/>
</svg>
