<svg width="1920" height="261" viewBox="0 0 1920 261" fill="none" xmlns="http://www.w3.org/2000/svg">
<path d="M1920 9.0957C1919.41 10.071 1918.82 11.005 1918.22 11.8955C1912.21 20.9614 1906.35 25.6265 1906.32 25.6562C1906.39 25.7827 1923.16 56.3401 1914.44 89.0117L1914.11 89.7803C1900.76 137.667 1852.15 133.522 1852.15 133.522L1852.37 134.674C1853.43 141.177 1856.94 174.027 1825.27 198.315C1793.09 222.947 1766.51 210.356 1762.03 207.89C1761.58 207.693 1761.35 207.533 1761.33 207.524C1761.3 207.67 1749.94 253.536 1705.52 255.566C1659.15 257.692 1641.25 228.846 1641.25 228.846C1641.25 228.846 1611.05 257.43 1577.19 244.762C1543.32 232.121 1530.29 197.312 1530.29 197.312C1530.22 197.32 1516.08 198.851 1499.12 194.31C1501.92 186.233 1503.68 176.633 1503.34 165.59C1502.44 138.552 1473.5 115.309 1473.38 115.219C1473.38 115.219 1481.37 104.258 1483.37 86.959C1483.91 82.179 1484.03 76.931 1483.37 71.2637C1482.63 64.6385 1480.83 57.4791 1477.53 49.96C1477.29 49.421 1477.04 48.8817 1476.8 48.3428C1467.87 29.061 1448.07 18.9132 1430.75 13.5791C1424.72 22.6741 1418.84 27.3389 1418.84 27.3389C1418.84 27.3389 1435.97 58.4394 1426.72 91.46C1425.29 96.6528 1423.43 101.284 1421.22 105.313C1403.38 138.419 1364.85 135.18 1364.78 135.174L1364.99 136.326C1366.08 142.838 1369.57 175.679 1337.9 199.967C1305.72 224.599 1279.15 211.979 1274.66 209.541C1274.2 209.31 1273.97 209.147 1273.97 209.147C1273.94 209.25 1262.6 255.159 1218.15 257.189C1171.89 259.311 1153.96 230.594 1153.89 230.47C1153.8 230.55 1123.64 259.037 1089.83 246.386C1055.93 233.737 1042.92 198.936 1042.92 198.936C1042.88 198.94 1029.3 200.434 1012.76 196.204C1015.63 187.993 1017.51 178.211 1017.15 166.914C1016.25 139.863 987.279 116.609 987.196 116.543C987.251 116.467 995.255 105.417 997.226 88.0469C997.661 84.3243 997.786 80.2907 997.518 76.0146C997.006 67.9984 995.01 59.1314 990.643 49.6758C990.432 49.2396 990.25 48.8119 990.011 48.3672C980.847 29.9489 961.543 20.135 944.617 14.9209C938.588 24.0159 932.708 28.6807 932.708 28.6807C932.708 28.6807 949.81 59.7734 940.593 92.8027C939.053 98.3374 937.04 103.171 934.68 107.402C916.676 139.778 878.64 136.545 878.64 136.545L878.853 137.696C879.912 144.199 883.431 177.05 851.759 201.338C819.579 225.97 792.998 213.377 788.518 210.911C788.05 210.708 787.819 210.546 787.819 210.546C787.819 210.546 776.502 256.556 732.002 258.589C685.64 260.715 667.738 231.868 667.738 231.868C667.658 231.944 637.495 260.436 603.678 247.784C569.778 235.135 556.775 200.335 556.775 200.335C556.685 200.345 542.548 201.869 525.602 197.331C528.346 189.237 530.143 179.647 529.796 168.604C528.899 141.563 499.948 118.317 499.842 118.232C499.842 118.232 507.831 107.271 509.831 89.9727C510.396 85.2011 510.522 79.9241 509.855 74.2852C509.084 67.6513 507.318 60.5009 504.023 52.9531C503.781 52.4143 503.539 51.8757 503.297 51.3369C494.362 32.0549 474.568 21.9064 457.242 16.5723C451.213 25.6672 445.334 30.333 445.334 30.333C445.356 30.3724 462.43 61.4458 453.219 94.4541C451.773 99.6754 449.895 104.27 447.717 108.308C429.878 141.479 391.266 138.196 391.266 138.196L391.479 139.349C392.567 145.861 396.056 178.702 364.385 202.989C332.234 227.63 305.653 215.038 301.144 212.563C300.685 212.365 300.454 212.205 300.445 212.198C300.42 212.301 289.078 258.209 244.628 260.24C198.266 262.366 180.393 233.528 180.393 233.528C180.333 233.584 150.161 262.101 116.332 249.444C82.5163 236.824 69.5011 202.116 69.459 202.004C69.459 202.004 27.2868 206.632 1.15527 176.523C0.760747 176.07 0.376956 175.615 0 175.163V3.51367C6.65537 3.84275 10.918 3.37598 10.918 3.37598C10.942 3.43981 14.709 13.4309 23.3672 24.6152C30.8881 34.3353 42.1176 44.9535 57.8203 50.8252C91.6913 63.4653 121.89 34.8809 121.89 34.8809C121.97 35.0103 139.895 63.7225 186.152 61.6016C230.623 59.5699 241.955 13.6179 241.97 13.5586C241.973 13.5602 242.212 13.694 242.668 13.9238C247.185 16.3699 273.758 28.9908 305.909 4.34961C307.768 2.92735 309.506 1.47499 311.13 0H472.518C487 2.95983 498.264 1.71484 498.264 1.71484C498.264 1.71484 502.027 11.7348 510.713 22.9551C518.234 32.6751 529.463 43.2933 545.166 49.165C579.037 61.8049 609.234 33.2197 609.234 33.2197C609.234 33.2197 627.145 62.0377 673.498 59.9404C717.935 57.9382 729.288 12.0095 729.315 11.8984C729.323 11.9028 729.562 12.0363 730.014 12.2637C734.531 14.71 761.104 27.3303 793.255 2.68945C794.412 1.80445 795.52 0.906458 796.585 0H967.939C977.681 1.03612 984.422 0.310563 984.477 0.304688C984.477 0.304688 988.24 10.3247 996.926 21.5449C1004.45 31.265 1015.68 41.8831 1031.38 47.7549C1065.17 60.398 1095.32 31.9543 1095.44 31.8389C1095.5 31.9352 1113.42 60.6808 1159.7 58.5586C1204.16 56.5273 1215.5 10.6008 1215.52 10.5166C1215.53 10.5216 1215.77 10.6551 1216.22 10.8818C1220.74 13.3281 1247.31 25.9485 1279.46 1.30762C1280.03 0.874919 1280.58 0.438037 1281.12 0H1472.36C1473.67 3.07974 1477.44 11.1218 1484.23 19.9043C1491.73 29.6158 1502.98 40.2425 1518.69 46.1143C1552.5 58.7338 1582.66 30.2634 1582.76 30.1699C1582.83 30.2858 1600.76 58.9825 1647.02 56.8896C1691.49 54.858 1702.82 8.90788 1702.84 8.84766C1702.85 8.85418 1703.09 8.98746 1703.54 9.21289C1708.03 11.6475 1734.36 24.1541 1766.3 0H1920V9.0957Z" fill="#FEFCF9"/>
</svg>
