<svg width="1920" height="472" viewBox="0 0 1920 472" fill="none" xmlns="http://www.w3.org/2000/svg">
<g clip-path="url(#clip0_3215_6121)">
<path d="M0 -609.038C0 -609.038 26.7048 -628.959 51.0681 -624.519C69.6815 -621.145 90.8734 -592.343 99.854 -578.904C101.425 -576.566 105.515 -577.217 106.434 -579.881C111.71 -594.918 128.13 -625.585 172.914 -616.29C231.629 -604.124 227.213 -586.423 260.439 -587.518C293.664 -588.613 333.558 -619.606 372.326 -609.66C400.187 -602.496 406.915 -564.459 408.456 -543.65C408.634 -541.311 413.228 -540.453 414.236 -542.554C423.839 -562.298 446.661 -598.293 485.31 -597.494C538.483 -596.398 593.878 -580.888 626.007 -593.054C658.136 -605.22 696.904 -625.141 736.798 -615.195C776.692 -605.249 777.789 -585.328 845.366 -598.589C887.513 -606.848 901.65 -623.306 906.333 -634.524C906.57 -635.116 911.905 -635.472 912.232 -634.88C919.73 -621.559 942.345 -603.325 1010.46 -620.701C1110.16 -646.158 1121.25 -575.352 1121.25 -575.352C1121.25 -575.352 1148.93 -608.535 1199.91 -594.178C1232.84 -584.884 1241.25 -563.571 1243.09 -549.659C1243.18 -549.007 1247.48 -548.238 1247.75 -548.83C1254.62 -563.571 1269.95 -586.097 1298.52 -583.108C1340.07 -578.727 1401.07 -570.054 1417.55 -628.367C1417.93 -629.699 1418.94 -630.084 1419.77 -628.959C1425.28 -621.352 1444.08 -591.81 1485.75 -606.344C1533.38 -622.95 1626.53 -663.829 1659.73 -627.213C1677.07 -608.061 1664.12 -590.656 1653.39 -581.065C1650.99 -578.934 1652.7 -574.375 1655.88 -574.849C1673.57 -577.513 1706.38 -584.528 1733.89 -602.111C1773.78 -627.568 1799.27 -645.27 1841.36 -629.759C1867.26 -620.227 1878.08 -608.18 1882.56 -600.306C1884.27 -597.286 1889.43 -595.925 1891.95 -598.293C1900.69 -606.581 1916.64 -620.464 1926.66 -622.003C1941.06 -624.223 1951.88 -622.003 1951.88 -622.003V-482.198C1951.88 -482.198 1928.88 -462.277 1880.13 -466.717C1846.6 -469.766 1825.14 -492.677 1815.01 -506.708C1813.11 -509.313 1807.18 -507.981 1806.47 -504.843C1803.36 -490.901 1794.35 -469.973 1768.24 -465.622C1728.34 -458.991 1725.02 -495.489 1675.17 -491.049C1625.32 -486.638 1576.56 -468.019 1525.61 -476.87C1491.11 -482.849 1476.44 -513.309 1470.57 -532.401C1469.59 -535.628 1463.1 -535.953 1461.89 -532.816C1453.38 -510.704 1433.61 -471.483 1398.22 -463.609C1348.37 -452.538 1321.78 -479.09 1298.52 -473.555C1281.45 -469.499 1271.55 -443.983 1267.46 -430.693C1266.63 -427.969 1262.42 -427.377 1260.76 -429.656C1251.57 -442.355 1227.89 -468.286 1185.5 -472.43C1129.01 -477.965 1119.02 -445.878 1055.89 -450.288C992.761 -454.699 982.772 -516.683 982.772 -516.683C982.772 -516.683 966.145 -482.376 929.6 -482.376C893.055 -482.376 853.161 -528.849 853.161 -528.849C853.161 -528.849 884.193 -468.7 818.809 -457.659C753.455 -446.588 745.69 -486.431 691.391 -487.526C651.348 -488.325 619.753 -453.041 605.912 -434.452C603.985 -431.847 598.205 -433.564 597.761 -436.79C595.33 -454.758 584.66 -484.418 540.706 -485.306C486.407 -486.401 487.533 -446.588 408.871 -445.463C330.387 -444.368 326.919 -522.959 288.388 -529.915C288.21 -529.944 288.062 -529.915 288.092 -529.737C288.21 -525.415 303.267 -462.839 230.533 -442.562C155.19 -421.546 113.103 -480.185 113.103 -480.185C113.103 -480.185 89.836 -455.232 58.8039 -447.476C27.8311 -439.75 0 -451.916 0 -451.916V-609.038ZM0 -312.762C0 -312.762 28.6313 -313.591 57.7369 -305.273C86.8129 -296.956 119.208 -304.445 120.068 -323.537C120.542 -334.401 115.355 -347.928 110.821 -357.608C109.427 -360.568 113.281 -364.15 116.067 -362.403C126.796 -355.713 142.979 -346.33 156.346 -341.239C194.343 -326.823 234.593 -333.72 270.338 -343.695C306.083 -353.641 353.565 -356.749 370.192 -327.681C381.633 -307.701 367.376 -288.638 357.358 -278.692C355.165 -276.531 356.884 -272.594 359.907 -273.186C373.897 -275.969 399.505 -283.191 424.194 -301.129C460.739 -327.681 470.728 -333.483 491.505 -334.312C512.282 -335.141 536.378 -314.39 536.378 -314.39C536.378 -314.39 566.284 -355.062 609.498 -353.375C652.712 -351.717 695.896 -314.391 739.969 -327.652C784.013 -340.913 808.109 -377.44 842.995 -364.978C864.72 -357.223 863.89 -341.416 860.185 -330.612C859.444 -328.421 863.297 -324.869 865.342 -325.994C880.399 -334.312 910.097 -347.1 946.02 -344.258C998.363 -340.114 1016.65 -309.566 1042.41 -321.199C1068.16 -332.802 1096.41 -352.724 1130.49 -342.778C1151.42 -336.65 1160.43 -324.603 1164.25 -316.226C1164.76 -315.131 1168.94 -315.219 1169.35 -316.374C1173.65 -328.865 1185.53 -349.26 1216.89 -346.922C1261.77 -343.607 1367.28 -300.892 1397.22 -319.985C1413.99 -330.671 1413.78 -342.423 1410.35 -350.681C1410.11 -351.273 1413.49 -354.707 1414.05 -354.411C1430.2 -345.412 1463.16 -331.677 1506.85 -337.42C1570.01 -345.738 1633.97 -350.711 1659.76 -331.618C1677.22 -318.683 1674.07 -301.958 1670.22 -292.486C1668.95 -289.348 1671.26 -285.885 1674.55 -286.743C1683.05 -288.963 1698.73 -294.232 1723.72 -306.724C1765.27 -327.474 1767.76 -332.447 1792.69 -326.645C1808.72 -322.916 1818.89 -311.963 1824.14 -304.622C1826.33 -301.544 1831.34 -300.981 1834.1 -303.557C1843.67 -312.555 1864.98 -328.421 1894.89 -326.616C1936.44 -324.129 1951.97 -315.811 1951.97 -315.811V-179.529C1951.97 -179.529 1926.48 -176.213 1899.86 -188.646C1875 -200.279 1869.04 -213.363 1849.36 -216.382C1847.02 -216.737 1844.44 -214.961 1843.52 -212.8C1838.45 -201.137 1819.6 -168.754 1772.74 -172.868C1726.59 -176.924 1717.02 -205.37 1715.07 -215.642C1714.71 -217.536 1712.81 -218.898 1710.98 -218.365C1703.74 -216.293 1686.94 -210.965 1673.04 -202.765C1654.75 -191.961 1599.92 -161.265 1550.89 -172.069C1501.87 -182.874 1538.42 -220.2 1524.31 -230.146C1510.2 -240.092 1458.66 -225.173 1437.05 -211.883C1420.66 -201.818 1397.13 -186.041 1386.69 -178.966C1383.55 -176.865 1379.4 -177.131 1376.41 -179.44C1364.26 -188.794 1331.06 -210.669 1291.64 -206.081C1241.79 -200.279 1218.52 -170.796 1152.87 -176.598C1105 -180.831 1082.09 -236.599 1073.17 -266.496C1073.08 -266.822 1069.5 -266.289 1069.5 -265.963C1068.22 -245.184 1058.74 -213.511 1014.93 -202.173C947.621 -184.738 882 -205.489 853.724 -199.687C836.326 -196.105 820.854 -186.574 811.488 -179.766C808.939 -177.901 804.375 -180.772 804.849 -183.91C806.983 -197.733 806.776 -219.579 785.554 -224.611C753.989 -232.07 730.722 -211.32 696.667 -216.323C674.911 -219.52 664.33 -229.465 659.529 -236.214C657.661 -238.849 653.127 -239.589 650.874 -237.25C636.885 -222.657 595.36 -184.886 542.958 -188.912C478.138 -193.885 490.616 -215.464 459.88 -215.464C429.144 -215.464 374.312 -156.558 287.884 -162.36C201.457 -168.162 211.445 -217.951 187.349 -219.608C163.252 -221.266 107.59 -180.624 63.5462 -182.252C19.5025 -183.91 0 -198.029 0 -198.029V-312.733L0 -312.762ZM0 -33.0929C0 -33.0929 51.0681 -34.7506 91.7922 -56.3297C132.516 -77.9088 147.454 -97.0014 178.19 -78.7376C200.627 -65.4172 202.702 -45.4365 202.198 -35.6386C202.05 -32.7969 204.51 -30.2217 207.325 -30.6953C216.484 -32.2641 234.267 -35.905 244.937 -41.9732C281.067 -62.5163 305.727 -60.7402 316.634 -55.2936C338.864 -44.1933 341.057 -28.9488 341.057 -28.9488C341.057 -28.9488 399.209 -72.9358 439.103 -62.1315C478.997 -51.3272 504.753 -29.7481 545.478 -33.9218C580.659 -37.5035 662.344 -79.5072 683.922 -90.8444C686.471 -92.206 689.701 -90.5188 690.472 -87.7363C693.11 -78.3824 700.994 -60.977 723.282 -57.9873C754.018 -53.8432 769.816 -60.4738 813.03 -48.8702C856.243 -37.2667 906.096 -26.4624 950.14 -35.5795C994.184 -44.6965 1025.75 -95.3141 1070.62 -93.6564C1115.5 -91.9988 1140.42 -72.0774 1144.57 -57.9873C1148.72 -43.8973 1146.23 -25.6336 1146.23 -25.6336C1146.23 -25.6336 1177.8 -73.7646 1208.56 -66.3052C1239.3 -58.8458 1248.46 -30.6361 1248.46 -30.6361C1248.46 -30.6361 1262.57 -49.7287 1295.82 -72.9654C1329.08 -96.2021 1338.2 -94.5445 1384.74 -98.6886C1416.1 -101.471 1437.61 -117.84 1448.34 -128.201C1449.97 -129.799 1454.36 -127.638 1454.12 -125.359C1452.05 -105.319 1454.92 -64.7067 1508.54 -50.5279C1580.83 -31.4353 1619.03 -115.265 1658.1 -108.605C1697.16 -101.974 1686.35 -50.5279 1686.35 -50.5279C1686.35 -50.5279 1712.1 -75.1855 1748.68 -70.4493C1782.73 -66.0092 1789.4 -46.3838 1789.4 -46.3838C1789.4 -46.3838 1806.86 -43.8973 1855.88 -67.9629C1904.9 -92.0284 1952 -68.7917 1952 -68.7917V100.703C1952 100.703 1914.86 109.82 1873.31 99.0455C1843.7 91.3493 1825.92 73.1447 1818.15 63.3172C1815.84 60.3867 1810.8 60.1203 1807.98 62.5772C1799.98 69.5334 1782.88 79.8641 1753.68 76.6376C1700.78 70.8359 1670.61 43.455 1644.82 48.428C1619.06 53.4009 1603.27 87.4124 1527.66 83.2683C1452.05 79.1241 1441.26 23.504 1412.15 21.8463C1412.98 21.8463 1390.55 69.1486 1336.54 69.1486C1282.54 69.1486 1259.28 15.8374 1203.61 22.4976C1152.87 28.5362 1149.76 81.4626 1128.83 98.9567C1126.31 101.058 1122.82 98.4831 1122.61 95.1974C1121.75 81.1962 1111.79 52.5425 1046.53 45.7047C959.269 36.5876 970.087 81.3738 921.894 80.5746C891.188 80.0417 881.051 58.9659 877.761 43.7214C877.257 41.383 871.211 40.4653 870.144 42.5966C859.533 63.9388 834.103 101.769 786.473 102.953C719.992 104.61 691.746 58.137 629.445 60.6235C582.437 62.4884 547.256 102.627 532.822 122.223C530.925 124.798 523.871 123.378 522.448 120.506C518.506 112.425 509.644 101.798 489.875 93.0069C452.5 76.4008 439.192 83.8899 415.095 59.8243C402.943 47.688 397.756 34.7227 395.622 24.836C395.356 23.5928 388.005 22.2607 387.353 23.356C383.174 30.105 376.653 38.3044 366.754 46.2967C344.347 64.3532 310.618 74.0624 283.824 68.971C243.633 61.334 219.863 20.8399 219.863 20.8399C219.863 20.8399 201.575 74.7728 128.456 83.9195C77.8322 90.2245 59.0707 75.4832 52.313 65.8037C51.9573 65.2709 48.4599 66.0405 48.371 66.6621C47.4818 74.5656 44.5772 86.0803 35.3594 92.2373C20.3917 102.183 0.0592782 89.7509 0.0592782 89.7509V-33.1226L0 -33.0929ZM0 203.241C0 203.241 26.7048 183.319 51.0681 187.76C69.6815 191.134 90.8734 219.965 99.854 233.404C101.425 235.743 105.515 235.091 106.434 232.427C111.71 217.39 128.13 186.723 172.914 196.018C231.629 208.184 227.213 225.885 260.439 224.79C293.664 223.695 333.558 192.703 372.326 202.649C400.187 209.812 406.915 247.82 408.456 268.659C408.634 270.997 413.228 271.856 414.236 269.754C423.839 250.01 446.661 214.015 485.31 214.815C538.483 215.91 593.878 231.421 626.007 219.225C658.136 207.059 696.904 187.138 736.798 197.084C776.692 207.03 777.789 226.951 845.366 213.69C887.513 205.402 901.65 188.973 906.333 177.754C906.57 177.162 911.905 176.807 912.232 177.399C919.73 190.72 942.345 208.954 1010.46 191.578C1110.16 166.121 1121.25 236.956 1121.25 236.956C1121.25 236.956 1148.93 203.774 1199.91 218.13C1232.84 227.425 1241.25 248.737 1243.09 262.65C1243.18 263.301 1247.48 264.071 1247.75 263.449C1254.62 248.708 1269.95 226.181 1298.52 229.171C1340.07 233.552 1401.07 242.225 1417.55 183.911C1417.93 182.579 1418.94 182.195 1419.77 183.319C1425.28 190.927 1444.08 220.468 1485.75 205.934C1533.38 189.328 1626.53 148.449 1659.73 185.066C1677.07 204.218 1664.12 221.653 1653.39 231.214C1650.99 233.374 1652.7 237.903 1655.88 237.43C1673.57 234.766 1706.38 227.75 1733.89 210.167C1773.78 184.711 1799.27 167.009 1841.36 182.52C1867.26 192.052 1878.08 204.099 1882.56 211.973C1884.27 214.992 1889.43 216.354 1891.95 213.986C1900.69 205.698 1916.64 191.815 1926.66 190.276C1941.06 188.056 1951.88 190.276 1951.88 190.276V330.081C1951.88 330.081 1928.88 350.002 1880.13 345.562C1846.6 342.513 1825.14 319.602 1815.01 305.571C1813.11 302.966 1807.18 304.298 1806.47 307.436C1803.36 321.378 1794.35 342.335 1768.24 346.657C1728.34 353.288 1725.02 316.79 1675.17 321.23C1625.32 325.67 1576.56 344.26 1525.61 335.409C1491.11 329.43 1476.44 298.97 1470.57 279.878C1469.59 276.651 1463.1 276.325 1461.89 279.463C1453.38 301.575 1433.61 340.796 1398.22 348.67C1348.37 359.741 1321.78 333.159 1298.52 338.695C1281.45 342.75 1271.55 368.266 1267.46 381.557C1266.63 384.28 1262.42 384.872 1260.76 382.593C1251.57 369.894 1227.89 343.964 1185.5 339.819C1129.01 334.284 1119.02 366.371 1055.89 361.961C992.761 357.55 982.772 295.566 982.772 295.566C982.772 295.566 966.145 329.873 929.6 329.873C893.055 329.873 853.161 283.4 853.161 283.4C853.161 283.4 884.193 343.549 818.809 354.62C753.455 365.691 745.69 325.848 691.391 324.753C651.348 323.924 619.753 359.238 605.912 377.827C603.985 380.432 598.205 378.715 597.761 375.488C595.33 357.55 584.66 327.861 540.706 326.973C486.407 325.877 487.533 365.691 408.871 366.786C330.387 367.881 326.919 289.291 288.388 282.334C288.21 282.334 288.062 282.334 288.092 282.542C288.21 286.863 303.267 349.44 230.533 369.716C155.19 390.733 113.103 332.094 113.103 332.094C113.103 332.094 89.836 357.047 58.8039 364.803C27.8311 372.528 0 360.333 0 360.333V203.211V203.241Z" fill="#F5EEE8"/>
</g>
<defs>
<clipPath id="clip0_3215_6121">
<rect width="1920" height="472" fill="white"/>
</clipPath>
</defs>
</svg>
