<svg width="430" height="181" viewBox="0 0 430 181" fill="none" xmlns="http://www.w3.org/2000/svg">
<g clip-path="url(#clip0_3159_4755)">
<path d="M403.455 107.832C402.206 105.013 400.541 102.404 398.355 100.316C396.169 98.2285 393.567 96.454 390.548 95.3058C387.529 94.1575 384.302 93.5312 380.763 93.5312C377.224 93.5312 373.893 94.1575 370.875 95.3058C367.856 96.454 365.254 98.2285 363.068 100.316C360.882 102.404 359.216 105.013 357.967 107.832C356.718 110.65 356.094 113.782 356.094 117.122C356.094 120.462 356.718 123.594 357.967 126.412C359.216 129.23 360.882 131.84 363.068 133.927C365.254 136.015 367.856 137.79 370.875 138.938C373.893 140.086 377.12 140.712 380.763 140.712C384.407 140.712 387.633 140.086 390.548 138.938C393.567 137.79 396.169 136.015 398.355 133.927C400.541 131.84 402.31 129.23 403.455 126.412C404.704 123.594 405.329 120.462 405.329 117.122C405.329 113.782 404.704 110.754 403.455 107.832ZM388.882 120.566C388.466 121.61 387.737 122.55 386.905 123.28C386.072 124.011 385.135 124.637 384.094 125.159C381.908 125.994 379.41 125.994 377.224 125.159C376.183 124.742 375.247 124.115 374.414 123.385C373.581 122.654 372.957 121.715 372.54 120.566C372.124 119.523 371.812 118.374 371.812 117.122C371.812 115.869 372.02 114.721 372.54 113.677C373.061 112.633 373.685 111.694 374.414 110.859C375.247 110.128 376.183 109.502 377.224 109.084C378.265 108.667 379.41 108.458 380.659 108.458C381.908 108.458 383.053 108.667 384.094 109.084C385.135 109.502 386.176 110.128 386.905 110.963C387.737 111.694 388.362 112.633 388.882 113.677C389.299 114.721 389.611 115.869 389.611 117.122C389.611 118.374 389.403 119.523 388.882 120.566Z" fill="white"/>
<path d="M425.001 164.919H378.889V150.723L379.93 146.234H378.889H374.413H367.855H363.275H362.234L363.275 150.41V177.132H424.585L429.998 178.384V177.132V174V168.155V164.919V163.666L425.001 164.919Z" fill="white"/>
<path d="M428.644 99.4776L429.997 93.9453H428.644H423.856H417.819H412.926H411.781L412.926 99.2688V149.373L411.781 154.592H412.926H417.819H423.856H428.644H429.997L428.644 149.059V99.4776Z" fill="white"/>
<path d="M213.074 117.636C218.278 125.778 232.539 133.189 246.383 134.546L251.275 121.707C232.643 119.202 221.089 111.269 221.089 101.144V99.3691L222.234 94.6719H203.705L204.85 99.3691V101.039C204.85 111.164 193.505 119.202 174.664 121.707L179.556 134.546C193.088 133.189 208.181 125.882 213.178 117.532" fill="white"/>
<path d="M248.464 139.252H177.786L172.27 138.312V139.252V142.801V148.124V151.674V152.613L177.786 151.674H189.445V170.776L188.091 178.396H189.445H193.92H200.166H204.746H205.995L204.746 171.611V151.674H221.401V171.402L220.151 178.396H221.401H225.98H232.226H236.702H238.055L236.702 170.984V151.674H248.36L253.981 152.613V151.674V148.124V142.801V139.252V138.312L248.464 139.252Z" fill="white"/>
<path d="M305.817 97.1825H293.742L294.783 103.028V119.938H279.898V103.132L280.939 97.0781H263.348L264.389 103.028V151.775L271.883 163.153H310.293V103.237L311.334 97.1825H305.817ZM294.783 150.94H279.898V132.255H294.783V150.94Z" fill="white"/>
<path d="M343.293 122.439H336.423V98.7441L337.464 94.0469H336.423H331.739H325.389H320.705H319.664L320.705 98.7441V173.795L319.664 178.493H320.705H325.389H331.739H336.423H337.464L336.423 173.795V134.965H343.501L348.393 135.8V134.965V131.416V125.988V122.439V121.5L343.293 122.439Z" fill="white"/>
<path d="M73.0733 155.845H64.9542C68.4933 144.154 69.326 117.954 69.326 113.883V106.263L62.0396 95.3032H12.5964L9.68184 94.7812V95.3032V110.021V110.543L12.7005 110.021H53.9205V116.597C53.9205 122.651 53.6083 149.895 48.716 155.95H5.83048L0.105469 154.906V170.563L5.41411 169.624H72.9692L78.2778 170.563V154.906L73.1774 155.845H73.0733Z" fill="white"/>
<path d="M160.713 94.6719H144.371L145.204 99.056V124.839C144.787 126.926 142.914 129.849 135.835 129.849H103.879V125.152H136.564V106.154L129.902 96.0289H92.2213L89.8272 95.6113V109.807L92.1172 109.39H120.638V113.983H88.5781V132.458C88.5781 132.458 88.5781 132.98 88.5781 133.189L94.7195 142.584C96.385 143.21 98.3627 143.627 100.653 143.627H120.326C132.713 143.627 140.415 142.375 145.1 140.6V147.907H160.609V98.534L161.338 94.7763H160.609L160.713 94.6719Z" fill="white"/>
<path d="M96.4927 151.459L93.5781 150.938V151.459V155.844V161.063V165.238V165.864L97.2213 165.238H145.207V174.424L144.062 181H145.207H149.163H154.575H159.676H160.717V165.238V151.459H145.207H96.4927Z" fill="white"/>
<path d="M42.1554 52.0851C43.0922 55.1122 43.5086 56.6779 44.4454 59.705C44.5495 60.2269 44.6536 60.4357 44.8618 60.9576C45.1741 61.7927 45.3822 62.7321 45.6945 63.6716C46.0068 64.611 46.3191 65.5505 46.6313 66.4899C46.215 65.6548 45.6945 64.7154 45.1741 63.776C44.6536 62.8365 44.0291 61.7927 43.4045 60.7489C41.635 57.8261 40.6981 56.3648 38.9286 53.442C38.3041 53.7552 37.9918 53.8596 37.3672 54.1727C38.4081 57.513 38.8245 59.2875 39.8654 62.6277C40.0736 63.4628 40.3859 64.2979 40.6982 65.1329C41.0104 66.0724 41.3227 67.0118 41.7391 68.16C41.7391 68.3688 41.8432 68.4732 41.9472 68.7863C41.9472 68.682 41.8432 68.4732 41.7391 68.3688C41.7391 68.3688 41.7391 68.16 41.635 68.16C41.3227 67.5337 41.1145 67.2206 40.8022 66.6987C40.49 66.1768 40.1777 65.5505 39.7613 64.9242C39.4491 64.4022 39.345 64.1935 39.0327 63.776C37.055 60.5401 36.0141 58.9743 34.0363 55.7385C33.2036 56.0516 32.8913 56.2604 32.0586 56.6779C36.5345 63.4628 38.7204 66.9074 43.1963 73.7967C43.8209 73.4836 44.1332 73.3792 44.7577 73.066C43.7168 69.7258 43.1963 68.0557 42.2595 64.611C42.2595 64.611 42.2595 64.4023 42.1554 64.1935C42.1554 63.9847 41.9472 63.5672 41.8432 63.1497C41.635 62.419 41.5309 62.0014 41.2186 61.2708C41.2186 61.2708 41.2186 61.062 41.0104 60.7489C40.9063 60.4357 40.6982 60.0182 40.5941 59.4963C40.5941 59.4963 40.5941 59.2875 40.49 59.1831C40.3859 59.0787 40.49 58.87 40.2818 58.6612C40.3859 58.9743 40.49 59.0787 40.6982 59.3919C40.9063 59.8094 41.1145 60.1226 41.3227 60.4357C41.5309 60.7488 41.635 60.9576 41.635 61.062C42.0513 61.7927 42.2595 62.1058 42.6759 62.8365C42.8841 63.254 43.0922 63.5672 43.1963 63.776C43.3004 63.9847 43.4045 64.0891 43.4045 64.0891C45.2782 67.1162 46.215 68.5776 47.9845 71.6047C48.6091 71.2915 48.9213 71.1871 49.5459 70.9784C47.36 63.1497 46.215 59.1831 44.1332 51.25C43.3004 51.5631 42.9882 51.7719 42.1554 52.0851Z" fill="white"/>
<path d="M61.8296 63.2614C60.7887 60.6518 60.2682 59.3992 59.2273 56.894C60.4764 56.3721 60.9969 56.1633 62.2459 55.7458C61.9337 54.9107 61.7255 54.4932 61.4132 53.5538C60.1641 53.9713 59.6437 54.2844 58.3946 54.702C57.4578 52.3012 56.9373 51.153 56.0005 48.7521C57.3537 48.2302 58.0823 47.9171 59.4355 47.3952C59.1232 46.5601 58.915 46.1426 58.6028 45.2031C56.4169 46.0382 55.2718 46.5601 53.0859 47.3952C56.1046 54.9107 57.6659 58.6685 60.6846 66.1841C62.7664 65.349 63.8073 64.9315 65.9932 64.0964C65.681 63.2614 65.4728 62.8438 65.1605 61.9044C63.8073 62.4263 63.1828 62.6351 61.8296 63.2614Z" fill="white"/>
<path d="M76.6088 57.7225L70.6756 40.8125C69.8428 41.1256 69.4265 41.23 68.5938 41.5432C71.3001 49.1631 72.6533 52.9209 75.4638 60.5409C77.5456 59.8102 78.5865 59.3927 80.7724 58.662C80.4601 57.8269 80.356 57.305 80.0438 56.4699C78.6906 56.8875 78.066 57.2006 76.7128 57.6181" fill="white"/>
<path d="M90.8748 52.9235C88.6889 46.0342 87.648 42.694 85.5662 35.8047C84.7335 36.1178 84.3171 36.2222 83.4844 36.431C85.9826 44.1553 87.1276 48.0175 89.6257 55.7418C91.8116 55.0111 92.8526 54.698 94.9344 54.0717C94.6221 53.2366 94.518 52.7147 94.3098 51.8797C92.9567 52.2972 92.3321 52.506 90.9789 52.9235" fill="white"/>
<path d="M105.447 30.061C105.759 33.2968 105.968 34.967 106.28 38.2028C106.28 38.8291 106.28 39.0379 106.384 39.6642C106.488 40.4993 106.592 41.0212 106.696 41.8563C106.8 42.7957 106.904 43.2132 107.009 44.1527C107.009 44.1527 107.009 44.1527 107.009 44.3614C107.009 44.3614 107.009 44.5702 107.009 44.6746C106.592 43.6308 106.176 42.5869 105.759 41.6475C105.343 40.708 104.927 39.7686 104.51 38.8291C103.157 35.802 102.429 34.2363 100.971 31.2092C100.243 31.418 99.8263 31.5223 99.0977 31.7311C100.763 39.6642 101.596 43.6308 103.261 51.5639C103.99 51.3551 104.406 51.2507 105.239 51.0419C103.99 45.614 103.365 42.9001 102.22 37.4722C102.637 38.516 103.053 39.5598 103.469 40.4993C103.886 41.4387 104.302 42.3782 104.719 43.3176C105.968 46.1359 106.592 47.4929 107.945 50.3113C108.466 50.2069 108.778 50.1025 109.299 49.9981C108.882 46.4491 108.778 44.6746 108.362 41.1256C108.362 40.8124 108.362 40.708 108.362 40.3949C108.362 39.6642 108.258 39.2467 108.154 38.516C108.154 38.3072 108.154 37.9941 108.154 37.5765C108.154 37.2634 108.154 36.8459 107.945 36.324C107.945 36.1152 107.945 36.1152 107.945 35.9064C107.945 35.9064 107.945 36.0108 107.945 36.1152C107.945 36.1152 107.945 36.1152 107.945 36.2196C108.258 37.159 108.362 37.6809 108.57 38.6204C108.882 39.6642 108.986 40.1861 109.299 41.23C109.299 41.4387 109.299 41.5431 109.507 41.8563C109.507 42.065 109.611 42.3782 109.715 42.6913C110.548 45.3009 110.964 46.6579 111.797 49.2674C112.629 49.0587 112.942 48.9543 113.774 48.7455C111.276 41.0212 109.923 37.159 107.425 29.5391C106.696 29.7478 106.28 29.8522 105.551 30.061" fill="white"/>
<path d="M122.619 25.9922C121.994 26.0966 121.578 26.201 120.953 26.4097C121.265 34.656 121.474 38.7269 121.994 46.9732C122.827 46.7644 123.139 46.66 123.972 46.5556C123.972 44.9899 123.868 44.1548 123.764 42.5891C125.013 42.2759 125.637 42.1715 126.782 41.9628C127.303 43.4241 127.615 44.1548 128.135 45.7206C128.968 45.5118 129.385 45.5118 130.217 45.303C127.303 37.6831 125.741 33.8209 122.619 26.201M123.451 40.2926C123.451 39.2488 123.451 38.7269 123.243 37.6831C123.243 36.3261 123.035 34.9691 122.931 33.7165C122.827 32.4639 122.723 31.2113 122.514 30.0631C123.243 32.4639 123.972 34.656 124.804 36.7436C125.221 37.9962 125.533 38.6225 125.949 39.7707C124.909 39.9795 124.492 40.0839 123.451 40.2926Z" fill="white"/>
<path d="M145.105 32.254C144.689 29.8532 144.272 28.0787 143.856 26.8261C143.336 25.5735 142.815 24.5297 141.982 23.799C141.462 23.2771 140.941 22.9639 140.421 22.8595C139.796 22.7552 139.068 22.7552 138.339 22.8595C137.298 23.0683 136.674 23.1727 135.633 23.3815C137.09 31.3146 137.819 35.2811 139.276 43.3186C139.901 43.2142 140.317 43.1098 140.941 43.0054C142.919 42.6923 144.168 41.9616 144.793 41.0222C145.313 40.1871 145.521 39.1433 145.626 37.7863C145.626 36.3249 145.626 34.5504 145.209 32.3584M143.127 38.6214C142.815 39.6652 142.086 40.2915 140.837 40.5003C139.796 34.3417 139.172 31.3146 138.131 25.156C138.235 25.156 138.339 25.156 138.443 25.156C139.588 24.9472 140.525 25.3647 141.15 26.5129C141.774 27.5568 142.399 29.6444 142.919 32.7759C143.44 35.5943 143.544 37.5775 143.231 38.6214" fill="white"/>
<path d="M158.326 38.0014C158.014 35.2874 157.806 33.9305 157.389 31.1121C158.638 30.9033 159.263 30.9033 160.512 30.6946C160.408 29.7551 160.304 29.3376 160.2 28.3982C158.951 28.5025 158.326 28.6069 157.077 28.8157C156.765 26.3105 156.557 25.0579 156.244 22.4483C157.702 22.2396 158.43 22.1352 159.887 22.0308C159.783 21.0914 159.679 20.6738 159.575 19.7344C157.181 20.0475 156.036 20.1519 153.746 20.4651C154.891 28.5025 155.412 32.4691 156.452 40.5066C158.638 40.1934 159.783 40.089 161.969 39.7759C161.865 38.8365 161.761 38.4189 161.657 37.4795C160.2 37.6882 159.575 37.6882 158.118 37.897" fill="white"/>
<path d="M278.024 23.1664C277.711 22.5401 277.295 22.1226 276.774 21.8095C276.254 21.4963 275.629 21.2875 274.797 21.1832C273.756 21.0788 273.131 20.9744 272.09 20.7656C270.945 28.8031 270.321 32.7697 269.176 40.8071C269.8 40.8071 270.217 40.9115 270.841 41.0159C272.819 41.3291 274.172 41.0159 275.109 40.3896C275.838 39.7633 276.462 38.8239 276.983 37.5713C277.503 36.2143 277.919 34.4398 278.232 32.2477C278.648 29.8469 278.752 27.968 278.752 26.7155C278.752 25.3585 278.44 24.2103 278.024 23.2708M276.046 31.9346C275.629 34.7529 275.005 36.7362 274.484 37.5713C273.86 38.5107 272.923 38.8239 271.674 38.6151C272.611 32.4565 273.027 29.4294 273.964 23.2708C273.964 23.2708 274.172 23.2708 274.276 23.2708C275.421 23.4796 276.15 24.1059 276.462 25.3585C276.67 26.6111 276.566 28.6987 276.15 31.8302" fill="white"/>
<path d="M286.562 43.7368C288.748 44.1544 289.893 44.3631 292.079 44.7807C292.287 43.8412 292.392 43.4237 292.496 42.4842C291.143 42.1711 290.414 42.0667 289.061 41.7536C289.581 39.0396 289.893 37.6826 290.414 34.9687L293.537 35.595C293.745 34.6555 293.849 34.238 293.953 33.2985C292.704 33.0898 292.079 32.881 290.83 32.6722C291.351 30.1671 291.559 28.9145 292.079 26.4093C293.537 26.7224 294.265 26.8268 295.723 27.1399C295.931 26.2005 296.035 25.783 296.139 24.8435C293.849 24.3216 292.704 24.1128 290.31 23.6953C288.748 31.6284 288.02 35.595 286.562 43.5281" fill="white"/>
<path d="M306.236 27.2422C304.467 35.1753 303.53 39.0375 301.656 46.9706C303.842 47.4925 304.883 47.7012 307.069 48.2232C307.277 47.2837 307.381 46.8662 307.589 46.0311C306.236 45.718 305.612 45.5092 304.154 45.1961C305.82 38.2024 306.653 34.7578 308.318 27.7641C307.485 27.5553 307.069 27.451 306.132 27.2422" fill="white"/>
<path d="M316.125 50.5224C316.958 50.7312 317.374 50.8356 318.207 51.0443C320.393 43.2156 321.434 39.3535 323.62 31.5247C322.787 31.316 322.37 31.2116 321.434 30.8984C319.352 38.7272 318.311 42.5893 316.125 50.418" fill="white"/>
<path d="M337.252 44.1601C337.252 44.1601 336.836 44.8908 336.628 45.5171C336.315 46.3521 336.107 46.7697 335.691 47.5003C335.274 48.3354 335.066 48.7529 334.754 49.588C334.754 49.588 334.754 49.588 334.754 49.6924C334.754 49.6924 334.754 49.9012 334.65 50.0055C334.858 48.8573 335.066 47.8135 335.274 46.7697C335.483 45.7258 335.587 44.682 335.691 43.6382C336.107 40.2979 336.315 38.6278 336.732 35.2875C336.003 35.0788 335.691 34.9744 334.858 34.7656C331.943 42.3856 330.59 46.1434 327.676 53.7633C328.404 53.9721 328.821 54.0765 329.549 54.3896C331.423 49.1705 332.36 46.5609 334.234 41.2374C334.025 42.3856 333.817 43.4294 333.609 44.4732C333.401 45.5171 333.297 46.5609 333.193 47.5003C332.776 50.5275 332.568 52.0932 332.152 55.1203C332.672 55.3291 332.984 55.3291 333.505 55.5378C335.066 52.302 335.899 50.7362 337.46 47.5003C337.564 47.2916 337.669 47.0828 337.773 46.874L338.605 45.2039C338.605 45.2039 338.814 44.682 339.022 44.3689C339.126 44.0557 339.334 43.6382 339.542 43.2206C339.542 43.1163 339.542 43.0119 339.75 42.9075V43.1163C339.438 44.0557 339.334 44.5776 339.022 45.5171C338.709 46.5609 338.605 47.0828 338.293 48.1266C338.293 48.231 338.293 48.4398 338.085 48.7529C338.085 48.9617 337.981 49.2749 337.877 49.588C337.148 52.1976 336.836 53.5546 336.107 56.2685C336.836 56.4773 337.252 56.686 338.085 56.8948C340.063 49.0661 341.104 45.0995 342.977 37.1664C342.249 36.9577 341.832 36.8533 341.104 36.5401C339.646 39.4629 338.918 40.9242 337.356 43.8469" fill="white"/>
<path d="M347.145 60.3315C349.33 61.0621 350.371 61.4797 352.453 62.3147C352.765 61.4797 352.974 61.0621 353.286 60.1227C351.933 59.6008 351.308 59.392 349.955 58.8701C350.892 56.2605 351.412 55.0079 352.349 52.3984C353.598 52.8159 354.119 53.0247 355.368 53.5466C355.68 52.7115 355.888 52.294 356.2 51.3545C354.951 50.937 354.431 50.7282 353.182 50.2063C354.015 47.8055 354.535 46.5529 355.368 44.1521C356.721 44.674 357.45 44.8828 358.803 45.4047C359.115 44.5696 359.323 44.1521 359.635 43.2127C357.45 42.3776 356.305 41.9601 354.015 41.125C351.308 48.745 349.955 52.5027 347.145 60.1227" fill="white"/>
<path d="M371.601 48.125C367.23 55.0143 365.044 58.5633 360.672 65.5569C361.401 65.8701 361.817 65.9745 362.546 66.2876C363.378 64.9306 363.795 64.2 364.627 62.843C365.772 63.3649 366.397 63.5737 367.542 64.0956C367.126 65.6613 366.917 66.392 366.605 67.9578C367.334 68.2709 367.75 68.4797 368.583 68.7928C370.456 60.8597 371.393 56.7888 373.163 48.7513C372.538 48.4381 372.226 48.3338 371.497 48.125M368.895 58.8764C368.583 60.129 368.479 60.7553 368.062 62.0079L365.668 61.0685L367.021 58.8764C367.75 57.6238 368.375 56.4756 368.999 55.4318C369.624 54.388 370.248 53.2398 370.769 52.1959C370.04 54.5967 369.416 56.7888 368.791 58.9808" fill="white"/>
<path d="M383.89 53.4403C383.474 54.2754 383.266 54.6929 382.953 55.6324C383.89 56.0499 384.411 56.2587 385.347 56.6762C382.433 63.1479 380.872 66.3838 377.957 72.9599C378.686 73.2731 379.102 73.4818 379.831 73.795C382.849 67.3232 384.307 64.0874 387.325 57.6156C388.262 58.0332 388.678 58.2419 389.615 58.6595C390.032 57.8244 390.24 57.4069 390.656 56.4674C387.95 55.2148 386.597 54.5885 383.994 53.3359" fill="white"/>
<path d="M220.776 39.5591C221.817 41.6468 223.378 43.5257 223.587 46.1352C223.899 50.1018 222.025 54.1727 217.029 54.799C213.386 55.2165 210.471 54.1727 208.493 51.0412C206.203 47.4922 204.642 43.5257 203.705 39.3503C202.664 34.8619 202.352 30.269 202.977 25.5718C203.601 20.5614 204.538 16.3861 207.244 12.1064C209.847 7.93108 213.906 6.05219 217.966 7.30479C221.297 8.34862 224.523 11.4801 221.921 19.2044C221.505 20.3527 220.776 21.3965 220.256 22.6491C220.256 22.6491 219.215 24.528 218.798 27.6595H244.197C244.197 24.6324 243.26 22.1272 243.26 22.1272C239.408 10.0187 228.583 1.25058 216.092 0.102365C198.709 -1.359 183.199 11.8976 182.367 29.1208C181.534 46.7615 194.337 61.062 211.2 62.2102H243.988V31.5216H218.486C218.694 33.9224 219.215 36.6364 220.672 39.5591" fill="white"/>
</g>
<defs>
<clipPath id="clip0_3159_4755">
<rect width="430" height="181" fill="white"/>
</clipPath>
</defs>
</svg>
