<svg width="360" height="315" viewBox="0 0 360 315" fill="none" xmlns="http://www.w3.org/2000/svg">
<path d="M150.198 228.553C150.298 228.305 152.542 228.156 152.68 228.404C155.834 233.987 165.345 241.63 193.992 234.347C235.927 223.677 240.59 253.368 240.59 253.368C240.59 253.368 252.233 239.459 273.675 245.476C287.524 249.372 291.065 258.305 291.838 264.136C291.875 264.409 293.683 264.732 293.795 264.471C296.687 258.292 303.132 248.851 315.149 250.104C329.57 251.619 349.556 254.358 360 241.541V299.35C359.057 299.685 358.087 299.97 357.085 300.192C336.117 304.832 324.935 293.69 315.149 296.01C307.969 297.71 303.805 308.405 302.085 313.976C301.736 315.117 299.966 315.365 299.268 314.41C295.403 309.087 285.442 298.219 267.616 296.482C243.856 294.162 239.655 307.611 213.103 305.762C186.55 303.913 182.349 277.933 182.349 277.933C182.349 277.933 175.355 292.313 159.984 292.313C144.614 292.313 127.835 272.833 127.835 272.833C127.835 272.833 140.886 298.045 113.387 302.685C85.8991 307.325 82.6327 290.625 59.7949 290.166C42.9534 289.819 29.6644 304.621 23.8428 312.413C23.0323 313.504 20.602 312.784 20.415 311.432C19.4624 304.425 15.4992 293.141 0 291.336V246.438C12.7265 247.902 24.2463 248.98 32.2949 245.935C45.808 240.836 62.1135 232.486 78.8926 236.655C95.6718 240.823 96.1335 249.174 124.556 243.616C142.282 240.142 148.229 233.255 150.198 228.553Z" fill="#2D1112"/>
<path d="M360 168.206C355.667 174.08 346.402 183.032 331.143 183.032C308.43 183.031 298.643 160.686 275.232 163.478C253.891 166.009 252.582 188.193 243.781 195.526C242.722 196.407 241.25 195.327 241.163 193.95C240.802 188.081 236.613 176.072 209.163 173.205C172.463 169.384 177.013 188.156 156.743 187.821C143.828 187.597 139.565 178.763 138.182 172.373C137.969 171.394 135.426 171.01 134.978 171.903C130.515 180.848 119.819 196.704 99.7861 197.201C71.8249 197.895 59.9446 178.416 33.7412 179.458C19.3992 180.025 7.67505 189.035 0 197.075V139.621C15.5288 137.145 47.8866 120.561 56.6533 115.971C57.7253 115.4 59.0839 116.108 59.4082 117.274C60.5177 121.194 63.8338 128.49 73.208 129.744C86.1352 131.481 92.7799 128.701 110.955 133.565C129.13 138.428 150.099 142.956 168.623 139.135C187.148 135.314 200.424 114.098 219.298 114.792C238.171 115.487 248.655 123.838 250.4 129.744C252.145 135.649 251.099 143.304 251.099 143.304C251.099 143.304 264.375 123.131 277.314 126.257C290.242 129.384 294.094 141.207 294.094 141.207C294.094 141.207 300.028 133.205 314.015 123.465C328.002 113.726 331.841 114.42 351.413 112.683C354.505 112.41 357.368 111.82 360 111.027V168.206Z" fill="#2D1112"/>
<path d="M80.2266 16.7152C98.7511 11.1569 108.886 -4.15361 123.559 1.06973C132.696 4.32036 132.347 10.9454 130.789 15.474C130.477 16.3921 132.098 17.881 132.958 17.4096C139.291 13.9232 151.782 8.56322 166.891 9.7543C188.905 11.4913 196.597 24.295 207.43 19.4193C218.263 14.5558 230.144 6.20564 244.479 10.3744C253.28 12.9427 257.07 17.9931 258.678 21.5043C258.89 21.9631 260.648 21.9256 260.822 21.4418C262.63 16.206 267.629 7.65803 280.817 8.63809C299.691 10.0277 344.07 27.9307 356.661 19.9281C358.029 19.0597 359.127 18.1727 360 17.2846V73.85C356.864 75.9216 354.069 77.7967 352.235 79.0355C350.914 79.9163 349.169 79.8047 347.91 78.8373C342.799 74.9167 328.837 65.7472 312.257 67.6703C291.289 70.1021 281.503 82.4595 253.891 80.0277C233.758 78.2533 224.122 54.8792 220.37 42.348C220.333 42.2117 218.827 42.4342 218.824 42.5707C218.288 51.2805 214.299 64.5561 195.874 69.308C167.564 76.6158 139.964 67.9192 128.071 70.351C120.754 71.8522 114.247 75.847 110.308 78.7006C109.236 79.4822 107.315 78.2784 107.515 76.9633C108.412 71.1692 108.325 62.0129 99.3994 59.9037C86.1232 56.7772 76.3371 65.4741 62.0137 63.3773C52.8638 62.0373 48.413 57.8692 46.3936 55.0404C45.6082 53.9363 43.7013 53.6258 42.7539 54.6059C37.1064 60.4767 20.7903 75.2939 0 74.9838V16.4926C5.34616 11.6214 14.3163 5.50363 25.3516 5.93301C43.5268 6.62791 61.6898 22.2733 80.2266 16.7152Z" fill="#2D1112"/>
</svg>
