<svg width="1920" height="848" viewBox="0 0 1920 848" fill="none" xmlns="http://www.w3.org/2000/svg">
<path d="M1626.52 613.638C1682.96 591.836 1793.34 538.167 1832.68 586.24C1853.22 611.384 1837.87 634.275 1825.16 646.827C1822.32 649.664 1824.35 655.61 1828.11 654.988C1848.96 651.51 1887.52 642.38 1920 619.578V789.363C1902.6 777.97 1887.09 761.444 1850.97 765.008C1791.9 770.837 1734.13 795.243 1673.76 783.623C1632.88 775.773 1615.49 735.783 1608.54 710.717C1607.38 706.481 1599.69 706.054 1598.25 710.173C1588.17 739.203 1564.74 790.697 1522.81 801.034C1463.74 815.569 1432.23 780.67 1404.66 787.938C1384.43 793.262 1372.7 826.761 1367.86 844.21C1366.87 847.785 1361.89 848.563 1359.92 845.57C1349.03 828.898 1320.97 794.855 1270.75 789.414C1203.81 782.147 1191.97 824.274 1117.17 818.483C1042.45 812.7 1030.55 731.511 1030.53 731.314C1030.5 731.383 1010.79 776.356 967.519 776.356C924.254 776.356 877.029 715.452 876.943 715.342C877.001 715.466 913.653 794.323 836.238 808.846C758.798 823.38 749.596 771.071 685.256 769.633C637.808 768.545 600.369 814.908 583.968 839.313C581.685 842.733 574.836 840.479 574.31 836.243C571.43 812.692 558.786 773.714 506.703 772.548C442.362 771.11 443.697 823.379 350.487 824.817C257.488 826.255 253.379 723.076 207.723 713.942C207.512 713.942 207.336 713.943 207.371 714.215C207.512 719.891 225.352 802.044 139.167 828.665C49.8907 856.258 0.0195312 779.271 0.0195312 779.271C0.0195312 779.271 0.0127654 779.278 0 779.293V630.201C10.7185 611.33 31.5833 591.58 70.8926 600.619C140.466 616.592 135.234 639.831 174.604 638.394C213.974 636.956 261.246 596.266 307.184 609.324C340.197 618.729 348.169 668.629 349.995 695.988C350.206 699.058 355.65 700.185 356.844 697.426C368.223 671.504 395.266 624.248 441.062 625.297C504.068 626.735 569.709 647.099 607.779 631.088C645.85 615.115 691.788 588.96 739.061 602.018C786.332 615.075 787.632 641.231 867.706 623.82C917.647 612.939 934.4 591.37 939.949 576.641C940.23 575.863 946.552 575.398 946.938 576.175C955.824 593.663 982.621 617.601 1063.33 594.789C1181.47 561.367 1194.61 654.366 1194.61 654.366C1194.61 654.366 1227.41 610.801 1287.82 629.649C1326.84 641.852 1336.81 669.833 1338.99 688.099C1339.09 688.953 1344.18 689.964 1344.5 689.148C1352.65 669.795 1370.81 640.221 1404.66 644.146C1453.9 649.897 1526.18 661.283 1545.71 584.724C1546.16 582.975 1547.36 582.471 1548.34 583.947C1554.87 593.936 1577.14 632.719 1626.52 613.638ZM1582.2 174.956C1584.13 172.857 1589.33 175.694 1589.05 178.687C1586.59 204.997 1589.99 258.316 1653.53 276.932C1739.19 301.998 1784.46 191.939 1830.75 200.683C1877.03 209.388 1864.21 276.932 1864.21 276.932C1864.21 276.932 1886.49 253.307 1920 250.299V439.415C1871.74 427.322 1841.43 401.204 1815.01 406.85C1784.49 413.379 1765.77 458.032 1676.18 452.591C1586.59 447.15 1573.8 374.127 1539.32 371.951C1540.3 371.951 1513.71 434.053 1449.72 434.054C1385.73 434.054 1358.16 364.062 1292.21 372.806C1232.08 380.734 1228.39 450.221 1203.6 473.188C1200.61 475.947 1196.47 472.566 1196.22 468.253C1195.21 449.871 1183.4 412.252 1106.07 403.274C1002.67 391.305 1015.49 450.104 958.388 449.055C922.003 448.355 909.991 420.684 906.093 400.67C905.495 397.6 898.332 396.396 897.067 399.193C884.494 427.213 854.36 476.88 797.922 478.435C719.147 480.611 685.677 419.597 611.854 422.861C556.153 425.31 514.465 478.007 497.361 503.734C495.114 507.115 486.754 505.25 485.068 501.48C480.397 490.871 469.897 476.919 446.472 465.377C402.185 443.575 386.415 453.407 357.862 421.812C343.463 405.878 337.317 388.856 334.788 375.876C334.472 374.244 325.762 372.495 324.989 373.933C320.037 382.793 312.311 393.559 300.581 404.052C274.03 427.758 234.062 440.505 202.313 433.82C154.746 423.805 126.589 370.754 126.523 370.63C126.457 370.846 104.722 441.456 18.2119 453.446C11.7074 454.344 5.64668 454.915 0 455.206V253.37C30.6841 233.038 47.8656 220.619 77.1445 239.896C103.731 257.384 106.189 283.616 105.592 296.479C105.416 300.21 108.332 303.592 111.668 302.97C122.52 300.91 143.592 296.13 156.235 288.163C199.047 261.192 228.268 263.524 241.192 270.675C267.533 285.248 270.132 305.263 270.132 305.263C270.23 305.18 339.071 247.523 386.31 261.697C433.582 275.882 464.102 304.213 512.357 298.733C554.045 294.031 650.837 238.885 676.405 224.001C679.426 222.213 683.254 224.428 684.167 228.081C687.293 240.362 696.635 263.212 723.045 267.138C759.465 272.578 778.184 263.873 829.39 279.107C880.595 294.342 939.668 308.526 991.857 296.557C1044.05 284.587 1081.45 218.132 1134.62 220.309C1187.79 222.485 1217.33 248.639 1222.25 267.138C1227.16 285.636 1224.21 309.615 1224.21 309.615C1224.21 309.615 1261.62 246.424 1298.07 256.218C1334.43 265.994 1345.31 302.913 1345.34 303.047C1345.37 303.003 1362.1 277.954 1401.47 247.474C1440.87 216.967 1451.69 219.143 1506.83 213.702C1543.99 210.049 1569.48 188.558 1582.2 174.956ZM1132.82 0C1130.01 27.0483 1116.91 63.993 1068.63 77.8379C988.872 100.728 911.115 73.4855 877.61 81.1025C856.995 85.8049 838.661 98.3184 827.563 107.257C824.543 109.705 819.135 105.936 819.696 101.816C822.225 83.6675 821.979 54.9865 796.833 48.3799C759.43 38.5867 731.86 65.8295 691.507 59.2617C665.729 55.0645 653.19 42.0062 647.501 33.1455C645.288 29.687 639.915 28.7155 637.246 31.7852C620.669 50.9445 571.465 100.533 509.372 95.248C432.564 88.7191 447.349 60.3888 410.93 60.3887C374.51 60.3887 309.536 137.725 207.125 130.108C104.714 122.491 116.549 57.1236 87.9961 54.9473C69.6146 53.5467 35.7313 75.159 0 90.166V0H1132.82ZM1920 98.4873C1904.36 85.2315 1899.65 68.3202 1898.25 60.1553C1897.83 57.6681 1895.58 55.8806 1893.4 56.5801C1884.83 59.3004 1864.92 66.2957 1848.45 77.0605C1826.78 91.2454 1761.8 131.546 1703.71 117.361C1645.63 103.176 1688.93 54.1702 1672.21 41.1123C1655.49 28.055 1594.42 47.6416 1568.82 65.0908C1549.39 78.3041 1521.51 99.0185 1509.15 108.307C1505.42 111.066 1500.51 110.716 1496.96 107.685C1482.56 95.4039 1443.23 66.6843 1396.52 72.708C1337.44 80.3251 1309.87 119.032 1232.08 111.415C1178.41 106.156 1151.22 40.319 1139.5 0H1920V98.4873Z" fill="#401E1F"/>
</svg>
