<svg width="48" height="48" viewBox="0 0 48 48" fill="none" xmlns="http://www.w3.org/2000/svg">
<mask id="mask0_1089_3767" style="mask-type:alpha" maskUnits="userSpaceOnUse" x="0" y="0" width="48" height="48">
<rect width="48" height="48" fill="#D9D9D9"/>
</mask>
<g mask="url(#mask0_1089_3767)">
<path d="M17.4 31.75L35.8 26.7C36.3667 26.5333 36.7833 26.2667 37.05 25.9C37.3167 25.5333 37.3667 25.0667 37.2 24.5C37.0333 23.9333 36.7333 23.5417 36.3 23.325C35.8667 23.1083 35.3833 23.0667 34.85 23.2L29.7 24.55L21.4 16.45L18.8 17.05L23.95 26.1L18.4 27.65L15.8 25.5L14.35 26L17.4 31.75ZM41 40H7C6.16667 40 5.45833 39.7083 4.875 39.125C4.29167 38.5417 4 37.8333 4 37V29.35C5.23333 29.0833 6.25833 28.4583 7.075 27.475C7.89167 26.4917 8.3 25.3333 8.3 24C8.3 22.6667 7.89167 21.5 7.075 20.5C6.25833 19.5 5.23333 18.8833 4 18.65V11C4 10.1667 4.29167 9.45833 4.875 8.875C5.45833 8.29167 6.16667 8 7 8H41C41.8333 8 42.5417 8.29167 43.125 8.875C43.7083 9.45833 44 10.1667 44 11V37C44 37.8333 43.7083 38.5417 43.125 39.125C42.5417 39.7083 41.8333 40 41 40Z" fill="#F40202"/>
</g>
</svg>
