<svg width="2543" height="1710" viewBox="0 0 2543 1710" fill="none" xmlns="http://www.w3.org/2000/svg">
<path d="M2253.72 694.643L2254.28 695.748C2255.33 697.862 2257.6 703.005 2259.14 710.23C2262.14 724.208 2262.52 745.98 2246.21 768.635C2221.09 803.47 2190.26 798.769 2184.93 797.664C2184.39 797.57 2184.11 797.475 2184.11 797.475C2184.11 797.475 2186.67 847.676 2142.11 863.295C2095.7 879.608 2068.72 855.785 2068.72 855.785C2068.72 855.785 2046.79 894.028 2008.55 891.503C1990.09 890.304 1975.01 882.385 1964.34 874.528C1952.86 866.072 1946.48 857.647 1946.48 857.647C1946.48 857.647 1931.84 863.863 1912.47 864.147C1912.78 855.091 1911.68 844.836 1907.96 833.793C1898.77 806.531 1862.17 791.764 1862.17 791.764C1862.17 791.764 1866.94 778.196 1863.69 760.021C1862.8 755.004 1861.29 749.64 1858.92 744.119C1856.12 737.619 1852.14 730.898 1846.46 724.24C1846.05 723.767 1845.64 723.293 1845.23 722.82C1830.65 706.381 1808.25 701.9 1789.32 701.585C1785.94 712.565 1781.46 719.065 1781.46 719.065C1781.46 719.065 1808.34 745.412 1809.04 781.761C1809.16 787.504 1808.66 792.742 1807.68 797.507C1799.7 836.632 1759.5 845.089 1759.5 845.089L1760.07 846.193C1761.11 848.307 1763.38 853.45 1764.93 860.676C1767.96 874.654 1768.33 896.426 1751.99 919.081C1726.87 953.916 1696.05 949.214 1690.71 948.11C1690.18 948.015 1689.89 947.952 1689.89 947.952C1689.89 947.952 1692.45 998.122 1647.9 1013.77C1601.48 1030.08 1574.53 1006.26 1574.53 1006.26C1574.53 1006.26 1552.61 1044.5 1514.36 1041.98C1495.9 1040.78 1480.82 1032.86 1470.16 1024.97C1458.67 1016.52 1452.3 1008.09 1452.3 1008.09C1452.3 1008.09 1438.19 1014.09 1419.36 1014.56C1419.77 1005.35 1418.69 994.872 1414.88 983.544C1405.69 956.282 1369.09 941.547 1369.09 941.547C1369.09 941.547 1373.89 927.853 1370.57 909.552C1369.85 905.639 1368.78 901.506 1367.2 897.246C1364.23 889.263 1359.5 880.838 1352.18 872.603C1351.83 872.224 1351.49 871.846 1351.11 871.467C1336.53 855.975 1314.73 851.683 1296.27 851.368C1292.89 862.348 1288.41 868.848 1288.41 868.848C1288.41 868.848 1315.29 895.195 1315.99 931.544C1316.11 937.634 1315.55 943.156 1314.44 948.173C1306.02 986.542 1266.45 994.872 1266.45 994.872L1267.02 995.976C1268.06 998.09 1270.33 1003.23 1271.88 1010.43C1274.91 1024.41 1275.28 1046.18 1258.94 1068.83C1233.82 1103.67 1203 1098.97 1197.66 1097.86C1197.13 1097.77 1196.84 1097.7 1196.84 1097.7C1196.84 1097.7 1199.4 1147.87 1154.85 1163.52C1108.43 1179.84 1081.45 1156.01 1081.45 1156.01C1081.45 1156.01 1059.52 1194.26 1021.28 1191.73C1002.82 1190.53 987.74 1182.61 977.075 1174.72C965.59 1166.27 959.216 1157.84 959.216 1157.84C959.216 1157.84 944.576 1164.06 925.17 1164.34C925.486 1155.32 924.382 1145.06 920.658 1133.99C911.476 1106.73 874.875 1091.96 874.875 1091.96C874.875 1091.96 879.639 1078.39 876.389 1060.22C875.506 1055.2 873.991 1049.84 871.593 1044.28C868.816 1037.78 864.809 1031.06 859.161 1024.44C858.751 1023.96 858.341 1023.49 857.931 1023.02C843.353 1006.58 820.95 1002.1 802.018 1001.78C798.642 1012.76 794.162 1019.26 794.162 1019.26C794.162 1019.26 821.045 1045.61 821.739 1081.96C821.865 1087.7 821.361 1092.94 820.382 1097.7C812.399 1136.83 772.201 1145.29 772.201 1145.29L772.769 1146.39C773.81 1148.5 776.082 1153.65 777.628 1160.84C780.657 1174.82 781.036 1196.59 764.691 1219.25C739.575 1254.08 708.747 1249.38 703.415 1248.28C702.878 1248.18 702.594 1248.12 702.594 1248.12C702.594 1248.12 705.15 1298.32 660.597 1313.94C614.182 1330.25 587.204 1306.43 587.204 1306.43C587.204 1306.43 565.275 1344.67 527.033 1342.18C508.574 1340.98 493.492 1333.06 482.795 1325.17C471.31 1316.71 464.936 1308.29 464.936 1308.29C464.936 1308.29 423.57 1325.86 387.82 1303.27C370.434 1292.29 362.546 1278.94 359.012 1268.12C355.32 1256.7 356.456 1248.15 356.456 1248.15L354.216 1248.62C345.318 1250.26 312.282 1254.11 291.267 1225.56C266.814 1192.33 287.512 1144.69 287.512 1144.69C286.629 1144.34 247.314 1128.53 239.867 1087.01C239.709 1086.19 239.583 1085.33 239.489 1084.55C243.023 1095.34 250.911 1108.65 268.265 1119.6C304.015 1142.19 345.381 1124.62 345.381 1124.62C345.381 1124.62 351.597 1132.82 362.798 1141.15C373.495 1149.14 388.767 1157.24 407.446 1158.47C445.689 1161 467.618 1122.73 467.618 1122.73C467.618 1122.73 494.596 1146.55 541.011 1130.23C585.564 1114.58 583.008 1064.41 583.008 1064.41C583.008 1064.41 583.292 1064.51 583.828 1064.57C589.161 1065.71 619.988 1070.38 645.105 1035.54C661.638 1012.6 661.07 990.549 657.947 976.602C656.401 969.661 654.223 964.738 653.214 962.656L652.646 961.551C652.646 961.551 692.813 953.095 700.827 913.969C701.806 909.205 702.31 903.935 702.184 898.224C701.49 861.875 674.607 835.528 674.607 835.528C674.607 835.528 679.087 829.06 682.464 818.079C701.395 818.395 723.83 822.844 738.376 839.314C738.786 839.788 739.196 840.261 739.606 840.734C745.254 847.392 749.262 854.081 752.038 860.581C754.436 866.135 755.919 871.499 756.834 876.516C760.084 894.69 755.32 908.258 755.32 908.258C755.32 908.258 791.921 923.025 801.103 950.255C804.827 961.331 805.931 971.585 805.616 980.61C824.989 980.326 839.63 974.11 839.63 974.11C839.63 974.11 845.846 982.313 857.047 990.643C867.744 998.626 883.015 1006.74 901.695 1007.97C939.937 1010.49 961.867 972.216 961.867 972.216C961.867 972.216 988.845 996.039 1035.26 979.726C1079.81 964.076 1077.26 913.906 1077.26 913.906C1077.26 913.906 1077.54 914.001 1078.08 914.064C1083.41 915.2 1114.21 919.87 1139.35 885.035C1155.89 862.096 1155.29 840.04 1152.16 826.094C1150.62 819.184 1148.44 814.23 1147.43 812.147L1146.86 811.043C1146.86 811.043 1186.46 802.713 1194.86 764.344C1195.96 759.327 1196.53 753.805 1196.4 747.716C1195.68 711.366 1168.82 685.019 1168.82 685.019C1168.82 685.019 1173.3 678.551 1176.68 667.539C1195.14 667.855 1216.97 672.114 1231.55 687.607C1231.93 687.985 1232.28 688.364 1232.62 688.774C1239.94 697.041 1244.68 705.466 1247.68 713.449C1249.25 717.709 1250.33 721.81 1251.05 725.723C1254.4 744.024 1249.57 757.718 1249.57 757.718C1249.57 757.718 1286.17 772.485 1295.35 799.715C1299.17 811.043 1300.24 821.518 1299.83 830.732C1318.67 830.227 1332.77 824.264 1332.77 824.264C1332.77 824.264 1338.99 832.467 1350.19 840.797C1360.89 848.78 1376.16 856.89 1394.84 858.12C1433.08 860.644 1455.01 822.402 1455.01 822.402C1455.01 822.402 1481.99 846.225 1528.4 829.912C1572.96 814.261 1570.4 764.092 1570.4 764.092C1570.4 764.092 1570.69 764.186 1571.22 764.25C1576.55 765.385 1607.35 770.055 1632.5 735.221C1649.03 712.281 1648.46 690.257 1645.34 676.279C1643.79 669.369 1641.62 664.415 1640.61 662.333L1640.04 661.228C1640.04 661.228 1680.21 652.772 1688.22 613.646C1689.23 608.882 1689.7 603.644 1689.61 597.901C1688.88 561.552 1662.03 535.205 1662.03 535.205C1662.03 535.205 1666.51 528.737 1669.89 517.756C1688.82 518.072 1711.22 522.552 1725.8 538.991C1726.21 539.465 1726.62 539.938 1727.03 540.411C1732.68 547.069 1736.69 553.79 1739.46 560.258C1741.86 565.812 1743.34 571.176 1744.26 576.193C1747.51 594.367 1742.74 607.935 1742.74 607.935C1742.74 607.935 1779.35 622.702 1788.53 649.964C1792.25 661.039 1793.36 671.294 1793.04 680.318C1812.41 680.034 1827.05 673.818 1827.05 673.818C1827.05 673.818 1833.27 682.022 1844.47 690.352C1855.2 698.335 1870.44 706.444 1889.12 707.675C1927.36 710.199 1949.29 671.956 1949.29 671.956C1949.29 671.956 1976.27 695.779 2022.68 679.466C2067.24 663.816 2064.68 613.646 2064.68 613.646C2064.68 613.646 2064.97 613.741 2065.5 613.804C2070.8 614.908 2101.63 619.61 2126.78 584.775C2143.31 561.836 2142.74 539.812 2139.62 525.834C2138.07 518.924 2135.9 513.97 2134.89 511.887L2134.32 510.783C2134.32 510.783 2184.93 500.149 2183.86 447.456C2183.13 411.106 2156.28 384.76 2156.28 384.76C2156.28 384.76 2160.76 378.291 2164.14 367.279C2183.07 367.595 2205.47 372.075 2220.05 388.514C2249.52 421.74 2236.99 457.49 2236.99 457.49C2236.99 457.49 2273.6 472.256 2282.78 499.487C2289.84 520.533 2287.51 538.613 2283.72 551.013C2280.35 561.994 2275.87 568.462 2275.87 568.462C2275.87 568.462 2302.75 594.809 2303.44 631.158C2304.49 683.852 2253.91 694.485 2253.91 694.485M2542.87 998.847C2542.14 962.498 2515.26 936.151 2515.26 936.151C2515.26 936.151 2519.8 929.62 2523.15 918.544C2526.9 906.176 2529.21 888.127 2522.17 867.176C2512.99 839.914 2476.39 825.147 2476.39 825.147C2476.39 825.147 2488.95 789.429 2459.44 756.172C2444.74 739.575 2422.02 735.189 2402.99 734.937C2399.65 745.886 2395.17 752.322 2395.17 752.322C2395.17 752.322 2422.05 778.669 2422.75 815.018C2423.79 867.712 2373.21 878.346 2373.21 878.346L2373.78 879.45C2374.88 881.69 2377.34 887.338 2378.89 895.258C2381.66 909.268 2381.51 930.408 2365.67 952.338C2340.55 987.173 2309.72 982.471 2304.39 981.367C2303.85 981.272 2303.57 981.209 2303.57 981.209C2303.57 981.209 2306.13 1031.38 2261.57 1047.03C2215.16 1063.31 2188.18 1039.52 2188.18 1039.52C2188.18 1039.52 2166.25 1077.76 2128.01 1075.27C2110.28 1074.1 2095.6 1066.75 2085.03 1059.18C2072.79 1050.44 2065.94 1041.41 2065.94 1041.41C2065.94 1041.41 2051.56 1047.53 2032.43 1047.91C2032.75 1038.89 2031.65 1028.66 2027.92 1017.65C2018.74 990.391 1982.14 975.624 1982.14 975.624C1982.14 975.624 1986.9 962.056 1983.65 943.882C1982.77 938.865 1981.25 933.501 1978.89 927.979C1976.11 921.479 1972.1 914.758 1966.46 908.132C1966.46 908.132 1966.46 908.132 1966.46 908.1C1966.05 907.627 1965.64 907.154 1965.23 906.681C1950.52 890.084 1927.8 885.698 1908.78 885.445C1905.43 896.394 1900.95 902.831 1900.95 902.831C1900.95 902.831 1927.84 929.178 1928.53 965.527C1928.66 971.27 1928.15 976.508 1927.17 981.272C1919.19 1020.37 1878.99 1028.82 1878.99 1028.82L1879.56 1029.93C1880.66 1032.17 1883.12 1037.82 1884.7 1045.74C1887.45 1059.74 1887.32 1080.89 1871.48 1102.82C1846.37 1137.65 1815.54 1132.95 1810.21 1131.84C1809.67 1131.75 1809.38 1131.69 1809.38 1131.69C1809.38 1131.69 1811.94 1181.86 1767.39 1197.51C1720.97 1213.82 1693.99 1190 1693.99 1190C1693.99 1190 1672.07 1228.24 1633.82 1225.71C1616.09 1224.55 1601.45 1217.2 1590.85 1209.62C1578.6 1200.88 1571.73 1191.86 1571.73 1191.86C1571.73 1191.86 1557.87 1197.73 1539.29 1198.33C1539.67 1189.14 1538.6 1178.73 1534.81 1167.44C1525.63 1140.17 1489.03 1125.44 1489.03 1125.44C1489.03 1125.44 1493.82 1111.74 1490.51 1093.44C1489.81 1089.5 1488.71 1085.4 1487.13 1081.14C1484.17 1073.16 1479.43 1064.73 1472.11 1056.49C1471.77 1056.12 1471.42 1055.74 1471.04 1055.36C1456.34 1039.71 1434.25 1035.51 1415.63 1035.26C1412.29 1046.21 1407.81 1052.65 1407.81 1052.65C1407.81 1052.65 1434.69 1078.99 1435.39 1115.34C1435.51 1121.43 1434.94 1126.95 1433.84 1131.97C1425.41 1170.34 1385.85 1178.67 1385.85 1178.67L1386.41 1179.77C1387.52 1182.01 1389.98 1187.66 1391.56 1195.58C1394.3 1209.59 1394.18 1230.73 1378.34 1252.66C1353.22 1287.5 1322.39 1282.79 1317.06 1281.69C1316.52 1281.6 1316.24 1281.53 1316.24 1281.53C1316.24 1281.53 1318.8 1331.73 1274.24 1347.35C1227.83 1363.63 1200.85 1339.84 1200.85 1339.84C1200.85 1339.84 1178.92 1378.08 1140.68 1375.59C1122.95 1374.42 1108.3 1367.07 1097.7 1359.5C1085.46 1350.76 1078.58 1341.74 1078.58 1341.74C1078.58 1341.74 1064.19 1347.86 1045.07 1348.24C1045.39 1339.21 1044.28 1328.99 1040.56 1317.98C1031.38 1290.71 994.777 1275.95 994.777 1275.95C994.777 1275.95 999.541 1262.38 996.291 1244.2C995.408 1239.19 993.893 1233.79 991.495 1228.27C988.718 1221.77 984.711 1215.08 979.095 1208.42C978.685 1207.95 978.274 1207.48 977.864 1207C963.16 1190.41 940.442 1186.02 921.416 1185.77C918.071 1196.72 913.59 1203.15 913.59 1203.15C913.59 1203.15 940.474 1229.5 941.168 1265.85C941.294 1271.59 940.789 1276.83 939.811 1281.6C931.828 1320.72 891.629 1329.18 891.629 1329.18L892.197 1330.28C893.302 1332.52 895.763 1338.17 897.341 1346.06C900.086 1360.07 899.959 1381.21 884.12 1403.14C859.003 1437.97 828.176 1433.27 822.844 1432.17C822.307 1432.07 822.023 1432.01 822.023 1432.01C822.023 1432.01 824.579 1482.18 780.026 1497.83C733.611 1514.14 706.633 1490.32 706.633 1490.32C706.633 1490.32 684.704 1528.56 646.461 1526.07C628.728 1524.9 614.088 1517.55 603.486 1509.98C591.243 1501.24 584.365 1492.21 584.365 1492.21C584.365 1492.21 542.999 1509.79 507.249 1487.2C491.22 1477.07 483.237 1464.92 479.356 1454.6V1454.66C486.771 1496.19 526.118 1512 527.001 1512.38C527.001 1512.38 506.302 1560.02 530.756 1593.25C551.739 1621.8 584.806 1617.95 593.704 1616.31L595.945 1615.84C595.945 1615.84 594.272 1628.27 601.435 1643.1C605.852 1652.28 613.646 1662.38 627.309 1670.99C663.027 1693.59 704.424 1676.01 704.424 1676.01C704.424 1676.01 728.247 1707.37 766.49 1709.87C804.732 1712.39 826.661 1674.15 826.661 1674.15C826.661 1674.15 853.608 1697.97 900.023 1681.66C944.576 1666.01 942.02 1615.84 942.02 1615.84C942.02 1615.84 942.304 1615.93 942.84 1616C948.173 1617.13 979 1621.8 1004.12 1586.97C1028.85 1552.64 1015.29 1520.36 1012.19 1514.08L1011.63 1512.97C1011.63 1512.97 1051.82 1504.52 1059.81 1465.39C1060.79 1460.63 1061.29 1455.39 1061.16 1449.65C1060.44 1413.3 1033.59 1386.95 1033.59 1386.95C1033.59 1386.95 1038.13 1380.42 1041.48 1369.34C1060.69 1369.47 1083.88 1373.73 1098.84 1390.58C1099.25 1391.05 1099.66 1391.53 1100.07 1392C1105.72 1398.66 1109.69 1405.38 1112.5 1411.88C1114.9 1417.4 1116.38 1422.8 1117.27 1427.81C1120.52 1445.99 1115.75 1459.56 1115.75 1459.56C1115.75 1459.56 1152.35 1474.32 1161.54 1501.55C1165.26 1512.66 1166.36 1522.95 1166.05 1532C1184.7 1531.43 1198.61 1525.53 1198.61 1525.53C1198.61 1525.53 1222.43 1556.9 1260.71 1559.39C1298.95 1561.91 1320.88 1523.67 1320.88 1523.67C1320.88 1523.67 1347.86 1547.49 1394.27 1531.18C1438.82 1515.53 1436.27 1465.36 1436.27 1465.36C1436.27 1465.36 1436.55 1465.46 1437.09 1465.52C1442.39 1466.65 1473.22 1471.32 1498.37 1436.49C1523.1 1402.16 1509.5 1369.88 1506.44 1363.6L1505.87 1362.5C1505.87 1362.5 1545.47 1354.17 1553.87 1315.8C1554.97 1310.78 1555.54 1305.26 1555.41 1299.17C1554.69 1262.82 1527.84 1236.47 1527.84 1236.47C1527.84 1236.47 1532.38 1229.94 1535.72 1218.87C1554.5 1218.99 1577.09 1223.06 1592.02 1238.97C1592.39 1239.35 1592.71 1239.72 1593.06 1240.1C1600.38 1248.37 1605.11 1256.76 1608.08 1264.75C1609.65 1269.01 1610.76 1273.14 1611.45 1277.05C1614.76 1295.35 1609.97 1309.05 1609.97 1309.05C1609.97 1309.05 1646.57 1323.81 1655.75 1351.04C1659.57 1362.4 1660.64 1372.91 1660.23 1382.12C1678.34 1381.37 1691.69 1375.69 1691.69 1375.69C1691.69 1375.69 1715.51 1407.05 1753.79 1409.54C1792.03 1412.07 1813.96 1373.83 1813.96 1373.83C1813.96 1373.83 1840.94 1397.65 1887.35 1381.33C1931.91 1365.68 1929.35 1315.51 1929.35 1315.51C1929.35 1315.51 1929.63 1315.61 1930.17 1315.7C1935.47 1316.81 1966.3 1321.51 1991.45 1286.68C2016.18 1252.35 2002.62 1220.07 1999.52 1213.79L1998.96 1212.68C1998.96 1212.68 2039.12 1204.23 2047.14 1165.13C2048.15 1160.37 2048.62 1155.1 2048.49 1149.39C2047.8 1113.04 2020.92 1086.69 2020.92 1086.69C2020.92 1086.69 2025.46 1080.16 2028.81 1069.08C2048.02 1069.21 2071.21 1073.47 2086.17 1090.32C2086.58 1090.79 2086.99 1091.27 2087.4 1091.74C2093.05 1098.37 2097.06 1105.09 2099.83 1111.59C2102.23 1117.14 2103.71 1122.5 2104.63 1127.52C2107.88 1145.7 2103.11 1159.26 2103.11 1159.26C2103.11 1159.26 2139.71 1174.03 2148.9 1201.26C2152.62 1212.37 2153.76 1222.65 2153.38 1231.71C2172.03 1231.14 2185.94 1225.24 2185.94 1225.24C2185.94 1225.24 2209.79 1256.61 2248.04 1259.1C2286.28 1261.62 2308.21 1223.38 2308.21 1223.38C2308.21 1223.38 2335.19 1247.2 2381.6 1230.89C2426.15 1215.24 2423.6 1165.07 2423.6 1165.07C2423.6 1165.07 2423.88 1165.16 2424.42 1165.23C2429.72 1166.36 2460.55 1171.03 2485.7 1136.2C2510.43 1101.87 2496.83 1069.59 2493.77 1063.31L2493.21 1062.21C2493.21 1062.21 2543.82 1051.57 2542.74 998.879M512.991 493.208C508.542 488.159 503.778 481.438 500.528 473.329C506.176 479.987 510.183 486.708 512.991 493.208ZM2064.11 263.911C2063.39 227.562 2036.54 201.215 2036.54 201.215C2036.54 201.215 2041.02 194.746 2044.39 183.734C2048.18 171.365 2050.51 153.254 2043.45 132.24C2034.26 104.978 1997.66 90.2107 1997.66 90.2107C1997.66 90.2107 2010.22 54.4925 1980.72 21.2355C1965.51 4.07054 1941.72 -0.031373 1922.28 0.000180154C1919.22 8.204 1915.97 12.9054 1915.97 12.9054C1915.97 12.9054 1942.85 39.2523 1943.55 75.6016C1944.59 128.295 1894.01 138.929 1894.01 138.929L1894.58 140.033C1895.81 142.557 1898.74 149.278 1900.23 158.681C1902.4 172.628 1901.3 192.411 1886.5 212.921C1861.38 247.756 1830.56 243.054 1825.22 241.95C1824.69 241.855 1824.4 241.792 1824.4 241.792C1824.4 241.792 1826.96 291.962 1782.41 307.612C1735.99 323.893 1709.01 300.102 1709.01 300.102C1709.01 300.102 1687.08 338.345 1648.84 335.821C1631.24 334.653 1616.69 327.396 1606.12 319.886C1593.72 311.083 1586.78 301.964 1586.78 301.964C1586.78 301.964 1572.67 307.959 1553.8 308.432C1553.65 300.576 1552.35 291.93 1549.26 282.685C1540.08 255.423 1503.48 240.688 1503.48 240.688C1503.48 240.688 1508.24 227.12 1504.99 208.945C1504.11 203.928 1502.59 198.564 1500.2 193.011C1495.75 187.962 1491.01 181.273 1487.76 173.164C1487.35 172.691 1486.94 172.217 1486.53 171.744C1471.29 154.548 1447.5 150.446 1428.06 150.509C1425 158.681 1421.75 163.382 1421.75 163.382C1421.75 163.382 1448.64 189.729 1449.33 226.079C1449.46 231.821 1448.95 237.059 1447.97 241.824C1439.99 280.95 1399.79 289.406 1399.79 289.406L1400.36 290.51C1401.59 293.034 1404.53 299.755 1406.01 309.158C1408.19 323.105 1407.08 342.888 1392.28 363.398C1367.17 398.233 1336.34 393.531 1331.01 392.427C1330.47 392.332 1330.19 392.269 1330.19 392.269C1330.19 392.269 1332.74 442.47 1288.19 458.089C1241.77 474.402 1214.8 450.579 1214.8 450.579C1214.8 450.579 1192.87 488.822 1154.63 486.329C1137.02 485.162 1122.47 477.904 1111.9 470.395C1099.5 461.591 1092.56 452.473 1092.56 452.473C1092.56 452.473 1078.99 458.215 1060.69 458.909C1060.6 450.895 1059.33 441.997 1056.15 432.531C1046.97 405.269 1010.36 390.502 1010.36 390.502C1010.36 390.502 1015.16 376.808 1011.85 358.507C1011.12 354.595 1010.05 350.461 1008.47 346.202C1005.5 338.219 1000.77 329.825 993.451 321.559C993.104 321.18 992.757 320.801 992.41 320.423C977.138 304.173 953.978 300.26 935.015 300.292C931.954 308.495 928.704 313.197 928.704 313.197C928.704 313.197 955.588 339.544 956.282 375.893C956.408 381.983 955.84 387.505 954.736 392.522C946.311 430.89 906.743 439.22 906.743 439.22L907.311 440.325C908.542 442.849 911.476 449.57 912.928 458.973C915.105 472.919 914.001 492.703 899.202 513.212C874.086 548.047 843.258 543.346 837.926 542.241C837.39 542.147 837.106 542.084 837.106 542.084C837.106 542.084 839.661 592.253 795.108 607.904C748.694 624.185 721.716 600.394 721.716 600.394C721.716 600.394 699.786 638.636 661.544 636.144C643.937 634.976 629.391 627.719 618.821 620.209C606.42 611.406 599.479 602.287 599.479 602.287C599.479 602.287 585.343 608.282 566.506 608.755C566.348 600.899 565.054 592.222 561.962 583.008C552.78 555.746 516.178 541.011 516.178 541.011C516.178 541.011 520.943 527.443 517.693 509.268C516.809 504.251 515.295 498.887 512.928 493.334C508.479 488.285 503.715 481.565 500.465 473.455C500.055 472.982 499.644 472.509 499.234 472.036C483.994 454.839 460.203 450.737 440.766 450.8C437.706 459.004 434.456 463.706 434.456 463.706C434.456 463.706 461.339 490.052 462.033 526.402C462.159 532.144 461.654 537.382 460.676 542.147C452.693 581.241 412.495 589.697 412.495 589.697L413.063 590.802C414.293 593.326 417.228 600.047 418.679 609.45C420.856 623.396 419.752 643.18 404.953 663.69C379.837 698.524 349.01 693.823 343.677 692.718C343.141 692.624 342.857 692.529 342.857 692.529C342.857 692.529 345.413 742.73 300.859 758.349C254.445 774.662 227.467 750.839 227.467 750.839C227.467 750.839 205.537 789.082 167.295 786.589C149.688 785.422 135.142 778.164 124.572 770.655C112.172 761.851 105.23 752.733 105.23 752.733C105.23 752.733 63.8636 770.308 28.1139 747.716C11.8009 737.398 3.84949 725.029 0 714.585C0.157766 716.257 0.378638 717.961 0.69417 719.696C8.14072 761.22 47.456 777.029 48.3395 777.407C48.3395 777.407 27.6406 825.052 52.0943 858.278C73.0771 886.834 106.145 882.984 115.043 881.343L117.315 880.87C117.315 880.87 116.147 889.452 119.87 900.843C123.404 911.666 131.293 925.013 148.679 936.025C184.397 958.617 225.794 941.042 225.794 941.042C225.794 941.042 232.01 949.246 243.212 957.576C253.908 965.559 269.18 973.668 287.86 974.898C326.102 977.423 348.031 939.149 348.031 939.149C348.031 939.149 375.009 962.971 421.424 946.658C465.977 931.008 463.421 880.838 463.421 880.838C463.421 880.838 463.705 880.933 464.242 881.028C469.574 882.164 500.402 886.834 525.518 851.999C542.052 829.06 541.484 807.004 538.36 793.058C536.814 786.147 534.637 781.194 533.627 779.111L533.059 778.007C533.059 778.007 573.226 769.55 581.241 730.425C582.219 725.628 582.724 720.391 582.598 714.679C581.872 678.33 555.02 651.983 555.02 651.983C555.02 651.983 559.501 645.515 562.877 634.503C581.809 634.818 604.212 639.299 618.789 655.738C619.199 656.211 619.61 656.653 620.02 657.158C625.668 663.816 629.675 670.568 632.483 677.068C634.881 682.59 636.364 687.985 637.248 692.971C640.498 711.145 635.733 724.713 635.733 724.713C635.733 724.713 672.335 739.48 681.517 766.742C685.24 777.817 686.345 788.072 686.029 797.128C705.403 796.844 720.075 790.628 720.075 790.628C720.075 790.628 726.291 798.832 737.492 807.162C748.189 815.145 763.46 823.254 782.14 824.484C820.382 827.009 842.312 788.735 842.312 788.735C842.312 788.735 869.29 812.557 915.704 796.244C960.258 780.594 957.702 730.425 957.702 730.425C957.702 730.425 957.986 730.519 958.522 730.582C963.823 731.718 994.65 736.388 1019.8 701.553C1036.33 678.614 1035.76 656.559 1032.61 642.612C1031.06 635.702 1028.89 630.748 1027.88 628.666L1027.31 627.561C1027.31 627.561 1066.88 619.231 1075.3 580.862C1076.4 575.846 1076.97 570.324 1076.85 564.234C1076.12 527.885 1049.27 501.538 1049.27 501.538C1049.27 501.538 1053.75 495.069 1057.13 484.057C1075.62 484.373 1097.42 488.633 1112 504.157C1112.34 504.535 1112.69 504.914 1113.04 505.293C1120.36 513.528 1125.09 521.953 1128.06 529.936C1128.06 529.936 1128.06 529.936 1128.06 529.967C1129.63 534.227 1130.71 538.36 1131.43 542.273C1134.78 560.574 1129.95 574.268 1129.95 574.268C1129.95 574.268 1166.55 589.035 1175.73 616.297C1179.55 627.624 1180.62 638.1 1180.21 647.313C1199.05 646.809 1213.16 640.845 1213.16 640.845C1213.16 640.845 1219.37 649.049 1230.57 657.379C1241.27 665.362 1256.54 673.503 1275.25 674.702C1313.5 677.226 1335.42 638.952 1335.42 638.952C1335.42 638.952 1362.4 662.775 1408.82 646.462C1453.37 630.811 1450.81 580.642 1450.81 580.642C1450.81 580.642 1451.1 580.736 1451.64 580.831C1456.97 581.935 1487.79 586.637 1512.91 551.802C1529.48 528.863 1528.88 506.807 1525.72 492.861C1524.18 485.951 1522 480.997 1520.99 478.946L1520.42 477.841C1520.42 477.841 1560.62 469.385 1568.6 430.259C1569.58 425.495 1570.09 420.257 1569.96 414.514C1569.23 378.165 1542.38 351.818 1542.38 351.818C1542.38 351.818 1546.89 345.35 1550.24 334.338C1569.17 334.653 1591.57 339.134 1606.15 355.573C1606.56 356.046 1606.97 356.488 1607.38 356.961C1613.03 363.619 1617.04 370.371 1619.81 376.871C1622.21 382.393 1623.69 387.789 1624.58 392.774C1627.83 410.949 1623.06 424.516 1623.06 424.516C1623.06 424.516 1659.66 439.283 1668.85 466.514C1672.57 477.589 1673.67 487.844 1673.33 496.899C1692.7 496.615 1707.37 490.4 1707.37 490.4C1707.37 490.4 1713.59 498.603 1724.79 506.933C1735.52 514.916 1750.76 523.057 1769.47 524.256C1807.71 526.78 1829.64 488.538 1829.64 488.538C1829.64 488.538 1856.62 512.361 1903.03 496.048C1947.59 480.397 1945.03 430.228 1945.03 430.228C1945.03 430.228 1945.32 430.322 1945.85 430.385C1951.18 431.49 1981.98 436.191 2007.13 401.356C2023.69 378.417 2023.09 356.362 2019.94 342.415C2018.39 335.505 2016.22 330.551 2015.21 328.5L2014.64 327.396C2014.64 327.396 2065.22 316.762 2064.18 264.069" fill="#F40202"/>
</svg>
