<svg width="885" height="863" viewBox="0 0 885 863" fill="none" xmlns="http://www.w3.org/2000/svg">
<path d="M568.671 862.976H403.458C341.623 827.348 304.117 780.584 273.478 726.96C247.433 681.38 233.48 619.617 197.134 586.042C149.664 542.152 85.9439 556.355 59.3192 614.158C18.838 702.057 88.338 805.125 166.374 844.836L202.793 863H0V304.88L12.5264 341.257C49.2352 423.408 134.043 478.022 225.5 457.176C424.182 411.862 346.097 158.696 475.835 51.3761C529.593 6.90721 609.104 -5.00109 677.153 1.76224C754.174 9.4193 843.431 57.2216 885 122.802L884.807 605.776C850.758 691.525 756.447 738.41 666.029 725.415C552.421 709.062 527.223 605.293 582.286 514.664C627.749 439.833 686.101 382.779 690.719 287.247C694.056 218.237 659.234 120.724 575.104 127.85C488.773 135.169 457.384 250.194 444.35 320.219C420.893 446.355 418.499 605.704 473.441 723.724C496.753 773.796 529.278 824.328 568.72 863" fill="#2C0200"/>
</svg>
