<svg width="1941" height="1952" viewBox="0 0 1941 1952" fill="none" xmlns="http://www.w3.org/2000/svg">
<path d="M1508.64 1948.73C1403.81 1925.73 1300.12 1904.44 1193.44 1891.88C1183.01 1890.65 1170.58 1890.97 1159.93 1890.33L1162.29 1887.88C1271.1 1875.49 1377.74 1854.89 1485.83 1839.37C1557.2 1829.12 1628.74 1823.22 1700.29 1814.96C1737.06 1810.69 1772.97 1806.97 1809.92 1803.8C1847.46 1800.53 1885.05 1796.08 1922.5 1792.86C1928.53 1792.32 1934.92 1793.18 1941 1792.86L1941 1706.69C1869.36 1689.85 1799.22 1667.3 1731.71 1637.13L1679.93 1619.57L1740.69 1610.99C1789.25 1599.33 1839.98 1596.38 1889.22 1590.71C1906.5 1588.71 1923.73 1586.8 1941 1584.99L1941 1419.18C1922.77 1420.54 1906.36 1427.44 1889.18 1432.56C1877.57 1436.06 1864.38 1438.74 1852.86 1442.96C1848.69 1444.5 1843.7 1449.76 1839.08 1449.17C1724.23 1394.4 1601.36 1356.6 1476.81 1330.83C1384.41 1311.68 1286.93 1295.93 1192.21 1288.72C1180.61 1287.81 1168.54 1290.35 1157.21 1286.63C1157.21 1284.32 1198.65 1280.87 1203.05 1280.28C1312.86 1265.21 1420.36 1244.84 1529.9 1230.95C1652.23 1215.48 1775.06 1203.59 1897.75 1193.88C1912.12 1192.75 1926.58 1190.29 1941 1189.75L1941 1112.93C1873.13 1094.14 1806.88 1070.63 1744.09 1042C1741.01 1040.59 1735.66 1041.28 1734.2 1037.46C1736.15 1037.33 1738.42 1037.83 1740.28 1037.37C1757.46 1033.24 1769.89 1031.7 1786.84 1029.07C1838.17 1021.08 1889.54 1014.14 1940.95 1007.79L1940.95 820.197C1936.69 820.106 1932.52 820.061 1928.3 820.56C1908.22 823.056 1883.37 831.723 1862.38 835.625C1856.12 836.805 1841.61 845.018 1836.22 844.61C1832.68 844.337 1806.16 830.089 1799.9 827.412C1676.49 774.91 1549.85 743.963 1418.82 719.776C1345.42 706.209 1277.77 694.547 1203.18 688.285C1187.9 687.014 1172.49 684.7 1157.16 683.475C1223.22 673.355 1289.74 665.505 1355.71 655.477C1386.49 650.803 1416.74 644.949 1447.61 640.321C1601.9 617.224 1757.96 602.793 1914.2 590.723C1923.09 590.042 1932.07 588.182 1941 588.001L1941 473.014C1821.21 463.848 1702.06 447.557 1582.91 429.361L1556.06 421.919L1598.64 405.493C1709.99 366.332 1824.61 336.7 1941 317.46L1941 212.956L1880.52 227.295C1874.71 231.879 1868.55 229.791 1862.7 231.425C1856.62 233.104 1840.84 240.909 1836.17 240.455C1798.45 220.806 1758.23 206.24 1718.02 192.309C1668.87 175.293 1618 159.184 1567.63 146.388C1443.58 114.85 1315.67 92.1161 1188.09 82.4961C1177.88 81.7247 1167.41 82.6776 1157.21 81.0894C1157.03 77.9584 1156.71 78.639 1159.25 78.3214C1167.77 77.3231 1178.47 78.0037 1186.64 76.8693C1201.05 74.8727 1216.6 70.9702 1232.02 68.7014C1343.06 52.4109 1451.06 26.818 1562.73 15.0199C1577.96 13.4317 1592.25 7.85028 1607.03 4.40159C1613.65 2.85876 1627.52 7.75952 1629.38 -1.36214e-05L1278 -2.89809e-05C1276.95 2.58648 1273.91 3.31252 1271.47 3.81167C1186.36 20.1475 1103.12 36.5742 1016.47 42.6094C933.548 48.3723 845.679 51.0495 762.617 48.0546C649.131 43.9707 537.142 29.1776 424.699 15.2921C392.915 11.3897 361.359 9.03004 329.893 3.04022C327.581 2.58644 324.815 2.90408 323.999 -7.06814e-05L0.0455024 -8.48418e-05L0.0454895 294C33.4156 289.417 66.559 284.426 99.7478 279.071C105.143 278.209 111.718 278.39 117.294 277.392C148.624 271.992 140.372 267.817 172.972 278.209C203.395 287.92 233.773 299.582 264.604 308.748C400.034 348.998 539.182 354.579 677.831 377.359C681.549 377.948 711.111 380.308 711.065 382.532C697.69 384.301 683.952 382.532 670.486 383.167C576.406 387.387 463.6 417.245 373.011 442.611C290.447 465.754 209.924 499.151 128.04 521.659C102.967 528.556 78.3474 533.366 54.544 542.895C46.2921 546.208 38.3123 548.477 29.9244 551.199C19.723 554.557 11.6071 559.14 9.38021e-05 559.05L7.90904e-05 895.614L70.5037 887.219C91.4507 885.177 112.08 879.868 132.619 876.555C156.377 872.744 164.402 880.866 185.349 887.99C309.309 930.373 438.482 955.83 568.97 968.399C609.685 972.302 650.264 974.752 690.98 980.923C697.69 981.967 704.582 983.601 711.065 985.552C711.065 986.868 691.07 986.051 688.441 986.233C586.97 993.221 488.9 1010.87 391.51 1039.37C343.631 1053.39 295.616 1071 248.825 1086.15C179.274 1108.62 109.496 1131.08 40.1259 1153.45C26.6599 1157.8 13.1033 1162.89 6.71735e-05 1168.24L5.27315e-05 1498.63C10.5189 1500.4 19.859 1496.09 29.6524 1494.64C63.0225 1489.69 96.5286 1483.8 129.899 1479.58C159.732 1475.81 169.481 1484.2 195.551 1493.19C246.06 1510.57 305.772 1530.31 357.913 1540.88C462.149 1561.98 569.333 1566.02 673.66 1583.44C678.421 1584.26 711.791 1586.76 712.425 1588.62C713.514 1591.75 709.342 1590.57 707.619 1590.66C625.146 1594.43 543.671 1604.64 463.691 1624.06C382.17 1643.84 301.692 1675.42 221.304 1700.16C210.241 1703.56 198.407 1705.1 187.344 1708.73C165.717 1715.81 145.314 1727.52 123.551 1734.19C102.105 1740.77 79.889 1743.63 58.3072 1751.34C55.2694 1752.43 52.7756 1755.02 49.4205 1756.2C33.0981 1761.78 16.5038 1766.86 0.0454249 1772.03L0.0454171 1952L1518.21 1952C1517.03 1949.73 1511.13 1949.1 1508.64 1948.55M357.958 237.415L306.18 219.853L366.936 211.277C415.495 199.615 466.23 196.666 515.469 190.948C558.497 185.957 601.479 181.6 644.506 177.199C852.526 156.053 1057.24 171.254 1263.26 203.654C1365.73 229.201 1469.92 253.07 1567.22 295.135C1568.03 295.498 1577.06 298.856 1574.47 300.898C1563.27 298.946 1553.57 303.166 1543.23 304.664C1369.35 330.03 1196.56 351.902 1020.56 351.766C796.032 351.584 564.708 329.667 357.913 237.369M317.923 604.427L291.082 596.985L333.656 580.559C501.55 521.477 676.924 483.995 854.475 471.244C954.54 464.029 1060.64 463.122 1160.61 469.883C1253.78 476.191 1345.32 493.207 1436.82 510.768C1466.34 516.44 1495.22 524.563 1524.42 530.235C1529.22 531.188 1536.3 530.643 1541.51 531.687C1538.84 535.453 1532.71 534.591 1527.77 536.497C1519.34 539.764 1509.32 546.435 1500.3 550.246C1352.9 612.141 1166.05 640.411 1006.91 651.302C774.178 667.184 546.028 639.277 317.878 604.427M832.576 950.702C657.972 936.953 476.794 897.429 317.425 824.734C314.341 823.328 308.991 824.008 307.541 820.197C309.49 820.061 311.757 820.56 313.616 820.106C330.8 815.977 343.223 814.434 360.225 811.756C424.699 801.728 489.217 793.288 553.827 785.71C702.043 768.33 845.815 760.208 995.936 770.735C1124.11 779.72 1251.88 799.686 1375.48 834.627C1429.84 850.01 1489.82 865.71 1542.01 886.402C1552.48 890.577 1561.37 898.291 1573.2 899.153C1566.04 904.644 1554.89 902.738 1546.59 904.099C1307.33 943.169 1076.82 969.851 832.667 950.657M367.162 1215.93L288.362 1206.22L297.611 1198.33C541.358 1103.94 805.236 1062.47 1067.39 1067.41C1218.1 1070.27 1377.02 1089.69 1522.06 1128.9C1528.14 1130.53 1535.21 1132.08 1541.56 1132.08C1539.06 1136.07 1532.58 1135.48 1528.23 1137.29C1458.9 1165.97 1404.95 1186.89 1331.45 1205.5C1019.92 1284.41 681.64 1264.4 367.162 1215.98M965.694 1557.94C919.311 1556.45 871.886 1554.81 825.684 1551.09C727.977 1543.2 631.947 1529.99 537.55 1504.26C458.885 1482.84 383.122 1452.53 306.18 1426.03C307.45 1423.22 313.933 1422.9 316.88 1422.31C389.198 1408.56 464.28 1400.26 537.368 1390.18C701.952 1367.45 876.284 1365.63 1042.64 1377.93C1213.66 1390.55 1375.43 1427.89 1535.8 1487.47C1548.27 1492.1 1560.24 1498.68 1573.16 1502.26C1570.57 1504.71 1566.08 1504.94 1562.68 1505.53C1536.57 1509.98 1509.82 1511.61 1483.61 1515.7C1456.72 1519.87 1429.2 1526.36 1402.09 1530.26C1354.57 1537.07 1307.01 1540.61 1259.54 1545.6C1219.64 1549.77 1182.87 1554.45 1142.84 1556.58C1083.4 1559.71 1025.04 1559.89 965.785 1557.99M791.317 1861.56C726.299 1859.97 663.322 1852.53 599.076 1846.54C504.497 1837.69 410.643 1826.53 316.608 1814.64C313.208 1814.19 291.037 1810.83 291.082 1808.61C328.533 1788.69 369.565 1777.12 409.827 1764C486.18 1739.13 558.315 1719.17 637.977 1705.19C763.251 1683.23 887.211 1672.34 1015.21 1670.48C1049.75 1669.98 1084.98 1669.53 1119.44 1671.93C1250.34 1681.14 1381.05 1698.2 1508.59 1728.92C1514.22 1730.29 1521.11 1733.96 1526.05 1734.78C1530.63 1735.55 1535.21 1734.55 1539.47 1735.1C1541.96 1735.41 1541.69 1734.64 1541.51 1737.82C1525.78 1738.32 1511.31 1748.66 1497.12 1754.56C1416.42 1788.1 1338.07 1809.06 1252.2 1825.4C1100.26 1854.26 946.107 1865.33 791.317 1861.52" fill="#FBFAE7"/>
</svg>
