<svg width="20" height="20" viewBox="0 0 20 20" fill="none" xmlns="http://www.w3.org/2000/svg">
<mask id="mask0_1469_8654" style="mask-type:alpha" maskUnits="userSpaceOnUse" x="0" y="0" width="20" height="20">
<rect width="20" height="20" fill="#D9D9D9"/>
</mask>
<g mask="url(#mask0_1469_8654)">
<path d="M16.5625 17.5C14.9514 17.5 13.309 17.1111 11.6354 16.3333C9.96181 15.5556 8.40972 14.4514 6.97917 13.0208C5.54861 11.5903 4.44444 10.0382 3.66667 8.36458C2.88889 6.69097 2.5 5.04861 2.5 3.4375C2.5 3.17361 2.59028 2.95139 2.77083 2.77083C2.95139 2.59028 3.17361 2.5 3.4375 2.5H6.35417C6.54861 2.5 6.71528 2.56944 6.85417 2.70833C6.99305 2.84722 7.09028 3.02083 7.14583 3.22917L7.70833 5.85417C7.73611 6.04861 7.73264 6.22569 7.69792 6.38542C7.66319 6.54514 7.59028 6.68056 7.47917 6.79167L5.39583 8.89583C5.75694 9.50694 6.13889 10.0764 6.54167 10.6042C6.94444 11.1319 7.38889 11.6319 7.875 12.1042C8.38889 12.6319 8.93056 13.1146 9.5 13.5521C10.0694 13.9896 10.6667 14.375 11.2917 14.7083L13.2708 12.6667C13.4097 12.5139 13.5694 12.4097 13.75 12.3542C13.9306 12.2986 14.1111 12.2847 14.2917 12.3125L16.7708 12.8542C16.9792 12.9097 17.1528 13.0208 17.2917 13.1875C17.4306 13.3542 17.5 13.5417 17.5 13.75V16.5625C17.5 16.8264 17.4097 17.0486 17.2292 17.2292C17.0486 17.4097 16.8264 17.5 16.5625 17.5Z" fill="black"/>
</g>
</svg>
