<svg width="48" height="48" viewBox="0 0 48 48" fill="none" xmlns="http://www.w3.org/2000/svg">
<mask id="mask0_1089_3804" style="mask-type:alpha" maskUnits="userSpaceOnUse" x="0" y="0" width="48" height="48">
<rect width="48" height="48" fill="#D9D9D9"/>
</mask>
<g mask="url(#mask0_1089_3804)">
<path d="M21.55 26.6L19.2 23.15C19.0333 22.95 18.8583 22.7917 18.675 22.675C18.4917 22.5583 18.2667 22.5 18 22.5H5.45C4.91667 21.4333 4.54167 20.425 4.325 19.475C4.10833 18.525 4 17.55 4 16.55C4 13.55 5.00833 11.0417 7.025 9.025C9.04167 7.00833 11.5333 6 14.5 6C16.4 6 18.1583 6.45 19.775 7.35C21.3917 8.25 22.8 9.55 24 11.25C25.4 9.45 26.8833 8.125 28.45 7.275C30.0167 6.425 31.7 6 33.5 6C36.4667 6 38.9583 7.00833 40.975 9.025C42.9917 11.0417 44 13.55 44 16.55C44 17.55 43.8917 18.525 43.675 19.475C43.4583 20.425 43.0833 21.4333 42.55 22.5H30.85L27.25 17.2C27.0833 16.9667 26.8833 16.8 26.65 16.7C26.4167 16.6 26.1667 16.55 25.9 16.55C25.6 16.55 25.325 16.6417 25.075 16.825C24.825 17.0083 24.65 17.25 24.55 17.55L21.55 26.6ZM24 42.65L21.95 40.8C18.2167 37.3667 15.1667 34.4333 12.8 32C10.4333 29.5667 8.58333 27.4 7.25 25.5H17.1L20.7 30.85C20.8667 31.0833 21.075 31.25 21.325 31.35C21.575 31.45 21.8333 31.5 22.1 31.5C22.4 31.5 22.6667 31.4083 22.9 31.225C23.1333 31.0417 23.3 30.8 23.4 30.5L26.45 21.45L28.75 24.85C28.9167 25.05 29.1 25.2083 29.3 25.325C29.5 25.4417 29.7333 25.5 30 25.5H40.75C39.4167 27.4 37.5667 29.5667 35.2 32C32.8333 34.4333 29.7833 37.3667 26.05 40.8L24 42.65Z" fill="#F40202"/>
</g>
</svg>
