<svg width="48" height="48" viewBox="0 0 48 48" fill="none" xmlns="http://www.w3.org/2000/svg">
<mask id="mask0_1089_3777" style="mask-type:alpha" maskUnits="userSpaceOnUse" x="0" y="0" width="48" height="48">
<rect width="48" height="48" fill="#F40202"/>
</mask>
<g mask="url(#mask0_1089_3777)">
<path d="M25.4 42V19.65C24.9 18.9167 24.2333 18.3333 23.4 17.9C22.5667 17.4667 21.6583 17.25 20.675 17.25C19.6917 17.25 18.7833 17.4917 17.95 17.975C17.1167 18.4583 16.4333 19.0833 15.9 19.85H13C13 16.0167 14.3487 12.75 17.046 10.05C19.7433 7.35 23.028 6 26.9 6C30.786 6 34.0825 7.35 36.7895 10.05C39.4965 12.75 40.85 16.0167 40.85 19.85H37.95C37.4167 19.0833 36.7358 18.4583 35.9075 17.975C35.0792 17.4917 34.16 17.25 33.15 17.25C32.1833 17.25 31.2833 17.4667 30.45 17.9C29.6167 18.3333 28.9333 18.9333 28.4 19.7V42H25.4ZM32.4 42V30.2H44V42H41V33.2H35.4V42H32.4ZM8 42V36.2C7.43333 36.2 6.93467 36.0007 6.504 35.602C6.073 35.2033 5.82167 34.7193 5.75 34.15L4 14.35H4.9335C5.5065 14.35 6.01083 14.55 6.4465 14.95C6.88217 15.35 7.13333 15.8333 7.2 16.4L8.5 30.2H18.4C19.2 30.2 19.9 30.5 20.5 31.1C21.1 31.7 21.4 32.4 21.4 33.2V36.2H19.35V42H17.35V36.2H10V42H8Z" fill="#F40202"/>
</g>
</svg>
