<svg width="24" height="24" viewBox="0 0 24 24" fill="none" xmlns="http://www.w3.org/2000/svg">
<mask id="mask0_1018_10168" style="mask-type:alpha" maskUnits="userSpaceOnUse" x="0" y="0" width="24" height="24">
<rect width="24" height="24" fill="#D9D9D9"/>
</mask>
<g mask="url(#mask0_1018_10168)">
<path d="M6 14.0251H13.825V12.5251H6V14.0251ZM6 10.7751H18V9.27512H6V10.7751ZM6 7.52512H18V6.02512H6V7.52512ZM2 22.0001V3.50012C2 3.10012 2.15 2.75012 2.45 2.45012C2.75 2.15012 3.1 2.00012 3.5 2.00012H20.5C20.9 2.00012 21.25 2.15012 21.55 2.45012C21.85 2.75012 22 3.10012 22 3.50012V16.5001C22 16.9001 21.85 17.2501 21.55 17.5501C21.25 17.8501 20.9 18.0001 20.5 18.0001H6L2 22.0001ZM5.35 16.5001H20.5V3.50012H3.5V18.5001L5.35 16.5001Z" fill="#4E0C0D"/>
</g>
</svg>
