<svg width="48" height="48" viewBox="0 0 48 48" fill="none" xmlns="http://www.w3.org/2000/svg">
<mask id="mask0_1089_3783" style="mask-type:alpha" maskUnits="userSpaceOnUse" x="0" y="0" width="48" height="48">
<rect width="48" height="48" fill="#D9D9D9"/>
</mask>
<g mask="url(#mask0_1089_3783)">
<path d="M43 41.45V9H5V25H2V9C2 8.16667 2.29383 7.45833 2.8815 6.875C3.46883 6.29167 4.175 6 5 6H43C43.825 6 44.5313 6.29367 45.119 6.881C45.7063 7.46867 46 8.175 46 9V38C46 38.8667 45.7167 39.625 45.15 40.275C44.5833 40.925 43.8667 41.3167 43 41.45ZM18 27.95C15.8 27.95 14 27.25 12.6 25.85C11.2 24.45 10.5 22.65 10.5 20.45C10.5 18.25 11.2 16.45 12.6 15.05C14 13.65 15.8 12.95 18 12.95C20.2 12.95 22 13.65 23.4 15.05C24.8 16.45 25.5 18.25 25.5 20.45C25.5 22.65 24.8 24.45 23.4 25.85C22 27.25 20.2 27.95 18 27.95ZM2 44V39.3C2 38.0333 2.31667 36.95 2.95 36.05C3.58333 35.15 4.4 34.4667 5.4 34C7.63333 33 9.775 32.25 11.825 31.75C13.875 31.25 15.9333 31 18 31C20.0667 31 22.1167 31.2583 24.15 31.775C26.1833 32.2917 28.3153 33.0365 30.546 34.0095C31.5893 34.4805 32.4258 35.1633 33.0555 36.058C33.6852 36.9527 34 38.0333 34 39.3V44H2Z" fill="#F40202"/>
</g>
</svg>
