<svg width="24" height="24" viewBox="0 0 24 24" fill="none" xmlns="http://www.w3.org/2000/svg">
<mask id="mask0_1018_10132" style="mask-type:alpha" maskUnits="userSpaceOnUse" x="0" y="0" width="24" height="24">
<rect width="24" height="24" fill="#D9D9D9"/>
</mask>
<g mask="url(#mask0_1018_10132)">
<path d="M7.725 14.2748C8.20833 14.7581 8.8 14.9998 9.5 14.9998C10.2 14.9998 10.7917 14.7581 11.275 14.2748L15.275 10.2748C15.7583 9.79142 16 9.19976 16 8.49976C16 7.79976 15.7583 7.20809 15.275 6.72476C14.7917 6.24142 14.2 5.99976 13.5 5.99976C12.8 5.99976 12.2083 6.24142 11.725 6.72476C11.1083 6.50809 10.5 6.45809 9.9 6.57476C9.3 6.69142 8.79167 6.95809 8.375 7.37476C7.95833 7.79142 7.69167 8.29976 7.575 8.89976C7.45833 9.49976 7.50833 10.1081 7.725 10.7248C7.24167 11.2081 7 11.7998 7 12.4998C7 13.1998 7.24167 13.7914 7.725 14.2748ZM6 21.9998V17.6998C5.05 16.8331 4.3125 15.8206 3.7875 14.6623C3.2625 13.5039 3 12.2831 3 10.9998C3 8.49976 3.875 6.37476 5.625 4.62476C7.375 2.87476 9.5 1.99976 12 1.99976C14.0833 1.99976 15.9292 2.61226 17.5375 3.83726C19.1458 5.06226 20.1917 6.65809 20.675 8.62476L22.05 14.0748C22.1167 14.3081 22.075 14.5206 21.925 14.7123C21.775 14.9039 21.575 14.9998 21.325 14.9998H19V18.4998C19 18.9123 18.8532 19.2653 18.5595 19.559C18.2657 19.8528 17.9125 19.9998 17.5 19.9998H15V21.9998H13.5V18.4998H17.5V13.4998H20.35L19.225 8.99976C18.825 7.38309 17.95 6.06226 16.6 5.03726C15.25 4.01226 13.7167 3.49976 12 3.49976C9.91667 3.49976 8.14583 4.22059 6.6875 5.66226C5.22917 7.10392 4.5 8.86259 4.5 10.9383C4.5 12.0119 4.71933 13.0318 5.158 13.998C5.59683 14.9643 6.21917 15.8233 7.025 16.5748L7.5 17.0248V21.9998H6Z" fill="#1C1B1F"/>
</g>
</svg>
