<svg width="24" height="24" viewBox="0 0 24 24" fill="none" xmlns="http://www.w3.org/2000/svg">
<path d="M13.9929 14.9613L12.1433 16.8109C11.4135 17.5407 10.5554 17.9201 9.56918 17.949C8.58302 17.9779 7.74657 17.6489 7.05983 16.9622C6.37315 16.2755 6.04131 15.4362 6.0643 14.4441C6.08729 13.452 6.46371 12.591 7.19355 11.8611L9.04316 10.0115L10.0858 11.0542L8.24118 12.8988C7.81069 13.3293 7.58639 13.8298 7.56828 14.4005C7.55025 14.9712 7.74328 15.4587 8.14738 15.8628C8.55155 16.2669 9.03985 16.4608 9.61227 16.4445C10.1847 16.4281 10.6862 16.2047 11.1166 15.7742L12.9613 13.9296L13.9929 14.9613ZM10.3947 14.4109L9.60452 13.6207L13.6062 9.61901L14.3964 10.4092L10.3947 14.4109ZM14.9468 14.0074L13.9151 12.9757L15.7597 11.1311C16.1902 10.7006 16.4145 10.2001 16.4326 9.62939C16.4507 9.05865 16.2576 8.57123 15.8535 8.16713C15.4494 7.76296 14.9611 7.56904 14.3887 7.5854C13.8162 7.60175 13.3148 7.82517 12.8843 8.25566L11.0397 10.1003L9.99705 9.05764L11.8467 7.20803C12.574 6.48067 13.436 6.10264 14.4327 6.07395C15.4294 6.04533 16.271 6.37436 16.9577 7.06103C17.6443 7.7477 17.971 8.58697 17.9376 9.57883C17.9042 10.5708 17.5238 11.4304 16.7964 12.1578L14.9468 14.0074Z" fill="white"/>
</svg>
