<svg width="32" height="33" viewBox="0 0 32 33" fill="none" xmlns="http://www.w3.org/2000/svg">
<g clip-path="url(#clip0_327_433)">
<rect y="0.5" width="32" height="32" rx="16" fill="#D1D5DB"/>
<g clip-path="url(#clip1_327_433)">
<path d="M19.5925 11.5272C18.6804 10.5423 17.4063 10 16 10C14.5863 10 13.308 10.5391 12.4 11.5178C11.4822 12.5073 11.035 13.8522 11.14 15.3044C11.3482 18.1694 13.5283 20.5 16 20.5C18.4718 20.5 20.6482 18.1698 20.8596 15.3053C20.966 13.8662 20.516 12.5242 19.5925 11.5272Z" fill="white"/>
<path d="M5.98624 31.3523C6.20762 31.4526 6.44891 31.503 6.69256 31.4999L16 34L25.3074 31.4999C25.5511 31.5029 25.7924 31.4524 26.0138 31.3521C26.2352 31.2517 26.4311 31.104 26.5872 30.9197C26.931 30.515 27.0695 29.9624 26.9669 29.4035C26.5206 26.965 25.1276 24.9166 22.9383 23.4791C20.9932 22.2031 18.5294 21.5 16 21.5C13.4706 21.5 11.0068 22.2026 9.06173 23.4791C6.87237 24.9171 5.47942 26.9656 5.03309 29.4041C4.9305 29.9629 5.06905 30.5155 5.41279 30.9202C5.56896 31.1044 5.76486 31.252 5.98624 31.3523Z" fill="white"/>
</g>
</g>
<rect x="0.5" y="1" width="31" height="31" rx="15.5" stroke="#D1D5DB"/>
<defs>
<clipPath id="clip0_327_433">
<rect y="0.5" width="32" height="32" rx="16" fill="white"/>
</clipPath>
<clipPath id="clip1_327_433">
<rect width="24" height="24" fill="white" transform="translate(4 8.5)"/>
</clipPath>
</defs>
</svg>
