<svg width="24" height="24" viewBox="0 0 24 24" fill="none" xmlns="http://www.w3.org/2000/svg">
<path d="M4.5 19.5C5.46667 18.55 6.59583 17.8125 7.8875 17.2875C9.17917 16.7625 10.55 16.5 12 16.5C13.45 16.5 14.8167 16.7625 16.1 17.2875C17.3833 17.8125 18.5167 18.55 19.5 19.5V5H4.5V19.5ZM12 14.15C11.05 14.15 10.2458 13.8208 9.5875 13.1625C8.92917 12.5042 8.6 11.7 8.6 10.75C8.6 9.8 8.92917 8.99583 9.5875 8.3375C10.2458 7.67917 11.05 7.35 12 7.35C12.95 7.35 13.7542 7.67917 14.4125 8.3375C15.0708 8.99583 15.4 9.8 15.4 10.75C15.4 11.7 15.0708 12.5042 14.4125 13.1625C13.7542 13.8208 12.95 14.15 12 14.15ZM4.5 22C4.1 22 3.75 21.85 3.45 21.55C3.15 21.25 3 20.9 3 20.5V5C3 4.6 3.15 4.25 3.45 3.95C3.75 3.65 4.1 3.5 4.5 3.5H6.125V2H7.75V3.5H16.25V2H17.875V3.5H19.5C19.9 3.5 20.25 3.65 20.55 3.95C20.85 4.25 21 4.6 21 5V20.5C21 20.9 20.85 21.25 20.55 21.55C20.25 21.85 19.9 22 19.5 22H4.5Z" fill="#1C1B1F"/>
</svg>
