<svg width="24" height="24" viewBox="0 0 24 24" fill="none" xmlns="http://www.w3.org/2000/svg">
<path d="M8.51172 22.9376C7.71172 22.9376 7.00339 22.7001 6.38672 22.2251C5.77005 21.7501 5.33672 21.1376 5.08672 20.3876C4.82005 20.8209 4.49505 21.1584 4.11172 21.4001C3.72839 21.6418 3.27005 21.7626 2.73672 21.7626C1.95339 21.7626 1.30339 21.4876 0.786719 20.9376C0.270052 20.3876 0.0117188 19.7376 0.0117188 18.9876C0.0117188 18.1709 0.265885 17.5251 0.774219 17.0501C1.28255 16.5751 1.92839 16.3293 2.71172 16.3126C2.41172 15.9793 2.17839 15.5918 2.01172 15.1501C1.84505 14.7084 1.76172 14.2626 1.76172 13.8126C1.76172 13.1793 1.92422 12.5876 2.24922 12.0376C2.57422 11.4876 3.03672 11.0459 3.63672 10.7126C3.72005 10.9293 3.82422 11.1626 3.94922 11.4126C4.07422 11.6626 4.20339 11.8793 4.33672 12.0626C4.00339 12.2793 3.74089 12.5459 3.54922 12.8626C3.35755 13.1793 3.26172 13.5126 3.26172 13.8626C3.26172 14.8626 3.66589 15.4918 4.47422 15.7501C5.28255 16.0084 6.06172 16.2126 6.81172 16.3626L7.08672 16.8376C6.88672 17.4209 6.72422 17.9001 6.59922 18.2751C6.47422 18.6501 6.41172 18.9959 6.41172 19.3126C6.41172 19.8793 6.62422 20.3751 7.04922 20.8001C7.47422 21.2251 7.97005 21.4376 8.53672 21.4376C9.22005 21.4376 9.78255 21.1501 10.2242 20.5751C10.6659 20.0001 11.0242 19.3168 11.2992 18.5251C11.5742 17.7334 11.7867 16.9334 11.9367 16.1251C12.0867 15.3168 12.2117 14.6876 12.3117 14.2376L13.7617 14.6376C13.6117 15.3543 13.4367 16.1876 13.2367 17.1376C13.0367 18.0876 12.7492 18.9918 12.3742 19.8501C11.9992 20.7084 11.5076 21.4376 10.8992 22.0376C10.2909 22.6376 9.49505 22.9376 8.51172 22.9376ZM10.2617 15.5126C9.51172 14.8459 8.82839 14.2251 8.21172 13.6501C7.59505 13.0751 7.06589 12.5126 6.62422 11.9626C6.18255 11.4126 5.84089 10.8709 5.59922 10.3376C5.35755 9.80427 5.23672 9.2376 5.23672 8.6376C5.23672 7.6376 5.58672 6.7876 6.28672 6.0876C6.98672 5.3876 7.83672 5.0376 8.83672 5.0376C8.98672 5.0376 9.12839 5.04176 9.26172 5.0501C9.39505 5.05843 9.52839 5.07926 9.66172 5.1126C9.51172 4.82926 9.40339 4.5876 9.33672 4.3876C9.27005 4.1876 9.23672 3.9876 9.23672 3.7876C9.23672 3.02093 9.50339 2.37093 10.0367 1.8376C10.5701 1.30426 11.2201 1.0376 11.9867 1.0376C12.7534 1.0376 13.4034 1.30426 13.9367 1.8376C14.4701 2.37093 14.7367 3.02093 14.7367 3.7876C14.7367 3.97093 14.7076 4.16676 14.6492 4.3751C14.5909 4.58343 14.4784 4.82926 14.3117 5.1126C14.4451 5.07926 14.5784 5.05843 14.7117 5.0501C14.8451 5.04176 14.9867 5.0376 15.1367 5.0376C16.0867 5.0376 16.8909 5.34176 17.5492 5.9501C18.2076 6.55843 18.5867 7.3126 18.6867 8.2126C18.4534 8.19593 18.2034 8.19177 17.9367 8.2001C17.6701 8.20843 17.4201 8.22927 17.1867 8.2626C17.1034 7.7626 16.8784 7.3501 16.5117 7.0251C16.1451 6.7001 15.6867 6.5376 15.1367 6.5376C14.5201 6.5376 14.0326 6.70843 13.6742 7.0501C13.3159 7.39177 12.8367 7.9126 12.2367 8.6126H11.7117C11.0951 7.87927 10.6076 7.3501 10.2492 7.0251C9.89089 6.7001 9.42005 6.5376 8.83672 6.5376C8.23672 6.5376 7.73672 6.7376 7.33672 7.1376C6.93672 7.5376 6.73672 8.0376 6.73672 8.6376C6.73672 9.0376 6.84505 9.44593 7.06172 9.8626C7.27839 10.2793 7.58672 10.7251 7.98672 11.2001C8.38672 11.6751 8.87005 12.1751 9.43672 12.7001C10.0034 13.2251 10.6367 13.8043 11.3367 14.4376L10.2617 15.5126ZM15.4367 22.9626C15.0701 22.9626 14.7076 22.9043 14.3492 22.7876C13.9909 22.6709 13.6451 22.4959 13.3117 22.2626C13.4451 22.0626 13.5784 21.8376 13.7117 21.5876C13.8451 21.3376 13.9534 21.1043 14.0367 20.8876C14.2701 21.0709 14.5076 21.2084 14.7492 21.3001C14.9909 21.3918 15.2367 21.4376 15.4867 21.4376C16.0701 21.4376 16.5659 21.2251 16.9742 20.8001C17.3826 20.3751 17.5867 19.8793 17.5867 19.3126C17.5867 18.9793 17.5201 18.6251 17.3867 18.2501C17.2534 17.8751 17.0951 17.4043 16.9117 16.8376L17.1867 16.3626C17.9534 16.2293 18.7367 16.0334 19.5367 15.7751C20.3367 15.5168 20.7367 14.8876 20.7367 13.8876C20.7367 13.1543 20.4701 12.6084 19.9367 12.2501C19.4034 11.8918 18.8117 11.7126 18.1617 11.7126C17.4617 11.7126 16.6326 11.8459 15.6742 12.1126C14.7159 12.3793 13.6034 12.7209 12.3367 13.1376L11.9617 11.6876C13.2284 11.2709 14.3701 10.9209 15.3867 10.6376C16.4034 10.3543 17.3284 10.2126 18.1617 10.2126C19.2284 10.2126 20.1742 10.5334 20.9992 11.1751C21.8242 11.8168 22.2367 12.7126 22.2367 13.8626C22.2367 14.3126 22.1534 14.7543 21.9867 15.1876C21.8201 15.6209 21.5867 16.0043 21.2867 16.3376C22.0534 16.3543 22.6951 16.6043 23.2117 17.0876C23.7284 17.5709 23.9867 18.2126 23.9867 19.0126C23.9867 19.7626 23.7284 20.4126 23.2117 20.9626C22.6951 21.5126 22.0451 21.7876 21.2617 21.7876C20.7451 21.7876 20.2867 21.6668 19.8867 21.4251C19.4867 21.1834 19.1617 20.8459 18.9117 20.4126C18.6451 21.1626 18.2034 21.7751 17.5867 22.2501C16.9701 22.7251 16.2534 22.9626 15.4367 22.9626Z" fill="#1C1B1F"/>
</svg>
