<svg width="74" height="74" viewBox="0 0 74 74" fill="none" xmlns="http://www.w3.org/2000/svg">
<mask id="mask0_996_7044" style="mask-type:alpha" maskUnits="userSpaceOnUse" x="0" y="0" width="74" height="74">
<rect width="74" height="74" fill="#D9D9D9"/>
</mask>
<g mask="url(#mask0_996_7044)">
<path d="M3.08594 61.6668V49.3335C3.08594 47.8432 3.61267 46.5713 4.66615 45.5179C5.71962 44.4644 6.99149 43.9377 8.48177 43.9377H19.3505C20.2241 43.9377 21.0592 44.1561 21.8557 44.5929C22.6523 45.0297 23.3332 45.6335 23.8984 46.4043C25.3887 48.5627 27.2901 50.2328 29.6026 51.4147C31.9151 52.5967 34.3818 53.1877 37.0026 53.1877C39.6234 53.1877 42.0901 52.5967 44.4026 51.4147C46.7151 50.2328 48.6422 48.5627 50.1839 46.4043C50.7491 45.6335 51.4172 45.0297 52.188 44.5929C52.9589 44.1561 53.7811 43.9377 54.6547 43.9377H65.5234C67.0137 43.9377 68.2856 44.4644 69.3391 45.5179C70.3925 46.5713 70.9193 47.8432 70.9193 49.3335V61.6668H50.8776V52.4939C49.0276 54.1897 46.9078 55.5002 44.5182 56.4252C42.1286 57.3502 39.6234 57.8127 37.0026 57.8127C34.3818 57.8127 31.8894 57.3502 29.5255 56.4252C27.1616 55.5002 25.029 54.1897 23.1276 52.4939V61.6668H3.08594ZM37.0026 48.5627C35.204 48.5627 33.4696 48.1387 31.7995 47.2908C30.1293 46.4429 28.7804 45.2738 27.7526 43.7835C26.9304 42.6016 25.9411 41.6509 24.7849 40.9314C23.6286 40.212 22.3825 39.7238 21.0464 39.4668C22.5366 37.9252 24.8748 36.7432 28.0609 35.921C31.2471 35.0988 34.2276 34.6877 37.0026 34.6877C39.7776 34.6877 42.771 35.0988 45.9828 35.921C49.1946 36.7432 51.5457 37.9252 53.0359 39.4668C51.6998 39.7238 50.4536 40.212 49.2974 40.9314C48.1411 41.6509 47.1519 42.6016 46.3297 43.7835C45.3019 45.2738 43.953 46.4429 42.2828 47.2908C40.6127 48.1387 38.8526 48.5627 37.0026 48.5627ZM12.3359 38.5418C10.0234 38.5418 8.03212 37.7068 6.36198 36.0366C4.69184 34.3665 3.85677 32.3752 3.85677 30.0627C3.85677 27.6988 4.69184 25.6946 6.36198 24.0502C8.03212 22.4057 10.0234 21.5835 12.3359 21.5835C14.6998 21.5835 16.704 22.4057 18.3484 24.0502C19.9929 25.6946 20.8151 27.6988 20.8151 30.0627C20.8151 32.3752 19.9929 34.3665 18.3484 36.0366C16.704 37.7068 14.6998 38.5418 12.3359 38.5418ZM61.6693 38.5418C59.3568 38.5418 57.3655 37.7068 55.6953 36.0366C54.0252 34.3665 53.1901 32.3752 53.1901 30.0627C53.1901 27.6988 54.0252 25.6946 55.6953 24.0502C57.3655 22.4057 59.3568 21.5835 61.6693 21.5835C64.0332 21.5835 66.0373 22.4057 67.6818 24.0502C69.3262 25.6946 70.1484 27.6988 70.1484 30.0627C70.1484 32.3752 69.3262 34.3665 67.6818 36.0366C66.0373 37.7068 64.0332 38.5418 61.6693 38.5418ZM37.0026 29.2918C34.6901 29.2918 32.6988 28.4568 31.0286 26.7866C29.3585 25.1165 28.5234 23.1252 28.5234 20.8127C28.5234 18.4488 29.3585 16.4446 31.0286 14.8002C32.6988 13.1557 34.6901 12.3335 37.0026 12.3335C39.3665 12.3335 41.3707 13.1557 43.0151 14.8002C44.6595 16.4446 45.4818 18.4488 45.4818 20.8127C45.4818 23.1252 44.6595 25.1165 43.0151 26.7866C41.3707 28.4568 39.3665 29.2918 37.0026 29.2918Z" fill="#500C08"/>
</g>
</svg>
