<svg width="74" height="74" viewBox="0 0 74 74" fill="none" xmlns="http://www.w3.org/2000/svg">
<mask id="mask0_996_7056" style="mask-type:alpha" maskUnits="userSpaceOnUse" x="0" y="0" width="74" height="74">
<rect width="74" height="74" fill="#D9D9D9"/>
</mask>
<g mask="url(#mask0_996_7056)">
<path d="M24.1245 42.4728H43.1641C43.8835 42.4728 44.4873 42.2158 44.9755 41.7019C45.4637 41.188 45.7078 40.5714 45.7078 39.8519V32.6832L52.4141 39.3894V21.8915L45.7078 28.5978V21.3519C45.7078 20.6325 45.4637 20.0287 44.9755 19.5405C44.4873 19.0523 43.8835 18.8082 43.1641 18.8082H24.1245C23.405 18.8082 22.8012 19.0523 22.313 19.5405C21.8248 20.0287 21.5807 20.6325 21.5807 21.3519V39.8519C21.5807 40.5714 21.8248 41.188 22.313 41.7019C22.8012 42.2158 23.405 42.4728 24.1245 42.4728ZM6.16406 67.8332V10.7915C6.16406 9.55817 6.62656 8.479 7.55156 7.554C8.47656 6.629 9.55573 6.1665 10.7891 6.1665H63.2057C64.4391 6.1665 65.5182 6.629 66.4432 7.554C67.3682 8.479 67.8307 9.55817 67.8307 10.7915V50.8748C67.8307 52.1082 67.3682 53.1873 66.4432 54.1123C65.5182 55.0373 64.4391 55.4998 63.2057 55.4998H18.4974L6.16406 67.8332Z" fill="#500C08"/>
</g>
</svg>
