<svg width="74" height="74" viewBox="0 0 74 74" fill="none" xmlns="http://www.w3.org/2000/svg">
<mask id="mask0_996_7050" style="mask-type:alpha" maskUnits="userSpaceOnUse" x="0" y="0" width="74" height="74">
<rect width="74" height="74" fill="#D9D9D9"/>
</mask>
<g mask="url(#mask0_996_7050)">
<path d="M38.1536 67.8332L43.2411 63.2082C49.4592 57.5554 53.5703 53.2901 55.5745 50.4123C57.5786 47.5346 58.5807 44.4769 58.5807 41.2394C58.5807 39.8519 58.3623 38.58 57.9255 37.4238C57.4887 36.2675 56.9106 35.0984 56.1912 33.9165H63.2057C64.4905 33.9165 65.5825 34.3662 66.4818 35.2655C67.3811 36.1648 67.8307 37.2568 67.8307 38.5415V67.8332H38.1536ZM6.16406 67.8332V38.5415C6.16406 37.2568 6.60087 36.1648 7.47448 35.2655C8.34809 34.3662 9.45295 33.9165 10.7891 33.9165H17.8036C17.0328 34.9957 16.4418 36.1519 16.0307 37.3853C15.6196 38.6186 15.4141 39.9033 15.4141 41.2394C15.4141 44.4769 16.3905 47.5089 18.3432 50.3353C20.296 53.1616 24.4328 57.4526 30.7536 63.2082L35.8411 67.8332H6.16406ZM58.5807 30.8332C55.9599 30.8332 53.763 29.9467 51.9901 28.1738C50.2172 26.4009 49.3307 24.204 49.3307 21.5832C49.3307 19.0137 50.2172 16.8297 51.9901 15.0311C53.763 13.2325 55.9599 12.3332 58.5807 12.3332C61.1502 12.3332 63.3342 13.2325 65.1328 15.0311C66.9314 16.8297 67.8307 19.0137 67.8307 21.5832C67.8307 24.204 66.9314 26.4009 65.1328 28.1738C63.3342 29.9467 61.1502 30.8332 58.5807 30.8332ZM36.9974 27.7498C33.9655 27.7498 31.4089 26.7092 29.3276 24.628C27.2464 22.5467 26.2057 19.9901 26.2057 16.9582C26.2057 13.9776 27.2464 11.4339 29.3276 9.32692C31.4089 7.21998 33.9655 6.1665 36.9974 6.1665C39.978 6.1665 42.5217 7.21998 44.6287 9.32692C46.7356 11.4339 47.7891 13.9776 47.7891 16.9582C47.7891 19.9901 46.7356 22.5467 44.6287 24.628C42.5217 26.7092 39.978 27.7498 36.9974 27.7498ZM20.0391 41.2394C20.0391 43.6033 21.1825 46.237 23.4693 49.1405C25.7561 52.0439 30.2655 56.5533 36.9974 62.6686C43.6266 56.6561 48.1102 52.1981 50.4484 49.2946C52.7866 46.3912 53.9557 43.7061 53.9557 41.2394C53.9557 38.7728 53.1207 36.6787 51.4505 34.9571C49.7804 33.2356 47.7377 32.3748 45.3224 32.3748C43.9349 32.3748 42.663 32.6703 41.5068 33.2613C40.3505 33.8523 39.3099 34.5846 38.3849 35.4582L36.9974 36.8457L35.5328 35.4582C34.6078 34.636 33.5672 33.9165 32.4109 33.2998C31.2547 32.6832 30.0085 32.3748 28.6724 32.3748C26.2057 32.3748 24.1502 33.2356 22.5057 34.9571C20.8613 36.6787 20.0391 38.7728 20.0391 41.2394ZM15.4141 30.8332C12.7932 30.8332 10.5964 29.9467 8.82344 28.1738C7.05052 26.4009 6.16406 24.204 6.16406 21.5832C6.16406 19.0137 7.05052 16.8297 8.82344 15.0311C10.5964 13.2325 12.7932 12.3332 15.4141 12.3332C17.9835 12.3332 20.1675 13.2325 21.9661 15.0311C23.7648 16.8297 24.6641 19.0137 24.6641 21.5832C24.6641 24.204 23.7648 26.4009 21.9661 28.1738C20.1675 29.9467 17.9835 30.8332 15.4141 30.8332Z" fill="#500C08"/>
</g>
</svg>
