<svg width="48" height="48" viewBox="0 0 48 48" fill="none" xmlns="http://www.w3.org/2000/svg">
<mask id="mask0_1089_3772" style="mask-type:alpha" maskUnits="userSpaceOnUse" x="0" y="0" width="48" height="48">
<rect width="48" height="48" fill="#D9D9D9"/>
</mask>
<g mask="url(#mask0_1089_3772)">
<path d="M36.004 11.65C35.0013 11.65 34.1417 11.293 33.425 10.579C32.7083 9.86498 32.35 9.00664 32.35 8.00398C32.35 7.00131 32.707 6.14164 33.421 5.42498C34.135 4.70831 34.9933 4.34998 35.996 4.34998C36.9987 4.34998 37.8583 4.70697 38.575 5.42097C39.2917 6.13497 39.65 6.99331 39.65 7.99597C39.65 8.99864 39.293 9.85831 38.579 10.575C37.865 11.2916 37.0067 11.65 36.004 11.65ZM33 44V27.2C33 26.2 32.75 25.3 32.25 24.5C31.75 23.7 31.0167 23.1166 30.05 22.75L32.1 16.75C32.3667 15.9166 32.8583 15.25 33.575 14.75C34.2917 14.25 35.1 14 36 14C36.9 14 37.7083 14.25 38.425 14.75C39.1417 15.25 39.6333 15.9166 39.9 16.75L45 31.5H39.5V44H33ZM24.75 23C23.9167 23 23.2083 22.7083 22.625 22.125C22.0417 21.5416 21.75 20.8333 21.75 20C21.75 19.1666 22.0417 18.4583 22.625 17.875C23.2083 17.2916 23.9167 17 24.75 17C25.5833 17 26.2917 17.2916 26.875 17.875C27.4583 18.4583 27.75 19.1666 27.75 20C27.75 20.8333 27.4583 21.5416 26.875 22.125C26.2917 22.7083 25.5833 23 24.75 23ZM11.004 11.65C10.0013 11.65 9.14167 11.293 8.425 10.579C7.70833 9.86498 7.35 9.00664 7.35 8.00398C7.35 7.00131 7.707 6.14164 8.421 5.42498C9.135 4.70831 9.99333 4.34998 10.996 4.34998C11.9987 4.34998 12.8583 4.70697 13.575 5.42097C14.2917 6.13497 14.65 6.99331 14.65 7.99597C14.65 8.99864 14.293 9.85831 13.579 10.575C12.865 11.2916 12.0067 11.65 11.004 11.65ZM7.5 44V29.5H4V17C4 16.175 4.29383 15.4686 4.8815 14.881C5.46883 14.2936 6.175 14 7 14H15C15.825 14 16.5313 14.2936 17.119 14.881C17.7063 15.4686 18 16.175 18 17V29.5H14.5V44H7.5ZM22 44V35.5H19.5V27.2C19.5 26.589 19.7138 26.0695 20.1415 25.6415C20.5695 25.2138 21.089 25 21.7 25H27.8C28.411 25 28.9305 25.2138 29.3585 25.6415C29.7862 26.0695 30 26.589 30 27.2V35.5H27.5V44H22Z" fill="#F40202"/>
</g>
</svg>
