<svg width="20" height="20" viewBox="0 0 20 20" fill="none" xmlns="http://www.w3.org/2000/svg">
<mask id="mask0_1007_5734" style="mask-type:alpha" maskUnits="userSpaceOnUse" x="0" y="0" width="20" height="20">
<rect width="20" height="20" fill="#D9D9D9"/>
</mask>
<g mask="url(#mask0_1007_5734)">
<path d="M3.88896 17.5C3.50701 17.5 3.18 17.364 2.90792 17.0921C2.63597 16.82 2.5 16.493 2.5 16.111V7.22229C2.5 6.84035 2.63597 6.51333 2.90792 6.24125C3.18 5.96931 3.50701 5.83333 3.88896 5.83333H7.91667V7.22229H3.88896V16.111H16.111V7.22229H12.0833V5.83333H16.111C16.493 5.83333 16.82 5.96931 17.0921 6.24125C17.364 6.51333 17.5 6.84035 17.5 7.22229V16.111C17.5 16.493 17.364 16.82 17.0921 17.0921C16.82 17.364 16.493 17.5 16.111 17.5H3.88896ZM10 13.2917L6.63896 9.93063L7.625 8.94438L9.30563 10.6181V0H10.6944V10.6181L12.375 8.94438L13.361 9.93063L10 13.2917Z" fill="black"/>
</g>
</svg>
