<svg width="48" height="48" viewBox="0 0 48 48" fill="none" xmlns="http://www.w3.org/2000/svg">
<mask id="mask0_1089_3751" style="mask-type:alpha" maskUnits="userSpaceOnUse" x="0" y="0" width="48" height="48">
<rect width="48" height="48" fill="#D9D9D9"/>
</mask>
<g mask="url(#mask0_1089_3751)">
<path d="M12.15 44V25.35C10.25 24.85 8.75 23.925 7.65 22.575C6.55 21.225 6 19.65 6 17.85V4H9V16.35H12.15V4H15.15V16.35H18.35V4H21.35V17.85C21.35 19.6833 20.8 21.2667 19.7 22.6C18.6 23.9333 17.0833 24.85 15.15 25.35V44H12.15ZM32.8 44V24.55C30.9 23.9167 29.3917 22.6917 28.275 20.875C27.1583 19.0583 26.6 16.9 26.6 14.4C26.6 11.5 27.35 9.04167 28.85 7.025C30.35 5.00833 32.1667 4 34.3 4C36.4333 4 38.25 5.00833 39.75 7.025C41.25 9.04167 42 11.5 42 14.4C42 16.9 41.4417 19.0583 40.325 20.875C39.2083 22.6917 37.7 23.9333 35.8 24.6V44H32.8Z" fill="#F40202"/>
</g>
</svg>
