<svg width="50" height="50" viewBox="0 0 50 50" fill="none" xmlns="http://www.w3.org/2000/svg">
<path d="M24.7665 42.9815C22.8915 42.9815 21.3062 42.3318 20.0105 41.0324C18.7148 39.7327 18.0669 38.1458 18.0669 36.2717C18.0669 34.6792 18.5436 33.2929 19.497 32.113C20.4505 30.9328 21.6683 30.1523 23.1504 29.7716V26.4093H12.9021V20.0147H8.24219V7.40975H20.8471V20.0147H16.1873V23.1347H33.3881V19.7622C31.906 19.4165 30.6882 18.654 29.7348 17.4746C28.7813 16.295 28.3046 14.9049 28.3046 13.3045C28.3046 11.4213 28.9542 9.82695 30.2533 8.52134C31.5524 7.21545 33.1389 6.5625 35.0127 6.5625C36.8837 6.5625 38.4754 7.21545 39.7878 8.52134C41.1005 9.82695 41.7568 11.4213 41.7568 13.3045C41.7568 14.9049 41.2729 16.295 40.3051 17.4746C39.3375 18.654 38.1269 19.4165 36.6733 19.7622V26.4093H26.425V29.7716C27.8789 30.1523 29.0896 30.9323 30.0572 32.1117C31.0247 33.2911 31.5085 34.6765 31.5085 36.2679C31.5085 38.1454 30.8565 39.7337 29.5526 41.0328C28.2487 42.3319 26.6533 42.9815 24.7665 42.9815Z" fill="#930000"/>
</svg>
