<svg width="50" height="50" viewBox="0 0 50 50" fill="none" xmlns="http://www.w3.org/2000/svg">
<path d="M24.5243 41.6223C23.4634 41.6223 22.4034 41.5144 21.3444 41.2987C20.2856 41.0833 19.2298 40.7667 18.177 40.3489C18.3918 36.4298 19.4094 32.7548 21.2297 29.3241C23.0503 25.8933 25.4101 22.8554 28.309 20.2104C24.7843 22.0214 21.7665 24.4402 19.2555 27.4669C16.7442 30.4936 14.9033 33.9025 13.733 37.6935C13.5913 37.5652 13.4484 37.4377 13.3045 37.3112C13.1603 37.185 13.0173 37.0509 12.8756 36.9088C11.3443 35.3776 10.1672 33.6446 9.34405 31.7099C8.52093 29.7752 8.10938 27.7672 8.10938 25.6858C8.10938 23.4667 8.55093 21.3584 9.43404 19.3609C10.3175 17.3634 11.5403 15.5835 13.1026 14.0212C15.7787 11.3451 19.2578 9.59553 23.54 8.77241C27.8222 7.94961 33.7251 7.90174 41.2488 8.6288C41.9488 16.1985 41.8952 22.1008 41.088 26.3358C40.2804 30.5707 38.5541 34.0194 35.9091 36.6817C34.3332 38.2751 32.5654 39.4969 30.6058 40.3471C28.6463 41.1972 26.6191 41.6223 24.5243 41.6223Z" fill="#930000"/>
</svg>
