<svg width="50" height="50" viewBox="0 0 50 50" fill="none" xmlns="http://www.w3.org/2000/svg">
<path d="M13.4825 43.2274C11.605 43.2274 10.0187 42.5798 8.72375 41.2845C7.42875 39.9892 6.78125 38.4027 6.78125 36.5249C6.78125 34.6524 7.42889 33.0641 8.72417 31.7599C10.0194 30.4557 11.606 29.8036 13.4838 29.8036C15.3562 29.8036 16.9446 30.4561 18.2488 31.7611C19.5529 33.0661 20.205 34.6545 20.205 36.5261C20.205 37.0228 20.1544 37.5048 20.0533 37.972C19.9522 38.4395 19.7972 38.906 19.5883 39.3716L19.62 37.3153C20.4822 37.6842 21.3629 37.9625 22.2621 38.1503C23.161 38.3381 24.0738 38.432 25.0004 38.432C28.7318 38.432 31.9019 37.1275 34.5108 34.5186C37.1197 31.9098 38.4242 28.7396 38.4242 25.0082H43.14C43.14 27.5163 42.6644 29.8734 41.7133 32.0795C40.7622 34.2856 39.469 36.2063 37.8338 37.8416C36.1985 39.4768 34.2778 40.77 32.0717 41.7211C29.8656 42.6723 27.5085 43.1478 25.0004 43.1478C23.7476 43.1478 22.5228 43.0245 21.3258 42.7778C20.1289 42.5311 18.9538 42.1645 17.8004 41.6778C17.176 42.1698 16.4996 42.551 15.7712 42.8216C15.0429 43.0921 14.28 43.2274 13.4825 43.2274ZM25.0121 31.7095C23.159 31.7095 21.5769 31.0534 20.2658 29.7411C18.9547 28.4292 18.2992 26.8466 18.2992 24.9932C18.2992 23.1399 18.9553 21.557 20.2675 20.2445C21.5794 18.9317 23.1621 18.2753 25.0154 18.2753C26.8687 18.2753 28.4517 18.9314 29.7642 20.2436C31.0769 21.5559 31.7333 23.1402 31.7333 24.9966C31.7333 26.8496 31.0772 28.4317 29.765 29.7428C28.4528 31.0539 26.8685 31.7095 25.0121 31.7095ZM6.86083 25.0082C6.86083 22.5002 7.33639 20.1431 8.2875 17.937C9.23861 15.7309 10.5318 13.8102 12.1671 12.1749C13.8024 10.5396 15.7231 9.24642 17.9292 8.29531C20.1353 7.3442 22.4924 6.86865 25.0004 6.86865C26.2532 6.86865 27.4781 6.99198 28.675 7.23865C29.8719 7.48531 31.0471 7.85198 32.2004 8.33865C32.8038 7.8467 33.4715 7.46545 34.2038 7.1949C34.936 6.92434 35.7003 6.78906 36.4967 6.78906C38.3728 6.78906 39.9624 7.44045 41.2654 8.74323C42.5682 10.0463 43.2196 11.6353 43.2196 13.5103C43.2196 15.3853 42.5682 16.9764 41.2654 18.2836C39.9624 19.5909 38.3733 20.2445 36.4983 20.2445C34.6233 20.2445 33.0322 19.591 31.725 18.2841C30.4178 16.9771 29.7642 15.3864 29.7642 13.512C29.7642 13.0142 29.8164 12.5336 29.9208 12.0703C30.0253 11.6067 30.1786 11.1421 30.3808 10.6766V12.7011C29.5186 12.3323 28.6379 12.0539 27.7388 11.8661C26.8399 11.6784 25.9271 11.5845 25.0004 11.5845C21.269 11.5845 18.0989 12.8889 15.49 15.4978C12.8811 18.1067 11.5767 21.2768 11.5767 25.0082H6.86083Z" fill="#930000"/>
</svg>
