<svg width="40" height="40" viewBox="0 0 40 40" fill="none" xmlns="http://www.w3.org/2000/svg">
<path fill-rule="evenodd" clip-rule="evenodd" d="M9.68567 2.24854C7.71295 2.24854 5.82099 3.032 4.4258 4.42665C3.03061 5.8213 2.24642 7.71296 2.24567 9.68568V29.5257C2.24567 31.4989 3.02952 33.3913 4.42479 34.7866C5.82006 36.1818 7.71246 36.9657 9.68567 36.9657H29.5257C31.4984 36.9649 33.39 36.1807 34.7847 34.7855C36.1793 33.3904 36.9628 31.4984 36.9628 29.5257V9.68568C36.9621 7.71346 36.1783 5.82223 34.7837 4.42766C33.3891 3.03309 31.4979 2.24929 29.5257 2.24854H9.68567ZM31.6657 9.69711C31.6657 10.2654 31.4399 10.8105 31.038 11.2123C30.6362 11.6142 30.0911 11.84 29.5228 11.84C28.9545 11.84 28.4094 11.6142 28.0076 11.2123C27.6057 10.8105 27.38 10.2654 27.38 9.69711C27.38 9.12879 27.6057 8.58374 28.0076 8.18188C28.4094 7.78001 28.9545 7.55425 29.5228 7.55425C30.0911 7.55425 30.6362 7.78001 31.038 8.18188C31.4399 8.58374 31.6657 9.12879 31.6657 9.69711ZM19.6085 13.6628C18.0324 13.6628 16.5208 14.2889 15.4063 15.4034C14.2918 16.5179 13.6657 18.0295 13.6657 19.6057C13.6657 21.1818 14.2918 22.6934 15.4063 23.8079C16.5208 24.9224 18.0324 25.5485 19.6085 25.5485C21.1847 25.5485 22.6963 24.9224 23.8108 23.8079C24.9253 22.6934 25.5514 21.1818 25.5514 19.6057C25.5514 18.0295 24.9253 16.5179 23.8108 15.4034C22.6963 14.2889 21.1847 13.6628 19.6085 13.6628ZM10.8057 19.6057C10.8057 17.2718 11.7328 15.0335 13.3831 13.3831C15.0334 11.7328 17.2718 10.8057 19.6057 10.8057C21.9396 10.8057 24.1779 11.7328 25.8282 13.3831C27.4785 15.0335 28.4057 17.2718 28.4057 19.6057C28.4057 21.9396 27.4785 24.1779 25.8282 25.8282C24.1779 27.4785 21.9396 28.4057 19.6057 28.4057C17.2718 28.4057 15.0334 27.4785 13.3831 25.8282C11.7328 24.1779 10.8057 21.9396 10.8057 19.6057Z" fill="#500C08"/>
</svg>
