<svg width="28" height="28" viewBox="0 0 28 28" fill="none" xmlns="http://www.w3.org/2000/svg">
<path d="M18.1676 3C19.7147 3 21.1987 3.61458 22.293 4.70854C23.3873 5.80251 24.0023 7.28624 24.0028 8.83333L24.0058 18.1667C24.0063 19.7138 23.3922 21.1975 22.2986 22.2915C21.205 23.3854 19.7214 24 18.1743 24H8.841C7.29391 24 5.80998 23.3854 4.71567 22.2915C3.62136 21.1975 3.0063 19.7138 3.00581 18.1667L3.00284 8.83333C3.00234 7.28624 3.61645 5.80251 4.71006 4.70854C5.80368 3.61458 7.28721 3 8.83431 3H18.1676ZM13.5028 8.83333C12.2652 8.83333 11.0783 9.325 10.2034 10.2002C9.32855 11.0753 8.83726 12.2623 8.83766 13.5C8.83805 14.7377 9.33009 15.9247 10.2055 16.7998C11.081 17.675 12.2681 18.1667 13.5058 18.1667C14.7435 18.1667 15.9303 17.675 16.8052 16.7998C17.6801 15.9247 18.1714 14.7377 18.171 13.5C18.1706 12.2623 17.6786 11.0753 16.8031 10.2002C15.9277 9.325 14.7405 8.83333 13.5028 8.83333ZM13.5036 11.1667C14.1224 11.1667 14.716 11.4125 15.1537 11.8501C15.5914 12.2877 15.8375 12.8812 15.8377 13.5C15.8379 14.1188 15.5922 14.7123 15.1548 15.1499C14.7173 15.5875 14.1239 15.8333 13.5051 15.8333C12.8862 15.8333 12.2927 15.5875 11.8549 15.1499C11.4172 14.7123 11.1712 14.1188 11.171 13.5C11.1708 12.8812 11.4164 12.2877 11.8539 11.8501C12.2913 11.4125 12.8847 11.1667 13.5036 11.1667ZM18.7523 7.08333C18.4429 7.08333 18.1462 7.20625 17.9274 7.42504C17.7087 7.64383 17.5859 7.94058 17.586 8.25C17.5861 8.55942 17.7091 8.85617 17.928 9.07496C18.1468 9.29375 18.4436 9.41667 18.753 9.41667C19.0624 9.41667 19.3591 9.29375 19.5779 9.07496C19.7966 8.85617 19.9194 8.55942 19.9193 8.25C19.9192 7.94058 19.7962 7.64383 19.5773 7.42504C19.3585 7.20625 19.0617 7.08333 18.7523 7.08333Z" fill="#FBF7E9"/>
</svg>
