<svg width="24" height="24" viewBox="0 0 24 24" fill="none" xmlns="http://www.w3.org/2000/svg">
<path d="M11.325 17.15H12.825V16.025H14.025C14.275 16.025 14.4792 15.925 14.6375 15.725C14.7958 15.525 14.875 15.3 14.875 15.05V12.175C14.875 11.9083 14.7958 11.6792 14.6375 11.4875C14.4792 11.2958 14.275 11.2 14.025 11.2H10.625V9.475H14.875V7.975H12.825V6.85H11.325V7.975H10.1C9.85 7.975 9.625 8.075 9.425 8.275C9.225 8.475 9.125 8.70833 9.125 8.975V11.825C9.125 12.0917 9.225 12.3042 9.425 12.4625C9.625 12.6208 9.85 12.7 10.1 12.7H13.375V14.525H9.125V16.025H11.325V17.15ZM3.5 20C3.1 20 2.75 19.85 2.45 19.55C2.15 19.25 2 18.9 2 18.5V5.5C2 5.1 2.15 4.75 2.45 4.45C2.75 4.15 3.1 4 3.5 4H20.5C20.9 4 21.25 4.15 21.55 4.45C21.85 4.75 22 5.1 22 5.5V18.5C22 18.9 21.85 19.25 21.55 19.55C21.25 19.85 20.9 20 20.5 20H3.5Z" fill="#500C08"/>
</svg>
