<svg width="40" height="40" viewBox="0 0 40 40" fill="none" xmlns="http://www.w3.org/2000/svg">
<path d="M20.0019 3C9.50562 3 1 9.74013 1 18.0591C1 23.4713 4.60401 28.2195 10.0139 30.8716C9.61729 32.3578 8.57382 36.2606 8.36589 37.0944C8.10791 38.129 8.74324 38.1174 9.15908 37.8395C9.48637 37.6194 14.3649 34.2918 16.4711 32.8596C17.6147 33.0295 18.7929 33.1183 19.9981 33.1183C30.4905 33.1183 39 26.3781 39 18.0591C39 9.74013 30.4944 3 20.0019 3Z" fill="#500C08"/>
<path d="M6.8779 15.8274H8.8589C8.8589 15.8274 8.8706 21.0514 8.8589 22.2684C8.8589 23.1559 10.9179 23.1672 10.9179 22.2797L10.9257 15.8948C10.9257 15.8948 11.5886 15.8986 12.895 15.8986C14.1273 15.8986 14.1273 14.0374 12.895 14.0374C11.5067 14.0374 6.8701 14 6.8701 14C5.70802 14 5.71192 15.8237 6.8701 15.8237" fill="white"/>
<mask id="mask0_5017_1983" style="mask-type:luminance" maskUnits="userSpaceOnUse" x="6" y="14" width="8" height="9">
<path d="M6.8779 15.8274H8.8589C8.8589 15.8274 8.8706 21.0514 8.8589 22.2684C8.8589 23.1559 10.9179 23.1672 10.9179 22.2797L10.9257 15.8948C10.9257 15.8948 11.5886 15.8986 12.895 15.8986C14.1273 15.8986 14.1273 14.0374 12.895 14.0374C11.5067 14.0374 6.8701 14 6.8701 14C5.70802 14 5.71192 15.8237 6.8701 15.8237" fill="white"/>
</mask>
<g mask="url(#mask0_5017_1983)">
<path d="M14.1302 14.0039H5.71094V23.1711H14.1302V14.0039Z" fill="white"/>
</g>
<path d="M16.3566 16.1645L17.4602 19.4823H15.1633L16.3566 16.1645ZM15.1204 14.6104C14.633 15.6402 12.8743 20.5084 12.2893 21.8003C11.8682 22.7328 13.6893 23.493 14.1104 22.5605L14.5082 21.2311H18.1309C18.1309 21.2311 18.0061 21.2873 18.4858 22.5043C18.8757 23.493 20.7593 22.8077 20.3654 21.8191C19.8078 20.4073 17.8852 15.3294 17.5343 14.6104C17.3744 14.2771 16.7934 14.0412 16.2318 14.0412C15.7678 14.0412 15.3115 14.206 15.1204 14.6104Z" fill="white"/>
<mask id="mask1_5017_1983" style="mask-type:luminance" maskUnits="userSpaceOnUse" x="12" y="14" width="9" height="9">
<path d="M16.3566 16.1645L17.4602 19.4823H15.1633L16.3566 16.1645ZM15.1204 14.6104C14.633 15.6402 12.8743 20.5084 12.2893 21.8003C11.8682 22.7328 13.6893 23.493 14.1104 22.5605L14.5082 21.2311H18.1309C18.1309 21.2311 18.0061 21.2873 18.4858 22.5043C18.8757 23.493 20.7593 22.8077 20.3654 21.8191C19.8078 20.4073 17.8852 15.3294 17.5343 14.6104C17.3744 14.2771 16.7934 14.0412 16.2318 14.0412C15.7678 14.0412 15.3115 14.206 15.1204 14.6104Z" fill="white"/>
</mask>
<g mask="url(#mask1_5017_1983)">
<path d="M20.7622 14.0412H11.8672V23.4967H20.7622V14.0412Z" fill="white"/>
</g>
<path d="M21.0664 14.9175C21.0664 16.5727 21.0781 21.9052 21.0781 21.9052C21.0781 21.9052 20.9182 22.9649 21.8658 22.9649C22.8134 22.9649 24.9114 22.9537 25.8434 22.9537C26.7754 22.9537 26.7676 21.0514 25.8395 21.0514C24.9114 21.0514 23.2112 21.0401 23.2112 21.0401C23.2112 21.0401 23.219 16.1083 23.2151 14.91C23.2151 14.3295 22.6769 14.0412 22.1427 14.0412C21.6085 14.0412 21.0703 14.3333 21.0703 14.9137" fill="white"/>
<mask id="mask2_5017_1983" style="mask-type:luminance" maskUnits="userSpaceOnUse" x="21" y="14" width="6" height="9">
<path d="M21.0664 14.9175C21.0664 16.5727 21.0781 21.9052 21.0781 21.9052C21.0781 21.9052 20.9182 22.9649 21.8658 22.9649C22.8134 22.9649 24.9114 22.9537 25.8434 22.9537C26.7754 22.9537 26.7676 21.0514 25.8395 21.0514C24.9114 21.0514 23.2112 21.0401 23.2112 21.0401C23.2112 21.0401 23.219 16.1083 23.2151 14.91C23.2151 14.3295 22.6769 14.0412 22.1427 14.0412C21.6085 14.0412 21.0703 14.3333 21.0703 14.9137" fill="white"/>
</mask>
<g mask="url(#mask2_5017_1983)">
<path d="M26.7713 14.0412H20.918V22.9612H26.7713V14.0412Z" fill="white"/>
</g>
<path d="M27.0195 14.6516C27.039 15.3781 26.9961 21.9351 26.9961 22.4219C26.9961 23.1896 29.0317 23.1859 29.0278 22.4219C29.0278 21.5307 29.0278 19.8418 29.0278 19.8418L29.6244 19.3812L32.2372 22.8039C32.7636 23.4742 34.4248 22.2647 33.8984 21.5943L31.1258 18.0855C31.1258 18.0855 33.0093 16.1308 33.7502 15.423C34.1831 15.0111 32.8416 13.7116 32.4087 14.1273C31.9876 14.528 29.0395 17.3628 29.0395 17.3628C29.0395 17.3628 29.0668 15.584 29.0395 14.5991C29.0278 14.2247 28.552 14.0449 28.0646 14.0449C27.542 14.0449 27.0078 14.2509 27.0195 14.6516Z" fill="white"/>
<mask id="mask3_5017_1983" style="mask-type:luminance" maskUnits="userSpaceOnUse" x="26" y="14" width="8" height="9">
<path d="M27.0195 14.6516C27.039 15.3781 26.9961 21.9351 26.9961 22.4219C26.9961 23.1896 29.0317 23.1859 29.0278 22.4219C29.0278 21.5307 29.0278 19.8418 29.0278 19.8418L29.6244 19.3812L32.2372 22.8039C32.7636 23.4742 34.4248 22.2647 33.8984 21.5943L31.1258 18.0855C31.1258 18.0855 33.0093 16.1308 33.7502 15.423C34.1831 15.0111 32.8416 13.7116 32.4087 14.1273C31.9876 14.528 29.0395 17.3628 29.0395 17.3628C29.0395 17.3628 29.0668 15.584 29.0395 14.5991C29.0278 14.2247 28.552 14.0449 28.0646 14.0449C27.542 14.0449 27.0078 14.2509 27.0195 14.6516Z" fill="white"/>
</mask>
<g mask="url(#mask3_5017_1983)">
<path d="M34.4287 13.7154H26.9961V23.4705H34.4287V13.7154Z" fill="white"/>
</g>
</svg>
