<svg width="32" height="32" viewBox="0 0 32 32" fill="none" xmlns="http://www.w3.org/2000/svg">
<path d="M16 25C14.77 25 13.6075 24.7638 12.5125 24.2912C11.4175 23.8187 10.4612 23.1737 9.64375 22.3562C8.82625 21.5387 8.18125 20.5825 7.70875 19.4875C7.23625 18.3925 7 17.23 7 16C7 14.755 7.23625 13.5887 7.70875 12.5012C8.18125 11.4138 8.82625 10.4612 9.64375 9.64375C10.4612 8.82625 11.4175 8.18125 12.5125 7.70875C13.6075 7.23625 14.77 7 16 7C17.245 7 18.4112 7.23625 19.4987 7.70875C20.5862 8.18125 21.5387 8.82625 22.3562 9.64375C23.1737 10.4612 23.8187 11.4138 24.2912 12.5012C24.7638 13.5887 25 14.755 25 16C25 17.23 24.7638 18.3925 24.2912 19.4875C23.8187 20.5825 23.1737 21.5387 22.3562 22.3562C21.5387 23.1737 20.5862 23.8187 19.4987 24.2912C18.4112 24.7638 17.245 25 16 25ZM16 23.155C16.39 22.615 16.7275 22.0525 17.0125 21.4675C17.2975 20.8825 17.53 20.26 17.71 19.6H14.29C14.47 20.26 14.7025 20.8825 14.9875 21.4675C15.2725 22.0525 15.61 22.615 16 23.155ZM13.66 22.795C13.39 22.3 13.1537 21.7863 12.9513 21.2537C12.7488 20.7213 12.58 20.17 12.445 19.6H9.79C10.225 20.35 10.7687 21.0025 11.4212 21.5575C12.0738 22.1125 12.82 22.525 13.66 22.795ZM18.34 22.795C19.18 22.525 19.9263 22.1125 20.5788 21.5575C21.2312 21.0025 21.775 20.35 22.21 19.6H19.555C19.42 20.17 19.2512 20.7213 19.0487 21.2537C18.8462 21.7863 18.61 22.3 18.34 22.795ZM9.025 17.8H12.085C12.04 17.5 12.0062 17.2037 11.9837 16.9112C11.9612 16.6187 11.95 16.315 11.95 16C11.95 15.685 11.9612 15.3813 11.9837 15.0887C12.0062 14.7962 12.04 14.5 12.085 14.2H9.025C8.95 14.5 8.89375 14.7962 8.85625 15.0887C8.81875 15.3813 8.8 15.685 8.8 16C8.8 16.315 8.81875 16.6187 8.85625 16.9112C8.89375 17.2037 8.95 17.5 9.025 17.8ZM13.885 17.8H18.115C18.16 17.5 18.1938 17.2037 18.2163 16.9112C18.2388 16.6187 18.25 16.315 18.25 16C18.25 15.685 18.2388 15.3813 18.2163 15.0887C18.1938 14.7962 18.16 14.5 18.115 14.2H13.885C13.84 14.5 13.8062 14.7962 13.7837 15.0887C13.7612 15.3813 13.75 15.685 13.75 16C13.75 16.315 13.7612 16.6187 13.7837 16.9112C13.8062 17.2037 13.84 17.5 13.885 17.8ZM19.915 17.8H22.975C23.05 17.5 23.1062 17.2037 23.1437 16.9112C23.1812 16.6187 23.2 16.315 23.2 16C23.2 15.685 23.1812 15.3813 23.1437 15.0887C23.1062 14.7962 23.05 14.5 22.975 14.2H19.915C19.96 14.5 19.9938 14.7962 20.0163 15.0887C20.0387 15.3813 20.05 15.685 20.05 16C20.05 16.315 20.0387 16.6187 20.0163 16.9112C19.9938 17.2037 19.96 17.5 19.915 17.8ZM19.555 12.4H22.21C21.775 11.65 21.2312 10.9975 20.5788 10.4425C19.9263 9.8875 19.18 9.475 18.34 9.205C18.61 9.7 18.8462 10.2137 19.0487 10.7462C19.2512 11.2787 19.42 11.83 19.555 12.4ZM14.29 12.4H17.71C17.53 11.74 17.2975 11.1175 17.0125 10.5325C16.7275 9.9475 16.39 9.385 16 8.845C15.61 9.385 15.2725 9.9475 14.9875 10.5325C14.7025 11.1175 14.47 11.74 14.29 12.4ZM9.79 12.4H12.445C12.58 11.83 12.7488 11.2787 12.9513 10.7462C13.1537 10.2137 13.39 9.7 13.66 9.205C12.82 9.475 12.0738 9.8875 11.4212 10.4425C10.7687 10.9975 10.225 11.65 9.79 12.4Z" fill="#4E0C0D"/>
</svg>
