<svg width="88" height="88" viewBox="0 0 88 88" fill="none" xmlns="http://www.w3.org/2000/svg">
<mask id="mask0_3062_2582" style="mask-type:alpha" maskUnits="userSpaceOnUse" x="0" y="0" width="88" height="88">
<rect width="88" height="88" fill="#F40202"/>
</mask>
<g mask="url(#mask0_3062_2582)">
<path d="M41.5237 62.8834H47.0237V58.7584H51.4237C52.3404 58.7584 53.089 58.3918 53.6695 57.6584C54.2501 56.9251 54.5404 56.1001 54.5404 55.1834V44.6417C54.5404 43.664 54.2501 42.8237 53.6695 42.1209C53.089 41.4181 52.3404 41.0667 51.4237 41.0667H38.957V34.7417H54.5404V29.2417H47.0237V25.1167H41.5237V29.2417H37.032C36.1154 29.2417 35.2904 29.6084 34.557 30.3417C33.8237 31.0751 33.457 31.9306 33.457 32.9084V43.3584C33.457 44.3362 33.8237 45.1154 34.557 45.6959C35.2904 46.2765 36.1154 46.5667 37.032 46.5667H49.0404V53.2584H33.457V58.7584H41.5237V62.8834ZM12.832 73.3334C11.3654 73.3334 10.082 72.7834 8.98203 71.6834C7.88203 70.5834 7.33203 69.3001 7.33203 67.8334V20.1667C7.33203 18.7001 7.88203 17.4167 8.98203 16.3167C10.082 15.2167 11.3654 14.6667 12.832 14.6667H75.1654C76.632 14.6667 77.9154 15.2167 79.0154 16.3167C80.1154 17.4167 80.6654 18.7001 80.6654 20.1667V67.8334C80.6654 69.3001 80.1154 70.5834 79.0154 71.6834C77.9154 72.7834 76.632 73.3334 75.1654 73.3334H12.832Z" fill="#F40202"/>
</g>
</svg>
