<svg width="20" height="20" viewBox="0 0 20 20" fill="none" xmlns="http://www.w3.org/2000/svg">
<mask id="mask0_1469_8675" style="mask-type:alpha" maskUnits="userSpaceOnUse" x="0" y="0" width="20" height="20">
<rect width="20" height="20" fill="#D9D9D9"/>
</mask>
<g mask="url(#mask0_1469_8675)">
<path d="M2.91675 14.1873C2.5973 14.1179 2.30911 13.9721 2.05216 13.7498C1.79522 13.5276 1.66675 13.2568 1.66675 12.9373V5.7915C1.66675 5.62484 1.70147 5.46859 1.77091 5.32275C1.84036 5.17692 1.9723 5.05539 2.16675 4.95817L8.83342 1.6665L15.2292 4.95817C15.3542 5.05539 15.4792 5.19775 15.6042 5.38525C15.7292 5.57275 15.8126 5.74289 15.8542 5.89567H14.3126L8.83342 3.06234L2.91675 5.99984V14.1873ZM4.79175 17.4998C4.44453 17.4998 4.14939 17.3783 3.90633 17.1353C3.66328 16.8922 3.54175 16.5971 3.54175 16.2498V7.77067C3.54175 7.42345 3.66328 7.12831 3.90633 6.88525C4.14939 6.6422 4.44453 6.52067 4.79175 6.52067H17.0834C17.4306 6.52067 17.7258 6.6422 17.9688 6.88525C18.2119 7.12831 18.3334 7.42345 18.3334 7.77067V16.2498C18.3334 16.5971 18.2119 16.8922 17.9688 17.1353C17.7258 17.3783 17.4306 17.4998 17.0834 17.4998H4.79175ZM10.9376 12.1248L17.0834 9.104V7.77067L10.9376 10.729L4.79175 7.77067V9.104L10.9376 12.1248Z" fill="#1C1B1F"/>
</g>
</svg>
