<svg width="48" height="48" viewBox="0 0 48 48" fill="none" xmlns="http://www.w3.org/2000/svg">
<mask id="mask0_1089_3740" style="mask-type:alpha" maskUnits="userSpaceOnUse" x="0" y="0" width="48" height="48">
<rect width="48" height="48" fill="#F40202"/>
</mask>
<g mask="url(#mask0_1089_3740)">
<path d="M22.55 38.3499H25.3V35.7499C27.3333 35.5165 28.9167 34.8915 30.05 33.8749C31.1833 32.8582 31.75 31.4999 31.75 29.7999C31.75 28.0999 31.2667 26.7165 30.3 25.6499C29.3333 24.5832 27.7 23.5665 25.4 22.5999C23.4667 21.7999 22.0667 21.0832 21.2 20.4499C20.3333 19.8165 19.9 18.9665 19.9 17.8999C19.9 16.8665 20.275 16.0499 21.025 15.4499C21.775 14.8499 22.8 14.5499 24.1 14.5499C25.1 14.5499 25.9667 14.7832 26.7 15.2499C27.4333 15.7165 28.05 16.4165 28.55 17.3499L30.95 16.1999C30.3833 15.0332 29.6333 14.1165 28.7 13.4499C27.7667 12.7832 26.6667 12.3832 25.4 12.2499V9.69988H22.65V12.2499C20.95 12.4832 19.6083 13.1082 18.625 14.1249C17.6417 15.1415 17.15 16.3999 17.15 17.8999C17.15 19.5332 17.65 20.8332 18.65 21.7999C19.65 22.7665 21.15 23.6665 23.15 24.4999C25.3833 25.4332 26.9167 26.2749 27.75 27.0249C28.5833 27.7749 29 28.6999 29 29.7999C29 30.8665 28.5583 31.7249 27.675 32.3749C26.7917 33.0249 25.6833 33.3499 24.35 33.3499C23.05 33.3499 21.8917 32.9832 20.875 32.2499C19.8583 31.5165 19.15 30.5165 18.75 29.2499L16.2 30.0999C16.9 31.6332 17.7583 32.8415 18.775 33.7249C19.7917 34.6082 21.05 35.2499 22.55 35.6499V38.3499ZM24 43.9999C21.2667 43.9999 18.6833 43.4749 16.25 42.4249C13.8167 41.3749 11.6917 39.9415 9.875 38.1249C8.05833 36.3082 6.625 34.1832 5.575 31.7499C4.525 29.3165 4 26.7332 4 23.9999C4 21.2332 4.525 18.6332 5.575 16.1999C6.625 13.7665 8.05833 11.6499 9.875 9.84988C11.6917 8.04988 13.8167 6.62488 16.25 5.57488C18.6833 4.52488 21.2667 3.99988 24 3.99988C26.7667 3.99988 29.3667 4.52488 31.8 5.57488C34.2333 6.62488 36.35 8.04988 38.15 9.84988C39.95 11.6499 41.375 13.7665 42.425 16.1999C43.475 18.6332 44 21.2332 44 23.9999C44 26.7332 43.475 29.3165 42.425 31.7499C41.375 34.1832 39.95 36.3082 38.15 38.1249C36.35 39.9415 34.2333 41.3749 31.8 42.4249C29.3667 43.4749 26.7667 43.9999 24 43.9999Z" fill="#F40202"/>
</g>
</svg>
