<svg width="48" height="48" viewBox="0 0 48 48" fill="none" xmlns="http://www.w3.org/2000/svg">
<mask id="mask0_1089_3745" style="mask-type:alpha" maskUnits="userSpaceOnUse" x="0" y="0" width="48" height="48">
<rect width="48" height="48" fill="#F40202"/>
</mask>
<g mask="url(#mask0_1089_3745)">
<path d="M24 44C23.2333 44 22.5133 43.8585 21.84 43.5755C21.167 43.2928 20.5703 42.8843 20.05 42.35C18.9833 41.2833 18.05 40.5917 17.25 40.275C16.45 39.9583 15.3 39.8 13.8 39.8C12.2443 39.8 10.9222 39.2555 9.8335 38.1665C8.7445 37.0778 8.2 35.7557 8.2 34.2C8.2 32.7 8.04167 31.55 7.725 30.75C7.40833 29.95 6.71667 29.0167 5.65 27.95C5.11567 27.4297 4.70717 26.833 4.4245 26.16C4.1415 25.4867 4 24.7667 4 24C4 23.2333 4.1415 22.5133 4.4245 21.84C4.70717 21.167 5.11567 20.5703 5.65 20.05C6.71667 18.9833 7.40833 18.0583 7.725 17.275C8.04167 16.4917 8.2 15.35 8.2 13.85C8.2 12.25 8.7445 10.9083 9.8335 9.825C10.9222 8.74167 12.2443 8.2 13.8 8.2C15.3 8.2 16.45 8.04167 17.25 7.725C18.05 7.40833 18.9833 6.71667 20.05 5.65C20.55 5.11667 21.1452 4.70833 21.8355 4.425C22.5255 4.14167 23.247 4 24 4C24.7667 4 25.4867 4.1415 26.16 4.4245C26.833 4.70717 27.4297 5.11567 27.95 5.65C29.0167 6.71667 29.9417 7.40833 30.725 7.725C31.5083 8.04167 32.65 8.2 34.15 8.2C35.75 8.2 37.0917 8.74167 38.175 9.825C39.2583 10.9083 39.8 12.25 39.8 13.85C39.8 15.35 39.9583 16.4917 40.275 17.275C40.5917 18.0583 41.2833 18.9833 42.35 20.05C42.8843 20.5703 43.2928 21.167 43.5755 21.84C43.8585 22.5133 44 23.2333 44 24C44 24.7667 43.8585 25.4867 43.5755 26.16C43.2928 26.833 42.8843 27.4297 42.35 27.95C41.2833 29.0167 40.5917 29.9375 40.275 30.7125C39.9583 31.4875 39.8 32.65 39.8 34.2C39.8 35.7557 39.2583 37.0778 38.175 38.1665C37.0917 39.2555 35.75 39.8 34.15 39.8C32.65 39.8 31.5083 39.9583 30.725 40.275C29.9417 40.5917 29.0167 41.2833 27.95 42.35C27.45 42.8833 26.8548 43.2917 26.1645 43.575C25.4745 43.8583 24.753 44 24 44ZM29.141 31.65C29.847 31.65 30.4417 31.4063 30.925 30.919C31.4083 30.4317 31.65 29.84 31.65 29.144C31.65 28.448 31.4063 27.85 30.919 27.35C30.4317 26.85 29.84 26.6 29.144 26.6C28.448 26.6 27.85 26.847 27.35 27.341C26.85 27.8353 26.6 28.4353 26.6 29.141C26.6 29.847 26.847 30.4417 27.341 30.925C27.8353 31.4083 28.4353 31.65 29.141 31.65ZM18.75 31.35L31.35 18.8L29.2 16.65L16.65 29.25L18.75 31.35ZM18.856 21.4C19.552 21.4 20.15 21.153 20.65 20.659C21.15 20.1647 21.4 19.5647 21.4 18.859C21.4 18.153 21.153 17.5583 20.659 17.075C20.1647 16.5917 19.5647 16.35 18.859 16.35C18.153 16.35 17.5583 16.5937 17.075 17.081C16.5917 17.5683 16.35 18.16 16.35 18.856C16.35 19.552 16.5937 20.15 17.081 20.65C17.5683 21.15 18.16 21.4 18.856 21.4Z" fill="#F40202"/>
</g>
</svg>
