<svg width="24" height="24" viewBox="0 0 24 24" fill="none" xmlns="http://www.w3.org/2000/svg">
<mask id="mask0_1018_10162" style="mask-type:alpha" maskUnits="userSpaceOnUse" x="0" y="0" width="24" height="24">
<rect width="24" height="24" fill="#D9D9D9"/>
</mask>
<g mask="url(#mask0_1018_10162)">
<path d="M4.5 3.50012V10.8251V10.7501V20.5001V3.50012ZM6.975 13.5001H11.6C11.7833 13.2168 11.9833 12.9501 12.2 12.7001C12.4167 12.4501 12.6583 12.2168 12.925 12.0001H6.975V13.5001ZM6.975 17.7501H10.875C10.825 17.5001 10.7875 17.2501 10.7625 17.0001C10.7375 16.7501 10.7333 16.5001 10.75 16.2501H6.975V17.7501ZM4.5 22.0001C4.1 22.0001 3.75 21.8501 3.45 21.5501C3.15 21.2501 3 20.9001 3 20.5001V3.50012C3 3.10012 3.15 2.75012 3.45 2.45012C3.75 2.15012 4.1 2.00012 4.5 2.00012H13.525L19 7.47512V11.3251C18.7667 11.2085 18.525 11.1085 18.275 11.0251C18.025 10.9418 17.7667 10.8751 17.5 10.8251V8.15012H12.775V3.50012H4.5V20.5001H12.375C12.7083 20.8501 13.0792 21.1501 13.4875 21.4001C13.8958 21.6501 14.3417 21.8501 14.825 22.0001H4.5ZM16.5 19.2501C17.2833 19.2501 17.9375 18.9876 18.4625 18.4626C18.9875 17.9376 19.25 17.2835 19.25 16.5001C19.25 15.7168 18.9875 15.0626 18.4625 14.5376C17.9375 14.0126 17.2833 13.7501 16.5 13.7501C15.7167 13.7501 15.0625 14.0126 14.5375 14.5376C14.0125 15.0626 13.75 15.7168 13.75 16.5001C13.75 17.2835 14.0125 17.9376 14.5375 18.4626C15.0625 18.9876 15.7167 19.2501 16.5 19.2501ZM21.6 22.6501L18.921 19.9751C18.5737 20.2085 18.1958 20.396 17.7875 20.5376C17.3792 20.6793 16.95 20.7501 16.5 20.7501C15.3195 20.7501 14.316 20.3366 13.4895 19.5096C12.6632 18.6826 12.25 17.6785 12.25 16.4971C12.25 15.3158 12.6635 14.3126 13.4905 13.4876C14.3175 12.6626 15.3217 12.2501 16.503 12.2501C17.6843 12.2501 18.6875 12.6633 19.5125 13.4896C20.3375 14.3161 20.75 15.3196 20.75 16.5001C20.75 16.9501 20.6792 17.3793 20.5375 17.7876C20.3958 18.196 20.2083 18.5738 19.975 18.9211L22.65 21.6001L21.6 22.6501Z" fill="#4E0C0D"/>
</g>
</svg>
