<svg width="42" height="61" viewBox="0 0 42 61" fill="none" xmlns="http://www.w3.org/2000/svg">
<path d="M18.4167 61C11.0833 61 4.5 58.4096 0 53.8973V37.937C5.08333 43.2849 12.1667 46.711 19.5 46.711C23.25 46.711 25.25 45.2069 25.25 42.7C25.25 40.7781 23.9167 39.7753 21.1667 38.6055L11.6667 34.511C4.33333 31.3356 0.333333 25.9041 0.333333 18.6342C0.333333 7.52055 9.58334 0 22.0833 0C28.8333 0 34.4167 1.83836 39.3333 5.43151V21.0575C35.0833 16.8795 27.4167 13.8712 22.5833 13.8712C18.9167 13.8712 17.0833 15.2082 17.0833 17.3808C17.0833 19.1356 18.1667 20.2219 20.5833 21.1411L30.9167 24.9849C38.1667 27.6589 42 33.2575 42 41.1959C42 53.563 32.8333 61 18.4167 61Z" fill="#F40202"/>
</svg>
