<svg width="32" height="32" viewBox="0 0 32 32" fill="none" xmlns="http://www.w3.org/2000/svg">
<mask id="mask0_267_2442" style="mask-type:alpha" maskUnits="userSpaceOnUse" x="4" y="4" width="24" height="24">
<rect x="4" y="4" width="24" height="24" fill="#D9D9D9"/>
</mask>
<g mask="url(#mask0_267_2442)">
<path d="M22.3568 23.5676L16.9081 18.1189C16.4757 18.4649 15.9784 18.7387 15.4162 18.9405C14.8541 19.1423 14.2559 19.2432 13.6216 19.2432C12.0505 19.2432 10.7207 18.6991 9.63243 17.6108C8.54414 16.5225 8 15.1928 8 13.6216C8 12.0505 8.54414 10.7207 9.63243 9.63243C10.7207 8.54414 12.0505 8 13.6216 8C15.1928 8 16.5225 8.54414 17.6108 9.63243C18.6991 10.7207 19.2432 12.0505 19.2432 13.6216C19.2432 14.2559 19.1423 14.8541 18.9405 15.4162C18.7387 15.9784 18.4649 16.4757 18.1189 16.9081L23.5676 22.3568L22.3568 23.5676ZM13.6216 17.5135C14.7027 17.5135 15.6216 17.1351 16.3784 16.3784C17.1351 15.6216 17.5135 14.7027 17.5135 13.6216C17.5135 12.5405 17.1351 11.6216 16.3784 10.8649C15.6216 10.1081 14.7027 9.72973 13.6216 9.72973C12.5405 9.72973 11.6216 10.1081 10.8649 10.8649C10.1081 11.6216 9.72973 12.5405 9.72973 13.6216C9.72973 14.7027 10.1081 15.6216 10.8649 16.3784C11.6216 17.1351 12.5405 17.5135 13.6216 17.5135Z" fill="#4E0C0D"/>
</g>
</svg>
