<svg width="24" height="24" viewBox="0 0 24 24" fill="none" xmlns="http://www.w3.org/2000/svg">
<path d="M14.7205 17.8017C14.2031 17.8017 13.7612 17.6193 13.3948 17.2544C13.0285 16.8894 12.8454 16.4494 12.8454 15.9345C12.8454 15.8557 12.8672 15.7082 12.9108 15.4921L8.7119 13.0313C8.53487 13.202 8.33765 13.3344 8.12025 13.4284C7.90284 13.5224 7.66703 13.5695 7.4128 13.5695C6.89174 13.5695 6.44886 13.3863 6.08416 13.0199C5.71946 12.6535 5.53711 12.2087 5.53711 11.6853C5.53711 11.162 5.71946 10.7172 6.08416 10.3508C6.44886 9.98442 6.89174 9.80124 7.4128 9.80124C7.66024 9.80124 7.89265 9.84702 8.11006 9.93859C8.32746 10.0302 8.52379 10.1567 8.69905 10.3182L12.9024 7.90501C12.8883 7.83186 12.8753 7.75619 12.8632 7.67801C12.8513 7.59993 12.8454 7.52215 12.8454 7.44466C12.8454 6.92734 13.0287 6.48402 13.3954 6.11469C13.7619 5.74526 14.204 5.56055 14.7215 5.56055C15.2389 5.56055 15.6808 5.74531 16.0472 6.11484C16.4136 6.48426 16.5968 6.92769 16.5968 7.4451C16.5968 7.96262 16.414 8.40451 16.0484 8.77079C15.6829 9.13716 15.239 9.32035 14.7168 9.32035C14.4717 9.32035 14.2411 9.27324 14.025 9.17901C13.8088 9.08488 13.6135 8.96116 13.4392 8.80786L9.21657 11.137C9.24611 11.2205 9.26826 11.3112 9.28303 11.4092C9.2978 11.5071 9.30518 11.5988 9.30518 11.684C9.30518 11.7693 9.30026 11.853 9.29041 11.9351C9.28057 12.0173 9.26304 12.0978 9.23784 12.1766L13.4457 14.5648C13.6201 14.4055 13.8151 14.28 14.0306 14.1881C14.2462 14.0963 14.4772 14.0503 14.7236 14.0503C15.2497 14.0503 15.6934 14.2329 16.0547 14.5981C16.4161 14.9633 16.5968 15.4068 16.5968 15.9285C16.5968 16.4502 16.4134 16.8928 16.0467 17.2564C15.6801 17.62 15.238 17.8017 14.7205 17.8017Z" fill="white"/>
</svg>
