<svg width="48" height="48" viewBox="0 0 48 48" fill="none" xmlns="http://www.w3.org/2000/svg">
<mask id="mask0_1089_3809" style="mask-type:alpha" maskUnits="userSpaceOnUse" x="0" y="0" width="48" height="48">
<rect width="48" height="48" fill="#D9D9D9"/>
</mask>
<g mask="url(#mask0_1089_3809)">
<path d="M7.45078 22C7.18411 21.7 7.05078 21.3417 7.05078 20.925C7.05078 20.5083 7.18411 20.15 7.45078 19.85L13.7508 13.6L10.9008 10.7L9.60078 12C9.30078 12.3 8.94245 12.45 8.52578 12.45C8.10911 12.45 7.75078 12.3 7.45078 12C7.18411 11.7333 7.05078 11.3917 7.05078 10.975C7.05078 10.5583 7.18411 10.2 7.45078 9.9L12.1508 5.2C12.4508 4.9 12.8091 4.75 13.2258 4.75C13.6424 4.75 14.0008 4.9 14.3008 5.2C14.5674 5.5 14.7008 5.85833 14.7008 6.275C14.7008 6.69167 14.5674 7.03333 14.3008 7.3L13.0008 8.65L15.8508 11.5L22.1508 5.15C22.4508 4.88333 22.8091 4.75 23.2258 4.75C23.6424 4.75 24.0008 4.88333 24.3008 5.15C24.5674 5.45 24.7008 5.80833 24.7008 6.225C24.7008 6.64167 24.5674 7 24.3008 7.3L22.6008 9L26.9008 13.25L21.2008 18.85C20.9341 19.15 20.8008 19.5083 20.8008 19.925C20.8008 20.3417 20.9341 20.6833 21.2008 20.95C21.5008 21.25 21.8591 21.4 22.2758 21.4C22.6924 21.4 23.0508 21.25 23.3508 20.95L28.9508 15.35L33.2508 19.6L27.6008 25.2C27.3008 25.5 27.1508 25.8583 27.1508 26.275C27.1508 26.6917 27.3008 27.05 27.6008 27.35C27.8674 27.6167 28.2091 27.75 28.6258 27.75C29.0424 27.75 29.3841 27.6 29.6508 27.3L35.3008 21.65L39.5508 25.9C40.1508 26.4667 40.4425 27.175 40.4258 28.025C40.4091 28.875 40.1175 29.5833 39.5508 30.15L37.0508 32.65L45.6508 41.25H41.4508L34.9508 34.75L32.4508 37.25C31.8841 37.8167 31.1841 38.1 30.3508 38.1C29.5174 38.1 28.8008 37.8167 28.2008 37.25L11.3008 20.3L9.60078 22C9.30078 22.3 8.94245 22.45 8.52578 22.45C8.10911 22.45 7.75078 22.3 7.45078 22Z" fill="#F40202"/>
</g>
</svg>
