<svg width="24" height="24" viewBox="0 0 24 24" fill="none" xmlns="http://www.w3.org/2000/svg">
<mask id="mask0_1018_10140" style="mask-type:alpha" maskUnits="userSpaceOnUse" x="0" y="0" width="24" height="24">
<rect width="24" height="24" fill="#D9D9D9"/>
</mask>
<g mask="url(#mask0_1018_10140)">
<path d="M16.15 12.5998L12.05 8.59976C11.5613 8.13742 11.1475 7.62501 10.8085 7.06251C10.4695 6.50001 10.3 5.88742 10.3 5.22476C10.3 4.34142 10.5917 3.58309 11.175 2.94976C11.7583 2.31642 12.4833 1.99976 13.35 1.99976C13.9167 1.99976 14.4333 2.14559 14.9 2.43726C15.3667 2.72892 15.7833 3.09142 16.15 3.52476C16.5167 3.09142 16.9333 2.72892 17.4 2.43726C17.8667 2.14559 18.3833 1.99976 18.95 1.99976C19.8167 1.99976 20.5417 2.31642 21.125 2.94976C21.7083 3.58309 22 4.34142 22 5.22476C22 5.88576 21.8292 6.49684 21.4875 7.05801C21.1458 7.61917 20.7333 8.13309 20.25 8.59976L16.15 12.5998ZM16.15 10.5248L19.15 7.54976C19.4853 7.21892 19.7942 6.86626 20.0765 6.49176C20.3588 6.11726 20.5 5.69492 20.5 5.22476C20.5 4.75809 20.3542 4.35392 20.0625 4.01226C19.7708 3.67059 19.4 3.49976 18.95 3.49976C18.6167 3.49976 18.3083 3.59142 18.025 3.77476C17.7417 3.95809 17.4917 4.18309 17.275 4.44976L16.15 5.82476L15.025 4.44976C14.8083 4.18309 14.5583 3.95809 14.275 3.77476C13.9917 3.59142 13.6833 3.49976 13.35 3.49976C12.9 3.49976 12.5292 3.67059 12.2375 4.01226C11.9458 4.35392 11.8 4.75809 11.8 5.22476C11.8 5.69492 11.9412 6.11726 12.2235 6.49176C12.5058 6.86626 12.8147 7.21892 13.15 7.54976L16.15 10.5248ZM6.375 18.9998L14.05 21.2498L20.25 19.2998C20.25 18.9664 20.1208 18.6873 19.8625 18.4623C19.6042 18.2373 19.3 18.1248 18.95 18.1248H13.725C13.4583 18.1248 13.1958 18.1039 12.9375 18.0623C12.6792 18.0206 12.425 17.9581 12.175 17.8748L9.775 17.1498L10.25 15.6248L12.6 16.4248C12.7833 16.4914 12.9708 16.5414 13.1625 16.5748C13.3542 16.6081 13.5417 16.6248 13.725 16.6248H15.125C15.125 16.2748 15.0083 15.9706 14.775 15.7123C14.5417 15.4539 14.2583 15.2581 13.925 15.1248L8.475 13.0498H6.375V18.9998ZM1 21.9998V11.5498H8.45C8.53883 11.5498 8.62775 11.5581 8.71675 11.5748C8.80558 11.5914 8.89167 11.6164 8.975 11.6498L14.425 13.6998C15.0583 13.9331 15.5958 14.3081 16.0375 14.8248C16.4792 15.3414 16.7 15.9414 16.7 16.6248H18.95C19.7972 16.6248 20.5173 16.9331 21.1105 17.5498C21.7035 18.1664 22 18.8998 22 19.7498V20.3998L14.175 22.7998L6.375 20.5748V21.9998H1ZM2.5 20.4998H4.85V13.0498H2.5V20.4998Z" fill="#1C1B1F"/>
</g>
</svg>
