<svg width="36" height="36" viewBox="0 0 36 36" fill="none" xmlns="http://www.w3.org/2000/svg">
<mask id="mask0_3313_2350" style="mask-type:alpha" maskUnits="userSpaceOnUse" x="6" y="6" width="24" height="24">
<rect x="6" y="6" width="24" height="24" fill="#4E0C0D"/>
</mask>
<g mask="url(#mask0_3313_2350)">
<path d="M9 27V21H11V23.6L14.1 20.5L15.5 21.9L12.4 25H15V27H9ZM21 27V25H23.6L20.5 21.9L21.9 20.5L25 23.6V21H27V27H21ZM14.1 15.5L11 12.4V15H9V9H15V11H12.4L15.5 14.1L14.1 15.5ZM21.9 15.5L20.5 14.1L23.6 11H21V9H27V15H25V12.4L21.9 15.5ZM18 20C17.45 20 16.9792 19.8042 16.5875 19.4125C16.1958 19.0208 16 18.55 16 18C16 17.45 16.1958 16.9792 16.5875 16.5875C16.9792 16.1958 17.45 16 18 16C18.55 16 19.0208 16.1958 19.4125 16.5875C19.8042 16.9792 20 17.45 20 18C20 18.55 19.8042 19.0208 19.4125 19.4125C19.0208 19.8042 18.55 20 18 20Z" fill="#500C08"/>
</g>
</svg>
