<svg width="1920" height="1910" viewBox="0 0 1920 1910" fill="none" xmlns="http://www.w3.org/2000/svg">
<path d="M1916.79 425.456C1894.16 528.607 1873.22 630.644 1860.86 735.624C1859.66 745.886 1859.97 758.111 1859.34 768.595L1856.93 766.275C1844.75 659.198 1824.48 554.261 1809.22 447.897C1799.13 377.672 1793.33 307.269 1785.21 236.865C1781.01 200.682 1777.35 165.346 1774.23 128.984C1771.01 92.0423 1766.64 55.0558 1763.47 18.2032C1762.93 12.2693 1763.78 5.97851 1763.47 0H1678.71C1662.15 70.4929 1639.97 139.513 1610.29 205.946L1593.01 256.897L1584.58 197.112C1573.11 149.329 1570.21 99.4039 1564.63 50.9512C1562.66 33.9526 1560.79 16.9986 1559 0H1395.91C1397.25 17.9355 1404.04 34.0864 1409.08 50.9958C1412.52 62.4174 1415.15 75.4006 1419.3 86.733C1420.82 90.8377 1426 95.7454 1425.42 100.296C1371.54 213.308 1334.36 334.217 1309.01 456.776C1290.18 547.703 1274.69 643.627 1267.59 736.829C1266.7 748.251 1269.2 760.118 1265.54 771.272C1263.26 771.272 1259.87 730.494 1259.29 726.166C1244.47 618.107 1224.43 512.323 1210.77 404.531C1195.55 284.158 1183.86 163.294 1174.31 42.5634C1173.19 28.4202 1170.78 14.1878 1170.25 0H1094.68C1076.2 66.7898 1053.08 131.973 1024.92 193.766C1023.54 196.8 1024.21 202.065 1020.46 203.492C1020.32 201.574 1020.81 199.343 1020.37 197.514C1016.31 180.605 1014.79 168.38 1012.2 151.694C1004.34 101.189 997.514 50.6389 991.266 0.0446157H806.751C806.662 4.2385 806.617 8.34314 807.108 12.4924C809.563 32.2572 818.088 56.7066 821.926 77.3637C823.087 83.5207 831.165 97.7977 830.764 103.107C830.496 106.587 816.481 132.687 813.848 138.844C762.207 260.288 731.766 384.9 707.977 513.84C694.631 586.072 683.161 652.639 677.001 726.032C675.751 741.068 673.475 756.237 672.27 771.317C662.317 706.312 654.595 640.861 644.731 575.945C640.134 545.651 634.376 515.892 629.824 485.509C607.105 333.681 592.912 180.114 581.039 26.3679C580.37 17.6232 578.54 8.7893 578.361 0H465.26C456.244 117.875 440.22 235.125 422.322 352.375L415.002 378.788L398.845 336.894C360.326 227.317 331.181 114.529 312.256 0H209.465L223.569 59.5174C228.077 65.2282 226.024 71.296 227.631 77.0514C229.282 83.0299 236.959 98.5562 236.513 103.152C217.187 140.272 202.859 179.846 189.157 219.42C172.419 267.784 156.574 317.843 143.988 367.411C112.967 489.479 90.606 615.34 81.1437 740.889C80.385 750.928 81.3223 761.234 79.7601 771.272C76.6804 771.451 77.3499 771.763 77.0375 769.265C76.0555 760.877 76.725 750.348 75.6092 742.317C73.6453 728.129 69.8068 712.826 67.5751 697.656C51.5517 588.392 26.3784 482.118 14.7737 372.229C13.2115 357.238 7.7216 343.184 4.32945 328.64C2.81191 322.126 7.63233 308.473 0 306.644V652.416C2.54411 653.442 3.25825 656.431 3.74922 658.841C19.8173 742.584 35.9746 824.499 41.9109 909.76C47.5793 991.362 50.2127 1077.83 47.2669 1159.56C43.2499 1271.24 28.6994 1381.44 15.0415 1492.08C11.203 1523.36 8.88207 1554.41 2.99045 1585.38C2.54411 1587.65 2.85655 1590.37 0 1591.18V1909.96H289.181C284.673 1877.12 279.763 1844.5 274.496 1811.85C273.648 1806.54 273.827 1800.07 272.845 1794.58C267.533 1763.75 263.427 1771.87 273.648 1739.79C283.2 1709.85 294.67 1679.96 303.686 1649.62C343.276 1516.36 348.766 1379.43 371.172 1242.99C371.753 1239.34 374.074 1210.25 376.261 1210.29C378.001 1223.45 376.261 1236.97 376.885 1250.22C381.036 1342.8 410.405 1453.8 435.355 1542.95C458.118 1624.19 490.969 1703.43 513.107 1784.01C519.891 1808.68 524.622 1832.9 533.995 1856.33C537.254 1864.45 539.485 1872.3 542.163 1880.55C545.466 1890.59 549.974 1898.58 549.885 1910H880.932L872.674 1840.62C870.666 1820.01 865.444 1799.71 862.186 1779.5C858.436 1756.12 866.426 1748.22 873.433 1727.61C915.121 1605.63 940.16 1478.52 952.524 1350.12C956.362 1310.05 958.773 1270.12 964.843 1230.06C965.869 1223.45 967.476 1216.67 969.395 1210.29C970.69 1210.29 969.886 1229.97 970.065 1232.55C976.938 1332.4 994.301 1428.91 1022.33 1524.74C1036.12 1571.86 1053.44 1619.11 1068.35 1665.15C1090.44 1733.59 1112.53 1802.25 1134.54 1870.52C1138.82 1883.77 1143.82 1897.11 1149.09 1910H1474.07C1475.81 1899.65 1471.57 1890.46 1470.14 1880.82C1465.27 1847.98 1459.47 1815.01 1455.32 1782.18C1451.62 1752.82 1459.87 1743.23 1468.71 1717.57C1485.81 1667.87 1505.22 1609.11 1515.62 1557.8C1536.37 1455.23 1540.35 1349.76 1557.49 1247.1C1558.29 1242.41 1560.74 1209.58 1562.57 1208.95C1565.65 1207.88 1564.49 1211.99 1564.58 1213.68C1568.29 1294.84 1578.33 1375.01 1597.43 1453.71C1616.89 1533.93 1647.96 1613.13 1672.28 1692.23C1675.63 1703.12 1677.15 1714.76 1680.72 1725.65C1687.68 1746.93 1699.2 1767.01 1705.76 1788.42C1712.23 1809.53 1715.04 1831.39 1722.63 1852.62C1723.7 1855.61 1726.25 1858.07 1727.41 1861.37C1732.9 1877.43 1737.9 1893.76 1742.98 1909.96H1920V416.042C1917.77 417.202 1917.14 423.002 1916.61 425.456M233.523 1557.76L216.249 1608.71L207.814 1548.92C196.343 1501.14 193.442 1451.22 187.818 1402.76C182.908 1360.42 178.623 1318.13 174.294 1275.79C153.495 1071.09 168.447 869.65 200.315 666.916C225.444 566.085 248.921 463.558 290.296 367.812C290.653 367.009 293.956 358.131 295.965 360.674C294.046 371.694 298.197 381.242 299.669 391.414C324.62 562.515 346.133 732.546 345.999 905.744C345.821 1126.68 324.262 1354.31 233.478 1557.8M594.518 1597.15L587.199 1623.57L571.041 1581.67C512.928 1416.46 476.061 1243.89 463.519 1069.17C456.422 970.705 455.53 866.304 462.18 767.926C468.384 676.241 485.122 586.162 502.395 496.127C507.974 467.082 515.963 438.662 521.543 409.929C522.48 405.2 521.944 398.24 522.971 393.109C526.676 395.742 525.827 401.765 527.702 406.628C530.916 414.926 537.477 424.786 541.226 433.665C602.106 578.711 629.913 762.572 640.625 919.174C656.247 1148.19 628.797 1372.69 594.518 1597.2M935.117 1090.72C921.593 1262.54 882.717 1440.82 811.214 1597.65C809.831 1600.68 810.5 1605.94 806.751 1607.37C806.617 1605.45 807.108 1603.22 806.662 1601.39C802.6 1584.48 801.082 1572.26 798.449 1555.53C788.585 1492.08 780.283 1428.6 772.829 1365.02C755.735 1219.17 747.745 1077.69 758.1 929.971C766.938 803.842 786.576 678.115 820.944 556.492C836.075 502.998 851.518 443.971 871.871 392.619C875.977 382.312 883.565 373.568 884.413 361.923C889.814 368.972 887.939 379.948 889.278 388.112C927.708 623.55 953.952 850.376 935.072 1090.63M1196 1548.7L1186.45 1626.24L1178.68 1617.14C1085.84 1377.29 1045.05 1117.62 1049.91 859.656C1052.73 711.353 1071.83 554.975 1110.39 412.249C1112 406.271 1113.52 399.311 1113.52 393.065C1117.44 395.519 1116.86 401.899 1118.65 406.182C1146.86 474.399 1167.43 527.492 1185.73 599.814C1263.35 906.369 1243.67 1239.25 1196.04 1548.7M1532.4 959.729C1530.93 1005.37 1529.32 1052.04 1525.66 1097.5C1517.9 1193.65 1504.91 1288.15 1479.6 1381.04C1458.53 1458.44 1428.72 1533 1402.65 1608.71C1399.89 1607.46 1399.57 1601.08 1398.99 1598.18C1385.47 1527.02 1377.3 1453.13 1367.39 1381.21C1345.03 1219.26 1343.25 1047.71 1355.34 884.016C1367.75 715.726 1404.48 556.537 1463.09 398.731C1467.64 386.462 1474.11 374.683 1477.64 361.968C1480.05 364.511 1480.27 368.928 1480.85 372.274C1485.22 397.972 1486.83 424.296 1490.85 450.084C1494.96 476.541 1501.34 503.623 1505.18 530.303C1511.87 577.06 1515.35 623.862 1520.26 670.575C1524.37 709.837 1528.97 746.02 1531.06 785.416C1534.14 843.907 1534.32 901.327 1532.45 959.64M1831.05 1131.32C1829.48 1195.3 1822.16 1257.27 1816.27 1320.49C1807.57 1413.56 1796.59 1505.92 1784.89 1598.45C1784.45 1601.79 1781.15 1623.61 1778.96 1623.57C1759.36 1586.71 1747.98 1546.34 1735.08 1506.72C1710.62 1431.59 1690.99 1360.6 1677.24 1282.21C1655.64 1158.94 1644.92 1036.96 1643.09 911.009C1642.6 877.012 1642.16 842.345 1644.52 808.437C1653.58 679.632 1670.36 551.004 1700.58 425.5C1701.92 419.968 1705.54 413.186 1706.34 408.323C1707.1 403.817 1706.12 399.311 1706.65 395.117C1706.96 392.663 1706.21 392.931 1709.33 393.109C1709.82 408.591 1720 422.823 1725.8 436.788C1758.78 516.204 1779.4 593.3 1795.47 677.802C1823.86 827.31 1834.75 979.003 1831 1131.32" fill="#F7CAB0"/>
</svg>
