<svg width="1920" height="398" viewBox="0 0 1920 398" fill="none" xmlns="http://www.w3.org/2000/svg">
<path d="M1461.39 222.711C1508.24 206.364 1599.87 166.123 1632.52 202.168C1649.58 221.021 1636.83 238.185 1626.28 247.597C1623.92 249.724 1625.61 254.182 1628.73 253.716C1646.13 251.093 1678.41 244.187 1705.46 226.878C1744.7 201.818 1769.77 184.393 1811.17 199.662C1836.65 209.045 1847.29 220.904 1851.69 228.655C1853.39 231.627 1858.46 232.968 1860.94 230.637C1869.54 222.478 1885.22 208.812 1895.07 207.297C1909.19 205.119 1919.81 207.282 1919.88 207.297V344.922C1919.77 345.019 1897.14 364.521 1849.3 360.161C1816.33 357.16 1795.22 334.606 1785.25 320.794C1783.39 318.23 1777.56 319.541 1776.86 322.63C1773.8 336.354 1764.93 356.985 1739.25 361.239C1700.01 367.766 1696.74 331.838 1647.71 336.209C1598.67 340.58 1550.72 358.879 1500.6 350.167C1466.67 344.281 1452.24 314.296 1446.46 295.501C1445.5 292.325 1439.12 292.005 1437.92 295.094C1429.56 316.861 1410.11 355.47 1375.3 363.221C1326.27 374.119 1300.12 347.952 1277.23 353.401C1260.44 357.393 1250.7 382.511 1246.68 395.595C1245.86 398.275 1241.72 398.859 1240.09 396.615C1231.05 384.114 1207.76 358.588 1166.07 354.509C1110.5 349.06 1100.68 380.646 1038.58 376.305C976.541 371.967 966.679 311.054 966.661 310.945C966.608 311.056 950.247 344.718 914.36 344.718C878.429 344.717 839.205 299.004 839.175 298.969C839.175 298.969 869.698 358.18 805.386 369.078C741.103 379.976 733.465 340.755 680.057 339.677C640.671 338.861 609.593 373.623 595.979 391.923C594.084 394.487 588.399 392.797 587.962 389.621C585.571 371.963 575.076 342.737 531.842 341.862C478.433 340.784 479.541 379.977 402.168 381.055C324.971 382.133 321.559 304.768 283.66 297.92C283.485 297.92 283.34 297.92 283.369 298.124C283.486 302.38 298.294 363.979 226.754 383.939C152.762 404.596 111.378 347.082 111.249 346.903C111.249 346.903 88.3632 371.467 57.8398 379.102C27.4046 386.699 0.0535679 374.726 0 374.702V220.06C0.0267005 220.04 26.2789 200.451 50.2305 204.819C68.5387 208.141 89.3834 236.524 98.2168 249.753C99.762 252.055 103.786 251.414 104.689 248.791C109.879 233.988 126.03 203.799 170.08 212.949C227.832 224.925 223.488 242.352 256.169 241.273C288.85 240.195 328.09 209.686 366.223 219.477C393.626 226.528 400.244 263.943 401.76 284.457C401.935 286.759 406.454 287.604 407.445 285.535C416.891 266.099 439.339 230.666 477.354 231.453C529.655 232.531 584.142 247.8 615.744 235.795C647.346 223.819 685.479 204.208 724.719 213.999C763.959 223.79 765.038 243.4 831.507 230.346C872.963 222.187 886.869 206.014 891.476 194.971C891.709 194.388 896.957 194.038 897.277 194.621C904.653 207.734 926.897 225.684 993.891 208.579C1091.85 183.548 1102.84 253.088 1102.87 253.249C1102.95 253.149 1130.17 220.606 1180.24 234.717C1212.63 243.866 1220.91 264.847 1222.71 278.542C1222.8 279.183 1227.03 279.941 1227.29 279.329C1234.05 264.818 1249.13 242.643 1277.23 245.586C1318.1 249.899 1378.1 258.436 1394.31 201.031C1394.69 199.72 1395.68 199.342 1396.5 200.449C1401.92 207.938 1420.4 237.018 1461.39 222.711Z" fill="#FDEEE6"/>
<path d="M1920 119.121C1920 119.121 1883.47 128.096 1842.6 117.489C1813.47 109.913 1795.98 91.9926 1788.34 82.3184C1786.07 79.4336 1781.11 79.1713 1778.34 81.5898C1770.47 88.4376 1753.65 98.6068 1724.94 95.4307C1672.9 89.7193 1643.22 62.7659 1617.86 67.6611C1592.52 72.5565 1576.98 106.038 1502.61 101.958C1428.24 97.8783 1417.63 43.1261 1389 41.4941C1389.82 41.4999 1367.75 88.0586 1314.63 88.0586C1261.52 88.0585 1238.63 35.5784 1183.88 42.1348C1133.97 48.0792 1130.91 100.181 1110.33 117.402C1107.85 119.471 1104.41 116.935 1104.21 113.701C1103.36 99.9183 1093.57 71.7117 1029.37 64.9805C943.543 56.0056 954.184 100.093 906.781 99.3066C876.579 98.7821 866.608 78.035 863.372 63.0283C862.876 60.7263 856.928 59.8229 855.879 61.9209C845.442 82.9304 820.429 120.17 773.58 121.336C708.189 122.968 680.406 77.2183 619.126 79.666C572.889 81.5019 538.284 121.015 524.087 140.306C522.221 142.841 515.282 141.442 513.883 138.615C510.005 130.66 501.289 120.199 481.844 111.545C445.082 95.1978 431.992 102.57 408.29 78.8799C396.337 66.933 391.236 54.1699 389.137 44.4375C388.874 43.2136 381.644 41.9023 381.003 42.9805C376.892 49.6242 370.478 57.696 360.741 65.5635C338.701 83.3382 305.525 92.8957 279.171 87.8838C239.639 80.3658 216.259 40.5029 216.259 40.5029C216.259 40.5029 198.271 93.5946 126.35 102.599C76.5562 108.805 58.102 94.2942 51.4551 84.7656C51.1042 84.2417 47.6656 84.9995 47.5781 85.6113C46.7035 93.3915 43.8458 104.726 34.7793 110.787C20.0916 120.555 0.152437 108.397 0.0585938 108.34V0H1920V119.121Z" fill="#FDEEE6"/>
</svg>
