<svg width="360" height="628" viewBox="0 0 360 628" fill="none" xmlns="http://www.w3.org/2000/svg">
<path d="M262.462 414.128C273.172 414.273 285.88 416.685 294.34 425.682C294.558 425.899 294.757 426.117 294.957 426.335C299.169 431.069 301.891 435.912 303.598 440.501C304.505 442.95 305.142 445.308 305.541 447.575C307.442 458.066 304.703 465.924 304.688 465.968C304.744 465.991 325.753 474.46 331.028 490.11C333.207 496.604 333.824 502.59 333.606 507.868C344.265 507.525 352.218 504.17 352.268 504.149C352.268 504.149 355.014 507.746 360 511.852V527.709C351.677 521.466 340.809 519.739 331.555 519.677C329.633 526.033 327.025 529.786 327.017 529.798C327.087 529.867 342.466 544.991 342.883 565.839C342.955 569.34 342.629 572.514 341.993 575.398C337.177 597.398 314.498 602.219 314.382 602.243L314.708 602.878C315.95 605.424 320.209 615.41 317.613 628H86.8164C85.325 625.096 83.3995 622.138 80.9072 619.203C80.6713 618.931 80.4361 618.659 80.2002 618.387C71.5954 608.701 58.2518 606.252 47.1963 606.18C45.2755 612.535 42.6676 616.287 42.6582 616.301C42.6875 616.33 47.1464 620.713 51.3311 628H0V505.072C3.92021 506.904 7.55737 509.426 10.5986 512.856C10.8346 513.128 11.0707 513.401 11.3066 513.673C14.5379 517.5 16.8439 521.346 18.4414 525.082C19.8209 528.256 20.6919 531.357 21.2002 534.241C23.07 544.689 20.3291 552.489 20.3291 552.489C20.3765 552.508 41.393 560.996 46.6699 576.649C48.812 582.98 49.4472 588.857 49.2656 594.045C60.2667 593.827 68.5449 590.308 68.5449 590.308C68.5449 590.308 72.5023 595.496 79.5459 600.521C85.6455 604.874 94.0692 609.099 104.271 609.771C126.274 611.203 138.891 589.22 138.891 589.22C138.944 589.266 154.457 602.88 181.115 593.537C206.748 584.558 205.278 555.699 205.278 555.699C205.283 555.7 205.446 555.736 205.75 555.79C208.818 556.425 226.555 559.128 241.005 539.103C250.118 526.496 250.19 514.344 248.61 506.29C247.703 501.737 246.287 498.49 245.651 497.202L245.325 496.567C245.411 496.549 268.099 491.737 272.937 469.723C273.572 466.839 273.899 463.665 273.826 460.164C273.427 439.268 257.96 424.122 257.96 424.122C257.973 424.104 260.542 420.407 262.462 414.128Z" fill="white"/>
<path d="M124.984 202.74C135.604 202.922 148.167 205.37 156.554 214.276C156.771 214.494 156.971 214.712 157.171 214.947C161.382 219.699 164.105 224.543 165.83 229.132C166.738 231.581 167.355 233.939 167.772 236.188C169.697 246.709 166.92 254.581 166.92 254.581C167.036 254.628 187.993 263.113 193.261 278.723C195.457 285.234 196.074 291.257 195.838 296.554C206.676 296.263 214.791 292.835 214.791 292.835C214.818 292.87 218.391 297.569 224.812 302.34C230.966 306.929 239.752 311.59 250.499 312.298C272.501 313.749 285.118 291.765 285.118 291.765C285.181 291.82 300.693 305.44 327.343 296.082C352.976 287.085 351.506 258.244 351.506 258.244C351.512 258.246 351.675 258.299 351.978 258.335C353.068 258.567 356.01 259.055 360 258.688V401.203C355.995 399.321 353.884 397.458 353.884 397.458C353.884 397.458 341.267 419.442 319.265 417.991C308.645 417.302 299.967 412.749 293.831 408.215C287.251 403.374 283.587 398.551 283.557 398.511C283.544 398.516 275.434 401.957 264.604 402.229C264.84 396.932 264.223 390.91 262.026 384.398C256.744 368.727 235.686 360.256 235.686 360.256C235.704 360.204 238.439 352.349 236.539 341.863C236.122 339.614 235.504 337.238 234.597 334.789C232.89 330.2 230.167 325.357 225.955 320.623C225.755 320.405 225.556 320.188 225.338 319.971C216.951 311.065 204.407 308.597 193.787 308.416C191.845 314.728 189.267 318.465 189.267 318.465C189.291 318.488 204.734 333.627 205.133 354.506C205.205 358.007 204.879 361.181 204.243 364.065C199.403 386.09 176.697 390.896 176.632 390.91L176.958 391.545C177.557 392.76 178.864 395.717 179.754 399.853C181.497 407.888 181.715 420.404 172.312 433.428C157.861 453.453 140.125 450.75 137.057 450.115C136.754 450.062 136.591 450.026 136.585 450.024C136.59 450.131 138.008 478.881 112.423 487.861C85.7189 497.239 70.1973 483.544 70.1973 483.544C70.1973 483.544 57.5803 505.528 35.5781 504.077C24.9583 503.388 16.2805 498.835 10.1445 494.301C4.2559 489.969 0.703731 485.65 0 484.762V380.029C0.917666 378.716 1.39038 377.894 1.39453 377.887C1.39453 377.887 16.9162 391.582 43.6201 382.204C69.1958 373.227 67.7886 344.495 67.7822 344.367C67.7822 344.367 67.9463 344.421 68.2549 344.457C71.3234 345.11 89.0406 347.794 103.509 327.77C113.021 314.583 112.676 301.904 110.879 293.887C109.989 289.915 108.737 287.067 108.156 285.87L107.829 285.235C107.829 285.235 130.613 280.446 135.441 258.39C136.077 255.506 136.404 252.332 136.331 248.831C135.914 227.967 120.511 212.834 120.465 212.789C120.493 212.749 123.053 209.036 124.984 202.74Z" fill="white"/>
<path d="M360 14.9658C353.501 12.2509 346.353 11.3037 339.905 11.1963C337.988 17.5035 335.404 21.218 335.385 21.2451C335.385 21.2451 350.833 36.3914 351.251 57.2871C351.324 60.5882 351.033 63.5991 350.471 66.3379C345.878 88.8298 322.75 93.6914 322.75 93.6914L323.077 94.3262C323.658 95.5053 324.91 98.3531 325.8 102.325C327.615 110.342 327.96 123.021 318.43 136.208C303.98 156.232 286.245 153.531 283.176 152.896C282.867 152.841 282.703 152.787 282.703 152.787C282.709 152.902 284.123 181.645 258.541 190.624C231.837 200.002 216.315 186.307 216.315 186.307C216.315 186.307 203.698 208.309 181.696 206.858C170.931 206.169 162.145 201.488 155.991 196.899C149.581 192.136 146.009 187.445 145.971 187.396C145.971 187.396 137.855 190.823 127.018 191.113C127.254 185.817 126.637 179.795 124.44 173.283C119.172 157.655 98.2158 149.17 98.0996 149.123C98.0996 149.123 100.876 141.251 98.9521 130.73C98.5346 128.481 97.9174 126.105 97.0098 123.656V123.638C95.3033 119.049 92.5806 114.206 88.3691 109.472C88.1694 109.254 87.9692 109.036 87.7695 108.818C79.3826 99.8944 66.8381 97.446 56.2002 97.2646C54.2578 103.595 51.6807 107.313 51.6807 107.313C51.7548 107.386 67.1303 122.509 67.5469 143.354C67.6195 146.855 67.2926 150.03 66.6572 152.914C61.8224 174.914 39.1613 179.734 39.0459 179.759L39.3721 180.394C39.953 181.591 41.2062 184.439 42.0957 188.411C43.911 196.428 44.237 209.107 34.7246 222.294C20.9403 241.372 4.19052 239.836 0 239.084V0H15.4502C16.6851 0.960152 17.8626 2.02231 18.9678 3.19727C19.1674 3.41489 19.3668 3.63297 19.5664 3.85059C23.778 8.60284 26.5016 13.4276 28.208 18.0166C29.1157 20.4653 29.7329 22.8417 30.1504 25.0908C32.0535 35.5948 29.3055 43.4588 29.2969 43.4834C29.2969 43.4834 50.355 51.9728 55.6377 67.6445C57.4711 73.0858 58.1975 78.2006 58.252 82.8076C68.7632 82.4092 76.5606 79.1185 76.5869 79.1074C76.5869 79.1074 80.5807 84.3496 87.7148 89.4102C93.7962 93.7271 102.165 97.8991 112.295 98.5703C134.261 100.001 146.873 78.0909 146.914 78.0195C146.914 78.0195 162.436 91.7136 189.14 82.3359C214.772 73.3572 213.302 44.499 213.302 44.499C213.302 44.499 213.466 44.5354 213.774 44.5898C216.843 45.2248 234.579 47.9266 249.028 27.9023C256.44 17.6393 257.88 7.6926 257.303 0H360V14.9658Z" fill="white"/>
</svg>
