<svg width="1920" height="750" viewBox="0 0 1920 750" fill="none" xmlns="http://www.w3.org/2000/svg">
<path d="M1462.42 571.788C1509.88 555.23 1602.7 514.471 1635.78 550.98C1653.05 570.076 1640.15 587.46 1629.46 596.993C1627.07 599.148 1628.78 603.663 1631.94 603.191C1649.57 600.535 1682.26 593.54 1709.67 576.009C1749.42 550.626 1774.82 532.977 1816.75 548.442C1842.57 557.946 1853.35 569.959 1857.8 577.809C1859.52 580.819 1864.66 582.177 1867.17 579.816C1875.88 571.552 1891.77 557.71 1901.75 556.175C1909.09 555.043 1915.49 555.069 1920 555.364V700.089C1909.93 705.66 1888.69 714.043 1855.38 711.008C1821.98 707.968 1800.6 685.123 1790.5 671.134C1788.61 668.536 1782.7 669.864 1781.99 672.993C1778.89 686.894 1769.91 707.79 1743.9 712.099C1704.15 718.711 1700.84 682.32 1651.16 686.747C1601.49 691.174 1552.91 709.708 1502.14 700.884C1467.77 694.922 1453.15 664.552 1447.3 645.515C1446.32 642.298 1439.86 641.973 1438.65 645.101C1430.17 667.149 1410.47 706.255 1375.21 714.106C1325.54 725.144 1299.04 698.641 1275.86 704.16C1258.85 708.203 1248.99 733.645 1244.91 746.897C1244.08 749.612 1239.89 750.202 1238.24 747.93C1229.08 735.268 1205.48 709.413 1163.25 705.281C1106.96 699.762 1097.01 731.756 1034.11 727.358C971.285 722.966 961.275 661.322 961.248 661.157C961.194 661.269 944.621 695.365 908.267 695.365C871.907 695.365 832.22 649.165 832.102 649.027C832.189 649.196 862.93 709.016 797.873 720.039C732.753 731.077 725.015 691.351 670.911 690.259C631.013 689.432 599.531 724.642 585.739 743.178C583.82 745.774 578.061 744.063 577.617 740.846C575.195 722.961 564.564 693.358 520.767 692.472C466.663 691.38 467.785 731.077 389.405 732.169C311.203 733.261 307.747 654.901 269.354 647.965C269.177 647.965 269.029 647.965 269.059 648.172C269.179 652.488 284.175 714.875 211.706 735.091C136.719 756.022 94.7922 697.71 94.6973 697.578C94.6249 697.656 71.4653 722.471 40.5928 730.191C25.2934 734.01 10.7635 732.946 0 730.903V558.986C9.45348 554.897 21.4289 551.577 32.8848 553.666C51.4313 557.031 72.5477 585.778 81.4961 599.178C83.0615 601.509 87.1361 600.859 88.0518 598.203C93.3087 583.21 109.67 552.634 154.294 561.901C212.798 574.032 208.399 591.681 241.505 590.589C274.611 589.497 314.362 558.595 352.991 568.512C380.752 575.654 387.456 613.551 388.991 634.329C389.169 636.66 393.746 637.516 394.75 635.421C404.319 615.735 427.06 579.846 465.57 580.642C518.552 581.734 573.748 597.2 605.762 585.04C637.775 572.909 676.404 553.047 716.155 562.964C755.906 572.88 756.999 592.743 824.334 579.52C866.329 571.256 880.417 554.876 885.083 543.69C885.32 543.1 890.633 542.746 890.96 543.336C898.432 556.617 920.966 574.798 988.832 557.473C1088.18 532.091 1099.23 602.72 1099.23 602.72C1099.23 602.72 1126.81 569.634 1177.61 583.948C1210.42 593.216 1218.8 614.466 1220.63 628.338C1220.73 628.987 1225 629.754 1225.27 629.135C1232.12 614.436 1247.39 591.976 1275.86 594.957C1317.27 599.325 1378.04 607.972 1394.46 549.829C1394.85 548.501 1395.85 548.118 1396.68 549.239C1402.17 556.825 1420.9 586.279 1462.42 571.788Z" fill="#FBFAE7"/>
<path d="M1425.15 238.63C1426.77 237.036 1431.14 239.191 1430.91 241.464C1428.84 261.445 1431.71 301.939 1485.13 316.076C1557.16 335.113 1595.23 251.529 1634.15 258.169C1673.08 264.78 1662.3 316.076 1662.3 316.076C1662.3 316.076 1687.96 291.49 1724.41 296.213C1758.34 300.64 1764.98 320.208 1764.98 320.208C1765.1 320.224 1782.54 322.608 1831.22 298.691C1868.75 280.256 1905.15 289.66 1920 295.008V468.208C1907.36 470.258 1879.17 473.147 1848.59 465.212C1819.09 457.538 1801.37 439.387 1793.63 429.588C1791.33 426.666 1786.31 426.401 1783.5 428.85C1775.53 435.786 1758.49 446.086 1729.4 442.869C1676.68 437.084 1646.62 409.784 1620.92 414.742C1595.26 419.701 1579.52 453.612 1504.18 449.48C1428.84 445.348 1418.09 389.891 1389.09 388.238C1389.91 388.243 1367.56 435.402 1313.75 435.402C1259.94 435.402 1236.76 382.247 1181.3 388.888C1130.74 394.909 1127.64 447.68 1106.79 465.123C1104.28 467.218 1100.79 464.651 1100.58 461.375C1099.73 447.415 1089.8 418.845 1024.77 412.027C937.829 402.937 948.608 447.592 900.588 446.795C869.992 446.263 859.892 425.249 856.613 410.05C856.111 407.718 850.087 406.803 849.023 408.928C838.451 430.207 813.111 467.927 765.652 469.107C699.41 470.76 671.265 424.423 609.188 426.902C562.349 428.762 527.294 468.783 512.911 488.321C511.021 490.888 503.992 489.472 502.574 486.609C498.646 478.552 489.816 467.956 470.118 459.19C432.877 442.633 419.616 450.1 395.606 426.105C383.498 414.005 378.331 401.077 376.204 391.22C375.938 389.98 368.615 388.651 367.964 389.743C363.8 396.472 357.302 404.648 347.438 412.617C325.112 430.621 291.503 440.302 264.806 435.225C224.817 427.622 201.143 387.351 201.074 387.234C201.024 387.382 182.752 441.022 109.995 450.13C59.5535 456.416 40.8586 441.718 34.125 432.067C33.7705 431.536 30.2868 432.303 30.1973 432.923C29.3112 440.803 26.417 452.285 17.2324 458.424C11.7855 462.045 5.62562 462.688 0 462.049V331.828C18.4589 329.471 47.9917 323.797 73.4629 310.291C114.041 288.775 128.926 269.738 159.551 287.948C181.907 301.23 183.975 321.152 183.473 330.922C183.325 333.755 185.777 336.323 188.582 335.85C197.708 334.286 215.427 330.656 226.059 324.605C262.059 304.122 286.631 305.893 297.499 311.324C319.648 322.392 321.834 337.592 321.834 337.592C321.912 337.533 379.804 293.74 419.528 304.506C459.279 315.278 484.943 336.794 525.521 332.633C560.577 329.061 641.968 287.181 663.469 275.877C666.009 274.519 669.228 276.202 669.996 278.976C672.625 288.303 680.481 305.657 702.688 308.638C733.314 312.77 749.055 306.159 792.114 317.728C835.173 329.298 884.847 340.071 928.732 330.98C972.618 321.89 1004.07 271.42 1048.78 273.073C1093.5 274.726 1118.33 294.589 1122.47 308.638C1126.6 322.686 1124.12 340.897 1124.12 340.897C1124.18 340.808 1155.6 292.914 1186.23 300.345C1216.83 307.777 1225.97 335.869 1225.98 335.909C1226.04 335.825 1240.11 316.821 1273.17 293.704C1306.31 270.535 1315.41 272.187 1361.77 268.055C1393.02 265.281 1414.46 248.96 1425.15 238.63Z" fill="#FBFAE7"/>
<path d="M719.315 39.7625C763.201 26.5401 787.212 -9.8808 821.972 2.54475C843.619 10.2775 842.792 26.0377 839.101 36.8104C838.363 38.9944 842.202 42.5361 844.239 41.4149C859.242 33.1213 888.834 20.3715 924.628 23.2049C976.782 27.3371 995.004 57.7948 1020.67 46.1961C1046.33 34.6265 1074.48 14.7637 1108.44 24.6805C1129.29 30.7899 1138.27 42.8016 1142.08 51.1541C1142.58 52.2458 1146.74 52.1573 1147.16 51.0067C1151.44 38.5516 1163.28 18.2172 1194.53 20.5487C1239.24 23.8543 1344.38 66.4426 1374.21 47.4061C1390.92 36.7515 1390.71 25.0341 1387.29 16.7996C1387.05 16.2088 1390.42 12.787 1390.98 13.0809C1407.07 22.0532 1439.92 35.748 1483.45 30.0223C1546.38 21.7288 1610.11 16.7707 1635.81 35.8074C1653.2 48.7052 1650.07 65.3805 1646.23 74.825C1644.96 77.9534 1647.27 81.4062 1650.54 80.5506C1659.02 78.337 1674.64 73.0837 1699.54 60.6287C1740.94 39.9392 1743.42 34.9806 1768.26 40.7655C1784.24 44.4844 1794.37 55.405 1799.6 62.7244C1801.78 65.7934 1806.77 66.3543 1809.52 63.7869C1819.06 54.8146 1840.29 38.9945 1870.09 40.7948C1896.08 42.3512 1911.86 46.1994 1920 48.8485V187.842C1910.65 187.96 1893.11 186.801 1875.05 178.361C1850.27 166.762 1844.34 153.717 1824.73 150.707C1822.39 150.353 1819.83 152.124 1818.91 154.278C1813.86 165.907 1795.08 198.195 1748.39 194.093C1702.4 190.049 1692.86 161.686 1690.92 151.444C1690.56 149.555 1688.67 148.198 1686.84 148.729C1679.63 150.795 1662.89 156.108 1649.04 164.283C1630.82 175.056 1576.18 205.662 1527.33 194.889C1478.49 184.117 1514.9 146.899 1500.84 136.982C1486.78 127.065 1435.43 141.941 1413.9 155.193C1397.57 165.228 1374.12 180.959 1363.72 188.013C1360.59 190.108 1356.46 189.842 1353.47 187.541C1341.37 178.214 1308.29 156.403 1269.01 160.977C1219.34 166.762 1196.15 196.158 1130.74 190.374C1083.04 186.153 1060.21 130.549 1051.32 100.739C1051.23 100.414 1047.66 100.946 1047.66 101.27C1046.39 121.989 1036.94 153.57 993.291 164.874C926.222 182.258 860.836 161.568 832.662 167.352C815.326 170.924 799.91 180.427 790.578 187.216C788.038 189.075 783.491 186.212 783.963 183.084C786.089 169.301 785.882 147.519 764.737 142.502C733.285 135.064 710.101 155.753 676.168 150.765C654.491 147.578 643.948 137.661 639.164 130.931C637.303 128.305 632.784 127.568 630.54 129.899C616.6 144.45 575.224 182.109 523.011 178.096C458.423 173.137 470.856 151.622 440.23 151.622C409.605 151.622 354.969 210.355 268.852 204.57C182.734 198.785 192.687 149.142 168.677 147.489C144.667 145.836 89.2041 186.359 45.3184 184.736C25.267 183.981 10.3207 180.631 0 177.216V55.2401C10.7453 56.0743 25.0792 57.9424 39.5303 62.075C68.5016 70.3683 100.781 62.9005 101.638 43.8641C102.11 33.0325 96.9413 19.5444 92.4229 9.89338C91.0351 6.94199 94.8744 3.37086 97.6504 5.11213C108.341 11.7823 124.466 21.1382 137.785 26.2147C175.646 40.588 215.752 33.7117 251.368 23.7655C286.985 13.8487 334.296 10.7495 350.864 39.7323C362.264 59.6543 348.059 78.6621 338.077 88.5789C335.892 90.7334 337.604 94.658 340.616 94.0682C354.556 91.2939 380.072 84.0924 404.673 66.2069C441.087 39.7325 451.04 33.9473 471.742 33.1209C492.444 32.2946 516.453 52.9827 516.455 52.9842C516.549 52.8571 546.321 12.4344 589.312 14.1141C632.371 15.767 675.4 52.9846 719.315 39.7625Z" fill="#FBFAE7"/>
</svg>
