<svg width="1918" height="784" viewBox="0 0 1918 784" fill="none" xmlns="http://www.w3.org/2000/svg">
<path d="M1773.98 0C1795.68 30.838 1785.03 61.3854 1784.99 61.4893C1784.99 61.4893 1821.6 76.2569 1830.78 103.487C1837.85 124.533 1835.51 142.613 1831.72 155.014C1828.36 165.952 1823.9 172.412 1823.87 172.462C1823.93 172.52 1850.75 198.849 1851.44 235.158C1852.48 287.776 1802.05 298.455 1801.91 298.485L1802.28 299.747C1803.33 301.861 1805.6 307.005 1807.14 314.23C1810.14 328.209 1810.52 349.981 1794.21 372.636C1769.09 407.47 1738.26 402.768 1732.93 401.664C1732.39 401.569 1732.11 401.475 1732.11 401.475C1732.11 401.475 1734.67 451.676 1690.11 467.295C1643.76 483.586 1616.79 459.848 1616.72 459.785C1616.72 459.785 1594.79 498.028 1556.55 495.504C1538.09 494.305 1523.01 486.384 1512.34 478.527C1500.86 470.071 1494.48 461.646 1494.48 461.646C1494.48 461.646 1479.84 467.863 1460.47 468.146C1460.78 459.091 1459.68 448.836 1455.96 437.793C1446.78 410.531 1410.17 395.764 1410.17 395.764C1410.18 395.755 1414.94 382.19 1411.69 364.021C1410.8 359.005 1409.29 353.64 1406.92 348.118C1404.12 341.618 1400.14 334.898 1394.46 328.24C1394.05 327.767 1393.64 327.294 1393.23 326.82C1378.65 310.381 1356.25 305.901 1337.32 305.585C1333.94 316.565 1329.46 323.065 1329.46 323.065C1329.46 323.065 1356.34 349.412 1357.04 385.762C1357.16 391.504 1356.66 396.742 1355.68 401.507C1347.7 440.632 1307.5 449.089 1307.5 449.089L1308.07 450.193C1309.11 452.308 1311.38 457.45 1312.93 464.676C1315.96 478.654 1316.33 500.426 1299.99 523.081C1274.87 557.915 1244.05 553.214 1238.71 552.109C1238.18 552.015 1237.89 551.952 1237.89 551.952C1237.9 552.039 1240.41 602.135 1195.9 617.771C1149.48 634.084 1122.53 610.263 1122.53 610.263C1122.45 610.417 1100.53 648.5 1062.36 645.98C1043.9 644.781 1028.82 636.862 1018.16 628.974C1006.72 620.55 1000.35 612.157 1000.3 612.093C1000.3 612.093 986.194 618.087 967.356 618.561C967.767 609.347 966.694 598.871 962.876 587.544C953.694 560.282 917.092 545.547 917.092 545.547C917.092 545.547 921.888 531.853 918.575 513.552C917.849 509.639 916.777 505.506 915.199 501.246C912.233 493.263 907.5 484.839 900.18 476.604C899.833 476.225 899.485 475.845 899.106 475.467C884.529 459.975 862.726 455.684 844.268 455.368C840.891 466.349 836.41 472.849 836.41 472.849C836.455 472.892 863.294 499.225 863.988 535.544C864.115 541.634 863.546 547.156 862.441 552.173C854.017 590.541 814.449 598.871 814.449 598.871L815.018 599.976C816.059 602.09 818.331 607.234 819.877 614.428C822.906 628.406 823.284 650.177 806.939 672.832C781.823 707.667 750.996 702.966 745.663 701.861C745.127 701.767 744.843 701.703 744.843 701.703C744.843 701.703 747.399 751.873 702.846 767.523C656.431 783.836 629.453 760.014 629.453 760.014C629.428 760.057 621.659 773.58 607.325 784H532.975C530.124 782.291 527.486 780.508 525.075 778.725C513.625 770.294 507.255 761.895 507.217 761.844C507.217 761.844 492.576 768.06 473.171 768.344C473.486 759.32 472.381 749.064 468.658 737.989C459.493 710.777 423.008 696.015 422.875 695.961C422.875 695.961 427.64 682.392 424.39 664.218C423.506 659.201 421.991 653.837 419.593 648.284C416.816 641.784 412.809 635.063 407.161 628.437C406.751 627.963 406.341 627.49 405.931 627.017C391.353 610.578 368.95 606.097 350.019 605.781C346.66 616.706 342.208 623.196 342.162 623.262C342.162 623.262 369.045 649.609 369.739 685.958C369.865 691.701 369.361 696.939 368.383 701.703C360.4 740.829 320.2 749.285 320.2 749.285L320.769 750.39C321.81 752.504 324.082 757.647 325.628 764.841C326.791 770.208 327.562 776.725 327.146 784H0V745.43C10.1802 736.213 15.6182 726.725 15.6182 726.725C15.6182 726.725 42.596 750.547 89.0107 734.234C133.504 718.605 131.015 668.549 131.008 668.415C131.008 668.415 131.292 668.509 131.828 668.572C137.161 669.708 167.988 674.378 193.104 639.544C209.638 616.605 209.07 594.549 205.946 580.603C204.4 573.661 202.224 568.739 201.214 566.656L200.646 565.552C200.646 565.552 240.812 557.095 248.827 517.97C249.805 513.205 250.311 507.936 250.185 502.225C249.49 465.875 222.606 439.528 222.606 439.528C222.606 439.528 227.088 433.06 230.464 422.079C249.396 422.395 271.83 426.844 286.376 443.314C286.786 443.788 287.196 444.261 287.606 444.734C293.254 451.392 297.261 458.081 300.038 464.581C302.436 470.134 303.919 475.499 304.834 480.516C308.077 498.652 303.339 512.2 303.319 512.258C303.319 512.258 339.922 527.025 349.104 554.256C352.827 565.331 353.931 575.585 353.615 584.609C372.989 584.325 387.63 578.109 387.63 578.109C387.63 578.109 393.846 586.314 405.047 594.644C415.743 602.627 431.016 610.735 449.695 611.966C487.899 614.487 509.823 576.294 509.867 576.217C509.991 576.326 536.952 600.001 583.26 583.726C627.787 568.084 625.26 517.964 625.257 517.906C625.265 517.909 625.549 518.001 626.077 518.063C631.41 519.199 662.206 523.87 687.354 489.035C703.887 466.096 703.288 444.04 700.164 430.094C698.618 423.184 696.44 418.23 695.431 416.147L694.863 415.043C694.975 415.019 734.474 406.658 742.855 368.344C743.96 363.327 744.528 357.805 744.401 351.716C743.677 315.413 716.893 289.087 716.824 289.02C716.843 288.992 721.312 282.528 724.681 271.539C743.139 271.855 764.974 276.114 779.552 291.606C779.93 291.985 780.277 292.364 780.624 292.774C787.944 301.041 792.678 309.466 795.676 317.449C797.253 321.709 798.326 325.81 799.052 329.723C802.391 347.991 797.585 361.67 797.568 361.718C797.568 361.718 834.17 376.485 843.353 403.715C847.17 415.042 848.243 425.519 847.833 434.732C866.67 434.228 880.774 428.264 880.774 428.264C880.8 428.298 887.013 436.485 898.191 444.798C908.888 452.781 924.16 460.889 942.839 462.12C981.008 464.639 1002.93 426.549 1003.01 426.402C1003.01 426.402 1029.99 450.224 1076.4 433.911C1120.93 418.272 1118.41 368.163 1118.4 368.092C1118.41 368.095 1118.69 368.187 1119.22 368.249C1124.55 369.385 1155.35 374.055 1180.5 339.221C1197.03 316.282 1196.46 294.257 1193.34 280.279C1191.79 273.37 1189.62 268.416 1188.61 266.333L1188.04 265.229C1188.12 265.211 1228.21 256.731 1236.22 217.646C1237.23 212.882 1237.7 207.644 1237.61 201.901C1236.88 165.552 1210.03 139.205 1210.03 139.205C1210.03 139.205 1214.51 132.736 1217.89 121.756C1236.82 122.071 1259.22 126.552 1273.8 142.991C1274.21 143.465 1274.62 143.938 1275.03 144.411C1280.68 151.069 1284.69 157.79 1287.46 164.258C1289.86 169.811 1291.34 175.176 1292.26 180.192C1295.51 198.367 1290.74 211.936 1290.74 211.936C1290.74 211.936 1327.35 226.702 1336.53 253.964C1340.25 265.039 1341.36 275.294 1341.04 284.318C1360.41 284.034 1375.05 277.822 1375.05 277.818C1375.09 277.865 1381.3 286.046 1392.47 294.352C1403.2 302.334 1418.44 310.444 1437.12 311.675C1475.36 314.199 1497.29 275.956 1497.29 275.956C1497.33 275.991 1524.3 299.767 1570.68 283.466C1615.18 267.837 1612.69 217.786 1612.68 217.646C1612.69 217.649 1612.97 217.742 1613.5 217.804C1618.8 218.908 1649.63 223.61 1674.78 188.775C1691.31 165.836 1690.74 143.812 1687.62 129.834C1686.07 122.924 1683.9 117.971 1682.89 115.888L1682.32 114.783C1682.32 114.783 1732.93 104.15 1731.86 51.4561C1731.42 29.4084 1721.37 11.0405 1713.52 0H1773.98Z" fill="#FDFCEA"/>
<path d="M963.633 639.26C982.249 639.512 1004.34 643.709 1019.04 659.359C1019.42 659.738 1019.77 660.117 1020.11 660.495C1027.43 668.73 1032.17 677.155 1035.13 685.138C1036.71 689.397 1037.81 693.499 1038.51 697.443C1041.82 715.721 1037.04 729.404 1037.03 729.438C1037.03 729.438 1073.63 744.174 1082.81 771.436C1084.26 775.759 1085.31 779.954 1086.03 784H934.524C934.486 783.921 934.45 783.845 934.415 783.773L933.847 782.669C933.847 782.669 973.414 774.338 981.839 735.97C982.943 730.953 983.511 725.431 983.385 719.342C982.691 683.016 955.843 656.68 955.808 656.646C955.808 656.646 960.288 650.209 963.633 639.26Z" fill="#FDFCEA"/>
<path d="M1456.78 489.445C1475.8 489.698 1498.52 494.084 1513.23 510.681C1513.64 511.154 1514.05 511.627 1514.46 512.101V512.132C1520.1 518.758 1524.11 525.479 1526.89 531.979C1529.26 537.5 1530.77 542.865 1531.65 547.882C1534.9 566.015 1530.16 579.562 1530.14 579.624C1530.21 579.652 1566.75 594.417 1575.92 621.653C1579.65 632.665 1580.75 642.888 1580.43 651.912C1599.52 651.534 1613.89 645.435 1613.94 645.412C1613.94 645.412 1620.79 654.437 1633.03 663.177C1643.6 670.75 1658.28 678.102 1676.01 679.27C1714.21 681.76 1736.14 643.595 1736.18 643.52C1736.24 643.572 1763.21 667.293 1809.57 651.029C1854.13 635.379 1851.57 585.209 1851.57 585.209C1851.57 585.209 1851.85 585.273 1852.39 585.367C1857.72 586.472 1888.55 591.172 1913.67 556.338C1915.27 554.122 1916.71 551.912 1918 549.719V784H1682.77C1668.9 770.453 1651.16 763.281 1651.11 763.264C1651.11 763.264 1655.88 749.696 1652.63 731.521C1651.71 726.505 1650.23 721.14 1647.83 715.587C1645.06 709.087 1641.05 702.366 1635.4 695.74C1634.99 695.267 1634.58 694.794 1634.17 694.32C1619.21 677.471 1596.02 673.211 1576.81 673.085C1573.46 684.16 1568.92 690.691 1568.92 690.691C1568.92 690.691 1595.8 717.038 1596.5 753.388C1596.62 759.099 1596.15 764.368 1595.14 769.133C1594 774.686 1592.21 779.62 1589.98 784H1341.28C1358.76 763.393 1357.39 735.803 1357.38 735.687C1357.38 735.687 1357.67 735.749 1358.21 735.844C1363.54 736.948 1394.37 741.65 1419.48 706.815C1435.32 684.886 1435.45 663.745 1432.7 649.735C1431.12 641.815 1428.66 636.167 1427.56 633.927L1426.99 632.823C1426.99 632.823 1467.19 624.367 1475.17 585.272C1476.15 580.508 1476.66 575.27 1476.53 569.527C1475.84 533.211 1449 506.879 1448.95 506.831C1448.96 506.818 1453.44 500.383 1456.78 489.445Z" fill="#FDFCEA"/>
<path d="M569.365 0C580.923 6.58185 598.23 18.9613 604.147 36.5312C607.334 45.997 608.597 54.8948 608.691 62.9092C626.94 62.217 640.483 56.5052 640.56 56.4727C640.56 56.4727 647.502 65.5912 659.902 74.3945C670.473 81.9042 685.018 89.1616 702.625 90.3291C740.867 92.8218 762.797 54.5791 762.797 54.5791C762.797 54.5791 789.775 78.4018 836.189 62.0889C873.379 49.0514 877.742 11.9181 878.169 0H1115.35C1116.85 5.78612 1117.83 11.9883 1117.96 18.5137C1118.09 24.2562 1117.58 29.4944 1116.6 34.2588C1108.62 73.3847 1068.42 81.8418 1068.42 81.8418L1068.99 82.9453C1070 84.9962 1072.18 89.9504 1073.72 96.8604C1076.88 110.807 1077.48 132.863 1060.91 155.802C1035.79 190.636 1004.97 185.935 999.635 184.831C999.099 184.736 998.814 184.642 998.814 184.642C998.814 184.642 1001.37 234.812 956.817 250.462C910.478 266.748 883.513 243.03 883.425 242.952C883.372 243.044 861.449 281.222 823.253 278.701C804.542 277.502 789.27 269.362 778.573 261.379C767.372 253.049 761.156 244.845 761.156 244.845C761.156 244.845 747.052 250.809 728.215 251.313C728.625 242.1 727.552 231.624 723.734 220.297C714.552 193.035 677.95 178.268 677.95 178.268C677.97 178.212 682.771 164.537 679.434 146.273C678.708 142.361 677.635 138.226 676.058 133.967V133.936C673.092 125.953 668.358 117.528 661.038 109.293C660.691 108.914 660.344 108.535 659.997 108.156C645.42 92.6322 623.616 88.3732 605.126 88.0576C601.75 99.0696 597.269 105.538 597.269 105.538C597.269 105.538 624.121 131.885 624.847 168.234C624.973 174.324 624.405 179.846 623.301 184.862C614.876 223.231 575.308 231.562 575.308 231.562L575.876 232.666C576.886 234.749 579.063 239.703 580.609 246.612C583.765 260.559 584.333 282.615 567.799 305.554C542.651 340.388 511.824 335.718 506.522 334.582C505.999 334.52 505.715 334.429 505.702 334.425C505.709 334.57 508.192 384.616 463.704 400.244C417.29 416.557 390.312 392.734 390.312 392.734C390.312 392.734 368.382 431.009 330.14 428.484C311.46 427.254 296.189 419.145 285.492 411.162C274.317 402.852 268.104 394.666 268.075 394.628C268.075 394.628 253.403 400.844 234.029 401.128C234.345 392.072 233.24 381.817 229.517 370.742C220.335 343.48 183.733 328.713 183.733 328.713C183.765 328.622 188.487 315.084 185.248 296.971C184.365 291.985 182.881 286.59 180.483 281.068C177.675 274.568 173.668 267.816 168.02 261.158C167.609 260.653 167.199 260.212 166.789 259.738C152.212 243.299 129.809 238.818 110.877 238.503C107.507 249.494 103.037 255.959 103.021 255.983C103.096 256.058 129.873 282.382 130.598 318.68C130.724 324.391 130.219 329.629 129.241 334.425C121.239 373.489 81.1847 381.98 81.0596 382.007L81.627 383.111C82.6367 385.194 84.8143 390.148 86.3604 397.058C89.4841 411.004 90.0514 433.06 73.5176 455.999C48.4018 490.833 17.5755 486.163 12.2422 485.027C11.7193 484.935 11.4358 484.843 11.4219 484.839C11.4276 484.952 12.5308 507.319 0 526.812V167.01C3.87278 161.281 6.99136 154.396 8.67578 146.146C9.65391 141.382 10.1594 136.144 10.0332 130.401C9.75505 115.84 5.2719 102.884 0 92.584V55.2559C16.7711 56.7195 34.8336 62.0427 47.2344 76.0352C47.6445 76.5084 48.0547 76.9819 48.4648 77.4551C54.1128 84.1128 58.1205 90.8341 60.9287 97.334C63.2952 102.887 64.8089 108.252 65.6924 113.269C68.9346 131.4 64.2011 144.947 64.1787 145.011C64.3083 145.063 100.796 159.794 109.962 187.008C113.054 196.221 114.348 204.899 114.506 212.756C133.31 212.283 147.429 206.308 147.479 206.287C147.479 206.287 154.42 215.406 166.82 224.209C177.391 231.719 191.937 238.976 209.544 240.144C247.786 242.636 269.716 204.394 269.716 204.394C269.716 204.394 296.694 228.185 343.108 211.903C387.594 196.277 385.113 146.235 385.105 146.084C385.109 146.085 385.393 146.147 385.926 146.241C391.258 147.346 422.086 152.047 447.202 117.213C462.001 96.7034 463.105 76.9192 460.928 62.9727C459.476 53.5698 456.542 46.8485 455.312 44.3242L454.743 43.2207C454.743 43.2207 491.898 35.398 501.865 0H569.365Z" fill="#FDFCEA"/>
<path d="M1558.7 0C1557.61 1.77782 1556.42 3.5644 1555.13 5.35645C1529.98 40.1906 1499.19 35.4902 1493.85 34.3857C1493.32 34.3237 1493.04 34.2306 1493.03 34.2275C1493.03 34.2275 1495.59 84.3973 1451.04 100.048C1404.62 116.361 1377.64 92.5381 1377.64 92.5381C1377.57 92.66 1355.65 130.776 1317.47 128.256C1298.76 127.057 1283.52 118.916 1272.79 110.934C1261.59 102.604 1255.37 94.3994 1255.37 94.3994C1255.3 94.4314 1240.65 100.616 1221.33 100.899C1221.68 91.8437 1220.57 81.5888 1216.85 70.5137C1207.67 43.2998 1171.11 28.5344 1171.06 28.5166C1171.06 28.5166 1175.27 16.531 1173.08 0H1558.7Z" fill="#FDFCEA"/>
</svg>
