<svg width="360" height="215" viewBox="0 0 360 215" fill="none" xmlns="http://www.w3.org/2000/svg">
<g clip-path="url(#clip0_5114_7262)">
<path d="M397.786 50.4088L397.855 50.7707C397.973 51.4595 398.185 53.1128 398.002 55.2953C397.651 59.5177 395.851 65.7283 389.103 70.765C378.718 78.5066 370.135 74.5414 368.676 73.7729C368.528 73.7003 368.453 73.6492 368.453 73.6492C368.453 73.6492 364.795 88.1131 350.424 88.7428C335.448 89.4107 329.666 80.348 329.666 80.348C329.666 80.348 319.912 89.3286 308.974 85.3484C303.693 83.4328 299.987 79.8981 297.564 76.7583C294.954 73.3784 293.834 70.4437 293.834 70.4437C293.834 70.4437 289.016 70.9581 283.338 69.3852C284.224 66.8423 284.802 63.838 284.684 60.3864C284.397 51.8665 275.012 44.5522 275.012 44.5522C275.012 44.5522 277.592 41.1086 278.238 35.6737C278.421 34.1746 278.449 32.5232 278.243 30.7543C277.994 28.6701 277.423 26.4236 276.35 24.0496C276.272 23.8802 276.194 23.7109 276.116 23.5416C273.304 17.6324 267.16 14.449 261.663 12.7437C259.715 15.5715 257.837 17.0336 257.837 17.0336C257.837 17.0336 263.37 26.8046 260.384 37.1788C259.917 38.8192 259.31 40.2625 258.607 41.5311C252.845 51.9527 240.373 50.9215 240.373 50.9215L240.441 51.2834C240.56 51.9721 240.771 53.6255 240.589 55.808C240.246 60.0331 238.447 66.2437 231.69 71.2777C221.305 79.0193 212.721 75.0541 211.262 74.2856C211.114 74.213 211.037 74.1708 211.037 74.1708C211.037 74.1708 207.381 88.6258 193.007 89.2645C178.032 89.9323 172.259 80.8723 172.259 80.8723C172.259 80.8723 162.505 89.8529 151.567 85.8727C146.286 83.9571 142.58 80.4224 140.16 77.2737C137.55 73.8938 136.429 70.9591 136.429 70.9591C136.429 70.9591 131.788 71.4566 126.249 69.9832C127.177 67.4036 127.783 64.3393 127.663 60.799C127.375 52.2791 117.988 44.9738 117.988 44.9738C117.988 44.9738 120.588 41.4971 121.227 36.021C121.359 34.8488 121.408 33.5842 121.322 32.2408C121.157 29.7223 120.515 26.9277 119.101 23.9659C119.033 23.8288 118.965 23.6918 118.888 23.552C115.993 17.9115 110.007 14.8329 104.648 13.168C102.7 15.9958 100.822 17.4579 100.822 17.4579C100.822 17.4579 106.355 27.2289 103.369 37.6031C102.872 39.342 102.221 40.8605 101.459 42.1899C95.6346 52.3589 83.3578 51.3458 83.3578 51.3458L83.4266 51.7077C83.545 52.3964 83.7567 54.0499 83.5767 56.2233C83.2343 60.4485 81.4347 66.659 74.6777 71.693C64.2926 79.4346 55.7094 75.4694 54.2503 74.7009C54.1021 74.6283 54.0247 74.5862 54.0247 74.5862C54.0247 74.5862 50.3691 89.0411 35.9953 89.6798C21.0201 90.3477 15.2378 81.2849 15.2378 81.2849C15.2378 81.2849 5.48361 90.2656 -5.45422 86.2854C-10.7353 84.3697 -14.4417 80.835 -16.8617 77.6863C-19.4713 74.3064 -20.592 71.3717 -20.592 71.3717C-20.592 71.3717 -25.4096 71.8862 -31.097 70.3106C-30.2132 67.7767 -29.6358 64.7723 -29.7507 61.3117C-30.0383 52.7918 -39.4233 45.4775 -39.4233 45.4775C-39.4233 45.4775 -36.8426 42.034 -36.1965 36.5991C-36.0142 35.1 -35.9855 33.4485 -36.1981 31.668C-36.4381 29.5865 -37.0178 27.3373 -38.0846 24.9749C-38.1628 24.8056 -38.2409 24.6363 -38.3191 24.4669C-41.1307 18.5578 -47.2748 15.3743 -52.7715 13.669C-54.72 16.4968 -56.5977 17.9589 -56.5977 17.9589C-56.5977 17.9589 -51.0645 27.7299 -54.0509 38.1042C-54.5179 39.7446 -55.1248 41.1879 -55.8282 42.4564C-61.5902 52.878 -74.0623 51.8468 -74.0623 51.8468L-73.9934 52.2087C-73.8751 52.8975 -73.6633 54.5509 -73.8433 56.7243C-74.1857 60.9495 -75.9853 67.1601 -82.7423 72.1941C-93.1275 79.9357 -101.711 75.9705 -103.17 75.202C-103.318 75.1293 -103.395 75.0872 -103.395 75.0872C-103.395 75.0872 -107.054 89.5511 -121.425 90.1809C-136.4 90.8487 -142.182 81.786 -142.182 81.786C-142.182 81.786 -151.936 90.7666 -162.877 86.7954C-168.158 84.8797 -171.864 81.3451 -174.294 78.1936C-176.903 74.8137 -178.024 71.879 -178.024 71.879C-178.024 71.879 -191.637 73.3359 -200.087 63.8738C-204.197 59.274 -205.327 54.8132 -205.409 51.4403C-205.484 47.8839 -204.403 45.5544 -204.403 45.5544L-205.098 45.4975C-207.838 45.2036 -217.816 43.4765 -221.443 33.5796C-225.664 22.064 -215.444 10.3101 -215.444 10.3101C-215.671 10.1362 -225.757 2.29483 -224.287 -10.1241C-224.261 -10.3704 -224.223 -10.6229 -224.181 -10.8549C-224.097 -7.491 -222.963 -3.03918 -218.86 1.54898C-210.41 11.0112 -196.797 9.55428 -196.797 9.55428C-196.797 9.55428 -195.703 12.4128 -193.165 15.7327C-190.744 18.9109 -186.999 22.5155 -181.656 24.4589C-170.719 28.4391 -160.962 19.4496 -160.962 19.4496C-160.962 19.4496 -155.179 28.5123 -140.204 27.8445C-125.83 27.2058 -122.175 12.7508 -122.175 12.7508C-122.175 12.7508 -122.1 12.8019 -121.949 12.8656C-120.493 13.643 -111.907 17.5992 -101.522 9.85764C-94.6845 4.75922 -92.9153 -1.5481 -92.6033 -5.77235C-92.4454 -7.87419 -92.6489 -9.45683 -92.7608 -10.134L-92.8297 -10.4958C-92.8297 -10.4958 -80.3668 -9.46735 -74.5956 -19.8863C-73.8922 -21.1548 -73.2825 -22.6071 -72.8183 -24.2385C-69.8319 -34.6127 -75.3651 -44.3837 -75.3651 -44.3837C-75.3651 -44.3837 -73.4902 -45.8369 -71.5417 -48.6647C-66.0449 -46.9594 -59.8888 -43.7822 -57.0892 -37.8668C-57.0111 -37.6974 -56.9329 -37.5281 -56.8547 -37.3588C-55.7907 -34.9875 -55.2082 -32.7473 -54.9682 -30.6657C-54.7557 -28.8852 -54.7935 -27.2364 -54.9666 -25.7346C-55.6128 -20.2998 -58.1934 -16.8562 -58.1934 -16.8562C-58.1934 -16.8562 -48.8084 -9.54189 -48.5181 -1.03094C-48.4032 2.42967 -48.9806 5.43396 -49.8644 7.96786C-44.1862 9.54076 -39.3687 9.02635 -39.3687 9.02635C-39.3687 9.02635 -38.2745 11.8849 -35.7367 15.2048C-33.3158 18.383 -29.5709 21.9876 -24.2281 23.9311C-13.2902 27.9112 -3.53326 18.9216 -3.53326 18.9216C-3.53326 18.9216 2.24902 27.9844 17.2242 27.3165C31.598 26.6778 35.2537 12.2229 35.2537 12.2229C35.2537 12.2229 35.3282 12.274 35.4792 12.3377C36.9356 13.1151 45.5123 17.0686 55.9067 9.32974C62.7438 4.23131 64.5038 -2.0787 64.8159 -6.30296C64.9709 -8.39584 64.7702 -9.98741 64.6583 -10.6646L64.5894 -11.0264C64.5894 -11.0264 76.8755 -10.0106 82.6908 -20.1823C83.4532 -21.5117 84.1034 -23.0302 84.6008 -24.7691C87.578 -35.146 82.054 -44.9143 82.054 -44.9143C82.054 -44.9143 83.9289 -46.3675 85.8802 -49.2043C91.2388 -47.5394 97.2366 -44.467 100.131 -38.8265C100.208 -38.6867 100.277 -38.5497 100.342 -38.4036C101.753 -35.4329 102.395 -32.6383 102.569 -30.1171C102.656 -28.7736 102.609 -27.5181 102.477 -26.3458C101.848 -20.8671 99.2377 -17.3931 99.2377 -17.3931C99.2377 -17.3931 108.623 -10.0788 108.913 -1.56783C109.033 1.9725 108.427 5.03679 107.499 7.61633C113.04 9.08076 117.679 8.59224 117.679 8.59224C117.679 8.59224 118.773 11.4508 121.311 14.7706C123.732 17.9489 127.477 21.5535 132.82 23.4969C143.758 27.4771 153.512 18.4965 153.512 18.4965C153.512 18.4965 159.294 27.5592 174.269 26.8914C188.643 26.2527 192.299 11.7977 192.299 11.7977C192.299 11.7977 192.373 11.8488 192.524 11.9125C193.981 12.69 202.557 16.6435 212.952 8.90456C219.789 3.80612 221.555 -2.49222 221.87 -6.72543C222.025 -8.81831 221.825 -10.4099 221.713 -11.087L221.644 -11.4489C221.644 -11.4489 234.107 -10.4204 239.878 -20.8394C240.591 -22.1052 241.188 -23.5512 241.664 -25.1889C244.642 -35.5658 239.118 -45.3341 239.118 -45.3341C239.118 -45.3341 240.993 -46.7873 242.941 -49.6151C248.438 -47.9098 254.582 -44.7263 257.393 -38.8171C257.472 -38.6478 257.55 -38.4785 257.628 -38.3092C258.692 -35.9379 259.272 -33.6887 259.514 -31.6161C259.727 -29.8356 259.689 -28.1868 259.516 -26.685C258.87 -21.2502 256.289 -17.8066 256.289 -17.8066C256.289 -17.8066 265.674 -10.4923 265.962 -1.97238C266.077 1.48824 265.499 4.49252 264.616 7.02644C270.294 8.59933 275.111 8.08493 275.111 8.08493C275.111 8.08493 276.205 10.9435 278.743 14.2633C281.173 17.4443 284.909 21.0462 290.252 22.9896C301.19 26.9698 310.944 17.9892 310.944 17.9892C310.944 17.9892 316.726 27.0519 331.701 26.3841C346.075 25.7453 349.731 11.2904 349.731 11.2904C349.731 11.2904 349.805 11.3415 349.956 11.4052C351.406 12.171 359.99 16.1362 370.384 8.39725C377.221 3.29881 378.987 -2.99953 379.302 -7.23274C379.457 -9.32562 379.257 -10.9172 379.145 -11.5944L379.076 -11.9562C379.076 -11.9562 394.777 -10.6542 399.087 -25.6989C402.064 -36.0758 396.54 -45.8441 396.54 -45.8441C396.54 -45.8441 398.415 -47.2973 400.367 -50.1341C405.863 -48.4288 412.008 -45.2453 414.819 -39.3361C420.504 -27.3924 413.712 -18.3166 413.712 -18.3166C413.712 -18.3166 423.097 -11.0023 423.387 -2.49135C423.603 4.08418 421.336 9.01553 419.143 12.2113C417.195 15.0391 415.32 16.4923 415.32 16.4923C415.32 16.4923 420.853 26.2633 417.867 36.6375C413.547 51.6795 397.855 50.3802 397.855 50.3802M455.474 161.412C458.451 151.036 452.918 141.265 452.918 141.265C452.918 141.265 454.817 139.799 456.764 136.941C458.945 133.752 461.201 128.827 460.986 122.281C460.698 113.761 451.313 106.447 451.313 106.447C451.313 106.447 458.111 97.3826 452.42 85.4272C449.585 79.4625 443.341 76.279 437.811 74.5835C435.875 77.405 434.002 78.8492 434.002 78.8492C434.002 78.8492 439.536 88.6202 436.549 98.9944C432.23 114.036 416.538 112.737 416.538 112.737L416.607 113.099C416.732 113.829 416.955 115.642 416.711 118.021C416.293 122.234 414.392 128.219 407.846 133.091C397.461 140.832 388.878 136.867 387.418 136.099C387.27 136.026 387.193 135.984 387.193 135.984C387.193 135.984 383.537 150.439 369.163 151.077C354.191 151.736 348.406 142.683 348.406 142.683C348.406 142.683 338.652 151.663 327.711 147.692C322.639 145.847 319.003 142.509 316.583 139.458C313.777 135.932 312.571 132.787 312.571 132.787C312.571 132.787 307.835 133.296 302.222 131.772C303.106 129.238 303.681 126.243 303.56 122.8C303.273 114.28 293.888 106.966 293.888 106.966C293.888 106.966 296.468 103.522 297.114 98.0872C297.297 96.5882 297.325 94.9367 297.119 93.1678C296.879 91.0863 296.299 88.8371 295.233 86.4747C295.233 86.4747 295.233 86.4747 295.235 86.4657C295.157 86.2964 295.079 86.1271 295.001 85.9578C292.166 79.9931 285.922 76.8095 280.392 75.1141C278.456 77.9356 276.583 79.3799 276.583 79.3799C276.583 79.3799 282.117 89.1508 279.13 99.5251C278.663 101.165 278.056 102.609 277.353 103.877C271.594 114.29 259.122 113.259 259.122 113.259L259.19 113.621C259.316 114.351 259.539 116.163 259.304 118.546C258.876 122.755 256.985 128.744 250.439 133.615C240.054 141.357 231.47 137.391 230.011 136.623C229.863 136.55 229.786 136.508 229.786 136.508C229.786 136.508 226.13 150.963 211.756 151.602C196.781 152.27 190.999 143.207 190.999 143.207C190.999 143.207 181.245 152.188 170.307 148.207C165.235 146.363 161.607 143.027 159.178 139.973C156.372 136.448 155.157 133.3 155.157 133.3C155.157 133.3 150.6 133.783 145.124 132.367C146.04 129.794 146.641 126.747 146.527 123.219C146.239 114.699 136.852 107.394 136.852 107.394C136.852 107.394 139.452 103.917 140.091 98.4408C140.235 97.2623 140.272 96.004 140.186 94.6606C140.021 92.1421 139.379 89.3474 137.965 86.3857C137.897 86.2486 137.829 86.1115 137.752 85.9718C134.834 80.2757 128.757 77.1997 123.347 75.5392C121.41 78.3608 119.538 79.805 119.538 79.805C119.538 79.805 125.071 89.576 122.085 99.9503C121.587 101.689 120.937 103.208 120.175 104.537C114.35 114.706 102.074 113.693 102.074 113.693L102.142 114.055C102.268 114.785 102.491 116.598 102.256 118.98C101.828 123.19 99.9368 129.178 93.3908 134.049C83.0056 141.791 74.4225 137.826 72.9633 137.057C72.8151 136.984 72.7378 136.942 72.7378 136.942C72.7378 136.942 69.0793 151.406 54.7083 152.036C39.7359 152.695 33.9509 143.641 33.9509 143.641C33.9509 143.641 24.1967 152.622 13.256 148.65C8.18393 146.806 4.55673 143.47 2.12741 140.416C-0.678253 136.891 -1.89377 133.743 -1.89377 133.743C-1.89377 133.743 -6.62933 134.252 -12.2422 132.728C-11.3584 130.194 -10.7838 127.198 -10.9041 123.756C-11.1917 115.236 -20.5768 107.921 -20.5768 107.921C-20.5768 107.921 -17.9961 104.478 -17.35 99.043C-17.1676 97.5439 -17.1362 95.8835 -17.3516 94.1119C-17.5916 92.0304 -18.174 89.7902 -19.2289 87.4215C-19.307 87.2522 -19.3852 87.0829 -19.4634 86.9136C-22.2979 80.9489 -28.5424 77.7653 -34.0723 76.0698C-36.0089 78.8914 -37.881 80.3356 -37.881 80.3356C-37.881 80.3356 -32.3478 90.1066 -35.3342 100.481C-35.8012 102.121 -36.4081 103.565 -37.1115 104.833C-42.8735 115.255 -55.3456 114.224 -55.3456 114.224L-55.2767 114.585C-55.151 115.315 -54.9283 117.128 -55.16 119.501C-55.5881 123.711 -57.4796 129.7 -64.0256 134.571C-74.4108 142.312 -82.9939 138.347 -84.453 137.579C-84.6012 137.506 -84.6786 137.464 -84.6786 137.464C-84.6786 137.464 -88.3342 151.919 -102.708 152.558C-117.683 153.225 -123.466 144.163 -123.466 144.163C-123.466 144.163 -133.22 153.143 -144.16 149.172C-149.232 147.327 -152.86 143.991 -155.289 140.938C-158.095 137.413 -159.31 134.265 -159.31 134.265C-159.31 134.265 -172.923 135.722 -181.373 126.259C-185.161 122.017 -186.425 117.889 -186.652 114.629L-186.658 114.647C-188.137 127.064 -178.043 134.908 -177.818 135.09C-177.818 135.09 -188.038 146.844 -183.817 158.36C-180.2 168.254 -170.212 169.984 -167.472 170.278L-166.777 170.335C-166.777 170.335 -168.355 173.72 -167.566 178.539C-167.083 181.522 -165.695 185.053 -162.464 188.663C-154.023 198.123 -140.401 196.668 -140.401 196.668C-140.401 196.668 -136.201 207.602 -125.26 211.573C-114.322 215.553 -104.568 206.573 -104.568 206.573C-104.568 206.573 -98.7952 215.633 -83.8201 214.965C-69.4462 214.326 -65.7906 199.871 -65.7906 199.871C-65.7906 199.871 -65.716 199.922 -65.565 199.986C-64.1087 200.763 -55.5228 204.72 -45.1376 196.978C-34.9073 189.347 -36.0345 179.029 -36.386 176.984L-36.4548 176.622C-36.4548 176.622 -23.9828 177.653 -18.2207 167.231C-17.5173 165.963 -16.9105 164.52 -16.4435 162.879C-13.4663 152.502 -18.9903 142.734 -18.9903 142.734C-18.9903 142.734 -17.0914 141.268 -15.1438 138.411C-9.54759 140.087 -3.15387 143.275 -0.267792 149.333C-0.189606 149.502 -0.11145 149.671 -0.0332947 149.841C1.03073 152.212 1.60126 154.458 1.85043 156.543C2.06577 158.314 2.02515 159.972 1.8428 161.471C1.19669 166.906 -1.38397 170.35 -1.38397 170.35C-1.38397 170.35 8.00104 177.664 8.29141 186.175C8.40347 189.644 7.8233 192.658 6.93677 195.2C12.4281 196.631 17.0062 196.144 17.0062 196.144C17.0062 196.144 21.2062 207.077 32.156 211.051C43.0939 215.032 52.8481 206.051 52.8481 206.051C52.8481 206.051 58.6303 215.114 73.6055 214.446C87.9793 213.807 91.635 199.352 91.635 199.352C91.635 199.352 91.7096 199.403 91.8605 199.467C93.3077 200.242 101.894 204.198 112.288 196.459C122.518 188.828 121.382 178.508 121.04 176.465L120.971 176.103C120.971 176.103 133.257 177.119 139.072 166.947C139.835 165.618 140.485 164.099 140.982 162.36C143.959 151.983 138.435 142.215 138.435 142.215C138.435 142.215 140.334 140.749 142.282 137.892C147.749 139.53 153.984 142.613 156.944 148.4C157.022 148.54 157.08 148.674 157.149 148.811C158.559 151.782 159.204 154.567 159.369 157.086C159.456 158.429 159.416 159.697 159.275 160.866C158.636 166.342 156.035 169.819 156.035 169.819C156.035 169.819 165.42 177.133 165.711 185.644C165.828 189.193 165.219 192.267 164.291 194.846C169.643 196.177 174.036 195.704 174.036 195.704C174.036 195.704 178.236 206.638 189.186 210.612C200.123 214.592 209.878 205.611 209.878 205.611C209.878 205.611 215.66 214.674 230.635 214.006C245.009 213.368 248.664 198.913 248.664 198.913C248.664 198.913 248.739 198.964 248.887 199.036C250.337 199.802 258.92 203.767 269.315 196.028C279.545 188.398 278.418 178.08 278.066 176.034L277.997 175.672C277.997 175.672 290.46 176.701 296.229 166.291C296.941 165.025 297.542 163.57 298.006 161.939C300.992 151.564 295.459 141.793 295.459 141.793C295.459 141.793 297.358 140.328 299.306 137.47C304.902 139.146 311.296 142.334 314.182 148.392C314.26 148.561 314.338 148.731 314.416 148.9C315.483 151.262 316.063 153.512 316.303 155.593C316.515 157.374 316.477 159.022 316.304 160.524C315.658 165.959 313.078 169.403 313.078 169.403C313.078 169.403 322.463 176.717 322.753 185.228C322.865 188.697 322.294 191.713 321.389 194.251C326.88 195.681 331.459 195.194 331.459 195.194C331.459 195.194 335.668 206.131 346.608 210.102C357.546 214.082 367.3 205.101 367.3 205.101C367.3 205.101 373.083 214.164 388.058 213.496C402.432 212.858 406.087 198.403 406.087 198.403C406.087 198.403 406.162 198.454 406.313 198.517C407.76 199.292 416.346 203.248 426.74 195.509C436.971 187.879 435.834 177.558 435.492 175.515L435.423 175.153C435.423 175.153 451.125 176.455 455.434 161.411M-92.4929 -155.319C-93.3482 -157.131 -94.1489 -159.445 -94.3858 -162.024C-93.3218 -159.652 -92.7421 -157.403 -92.4929 -155.319ZM380.248 -88.004C383.225 -98.3809 377.701 -108.149 377.701 -108.149C377.701 -108.149 379.576 -109.602 381.527 -112.439C383.717 -115.626 385.988 -120.566 385.769 -127.133C385.481 -135.653 376.096 -142.967 376.096 -142.967C376.096 -142.967 382.894 -152.031 377.203 -163.987C374.271 -170.156 367.689 -173.35 362.014 -175C360.401 -172.933 359.041 -171.876 359.041 -171.876C359.041 -171.876 364.574 -162.105 361.587 -151.731C357.268 -136.689 341.576 -137.989 341.576 -137.989L341.645 -137.627C341.782 -136.805 342.049 -134.648 341.657 -131.853C341.069 -127.709 339.011 -122.189 332.893 -117.632C322.508 -109.891 313.925 -113.856 312.466 -114.624C312.318 -114.697 312.24 -114.739 312.24 -114.739C312.24 -114.739 308.585 -100.284 294.211 -99.6455C279.238 -98.9866 273.453 -108.04 273.453 -108.04C273.453 -108.04 263.699 -99.0598 252.761 -103.04C247.726 -104.874 244.118 -108.175 241.692 -111.208C238.846 -114.765 237.621 -117.945 237.621 -117.945C237.621 -117.945 232.979 -117.447 227.431 -118.923C228.075 -121.166 228.456 -123.73 228.364 -126.617C228.077 -135.137 218.689 -142.443 218.689 -142.443C218.689 -142.443 221.27 -145.886 221.916 -151.321C222.098 -152.82 222.127 -154.472 221.914 -156.252C221.059 -158.065 220.265 -160.367 220.028 -162.945C219.95 -163.115 219.871 -163.284 219.793 -163.453C216.855 -169.634 210.272 -172.828 204.595 -174.469C202.985 -172.412 201.624 -171.355 201.624 -171.355C201.624 -171.355 207.157 -161.584 204.171 -151.21C203.704 -149.569 203.097 -148.126 202.394 -146.857C196.632 -136.436 184.16 -137.467 184.16 -137.467L184.228 -137.105C184.366 -136.284 184.633 -134.126 184.241 -131.331C183.652 -127.188 181.594 -121.668 175.477 -117.111C165.092 -109.369 156.509 -113.334 155.049 -114.103C154.901 -114.175 154.824 -114.218 154.824 -114.218C154.824 -114.218 151.165 -99.7537 136.794 -99.1239C121.819 -98.456 116.037 -107.519 116.037 -107.519C116.037 -107.519 106.283 -98.5381 95.3421 -102.509C90.3068 -104.343 86.6989 -107.644 84.2733 -110.677C81.4271 -114.234 80.2015 -117.414 80.2015 -117.414C80.2015 -117.414 75.7385 -116.942 70.3374 -118.307C71.0128 -120.59 71.4252 -123.222 71.3257 -126.181C71.0381 -134.701 61.6531 -142.015 61.6531 -142.015C61.6531 -142.015 64.2541 -145.492 64.8928 -150.968C65.0243 -152.14 65.0739 -153.404 64.9872 -154.748C64.8221 -157.266 64.1773 -160.052 62.7665 -163.023C62.6985 -163.16 62.6304 -163.297 62.5623 -163.434C59.5316 -169.349 53.1167 -172.436 47.5803 -174.045C45.9674 -171.978 44.6066 -170.922 44.6066 -170.922C44.6066 -170.922 50.1398 -161.151 47.1534 -150.776C46.656 -149.037 46.0058 -147.519 45.2434 -146.19C39.4189 -136.02 27.1421 -137.034 27.1421 -137.034L27.2109 -136.672C27.3485 -135.85 27.6152 -133.693 27.2138 -130.901C26.6255 -126.757 24.5676 -121.237 18.45 -116.68C8.06491 -108.939 -0.518219 -112.904 -1.97736 -113.672C-2.12558 -113.745 -2.20291 -113.787 -2.20291 -113.787C-2.20291 -113.787 -5.85858 -99.332 -20.2324 -98.6933C-35.2048 -98.0344 -40.9899 -107.088 -40.9899 -107.088C-40.9899 -107.088 -50.744 -98.1076 -61.6847 -102.079C-66.7199 -103.913 -70.3278 -107.214 -72.7535 -110.247C-75.5996 -113.803 -76.8252 -116.984 -76.8252 -116.984C-76.8252 -116.984 -81.4761 -116.489 -87.0144 -117.962C-86.3711 -120.205 -85.9874 -122.778 -86.0814 -125.656C-86.369 -134.176 -95.7568 -141.482 -95.7568 -141.482C-95.7568 -141.482 -93.1761 -144.925 -92.53 -150.36C-92.3477 -151.859 -92.319 -153.511 -92.5224 -155.288C-93.3777 -157.101 -94.1784 -159.415 -94.4153 -161.993C-94.4935 -162.162 -94.5717 -162.332 -94.6498 -162.501C-97.5883 -168.682 -104.171 -171.876 -109.848 -173.517C-111.461 -171.45 -112.822 -170.394 -112.822 -170.394C-112.822 -170.394 -107.288 -160.623 -110.275 -150.248C-110.742 -148.608 -111.349 -147.165 -112.052 -145.896C-117.811 -135.483 -130.283 -136.515 -130.283 -136.515L-130.215 -136.153C-130.077 -135.331 -129.81 -133.174 -130.212 -130.382C-130.8 -126.238 -132.858 -120.718 -138.975 -116.161C-149.361 -108.42 -157.944 -112.385 -159.403 -113.153C-159.551 -113.226 -159.626 -113.277 -159.626 -113.277C-159.626 -113.277 -163.284 -98.8131 -177.655 -98.1833C-192.63 -97.5155 -198.413 -106.578 -198.413 -106.578C-198.413 -106.578 -208.167 -97.5976 -219.107 -101.569C-224.143 -103.403 -227.751 -106.704 -230.176 -109.737C-233.022 -113.293 -234.248 -116.474 -234.248 -116.474C-234.248 -116.474 -247.861 -115.017 -256.311 -124.479C-260.166 -128.799 -261.401 -132.988 -261.608 -136.28C-261.708 -135.792 -261.794 -135.29 -261.854 -134.77C-263.324 -122.351 -253.238 -114.51 -253.014 -114.327C-253.014 -114.327 -263.234 -102.573 -259.013 -91.0574C-255.395 -81.1632 -245.408 -79.4334 -242.668 -79.1396L-241.963 -79.08C-241.963 -79.08 -243.057 -76.7441 -242.97 -73.194C-242.888 -69.8212 -241.757 -65.3604 -237.65 -60.7516C-229.209 -51.2921 -215.587 -52.7463 -215.587 -52.7463C-215.587 -52.7463 -214.493 -49.8878 -211.955 -46.5679C-209.535 -43.3896 -205.79 -39.7851 -200.447 -37.8416C-189.509 -33.8615 -179.752 -42.851 -179.752 -42.851C-179.752 -42.851 -173.97 -33.7883 -158.995 -34.4561C-144.621 -35.0949 -140.965 -49.5498 -140.965 -49.5498C-140.965 -49.5498 -140.891 -49.4987 -140.742 -49.4261C-139.286 -48.6486 -130.7 -44.6924 -120.315 -52.434C-113.478 -57.5324 -111.708 -63.8397 -111.396 -68.064C-111.241 -70.1569 -111.442 -71.7485 -111.554 -72.4256L-111.623 -72.7875C-111.623 -72.7875 -99.16 -71.759 -93.3888 -82.1779C-92.6826 -83.4554 -92.0757 -84.8987 -91.6115 -86.5302C-88.6343 -96.9071 -94.1583 -106.675 -94.1583 -106.675C-94.1583 -106.675 -92.2834 -108.129 -90.3321 -110.965C-84.8354 -109.26 -78.6912 -106.077 -75.8797 -100.167C-75.8015 -99.998 -75.7206 -99.8377 -75.6452 -99.6594C-74.5811 -97.2881 -74.0042 -95.0299 -73.755 -92.9457C-73.5397 -91.1741 -73.5803 -89.5164 -73.7598 -88.0263C-74.406 -82.5914 -76.9866 -79.1479 -76.9866 -79.1479C-76.9866 -79.1479 -67.6016 -71.8335 -67.314 -63.3136C-67.1992 -59.853 -67.7766 -56.8487 -68.6631 -54.3059C-62.9849 -52.733 -58.1581 -53.2447 -58.1581 -53.2447C-58.1581 -53.2447 -57.064 -50.3861 -54.5262 -47.0663C-52.1053 -43.888 -48.3604 -40.2834 -43.0176 -38.34C-32.0797 -34.3598 -22.3228 -43.3494 -22.3228 -43.3494C-22.3228 -43.3494 -16.5405 -34.2866 -1.56534 -34.9545C12.8085 -35.5932 16.4642 -50.0482 16.4642 -50.0482C16.4642 -50.0482 16.5387 -49.9971 16.6897 -49.9334C18.1369 -49.1586 26.7228 -45.2024 37.1171 -52.9413C43.9543 -58.0398 45.7235 -64.3471 46.0263 -68.574C46.1814 -70.6669 45.9807 -72.2585 45.8687 -72.9356L45.7999 -73.2975C45.7999 -73.2975 58.0768 -72.2844 63.9012 -82.4534C64.6637 -83.7828 65.3138 -85.3013 65.8113 -87.0402C68.7885 -97.4171 63.2645 -107.185 63.2645 -107.185C63.2645 -107.185 65.1394 -108.639 67.0907 -111.475C72.4585 -109.808 78.4471 -106.738 81.3389 -101.089C81.407 -100.952 81.475 -100.814 81.5431 -100.677C82.9567 -97.7156 83.5987 -94.921 83.7638 -92.4025C83.7638 -92.4025 83.7638 -92.4025 83.7611 -92.3935C83.8477 -91.0501 83.7982 -89.7855 83.6667 -88.6133C83.0371 -83.1345 80.4269 -79.6605 80.4269 -79.6605C80.4269 -79.6605 89.812 -72.3462 90.0996 -63.8263C90.2199 -60.286 89.6139 -57.2217 88.6859 -54.6422C94.227 -53.1778 98.8658 -53.6663 98.8658 -53.6663C98.8658 -53.6663 99.96 -50.8077 102.498 -47.4879C104.919 -44.3096 108.661 -40.6961 114.016 -38.7589C124.953 -34.7787 134.71 -43.7683 134.71 -43.7683C134.71 -43.7683 140.493 -34.7056 155.468 -35.3734C169.842 -36.0121 173.497 -50.4671 173.497 -50.4671C173.497 -50.4671 173.572 -50.416 173.72 -50.3433C175.179 -49.5748 183.762 -45.6097 194.148 -53.3513C200.994 -58.447 202.754 -64.757 203.057 -68.984C203.212 -71.0769 203.011 -72.6684 202.896 -73.3366L202.828 -73.6985C202.828 -73.6985 215.3 -72.6673 221.062 -83.0889C221.765 -84.3575 222.372 -85.8008 222.839 -87.4412C225.816 -97.8181 220.292 -107.586 220.292 -107.586C220.292 -107.586 222.176 -109.037 224.118 -111.876C229.615 -110.171 235.759 -106.988 238.571 -101.078C238.649 -100.909 238.73 -100.749 238.808 -100.579C239.872 -98.2081 240.449 -95.9499 240.689 -93.8684C240.904 -92.0968 240.864 -90.4391 240.684 -88.9489C240.038 -83.5141 237.457 -80.0705 237.457 -80.0705C237.457 -80.0705 246.842 -72.7562 247.133 -64.2453C247.248 -60.7846 246.67 -57.7803 245.774 -55.2402C251.453 -53.6673 256.279 -54.179 256.279 -54.179C256.279 -54.179 257.374 -51.3204 259.911 -48.0006C262.341 -44.8196 266.074 -41.2088 271.429 -39.2716C282.367 -35.2914 292.121 -44.272 292.121 -44.272C292.121 -44.272 297.904 -35.2093 312.879 -35.8772C327.253 -36.5159 330.908 -50.9708 330.908 -50.9708C330.908 -50.9708 330.983 -50.9197 331.134 -50.856C332.593 -50.0875 341.167 -46.1251 351.561 -53.864C358.408 -58.9597 360.168 -65.2697 360.47 -69.4967C360.625 -71.5895 360.425 -73.1811 360.31 -73.8493L360.241 -74.2112C360.241 -74.2112 375.933 -72.9118 380.253 -87.9539" fill="#FEFCF9"/>
</g>
<defs>
<clipPath id="clip0_5114_7262">
<rect width="360" height="215" fill="white"/>
</clipPath>
</defs>
</svg>
