<svg width="1920" height="357" viewBox="0 0 1920 357" fill="none" xmlns="http://www.w3.org/2000/svg">
<g clip-path="url(#clip0_5099_7215)">
<path opacity="0.3" d="M1499.75 1387.94H1064.03C900.96 1293.89 802.043 1170.45 721.24 1028.91C652.553 908.592 615.755 745.558 519.9 656.932C394.708 541.081 226.659 578.572 156.442 731.149C49.6813 963.17 232.973 1235.23 438.777 1340.05L534.823 1388H0V-85.2292L33.0358 10.7927C129.847 227.639 353.509 371.8 594.709 316.775C1118.69 197.162 912.758 -471.102 1254.91 -754.386C1396.69 -871.768 1606.38 -903.201 1785.85 -885.348C1988.97 -865.137 2224.37 -738.956 2334 -565.849L2333.49 709.024C2243.69 935.371 1994.97 1059.13 1756.51 1024.83C1456.89 981.66 1390.44 707.749 1535.66 468.523C1655.55 270.996 1809.44 120.396 1821.63 -131.774C1830.43 -313.935 1738.59 -571.332 1516.71 -552.523C1289.03 -533.204 1206.25 -229.581 1171.88 -44.7418C1110.02 288.211 1103.7 708.833 1248.6 1020.36C1310.08 1152.54 1395.86 1285.92 1499.88 1388" fill="#500C08"/>
<path opacity="0.3" d="M1033 -949C967.898 -864.308 925.814 -752.087 907.068 -647.004C874.102 -462.454 912.169 -253.306 796.821 -91.9523C697.032 47.6708 510.397 25.4305 434.072 -139.237C346.78 -327.546 442.361 -519.743 550.376 -681.224C608.082 -767.509 668.083 -848.759 700.22 -949H1033Z" fill="#500C08"/>
</g>
<defs>
<clipPath id="clip0_5099_7215">
<rect width="1920" height="357" fill="white"/>
</clipPath>
</defs>
</svg>
