<svg width="360" height="183" viewBox="0 0 360 183" fill="none" xmlns="http://www.w3.org/2000/svg">
<path d="M314.54 146.611C315.004 146.155 316.254 146.772 316.187 147.423C315.596 153.146 316.415 164.744 331.687 168.793C343.814 172.004 352.574 165.019 360 159.123V182.883H0V174.336C3.52934 171.844 17.2453 162.81 27.0723 165.479C38.4356 168.564 45.7724 174.727 57.3721 173.535C67.3932 172.512 90.6598 160.517 96.8057 157.279C97.5317 156.89 98.4514 157.372 98.6709 158.167C99.4223 160.838 101.668 165.808 108.017 166.662C116.771 167.846 121.271 165.952 133.58 169.266C145.889 172.579 160.089 175.665 172.634 173.062C185.179 170.458 194.171 156.002 206.952 156.476C219.734 156.949 226.834 162.638 228.016 166.662C229.192 170.667 228.495 175.853 228.488 175.901C228.535 175.831 237.502 162.163 246.242 164.287C254.96 166.408 257.583 174.405 257.605 174.473C257.635 174.433 261.659 168.996 271.097 162.385C280.569 155.749 283.169 156.222 296.423 155.039C305.355 154.244 311.484 149.57 314.54 146.611Z" fill="#F5EDE7"/>
<path d="M112.77 89.6533C125.315 85.8663 132.179 75.4344 142.115 78.9932C148.303 81.2079 148.067 85.7222 147.012 88.8076C146.801 89.4331 147.898 90.447 148.48 90.126C152.769 87.7506 161.229 84.0986 171.461 84.9102C186.37 86.0937 191.579 94.8181 198.915 91.4961C206.251 88.1824 214.297 82.4927 224.006 85.333C229.966 87.0829 232.532 90.5238 233.621 92.916C233.765 93.2285 234.954 93.2033 235.073 92.874C236.297 89.3068 239.683 83.4818 248.614 84.1494C261.396 85.0962 291.451 97.2942 299.978 91.8418C304.755 88.7903 304.697 85.4346 303.718 83.0762C303.65 82.9072 304.611 81.9274 304.772 82.0107C309.373 84.5805 318.761 88.5031 331.205 86.8633C341.404 85.5166 351.677 84.4777 360 84.8232V133.357C354.802 134.696 349.153 135.277 343.751 134.083C329.787 130.998 340.196 120.338 336.178 117.498C332.159 114.658 317.479 118.918 311.324 122.714C306.656 125.588 299.952 130.093 296.98 132.113C296.086 132.713 294.903 132.638 294.051 131.979C290.589 129.307 281.134 123.06 269.906 124.37C255.706 126.027 249.079 134.447 230.379 132.79C216.745 131.581 210.219 115.655 207.678 107.117C207.651 107.025 206.631 107.177 206.631 107.27C206.268 113.204 203.567 122.249 191.089 125.486C171.916 130.465 153.225 124.539 145.171 126.196C140.216 127.219 135.809 129.942 133.142 131.886C132.416 132.418 131.115 131.598 131.25 130.702C131.858 126.754 131.799 120.516 125.754 119.079C116.763 116.949 110.136 122.874 100.436 121.445C94.2391 120.532 91.2251 117.692 89.8574 115.765C89.3255 115.013 88.0342 114.801 87.3926 115.469C83.4078 119.636 71.5801 130.423 56.6543 129.273C38.191 127.853 41.7449 121.69 32.9902 121.69C26.3083 121.691 15.6279 131.489 0 135.393V84.0664C3.18421 85.0462 5.8269 86.8096 7.44434 89.6445C10.7028 95.3504 6.64154 100.795 3.78809 103.635C3.16385 104.252 3.65369 105.376 4.51465 105.207C8.49941 104.412 15.7938 102.349 22.8262 97.2266C33.235 89.6443 36.0803 87.9877 41.998 87.751C47.9107 87.5145 54.7678 93.4287 54.7803 93.4395C54.8437 93.3532 63.3446 81.8266 75.6074 82.3066C87.916 82.7802 100.216 93.4399 112.77 89.6533Z" fill="#F5EDE7"/>
<path d="M360 46.085C352.268 47.4528 344.503 48.4251 336.55 47.04C326.723 45.3325 322.544 36.634 320.872 31.1816C320.593 30.2602 318.745 30.1674 318.398 31.0635C315.975 37.3781 310.344 48.5785 300.265 50.8271C286.065 53.9887 278.491 46.4056 271.864 47.9863C267.002 49.1446 264.183 56.431 263.018 60.2266C262.781 61.0043 261.582 61.1734 261.109 60.5225C258.492 56.896 251.746 49.4911 239.674 48.3076C223.583 46.7271 220.738 55.8904 202.756 54.6309C184.774 53.3712 181.929 35.6699 181.929 35.6699C181.929 35.6699 177.193 45.4678 166.783 45.4678C156.393 45.4674 145.052 32.2445 145.011 32.1963C145.049 32.2702 153.81 49.38 135.227 52.5264C116.611 55.6879 114.399 44.3098 98.9326 43.9971C87.5275 43.7691 78.5285 53.8446 74.5859 59.1533C74.0372 59.8972 72.3903 59.4068 72.2637 58.4854C71.5713 53.3542 68.5322 44.8846 56.0127 44.6309C40.5464 44.3181 40.8667 55.6876 18.4609 56.0088C9.60143 56.1327 4.09921 52.6812 0 48.3467V8.82617C2.68173 8.42937 5.37611 8.42998 8.05176 9.11816C15.9873 11.1638 17.9037 22.026 18.3428 27.9688C18.3934 28.6365 19.702 28.8822 19.9893 28.2822C22.7245 22.644 29.2249 12.3648 40.2334 12.5928C55.3788 12.9055 71.1581 17.3347 80.3096 13.8604C89.4609 10.3861 100.503 4.69795 111.866 7.53809C123.23 10.3784 123.543 16.0673 142.791 12.2803C154.796 9.92179 158.822 5.22135 160.156 2.01758C160.224 1.84863 161.741 1.74745 161.836 1.91602C163.972 5.71999 170.414 10.9279 189.814 5.96582C218.214 -1.30387 221.371 18.916 221.371 18.916C221.371 18.916 229.257 9.43922 243.777 13.5391C253.156 16.1933 255.554 22.2799 256.077 26.2529C256.102 26.4388 257.327 26.659 257.403 26.4902C259.362 22.2806 263.726 15.8476 271.864 16.7012C283.7 17.9522 301.074 20.4288 305.769 3.77637C305.878 3.39601 306.166 3.28535 306.402 3.60645C307.973 5.77893 313.325 14.2158 325.194 10.0654C334.055 6.96815 348.447 0.914221 360 0V46.085Z" fill="#F5EDE7"/>
</svg>
