<svg width="1920" height="359" viewBox="0 0 1920 359" fill="none" xmlns="http://www.w3.org/2000/svg">
<path d="M109.004 279.957C107.634 277.043 111.424 273.517 114.164 275.236C124.718 281.822 140.635 291.059 153.783 296.071C191.158 310.262 230.748 303.472 265.906 293.652C301.065 283.861 347.768 280.802 364.123 309.417C375.376 329.086 361.354 347.852 351.5 357.642C351.091 358.046 350.821 358.513 350.671 359H0V324.103C0 324.103 28.1617 323.287 56.79 331.475C85.3893 339.664 117.254 332.291 118.1 313.496C118.566 302.802 113.464 289.485 109.004 279.957Z" fill="#F5EDE7"/>
<path d="M727.839 309.446C771.16 296.392 794.862 260.434 829.175 272.701C850.544 280.335 849.728 295.896 846.084 306.532C845.355 308.688 849.145 312.185 851.156 311.078C865.966 302.89 895.178 290.301 930.512 293.098C981.996 297.178 999.983 327.249 1025.32 315.798C1050.65 304.375 1078.43 284.765 1111.96 294.555C1132.54 300.587 1141.41 312.447 1145.17 320.693C1145.66 321.771 1149.77 321.684 1150.18 320.548C1154.41 308.251 1166.1 288.174 1196.94 290.476C1241.08 293.74 1344.87 335.788 1374.31 316.993C1390.81 306.474 1390.61 294.905 1387.23 286.775C1386.99 286.192 1390.31 282.813 1390.87 283.104C1406.76 291.963 1439.18 305.483 1482.15 299.83C1544.27 291.642 1607.19 286.746 1632.55 305.541C1649.72 318.275 1646.63 334.739 1642.84 344.063C1641.59 347.152 1643.86 350.561 1647.1 349.717C1655.46 347.531 1670.89 342.344 1695.46 330.048C1736.33 309.621 1738.78 304.725 1763.3 310.436C1779.07 314.108 1789.07 324.889 1794.23 332.116C1796.39 335.146 1801.32 335.7 1804.03 333.165C1813.44 324.306 1834.41 308.688 1863.82 310.466C1904.62 312.909 1919.92 321.072 1919.97 321.101V359H369.96C383.49 354.82 400.578 347.67 417.24 335.554C453.186 309.417 463.011 303.705 483.447 302.889C503.837 302.075 527.477 322.407 527.585 322.5C527.642 322.423 557.042 282.465 599.506 284.124C642.011 285.756 684.488 322.5 727.839 309.446Z" fill="#F5EDE7"/>
<path d="M1461.39 35.0994C1508.24 18.7522 1599.87 -21.4888 1632.52 14.5564C1649.57 33.4094 1636.83 50.5431 1626.28 59.9842C1623.92 62.0823 1625.61 66.5695 1628.73 66.1033C1646.14 63.4808 1678.41 56.5751 1705.46 39.2664C1744.7 14.2067 1769.77 -3.21916 1811.17 12.0496C1836.65 21.4325 1847.29 33.2927 1851.69 41.0437C1853.39 44.0158 1858.46 45.3562 1860.94 43.0252C1869.54 34.8662 1885.22 21.1996 1895.07 19.6844C1909.24 17.499 1919.88 19.6844 1919.88 19.6844V157.309C1919.88 157.309 1897.26 176.92 1849.3 172.55C1816.33 169.548 1795.22 146.994 1785.25 133.182C1783.39 130.618 1777.56 131.93 1776.86 135.018C1773.8 148.743 1764.93 169.344 1739.25 173.628C1700.01 180.155 1696.74 144.226 1647.71 148.596C1598.67 152.938 1550.72 171.267 1500.6 162.554C1466.67 156.668 1452.24 126.684 1446.46 107.889C1445.5 104.713 1439.12 104.392 1437.92 107.481C1429.56 129.248 1410.11 167.858 1375.3 175.609C1326.27 186.507 1300.12 160.369 1277.23 165.818C1260.44 169.81 1250.7 194.928 1246.68 208.012C1245.86 210.692 1241.72 211.276 1240.09 209.032C1231.05 196.531 1207.76 171.005 1166.07 166.926C1110.5 161.477 1100.68 193.063 1038.58 188.721C976.486 184.379 966.661 123.362 966.661 123.362C966.633 123.421 950.275 157.135 914.36 157.135C878.415 157.134 839.175 111.386 839.175 111.386C839.175 111.386 869.698 170.597 805.386 181.466C741.103 192.364 733.465 153.142 680.057 152.064C640.671 151.277 609.593 186.012 595.979 204.311C594.083 206.875 588.4 205.185 587.962 202.01C585.571 184.322 575.076 155.124 531.842 154.25C478.433 153.172 479.541 192.364 402.168 193.471C324.971 194.549 321.559 117.184 283.66 110.337C283.485 110.308 283.34 110.337 283.369 110.512C283.486 114.766 298.295 176.366 226.754 196.327C152.714 216.997 111.324 159.396 111.249 159.291C111.249 159.291 88.3632 183.856 57.8398 191.49C27.3748 199.095 0 187.119 0 187.119V32.4471C0.0877198 32.3816 26.3068 12.8445 50.2305 17.2078C68.5385 20.5297 89.3833 48.8818 98.2168 62.1111C99.7619 64.413 103.786 63.7725 104.689 61.1502C109.879 46.3474 126.03 16.1586 170.08 25.3084C227.832 37.2846 223.488 54.7097 256.169 53.6316C288.85 52.5535 328.09 22.0449 366.223 31.8357C393.626 38.8876 400.244 76.3313 401.76 96.8162C401.935 99.1182 406.454 99.9632 407.445 97.8943C416.891 78.4584 439.339 43.0255 477.354 43.8123C529.655 44.8905 584.142 60.1585 615.744 48.1824C647.346 36.2062 685.479 16.5959 724.719 26.3865C763.959 36.1773 765.038 55.7884 831.507 42.7342C872.963 34.6043 886.869 18.402 891.476 7.35819C891.711 6.77565 896.956 6.42598 897.277 7.00858C904.653 20.1213 926.897 38.0714 993.891 20.9666C1091.96 -4.09317 1102.87 65.6082 1102.87 65.6082C1102.87 65.6082 1130.09 32.9428 1180.24 47.075C1212.63 56.2247 1220.91 77.2057 1222.71 90.9012C1222.8 91.5422 1227.03 92.2993 1227.29 91.7166C1234.05 77.2052 1249.13 55.0304 1277.23 57.9734C1318.1 62.286 1378.1 70.8239 1394.31 13.4197C1394.69 12.1085 1395.68 11.7295 1396.5 12.8367C1401.92 20.3255 1420.4 49.4068 1461.39 35.0994Z" fill="#F5EDE7"/>
</svg>
