<svg width="461" height="231" viewBox="0 0 461 231" fill="none" xmlns="http://www.w3.org/2000/svg">
<g clip-path="url(#clip0_3143_4744)">
<path d="M456.155 81.8594H437.514C435.382 81.8594 433.615 83.5939 433.615 85.7545V104.287H419.391C416.649 104.287 414.426 106.508 414.426 109.247V118.498C414.426 121.237 416.649 123.458 419.391 123.458H433.615V140.104H419.391C416.649 140.104 414.426 142.325 414.426 145.064V154.315C414.426 157.054 416.649 159.275 419.391 159.275H433.615V178.447C433.615 180.577 435.351 182.342 437.514 182.342H456.155C458.287 182.342 460.054 180.607 460.054 178.447V85.7849C460.054 83.6548 458.317 81.8898 456.155 81.8898V81.8594Z" fill="#571B0A"/>
<path d="M296.913 81.0391H281.165C278.121 81.0391 275.652 83.5051 275.652 86.547V225.494C275.652 228.536 278.121 231.002 281.165 231.002H296.913C299.958 231.002 302.426 228.536 302.426 225.494V86.547C302.426 83.5051 299.958 81.0391 296.913 81.0391Z" fill="#571B0A"/>
<path d="M212.271 85.5391C184.797 85.5391 162.074 107.632 162.074 135.872C162.074 164.111 184.797 186.204 212.271 186.204C239.745 186.204 262.468 164.111 262.468 135.872C262.468 107.632 239.745 85.5391 212.271 85.5391ZM211.692 162.559C198.199 162.559 188.391 151.483 188.391 136.237C188.391 120.991 198.199 109.914 211.692 109.914C225.186 109.914 234.994 120.991 234.994 136.237C234.994 151.483 225.186 162.559 211.692 162.559Z" fill="#571B0A"/>
<path d="M133.746 143.387H146.417C149.128 143.387 151.321 141.196 151.321 138.488V127.837C151.321 125.129 149.128 122.938 146.417 122.938H133.746" fill="#571B0A"/>
<path d="M114.432 81.8281C110.838 81.8281 107.914 84.7495 107.914 88.3403V122.818V143.268V224.366C107.914 227.957 110.838 230.878 114.432 230.878H127.225C130.819 230.878 133.743 227.957 133.743 224.366V143.268V122.818V88.3403C133.743 84.7495 130.819 81.8281 127.225 81.8281H114.432Z" fill="#571B0A"/>
<path d="M52.2675 114.875C25.4634 114.875 6 132.647 6 157.143C6 181.64 25.4634 198.986 52.2675 198.986C79.0716 198.986 98.5655 181.397 98.5655 157.143C98.5655 132.89 79.1021 114.875 52.2675 114.875ZM74.7464 155.774C74.7464 169.863 63.4461 177.228 52.2675 177.228C41.089 177.228 29.7886 169.863 29.7886 155.774C29.7886 141.685 41.089 134.32 52.2675 134.32C65.0908 134.32 74.7464 143.541 74.7464 155.774Z" fill="#571B0A"/>
<path d="M95.3373 113.479H53.1513C50.2272 113.479 49.6485 109.523 52.3594 108.458C60.5224 105.324 68.6246 102.19 76.6963 98.964C80.7473 97.3512 85.2553 95.2514 85.4685 90.2912C85.5599 88.0393 84.9507 85.0571 83.0927 83.5356C81.2956 82.0749 78.8893 81.375 76.5744 81.375H20.6513C17.5445 81.375 15.0164 83.9008 15.0164 87.0047V93.9733C15.0164 97.0773 17.5445 99.603 20.6513 99.603H41.1808C43.3434 99.603 43.8613 102.646 41.79 103.316L6.97516 113.753H7.06653C3.01546 114.849 0 118.501 0 122.883V124.465C0 128.421 3.25913 131.677 7.21883 131.677H95.3373C98.8096 131.677 101.642 128.847 101.642 125.378V119.748C101.642 116.279 98.8096 113.449 95.3373 113.449V113.479Z" fill="#571B0A"/>
<path d="M455.15 208.148H448.479V208.209C448.205 208.209 447.931 208.178 447.657 208.178C432.062 208.209 422.894 208.178 407.116 208.178C398.283 208.178 395.328 208.3 386.464 208.178C380.555 208.087 370.717 208.118 370.717 199.475C370.717 194.119 377.144 191.076 383.266 187.059C388.962 183.316 396.181 178.874 401.724 174.948C405.928 171.966 410.954 169.47 410.954 163.567C410.954 158.272 406.659 153.951 401.328 153.951H356.218C354.878 153.951 353.782 152.825 353.782 151.486V109.278C353.782 107.24 355.426 105.596 357.467 105.596H378.24C380.281 105.596 381.926 107.24 381.926 109.278V139.344C381.926 141.261 383.479 142.813 385.398 142.813H407.512C409.431 142.813 410.984 141.261 410.984 139.344V102.005C410.984 94.8847 404.984 85.0859 396.029 85.0859H341.08C332.491 85.0859 325.059 91.7199 325.059 101.093V156.69C325.059 166.336 334.166 173.609 343.304 173.609H378.423L366.148 180.365C350.492 188.946 338.156 194.424 337.608 210.187C337.212 221.233 347.294 229.906 358.35 229.906L447.901 230.302C448.114 230.302 448.327 230.302 448.51 230.302V230.423H455.18C458.409 230.423 461.028 227.806 461.028 224.581V213.991C461.028 210.765 458.409 208.148 455.18 208.148H455.15Z" fill="#571B0A"/>
<path d="M106.728 18.7796L107.368 21.0619L113.825 19.2057C114.678 18.9622 115.287 19.5708 115.531 20.3925C115.775 21.2141 115.592 22.0662 114.709 22.3096L97.7732 27.1481C96.9204 27.3915 96.3112 26.7829 96.0675 25.9613C95.8239 25.1397 96.0066 24.2876 96.8899 24.0442L103.713 22.0966L103.073 19.8143C102.769 18.7796 103.53 18.0493 104.444 17.7754C105.388 17.5015 106.393 17.7146 106.698 18.7796H106.728ZM116.475 30.5563C117.511 34.208 115.318 37.4033 110.505 38.8031C105.693 40.1725 102.129 38.6205 101.063 34.9688C100.027 31.3171 102.22 28.1219 107.033 26.7221C111.845 25.3527 115.409 26.9047 116.475 30.5563ZM104.322 34.0255C104.84 35.8817 106.789 36.7642 109.683 35.9426C112.607 35.0905 113.734 33.3256 113.216 31.4997C112.668 29.613 110.779 28.7609 107.855 29.5826C104.962 30.4042 103.774 32.1692 104.322 34.0255ZM110.262 42.4852L111.632 47.2324C111.784 47.7802 112.028 47.9019 112.607 47.7497L128.507 43.1851C129.42 42.9112 130.03 43.5199 130.273 44.4024C130.517 45.224 130.334 46.076 129.42 46.3195L111.876 51.3406C109.774 51.9492 108.891 51.4927 108.312 49.4234L106.637 43.5503C106.332 42.5156 107.063 41.7853 108.038 41.5114C108.952 41.2376 109.987 41.4506 110.292 42.5156L110.262 42.4852ZM120.831 14.8236L123.176 22.9487L127.197 21.7923C128.111 21.5184 128.689 22.0966 128.933 22.9791C129.177 23.8311 128.994 24.6528 128.08 24.8962L124.06 26.0526L127.075 36.5816C127.38 37.6163 126.649 38.3466 125.704 38.6205C124.791 38.8944 123.785 38.6509 123.481 37.6163L117.237 15.8583C116.932 14.8236 117.663 14.0933 118.577 13.8194C119.521 13.5455 120.526 13.7586 120.831 14.8236Z" fill="#571B0A"/>
<path d="M110.445 52.0377C109.105 52.0377 108.374 51.2769 107.856 49.5424L106.18 43.6388C105.845 42.452 106.546 41.4173 107.917 41.0217C108.617 40.8087 109.318 40.8696 109.836 41.1739C110.292 41.4173 110.597 41.8129 110.749 42.3607L112.12 47.1079C112.181 47.2905 112.211 47.3209 112.211 47.3513C112.211 47.3513 112.272 47.3513 112.486 47.2905L128.385 42.7259C128.873 42.6041 129.329 42.6346 129.725 42.8476C130.182 43.091 130.548 43.6083 130.731 44.2778C131.066 45.4951 130.609 46.4688 129.543 46.7731L111.998 51.7942C111.389 51.9768 110.871 52.0377 110.445 52.0377ZM108.709 41.8434C108.526 41.8434 108.343 41.8434 108.13 41.9347C107.795 42.0259 106.759 42.4215 107.033 43.3953L108.709 49.2989C109.226 51.0943 109.836 51.4291 111.694 50.8813L129.238 45.8602C129.969 45.6472 129.878 44.9169 129.756 44.5213C129.634 44.0952 129.451 43.8214 129.208 43.6692C129.025 43.5779 128.842 43.5475 128.598 43.6388L112.699 48.2034C112.394 48.2947 112.029 48.3555 111.694 48.173C111.359 47.9904 111.237 47.6252 111.145 47.3818L109.775 42.6346C109.683 42.3607 109.531 42.1477 109.318 42.0259C109.135 41.9347 108.922 41.8738 108.678 41.8738L108.709 41.8434ZM107.277 39.7436C103.957 39.7436 101.49 38.0699 100.637 35.0877C100.089 33.1402 100.363 31.2839 101.49 29.7015C102.586 28.1495 104.475 26.9627 106.911 26.2628C111.846 24.8326 115.806 26.4758 116.933 30.4014C117.481 32.349 117.207 34.2052 116.08 35.7876C114.983 37.3396 113.095 38.5264 110.658 39.2263C109.47 39.5611 108.343 39.7436 107.307 39.7436H107.277ZM110.292 26.6888C109.318 26.6888 108.282 26.841 107.155 27.1757C104.901 27.8148 103.226 28.8799 102.221 30.2797C101.277 31.6186 101.033 33.201 101.49 34.8443C102.464 38.283 105.876 39.6219 110.353 38.3438C112.577 37.7048 114.283 36.6397 115.288 35.2399C116.232 33.9009 116.476 32.3185 116.019 30.6753C115.288 28.0887 113.186 26.6888 110.292 26.6888ZM125.004 39.1959C124.06 39.1959 123.299 38.6786 123.024 37.7352L116.78 15.9772C116.445 14.7904 117.115 13.7558 118.425 13.3602C119.004 13.1776 119.613 13.208 120.07 13.3602C120.649 13.5732 121.045 14.0296 121.227 14.6687L123.42 22.3372L126.984 21.3026C127.563 21.1504 128.081 21.2113 128.507 21.546C128.873 21.8199 129.147 22.2459 129.299 22.7937C129.451 23.3415 129.451 23.8588 129.299 24.2848C129.116 24.8021 128.69 25.1369 128.142 25.289L124.578 26.3237L127.471 36.3963C127.654 37.0353 127.563 37.6135 127.167 38.1308C126.862 38.5264 126.375 38.8611 125.766 39.0133C125.492 39.1046 125.217 39.135 124.943 39.135L125.004 39.1959ZM119.308 14.1818C119.126 14.1818 118.943 14.1818 118.73 14.2731C118.516 14.3339 117.42 14.6991 117.724 15.7033L123.969 37.4613C124.273 38.4655 125.37 38.2221 125.583 38.1612C125.979 38.0395 126.314 37.8569 126.497 37.6135C126.679 37.37 126.74 37.0657 126.649 36.731L123.512 25.7759L127.989 24.4978C128.263 24.4065 128.446 24.2544 128.538 24.0414C128.629 23.8283 128.629 23.4936 128.538 23.1589C128.446 22.7937 128.294 22.5503 128.081 22.3981C127.898 22.2459 127.654 22.2155 127.38 22.3068L122.903 23.5849L120.435 15.0034C120.344 14.6687 120.131 14.4252 119.826 14.3339C119.674 14.2731 119.522 14.2427 119.339 14.2427L119.308 14.1818ZM107.642 36.7006C107.003 36.7006 106.424 36.6093 105.937 36.3963C104.901 36.0007 104.17 35.2095 103.866 34.1444C103.561 33.0489 103.744 32.0142 104.414 31.1013C105.084 30.2188 106.211 29.5189 107.703 29.0929C110.719 28.2408 113.003 29.0929 113.643 31.3143C113.948 32.3794 113.765 33.4445 113.095 34.327C112.425 35.2095 111.267 35.9094 109.775 36.3354C109.013 36.5484 108.282 36.6701 107.612 36.6701L107.642 36.7006ZM109.927 29.7015C109.348 29.7015 108.678 29.7928 107.978 30.0058C106.698 30.371 105.724 30.9491 105.175 31.6795C104.688 32.349 104.536 33.0793 104.779 33.9009C104.993 34.6921 105.541 35.2399 106.302 35.5442C107.155 35.8789 108.282 35.8485 109.561 35.4833C110.871 35.1182 111.846 34.54 112.394 33.8096C112.881 33.1706 113.003 32.4098 112.79 31.6186C112.425 30.371 111.45 29.7319 109.957 29.7319L109.927 29.7015ZM97.4387 27.6931C97.1645 27.6931 96.8904 27.6322 96.6467 27.48C96.1898 27.2366 95.8243 26.7193 95.6416 26.0802C95.4893 25.5629 95.4893 25.0456 95.6416 24.6195C95.8243 24.1022 96.2203 23.7371 96.7686 23.5849L103.165 21.7591L102.647 19.9332C102.312 18.7768 103.013 17.7118 104.353 17.3162C105.724 16.9206 106.851 17.4683 107.186 18.6247L107.703 20.4505L113.734 18.716C114.283 18.5638 114.831 18.6551 115.257 18.9899C115.623 19.2637 115.897 19.6898 116.049 20.2375C116.384 21.4243 115.927 22.4285 114.892 22.7328L97.9565 27.5713C97.7737 27.6322 97.6214 27.6322 97.4387 27.6322V27.6931ZM105.206 18.1682C104.962 18.1682 104.749 18.2291 104.627 18.2595C104.505 18.2899 103.287 18.6855 103.591 19.7202L104.383 22.459L97.1036 24.5587C96.8295 24.6195 96.6772 24.7717 96.5858 25.0151C96.4944 25.2586 96.4944 25.5629 96.5858 25.8976C96.7076 26.2932 96.8904 26.5975 97.1341 26.7193C97.3168 26.8106 97.4996 26.841 97.7128 26.7497L114.648 21.9112C115.379 21.6982 115.227 20.907 115.135 20.5723C115.044 20.2375 114.892 19.9636 114.679 19.8115C114.496 19.6593 114.283 19.6289 114.008 19.6898L107.094 21.6678L106.302 18.929C106.12 18.3204 105.632 18.1682 105.236 18.1682H105.206Z" fill="#571B0A"/>
<path d="M157.962 19.9837C158.114 17.6405 157.962 15.2365 157.566 12.8324L157.322 11.4631C157.231 10.9153 157.018 10.7632 156.408 10.8544L139.504 13.8062C138.62 13.9584 138.102 13.2889 137.981 12.4368C137.828 11.5544 138.072 10.7327 138.955 10.5806L157.475 7.35491C159.637 6.98974 160.429 7.5375 160.825 9.63722L161.221 11.9804C161.647 14.5061 161.708 17.2449 161.556 19.3751L165.729 18.6447C166.612 18.4926 167.161 19.162 167.313 20.0141C167.465 20.8357 167.161 21.5965 166.277 21.7487L153.819 23.9093L154.794 29.5389L161.495 28.3826C163.658 28.0174 164.45 28.5652 164.846 30.6649L166.186 38.3943C166.369 39.4594 165.546 40.0984 164.572 40.281C163.658 40.4332 162.683 40.1288 162.47 39.0333L161.312 32.3994C161.221 31.8517 160.947 31.6995 160.399 31.7908L142.976 34.8339C142.093 34.986 141.575 34.3166 141.453 33.4645C141.301 32.6429 141.544 31.8517 142.428 31.6995L151.139 30.178L150.164 24.5483L137.707 26.7089C136.823 26.861 136.275 26.222 136.153 25.4308C136.001 24.5787 136.275 23.7571 137.158 23.6049L157.901 19.9837H157.962Z" fill="#571B0A"/>
<path d="M164.145 40.7725C163.749 40.7725 163.353 40.6812 163.049 40.5291C162.5 40.2552 162.135 39.7683 162.043 39.0988L160.886 32.4649C160.856 32.2823 160.825 32.2215 160.795 32.2215C160.795 32.2215 160.734 32.2215 160.521 32.2215L143.098 35.2646C142.641 35.3559 142.215 35.2646 141.849 35.0211C141.423 34.7168 141.118 34.1995 140.996 33.53C140.905 33.0127 140.966 32.4954 141.148 32.0998C141.392 31.6129 141.819 31.3086 142.367 31.1868L150.621 29.7566L149.799 25.0703L137.798 27.17C136.732 27.383 135.909 26.6831 135.696 25.4963C135.483 24.2791 136.062 23.3053 137.097 23.1227L157.475 19.5623C157.596 17.4321 157.475 15.1803 157.048 12.8979L156.804 11.5286C156.774 11.346 156.744 11.2851 156.744 11.2851C156.744 11.2851 156.744 11.2851 156.683 11.2851C156.652 11.2851 156.561 11.2851 156.439 11.2851L139.534 14.2369C139.077 14.3282 138.651 14.2369 138.285 13.9935C137.859 13.6891 137.554 13.1718 137.432 12.5023C137.311 11.8024 137.432 11.1938 137.707 10.7678C137.95 10.4331 138.316 10.1896 138.773 10.0983L157.292 6.87265C159.698 6.44662 160.764 7.17696 161.16 9.55056L161.556 11.8937C161.922 14.0239 162.074 16.4888 161.922 18.8015L165.516 18.1625C166.064 18.0407 166.582 18.2233 166.978 18.5885C167.313 18.8928 167.526 19.3493 167.617 19.897C167.831 21.0838 167.252 21.9967 166.216 22.1793L154.215 24.2791L155.038 28.9958L161.282 27.9003C162.531 27.6873 163.353 27.7786 163.962 28.1742C164.572 28.6002 164.937 29.3306 165.15 30.5478L166.491 38.2772C166.612 38.9163 166.43 39.5249 165.973 39.9813C165.607 40.3465 165.089 40.6204 164.48 40.7117C164.297 40.7421 164.145 40.7725 163.962 40.7725H164.145ZM160.703 31.3086C161.312 31.3086 161.678 31.6433 161.8 32.3128L162.957 38.9467C163.018 39.3119 163.201 39.5553 163.475 39.7075C163.749 39.8596 164.115 39.89 164.511 39.8292C164.937 39.7683 165.272 39.5857 165.485 39.3727C165.729 39.1293 165.79 38.8554 165.729 38.4902L164.389 30.7608C164.237 29.8175 163.962 29.2697 163.597 28.9958C163.201 28.7219 162.592 28.6915 161.617 28.8741L154.459 30.1218L153.302 23.5791L166.216 21.3273C166.978 21.2055 166.917 20.4448 166.856 20.11C166.795 19.7753 166.673 19.471 166.491 19.3188C166.308 19.1363 166.095 19.1058 165.82 19.1363L161.038 19.9579L161.099 19.3493C161.282 16.9757 161.16 14.3282 160.764 12.0763L160.368 9.73315C160.033 7.9073 159.485 7.5117 157.566 7.84644L139.047 11.0721C138.834 11.1025 138.681 11.1938 138.59 11.346C138.438 11.559 138.377 11.9242 138.468 12.3806C138.529 12.8067 138.712 13.111 138.925 13.2631C139.077 13.3544 139.26 13.3848 139.473 13.3544L156.378 10.4026C157.2 10.2505 157.688 10.5548 157.84 11.3764L158.084 12.7458C158.51 15.2411 158.662 17.6756 158.48 19.9883V20.3535L137.341 24.0356C136.58 24.1573 136.64 24.979 136.701 25.3137C136.762 25.618 136.945 26.3483 137.707 26.2266L150.621 23.9747L151.779 30.5174L142.61 32.0998C142.336 32.1606 142.184 32.2823 142.062 32.4649C141.971 32.6779 141.94 32.9823 142.001 33.317C142.062 33.743 142.245 34.0473 142.458 34.1995C142.61 34.2908 142.763 34.3212 143.006 34.2908L160.429 31.2477C160.429 31.2477 160.673 31.2173 160.764 31.2173L160.703 31.3086Z" fill="#571B0A"/>
<path d="M192.382 12.4733C192.808 17.403 190.249 21.4503 184.401 21.9372C178.553 22.4241 175.355 18.8941 174.928 13.9644C174.502 9.06501 177.061 5.01771 182.909 4.53082C188.757 4.04393 191.955 7.5739 192.382 12.4733ZM178.523 13.6601C178.766 16.6423 180.411 19.0767 184.127 18.7724C187.843 18.4681 189.031 15.7902 188.787 12.7776C188.544 9.79534 186.899 7.39131 183.183 7.69562C179.467 7.99993 178.248 10.6474 178.523 13.6296V13.6601ZM184.889 26.5627L185.437 32.8923C185.498 33.4401 185.68 33.6226 186.29 33.5618L203.164 32.1315C204.108 32.0402 204.565 32.7706 204.657 33.6531C204.717 34.5051 204.382 35.2963 203.438 35.3876L184.889 36.97C182.726 37.1526 181.934 36.544 181.751 34.4138L181.112 26.8974C181.02 25.8019 181.873 25.2542 182.878 25.1629C183.822 25.0716 184.797 25.4976 184.889 26.5627ZM201.123 2.85713L203.012 25.0412C203.103 26.1367 202.25 26.6844 201.276 26.7757C200.301 26.867 199.357 26.441 199.265 25.3759L197.377 3.19187C197.285 2.09636 198.138 1.54861 199.113 1.45731C200.088 1.36602 201.032 1.79205 201.123 2.85713Z" fill="#571B0A"/>
<path d="M184.216 37.491C183.333 37.491 182.724 37.3084 182.267 36.9433C181.688 36.4868 181.384 35.6956 181.292 34.4784L180.653 26.962C180.561 25.7448 181.445 24.8318 182.846 24.7101C183.455 24.6492 184.003 24.771 184.46 25.0448C185.008 25.3796 185.313 25.8969 185.374 26.536L185.922 32.8656C185.922 33.0481 185.983 33.109 185.983 33.109C185.983 33.109 185.983 33.109 186.135 33.109C186.166 33.109 186.227 33.109 186.288 33.109L203.162 31.6788C204.258 31.557 205.05 32.3482 205.172 33.6263C205.233 34.1741 205.111 34.6914 204.868 35.0566C204.563 35.513 204.106 35.7869 203.527 35.8478L184.978 37.4302C184.734 37.4302 184.49 37.4606 184.277 37.4606L184.216 37.491ZM183.12 25.623C183.12 25.623 182.998 25.623 182.937 25.623C182.602 25.623 181.505 25.836 181.597 26.8403L182.236 34.3567C182.328 35.3304 182.511 35.8782 182.876 36.1825C183.242 36.4868 183.851 36.5781 184.856 36.4868L203.406 34.9044C203.71 34.9044 203.893 34.7523 204.045 34.5392C204.167 34.3262 204.228 34.0219 204.198 33.6872C204.167 33.2307 204.015 32.5308 203.223 32.5917L186.348 34.0219C186.044 34.0219 185.648 34.0219 185.374 33.8089C185.069 33.5655 185.008 33.1699 185.008 32.9264L184.46 26.5968C184.46 26.2316 184.277 25.9882 184.003 25.8056C183.79 25.6535 183.485 25.5926 183.15 25.5926L183.12 25.623ZM201.03 27.2359C200.512 27.2359 200.055 27.1141 199.69 26.9011C199.172 26.5664 198.837 26.0491 198.806 25.41L196.918 3.22598C196.857 2.5565 197.07 2.00875 197.557 1.58272C197.953 1.24798 198.502 1.03497 199.111 0.974104C200.542 0.852381 201.517 1.58272 201.639 2.83038L203.527 25.0144C203.619 26.2316 202.766 27.1446 201.365 27.2663C201.273 27.2663 201.182 27.2663 201.091 27.2663L201.03 27.2359ZM199.324 1.91746C199.324 1.91746 199.172 1.91746 199.141 1.91746C198.745 1.94789 198.38 2.10004 198.136 2.28263C197.893 2.49564 197.801 2.76952 197.832 3.13469L199.72 25.3187C199.751 25.6839 199.903 25.9273 200.177 26.1099C200.451 26.2621 200.817 26.3534 201.213 26.3229C201.548 26.3229 202.614 26.1099 202.522 25.1057L200.634 2.92167C200.573 2.03918 199.751 1.91746 199.324 1.91746ZM183.333 22.4582C178.277 22.4582 174.896 19.2934 174.439 13.9985C173.952 8.33835 177.18 4.5345 182.876 4.04761C185.77 3.80417 188.237 4.50407 190.004 6.1169C191.648 7.60801 192.623 9.79903 192.867 12.4161C193.08 15.0636 192.501 17.4067 191.131 19.1413C189.669 21.028 187.354 22.1539 184.46 22.3974C184.094 22.4278 183.729 22.4582 183.363 22.4582H183.333ZM183.973 4.9301C183.638 4.9301 183.303 4.9301 182.967 4.96053C177.789 5.417 174.957 8.73395 175.414 13.8768C175.871 19.05 179.221 21.88 184.399 21.4236C187.019 21.2106 189.12 20.2064 190.43 18.5327C191.648 16.9807 192.197 14.881 191.983 12.4465C191.77 10.0425 190.887 8.06447 189.425 6.75595C188.054 5.50829 186.196 4.86924 184.034 4.86924L183.973 4.9301ZM183.516 19.263C180.378 19.263 178.368 17.2241 178.064 13.6942C177.759 9.95118 179.647 7.54715 183.15 7.24284C186.653 6.93854 188.937 9.00783 189.273 12.7508C189.577 16.5242 187.689 18.9283 184.186 19.2326C183.973 19.2326 183.729 19.2326 183.516 19.2326V19.263ZM178.977 13.6029C179.13 15.4896 180.013 18.624 184.064 18.2892C188.115 17.9545 188.45 14.6984 188.298 12.8117C188.146 10.925 187.262 7.82103 183.211 8.1862C179.16 8.52094 178.825 11.7466 178.977 13.6333V13.6029Z" fill="#571B0A"/>
<path d="M235.538 24.5543C235.63 25.4064 235.294 26.1976 234.411 26.2889C228.38 26.8975 221.344 27.1713 213.973 27.2018C213.059 27.2018 212.663 26.4714 212.633 25.5889C212.633 24.7369 213.029 23.9761 213.943 23.9761C220.613 23.9457 227.162 23.824 234.107 23.124C234.959 23.0328 235.477 23.6414 235.508 24.5543H235.538ZM232.797 10.6474C232.827 15.3338 229.751 18.8942 223.75 18.955C217.72 18.9855 214.613 15.4859 214.582 10.7692C214.552 6.11325 217.628 2.55285 223.629 2.52242C229.66 2.49199 232.766 5.99153 232.797 10.6474ZM218.176 10.7692C218.176 13.6296 219.973 15.8207 223.75 15.8207C227.527 15.8207 229.264 13.5688 229.264 10.7083C229.264 7.8478 227.466 5.68722 223.69 5.71765C219.913 5.71765 218.176 7.93909 218.176 10.7996V10.7692ZM241.112 2.03553L241.295 31.3708C241.295 32.4663 240.412 32.9532 239.437 32.9532C238.493 32.9532 237.579 32.4663 237.579 31.3708L237.396 2.03553C237.396 0.940017 238.279 0.453125 239.224 0.453125C240.198 0.453125 241.112 0.940017 241.112 2.00509V2.03553Z" fill="#571B0A"/>
<path d="M239.407 33.4122C238.036 33.4122 237.123 32.5905 237.092 31.3733L236.909 2.03804C236.909 1.49029 237.092 1.0034 237.458 0.638227C237.884 0.212196 238.493 -0.03125 239.224 -0.03125C239.834 -0.03125 240.382 0.120904 240.808 0.425212C241.326 0.790381 241.57 1.33813 241.57 2.00761L241.752 31.3429C241.752 32.5601 240.808 33.4122 239.407 33.4122ZM239.224 0.942535C238.737 0.881673 238.341 1.09469 238.128 1.33813C237.945 1.52072 237.854 1.76417 237.854 2.06847L238.036 31.4037C238.036 32.4688 239.224 32.5297 239.407 32.4992C239.742 32.4992 240.808 32.408 240.808 31.3733L240.625 2.03804C240.625 1.67287 240.504 1.399 240.23 1.21641C239.986 1.03383 239.62 0.942535 239.224 0.942535ZM213.974 27.6912C213.517 27.6912 213.09 27.539 212.786 27.2347C212.42 26.8696 212.207 26.2914 212.207 25.6219C212.207 25.0741 212.329 24.5872 212.603 24.2221C212.938 23.7656 213.395 23.5526 213.974 23.5222C220.218 23.4917 226.919 23.37 234.107 22.6701C234.595 22.6092 235.051 22.7614 235.386 23.0353C235.782 23.37 235.996 23.8873 236.026 24.5264C236.087 25.0741 235.996 25.561 235.752 25.9566C235.478 26.4131 235.021 26.7174 234.473 26.7783C228.868 27.3564 221.984 27.6608 214.004 27.7216L213.974 27.6912ZM234.29 23.6135C234.29 23.6135 234.229 23.6135 234.168 23.6135C226.949 24.3134 220.218 24.4351 213.974 24.4655C213.7 24.4655 213.486 24.5568 213.364 24.7698C213.212 24.9828 213.151 25.2872 213.151 25.6219C213.151 26.0175 213.273 26.3827 213.456 26.5652C213.578 26.687 213.76 26.7783 214.004 26.7783C221.954 26.7174 228.807 26.4131 234.381 25.8653C235.143 25.8045 235.112 24.922 235.082 24.6481C235.082 24.2525 234.96 23.9482 234.777 23.796C234.655 23.7048 234.503 23.6439 234.32 23.6439L234.29 23.6135ZM223.66 19.414C220.736 19.414 218.299 18.562 216.624 16.9796C215.009 15.458 214.156 13.2974 214.156 10.7717C214.156 8.24592 214.979 6.11577 216.563 4.5638C218.238 2.92053 220.705 2.06847 223.69 2.03804H223.782C229.63 2.03804 233.285 5.32457 233.315 10.65C233.315 13.1757 232.493 15.3363 230.909 16.8883C229.234 18.5315 226.767 19.414 223.782 19.414H223.69H223.66ZM223.751 3.01183H223.66C220.918 3.01183 218.695 3.80303 217.202 5.2637C215.801 6.63309 215.07 8.55023 215.101 10.7717C215.101 13.0236 215.862 14.9407 217.294 16.3101C218.786 17.7403 221.01 18.5011 223.69 18.5011H223.782C226.523 18.5011 228.746 17.7099 230.239 16.2492C231.64 14.8798 232.371 12.9627 232.341 10.6804C232.31 5.93318 229.021 3.01183 223.751 3.01183ZM223.66 16.2796C220.005 16.2796 217.69 14.1799 217.69 10.7717C217.69 7.36343 219.944 5.2637 223.66 5.23327H223.721C227.376 5.23327 229.691 7.333 229.691 10.7108C229.691 14.1191 227.437 16.2796 223.721 16.3101H223.66V16.2796ZM218.634 10.7717C218.634 13.6322 220.522 15.3363 223.66 15.3363H223.721C226.888 15.3363 228.777 13.5713 228.746 10.7108C228.746 7.81989 226.858 6.11577 223.66 6.17663C220.431 6.17663 218.603 7.88075 218.634 10.7717Z" fill="#571B0A"/>
<path d="M282.57 8.46173L281.016 24.0727C280.803 26.2029 280.042 26.8115 277.849 26.5985L267.401 25.5638C265.239 25.3508 264.599 24.6205 264.812 22.4903L266.366 6.87933C266.579 4.74918 267.34 4.14056 269.533 4.35358L279.981 5.38823C282.143 5.60124 282.783 6.33158 282.57 8.46173ZM269.96 8.40087L268.65 21.6991C268.589 22.2469 268.802 22.4599 269.351 22.5208L276.569 23.2207C277.118 23.2815 277.361 23.0989 277.422 22.5512L278.732 9.25293C278.793 8.70518 278.58 8.49217 278.031 8.4313L270.813 7.7314C270.264 7.67053 270.021 7.85312 269.96 8.40087ZM292.956 5.7534L290.063 34.9061C289.971 36.0016 288.997 36.3972 287.992 36.2755C287.047 36.1842 286.164 35.606 286.286 34.5105L289.18 5.3578C289.271 4.26229 290.276 3.86669 291.19 3.95798C292.195 4.04927 293.048 4.62746 292.956 5.72297V5.7534Z" fill="#571B0A"/>
<path d="M288.33 36.7621C288.33 36.7621 288.086 36.7621 287.995 36.7621C286.624 36.6404 285.741 35.6971 285.862 34.5103L288.756 5.35759C288.817 4.80984 289.03 4.35338 289.426 4.04907C289.883 3.65347 290.584 3.47088 291.284 3.56218C292.046 3.62304 292.655 3.92735 293.051 4.41424C293.386 4.80984 293.508 5.29673 293.447 5.84448L290.553 34.9972C290.492 35.6666 290.157 36.184 289.639 36.4883C289.274 36.7013 288.817 36.823 288.33 36.823V36.7621ZM290.949 4.44467C290.553 4.44467 290.218 4.53596 290.005 4.74898C289.792 4.90113 289.7 5.14458 289.67 5.41845L286.776 34.5711C286.685 35.6362 287.934 35.7884 288.086 35.8188C288.512 35.8797 288.908 35.8188 289.182 35.6362C289.457 35.4841 289.609 35.2102 289.639 34.8754L292.533 5.72276C292.533 5.41845 292.502 5.17501 292.32 4.99242C292.107 4.71854 291.68 4.53596 291.193 4.50553C291.101 4.50553 291.04 4.50553 290.98 4.50553L290.949 4.44467ZM278.613 27.1156C278.369 27.1156 278.126 27.1156 277.852 27.0852L267.404 26.0505C264.967 25.8071 264.145 24.8333 264.389 22.4597L265.942 6.8487C266.186 4.4751 267.16 3.6839 269.628 3.89691L280.075 4.93156C282.512 5.17501 283.334 6.14879 283.091 8.52239L281.537 24.1334C281.324 26.2635 280.532 27.1156 278.644 27.1156H278.613ZM268.775 4.77941C267.435 4.77941 267.008 5.32716 266.856 6.90956L265.302 22.5205C265.12 24.3768 265.577 24.8941 267.495 25.1072L277.943 26.1418C279.831 26.3244 280.41 25.8984 280.593 24.0421L282.146 8.4311C282.329 6.57482 281.872 6.0575 279.953 5.84448L269.506 4.80984C269.232 4.80984 268.988 4.77941 268.775 4.77941ZM276.755 23.7073C276.755 23.7073 276.603 23.7073 276.542 23.7073L269.323 23.0074C269.049 23.0074 268.653 22.9161 268.409 22.6118C268.227 22.3988 268.166 22.0945 268.196 21.6685L269.506 8.37024C269.536 7.97464 269.658 7.67033 269.902 7.48775C270.206 7.2443 270.633 7.2443 270.876 7.27473L278.095 7.97464C278.369 7.97464 278.765 8.06593 279.009 8.37024C279.192 8.58325 279.253 8.91799 279.222 9.31359L277.913 22.6118C277.852 23.3422 277.456 23.7073 276.755 23.7073ZM269.14 22.0032C269.14 22.0032 269.201 22.0337 269.414 22.0641L276.633 22.764C276.877 22.764 276.907 22.764 276.907 22.764C276.907 22.764 276.938 22.7031 276.968 22.5205L278.278 9.2223C278.278 9.03971 278.278 8.97885 278.278 8.97885C278.278 8.97885 278.217 8.94842 278.004 8.91799L270.785 8.21808C270.541 8.21808 270.511 8.21808 270.48 8.21808C270.48 8.21808 270.45 8.27895 270.42 8.46153L269.11 21.7598C269.11 21.9424 269.11 22.0032 269.11 22.0032H269.14Z" fill="#571B0A"/>
<path d="M316.745 10.709L316.105 14.0564C315.648 16.43 316.105 18.195 317.537 19.9904C318.999 21.7554 320.339 23.2465 321.375 24.342C322.075 25.0723 321.862 26.0461 321.192 26.6547C320.583 27.2329 319.577 27.4459 318.846 26.6547C317.994 25.7722 316.684 24.342 315.374 22.7596C313.851 20.9337 313.272 19.8687 313.242 19.0775H313.211C312.876 19.8991 311.871 20.7512 309.77 21.8467C307.973 22.8509 306.236 23.7334 304.47 24.555C303.495 24.981 302.612 24.4028 302.277 23.6725C301.942 22.8813 302.003 21.8162 303.008 21.3598C304.988 20.4468 306.754 19.5339 308.764 18.4384C310.775 17.282 311.841 15.8214 312.267 13.4478L312.937 9.97866C313.151 8.91359 314.156 8.60928 315.13 8.79186C316.136 8.97445 316.928 9.64392 316.714 10.709H316.745ZM325.395 31.9192C327.527 32.3148 328.106 33.1365 327.71 35.2362L326.096 43.696C325.883 44.761 324.908 45.0653 323.964 44.8828C322.989 44.7002 322.197 44.0611 322.41 42.996L323.811 35.6927C323.903 35.1449 323.72 34.9015 323.172 34.8102L306.724 31.6758C305.81 31.4932 305.536 30.6716 305.688 29.85C305.84 29.0283 306.389 28.3284 307.333 28.511L325.395 31.9497V31.9192ZM332.066 12.474L328.837 29.3326C328.624 30.3977 327.649 30.702 326.705 30.5194C325.73 30.3368 324.938 29.6978 325.151 28.6327L328.38 11.7741C328.593 10.709 329.568 10.4047 330.512 10.5873C331.487 10.7699 332.279 11.4089 332.066 12.474Z" fill="#571B0A"/>
<path d="M324.481 45.4333C324.298 45.4333 324.085 45.4333 323.872 45.3725C323.141 45.2203 322.562 44.8856 322.227 44.3987C321.953 43.9726 321.862 43.4857 321.953 42.938L323.354 35.6346C323.385 35.452 323.354 35.3912 323.354 35.3912C323.354 35.3912 323.293 35.3303 323.08 35.2999L306.632 32.1655C305.536 31.9525 304.987 31.0091 305.231 29.7615C305.353 29.1224 305.657 28.6051 306.084 28.3008C306.449 28.0573 306.906 27.9661 307.394 28.0573L325.456 31.496C326.705 31.7395 327.436 32.1046 327.862 32.7133C328.289 33.3219 328.38 34.1435 328.136 35.3607L326.522 43.8205C326.339 44.8551 325.517 45.4637 324.42 45.4637L324.481 45.4333ZM307.028 28.9398C306.876 28.9398 306.754 28.9703 306.632 29.0616C306.419 29.2137 306.236 29.518 306.145 29.9136C306.053 30.3397 306.053 31.07 306.815 31.1917L323.263 34.3261C323.537 34.3869 323.902 34.4782 324.146 34.813C324.298 35.0564 324.359 35.3607 324.268 35.7563L322.867 43.0597C322.806 43.364 322.867 43.6075 322.989 43.8205C323.171 44.0944 323.567 44.3074 324.024 44.3987C324.359 44.4595 325.425 44.5813 325.608 43.577L327.223 35.1173C327.405 34.1739 327.375 33.5653 327.101 33.1697C326.827 32.7741 326.278 32.5307 325.273 32.3481L307.211 28.9094C307.211 28.9094 307.089 28.9094 306.998 28.9094L307.028 28.9398ZM327.223 31.07C327.04 31.07 326.827 31.07 326.613 31.0091C325.882 30.857 325.304 30.5222 324.969 30.0353C324.694 29.6093 324.603 29.1224 324.694 28.5747L327.923 11.716C328.015 11.1683 328.289 10.7422 328.715 10.4379C329.202 10.1032 329.873 9.98147 330.604 10.1336C331.974 10.4075 332.766 11.3813 332.522 12.5985L329.294 29.4572C329.202 30.0049 328.928 30.4309 328.502 30.7353C328.136 30.9787 327.71 31.1004 327.192 31.1004L327.223 31.07ZM329.994 10.9857C329.69 10.9857 329.416 11.0465 329.233 11.1987C329.02 11.3509 328.898 11.5639 328.837 11.8682L325.608 28.7268C325.547 29.0311 325.608 29.2746 325.73 29.4876C325.913 29.7615 326.309 29.9745 326.766 30.0658C327.253 30.1571 327.679 30.0658 327.954 29.9136C328.167 29.7615 328.289 29.5485 328.35 29.2441L331.578 12.3855C331.761 11.3813 330.725 11.1074 330.39 11.0465C330.238 11.0465 330.116 11.0161 329.964 11.0161L329.994 10.9857ZM319.973 27.6617C319.973 27.6617 319.943 27.6617 319.912 27.6617C319.395 27.6617 318.907 27.4183 318.542 26.9923C317.506 25.9272 316.196 24.4361 315.069 23.0667C314.034 21.8495 313.425 20.9365 313.089 20.1453C312.48 20.8148 311.506 21.4843 310.044 22.2451C308.155 23.2797 306.419 24.1622 304.713 24.9534C303.495 25.5012 302.368 24.8013 301.88 23.8579C301.424 22.8233 301.606 21.4843 302.855 20.9061C305.018 19.9019 306.724 19.0194 308.582 18.0152C310.47 16.9501 311.445 15.5807 311.871 13.3593L312.541 9.89017C312.633 9.37285 312.907 8.91639 313.333 8.64251C313.851 8.30777 314.521 8.18605 315.283 8.3382C316.014 8.49036 316.623 8.8251 316.958 9.34242C317.232 9.76845 317.323 10.2553 317.232 10.8031L316.592 14.1505C316.166 16.3719 316.562 17.9848 317.932 19.6889C319.181 21.2104 320.522 22.7015 321.74 24.0101C322.136 24.4057 322.319 24.923 322.288 25.4403C322.288 25.9881 321.984 26.5662 321.527 26.9923C321.1 27.4183 320.522 27.6313 319.973 27.6313V27.6617ZM312.937 18.5325L313.668 18.6847L313.729 19.0498C313.76 19.7802 314.399 20.8453 315.739 22.4581C316.866 23.8275 318.146 25.2577 319.181 26.3532C319.395 26.5967 319.638 26.7184 319.912 26.7184C319.912 26.7184 319.912 26.7184 319.943 26.7184C320.247 26.7184 320.582 26.5662 320.857 26.3228C321.131 26.0793 321.313 25.7446 321.313 25.4403C321.313 25.1664 321.222 24.923 321.009 24.71C319.76 23.371 318.42 21.8495 317.141 20.3279C315.587 18.4108 315.13 16.4937 315.618 13.9983L316.257 10.6509C316.318 10.3466 316.257 10.1032 316.135 9.89017C315.953 9.6163 315.557 9.37285 315.039 9.28156C314.552 9.19027 314.095 9.25113 313.79 9.46414C313.577 9.6163 313.455 9.82931 313.394 10.1032L312.724 13.5723C312.237 16.0676 311.14 17.6805 308.977 18.8977C307.089 19.9323 305.353 20.8148 303.19 21.8495C302.368 22.2146 302.49 23.0971 302.672 23.5536C302.886 23.9796 303.495 24.5274 304.256 24.1926C305.932 23.4319 307.668 22.5494 309.526 21.5147C311.384 20.5409 312.45 19.6889 312.754 18.9585L312.907 18.5934L312.937 18.5325Z" fill="#571B0A"/>
<path d="M346.81 39.3182L344.922 45.3739C344.77 45.9217 344.891 46.1347 345.47 46.3173L361.796 51.3384C362.68 51.6122 362.862 52.4643 362.588 53.3164C362.345 54.138 361.705 54.7466 360.822 54.4727L342.881 48.9343C340.81 48.2953 340.323 47.4432 340.932 45.3739L343.155 38.1618C343.49 37.1272 344.495 36.9142 345.44 37.2185C346.353 37.4924 347.084 38.2531 346.78 39.2878L346.81 39.3182ZM359.299 23.4333L356.07 33.8407C355.43 35.8795 354.547 36.336 352.476 35.6665L342.942 32.7452C340.871 32.1061 340.383 31.2541 340.993 29.1848L344.221 18.7774C344.861 16.7386 345.744 16.2821 347.816 16.9516L357.349 19.8729C359.42 20.512 359.908 21.364 359.299 23.4333ZM347.42 20.9989L344.891 29.2152C344.709 29.7629 344.891 30.0368 345.409 30.189L351.928 32.1974C352.476 32.3496 352.75 32.1974 352.902 31.6801L355.43 23.4638C355.613 22.8856 355.43 22.6421 354.913 22.49L348.394 20.4816C347.846 20.3294 347.572 20.4207 347.42 20.9989ZM370.873 23.4638L364.324 44.7349C363.989 45.7695 362.984 45.9825 362.101 45.7087C361.218 45.4348 360.456 44.674 360.761 43.6394L363.106 36.0317L358.933 34.7536C358.08 34.4797 357.928 33.6581 358.202 32.8365C358.446 32.0148 359.025 31.4062 359.908 31.6801L364.081 32.9582L365.33 28.9109L361.157 27.6328C360.304 27.3589 360.152 26.5677 360.426 25.7156C360.669 24.894 361.248 24.3158 362.101 24.5897L366.274 25.8678L367.34 22.4291C367.675 21.3945 368.711 21.2119 369.594 21.4858C370.477 21.7596 371.208 22.49 370.904 23.5246L370.873 23.4638Z" fill="#571B0A"/>
<path d="M361.247 55.0523C361.064 55.0523 360.881 55.0523 360.668 54.961L342.727 49.4226C341.509 49.0575 340.808 48.5706 340.443 47.9315C340.108 47.2925 340.108 46.4709 340.473 45.2841L342.697 38.072C343.062 36.8852 344.22 36.3983 345.591 36.8243C346.9 37.2199 347.601 38.3154 347.235 39.4718L345.347 45.5275C345.286 45.7101 345.286 45.771 345.316 45.771C345.316 45.771 345.377 45.8318 345.591 45.8927L361.917 50.9138C362.404 51.0659 362.739 51.3398 362.952 51.7354C363.196 52.1918 363.226 52.8309 363.013 53.4699C362.861 54.0177 362.556 54.4133 362.191 54.6872C361.886 54.9002 361.582 54.9915 361.216 54.9915L361.247 55.0523ZM344.677 37.6155C344.281 37.6155 343.793 37.7677 343.611 38.3459L341.387 45.5579C341.113 46.4709 341.083 47.0795 341.296 47.4751C341.509 47.9011 342.057 48.2054 343.032 48.5097L360.972 54.0481C361.247 54.1394 361.49 54.109 361.673 53.9568C361.886 53.8047 362.039 53.5308 362.16 53.1961C362.282 52.8005 362.282 52.4353 362.16 52.1918C362.069 52.0093 361.917 51.8875 361.673 51.8267L345.347 46.8056C344.524 46.5622 344.25 46.0753 344.494 45.2536L346.382 39.1979C346.687 38.1937 345.591 37.7981 345.347 37.7372C345.225 37.7068 344.981 37.6459 344.707 37.6459L344.677 37.6155ZM362.8 46.2883C362.526 46.2883 362.221 46.2578 361.947 46.1666C360.637 45.771 359.937 44.6754 360.302 43.5191L362.526 36.3678L358.81 35.2115C358.353 35.0898 358.018 34.8159 357.835 34.4203C357.591 33.9638 357.561 33.3552 357.774 32.6857C357.957 32.0467 358.322 31.5598 358.81 31.3163C359.175 31.1033 359.632 31.0729 360.089 31.225L363.805 32.3814L364.78 29.2166L361.064 28.0602C360.028 27.7559 359.632 26.7822 359.998 25.5649C360.363 24.3781 361.247 23.7999 362.282 24.1347L365.998 25.291L366.912 22.2784C367.277 21.122 368.435 20.6047 369.775 21.0003C371.085 21.3959 371.755 22.461 371.389 23.6478L364.841 44.9189C364.658 45.5579 364.232 45.984 363.653 46.197C363.409 46.2883 363.165 46.3187 362.891 46.3187L362.8 46.2883ZM359.48 32.0467C359.48 32.0467 359.267 32.0467 359.206 32.1075C358.962 32.2293 358.749 32.5336 358.627 32.9292C358.505 33.3248 358.505 33.6899 358.627 33.9334C358.718 34.0855 358.84 34.2073 359.053 34.2681L363.683 35.6984L361.186 43.7625C360.881 44.7667 361.978 45.1623 362.221 45.2232C362.587 45.3449 362.952 45.3449 363.257 45.2232C363.561 45.1015 363.744 44.8885 363.866 44.5537L370.415 23.2826C370.719 22.2784 369.653 21.8828 369.44 21.8219C369.227 21.7611 368.069 21.4568 367.765 22.461L366.577 26.3561L361.947 24.9259C361.307 24.7433 361.003 25.2606 360.851 25.7475C360.637 26.4778 360.759 26.9343 361.277 27.0865L365.907 28.5167L364.384 33.4769L359.754 32.0467C359.754 32.0467 359.571 32.0163 359.51 32.0163L359.48 32.0467ZM353.967 36.4287C353.51 36.4287 352.962 36.3374 352.322 36.1244L342.788 33.203C341.57 32.8379 340.869 32.3814 340.534 31.7424C340.169 31.1033 340.169 30.2817 340.534 29.0645L343.763 18.6571C344.128 17.4703 344.585 16.8009 345.225 16.4661C345.865 16.1314 346.718 16.1314 347.936 16.4966L357.47 19.4179C358.688 19.7831 359.389 20.2395 359.724 20.8786C360.089 21.5176 360.089 22.3393 359.724 23.5565L356.525 33.9638C356.008 35.6375 355.246 36.3983 353.967 36.3983V36.4287ZM346.352 17.166C346.078 17.166 345.865 17.2269 345.682 17.3182C345.286 17.5312 344.951 18.0485 344.677 18.9614L341.448 29.3688C341.174 30.2817 341.143 30.8903 341.357 31.3163C341.6 31.7424 342.118 32.0467 343.062 32.351L352.596 35.2723C354.454 35.8505 355.063 35.5158 355.612 33.7508L358.81 23.3435C359.084 22.4001 359.114 21.8219 358.901 21.3959C358.658 20.9699 358.14 20.6656 357.195 20.3613L347.662 17.4399C347.113 17.2573 346.687 17.1965 346.322 17.1965L346.352 17.166ZM352.261 32.7466C352.109 32.7466 351.926 32.7466 351.743 32.6553L345.225 30.6469C344.829 30.5251 344.555 30.3426 344.433 30.0687C344.311 29.7948 344.281 29.4601 344.433 29.0645L346.961 20.8482C347.205 20.057 347.723 19.7526 348.545 20.0265L355.063 22.035C355.307 22.1262 355.703 22.248 355.886 22.6131C356.068 22.9783 355.977 23.3435 355.886 23.6174L353.358 31.8337C353.175 32.4423 352.809 32.7466 352.292 32.7466H352.261ZM347.875 21.1525L345.347 29.3688C345.255 29.6731 345.255 29.6731 345.56 29.7644L352.078 31.7728C352.383 31.8641 352.383 31.8337 352.474 31.5598L355.002 23.3435C355.063 23.1305 355.063 23.0696 355.033 23.0696C355.033 23.0696 355.002 23.0087 354.789 22.9479L348.271 20.9394C348.058 20.8786 347.997 20.8786 347.997 20.8786C347.997 20.8786 347.936 20.909 347.875 21.122V21.1525Z" fill="#571B0A"/>
</g>
<defs>
<clipPath id="clip0_3143_4744">
<rect width="461" height="231" fill="white"/>
</clipPath>
</defs>
</svg>
