<svg width="1920" height="841" viewBox="0 0 1920 841" fill="none" xmlns="http://www.w3.org/2000/svg">
<g clip-path="url(#clip0_3143_4815)">
<path opacity="0.3" d="M2195.16 1138.5C2062.44 1180.66 1932.11 1224.04 1804.07 1279.13C1791.56 1284.52 1777.81 1292.94 1765.42 1299.14L1766.48 1294.86C1880.73 1210.34 1987.21 1118.01 2098.61 1030.45C2172.16 972.629 2248.73 919.583 2323.78 863.887C2362.33 835.238 2400.27 807.76 2439.74 780.218C2479.81 752.191 2519.16 722.809 2559.16 694.892C2565.58 690.368 2573.32 687.188 2579.95 682.89L2524.06 586.095C2432.64 613.663 2339.19 633.837 2243.76 643.743L2174.18 657.611L2236.89 608.559C2283.9 563.954 2339 527.723 2390.66 489.405C2408.77 475.955 2426.9 462.635 2445.13 449.389L2337.6 263.138C2318 276.493 2304.03 294.89 2288.05 311.798C2277.27 323.254 2264.18 334.821 2253.97 347.034C2250.29 351.473 2248.1 360.622 2242.52 362.959C2077.94 375.949 1915.34 413.209 1758.67 465.065C1642.41 503.507 1522.65 549.066 1411.53 602.413C1397.9 608.924 1386 619.603 1370.85 622.778C1369.35 620.178 1413.68 589.417 1418.24 585.901C1531.87 497.731 1639.46 405.098 1753.56 318.43C1880.99 221.682 2011.31 128.637 2142.88 38.1276C2158.3 27.5282 2172.96 15.3918 2188.81 5.42558L2138.99 -80.8695C2050.53 -57.9348 1960.85 -41.3603 1871.71 -32.7811C1867.33 -32.3609 1861.76 -28.1252 1857.66 -31.4654C1859.76 -32.8833 1862.63 -33.7934 1864.43 -35.5092C1881.06 -51.2966 1894.02 -61.0898 1911.37 -75.048C1963.87 -117.319 2017.09 -158.447 2070.75 -198.941L1949.1 -409.658C1944.25 -406.995 1939.53 -404.339 1935.12 -401.043C1914.16 -385.208 1891.86 -359.352 1870.8 -341.349C1864.54 -335.964 1853.56 -317.325 1847.23 -314.283C1843.08 -312.294 1804.03 -311.09 1795.27 -310.038C1622.53 -288.94 1460.15 -241.541 1297.21 -183.695C1205.93 -151.31 1122.34 -120.52 1034.47 -79.1631C1016.47 -70.6768 997.648 -63.2746 979.632 -54.708C1047.31 -108.935 1116.96 -160.907 1184.59 -214.974C1216.16 -240.198 1246.34 -266.394 1278.04 -291.626C1436.45 -417.676 1602.46 -535.137 1770.21 -650.066C1779.76 -656.596 1788.64 -664.51 1798.56 -670.509L1723.99 -799.672C1583.43 -732.249 1438.97 -673.24 1293.27 -616.373L1258.28 -607.317L1295.47 -653.391C1395.21 -769.627 1504.79 -877.278 1623.11 -974.402L1555.33 -1091.79L1496.66 -1036.44C1493.12 -1027.53 1484.83 -1025.87 1479.32 -1020.24C1473.58 -1014.41 1460.91 -995.41 1455.37 -992.89C1400.23 -990.486 1345.59 -980.755 1291.37 -970.311C1225.1 -957.537 1157.48 -942.626 1092.58 -924.318C932.723 -879.259 774.245 -821.811 624.63 -749.839C612.665 -744.086 601.513 -736.221 589.019 -731.386C586.785 -734.785 586.87 -733.815 589.517 -735.819C598.448 -742.471 610.914 -748.649 619.35 -755.218C634.258 -766.815 649.203 -781.289 665.055 -793.839C779.27 -884.179 884.039 -982.998 1001.88 -1068.7C1017.97 -1080.37 1030.4 -1095.91 1044.77 -1109.37C1051.21 -1115.4 1069.98 -1118.9 1067.04 -1128.82L672.165 -900.839C672.671 -897.257 669.728 -894.47 667.3 -892.321C582.259 -818.756 499.365 -746.295 405.911 -683.3C316.458 -623.024 219.451 -563.007 124.166 -512.479C-6.01386 -443.436 -141.457 -387.394 -276.822 -330.038C-315.07 -313.8 -352.062 -295.976 -391.307 -282.289C-394.2 -281.299 -397.102 -279.148 -399.902 -281.88L-763.95 -71.6975L-573.282 258.548C-538.754 231.749 -504.746 204.638 -470.922 177.091C-465.418 172.622 -457.913 168.56 -452.293 163.82C-420.588 137.428 -432.568 138.092 -389.195 128.614C-348.709 119.783 -307.008 113.174 -266.417 103.467C-88.1222 60.8106 71.8671 -23.1999 242.449 -87.5686C247.01 -89.3181 281.761 -105.847 283.152 -103.32C269.269 -92.6545 252.683 -85.7291 237.962 -76.2787C134.975 -10.4985 27.572 96.2297 -57.7782 183.498C-135.552 263.061 -204.382 352.82 -281.804 431.229C-305.507 455.244 -330.054 476.62 -350.624 502.768C-357.748 511.843 -365.244 519.569 -372.905 528.069C-382.191 538.46 -388.339 548.874 -401.442 556.303L-183.17 934.359L-109.385 879.186C-87.1701 863.302 -67.4304 843.954 -46.4977 826.907C-22.2712 807.211 -7.98512 811.128 20.1747 805.54C186.962 772.722 348.632 717.509 503.421 646.967C551.707 624.934 598.897 601.359 648.654 581.874C656.871 578.693 665.675 576.057 674.227 574.042C675.08 575.52 652.081 587.575 649.243 589.485C539.746 663.17 440.986 746.626 350.024 841.824C305.313 888.638 262.773 939.567 220.021 986.95C156.429 1057.31 92.5815 1127.81 29.1342 1197.95C16.8268 1211.58 4.88836 1226.08 -6.36402 1240.6L207.905 1611.72C220.873 1606.88 228.574 1595.98 238.637 1588C272.93 1560.79 306.757 1532.43 341.52 1506.03C372.604 1482.45 389.003 1485.55 424.127 1478.73C492.157 1465.48 572.062 1448.91 637.513 1426.96C768.334 1383.03 891.402 1318.03 1019.94 1269.91C1025.82 1267.74 1064.94 1248.89 1066.86 1250.57C1070.11 1253.38 1064.66 1254.76 1062.78 1255.98C972.546 1313.72 887.607 1378.05 810.325 1451.76C731.545 1526.88 661.588 1614.57 587.29 1694.5C577.065 1705.5 564.768 1714.91 554.69 1726.17C534.977 1748.15 519.641 1774.54 499.511 1796.15C479.678 1817.46 456.566 1835.09 437.316 1857.75C434.608 1860.95 433.483 1865.47 430.478 1868.97C415.755 1885.83 400.403 1902.31 385.262 1918.8L501.976 2120.95L2208.03 1135.96C2205.23 1134.17 2198.2 1137.29 2195.04 1138.29M-207.77 -37.2299L-277.345 -23.3619L-214.632 -72.414C-167.627 -117.019 -112.525 -153.25 -60.8996 -191.619C-15.7839 -225.142 29.6928 -257.922 75.1911 -290.783C295.242 -449.5 535.146 -565.241 787.681 -662.517C919.399 -700.302 1051.96 -741.091 1188.59 -756.969C1189.74 -757.09 1202.06 -759.172 1200.48 -755.202C1186.63 -750.128 1178.46 -739.092 1167.81 -730.703C988.865 -589.397 808.874 -452.721 610.993 -338.678C358.564 -193.21 84.3965 -67.745 -207.85 -37.2514M-14.7422 401.004L-49.7316 410.059L-12.5415 363.985C137.815 188.69 310.587 32.8031 501.843 -96.716C609.614 -169.743 728.252 -239.598 844.984 -296.867C953.78 -350.234 1067.69 -390.512 1181.89 -430.149C1218.74 -442.928 1256.47 -452.542 1292.96 -465.115C1298.98 -467.163 1306.57 -472.363 1313.11 -474.574C1312.54 -468.608 1305.11 -465.605 1300.79 -460.258C1293.43 -451.116 1286.5 -437.122 1278.83 -426.987C1153.33 -261.828 961.69 -108.846 789.914 6.64031C538.681 175.477 264.195 292.154 -14.7931 401.033M788.175 456.059C583.045 553.898 353.811 627.051 127.573 648.795C123.196 649.215 117.625 653.451 113.522 650.11C115.625 648.693 118.496 647.782 120.291 646.067C136.924 630.279 149.884 620.486 167.254 606.447C233.203 553.352 300.233 502.011 367.924 451.58C523.213 335.895 679.512 233.49 855.04 147.916C1004.91 74.8477 1161.44 14.3788 1322.99 -26.5632C1394.06 -44.5545 1471.65 -65.8367 1543.71 -76.4523C1558.19 -78.5582 1573.18 -75.6587 1587.03 -82.368C1582.55 -71.5526 1568.78 -66.4569 1560.33 -59.5445C1316.8 139.574 1075.07 319.101 788.248 455.949M437.169 1055.95L342.318 1096.17L347.592 1081.3C560.295 817.134 829.934 599.34 1127.74 434.808C1298.96 340.238 1490.14 258.948 1678.56 208.884C1686.45 206.777 1695.39 203.921 1702.53 199.802C1702.31 205.906 1694.65 209.45 1690.93 214.313C1631.63 291.505 1584.56 350.009 1514.03 418.592C1215.12 709.354 821.997 906.354 437.199 1056M1331.58 1051.79C1278.49 1080.2 1224.13 1109.14 1169.8 1134.94C1054.88 1189.46 938.4 1236.93 815.633 1269.28C713.342 1296.26 608.544 1311.36 504.894 1331.52C504.496 1327.53 511.576 1322.97 514.505 1320.39C586.856 1258.03 665.846 1199.99 741.446 1141.25C911.656 1008.93 1106.39 893.786 1301.3 799.669C1501.67 702.879 1707.69 639.87 1926.54 602.748C1943.55 599.858 1961.27 599.483 1978.12 595.126C1976.8 599.555 1971.91 602.722 1968.47 605.591C1942 627.53 1913 646.721 1886.2 668.311C1858.69 690.445 1831.97 715.59 1804.04 737.565C1755.05 776.039 1703.9 810.873 1653.79 847.279C1611.66 877.855 1573.37 906.962 1529.76 935.333C1465 977.416 1399.54 1015.48 1331.71 1051.79M1332.53 1505.98C1258.43 1546.38 1182.84 1578.88 1106.75 1613.84C994.73 1665.26 882.022 1713.61 768.638 1761.27C764.523 1762.97 737.43 1773.58 736.039 1771.05C765.205 1724.38 803.812 1684.76 840.552 1643.91C910.227 1566.44 978.342 1497.21 1058.8 1429.82C1185.33 1323.87 1317.57 1231.21 1460.2 1146.08C1498.7 1123.1 1538 1099.74 1578.28 1080.08C1731.35 1005.5 1889.31 939.86 2052.56 891.618C2059.76 889.5 2069.89 889.157 2075.97 886.868C2081.62 884.764 2086.12 880.671 2091.26 878.518C2094.27 877.257 2093.46 876.567 2095.32 880.252C2077.96 891.021 2068.42 912.026 2056.29 927.86C1987.35 1017.89 1912.9 1092.27 1826.99 1166.34C1674.97 1297.33 1508.92 1409.78 1332.5 1505.93" fill="#D7B59B"/>
</g>
<defs>
<clipPath id="clip0_3143_4815">
<rect width="1920" height="841" fill="white"/>
</clipPath>
</defs>
</svg>
