<svg width="500" height="122" viewBox="0 0 500 122" fill="none" xmlns="http://www.w3.org/2000/svg">
<g clip-path="url(#clip0_3106_4437)">
<path d="M482.088 41.9896C480.34 35.14 477.654 29.1496 474.038 24.0184C470.422 18.8872 465.828 14.8401 460.264 11.8931C454.699 8.94609 448.101 7.47659 440.468 7.47659C437.052 7.47659 434.046 7.81385 431.464 8.48837C428.882 9.1629 426.677 9.8856 424.849 10.6404C423.021 11.3952 421.53 12.1179 420.375 12.7925C419.221 13.467 418.371 13.8042 417.81 13.8042C415.982 13.8042 414.25 13.1297 412.622 11.7727C410.995 10.4236 409.544 9.14684 408.269 7.95036C407.235 7.07509 406.12 6.36042 404.933 5.79832C403.739 5.24425 402.584 4.9632 401.478 4.9632C399.89 4.9632 398.479 5.54136 397.244 6.69768C396.01 7.854 395.32 9.82136 395.16 12.6078C393.412 10.2229 391.424 8.20732 389.195 6.57723C386.966 4.94714 384.705 3.65431 382.396 2.69873C380.087 1.74316 377.826 1.06864 375.597 0.667139C373.368 0.273669 371.419 0.0729182 369.752 0.0729182C368.637 0.0729182 367.523 0.153218 366.416 0.313819C365.302 0.474419 364.308 0.675169 363.434 0.90804C360.732 1.62271 358.784 2.44177 357.589 3.35719C356.394 4.27262 355.745 5.02744 355.625 5.62969C355.504 6.22391 355.448 6.68965 355.448 7.00282C355.448 7.79779 355.729 8.71322 356.282 9.74909C356.835 10.785 357.597 11.9814 358.551 13.3305C356.09 11.4996 353.404 10.1666 350.501 9.33153C347.599 8.4964 344.761 8.07884 341.978 8.07884C340.15 8.07884 338.258 8.4161 336.318 9.09063C334.37 9.76515 332.798 10.7047 331.612 11.8931C327.474 9.50819 322.311 8.23141 316.113 8.07081C314.205 8.07081 312.177 8.43216 310.036 9.14684C307.887 9.86151 306.3 10.9375 305.265 12.3669C302.956 11.0178 300.511 10.0382 297.929 9.44395C295.347 8.84973 292.742 8.54458 290.12 8.54458C289.086 8.54458 287.875 8.64897 286.488 8.8417C285.101 9.04245 283.762 9.36365 282.495 9.79727C281.228 10.2389 280.114 10.8492 279.16 11.6442C279.031 11.7566 278.927 11.877 278.815 11.9895C275.6 10.8893 271.318 10.3272 265.931 10.3272C262.595 10.3272 259.292 10.5441 256.037 10.9857C252.773 11.4274 249.478 11.8851 246.143 12.3588C243.361 12.7603 240.538 13.1378 237.676 13.4911C234.814 13.8524 231.911 14.0291 228.969 14.0291C226.507 14.0291 224.455 13.4911 222.827 12.4151C221.2 11.339 219.725 10.1666 218.418 8.88987C217.103 7.6131 215.836 6.44072 214.601 5.3647C213.366 4.28868 211.915 3.75067 210.248 3.75067C208.339 3.75067 206.832 4.70624 205.718 6.61738C204.21 5.42091 202.575 4.40913 200.827 3.574C199.079 2.73888 197.347 2.06436 195.639 1.54241C193.932 1.02849 192.264 0.643049 190.628 0.410179C189.001 0.169278 187.509 0.0488281 186.154 0.0488281C185.04 0.0488281 183.925 0.129128 182.819 0.289729C181.705 0.450329 180.71 0.651079 179.836 0.88395C176.814 1.75922 174.729 2.67464 173.575 3.63022C172.42 4.58579 171.843 5.66181 171.843 6.85828C171.843 7.73355 172.019 8.56867 172.38 9.36365C172.741 10.1586 173.158 10.9375 173.631 11.6924C174.112 12.4472 174.561 13.202 175.002 13.9648C175.435 14.7197 175.731 15.4986 175.892 16.2936C174.537 14.543 172.773 13.1297 170.584 12.0537C168.395 10.9777 165.557 10.4397 162.061 10.4397C159.912 10.4397 157.194 10.6404 153.891 11.0339C150.596 11.4354 147.156 11.8289 143.58 12.2304C140.165 12.7041 136.821 13.1297 133.566 13.483C130.303 13.8444 127.409 14.0211 124.859 14.0211C123.272 14.0211 121.836 13.8042 120.57 13.3626C119.295 12.929 118.204 12.407 117.29 11.8128C116.376 11.2186 115.623 10.6404 115.029 10.0783C114.436 9.52425 114.011 9.0826 113.779 8.76139C112.351 6.93055 110.932 5.61363 109.545 4.81866C108.15 4.02369 106.819 3.62219 105.552 3.62219C103.011 3.62219 101.199 4.61791 100.124 6.60935C99.0501 8.60079 98.5129 10.8733 98.5129 13.4188C98.5129 13.4911 98.5129 13.5714 98.5129 13.6436C96.757 12.4311 94.7205 11.4033 92.3713 10.5521C87.9616 8.96215 81.9403 8.16717 74.3074 8.16717C70.5712 8.16717 66.4341 8.52852 61.9041 9.2432C57.3741 9.95787 52.8441 10.6725 48.3141 11.3952C44.8985 12.0296 41.7155 12.5676 38.773 13.0093C35.8305 13.4509 33.4813 13.6677 31.7415 13.6677C30.0016 13.6677 28.5985 13.4509 27.3317 13.0093C26.0569 12.5757 24.9505 12.0537 23.9964 11.4595C23.0423 10.8653 22.2645 10.2871 21.6712 9.725C21.0779 9.17093 20.661 8.72928 20.4205 8.40807C18.9933 6.49693 17.5582 5.16395 16.131 4.40913C14.7039 3.65431 13.3489 3.27689 12.074 3.27689C9.61261 3.27689 7.8407 4.27262 6.76632 6.26406C5.69195 8.2555 5.15477 10.52 5.15477 13.0735C5.15477 18.9675 5.98861 24.4601 7.65629 29.5511C9.32397 34.6502 12.066 38.9061 15.8825 42.3269C14.4553 42.6481 13.421 43.6438 12.7796 45.314C12.1462 46.9843 11.8255 49.0962 11.8255 51.6417C11.8255 57.1342 12.7956 62.153 14.7439 66.6899C16.6922 71.2269 20.0517 75.4105 24.8222 79.2328C23.1545 79.0722 21.6792 78.759 20.4125 78.2772C19.1376 77.8035 18.0312 77.2655 17.0771 76.6632C16.123 76.069 15.3693 75.4667 14.8081 74.8725C14.2549 74.2783 13.854 73.8607 13.6134 73.6198C11.4647 71.4678 9.75693 70.199 8.48211 69.7975C7.2073 69.4041 6.26121 69.2033 5.61979 69.2033C4.82604 69.2033 3.9922 69.4442 3.11827 69.918C2.24434 70.3918 1.50671 71.4517 0.913402 73.0818C0.320092 74.7119 0.0234375 76.607 0.0234375 78.751C0.0234375 85.9941 0.857279 92.2495 2.52496 97.5011C4.19264 102.753 6.55786 107.097 9.62063 110.518C12.6834 113.939 16.3956 116.492 20.7652 118.162C25.1349 119.833 30.0658 120.668 35.5499 120.668H100.774C102.442 120.668 104.013 120.346 105.48 119.712C106.948 119.078 108.222 118.219 109.297 117.143C110.371 116.067 111.205 114.814 111.798 113.384C111.862 113.224 111.91 113.063 111.975 112.903C114.204 115.127 116.841 116.845 119.904 118.034C122.967 119.23 126.318 120.186 129.982 120.901C134.039 121.615 138.65 121.977 143.813 121.977C147.309 121.977 150.965 121.816 154.781 121.495C158.598 121.174 162.31 120.716 165.934 120.122C169.55 119.527 173.005 118.829 176.309 118.034C179.604 117.239 182.49 116.323 184.952 115.288C186.146 117.038 187.678 118.371 189.546 119.287C191.414 120.202 193.178 120.66 194.854 120.66H208.211C210.993 120.66 213.455 119.784 215.603 118.034C217.752 116.283 219.139 114.131 219.773 111.586C221.28 114.131 223.605 116.283 226.748 118.034C229.883 119.784 234.204 120.66 239.689 120.66H278.326C282.142 120.66 285.101 119.8 287.21 118.09C288.083 117.383 288.765 116.412 289.278 115.215C289.687 115.553 290.112 115.882 290.553 116.179C293.215 117.97 296.358 119.166 299.974 119.76C303.59 120.355 307.43 120.66 311.479 120.66H362.512C364.34 120.66 366.007 120.459 367.515 120.065C369.022 119.664 370.297 118.989 371.331 118.034C373.552 119.784 375.941 120.66 378.483 120.66H391.841C395.176 120.66 397.998 119.503 400.307 117.199C402.608 114.886 403.763 112.068 403.763 108.719V97.0193C405.831 101.082 408.036 104.624 410.377 107.651C412.719 110.678 415.429 113.208 418.483 115.231C421.546 117.263 425.082 118.797 429.099 119.833C433.108 120.868 437.822 121.382 443.226 121.382C449.424 121.382 454.771 120.628 459.261 119.11C463.751 117.6 467.528 115.504 470.59 112.838C473.653 110.172 476.115 107.025 477.983 103.403C479.851 99.7816 481.278 95.8389 482.272 91.583C483.266 87.3271 483.924 82.8222 484.237 78.0845C484.549 73.3468 484.718 68.593 484.718 63.8152C484.718 56.0903 483.844 48.8071 482.096 41.9575L482.088 41.9896Z" fill="white"/>
<path d="M252.19 40.3203C251.869 40.3203 251.516 40.3605 251.115 40.4408L239.786 41.5168V83.7948C239.786 85.0716 240.147 85.8666 240.861 86.1797C241.101 86.3403 241.374 86.4206 241.694 86.4206H252.542C253.023 86.4206 253.416 86.3403 253.737 86.1797C254.531 85.8666 254.932 85.1439 254.932 84.0277V44.263C254.932 42.5125 254.715 41.4204 254.274 40.9788C253.833 40.5452 253.144 40.3203 252.19 40.3203Z" fill="#E6001C"/>
<path d="M482.088 41.9896C480.34 35.14 477.654 29.1496 474.038 24.0184C470.422 18.8872 465.828 14.8401 460.264 11.8931C454.699 8.94609 448.101 7.47659 440.468 7.47659C437.052 7.47659 434.046 7.81385 431.464 8.48837C428.882 9.1629 426.677 9.8856 424.849 10.6404C423.021 11.3952 421.53 12.1179 420.375 12.7925C419.221 13.467 418.371 13.8042 417.81 13.8042C415.982 13.8042 414.25 13.1297 412.622 11.7727C410.995 10.4236 409.544 9.14684 408.269 7.95036C407.235 7.07509 406.12 6.36042 404.933 5.79832C403.739 5.24425 402.584 4.9632 401.478 4.9632C399.89 4.9632 398.479 5.54136 397.244 6.69768C396.01 7.854 395.32 9.82136 395.16 12.6078C393.412 10.2229 391.424 8.20732 389.195 6.57723C386.966 4.94714 384.705 3.65431 382.396 2.69873C380.087 1.74316 377.826 1.06864 375.597 0.667139C373.368 0.273669 371.419 0.0729182 369.752 0.0729182C368.637 0.0729182 367.523 0.153218 366.416 0.313819C365.302 0.474419 364.308 0.675169 363.434 0.90804C360.732 1.62271 358.784 2.44177 357.589 3.35719C356.394 4.27262 355.745 5.02744 355.625 5.62969C355.504 6.22391 355.448 6.68965 355.448 7.00282C355.448 7.79779 355.729 8.71322 356.282 9.74909C356.835 10.785 357.597 11.9814 358.551 13.3305C356.09 11.4996 353.404 10.1666 350.501 9.33153C347.599 8.4964 344.761 8.07884 341.978 8.07884C340.15 8.07884 338.258 8.4161 336.318 9.09063C334.37 9.76515 332.798 10.7047 331.612 11.8931C327.474 9.50819 322.311 8.23141 316.113 8.07081C314.205 8.07081 312.177 8.43216 310.036 9.14684C307.887 9.86151 306.3 10.9375 305.265 12.3669C302.956 11.0178 300.511 10.0382 297.929 9.44395C295.347 8.84973 292.742 8.54458 290.12 8.54458C289.086 8.54458 287.875 8.64897 286.488 8.8417C285.101 9.04245 283.762 9.36365 282.495 9.79727C281.228 10.2389 280.114 10.8492 279.16 11.6442C279.031 11.7566 278.927 11.877 278.815 11.9895C275.6 10.8893 271.318 10.3272 265.931 10.3272C262.595 10.3272 259.292 10.5441 256.037 10.9857C252.773 11.4274 249.478 11.8851 246.143 12.3588C243.361 12.7603 240.538 13.1378 237.676 13.4911C234.814 13.8524 231.911 14.0291 228.969 14.0291C226.507 14.0291 224.455 13.4911 222.827 12.4151C221.2 11.339 219.725 10.1666 218.418 8.88987C217.103 7.6131 215.836 6.44072 214.601 5.3647C213.366 4.28868 211.915 3.75067 210.248 3.75067C208.339 3.75067 206.832 4.70624 205.718 6.61738C204.21 5.42091 202.575 4.40913 200.827 3.574C199.079 2.73888 197.347 2.06436 195.639 1.54241C193.932 1.02849 192.264 0.643049 190.628 0.410179C189.001 0.169278 187.509 0.0488281 186.154 0.0488281C185.04 0.0488281 183.925 0.129128 182.819 0.289729C181.705 0.450329 180.71 0.651079 179.836 0.88395C176.814 1.75922 174.729 2.67464 173.575 3.63022C172.42 4.58579 171.843 5.66181 171.843 6.85828C171.843 7.73355 172.019 8.56867 172.38 9.36365C172.741 10.1586 173.158 10.9375 173.631 11.6924C174.112 12.4472 174.561 13.202 175.002 13.9648C175.435 14.7197 175.731 15.4986 175.892 16.2936C174.537 14.543 172.773 13.1297 170.584 12.0537C168.395 10.9777 165.557 10.4397 162.061 10.4397C159.912 10.4397 157.194 10.6404 153.891 11.0339C150.596 11.4354 147.156 11.8289 143.58 12.2304C140.165 12.7041 136.821 13.1297 133.566 13.483C130.303 13.8444 127.409 14.0211 124.859 14.0211C123.272 14.0211 121.836 13.8042 120.57 13.3626C119.295 12.929 118.204 12.407 117.29 11.8128C116.376 11.2186 115.623 10.6404 115.029 10.0783C114.436 9.52425 114.011 9.0826 113.779 8.76139C112.351 6.93055 110.932 5.61363 109.545 4.81866C108.15 4.02369 106.819 3.62219 105.552 3.62219C103.011 3.62219 101.199 4.61791 100.124 6.60935C99.0501 8.60079 98.5129 10.8733 98.5129 13.4188C98.5129 13.4911 98.5129 13.5714 98.5129 13.6436C96.757 12.4311 94.7205 11.4033 92.3713 10.5521C87.9616 8.96215 81.9403 8.16717 74.3074 8.16717C70.5712 8.16717 66.4341 8.52852 61.9041 9.2432C57.3741 9.95787 52.8441 10.6725 48.3141 11.3952C44.8985 12.0296 41.7155 12.5676 38.773 13.0093C35.8305 13.4509 33.4813 13.6677 31.7415 13.6677C30.0016 13.6677 28.5985 13.4509 27.3317 13.0093C26.0569 12.5757 24.9505 12.0537 23.9964 11.4595C23.0423 10.8653 22.2645 10.2871 21.6712 9.725C21.0779 9.17093 20.661 8.72928 20.4205 8.40807C18.9933 6.49693 17.5582 5.16395 16.131 4.40913C14.7039 3.65431 13.3489 3.27689 12.074 3.27689C9.61261 3.27689 7.8407 4.27262 6.76632 6.26406C5.69195 8.2555 5.15477 10.52 5.15477 13.0735C5.15477 18.9675 5.98861 24.4601 7.65629 29.5511C9.32397 34.6502 12.066 38.9061 15.8825 42.3269C14.4553 42.6481 13.421 43.6438 12.7796 45.314C12.1462 46.9843 11.8255 49.0962 11.8255 51.6417C11.8255 57.1342 12.7956 62.153 14.7439 66.6899C16.6922 71.2269 20.0517 75.4105 24.8222 79.2328C23.1545 79.0722 21.6792 78.759 20.4125 78.2772C19.1376 77.8035 18.0312 77.2655 17.0771 76.6632C16.123 76.069 15.3693 75.4667 14.8081 74.8725C14.2549 74.2783 13.854 73.8607 13.6134 73.6198C11.4647 71.4678 9.75693 70.199 8.48211 69.7975C7.2073 69.4041 6.26121 69.2033 5.61979 69.2033C4.82604 69.2033 3.9922 69.4442 3.11827 69.918C2.24434 70.3918 1.50671 71.4517 0.913402 73.0818C0.320092 74.7119 0.0234375 76.607 0.0234375 78.751C0.0234375 85.9941 0.857279 92.2495 2.52496 97.5011C4.19264 102.753 6.55786 107.097 9.62063 110.518C12.6834 113.939 16.3956 116.492 20.7652 118.162C25.1349 119.833 30.0658 120.668 35.5499 120.668H100.774C102.442 120.668 104.013 120.346 105.48 119.712C106.948 119.078 108.222 118.219 109.297 117.143C110.371 116.067 111.205 114.814 111.798 113.384C111.862 113.224 111.91 113.063 111.975 112.903C114.204 115.127 116.841 116.845 119.904 118.034C122.967 119.23 126.318 120.186 129.982 120.901C134.039 121.615 138.65 121.977 143.813 121.977C147.309 121.977 150.965 121.816 154.781 121.495C158.598 121.174 162.31 120.716 165.934 120.122C169.55 119.527 173.005 118.829 176.309 118.034C179.604 117.239 182.49 116.323 184.952 115.288C186.146 117.038 187.678 118.371 189.546 119.287C191.414 120.202 193.178 120.66 194.854 120.66H208.211C210.993 120.66 213.455 119.784 215.603 118.034C217.752 116.283 219.139 114.131 219.773 111.586C221.28 114.131 223.605 116.283 226.748 118.034C229.883 119.784 234.204 120.66 239.689 120.66H278.326C282.142 120.66 285.101 119.8 287.21 118.09C288.083 117.383 288.765 116.412 289.278 115.215C289.687 115.553 290.112 115.882 290.553 116.179C293.215 117.97 296.358 119.166 299.974 119.76C303.59 120.355 307.43 120.66 311.479 120.66H362.512C364.34 120.66 366.007 120.459 367.515 120.065C369.022 119.664 370.297 118.989 371.331 118.034C373.552 119.784 375.941 120.66 378.483 120.66H391.841C395.176 120.66 397.998 119.503 400.307 117.199C402.608 114.886 403.763 112.068 403.763 108.719V97.0193C405.831 101.082 408.036 104.624 410.377 107.651C412.719 110.678 415.429 113.208 418.483 115.231C421.546 117.263 425.082 118.797 429.099 119.833C433.108 120.868 437.822 121.382 443.226 121.382C449.424 121.382 454.771 120.628 459.261 119.11C463.751 117.6 467.528 115.504 470.59 112.838C473.653 110.172 476.115 107.025 477.983 103.403C479.851 99.7816 481.278 95.8389 482.272 91.583C483.266 87.3271 483.924 82.8222 484.237 78.0845C484.549 73.3468 484.718 68.593 484.718 63.8152C484.718 56.0903 483.844 48.8071 482.096 41.9575L482.088 41.9896ZM24.3251 67.4287C22.8178 65.3569 21.7434 63.0925 21.102 60.6192C20.4686 58.154 20.1479 55.8012 20.1479 53.5769V52.0271C20.1479 51.4731 20.2681 51.192 20.5087 51.192C20.669 51.192 20.8695 51.3124 21.102 51.5533C21.7354 52.1074 22.9942 52.806 24.8623 53.6412C26.7304 54.4763 29.1357 54.8938 32.0782 54.8938C38.9975 54.8938 45.8927 54.3558 52.7639 53.2798C59.6431 52.2038 65.937 51.1117 71.6616 49.9955H71.9021V39.0105C71.9021 37.7337 71.6215 36.9789 71.0683 36.738C70.5151 36.4971 69.9939 36.3766 69.5209 36.3766C69.2803 36.3766 68.9997 36.4168 68.687 36.4971L48.4183 39.8376C46.2695 40.2391 44.0486 40.6165 41.7395 40.9698C39.4304 41.3311 37.1695 41.5078 34.9405 41.5078C32.7116 41.5078 30.5308 41.2107 28.3821 40.6165C26.2333 40.0222 24.2128 38.9221 22.3046 37.3322C19.2018 34.7064 16.9568 31.2615 15.5698 27.0056C14.1747 22.7497 13.4852 18.1083 13.4852 13.0896C13.4852 12.6961 13.6455 12.4151 13.9662 12.2545C14.2068 12.2545 14.4794 12.4552 14.8001 12.8487C15.1208 13.3224 15.7301 14.005 16.6522 14.8803C17.5662 15.7555 18.7368 16.6308 20.1719 17.5061C21.5991 18.3814 23.2908 19.1603 25.2391 19.8348C27.1874 20.5093 29.3522 20.8466 31.7415 20.8466C33.9624 20.8466 36.8247 20.5655 40.3284 20.0114C43.8241 19.4574 47.5844 18.815 51.6013 18.1003C55.6102 17.3856 59.611 16.7513 63.5878 16.1892C67.5646 15.6351 71.1405 15.354 74.3235 15.354C78.3804 15.354 81.7158 15.8278 84.3376 16.7834C86.9594 17.739 89.044 19.0719 90.5994 20.7823C92.1468 22.4927 93.2212 24.5243 93.8225 26.8691C94.4158 29.2219 94.7125 31.8236 94.7125 34.6903V76.4866C94.7125 77.8436 94.2555 78.9919 93.3415 79.9475C92.4275 80.9031 91.297 81.3768 89.942 81.3768H76.825C75.47 81.3768 74.3235 80.9031 73.3694 79.9475C72.4153 78.9919 71.9422 77.8356 71.9422 76.4866V55.9458C70.7476 59.0534 68.9997 61.7756 66.6987 64.1284C64.3896 66.4812 61.7116 68.4244 58.6489 69.9822C55.5861 71.532 52.3069 72.6723 48.8112 73.387C45.3154 74.1016 41.8518 74.463 38.4362 74.463C35.2532 74.463 32.4951 73.8045 30.1459 72.4956C27.7968 71.1787 25.8725 69.4924 24.3652 67.4207L24.3251 67.4287ZM99.5632 102.777C99.5632 104.126 99.1062 105.266 98.1922 106.182C97.2782 107.097 96.1477 107.555 94.7927 107.555H30.7633C27.1072 107.555 23.8841 106.856 21.102 105.467C18.3198 104.07 15.9787 102.126 14.0705 99.613C12.1622 97.1076 10.7351 94.0803 9.78098 90.5391C8.82687 86.9978 8.35383 83.0712 8.35383 78.7751C8.35383 78.3736 8.51418 78.1407 8.83489 78.0604C9.07542 78.0604 9.34803 78.221 9.66873 78.5342C9.98944 78.9357 10.5988 79.546 11.5128 80.3891C12.4268 81.2243 13.6215 82.0995 15.0887 83.015C16.5559 83.9304 18.3279 84.7253 20.3964 85.3999C22.465 86.0744 24.8062 86.4117 27.436 86.4117H94.8087C96.1557 86.4117 97.2942 86.8694 98.2082 87.7848C99.1222 88.7002 99.5792 89.7923 99.5792 91.0691V102.769L99.5632 102.777ZM178.385 98.5932C178.385 99.3882 178.209 100.207 177.848 101.042C177.487 101.877 176.677 102.576 175.403 103.13C172.54 104.246 168.964 105.242 164.675 106.117C160.385 106.993 155.872 107.667 151.141 108.149C146.411 108.631 141.76 108.864 137.19 108.864C132.62 108.864 128.667 108.542 125.324 107.908C121.107 107.113 118.052 105.362 116.144 102.656C114.236 99.9503 113.281 96.2484 113.281 91.5509V60.3783C112.808 58.3869 112.528 56.6364 112.448 55.1267C112.367 53.6171 112.327 52.7819 112.327 52.6213C112.408 51.6658 112.504 51.1518 112.624 51.0715C112.744 50.9912 112.841 50.9511 112.921 50.9511C113.161 50.9511 113.402 51.0314 113.634 51.192C114.508 51.5935 115.959 52.1476 117.988 52.8622C120.016 53.5769 122.181 53.9383 124.49 53.9383C125.998 53.9383 127.93 53.8821 130.271 53.7616C132.612 53.6412 134.977 53.4806 137.367 53.2798C139.748 53.0791 141.913 52.9024 143.861 52.7418C145.809 52.5812 147.1 52.4607 147.734 52.3804C149.481 52.2198 150.355 51.4249 150.355 49.9955V42.8328C150.355 41.7166 150.115 41.026 149.642 40.7449C149.161 40.4639 148.688 40.3274 148.215 40.3274C147.894 40.3274 147.581 40.3675 147.261 40.4478C146.86 40.5281 145.785 40.6486 144.037 40.8092C142.29 40.9698 140.357 41.1304 138.257 41.283C136.148 41.4436 134.103 41.5801 132.115 41.7005C130.127 41.821 128.659 41.8772 127.705 41.8772C125.244 41.8772 123.071 41.564 121.203 40.9216C119.335 40.2872 117.483 39.2112 115.663 37.6935C112.56 35.0677 110.315 31.6229 108.928 27.3669C107.533 23.111 106.843 18.4697 106.843 13.4509C106.843 13.0575 107.004 12.7764 107.316 12.6158C107.557 12.6158 107.829 12.8166 108.15 13.21C108.471 13.6838 109.08 14.3663 110.002 15.2416C110.916 16.1169 112.087 16.9922 113.522 17.8674C114.949 18.7427 116.625 19.5216 118.533 20.1961C120.441 20.8707 122.542 21.2079 124.851 21.2079C127.312 21.2079 130.231 21.0313 133.614 20.6699C136.99 20.3086 140.413 19.891 143.869 19.4172C147.325 18.9354 150.668 18.5179 153.883 18.1645C157.106 17.8032 159.824 17.6265 162.053 17.6265C164.282 17.6265 165.95 17.9879 167.297 18.7026C168.652 19.4172 169.718 20.3326 170.52 21.4488C171.314 22.565 171.835 23.8016 172.067 25.1507C172.308 26.5077 172.428 27.7765 172.428 28.9729V65.9913C172.428 67.3484 172.067 68.3762 171.354 69.0989C170.64 69.8136 169.405 70.3757 167.658 70.7692C166.784 70.9298 165.228 71.1305 163.007 71.3634C160.778 71.6043 158.197 71.8452 155.254 72.0781C152.312 72.319 149.129 72.5358 145.713 72.7365C142.298 72.9373 138.954 73.0336 135.699 73.0336V85.0947C135.699 86.4518 136.453 87.1263 137.968 87.1263C141.624 87.046 145.024 86.8854 148.167 86.6445C151.309 86.4036 154.348 86.0664 157.291 85.6327C160.233 85.1991 163.136 84.621 165.998 83.8983C168.86 83.1836 171.883 82.3485 175.058 81.3929C175.459 81.3126 175.812 81.2724 176.132 81.2724C176.613 81.2724 177.102 81.409 177.624 81.69C178.137 81.9711 178.401 82.6295 178.401 83.6574V98.5852L178.385 98.5932ZM207 102.777C207 104.126 206.543 105.266 205.629 106.182C204.715 107.097 203.585 107.555 202.23 107.555H188.872C187.838 107.555 186.788 107.137 185.713 106.302C184.639 105.467 184.102 104.294 184.102 102.777V26.4676C184.102 21.3765 183.725 17.49 182.971 14.8241C182.218 12.1581 181.6 10.3835 181.119 9.50819C180.879 9.10669 180.718 8.84973 180.646 8.72927C180.566 8.60882 180.526 8.51246 180.526 8.43216C180.526 8.27156 180.887 8.07081 181.6 7.83794C182.947 7.43644 184.463 7.24372 186.13 7.24372C187.798 7.24372 189.963 7.52477 192.392 8.07884C194.814 8.63292 197.099 9.58849 199.247 10.9456C201.396 12.3026 203.224 14.1495 204.731 16.4943C206.239 18.8471 206.992 21.8102 206.992 25.3916V102.777H207ZM277.227 102.777C277.227 104.608 276.811 105.86 275.977 106.535C275.143 107.209 273.932 107.547 272.337 107.547H233.699C230.436 107.547 227.798 107.105 225.77 106.23C223.741 105.354 222.154 104.262 220.999 102.945C219.845 101.629 219.075 100.175 218.674 98.5852C218.273 96.9952 218.081 95.4775 218.081 94.0482V36.0153C215.619 33.3092 213.823 30.0088 212.717 26.1062C211.603 22.2036 211.049 17.9879 211.049 13.4509C211.049 13.0575 211.21 12.7764 211.53 12.6158C211.771 12.6158 212.044 12.8166 212.364 13.21C212.685 13.6838 213.294 14.3663 214.216 15.2416C215.13 16.1169 216.285 16.9922 217.672 17.8674C219.059 18.7427 220.711 19.5216 222.619 20.1961C224.527 20.8707 226.636 21.2079 228.937 21.2079C232.04 21.2079 235.094 21.0072 238.117 20.6137C241.14 20.2122 244.178 19.7946 247.241 19.361C250.304 18.9274 253.383 18.5098 256.486 18.1083C259.589 17.7149 262.723 17.5141 265.906 17.5141C268.368 17.5141 270.356 17.8514 271.872 18.5259C273.379 19.2004 274.534 20.1961 275.327 21.5131C276.121 22.83 276.642 24.4601 276.875 26.4114C277.115 28.3627 277.235 30.6111 277.235 33.1566V102.777H277.227ZM361.413 102.777C361.413 104.608 360.996 105.86 360.163 106.535C359.329 107.209 358.118 107.547 356.523 107.547H306.685C303.421 107.547 300.743 107.169 298.635 106.414C296.526 105.66 294.834 104.664 293.568 103.427C292.293 102.191 291.419 100.842 290.946 99.3641C290.657 98.4647 290.465 97.5734 290.352 96.6901V38.4082C290.352 34.2728 290.192 30.4665 289.879 27.0056C289.695 24.9981 289.278 23.1753 288.677 21.497C288.156 19.7625 287.602 18.3894 287.017 17.3937C286.857 17.0805 286.777 16.8396 286.777 16.679C286.777 16.5987 286.793 16.5184 286.833 16.4381C286.873 16.3578 287.129 16.2373 287.61 16.0767C288.324 15.8358 289.158 15.7154 290.112 15.7154C292.501 15.7154 294.858 16.0767 297.208 16.7914C299.549 17.5061 301.641 18.6062 303.469 20.0757C305.297 21.5532 306.765 23.4162 307.879 25.6887C308.994 27.9612 309.547 30.6432 309.547 33.7508V53.336L316.346 52.9747V33.9837C316.346 31.117 316.145 28.194 315.753 25.2069C315.352 22.2197 314.398 19.4574 312.89 16.9038C312.73 16.5907 312.65 16.3498 312.65 16.1892C312.65 16.1089 312.666 16.0286 312.706 15.9483C312.746 15.868 313.002 15.7475 313.484 15.5869C314.197 15.346 315.071 15.2256 316.105 15.2256C322.223 15.3862 326.977 17.0002 330.353 20.0596C333.728 23.1271 335.42 27.4874 335.42 33.1405V53.32L342.099 52.9586V34.4494C342.099 29.511 341.762 25.6967 341.088 22.9826C340.415 20.2764 339.677 18.2448 338.884 16.8958C338.723 16.5826 338.643 16.3417 338.643 16.1811C338.643 16.1008 338.659 16.0205 338.699 15.9402C338.739 15.8599 338.996 15.7395 339.477 15.5789C340.19 15.338 341.024 15.2175 341.978 15.2175C344.127 15.2175 346.348 15.5789 348.657 16.2936C350.958 17.0082 353.067 18.1083 354.975 19.5778C356.883 21.0553 358.431 22.9183 359.625 25.1908C360.82 27.4633 361.413 30.1453 361.413 33.2529V102.761V102.777ZM401.718 67.5491C401.718 68.9062 401.261 70.0545 400.347 71.0101C399.433 71.9657 398.303 72.4394 396.948 72.4394H390.63V102.777C390.63 104.126 390.173 105.266 389.259 106.182C388.345 107.097 387.214 107.555 385.859 107.555H372.502C371.468 107.555 370.417 107.137 369.343 106.302C368.268 105.467 367.731 104.294 367.731 102.777V26.4676C367.731 21.3765 367.354 17.49 366.601 14.8241C365.847 12.1581 365.23 10.3835 364.749 9.50819C364.508 9.10669 364.348 8.84973 364.268 8.72927C364.187 8.60882 364.147 8.51246 364.147 8.43216C364.147 8.27156 364.508 8.07081 365.222 7.83794C366.569 7.43644 368.084 7.24372 369.752 7.24372C371.419 7.24372 373.584 7.52477 376.014 8.07884C378.435 8.63292 380.72 9.58849 382.869 10.9456C385.017 12.3026 386.845 14.1495 388.353 16.4943C389.86 18.8471 390.622 21.8102 390.622 25.3916V51.184H396.94C398.295 51.184 399.425 51.6417 400.339 52.5571C401.253 53.4725 401.71 54.6048 401.71 55.9618V67.5491H401.718ZM471.176 70.3516C470.895 74.455 470.342 78.3736 469.508 82.1156C468.674 85.8576 467.496 89.3185 465.988 92.5064C464.473 95.6863 462.452 98.4567 459.911 100.809C457.369 103.154 454.25 104.985 450.546 106.302C446.85 107.619 442.416 108.269 437.253 108.269C431.055 108.269 426.004 107.29 422.107 105.346C418.211 103.395 415.148 100.633 412.927 97.0434C410.698 93.462 409.151 89.1419 408.277 84.0829C407.403 79.0321 406.89 73.395 406.729 67.1878C406.649 65.2766 406.609 63.4057 406.609 61.5748C406.609 57.5116 406.769 53.336 407.09 49.0319C407.411 44.7359 408.245 40.4719 409.592 36.2562C407.844 34.4253 406.473 32.3777 405.479 30.1052C404.484 27.8327 403.747 25.6084 403.274 23.4162C402.801 21.224 402.52 19.2406 402.44 17.4418C402.36 15.6511 402.32 14.3182 402.32 13.4429C402.32 13.0494 402.44 12.8487 402.68 12.8487C402.921 12.8487 403.113 12.929 403.274 13.0896C404.068 13.8845 404.965 14.7438 405.96 15.6592C406.954 16.5746 408.044 17.4338 409.239 18.2288C410.434 19.0238 411.74 19.6822 413.176 20.1961C414.603 20.7181 416.158 20.9751 417.826 20.9751C418.7 20.9751 419.598 20.7984 420.512 20.437C421.426 20.0757 422.083 19.8187 422.476 19.6581C425.258 18.3894 428.024 17.2331 430.766 16.1972C433.509 15.1613 436.748 14.6474 440.484 14.6474C450.498 14.6474 458.187 18.2689 463.559 25.512C468.923 32.7551 471.609 43.5474 471.609 57.873C471.609 62.0968 471.472 66.2563 471.192 70.3516H471.176Z" fill="#E6001C"/>
<path d="M460.977 59.7208C459.549 59.6003 458.275 59.5441 457.16 59.5441C456.366 59.5441 455.268 59.5843 453.881 59.6646C452.486 59.7449 451.315 59.8252 450.361 59.9055C449.407 59.9858 448.774 60.0259 448.453 60.0259C447.579 60.0259 447.098 59.8653 447.026 59.5522V59.4317C447.026 59.1908 447.306 58.7732 447.86 58.179C448.413 57.5848 449.126 56.9022 450.008 56.1474C450.882 55.3926 451.836 54.5575 452.871 53.6421C453.905 52.7266 454.835 51.8112 455.669 50.8958C456.503 49.9804 457.096 49.1613 457.457 48.4466C457.818 47.732 457.994 47.1297 457.994 46.6559C457.994 46.415 457.954 46.1741 457.874 45.9413C457.401 44.9054 456.286 43.8133 454.538 42.657C452.79 41.5007 450.858 40.505 448.758 39.6698C446.649 38.8347 444.845 38.2806 443.33 37.9996C441.822 37.7185 440.668 37.582 439.874 37.582C439 37.582 438.286 37.7025 437.725 37.9434C436.771 38.3449 436.234 39.2202 436.114 40.5692C435.993 41.9263 435.937 43.0746 435.937 44.0301C435.937 44.9054 435.993 46.1019 436.114 47.6115C436.234 49.1212 436.354 50.414 436.474 51.49C436.595 52.566 436.651 53.3048 436.651 53.6983C436.651 54.4932 436.531 54.975 436.29 55.1276C436.21 55.2079 436.13 55.2481 436.05 55.2481C435.649 55.2481 434.975 54.7101 434.021 53.634C433.067 52.558 431.936 51.3294 430.622 49.9322C429.307 48.543 428.016 47.3465 426.749 46.3508C425.474 45.3551 424.368 44.8572 423.414 44.8572C423.253 44.8572 423.053 44.8974 422.82 44.9777C421.946 45.1383 421.032 46.0537 420.078 47.7239C419.124 49.3942 418.21 51.2652 417.336 53.3369C416.462 55.4087 415.885 57.1431 415.604 58.5323C415.324 59.9296 415.188 60.9413 415.188 61.5757C415.188 62.2101 415.268 62.732 415.428 63.1255C416.061 64.0811 417.08 64.6191 418.467 64.7395C419.854 64.86 421.105 64.9162 422.219 64.9162C423.013 64.9162 424.103 64.8761 425.498 64.7958C426.885 64.7155 428.08 64.6191 429.074 64.4986C430.068 64.3782 430.726 64.322 431.038 64.322C431.912 64.322 432.393 64.4826 432.466 64.7958V64.9162C432.466 65.39 431.872 66.1689 430.678 67.2449C429.483 68.3209 428.152 69.5335 426.685 70.8905C425.21 72.2476 423.999 73.5163 423.053 74.7128C422.099 75.9093 421.626 76.905 421.626 77.7C421.626 78.0212 421.666 78.2942 421.746 78.5351C422.147 79.4907 423.213 80.5265 424.969 81.6427C426.717 82.7589 428.665 83.7546 430.814 84.6299C432.963 85.5052 434.791 86.1074 436.298 86.4206C437.805 86.7418 438.96 86.8943 439.754 86.8943C440.547 86.8943 441.221 86.7739 441.782 86.533C442.736 86.1395 443.274 85.2643 443.394 83.9072C443.514 82.5581 443.57 81.4018 443.57 80.4462C443.57 79.4907 443.514 78.2781 443.394 76.8006C443.274 75.3311 443.153 74.0383 443.033 72.9221C442.913 71.8059 442.857 71.0511 442.857 70.6496C442.857 69.8547 442.977 69.3729 443.217 69.2203C443.298 69.14 443.378 69.0998 443.458 69.0998C443.851 69.0998 444.532 69.6378 445.486 70.7139C446.44 71.7899 447.595 73.0265 448.942 74.4157C450.289 75.8129 451.604 77.0255 452.879 78.0613C454.145 79.0972 455.26 79.6111 456.214 79.6111C456.455 79.6111 456.647 79.571 456.807 79.4907C457.681 79.2498 458.635 78.2942 459.67 76.624C460.704 74.9537 461.618 73.0988 462.412 71.0672C463.205 69.0356 463.743 67.3493 464.023 65.9922C464.304 64.6432 464.44 63.6475 464.44 63.0051C464.44 62.2904 464.32 61.7363 464.079 61.3348C463.446 60.3792 462.412 59.8412 460.977 59.7208Z" fill="#E6001C"/>
<path d="M340.432 70.5273H339.951L335.301 70.8887V88.4423C335.301 89.8716 335.934 90.5943 337.209 90.5943H340.192C341.146 90.5943 341.723 90.2972 341.923 89.695C342.124 89.1008 342.22 88.6029 342.22 88.2014V72.5589C342.22 71.9246 342.1 71.4267 341.859 71.0654C341.619 70.704 341.146 70.5273 340.432 70.5273Z" fill="#E6001C"/>
<path d="M315.031 70.416C314.79 70.416 314.518 70.4562 314.197 70.5365L309.547 70.8978V88.4514C309.547 89.8808 310.18 90.6035 311.455 90.6035H314.317C315.272 90.6035 315.865 90.3064 316.105 89.7041C316.346 89.1099 316.466 88.612 316.466 88.2105V72.5681C316.466 71.9337 316.386 71.4117 316.226 71.0183C316.065 70.6248 315.672 70.424 315.031 70.424V70.416Z" fill="#E6001C"/>
<path d="M479.122 11.5953V1.71039H475.466C475.089 1.71039 474.953 1.57388 474.953 1.19647V0.513921C474.953 0.13651 475.089 0 475.466 0H484.823C485.2 0 485.336 0.13651 485.336 0.513921V1.19647C485.336 1.57388 485.2 1.71039 484.823 1.71039H481.167V11.5953C481.167 11.9728 481.031 12.1093 480.654 12.1093H479.627C479.251 12.1093 479.114 11.9728 479.114 11.5953H479.122Z" fill="#E6001C"/>
<path d="M492.366 10.3667L488.726 3.09959V11.6034C488.726 11.9808 488.59 12.1173 488.213 12.1173H487.259C486.882 12.1173 486.746 11.9808 486.746 11.6034V0.513921C486.746 0.13651 486.882 0 487.259 0H488.879C489.151 0 489.36 0.12045 489.48 0.377411L493.377 8.26288L497.273 0.377411C497.394 0.12045 497.602 0 497.875 0H499.494C499.871 0 500.007 0.13651 500.007 0.513921V11.5953C500.007 11.9728 499.871 12.1093 499.494 12.1093H498.5C498.123 12.1093 497.987 11.9728 497.987 11.5953V3.09959L494.347 10.3667C494.227 10.6237 494.018 10.7442 493.746 10.7442H492.96C492.687 10.7442 492.479 10.6237 492.358 10.3667H492.366Z" fill="#E6001C"/>
</g>
<defs>
<clipPath id="clip0_3106_4437">
<rect width="500" height="122" fill="white"/>
</clipPath>
</defs>
</svg>
