<svg width="1653" height="454" viewBox="0 0 1653 454" fill="none" xmlns="http://www.w3.org/2000/svg">
<g opacity="0.3">
<path d="M66.0254 400.848C70.0639 398.258 82.2521 401.352 94.1514 406.46C106.195 411.353 117.012 417.757 118.021 422.434C120.115 431.506 102.779 444.948 93.3604 453.499H0C0.979678 450.404 2.13966 447.223 3.42773 444.091C8.62002 431.716 15.9039 420.204 21.3848 417.901C32.635 413.296 55.2081 450.854 59.9678 449.559C64.655 448.335 54.7032 407.827 65.9531 400.848H66.0254Z" fill="white"/>
<path d="M1558.7 406.46C1570.6 401.352 1582.78 398.258 1586.82 400.848H1586.89C1598.14 407.827 1588.19 448.336 1592.88 449.559C1597.64 450.853 1620.21 413.296 1631.46 417.901C1636.94 420.203 1644.15 431.716 1649.42 444.091C1650.71 447.223 1651.87 450.404 1652.86 453.499H1559.49C1550.07 444.948 1532.73 431.506 1534.83 422.434C1535.83 417.757 1546.58 411.353 1558.7 406.46Z" fill="white"/>
<path d="M1468.33 243.567C1479.08 236.228 1490.4 230.831 1494.87 232.558V232.63C1507.2 237.307 1505.4 278.894 1510.23 279.182C1515.06 279.54 1529.92 238.243 1541.96 240.689C1547.73 241.84 1557.11 251.77 1564.68 262.85C1572.11 274.074 1577.81 286.449 1576.65 292.205C1574.27 304.221 1530.42 302.207 1528.91 306.812C1527.33 311.417 1566.63 325.519 1566.27 338.758C1566.19 343.507 1556.82 351.853 1546 358.976C1535.26 366.243 1523.93 371.712 1519.46 370.057C1507.13 365.308 1508.86 323.65 1504.1 323.432C1499.2 323.144 1484.41 364.3 1472.37 361.998C1466.6 360.775 1457.23 350.917 1449.65 339.765C1442.15 328.541 1436.53 316.165 1437.68 310.337C1439.99 298.393 1483.91 300.336 1485.42 295.731C1487.01 291.126 1447.78 277.024 1448 263.857C1448.07 259.108 1457.44 250.69 1468.33 243.567Z" fill="white"/>
<path d="M162.374 229.32C166.845 227.593 178.095 232.989 188.841 240.328C199.73 247.452 209.106 255.87 209.178 260.618C209.466 273.785 170.237 287.887 171.821 292.493C173.336 297.097 217.255 295.155 219.562 307.099C220.716 312.927 215.091 325.302 207.591 336.527C200.019 347.679 190.643 357.537 184.874 358.76C172.831 361.062 158.046 319.834 153.143 320.194C148.383 320.412 150.114 362.07 137.782 366.819C133.311 368.474 121.989 363.005 111.243 355.738C100.426 348.615 91.0508 340.269 90.9785 335.52C90.6179 322.281 129.92 308.179 128.335 303.574C126.821 298.969 82.9736 300.983 80.5938 288.967C79.5121 283.211 85.1365 270.835 92.5645 259.611C100.137 248.459 109.512 238.53 115.281 237.378C127.324 235.004 142.18 276.23 147.013 275.872C151.845 275.585 150.042 233.997 162.374 229.32Z" fill="white"/>
<path d="M259.873 95.2728C272.061 95.2731 278.551 138.659 283.383 139.236C288.143 139.955 294.561 98.7273 307.614 96.5687V96.4964C312.302 95.633 322.326 103.187 331.413 112.469C340.644 121.535 348.216 131.537 347.351 136.286C345.115 149.237 303.865 155.425 304.514 160.245C305.093 165.138 348.505 171.686 348.505 183.917C348.505 189.817 340.5 200.898 330.98 210.467C321.389 219.893 310.283 227.807 304.369 227.807C292.11 227.807 285.691 184.495 280.859 183.845C276.028 183.198 269.609 224.353 256.628 226.584C251.94 227.376 241.916 219.82 232.829 210.611C223.598 201.545 216.098 191.544 216.892 186.795C219.199 173.844 260.45 167.584 259.801 162.835C259.151 158.015 215.81 151.395 215.81 139.163C215.81 133.263 223.742 122.182 233.262 112.685C242.853 103.187 253.96 95.2728 259.873 95.2728Z" fill="white"/>
<path d="M1392.97 95.2728C1398.89 95.2729 1409.99 103.187 1419.59 112.685C1429.11 122.182 1437.04 133.263 1437.11 139.163C1437.11 151.395 1393.77 158.015 1393.12 162.835C1392.47 167.584 1433.72 173.844 1436.03 186.795C1436.82 191.544 1429.32 201.545 1420.09 210.611C1411 219.82 1400.98 227.375 1396.29 226.584C1383.24 224.354 1376.89 183.198 1372.06 183.845C1367.23 184.493 1360.74 227.806 1348.55 227.807C1342.64 227.807 1331.53 219.893 1321.94 210.467C1312.42 200.898 1304.42 189.817 1304.42 183.917C1304.42 171.686 1347.76 165.138 1348.41 160.245C1349.06 155.425 1307.81 149.237 1305.57 136.286C1304.7 131.537 1312.28 121.535 1321.51 112.469C1330.59 103.188 1340.62 95.633 1345.31 96.4964L1345.23 96.5687C1358.29 98.7281 1364.71 139.955 1369.46 139.236C1374.3 138.658 1380.79 95.2728 1392.97 95.2728Z" fill="white"/>
<path d="M417.667 12.0238C428.917 4.54085 441.322 -0.999508 447.163 0.151712C459.134 2.59909 457.043 46.3437 461.658 47.8548C466.274 49.3658 480.553 10.2971 493.75 10.6566H493.678C498.437 10.7285 506.875 20.0821 513.942 30.9466C521.226 41.7391 526.635 53.0349 524.904 57.4242C520.145 69.7276 478.463 67.7857 478.173 72.6781C477.812 77.5707 519.063 92.4647 516.684 104.409C515.458 110.237 505.505 119.518 494.327 127.001C483.077 134.412 470.6 140.025 464.831 138.873C452.86 136.426 454.951 92.6818 450.336 91.098C445.72 89.5151 431.441 128.655 418.244 128.296C413.484 128.152 405.118 118.871 398.051 108.006C390.767 97.2857 385.359 85.9897 387.09 81.5287C391.849 69.2253 433.531 71.1673 433.821 66.347C434.182 61.5264 392.932 46.5604 395.311 34.6166C396.537 28.7885 406.489 19.5067 417.667 12.0238Z" fill="white"/>
<path d="M1205.68 0.151712C1211.52 -0.999508 1223.93 4.54085 1235.18 12.0238C1246.43 19.5067 1256.31 28.7886 1257.54 34.6166C1259.91 46.5604 1218.66 61.5264 1219.02 66.347C1219.32 71.1672 1261 69.2253 1265.76 81.5287C1267.49 85.9897 1262.08 97.2857 1254.72 108.006C1247.66 118.871 1239.29 128.152 1234.53 128.296C1221.33 128.656 1207.05 89.5151 1202.44 91.098C1197.82 92.6812 1199.91 136.426 1187.94 138.873C1182.17 140.025 1169.7 134.412 1158.45 127.001C1147.27 119.518 1137.32 110.237 1136.09 104.409C1133.71 92.4647 1174.96 77.5707 1174.6 72.6781C1174.31 67.7857 1132.63 69.7276 1127.87 57.4242C1126.14 53.035 1131.55 41.7391 1138.83 30.9466C1145.9 20.082 1154.34 10.7285 1159.1 10.6566C1172.29 10.2976 1186.57 49.3658 1191.19 47.8548C1195.8 46.342 1193.71 2.59839 1205.68 0.151712Z" fill="white"/>
</g>
</svg>
