<svg width="499" height="232" viewBox="0 0 499 232" fill="none" xmlns="http://www.w3.org/2000/svg">
<path opacity="0.3" d="M214.773 4.56664C209.071 4.41248 202.901 21.1548 200.906 20.5073C198.912 19.8598 199.816 1.11334 194.643 0.0650139C192.119 -0.428315 186.759 1.94583 181.898 5.15247C177.068 8.35911 172.767 12.3366 172.238 14.8341C171.209 19.9523 189.034 26.3656 188.878 28.4314C188.753 30.4972 170.742 29.6648 168.685 34.9372C167.937 36.8489 170.274 41.6896 173.422 46.2838C176.476 50.9396 180.09 54.917 182.147 54.9787C187.85 55.1329 194.02 38.3597 196.014 39.038C198.008 39.7163 197.105 58.4628 202.277 59.5112C204.77 60.0045 210.161 57.5995 215.022 54.4237C219.852 51.2171 224.153 47.2396 224.682 44.7421C225.711 39.6238 207.886 33.2414 208.042 31.1447C208.167 29.0481 226.178 29.8806 228.235 24.6081C228.983 22.7273 226.646 17.8865 223.498 13.2616C220.445 8.60577 216.799 4.59748 214.742 4.56664H214.773Z" fill="white"/>
<path opacity="0.3" d="M134.342 41.3831C128.702 42.3081 125.929 59.9755 123.872 59.6671C121.784 59.4205 118.98 40.8281 113.714 40.8281C111.158 40.8281 106.359 44.2198 102.215 48.2897C98.1016 52.3597 94.6738 57.108 94.6738 59.6363C94.6738 64.8779 113.402 67.7146 113.682 69.7804C113.963 71.8153 96.1384 74.4978 95.1413 80.0478C94.7985 82.0828 98.0393 86.3686 102.028 90.2535C105.954 94.2001 110.286 97.4376 112.311 97.0985C117.92 96.1426 120.694 78.5061 122.782 78.7836C124.869 79.0611 127.643 97.6226 132.94 97.6226C135.495 97.6226 140.294 94.231 144.439 90.1919C148.552 86.0911 152.011 81.3428 152.011 78.8145C152.011 73.5728 133.252 70.767 133.002 68.6704C132.722 66.6046 150.546 63.9529 151.512 58.403C151.886 56.368 148.614 52.0822 144.626 48.1972C140.699 44.2198 136.368 40.9823 134.342 41.3523V41.3831Z" fill="white"/>
<path opacity="0.3" d="M71.5804 98.2716C66.2518 100.276 67.0308 118.097 64.943 118.221C62.8552 118.375 56.4359 100.707 51.2319 101.725C48.739 102.218 44.688 106.473 41.4161 111.252C38.2064 116.062 35.7758 121.366 36.2433 123.832C37.2716 128.981 56.2178 128.118 56.8722 130.091C57.5577 132.065 40.5747 138.108 40.7305 143.781C40.7617 145.816 44.8127 149.393 49.4869 152.445C54.13 155.559 59.0223 157.903 60.9543 157.194C66.283 155.159 65.5351 137.306 67.5917 137.214C69.7107 137.06 76.0988 154.727 81.3028 153.74C83.7957 153.216 87.8467 148.992 91.1187 144.213C94.3595 139.403 96.7901 134.1 96.2915 131.602C95.2943 126.484 76.317 127.316 75.6626 125.343C74.977 123.37 91.9289 117.326 91.8042 111.684C91.7731 109.649 87.7221 106.042 83.0167 102.989C78.3736 99.8441 73.5124 97.5316 71.5804 98.2716Z" fill="white"/>
<path opacity="0.3" d="M29.9216 171.775C25.0604 174.766 29.3607 192.125 27.3352 192.649C25.2785 193.204 15.525 177.109 10.6638 179.083C8.29551 180.069 5.1482 185.003 2.90457 190.306C0.692104 195.64 -0.647841 201.313 0.318166 203.657C2.34367 208.498 20.7601 204.027 21.7885 205.846C22.8479 207.634 7.39183 216.853 8.63829 222.372C9.10572 224.377 13.7799 227.09 18.9528 229.187C24.1256 231.345 29.3919 232.702 31.1369 231.622C35.9669 228.601 31.6978 211.273 33.7233 210.748C35.7488 210.193 45.5335 226.288 50.4259 224.284C52.7942 223.297 55.9103 218.364 58.154 213.03C60.3976 207.696 61.7375 202.023 60.7715 199.679C58.746 194.839 40.3296 199.309 39.3012 197.521C38.2417 195.733 53.6979 186.514 52.4202 181.025C51.984 179.021 47.3097 176.277 42.1058 174.18C36.9641 171.991 31.6978 170.665 29.9528 171.775H29.9216Z" fill="white"/>
<path opacity="0.3" d="M283.934 4.56664C289.636 4.41248 295.806 21.1548 297.801 20.5073C299.795 19.8598 298.891 1.11334 304.064 0.0650139C306.588 -0.428315 311.948 1.94583 316.809 5.15247C321.639 8.35911 325.94 12.3366 326.469 14.8341C327.498 19.9523 309.673 26.3656 309.829 28.4314C309.954 30.4972 327.965 29.6648 330.022 34.9372C330.77 36.8489 328.433 41.6896 325.285 46.2838C322.231 50.9396 318.617 54.917 316.56 54.9787C310.857 55.1329 304.687 38.3597 302.693 39.038C300.699 39.7163 301.602 58.4628 296.43 59.5112C293.937 60.0045 288.546 57.5995 283.685 54.4237C278.855 51.2171 274.554 47.2396 274.025 44.7421C272.996 39.6238 290.821 33.2414 290.665 31.1447C290.54 29.0481 272.529 29.8806 270.472 24.6081C269.724 22.7273 272.061 17.8865 275.209 13.2616C278.263 8.60577 281.908 4.59748 283.965 4.56664H283.934Z" fill="white"/>
<path opacity="0.3" d="M364.367 41.3831C370.007 42.3081 372.78 59.9755 374.837 59.6671C376.925 59.4205 379.729 40.8281 384.995 40.8281C387.551 40.8281 392.35 44.2198 396.494 48.2897C400.607 52.3597 404.035 57.108 404.035 59.6363C404.035 64.8779 385.307 67.7146 385.027 69.7804C384.746 71.8153 402.571 74.4978 403.568 80.0478C403.911 82.0828 400.67 86.3686 396.681 90.2535C392.755 94.2001 388.423 97.4376 386.398 97.0985C380.789 96.1426 378.015 78.5061 375.927 78.7836C373.84 79.0611 371.066 97.6226 365.769 97.6226C363.214 97.6226 358.415 94.231 354.27 90.1919C350.157 86.0911 346.698 81.3428 346.698 78.8145C346.698 73.5728 365.457 70.767 365.706 68.6704C365.987 66.6046 348.163 63.9529 347.197 58.403C346.823 56.368 350.095 52.0822 354.083 48.1972C358.01 44.2198 362.341 40.9823 364.367 41.3523V41.3831Z" fill="white"/>
<path opacity="0.3" d="M427.127 98.2716C432.455 100.276 431.676 118.097 433.764 118.221C435.852 118.375 442.271 100.707 447.475 101.725C449.968 102.218 454.019 106.473 457.291 111.252C460.501 116.062 462.931 121.366 462.464 123.832C461.435 128.981 442.489 128.118 441.835 130.091C441.149 132.065 458.132 138.108 457.977 143.781C457.945 145.816 453.894 149.393 449.22 152.445C444.577 155.559 439.685 157.903 437.753 157.194C432.424 155.159 433.172 137.306 431.115 137.214C428.996 137.06 422.608 154.727 417.404 153.74C414.911 153.216 410.86 148.992 407.588 144.213C404.348 139.403 401.917 134.1 402.416 131.602C403.413 126.484 422.39 127.316 423.044 125.343C423.73 123.37 406.778 117.326 406.903 111.684C406.934 109.649 410.985 106.042 415.69 102.989C420.333 99.8441 425.195 97.5316 427.127 98.2716Z" fill="white"/>
<path opacity="0.3" d="M468.785 171.775C473.647 174.766 469.346 192.125 471.372 192.649C473.428 193.204 483.182 177.109 488.043 179.083C490.412 180.069 493.559 185.003 495.802 190.306C498.015 195.64 499.355 201.313 498.389 203.657C496.363 208.498 477.947 204.027 476.919 205.846C475.859 207.634 491.315 216.853 490.069 222.372C489.601 224.377 484.927 227.09 479.754 229.187C474.581 231.345 469.315 232.702 467.57 231.622C462.74 228.601 467.009 211.273 464.984 210.748C462.958 210.193 453.173 226.288 448.281 224.284C445.913 223.297 442.797 218.364 440.553 213.03C438.309 207.696 436.97 202.023 437.936 199.679C439.961 194.839 458.377 199.309 459.406 197.521C460.465 195.733 445.009 186.514 446.287 181.025C446.723 179.021 451.397 176.277 456.601 174.18C461.743 171.991 467.009 170.665 468.754 171.775H468.785Z" fill="white"/>
</svg>
