<svg width="360" height="465" viewBox="0 0 360 465" fill="none" xmlns="http://www.w3.org/2000/svg">
<g opacity="0.3">
<path d="M146.843 370.814C146.951 370.544 149.374 370.382 149.523 370.651C152.931 376.727 163.207 385.045 194.157 377.119C239.464 365.508 244.501 397.818 244.501 397.818C244.501 397.818 257.08 382.682 280.245 389.231C295.208 393.47 299.033 403.192 299.868 409.538C299.909 409.835 301.862 410.186 301.983 409.902C305.108 403.178 312.071 392.903 325.054 394.267C335.633 395.386 348.985 397.119 360 393.749V450.012C343.774 450.23 333.887 442.115 325.054 444.225C317.296 446.075 312.798 457.714 310.939 463.776C310.562 465.019 308.65 465.289 307.896 464.249C303.72 458.457 292.959 446.629 273.7 444.738C248.03 442.213 243.491 456.85 214.804 454.838C186.169 452.83 181.594 424.657 181.577 424.553C181.533 424.644 173.974 440.201 157.416 440.201C140.838 440.201 122.742 419.074 122.682 419.003C122.716 419.069 136.746 446.446 107.071 451.489C77.3743 456.539 73.8455 438.365 49.1719 437.865C30.9764 437.487 16.6197 453.596 10.3301 462.075C9.45465 463.263 6.828 462.48 6.62598 461.008C6.03969 456.665 4.39828 450.811 0 446.214V391.714C7.50605 392.101 14.1761 391.744 19.4609 389.731C34.0603 384.181 51.6767 375.094 69.8047 379.631C87.9328 384.168 88.4315 393.254 119.139 387.205C138.29 383.425 144.715 375.931 146.843 370.814Z" fill="#F9B9BD"/>
<path d="M360 316.963C355.232 319.496 349.374 321.274 342.334 321.275C317.795 321.275 307.222 296.957 281.929 299.995C258.871 302.75 257.457 326.891 247.948 334.871C246.803 335.829 245.214 334.655 245.12 333.156C244.73 326.77 240.204 313.699 210.548 310.58C170.898 306.422 175.813 326.851 153.914 326.486C139.961 326.243 135.354 316.629 133.859 309.676C133.63 308.609 130.883 308.191 130.398 309.163C125.577 318.898 114.021 336.153 92.3779 336.693C62.1688 337.45 49.3335 316.252 21.0234 317.386C13.2357 317.696 6.16269 320.327 0 323.979V269.532C17.3327 263.079 38.6912 252.033 45.7783 248.295C46.9365 247.674 48.4047 248.444 48.7549 249.713C49.9536 253.98 53.5362 261.919 63.6641 263.282C77.6303 265.173 84.8089 262.149 104.445 267.441C124.082 272.734 146.735 277.663 166.749 273.504C186.763 269.345 201.106 246.257 221.497 247.013C241.888 247.769 253.215 256.855 255.101 263.282C256.98 269.688 255.862 277.986 255.854 278.04C255.906 277.961 270.223 256.092 284.178 259.488C298.144 262.891 302.306 275.759 302.306 275.759C302.306 275.759 308.717 267.049 323.828 256.45C337.873 246.599 342.448 246.557 360 245.082V316.963Z" fill="#F9B9BD"/>
<path d="M71.2461 140.277C91.2597 134.228 102.21 117.567 118.062 123.251C127.934 126.789 127.557 134 125.873 138.928C125.537 139.927 127.288 141.547 128.217 141.034C135.059 137.24 148.554 131.407 164.877 132.703C188.662 134.594 196.972 148.527 208.676 143.221C220.38 137.928 233.215 128.841 248.703 133.378C258.211 136.173 262.306 141.668 264.043 145.489C264.272 145.989 266.171 145.949 266.359 145.422C268.312 139.724 273.714 130.421 287.963 131.487C304.803 132.736 340.438 146.241 360 146.001V207.541C354.143 203.108 339.379 193.693 321.93 195.732C299.276 198.378 288.703 211.826 258.871 209.18C237.12 207.249 226.709 181.81 222.655 168.173C222.613 168.025 220.987 168.268 220.985 168.416C220.406 177.895 216.096 192.342 196.19 197.514C165.605 205.466 135.786 196.001 122.938 198.648C115.032 200.281 108.001 204.629 103.745 207.734C102.587 208.585 100.513 207.275 100.729 205.844C101.698 199.538 101.603 189.574 91.96 187.278C77.6166 183.876 67.0441 193.341 51.5693 191.06C41.6839 189.601 36.8753 185.065 34.6934 181.986C33.8449 180.785 31.7843 180.447 30.7607 181.514C26.1426 186.349 14.9214 196.761 0 201.394V130.423C3.64294 129.134 7.65587 128.375 11.959 128.544C31.5956 129.3 51.2189 146.326 71.2461 140.277Z" fill="#F9B9BD"/>
<path d="M146.843 0.300864C146.951 0.0308205 149.375 -0.131289 149.523 0.138755C152.931 6.21472 163.208 14.5322 194.157 6.60653C239.371 -4.98138 244.48 27.1599 244.501 27.2911C244.574 27.2033 257.148 12.1748 280.245 18.7042C295.208 22.9439 299.033 32.6658 299.868 39.0118C299.91 39.3088 301.862 39.6596 301.983 39.3897C305.108 32.6657 312.07 22.3903 325.054 23.754C335.633 24.8736 348.986 26.606 360 23.2364V79.5001C343.774 79.7211 333.887 71.6161 325.054 73.7257C317.296 75.5756 312.798 87.2139 310.939 93.2765C310.562 94.5187 308.65 94.7888 307.896 93.7491C303.72 87.9567 292.959 76.1288 273.7 74.2384C248.03 71.7135 243.491 86.3497 214.804 84.338C186.117 82.3261 181.577 54.0528 181.577 54.0528C181.556 54.096 173.999 69.702 157.416 69.7022C140.81 69.7022 122.682 48.503 122.682 48.503C122.682 48.503 136.782 75.9403 107.071 80.9766C77.3743 86.0262 73.8455 67.8522 49.1719 67.3526C30.9767 66.9881 16.6198 83.0822 10.3301 91.5616C9.45465 92.7498 6.828 91.9669 6.62598 90.4952C6.03973 86.1446 4.39867 80.2908 0 75.6954V21.1905C7.50614 21.5795 14.1761 21.2257 19.4609 19.2169C34.0603 13.6675 51.6767 4.58084 69.8047 9.11727C87.9328 13.654 88.4316 22.7413 119.139 16.6925C138.29 12.9254 144.715 5.41818 146.843 0.300864Z" fill="#F9B9BD"/>
</g>
</svg>
