<svg width="1915" height="371" viewBox="0 0 1915 371" fill="none" xmlns="http://www.w3.org/2000/svg">
<g opacity="0.3">
<path d="M722.839 309.446C766.16 296.392 789.862 260.434 824.175 272.701C845.544 280.335 844.728 295.896 841.084 306.532C840.355 308.688 844.145 312.185 846.156 311.078C860.966 302.89 890.178 290.301 925.512 293.098C976.996 297.178 994.984 327.25 1020.32 315.799C1045.65 304.376 1073.43 284.765 1106.96 294.555C1127.54 300.587 1136.41 312.447 1140.17 320.693C1140.66 321.771 1144.77 321.684 1145.18 320.548C1149.41 308.251 1161.1 288.174 1191.94 290.476C1236.08 293.74 1339.87 335.788 1369.31 316.993C1385.81 306.474 1385.61 294.905 1382.23 286.775C1381.99 286.192 1385.31 282.814 1385.87 283.104C1401.76 291.963 1434.18 305.483 1477.15 299.83C1539.27 291.642 1602.19 286.746 1627.55 305.541C1644.72 318.275 1641.63 334.739 1637.84 344.063C1636.59 347.152 1638.86 350.561 1642.1 349.717C1650.46 347.531 1665.89 342.344 1690.46 330.048C1731.33 309.621 1733.78 304.725 1758.3 310.436C1774.07 314.108 1784.07 324.889 1789.23 332.116C1791.39 335.146 1796.32 335.7 1799.03 333.165C1808.44 324.307 1829.41 308.688 1858.82 310.466C1899.62 312.909 1914.92 321.072 1914.97 321.101V371H1050.99C1050.85 370.543 1050.71 370.092 1050.58 369.647C1050.49 369.327 1046.97 369.851 1046.96 370.172C1046.95 370.446 1046.93 370.722 1046.91 371H0V324.106C9.34109 324.27 30.4357 325.368 51.79 331.475C80.3893 339.664 112.254 332.291 113.1 313.496C113.566 302.802 108.464 289.485 104.004 279.957C102.634 277.043 106.424 273.517 109.164 275.236C119.718 281.822 135.635 291.059 148.783 296.071C186.158 310.262 225.748 303.472 260.906 293.652C296.065 283.861 342.768 280.802 359.123 309.417C370.376 329.086 356.354 347.852 346.5 357.642C344.343 359.77 346.033 363.645 349.007 363.062C362.767 360.323 387.956 353.213 412.24 335.555C448.186 309.417 458.011 303.705 478.447 302.889C498.836 302.075 522.475 322.405 522.585 322.5C522.643 322.421 552.043 282.465 594.506 284.124C637.011 285.756 679.488 322.501 722.839 309.446Z" fill="#F6B2B9"/>
<path d="M1456.39 35.0994C1503.24 18.7523 1594.87 -21.4889 1627.52 14.5565C1644.57 33.4094 1631.83 50.5431 1621.28 59.9842C1618.92 62.0823 1620.61 66.5695 1623.73 66.1033C1641.14 63.4808 1673.41 56.5751 1700.46 39.2664C1739.7 14.2067 1764.77 -3.21916 1806.17 12.0496C1831.65 21.4325 1842.29 33.2927 1846.69 41.0438C1848.39 44.0158 1853.46 45.3562 1855.94 43.0252C1864.54 34.8662 1880.22 21.1996 1890.07 19.6844C1904.19 17.5074 1914.8 19.6677 1914.88 19.6844V157.309C1914.8 157.377 1892.18 176.913 1844.3 172.55C1811.33 169.548 1790.22 146.994 1780.25 133.182C1778.39 130.618 1772.56 131.93 1771.86 135.018C1768.8 148.743 1759.93 169.344 1734.25 173.628C1695.01 180.155 1691.74 144.226 1642.71 148.596C1593.67 152.938 1545.72 171.267 1495.6 162.555C1461.67 156.668 1447.24 126.684 1441.46 107.889C1440.5 104.713 1434.12 104.393 1432.92 107.481C1424.56 129.248 1405.11 167.858 1370.3 175.609C1321.27 186.507 1295.12 160.369 1272.23 165.818C1255.44 169.81 1245.7 194.928 1241.68 208.012C1240.86 210.692 1236.72 211.276 1235.09 209.032C1226.05 196.531 1202.76 171.005 1161.07 166.926C1105.5 161.477 1095.68 193.063 1033.58 188.721C971.486 184.38 961.661 123.362 961.661 123.362C961.64 123.407 945.283 157.135 909.36 157.135C873.415 157.134 834.175 111.386 834.175 111.386C834.175 111.386 864.698 170.597 800.386 181.466C736.103 192.364 728.465 153.143 675.057 152.064C635.671 151.278 604.593 186.012 590.979 204.311C589.084 206.875 583.4 205.185 582.962 202.01C580.571 184.322 570.076 155.124 526.842 154.25C473.433 153.172 474.541 192.364 397.168 193.471C319.971 194.549 316.559 117.184 278.66 110.337C278.486 110.308 278.34 110.337 278.369 110.512C278.486 114.766 293.295 176.366 221.754 196.327C147.71 216.998 106.319 159.389 106.249 159.291C106.249 159.291 83.3632 183.856 52.8398 191.49C30.1942 197.143 9.25642 191.975 0 188.951V29.1307C8.75626 23.7418 27.6151 13.9951 45.2305 17.2078C63.5385 20.5297 84.3833 48.8818 93.2168 62.1111C94.7619 64.4131 98.7855 63.7725 99.6895 61.1502C104.879 46.3474 121.03 16.1587 165.08 25.3084C222.832 37.2846 218.488 54.7098 251.169 53.6317C283.85 52.5535 323.09 22.0449 361.223 31.8358C388.626 38.8876 395.244 76.3313 396.76 96.8162C396.935 99.1182 401.454 99.9632 402.445 97.8943C411.891 78.4584 434.339 43.0256 472.354 43.8123C524.655 44.8905 579.142 60.1585 610.744 48.1824C642.346 36.2062 680.479 16.5959 719.719 26.3865C758.959 36.1773 760.038 55.7884 826.507 42.7342C867.963 34.6043 881.869 18.402 886.476 7.35822C886.711 6.7757 891.956 6.42606 892.277 7.00861C899.653 20.1213 921.897 38.0714 988.891 20.9666C1086.96 -4.09315 1097.87 65.6082 1097.87 65.6082C1097.87 65.6082 1125.09 32.9436 1175.24 47.076C1207.63 56.2257 1215.91 77.2057 1217.71 90.9012C1217.8 91.5422 1222.03 92.2994 1222.29 91.7166C1229.05 77.2052 1244.13 55.0304 1272.23 57.9734C1313.1 62.2861 1373.1 70.824 1389.31 13.4197C1389.69 12.1085 1390.68 11.7295 1391.5 12.8367C1396.92 20.3255 1415.4 49.4064 1456.39 35.0994Z" fill="#F6B2B9"/>
</g>
</svg>
