<svg width="1920" height="800" viewBox="0 0 1920 800" fill="none" xmlns="http://www.w3.org/2000/svg">
<g opacity="0.3">
<path d="M1501.37 610.354C1552 592.68 1651.02 549.172 1686.31 588.143C1704.74 608.526 1690.98 627.083 1679.57 637.259C1677.02 639.559 1678.85 644.379 1682.22 643.875C1701.03 641.04 1735.9 633.574 1765.14 614.86C1807.55 587.766 1834.65 568.926 1879.39 585.434C1902.09 593.799 1913.89 603.987 1920 612.001V758.906C1884.71 755.445 1862.09 731.251 1851.38 716.401C1849.36 713.629 1843.06 715.046 1842.3 718.385C1838.99 733.224 1829.42 755.53 1801.66 760.129C1759.25 767.186 1755.72 728.341 1702.73 733.067C1649.73 737.793 1597.9 757.578 1543.74 748.158C1507.07 741.794 1491.47 709.375 1485.24 689.054C1484.2 685.621 1477.3 685.274 1476 688.613C1466.96 712.147 1445.95 753.891 1408.33 762.272C1355.33 774.055 1327.07 745.763 1302.34 751.655C1284.19 755.971 1273.67 783.128 1269.32 797.274C1268.44 800.172 1263.96 800.802 1262.2 798.376C1252.43 784.861 1227.26 757.263 1182.21 752.852C1122.15 746.961 1111.54 781.111 1044.43 776.417C977.377 771.727 966.718 705.867 966.699 705.751C966.661 705.83 948.982 742.266 910.177 742.266C871.387 742.266 829.047 692.95 828.921 692.803C829.008 692.972 861.816 756.837 792.404 768.604C722.932 780.387 714.677 737.982 656.957 736.816C614.392 735.934 580.806 773.519 566.092 793.304C564.044 796.076 557.899 794.249 557.427 790.815C554.843 771.723 543.5 740.123 496.776 739.178C439.056 738.013 440.253 780.387 356.635 781.553C273.205 782.719 269.519 699.072 228.561 691.668C228.372 691.668 228.214 691.669 228.245 691.889C228.371 696.49 244.376 763.091 167.06 784.672C87.0706 807.013 42.3422 744.786 42.2295 744.629C42.1474 744.717 24.8837 763.214 0 774.099V605.226C11.8156 616.25 22.3632 630.926 28.1465 639.591C29.8166 642.08 34.1639 641.386 35.1406 638.551C40.749 622.546 58.2045 589.908 105.811 599.8C168.225 612.749 163.531 631.589 198.85 630.423C234.169 629.257 276.577 596.271 317.787 606.857C347.403 614.481 354.556 654.934 356.194 677.114C356.384 679.602 361.267 680.515 362.338 678.279C372.546 657.265 396.806 618.956 437.891 619.806C494.414 620.972 553.3 637.48 587.453 624.5C621.606 611.552 662.818 590.348 705.226 600.934C747.633 611.52 748.799 632.723 820.634 618.609C865.436 609.788 880.465 592.302 885.443 580.362C885.698 579.732 891.365 579.354 891.713 579.984C899.684 594.161 923.725 613.568 996.127 595.075C1101.95 568.022 1113.86 643.144 1113.9 643.372C1113.99 643.261 1143.41 608.078 1197.52 623.334C1232.52 633.227 1241.47 655.911 1243.42 670.718C1243.52 671.411 1248.08 672.23 1248.37 671.569C1255.68 655.879 1271.97 631.904 1302.34 635.085C1346.51 639.748 1411.35 648.979 1428.87 586.914C1429.28 585.497 1430.35 585.088 1431.23 586.285C1437.09 594.382 1457.07 625.823 1501.37 610.354Z" fill="#FDE8EA"/>
<path d="M1461.61 254.725C1463.34 253.024 1468 255.324 1467.75 257.749C1465.54 279.078 1468.6 322.303 1525.6 337.394C1602.44 357.715 1643.05 268.494 1684.58 275.582C1726.01 282.623 1714.66 337.147 1714.61 337.394C1714.73 337.273 1742.07 311.163 1780.86 316.192C1816.97 320.906 1824.12 341.701 1824.15 341.805C1824.24 341.817 1842.83 344.396 1894.82 318.838C1903.34 314.652 1911.8 311.811 1920 309.987V498.166C1917.8 497.691 1915.58 497.168 1913.35 496.589C1881.87 488.398 1862.97 469.023 1854.72 458.563C1852.26 455.444 1846.9 455.161 1843.91 457.775C1835.4 465.179 1817.22 476.175 1786.19 472.741C1729.95 466.566 1697.88 437.424 1670.46 442.716C1643.09 448.009 1626.29 484.208 1545.92 479.797C1465.55 475.387 1454.08 416.189 1423.14 414.424C1424.02 414.424 1400.17 464.769 1342.76 464.769C1285.36 464.769 1260.63 408.029 1201.46 415.118C1147.52 421.545 1144.21 477.875 1121.96 496.495C1119.29 498.731 1115.57 495.991 1115.35 492.494C1114.43 477.591 1103.85 447.095 1034.47 439.818C941.715 430.114 953.214 477.781 901.984 476.93C869.344 476.363 858.569 453.932 855.071 437.707C854.535 435.218 848.108 434.242 846.974 436.509C835.694 459.224 808.661 499.488 758.03 500.749C687.361 502.513 657.334 453.049 591.107 455.696C541.138 457.681 503.74 500.402 488.396 521.258C486.38 523.999 478.882 522.487 477.369 519.431C473.179 510.83 463.758 499.519 442.743 490.163C403.013 472.488 388.866 480.459 363.251 454.845C350.334 441.928 344.82 428.128 342.552 417.606C342.266 416.283 334.455 414.866 333.761 416.031C329.318 423.214 322.387 431.941 311.864 440.448C288.045 459.666 252.19 469.999 223.708 464.581C181.026 456.46 155.765 413.435 155.717 413.353C155.682 413.457 136.206 470.764 58.5498 480.491C31.2171 483.899 12.6234 481.525 0 477.017V340.024C6.62427 337.504 13.2194 334.592 19.5762 331.219C62.866 308.252 78.746 287.932 111.418 307.37C135.268 321.547 137.474 342.813 136.938 353.242C136.781 356.266 139.397 359.006 142.39 358.502C152.125 356.833 171.029 352.958 182.371 346.499C220.777 324.635 246.991 326.525 258.586 332.322C282.146 344.101 284.534 360.266 284.548 360.362C284.695 360.25 346.414 313.559 388.771 325.044C431.179 336.544 458.559 359.511 501.85 355.069C539.248 351.257 626.081 306.551 649.018 294.485C651.727 293.036 655.161 294.831 655.98 297.792C658.785 307.748 667.166 326.274 690.858 329.456C723.531 333.866 740.324 326.809 786.261 339.159C832.197 351.509 885.192 363.008 932.011 353.304C978.829 343.6 1012.38 289.728 1060.08 291.492C1107.79 293.256 1134.28 314.459 1138.69 329.456C1143.09 344.406 1140.47 363.773 1140.46 363.89C1140.58 363.711 1174.07 312.677 1206.72 320.602C1239.32 328.525 1249.08 358.439 1249.12 358.566C1249.19 358.478 1264.2 338.191 1299.47 313.513C1334.82 288.782 1344.53 290.546 1393.99 286.135C1427.33 283.174 1450.2 265.752 1461.61 254.725Z" fill="#FDE8EA"/>
<path d="M708.597 42.4438C755.415 28.3295 781.03 -10.5469 818.113 2.71626C841.207 10.9705 840.326 27.7941 836.388 39.2934C835.6 41.6248 839.696 45.4055 841.87 44.2085C857.876 35.3555 889.445 21.7455 927.631 24.77C983.272 29.1807 1002.71 61.6934 1030.09 49.312C1057.47 36.962 1087.5 15.7597 1123.73 26.3452C1145.97 32.8667 1155.55 45.689 1159.62 54.6049C1160.15 55.7701 1164.59 55.6759 1165.03 54.4477C1169.6 41.1526 1182.24 19.4454 1215.57 21.934C1263.27 25.4626 1375.44 70.9246 1407.26 50.604C1425.09 39.2307 1424.87 26.7229 1421.21 17.9331C1420.96 17.3019 1424.55 13.6492 1425.15 13.9633C1442.32 23.5409 1477.36 38.1593 1523.8 32.0473C1590.94 23.1944 1658.93 17.9017 1686.34 38.2221C1704.9 51.9895 1701.56 69.7898 1697.47 79.8715C1696.11 83.2109 1698.57 86.8973 1702.07 85.9838C1711.11 83.621 1727.78 78.0131 1754.33 64.7182C1798.51 42.6333 1801.15 37.3402 1827.65 43.5151C1844.7 47.4846 1855.5 59.1413 1861.08 66.9545C1863.41 70.2308 1868.74 70.8298 1871.67 68.0893C1880.01 60.2388 1896.73 47.4797 1920 44.1909V177.548C1909.05 169.688 1901.61 162.978 1887.89 160.872C1885.4 160.494 1882.66 162.384 1881.69 164.684C1876.3 177.097 1856.26 211.563 1806.45 207.184C1757.39 202.868 1747.22 172.591 1745.14 161.659C1744.76 159.643 1742.74 158.193 1740.79 158.76C1733.1 160.966 1715.24 166.637 1700.46 175.364C1681.02 186.863 1622.73 219.534 1570.62 208.035C1518.51 196.535 1557.36 156.807 1542.36 146.221C1527.36 135.636 1472.57 151.515 1449.6 165.661C1432.18 176.372 1407.16 193.164 1396.07 200.694C1392.73 202.93 1388.32 202.647 1385.14 200.19C1372.22 190.234 1336.93 166.952 1295.03 171.835C1242.04 178.01 1217.3 209.389 1147.52 203.214C1096.63 198.709 1072.28 139.354 1062.79 107.534C1062.7 107.188 1058.89 107.754 1058.89 108.1C1057.53 130.217 1047.45 163.927 1000.88 175.994C929.333 194.55 859.577 172.465 829.52 178.64C811.025 182.452 794.578 192.597 784.622 199.843C781.912 201.828 777.061 198.772 777.564 195.432C779.833 180.719 779.612 157.469 757.054 152.113C723.499 144.174 698.766 166.258 662.565 160.934C639.44 157.531 628.191 146.946 623.087 139.763C621.102 136.96 616.282 136.172 613.888 138.661C599.016 154.193 554.875 194.393 499.171 190.108C430.267 184.815 443.53 161.848 410.858 161.848C378.186 161.848 319.898 224.544 228.024 218.369C136.152 212.194 146.769 159.202 121.154 157.437C97.4122 155.802 44.8423 192.843 0 196.889V69.4126C25.4766 71.8848 48.8825 63.5277 49.6338 46.8227C50.1376 35.2606 44.6241 20.8629 39.8037 10.561C38.3235 7.41079 42.4184 3.59877 45.3799 5.4565C56.7853 12.5766 73.9888 22.564 88.1982 27.9829C128.59 43.3257 171.376 35.9858 209.373 25.3686C247.37 14.783 297.843 11.475 315.519 42.4126C327.68 63.6783 312.525 83.9674 301.876 94.5532C299.545 96.8531 301.372 101.044 304.586 100.414C319.457 97.452 346.679 89.7643 372.924 70.6723C411.771 42.4124 422.389 36.2371 444.476 35.3549C466.517 34.4746 492.073 56.4684 492.177 56.5581C492.28 56.4176 524.042 13.273 569.904 15.0659C615.841 16.8304 661.746 56.558 708.597 42.4438Z" fill="#FDE8EA"/>
</g>
</svg>
