<svg width="174" height="147" viewBox="0 0 174 147" fill="none" xmlns="http://www.w3.org/2000/svg">
<g clip-path="url(#clip0_3110_14777)">
<path d="M45.5299 115.71C44.479 115.71 43.4027 115.276 42.6512 114.523C41.4794 113.336 41.3711 111.586 41.3711 110.029C41.3711 108.471 41.4794 106.741 42.6512 105.547C43.4091 104.793 44.4854 104.359 45.5299 104.359C47.7016 104.359 49.2428 105.885 49.4148 107.909H48.5805C48.4404 106.287 47.2558 105.145 45.5299 105.145C44.5618 105.145 43.8167 105.483 43.2371 106.089C42.25 107.111 42.2054 108.713 42.2054 110.029C42.2054 111.344 42.2691 112.965 43.2562 113.98C43.8549 114.6 44.6255 114.925 45.5362 114.925C47.2622 114.925 48.4468 113.782 48.5869 112.161H49.4212C49.2492 114.185 47.708 115.71 45.5362 115.71H45.5299Z" fill="#B5B5B5"/>
<path d="M56.3704 110.643L58.5868 115.507H57.7079L55.568 110.841H51.7595V115.507H50.957V104.559H54.9502C57.3385 104.559 58.6313 105.81 58.6313 107.712C58.6313 109.149 57.7397 110.279 56.3641 110.649L56.3704 110.643ZM54.9566 105.312H51.7659V110.1H54.9566C56.7589 110.1 57.8098 109.264 57.8098 107.706C57.8098 106.148 56.7589 105.312 54.9566 105.312Z" fill="#B5B5B5"/>
<path d="M60.2969 115.507V104.559H67.2897V105.331H61.1121V109.347H66.551V110.119H61.1121V114.735H67.2897V115.507H60.2969Z" fill="#B5B5B5"/>
<path d="M75.7775 115.507L74.6693 112.622H69.3833L68.307 115.507H67.4727L71.6187 104.559H72.4021L76.5927 115.507H75.7775ZM72.0008 105.669L69.6762 111.862H74.3764L72.0008 105.669Z" fill="#B5B5B5"/>
<path d="M87.09 115.507V105.714L83.0968 115.354H82.3898L78.3966 105.791V115.507H77.6133V104.559H78.7405L82.7783 114.288L86.7397 104.559H87.8797V115.507H87.0963H87.09Z" fill="#B5B5B5"/>
<path d="M99.5795 114.752C98.7961 115.384 97.809 115.511 96.8346 115.511H92.9688V104.562H96.8346C97.6498 104.562 98.5159 104.684 99.2101 105.15C99.9043 105.616 100.337 106.433 100.337 107.25C100.337 108.438 99.847 109.472 98.5987 109.817C99.9552 110.142 100.586 111.24 100.586 112.492C100.586 113.354 100.28 114.203 99.5859 114.764L99.5795 114.752ZM96.8409 105.309H93.7776V109.402H96.8409C98.3503 109.402 99.5222 109.044 99.5222 107.301C99.5222 105.775 98.1656 105.309 96.8409 105.309ZM96.8409 110.181H93.7776V114.752H96.8409C98.3376 114.752 99.7705 114.318 99.7705 112.421C99.7705 110.627 98.4331 110.181 96.8409 110.181Z" fill="#B5B5B5"/>
<path d="M107.77 110.643L109.987 115.507H109.108L106.968 110.841H103.166V115.507H102.363V104.559H106.356C108.745 104.559 110.038 105.81 110.038 107.712C110.038 109.149 109.146 110.279 107.77 110.649V110.643ZM106.35 105.312H103.159V110.1H106.35C108.152 110.1 109.203 109.264 109.203 107.706C109.203 106.148 108.159 105.312 106.35 105.312Z" fill="#B5B5B5"/>
<path d="M111.703 115.507V104.559H118.696V105.331H112.518V109.347H117.957V110.119H112.518V114.735H118.696V115.507H111.703Z" fill="#B5B5B5"/>
<path d="M127.188 115.507L126.079 112.622H120.793L119.717 115.507H118.883L123.029 104.559H123.812L128.003 115.507H127.188ZM123.411 105.669L121.086 111.862H125.787L123.411 105.669Z" fill="#B5B5B5"/>
<path d="M135.391 114.429C134.741 115.061 133.786 115.507 132.633 115.507H129.016V104.559H132.633C133.786 104.559 134.747 105.005 135.391 105.638C136.594 106.793 136.715 108.498 136.715 110.023C136.715 111.549 136.594 113.267 135.391 114.429ZM134.805 106.167C134.251 105.644 133.448 105.35 132.633 105.35H129.812V114.722H132.633C133.448 114.722 134.251 114.429 134.805 113.905C135.824 112.915 135.9 111.339 135.9 110.03C135.9 108.721 135.824 107.144 134.805 106.167Z" fill="#B5B5B5"/>
<path d="M66.0645 138.846C66.0136 139.037 65.606 139.452 65.0774 139.925C64.6316 140.321 63.7718 141.004 63.1922 141.425L62.6445 140.793C63.3897 140.257 64.2049 139.637 64.8226 139.025C65.4468 138.418 65.5805 137.971 65.5805 137.282V136.241H62.9693V135.469H68.9623V136.241H66.4785V137.243C66.4785 137.99 66.5677 138.335 67.3892 139.044C67.7968 139.388 68.5038 139.918 69.2234 140.404L68.7012 141.036C68.1917 140.678 67.5867 140.225 67.2045 139.918C66.6122 139.433 66.1155 139.005 66.0645 138.839H66.0518L66.0645 138.846ZM72.032 143.991V144.489C72.032 145.824 70.4207 146.647 68.5229 146.647C66.625 146.647 65.0137 145.824 65.0137 144.489V143.991C65.0137 142.619 66.625 141.846 68.5229 141.846C70.4207 141.846 72.032 142.657 72.032 143.991ZM71.1659 144.457V144.023C71.1659 143.123 69.873 142.6 68.5165 142.6C67.16 142.6 65.8671 143.123 65.8671 144.023V144.457C65.8671 145.358 67.16 145.881 68.5165 145.881C69.873 145.881 71.1659 145.358 71.1659 144.457ZM71.9683 141.578H71.0831V138.495H68.663V137.709H71.0831V134.734H71.9683V141.578Z" fill="#B5B5B5"/>
<path d="M77.5884 140.904V139.723H74.3212V135.152H81.7344V135.899H75.1682V137.068H81.6707V137.802H75.1682V138.97H81.7917V139.717H78.4736V140.898H83.3648V141.658H72.7227V140.898H77.5884V140.904ZM81.6452 144.346V144.729C81.6452 146.037 79.9448 146.644 78.0469 146.644C76.149 146.644 74.4486 146.037 74.4486 144.729V144.346C74.4486 143.024 76.149 142.43 78.0469 142.43C79.9448 142.43 81.6452 143.037 81.6452 144.346ZM80.7855 144.678V144.397C80.7855 143.599 79.4162 143.19 78.0469 143.19C76.6776 143.19 75.3084 143.599 75.3084 144.397V144.678C75.3084 145.488 76.6776 145.884 78.0469 145.884C79.4162 145.884 80.7855 145.488 80.7855 144.678Z" fill="#B5B5B5"/>
<path d="M93.7554 143.921V144.694H83.1133V143.921H93.7554ZM91.2716 139.146C91.2844 138.801 91.2971 138.463 91.2971 138.092V136.567H84.5208V135.781H92.2269V137.626C92.2269 139.759 92.0741 141.233 91.7684 142.874L90.8449 142.772C91.0232 141.795 91.1633 140.882 91.2398 139.912L84.3616 140.039L84.3361 139.241L91.278 139.152L91.2716 139.146Z" fill="#B5B5B5"/>
<path d="M95.1992 140.129C97.8486 140.129 99.2306 140.078 100.734 139.899L100.81 140.672C99.4153 140.85 97.7594 140.914 94.3203 140.914V137.716H98.4663V136.075H94.3203V135.29H99.3389V138.475H95.1928V140.129H95.1992ZM95.9826 142.261H103.065V146.328H95.9826V142.261ZM96.8423 145.524H102.205V143.059H96.8423V145.524ZM103.065 141.578H102.179V134.734H103.065V141.578Z" fill="#B5B5B5"/>
<path d="M107.368 140.823H104.375V135.288H105.184V137.331H106.553V135.288H107.362V140.823H107.368ZM105.19 140.064H106.559V138.097H105.19V140.064ZM113.387 144.028V144.513C113.387 145.848 111.788 146.646 109.89 146.646C107.992 146.646 106.394 145.848 106.394 144.513V144.028C106.394 142.668 107.992 141.896 109.89 141.896C111.788 141.896 113.387 142.694 113.387 144.028ZM112.527 144.456V144.073C112.527 143.173 111.234 142.649 109.89 142.649C108.547 142.649 107.254 143.173 107.254 144.073V144.456C107.254 145.356 108.547 145.88 109.89 145.88C111.234 145.88 112.527 145.356 112.527 144.456ZM111.196 140.823H108.209V135.288H109.018V137.331H110.387V135.288H111.196V140.823ZM109.018 140.064H110.387V138.097H109.018V140.064ZM113.323 137.612H114.909V138.397H113.323V141.647H112.438V134.727H113.323V137.612Z" fill="#B5B5B5"/>
<path d="M73.6523 23.2675V21.3203H74.009V23.2675H73.6523Z" fill="#B5B5B5"/>
<path d="M75.6831 23.2675L74.8425 21.9332V23.2675H74.4922V21.3203H74.8679L75.6959 22.6354V21.3203H76.0462V23.2675H75.6831Z" fill="#B5B5B5"/>
<path d="M77.7183 23.2675L76.8776 21.9332V23.2675H76.5273V21.3203H76.9031L77.731 22.6354V21.3203H78.0813V23.2675H77.7183Z" fill="#B5B5B5"/>
<path d="M79.8146 23.083C79.6681 23.2299 79.4643 23.3001 79.2541 23.3001C79.044 23.3001 78.8465 23.2299 78.6937 23.083C78.4835 22.8723 78.4453 22.6106 78.4453 22.2978C78.4453 21.9849 78.4835 21.7168 78.6937 21.5061C78.8402 21.3593 79.044 21.2891 79.2541 21.2891C79.4643 21.2891 79.6617 21.3593 79.8146 21.5061C80.0248 21.7168 80.063 21.9786 80.063 22.2978C80.063 22.617 80.0248 22.8723 79.8146 23.083ZM79.5598 21.736C79.4834 21.653 79.3624 21.6083 79.2541 21.6083C79.1459 21.6083 79.0249 21.653 78.9484 21.736C78.8147 21.8764 78.8083 22.119 78.8083 22.2978C78.8083 22.4765 78.8083 22.7127 78.9484 22.8532C79.0249 22.9362 79.1459 22.9809 79.2541 22.9809C79.3624 22.9809 79.4834 22.9362 79.5598 22.8532C79.6936 22.7127 79.7 22.4765 79.7 22.2978C79.7 22.119 79.7 21.8764 79.5598 21.736Z" fill="#B5B5B5"/>
<path d="M81.231 23.2675H80.8425L80.1992 21.3203H80.575L81.0463 22.8078L81.5112 21.3203H81.8678L81.231 23.2675Z" fill="#B5B5B5"/>
<path d="M83.2765 23.2675L83.1492 22.8972H82.3786L82.2512 23.2675H81.8945L82.576 21.3203H82.9645L83.6459 23.2675H83.2765ZM82.7607 21.7544L82.4868 22.578H83.0409L82.7671 21.7544H82.7607Z" fill="#B5B5B5"/>
<path d="M84.6149 21.6523V23.2675H84.2646V21.6523H83.6914V21.3203H85.1944V21.6523H84.6212H84.6149Z" fill="#B5B5B5"/>
<path d="M85.4609 23.2675V21.3203H85.8176V23.2675H85.4609Z" fill="#B5B5B5"/>
<path d="M87.106 23.2675H86.7175L86.0742 21.3203H86.45L86.9213 22.8078L87.3862 21.3203H87.7428L87.106 23.2675Z" fill="#B5B5B5"/>
<path d="M87.9922 23.2675V21.3203H89.3742V21.6395H88.3425V22.0928H89.2468V22.412H88.3425V22.9419H89.3742V23.2611H87.9922V23.2675Z" fill="#B5B5B5"/>
<path d="M90.6926 21.6434V22.1669H91.5715V22.4861H90.6926V23.2714H90.3359V21.3242H91.6797V21.6434H90.6926Z" fill="#B5B5B5"/>
<path d="M91.9727 23.2675V21.3203H92.3293V23.2675H91.9727Z" fill="#B5B5B5"/>
<path d="M93.9207 23.2675L93.5959 22.5333H93.1691V23.2675H92.8125V21.3203H93.6341C94.099 21.3203 94.3092 21.614 94.3092 21.9268C94.3092 22.1886 94.169 22.3929 93.9525 22.4758L94.3092 23.2739H93.927L93.9207 23.2675ZM93.6341 21.6331H93.1691V22.2141H93.6404C93.8379 22.2141 93.9525 22.1119 93.9525 21.9268C93.9525 21.7672 93.8315 21.6331 93.6341 21.6331Z" fill="#B5B5B5"/>
<path d="M94.6406 23.2675V21.3203H96.0226V21.6395H94.9909V22.0928H95.8953V22.412H94.9909V22.9419H96.0226V23.2611H94.6406V23.2675Z" fill="#B5B5B5"/>
<path d="M97.7462 22.5716H97.3386V23.2675H96.9883V21.3203H97.7462C98.192 21.3203 98.4276 21.5693 98.4276 21.946C98.4276 22.3226 98.192 22.5716 97.7462 22.5716ZM97.7334 21.6331H97.3386V22.2652H97.7334C97.9691 22.2652 98.0773 22.1375 98.0773 21.9523C98.0773 21.7672 97.9691 21.6395 97.7334 21.6395V21.6331Z" fill="#B5B5B5"/>
<path d="M99.9786 23.083C99.8322 23.2299 99.6284 23.3001 99.4182 23.3001C99.208 23.3001 99.0106 23.2299 98.8578 23.083C98.6476 22.8723 98.6094 22.6106 98.6094 22.2978C98.6094 21.9849 98.6476 21.7168 98.8578 21.5061C99.0042 21.3593 99.208 21.2891 99.4182 21.2891C99.6284 21.2891 99.8258 21.3593 99.9786 21.5061C100.189 21.7168 100.227 21.9786 100.227 22.2978C100.227 22.617 100.189 22.8723 99.9786 23.083ZM99.7239 21.736C99.6475 21.653 99.5328 21.6083 99.4182 21.6083C99.3036 21.6083 99.1889 21.653 99.1125 21.736C98.9788 21.8764 98.9724 22.119 98.9724 22.2978C98.9724 22.4765 98.9724 22.7127 99.1125 22.8532C99.1889 22.9362 99.3099 22.9809 99.4182 22.9809C99.5265 22.9809 99.6475 22.9362 99.7239 22.8532C99.8576 22.7127 99.864 22.4765 99.864 22.2978C99.864 22.119 99.864 21.8764 99.7239 21.736Z" fill="#B5B5B5"/>
<path d="M101.31 21.6523V23.2675H100.96V21.6523H100.387V21.3203H101.89V21.6523H101.317H101.31Z" fill="#B5B5B5"/>
<path fill-rule="evenodd" clip-rule="evenodd" d="M87.678 18.9547C83.3664 18.9547 79.0484 18.9547 74.7304 18.9547C74.3483 18.9547 73.9853 18.8845 73.7751 18.5334C73.6796 18.3738 73.6095 18.1759 73.6095 17.9971C73.5968 16.7139 73.6032 15.4307 73.6032 14.1411C73.6032 13.8283 73.7178 13.5793 73.9598 13.375C74.0299 13.3175 74.0872 13.1962 74.0935 13.1005C74.2273 10.1382 75.1826 7.48239 77.0232 5.17132C79.2013 2.43251 82.0226 0.734319 85.4745 0.178897C92.582 -0.96387 99.1991 3.47313 100.893 10.4893C101.097 11.332 101.135 12.2131 101.256 13.0685C101.269 13.1707 101.313 13.2984 101.396 13.3686C101.645 13.5857 101.753 13.841 101.753 14.1666C101.753 15.4243 101.753 16.682 101.753 17.9397C101.753 18.5206 101.39 18.9037 100.817 18.9484C100.728 18.9484 100.632 18.9484 100.543 18.9484H87.6844L87.678 18.9547ZM97.3903 13.1643C97.384 10.5596 95.9574 7.16956 92.7348 5.27346C89.3403 3.26883 85.8502 3.2816 82.5003 5.35646C79.6534 7.11849 78.1823 9.78707 77.9148 13.1515H82.3538C82.3984 12.8132 82.4366 12.4876 82.4875 12.162C82.755 10.5213 83.6657 9.28911 84.8949 8.24849C85.3535 7.85905 85.8056 7.45685 86.2387 7.0355C86.5635 6.71629 86.7355 6.31408 86.7482 5.85442C86.7609 5.46499 87.0921 5.27346 87.436 5.44584C87.5761 5.51606 87.7035 5.59906 87.8309 5.69482C88.6525 6.3077 89.1428 7.15679 89.5504 8.06973C89.6269 8.2421 89.6969 8.42086 89.8052 8.65707C89.9262 8.33148 90.0345 8.06973 90.1236 7.8016C90.1873 7.59092 90.2574 7.39939 90.4994 7.34193C90.7414 7.28448 90.8942 7.41855 91.0407 7.58453C92.0916 8.78476 92.8431 10.1382 93.2379 11.6832C93.3589 12.1684 93.4226 12.6663 93.5182 13.1771H97.4031L97.3903 13.1643ZM92.5437 13.1579C92.4673 11.7023 91.5693 9.48702 90.7732 8.75284C90.5376 9.1295 90.302 9.50617 90.0663 9.88922C89.9453 10.0871 89.7797 10.2084 89.5441 10.1637C89.3084 10.1254 89.2129 9.95306 89.1492 9.72323C88.9327 8.89329 88.627 8.10165 88.1557 7.38662C87.9774 7.12487 87.7672 6.88227 87.5889 6.65244C87.3405 7.01634 87.1494 7.39301 86.8692 7.68668C86.3916 8.17826 85.8566 8.61877 85.3407 9.06566C84.2962 9.97221 83.5638 11.0575 83.36 12.4493C83.3218 12.6791 83.3091 12.9153 83.2772 13.1515H85.7929C85.9585 11.9385 86.5189 10.9235 87.2641 9.99136C87.557 9.62108 87.9264 9.69131 88.1366 10.1127C88.2767 10.3936 88.455 10.6745 88.6843 10.8915C89.3466 11.5299 89.9453 12.1939 90.0663 13.1515H92.5501L92.5437 13.1579ZM87.2131 0.925844C85.8375 0.976918 84.5319 1.23867 83.2454 1.7111C83.5065 2.34951 83.7613 2.94963 83.9842 3.4859C85.086 3.26883 86.1432 3.06454 87.2131 2.84748V0.925844ZM88.143 0.925844V2.84748C89.2256 3.06454 90.2892 3.27522 91.3655 3.4859C91.5948 2.93047 91.8368 2.33036 92.0979 1.70471C90.8115 1.23228 89.5122 0.970534 88.1366 0.91946L88.143 0.925844ZM76.1506 8.33787C76.7875 8.59962 77.3798 8.8486 77.9211 9.07204C78.5453 8.14634 79.1503 7.24617 79.7235 6.39069C79.2904 5.95657 78.8255 5.49053 78.3542 5.01171C77.4817 5.99487 76.7047 7.06742 76.1506 8.33148V8.33787ZM96.9891 5.03725C96.5115 5.51606 96.0465 5.98211 95.6326 6.39708C96.2185 7.26533 96.8172 8.15911 97.4286 9.07204C97.9826 8.84221 98.5813 8.59323 99.18 8.34425C98.9188 7.50792 97.6133 5.56075 96.9955 5.03725H96.9891ZM80.4686 5.69482C80.889 5.38199 81.2966 5.03725 81.7488 4.73719C82.2009 4.43714 82.6786 4.17539 83.1626 3.8881C82.9142 3.28799 82.6659 2.68149 82.4175 2.08138C81.5577 2.36867 79.6471 3.6455 79.0803 4.30307C79.5452 4.76911 80.0101 5.23516 80.4686 5.69482ZM92.2062 3.84341C93.136 4.46906 94.0277 5.06917 94.9129 5.6629C95.3396 5.24154 95.7982 4.7755 96.2822 4.29669C95.295 3.39652 94.1996 2.63042 92.9386 2.07499C92.6775 2.70064 92.4291 3.30076 92.2062 3.84341ZM97.7788 9.92114C97.9954 11.0192 98.2055 12.079 98.4221 13.1515H100.333C100.307 11.7789 100.021 10.4766 99.5493 9.18696C98.9252 9.44233 98.3329 9.69131 97.7725 9.92114H97.7788ZM75.017 13.1515H76.9276C77.1442 12.0598 77.3607 11.0001 77.5772 9.92114C77.0168 9.68493 76.4181 9.44233 75.8004 9.18696C75.3291 10.4829 75.0425 11.7789 75.017 13.1515ZM75.9851 14.09V15.5711H79.9082V14.09H75.9851ZM99.371 15.5839V14.09H95.4415V15.5839H99.371ZM85.7101 15.5775H89.646V14.0964H85.7101V15.5775ZM84.7612 15.5839V14.09H80.8571V15.5839H84.7612ZM94.4926 14.09H90.5822V15.5775H94.4926V14.09ZM96.9382 16.5415H93.0214V18.0163H96.9382V16.5415ZM88.1366 18.0163H92.0661V16.5479H88.1366V18.0163ZM83.2836 18.0163H87.2131V16.5479H83.2836V18.0163ZM82.3283 18.0163V16.5415H78.4115V18.0163H82.3283ZM100.81 18.0163V16.5415H97.8744V18.0163H100.81ZM74.5394 16.5351V18.0099H77.4817V16.5351H74.5394ZM89.1174 13.1579C88.9581 12.1875 88.1238 11.7534 87.5952 11.0703C87.1685 11.7215 86.831 12.379 86.7227 13.1579H89.1174ZM100.301 14.09V15.5711H100.817V14.09H100.301ZM74.5394 14.0964V15.5775H75.068C75.068 15.1753 75.0489 14.7795 75.068 14.3901C75.0871 14.1155 74.9788 14.0325 74.7241 14.0709C74.6604 14.0772 74.5967 14.0836 74.533 14.09L74.5394 14.0964Z" fill="#B5B5B5"/>
<path d="M77.7832 32.1043H76.1719V29.1228H76.6113V30.2209H77.3501V29.1228H77.7895V32.1043H77.7832ZM76.6113 31.6957H77.3501V30.6359H76.6113V31.6957ZM81.0248 33.828V34.0897C81.0248 34.8048 80.1651 35.2389 79.1397 35.2389C78.1143 35.2389 77.2546 34.8111 77.2546 34.0897V33.828C77.2546 33.0938 78.1143 32.6788 79.1397 32.6788C80.1651 32.6788 81.0248 33.1066 81.0248 33.828ZM80.5599 34.0578V33.8535C80.5599 33.3683 79.8657 33.0874 79.1397 33.0874C78.4137 33.0874 77.7195 33.3683 77.7195 33.8535V34.0578C77.7195 34.543 78.4137 34.8239 79.1397 34.8239C79.8657 34.8239 80.5599 34.543 80.5599 34.0578ZM79.8466 32.1043H78.2353V29.1228H78.6748V30.2209H79.4136V29.1228H79.853V32.1043H79.8466ZM78.6748 31.6957H79.4136V30.6359H78.6748V31.6957ZM80.993 30.3741H81.8464V30.7955H80.993V32.5448H80.5153V28.8164H80.993V30.3678V30.3741Z" fill="#B5B5B5"/>
<path d="M84.1981 29.8127V28.8615H84.6821V29.8127H86.2361V30.2341H82.625V29.8127H84.1981ZM82.9689 32.3536V31.9833C82.9689 31.3449 83.5039 30.6873 84.4401 30.6873C85.3763 30.6873 85.9113 31.3513 85.9113 31.9833V32.3536C85.9113 32.992 85.3763 33.6432 84.4401 33.6432C83.5039 33.6432 82.9689 32.9856 82.9689 32.3536ZM83.4211 32.0216V32.3089C83.4211 32.8197 83.8223 33.2155 84.4401 33.2155C85.0579 33.2155 85.4591 32.8197 85.4591 32.3089V32.0216C85.4591 31.5109 85.0579 31.1151 84.4401 31.1151C83.8223 31.1151 83.4211 31.5109 83.4211 32.0216ZM87.4525 31.3896H88.4906V31.8237H87.4525V35.086H86.9685V28.8359H87.4525V31.3896Z" fill="#B5B5B5"/>
<path d="M89.0987 32.915H89.8694C90.5253 32.915 91.2068 32.8767 91.9519 32.7427L92.0156 33.1704C91.2832 33.2981 90.4744 33.3492 89.8248 33.3492H88.6211V29.3271H89.1051V32.9087L89.0987 32.915ZM93.0155 31.1147H94.0536V31.5424H93.0155V35.0665H92.5315V28.8164H93.0155V31.1083V31.1147Z" fill="#B5B5B5"/>
<path d="M98.6494 29.3203V31.1717H95.102V32.1868H98.7895V32.6018H96.8853V33.7765H99.5092V34.1914H93.7773V33.7765H96.4013V32.6018H94.6244V30.7631H98.1718V29.7353H94.6053V29.3203H98.6431H98.6494Z" fill="#B5B5B5"/>
<path d="M54.889 41.5179C54.5068 41.5753 53.9591 41.6073 53.4624 41.6073H53.1758V37.6108H54.7234V38.0513H53.6534V41.1731C54.061 41.1731 54.4432 41.154 54.8444 41.0965L54.8826 41.5179H54.889ZM57.0416 41.5115C56.6913 41.5562 56.1054 41.6073 55.4431 41.6073H55.0991V37.6108H56.7486V38.0513H55.5768V41.1731C56.1181 41.1731 56.6022 41.1412 56.9907 41.0838L57.0352 41.5115H57.0416ZM57.9077 39.3409H58.8439V39.7686H57.9077V43.2735H57.4237V37.0234H57.9077V39.3345V39.3409Z" fill="#B5B5B5"/>
<path d="M64.3153 41.9824V42.3973H58.5898V41.9824H64.3153ZM61.443 39.2882C61.3857 39.4223 61.1373 39.6585 60.6469 39.9841C60.2393 40.2586 59.6789 40.5906 59.1885 40.8587L58.9274 40.4757C59.5197 40.1693 60.0483 39.8564 60.3667 39.633C61.0418 39.1733 61.201 38.9626 61.201 38.2221V37.4688H61.6978V38.2221C61.6978 38.9626 61.8506 39.1733 62.5257 39.633C62.8442 39.85 63.3664 40.1565 63.9523 40.4693L63.6976 40.846C63.2135 40.5778 62.6595 40.2522 62.2519 39.9777C61.7615 39.6521 61.5131 39.4223 61.4558 39.2882H61.4494H61.443Z" fill="#B5B5B5"/>
<path d="M66.2753 37.7668H67.8356V38.1817H64.25V37.7668H65.7976V36.9688H66.2753V37.7668ZM67.4726 39.8799C67.4726 40.4481 66.9249 40.978 66.0396 40.978C65.1544 40.978 64.6067 40.4417 64.6067 39.8799V39.6182C64.6067 39.05 65.1544 38.5201 66.0396 38.5201C66.9249 38.5201 67.4726 39.05 67.4726 39.6182V39.8799ZM67.014 39.8608V39.6437C67.014 39.3054 66.6446 38.9351 66.0396 38.9351C65.4346 38.9351 65.0652 39.3117 65.0652 39.6437V39.8608C65.0652 40.1928 65.4346 40.5694 66.0396 40.5694C66.6446 40.5694 67.014 40.1928 67.014 39.8608ZM65.8486 42.7783H69.2749V43.1997H65.3645V41.4696H65.8486V42.772V42.7783ZM69.0839 38.9351H70.0392V39.3564H69.0839V41.5717H68.6062V37.0262H69.0839V38.9351Z" fill="#B5B5B5"/>
<path d="M73.4936 40.4278V39.7128C72.5 39.6489 71.774 39.2084 71.774 38.5764V38.3146C71.774 37.6315 72.621 37.1719 73.7292 37.1719C74.8374 37.1719 75.6844 37.6379 75.6844 38.3146V38.5764C75.6844 39.2084 74.952 39.6489 73.9648 39.7128V40.4278H76.5888V40.8364H70.8633V40.4278H73.4872H73.4936ZM72.1943 42.7772H75.8691V43.1985H71.7103V41.3663H72.1943V42.7772ZM72.2389 38.3466V38.5381C72.2389 38.9658 72.9331 39.3042 73.7292 39.3042C74.5253 39.3042 75.2195 38.9722 75.2195 38.5381V38.3466C75.2195 37.9188 74.5253 37.5805 73.7292 37.5805C72.9331 37.5805 72.2389 37.9188 72.2389 38.3466Z" fill="#B5B5B5"/>
<path d="M76.7734 41.4643C78.8687 40.2641 79.1044 39.8555 79.1044 38.8404V38.0552H76.8435V37.6147H79.5757V38.8468C79.5757 40.0917 79.2445 40.5578 77.0282 41.8538L76.7734 41.4643ZM81.5818 43.2774H81.0978V37.0273H81.5818V43.2774Z" fill="#B5B5B5"/>
<path d="M87.7841 40.0107V40.4193H82.0586V40.0107H87.7841ZM86.9307 40.962V42.3346H83.3769V42.9091H87.1154V43.3113H82.9056V41.9388H86.4594V41.3642H82.8738V40.962H86.9307ZM82.8929 37.1953H86.8925V38.5424H83.3642V39.0914H87.0262V39.4936H82.9056V38.1466H86.4339V37.5975H82.8865V37.1953H82.8929Z" fill="#B5B5B5"/>
<path d="M90.7454 39.4076C90.7199 39.5097 90.497 39.7332 90.2104 39.9885C89.9748 40.1992 89.5098 40.5695 89.1914 40.793L88.8984 40.4482C89.2997 40.1609 89.7391 39.8289 90.0703 39.497C90.4078 39.1714 90.4779 38.9288 90.4779 38.5585V37.8562H89.0704V37.4413H92.2993V37.8562H90.9619V38.5393C90.9619 38.9415 91.0065 39.1267 91.4523 39.5097C91.6688 39.6949 92.051 39.9822 92.4394 40.2439L92.1592 40.5823C91.879 40.3908 91.5606 40.1482 91.3568 39.9885C91.0383 39.7268 90.7708 39.497 90.7454 39.4076ZM90.5861 42.7848H94.0762V43.2062H90.1021V41.1377H90.5861V42.7848ZM93.4393 38.6989V37.0391H93.917V41.5016H93.4393V39.1203H92.1401V38.6989H93.4393Z" fill="#B5B5B5"/>
<path d="M95.931 38.0222V37.071H96.415V38.0222H97.969V38.4436H94.3516V38.0222H95.9246H95.931ZM94.6955 40.5567V40.1865C94.6955 39.548 95.2241 38.8905 96.1667 38.8905C97.1092 38.8905 97.6378 39.5544 97.6378 40.1865V40.5567C97.6378 41.1952 97.1029 41.8463 96.1667 41.8463C95.2305 41.8463 94.6955 41.1888 94.6955 40.5567ZM95.154 40.2311V40.5184C95.154 41.0292 95.5553 41.425 96.173 41.425C96.7908 41.425 97.192 41.0292 97.192 40.5184V40.2311C97.192 39.7204 96.7908 39.3246 96.173 39.3246C95.5553 39.3246 95.154 39.7204 95.154 40.2311ZM99.1791 39.5927H100.217V40.0269H99.1791V43.2892H98.695V37.0391H99.1791V39.5927Z" fill="#B5B5B5"/>
<path d="M105.65 40.2637V40.6787H99.918V40.2637H105.65ZM101.249 42.7791H104.924V43.2004H100.765V41.3362H101.249V42.7791ZM101.275 38.9741H104.835V39.3955H100.79V37.2695H101.275V38.9741Z" fill="#B5B5B5"/>
<path d="M108.42 38.9426C108.401 39.0575 108.19 39.2682 107.885 39.5555C107.649 39.7789 107.241 40.1237 106.866 40.4237L106.566 40.0726C106.936 39.7981 107.362 39.4406 107.668 39.1341C108.095 38.7 108.146 38.5276 108.146 38.0105V37.2763H108.636V37.9914C108.636 38.4957 108.674 38.6617 109.133 39.0703C109.464 39.364 109.827 39.6512 110.127 39.8683L109.84 40.2003C109.477 39.9258 109.178 39.6832 108.948 39.4852C108.636 39.2171 108.452 39.032 108.413 38.9234H108.407L108.42 38.9426ZM107.738 40.8834H111.483V43.2647H107.738V40.8834ZM108.197 42.8306H111.012V41.3111H108.197V42.8306ZM111.477 38.5149H112.432V38.9362H111.477V40.5131H110.999V37.0273H111.477V38.5085V38.5149Z" fill="#B5B5B5"/>
<path d="M113.12 39.8428C114.546 39.8428 115.285 39.8172 116.1 39.7215L116.139 40.1364C115.387 40.2322 114.495 40.2641 112.648 40.2641V38.5915H114.877V37.7551H112.648V37.3338H115.349V39.0001H113.12V39.8428ZM117.355 40.7302V43.2774H113.553V40.7302H114.024V41.5346H116.89V40.7302H117.361H117.355ZM116.884 42.8497V41.9623H114.018V42.8497H116.884ZM117.355 40.3599H116.877V37.0273H117.355V40.3599Z" fill="#B5B5B5"/>
<path d="M119.674 40.3088H118.062V37.3274H118.502V38.4255H119.241V37.3274H119.68V40.3088H119.674ZM118.502 39.9002H119.241V38.8404H118.502V39.9002ZM122.915 42.0325V42.2943C122.915 43.0093 122.056 43.4434 121.037 43.4434C120.018 43.4434 119.152 43.0157 119.152 42.2943V42.0325C119.152 41.2984 120.011 40.8834 121.037 40.8834C122.062 40.8834 122.915 41.3111 122.915 42.0325ZM122.451 42.2687V42.0645C122.451 41.5793 121.756 41.2984 121.03 41.2984C120.304 41.2984 119.61 41.5793 119.61 42.0645V42.2687C119.61 42.7539 120.304 43.0348 121.03 43.0348C121.756 43.0348 122.451 42.7539 122.451 42.2687ZM121.731 40.3088H120.12V37.3274H120.559V38.4255H121.298V37.3274H121.737V40.3088H121.731ZM120.559 39.9002H121.298V38.8404H120.559V39.9002ZM122.877 38.5851H123.731V39.0064H122.877V40.7557H122.4V37.0273H122.877V38.5787V38.5851Z" fill="#B5B5B5"/>
<path d="M58.1472 5.32836C56.9818 5.29644 55.7208 8.76305 55.3132 8.62898C54.9056 8.49491 55.0903 4.61334 54.033 4.39627C53.5172 4.29413 52.4218 4.78571 51.4282 5.44966C50.4411 6.11362 49.5622 6.93717 49.4539 7.45429C49.2438 8.51406 52.8867 9.84197 52.8548 10.2697C52.8294 10.6975 49.1482 10.5251 48.7279 11.6168C48.575 12.0126 49.0527 13.0149 49.6959 13.9661C50.3201 14.9302 51.0589 15.7537 51.4792 15.7665C52.6447 15.7984 53.9057 12.3254 54.3133 12.4659C54.7209 12.6063 54.5362 16.4879 55.5934 16.705C56.1029 16.8071 57.2047 16.3091 58.1982 15.6516C59.1853 14.9876 60.0642 14.1641 60.1725 13.6469C60.3827 12.5872 56.7398 11.2656 56.7716 10.8315C56.7971 10.3974 60.4782 10.5698 60.8985 9.47807C61.0514 9.08864 60.5737 8.08632 59.9305 7.1287C59.3064 6.16469 58.5612 5.33475 58.1409 5.32836H58.1472Z" fill="#ED1C2A"/>
<path d="M41.709 12.9509C40.5562 13.1424 39.9894 16.8005 39.5691 16.7367C39.1424 16.6856 38.5692 12.8359 37.4929 12.8359C36.9706 12.8359 35.9898 13.5382 35.1428 14.3809C34.3021 15.2236 33.6016 16.2068 33.6016 16.7303C33.6016 17.8156 37.4292 18.4029 37.4865 18.8307C37.5438 19.252 33.9009 19.8075 33.6971 20.9566C33.627 21.378 34.2894 22.2654 35.1046 23.0698C35.907 23.8869 36.7923 24.5573 37.2063 24.487C38.3526 24.2891 38.9194 20.6374 39.3462 20.6948C39.7729 20.7523 40.3397 24.5956 41.4224 24.5956C41.9446 24.5956 42.9254 23.8933 43.7724 23.057C44.6131 22.2079 45.32 21.2247 45.32 20.7012C45.32 19.6159 41.486 19.035 41.4351 18.6008C41.3778 18.1731 45.0207 17.6241 45.2181 16.4749C45.2945 16.0536 44.6258 15.1662 43.8106 14.3618C43.0082 13.5382 42.1229 12.8679 41.709 12.9445V12.9509Z" fill="#ED1C2A"/>
<path d="M28.8824 24.728C27.7933 25.1429 27.9525 28.833 27.5258 28.8585C27.0991 28.8904 25.7872 25.2323 24.7236 25.443C24.2141 25.5451 23.3862 26.4261 22.7174 27.4157C22.0615 28.4116 21.5647 29.5097 21.6602 30.0204C21.8704 31.0866 25.7426 30.9078 25.8763 31.3164C26.0164 31.725 22.5455 32.9763 22.5773 34.151C22.5837 34.5723 23.4116 35.3129 24.3669 35.9449C25.3159 36.5897 26.3158 37.0749 26.7106 36.9281C27.7997 36.5067 27.6468 32.8103 28.0672 32.7912C28.5002 32.7592 29.8058 36.4174 30.8694 36.2131C31.3789 36.1045 32.2068 35.2299 32.8756 34.2404C33.5379 33.2444 34.0347 32.1464 33.9328 31.6292C33.729 30.5695 29.8504 30.7418 29.7167 30.3333C29.5766 29.9247 33.0411 28.6734 33.0157 27.5051C33.0093 27.0837 32.1814 26.3368 31.2197 25.7047C30.2708 25.0535 29.2772 24.5747 28.8824 24.728Z" fill="#ED1C2A"/>
<path d="M20.3614 39.9501C19.3679 40.5694 20.2468 44.1636 19.8328 44.2722C19.4125 44.3871 17.4191 41.0545 16.4255 41.4631C15.9415 41.6674 15.2983 42.6889 14.8397 43.787C14.3875 44.8914 14.1137 46.0661 14.3111 46.5513C14.7251 47.5536 18.489 46.6279 18.6992 47.0046C18.9157 47.3749 15.7568 49.2837 16.0116 50.4265C16.1071 50.8415 17.0624 51.4033 18.1196 51.8374C19.1768 52.2843 20.2531 52.5652 20.6098 52.3418C21.5969 51.7161 20.7244 48.1282 21.1384 48.0197C21.5524 47.9048 23.5521 51.2373 24.552 50.8223C25.0361 50.618 25.6729 49.5966 26.1315 48.4921C26.59 47.3876 26.8639 46.213 26.6665 45.7278C26.2525 44.7254 22.4886 45.6512 22.2784 45.2809C22.0619 44.9106 25.2208 43.0017 24.9596 41.8653C24.8705 41.4504 23.9152 40.8822 22.8516 40.4481C21.8007 39.9948 20.7244 39.7203 20.3678 39.9501H20.3614Z" fill="#ED1C2A"/>
<path d="M116.907 5.32836C118.073 5.29644 119.334 8.76305 119.742 8.62898C120.149 8.49491 119.964 4.61334 121.022 4.39627C121.538 4.29413 122.633 4.78571 123.626 5.44966C124.62 6.11362 125.492 6.93717 125.601 7.45429C125.811 8.51406 122.168 9.84197 122.2 10.2697C122.225 10.6975 125.906 10.5251 126.327 11.6168C126.48 12.0126 126.002 13.0149 125.352 13.9661C124.728 14.9302 123.989 15.7537 123.569 15.7665C122.404 15.7984 121.143 12.3254 120.735 12.4659C120.327 12.6063 120.512 16.4879 119.455 16.705C118.945 16.8071 117.844 16.3091 116.85 15.6516C115.863 14.9876 114.984 14.1641 114.876 13.6469C114.666 12.5872 118.309 11.2656 118.277 10.8315C118.251 10.3974 114.57 10.5698 114.15 9.47807C113.997 9.08864 114.475 8.08632 115.118 7.1287C115.742 6.16469 116.487 5.33475 116.907 5.32836Z" fill="#ED1C2A"/>
<path d="M133.343 12.9509C134.496 13.1424 135.063 16.8005 135.483 16.7367C135.91 16.6856 136.483 12.8359 137.559 12.8359C138.081 12.8359 139.062 13.5382 139.909 14.3809C140.75 15.2236 141.45 16.2068 141.457 16.7303C141.457 17.8156 137.629 18.4029 137.572 18.8307C137.514 19.252 141.157 19.8075 141.361 20.9566C141.431 21.378 140.769 22.2654 139.954 23.0698C139.151 23.8869 138.266 24.5573 137.852 24.487C136.699 24.2891 136.139 20.6374 135.712 20.6948C135.285 20.7523 134.712 24.5956 133.636 24.5956C133.114 24.5956 132.133 23.8933 131.286 23.057C130.445 22.2079 129.738 21.2247 129.738 20.7012C129.738 19.6159 133.566 19.035 133.623 18.6008C133.681 18.1731 130.038 17.6241 129.84 16.4749C129.764 16.0536 130.432 15.1662 131.248 14.3618C132.05 13.5382 132.935 12.8679 133.349 12.9445L133.343 12.9509Z" fill="#ED1C2A"/>
<path d="M146.552 25.0273C147.641 25.4423 147.482 29.1323 147.909 29.1579C148.335 29.1898 149.647 25.5253 150.711 25.7423C151.22 25.8445 152.048 26.7255 152.717 27.7087C153.373 28.7046 153.876 29.8027 153.774 30.3134C153.564 31.3796 149.692 31.2008 149.558 31.6094C149.418 32.018 152.889 33.2693 152.857 34.444C152.851 34.8653 152.023 35.6059 151.067 36.2379C150.118 36.8827 149.119 37.3679 148.724 37.2211C147.635 36.7997 147.787 33.1033 147.367 33.0841C146.934 33.0586 145.629 36.7103 144.565 36.506C144.055 36.3975 143.227 35.5229 142.559 34.5333C141.896 33.5374 141.4 32.4393 141.502 31.9222C141.705 30.8624 145.584 31.0348 145.718 30.6262C145.858 30.2176 142.393 28.9663 142.412 27.798C142.419 27.3767 143.247 26.6297 144.208 25.9977C145.157 25.3465 146.157 24.8677 146.552 25.0209V25.0273Z" fill="#ED1C2A"/>
<path d="M154.682 39.9501C155.676 40.5694 154.797 44.1636 155.211 44.2722C155.631 44.3871 157.625 41.0545 158.618 41.4631C159.102 41.6674 159.739 42.6889 160.204 43.787C160.656 44.8914 160.937 46.0661 160.733 46.5513C160.319 47.5536 156.555 46.6279 156.345 47.0046C156.128 47.3749 159.287 49.2837 159.032 50.4265C158.943 50.8415 157.981 51.4033 156.924 51.8374C155.867 52.2843 154.791 52.5652 154.434 52.3418C153.447 51.7161 154.326 48.1282 153.906 48.0197C153.492 47.9048 151.492 51.2373 150.492 50.8223C150.014 50.618 149.377 49.5966 148.912 48.4921C148.454 47.3876 148.18 46.213 148.377 45.7278C148.791 44.7254 152.555 45.6512 152.766 45.2809C152.982 44.9106 149.823 43.0017 150.084 41.8653C150.173 41.4504 151.122 40.8822 152.192 40.4481C153.243 39.9948 154.319 39.7203 154.676 39.9501H154.682Z" fill="#ED1C2A"/>
<path d="M124.272 143.145C125.438 143.177 126.699 139.704 127.106 139.845C127.514 139.979 127.329 143.867 128.386 144.077C128.902 144.179 129.998 143.688 130.991 143.024C131.978 142.36 132.857 141.536 132.965 141.019C133.176 139.96 129.533 138.632 129.565 138.204C129.59 137.776 133.271 137.949 133.692 136.857C133.844 136.461 133.367 135.459 132.723 134.507C132.099 133.543 131.361 132.72 130.94 132.707C129.775 132.675 128.507 136.148 128.106 136.008C127.699 135.874 127.883 131.986 126.826 131.775C126.31 131.673 125.215 132.171 124.221 132.828C123.234 133.492 122.355 134.316 122.247 134.833C122.03 135.893 125.68 137.221 125.648 137.648C125.622 138.083 121.941 137.904 121.521 139.002C121.368 139.391 121.846 140.394 122.489 141.351C123.113 142.315 123.852 143.145 124.279 143.152L124.272 143.145Z" fill="#ED1C2A"/>
<path d="M137.92 135.363C139.072 135.172 139.639 131.514 140.06 131.578C140.486 131.635 141.059 135.478 142.136 135.478C142.658 135.478 143.639 134.776 144.486 133.933C145.326 133.091 146.027 132.108 146.033 131.584C146.033 130.499 142.206 129.911 142.148 129.484C142.091 129.062 145.734 128.507 145.938 127.358C146.008 126.936 145.346 126.049 144.53 125.245C143.728 124.427 142.843 123.757 142.429 123.827C141.276 124.019 140.716 127.677 140.289 127.619C139.862 127.562 139.289 123.719 138.206 123.719C137.684 123.719 136.703 124.421 135.856 125.257C135.016 126.113 134.309 127.09 134.309 127.613C134.309 128.692 138.136 129.279 138.194 129.713C138.251 130.141 134.608 130.69 134.41 131.839C134.334 132.261 135.003 133.148 135.818 133.953C136.62 134.776 137.506 135.446 137.92 135.37V135.363Z" fill="#ED1C2A"/>
<path d="M148.417 124.578C149.506 124.163 149.347 120.473 149.773 120.448C150.2 120.416 151.512 124.074 152.575 123.863C153.085 123.761 153.913 122.88 154.582 121.89C155.238 120.894 155.741 119.796 155.639 119.286C155.429 118.219 151.556 118.398 151.423 117.99C151.276 117.581 154.754 116.33 154.722 115.155C154.715 114.734 153.887 113.993 152.932 113.361C151.983 112.716 150.983 112.231 150.595 112.378C149.506 112.799 149.659 116.496 149.238 116.515C148.805 116.547 147.5 112.889 146.436 113.093C145.927 113.195 145.099 114.076 144.43 115.066C143.768 116.062 143.271 117.16 143.373 117.677C143.576 118.737 147.455 118.564 147.589 118.973C147.729 119.381 144.264 120.633 144.283 121.801C144.29 122.222 145.118 122.969 146.079 123.601C147.028 124.252 148.022 124.731 148.417 124.578Z" fill="#ED1C2A"/>
<path d="M155.735 111.497C156.728 110.878 155.849 107.284 156.263 107.175C156.677 107.06 158.677 110.393 159.671 109.978C160.155 109.78 160.791 108.752 161.256 107.654C161.715 106.55 161.989 105.375 161.791 104.89C161.377 103.887 157.613 104.813 157.403 104.443C157.187 104.073 160.346 102.164 160.091 101.021C159.995 100.606 159.04 100.044 157.983 99.6101C156.926 99.1632 155.849 98.8823 155.493 99.1058C154.506 99.7314 155.378 103.319 154.964 103.428C154.55 103.543 152.55 100.21 151.55 100.625C151.066 100.829 150.43 101.851 149.971 102.949C149.512 104.053 149.239 105.228 149.436 105.713C149.85 106.716 153.614 105.79 153.824 106.16C154.041 106.531 150.882 108.439 151.143 109.576C151.232 109.991 152.187 110.559 153.251 110.993C154.302 111.446 155.378 111.721 155.735 111.491V111.497Z" fill="#ED1C2A"/>
<path d="M51.8308 143.145C50.6654 143.177 49.4044 139.704 48.9968 139.845C48.5892 139.979 48.7739 143.867 47.7166 144.077C47.2008 144.179 46.1054 143.688 45.1118 143.024C44.1247 142.36 43.2458 141.536 43.1375 141.019C42.9274 139.96 46.5703 138.632 46.5384 138.204C46.513 137.776 42.8318 137.949 42.4115 136.857C42.2586 136.461 42.7363 135.459 43.3795 134.507C44.0037 133.543 44.7425 132.72 45.1628 132.707C46.3283 132.675 47.5956 136.148 47.9969 136.008C48.4045 135.874 48.2198 131.986 49.277 131.775C49.7865 131.673 50.8883 132.171 51.8818 132.828C52.8689 133.492 53.7478 134.316 53.8561 134.833C54.0663 135.893 50.4234 137.221 50.4552 137.648C50.4807 138.083 54.1618 137.904 54.5821 139.002C54.735 139.391 54.2573 140.394 53.6141 141.351C52.99 142.315 52.2448 143.145 51.8245 143.152L51.8308 143.145Z" fill="#ED1C2A"/>
<path d="M38.1777 135.363C37.025 135.172 36.4581 131.514 36.0378 131.578C35.6111 131.635 35.0379 135.478 33.9616 135.478C33.4394 135.478 32.4586 134.776 31.6115 133.933C30.7709 133.091 30.0703 132.108 30.0703 131.584C30.0703 130.499 33.8979 129.911 33.9552 129.484C34.0126 129.062 30.3696 128.507 30.1658 127.358C30.0958 126.936 30.7581 126.049 31.5733 125.245C32.3758 124.427 33.261 123.757 33.675 123.827C34.8214 124.019 35.3882 127.677 35.8149 127.619C36.2416 127.562 36.8084 123.719 37.8911 123.719C38.4133 123.719 39.3941 124.421 40.2412 125.257C41.0818 126.113 41.7888 127.09 41.7888 127.613C41.7888 128.692 37.9548 129.279 37.9038 129.713C37.8465 130.141 41.4894 130.69 41.6869 131.839C41.7633 132.261 41.0946 133.148 40.2794 133.953C39.4769 134.776 38.5917 135.446 38.1777 135.37V135.363Z" fill="#ED1C2A"/>
<path d="M27.6871 124.578C26.598 124.163 26.7572 120.473 26.3305 120.448C25.9038 120.416 24.5919 124.074 23.5283 123.863C23.0188 123.761 22.1908 122.88 21.5221 121.89C20.8661 120.894 20.3694 119.796 20.4649 119.286C20.6751 118.219 24.5473 118.398 24.681 117.99C24.8211 117.581 21.3502 116.33 21.382 115.155C21.3884 114.734 22.2163 113.993 23.1716 113.361C24.1206 112.716 25.1205 112.231 25.5153 112.378C26.6044 112.799 26.4515 116.496 26.8719 116.515C27.3049 116.547 28.6105 112.889 29.6741 113.093C30.1836 113.195 31.0115 114.076 31.6802 115.066C32.3426 116.062 32.8394 117.16 32.7375 117.677C32.5337 118.737 28.6551 118.564 28.5214 118.973C28.3812 119.381 31.8458 120.633 31.8267 121.801C31.8204 122.222 30.9924 122.969 30.0307 123.601C29.0818 124.252 28.0883 124.731 27.6934 124.578H27.6871Z" fill="#ED1C2A"/>
<path d="M20.3614 111.497C19.3679 110.878 20.2468 107.284 19.8328 107.175C19.4125 107.06 17.4191 110.393 16.4255 109.978C15.9415 109.78 15.2983 108.752 14.8397 107.654C14.3875 106.55 14.1137 105.375 14.3111 104.89C14.7251 103.887 18.489 104.813 18.6992 104.443C18.9157 104.073 15.7568 102.164 16.0116 101.021C16.1071 100.606 17.0624 100.044 18.1196 99.6101C19.1768 99.1632 20.2531 98.8823 20.6098 99.1058C21.5969 99.7314 20.7244 103.319 21.1384 103.428C21.5524 103.543 23.5521 100.21 24.552 100.625C25.0361 100.829 25.6729 101.851 26.1315 102.949C26.59 104.053 26.8639 105.228 26.6665 105.713C26.2525 106.716 22.4886 105.79 22.2784 106.16C22.0619 106.531 25.2208 108.439 24.9596 109.576C24.8705 109.991 23.9152 110.559 22.8516 110.993C21.8007 111.446 20.7244 111.721 20.3678 111.491L20.3614 111.497Z" fill="#ED1C2A"/>
<path d="M173.975 73.9323L173.885 70.8743C173.72 65.1732 171.917 60.7554 168.529 57.7293C164.899 54.4925 160.626 54.0073 158.403 54.0073C156.976 54.0073 155.55 54.1988 154.295 54.5499C153.06 54.8883 151.467 55.3799 149.945 56.2098C147.245 56.5737 146.194 52.6347 143.214 53.5412C142.488 53.7583 141.889 54.2052 141.405 54.7351C140.87 54.2052 140.271 53.72 139.602 53.2923C136.756 51.4792 133.711 51.2812 132.54 51.2812C131.527 51.2812 130.062 51.4089 128.75 52.0218C127.578 52.5836 126.738 53.637 126.426 54.9649C126.419 54.9968 126.419 55.0351 126.406 55.0671C124.999 54.518 123.553 54.2307 122.248 54.2307C121.127 54.2307 120.114 54.435 119.267 54.8308C118.847 55.0224 118.465 55.2841 118.134 55.5969C116.312 54.6712 114.37 54.2307 112.771 54.2307C111.657 54.2307 110.657 54.435 109.79 54.8372C109.313 55.0543 108.892 55.3543 108.529 55.7182C106.804 54.8628 104.963 54.4286 103.326 54.4286C102.212 54.4286 101.205 54.6329 100.333 55.0415C99.9763 55.2075 99.6515 55.4246 99.3585 55.6799C97.8682 55.0671 96.4098 55.0671 95.8048 55.0671C93.7604 55.0671 90.2449 55.4437 88.0158 55.8012C85.7549 56.1651 84.029 56.3439 82.2585 56.446C80.488 56.5418 79.4308 55.7182 78.7111 54.85C77.6603 53.5795 75.8706 52.9731 74.1638 53.5476C74.0619 53.5795 73.9664 53.6306 73.8709 53.6753C71.9539 52.2197 69.4 51.2876 66.2093 51.2876C60.5411 51.2876 60.038 55.2969 60.0189 55.4501C59.2928 55.2267 58.5286 55.1118 57.7516 55.1118C54.1533 55.1118 47.8037 56.4524 45.6447 56.4524C45.4854 56.4524 45.3262 56.4524 45.1543 56.4397C43.5876 56.3886 42.4412 55.3607 42.3011 55.233L41.6642 54.5372C40.8618 53.6881 39.76 53.1965 38.5626 53.1965C36.2508 53.1965 35.1299 54.7415 34.6968 55.6672C33.0155 54.7989 30.7801 54.2435 27.7931 54.2435C27.0862 54.2435 26.3092 54.2754 25.4685 54.3393C24.2649 54.4286 22.0549 54.8245 19.4374 55.2905C16.1893 55.8715 13.6354 56.2226 12.9922 56.2417C9.62951 56.2354 9.51488 53.1582 5.47074 53.3753C3.61744 53.4774 1.91699 55.0671 1.91699 57.4739C1.91699 57.742 1.91699 58.1442 1.91699 58.323C1.91699 59.5041 2.13352 64.9498 5.60448 68.7036C4.84023 69.4697 4.37532 70.5104 4.34984 71.6404L4.3371 72.2596C4.32437 72.6874 4.33073 74.858 5.17141 77.252C3.97409 76.9392 0 76.9584 0 81.4337V82.4105C0 83.649 0.210168 90.0076 4.65554 93.7615C5.3561 94.3744 8.11376 96.5003 12.3617 96.5003H36.1616C38.0149 96.5003 39.1231 95.6065 40.1039 94.4893C40.7025 94.9426 41.3776 95.3256 42.1482 95.6448L42.2056 95.6704C44.0206 96.4237 47.4407 96.5897 50.0964 96.5897C51.9179 96.5897 53.3763 96.5131 53.7266 96.4939C57.5414 96.2769 60.7959 95.5108 63.0759 94.8149C63.7955 95.5427 65.1075 96.4812 67.2665 96.4812H72.1386C74.0173 96.4812 75.686 95.5938 76.7686 94.2212C78.3736 95.581 80.7172 96.4939 83.9971 96.4939H97.881C99.6897 96.4939 101.314 95.6704 102.396 94.3808C103.995 95.6512 106.275 96.4939 109.415 96.4939H127.776C128.839 96.4939 129.839 96.2066 130.699 95.7087C131.578 96.2066 132.571 96.4748 133.59 96.4748H138.462C141.717 96.4748 144.373 93.819 144.373 90.5503V90.0331C145.016 91.1121 145.767 92.0889 146.659 92.9316C149.34 95.4597 152.888 96.7493 157.212 96.7493C158.11 96.7493 159.033 96.6918 159.97 96.5769C164.874 95.9896 168.567 93.6657 170.956 89.6629C173.191 85.909 174.185 80.7633 173.981 73.9195L173.975 73.9323Z" fill="#ED1C2A"/>
<path d="M24.7877 70.5845C24.7877 70.5845 24.7813 70.5845 24.7686 70.5845C20.4824 71.4464 15.4129 72.0018 11.9865 72.0593C9.36898 72.1039 7.7959 70.725 7.78317 70.7122C7.75769 70.693 7.73222 70.6803 7.70037 70.6803C7.68764 70.6803 7.66853 70.6803 7.65579 70.693C7.61121 70.7122 7.58574 70.7569 7.58574 70.7952L7.56663 71.4336C7.56663 71.6507 7.4711 76.7963 11.2223 78.5328C12.3113 79.0371 13.3176 79.2734 14.292 79.2542C15.2728 79.2351 17.833 78.8648 17.9413 78.8456C22.9344 78.1434 24.3801 74.0575 24.794 71.357C24.8259 71.1399 24.8577 70.9229 24.8959 70.725C24.8959 70.7122 24.8959 70.6994 24.8959 70.693C24.8959 70.6292 24.845 70.5781 24.7813 70.5781L24.7877 70.5845Z" fill="white"/>
<path d="M65.2821 54.5273C64.4605 54.5273 63.7408 54.6423 63.2886 54.8593C63.2568 54.8785 63.2313 54.904 63.225 54.9359C63.2186 54.9742 63.225 55.0125 63.2504 55.0381C63.2632 55.0508 64.5815 56.6724 64.5815 61.6393V89.6403C64.5815 90.7767 65.5623 91.3959 66.3393 91.3959H71.2113C72.1794 91.3959 72.9627 90.6107 72.9627 89.6403V61.2243C72.9627 55.9255 67.9442 54.5273 65.2821 54.5273Z" fill="white"/>
<path d="M141.646 70.6921H139.296V61.2243C139.296 55.9255 134.271 54.5273 131.616 54.5273C130.794 54.5273 130.068 54.6423 129.622 54.8593C129.59 54.8785 129.565 54.904 129.559 54.9359C129.559 54.9742 129.559 55.0125 129.584 55.0381C129.597 55.0508 130.915 56.6724 130.915 61.6393V89.6403C130.915 90.7384 131.858 91.3959 132.667 91.3959H137.539C138.507 91.3959 139.296 90.6107 139.296 89.6403V78.468H141.646C142.614 78.468 143.398 77.6827 143.398 76.7059V72.4413C143.398 71.4709 142.614 70.6857 141.646 70.6857V70.6921Z" fill="white"/>
<path d="M34.9632 64.6105C34.9632 60.4672 33.422 57.4858 27.48 57.4858C25.7222 57.4858 21.6144 58.0476 19.2388 58.469C16.3665 58.9861 12.8064 59.516 11.7874 59.516C11.762 59.516 11.7365 59.516 11.711 59.516C8.29099 59.3947 6.10015 57.1347 6.01099 57.0389C6.01099 57.0389 5.63523 56.6559 5.50149 56.4899C5.36775 56.3175 5.14484 56.3941 5.13847 56.675C5.12574 56.8857 5.13847 57.3837 5.13847 57.3837C5.13847 57.9519 5.22764 62.9634 8.33557 65.5618C9.6539 66.6662 10.9404 67.1131 12.7618 67.1131C14.1184 67.1131 15.7297 66.8769 17.9524 66.5513C17.9524 66.5513 24.5121 65.4979 25.3974 65.3383C25.9706 65.2234 26.5883 65.2937 26.5883 66.1938V80.705C26.5883 81.6754 27.3717 82.4607 28.3397 82.4607H33.2118C34.1799 82.4607 34.9632 81.6754 34.9632 80.705C34.9632 80.705 34.9505 68.7666 34.9505 64.6169L34.9632 64.6105Z" fill="white"/>
<path d="M34.9874 83.6299H9.79909C6.37908 83.5086 4.18824 81.2422 4.09908 81.1464L3.43673 80.425C3.43673 80.425 3.38578 80.3867 3.34757 80.3867C3.33483 80.3867 3.32209 80.3867 3.30299 80.3931C3.25841 80.4123 3.22656 80.4569 3.22656 80.5016V81.4912C3.22656 82.0594 3.31572 87.0646 6.43003 89.6629C6.43003 89.6629 8.27059 91.4058 11.4359 91.4058H34.9874C35.9555 91.4058 36.7388 90.6205 36.7388 89.6501V85.3855C36.7388 84.4151 35.9555 83.6299 34.9874 83.6299Z" fill="white"/>
<path d="M97.5842 59.1349C96.9537 58.5667 95.8774 58.305 94.5909 58.305C92.5784 58.305 89.5405 58.7582 87.7828 58.9817C85.49 59.269 83.0062 59.6839 81.3376 59.6839C81.223 59.6839 81.1083 59.6839 81.0001 59.6839C77.5801 59.5626 75.3956 57.3027 75.3001 57.2069C75.3001 57.2069 74.9243 56.8238 74.7906 56.6579C74.6568 56.4855 74.4339 56.5621 74.4275 56.843C74.4148 57.0537 74.4275 57.5516 74.4275 57.5516C74.4275 58.0815 74.504 62.4611 77.0323 65.1616V86.4591C77.0323 88.5404 77.994 91.4196 82.796 91.4196H96.9601C97.9281 91.4196 98.7115 90.6344 98.7115 89.664C98.7115 89.664 98.6796 64.9573 98.7179 64.338C98.8962 61.6567 98.5905 60.0542 97.5779 59.1413L97.5842 59.1349ZM89.5978 83.631H85.9103C85.9103 83.631 84.9741 83.631 84.9741 82.6095C84.9487 79.1493 84.9805 69.9816 84.9869 67.1087C86.3689 67.0513 88.4133 66.7895 89.0947 66.6874L89.4832 66.6299C90.0819 66.5789 90.4767 66.9811 90.4895 67.4088C90.534 70.6775 90.5404 81.8498 90.5404 82.6797C90.5404 83.6246 89.5978 83.6246 89.5978 83.6246V83.631Z" fill="white"/>
<path d="M168.903 73.1354L168.814 70.0774C168.68 65.5702 167.343 62.1482 164.846 59.9202C162.248 57.6027 159.115 57.258 157.478 57.258C156.427 57.258 155.382 57.392 154.465 57.6474C153.37 57.9475 152.179 58.4007 150.835 59.0519C150.536 59.1988 149.778 59.6456 149.148 59.601C146.243 59.1732 144.422 57.2899 144.339 57.2069C144.339 57.2069 143.963 56.8238 143.83 56.6579C143.696 56.4855 143.473 56.5621 143.467 56.843C143.454 57.0537 143.467 57.5516 143.467 57.5516C143.467 58.0815 143.543 62.5185 146.122 65.2126C145.103 68.2643 144.931 72.082 145.065 76.5956L145.154 79.6536C145.275 83.8161 146.428 86.9571 148.581 88.9937C150.459 90.7748 153.052 91.675 156.28 91.675C157.007 91.675 157.764 91.624 158.548 91.5346C162.152 91.1004 164.745 89.4916 166.458 86.6188C168.279 83.5671 169.075 79.1557 168.897 73.1354H168.903Z" fill="white"/>
<path d="M128.592 65.7927C128.586 64.8989 128.58 64.286 128.58 64.0689C128.58 59.4723 124.058 57.4805 121.326 57.4805C120.822 57.4805 120.389 57.5571 120.077 57.7039C120.045 57.7167 120.02 57.7486 120.014 57.7869C120.014 57.8188 120.014 57.8571 120.039 57.8891C120.052 57.9018 121.383 59.5234 121.383 64.4839C121.383 64.4839 121.402 69.9871 121.408 71.3533L119.122 71.5129C119.122 70.9766 119.135 64.2732 119.135 64.2732C119.135 63.8136 119.084 63.3858 118.995 62.9836C118.307 59.1595 114.759 57.4869 111.843 57.4869C111.339 57.4869 110.906 57.5635 110.594 57.7103C110.562 57.7231 110.537 57.755 110.531 57.7933C110.524 57.8252 110.569 57.9082 110.594 57.9401C110.601 57.9529 111.333 58.8531 111.709 61.3493C111.823 62.1728 111.9 63.0538 111.9 64.3435C111.9 64.3435 111.919 69.936 111.925 71.2511V71.3597L109.614 71.5193C109.614 71.0213 109.658 64.2732 109.658 64.2732C109.658 59.6702 104.856 57.6848 102.404 57.6848C101.901 57.6848 101.468 57.7614 101.156 57.9082C101.124 57.921 101.099 57.9529 101.092 57.9912C101.086 58.0295 101.092 58.0614 101.118 58.0933C101.13 58.1061 102.449 59.7277 102.449 64.6946V86.8476C102.449 88.9289 103.697 91.4315 108.499 91.4315H126.86C127.828 91.4315 128.611 90.6462 128.611 89.6758V85.2388C128.611 85.2388 128.599 66.5524 128.592 65.8054V65.7927ZM111.046 83.6364H110.511C110.04 83.6364 109.633 83.2981 109.633 82.7809C109.633 82.1553 109.633 79.8314 109.633 78.1588C110.34 78.1013 111.021 78.0439 111.136 78.0311C111.537 77.9992 111.964 78.3503 111.964 78.7589C111.964 79.8825 111.964 81.6382 111.964 82.6979C111.964 83.0299 111.747 83.63 111.046 83.63V83.6364ZM120.523 83.6364H119.988C119.504 83.6364 119.103 83.2981 119.103 82.7809C119.103 82.1234 119.103 79.7421 119.103 78.1588C119.81 78.1013 120.498 78.0439 120.606 78.0311C121.007 77.9992 121.434 78.3503 121.434 78.7589C121.434 79.8825 121.434 81.6382 121.434 82.6979C121.434 83.0299 121.217 83.63 120.517 83.63L120.523 83.6364Z" fill="white"/>
<path d="M166.142 74.4124C165.218 73.0015 160.072 74.3485 159.907 73.7548C159.735 73.1547 164.486 70.186 163.868 68.7496C163.562 68.0537 162.078 67.1536 160.48 66.5152C158.875 65.8831 157.181 65.5128 156.487 65.8129C155.054 66.4385 156.487 71.8587 155.952 72.1779C155.423 72.4971 152.602 67.9771 150.958 68.3729C150.366 68.5134 149.576 69.9115 148.971 71.4629C148.347 72.9951 147.972 74.5592 148.303 75.0699C149.226 76.4808 154.372 75.1338 154.538 75.7275C154.71 76.3276 149.959 79.2963 150.576 80.7391C150.882 81.4286 152.372 82.3287 153.971 82.9735C155.569 83.5992 157.27 83.9759 157.97 83.6694C159.403 83.0565 157.97 77.6236 158.505 77.3108C159.034 76.9852 161.855 81.5052 163.499 81.1094C164.091 80.9689 164.881 79.5772 165.479 78.0258C166.103 76.4872 166.479 74.9295 166.142 74.4188V74.4124Z" fill="#ED1C2A"/>
<path d="M62.2959 81.8263C60.7292 82.2732 57.9397 83.0457 54.6152 83.4032C52.7428 83.6011 50.0361 83.6522 48.8834 83.6649C48.3484 83.6649 48.0236 83.4543 48.0236 82.9371V78.481C52.8193 78.4618 58.0607 77.8809 59.3536 77.6574C60.6464 77.434 61.105 76.8658 61.105 75.8954V65.0934C61.105 64.1741 61.0859 64.0592 61.1432 62.9292C61.2387 61.0905 60.4235 58.3581 57.2455 58.3581C54.0675 58.3581 47.1702 59.6988 44.7055 59.6988C44.489 59.6988 44.2788 59.6988 44.0686 59.686C40.6486 59.5647 38.4578 57.3047 38.3686 57.2089L37.6999 56.4875C37.6999 56.4875 37.6489 56.4492 37.6171 56.4492C37.6044 56.4492 37.5853 56.4492 37.5725 56.4556C37.5279 56.4748 37.4961 56.5131 37.4961 56.5641V57.5537C37.4961 58.1219 37.5853 63.1271 40.6932 65.7254C42.0115 66.8299 43.298 67.2768 45.1195 67.2768C46.4824 67.2768 51.2271 66.8363 51.8321 66.715C52.4944 66.5809 52.9466 66.849 52.9466 67.5896V70.0283C52.9466 70.5518 52.6155 70.8774 52.0104 70.9477C51.0551 71.0562 46.1066 71.4456 43.9285 71.4456C41.7504 71.4456 39.6678 70.3093 39.6551 70.2965C39.6296 70.2773 39.6041 70.2646 39.5723 70.2646C39.5596 70.2646 39.5405 70.2646 39.5277 70.2709C39.4831 70.2901 39.4577 70.3348 39.4577 70.3731L39.4449 71.0115C39.4449 71.1137 39.4258 72.365 39.8207 73.8333V85.2993C39.8207 89.6086 41.6167 90.6875 42.8522 91.1983C44.0877 91.709 48.2465 91.958 52.5518 91.709C57.4175 91.4281 61.4298 90.1959 62.3851 89.8001C63.3659 89.3915 63.4805 88.702 63.4805 88.1147V82.6435C63.4805 82.337 62.9965 81.6348 62.2895 81.8391L62.2959 81.8263Z" fill="white"/>
<path d="M69.1313 122.455V122.73H67.3862V124.16H67.0614V122.73H65.3164V122.455H69.1313ZM68.6855 122.027C68.3416 121.9 68.004 121.766 67.762 121.663C67.4818 121.542 67.2907 121.421 67.2207 121.312C67.1506 121.434 66.9595 121.542 66.6793 121.67C66.4373 121.772 66.1125 121.9 65.7495 122.04L65.6285 121.797C65.9533 121.676 66.3609 121.517 66.5838 121.414C66.9404 121.248 67.0614 121.102 67.0614 120.853V120.744H65.8068V120.47H67.0614V119.984H67.3862V120.47H68.6473V120.744H67.3862V120.853C67.3862 121.102 67.5009 121.255 67.8703 121.414C68.0932 121.517 68.4307 121.651 68.8065 121.791L68.6918 122.027H68.6855Z" fill="#B5B5B5"/>
<path d="M69.1836 121.298V121.037C69.1836 120.622 69.553 120.156 70.1962 120.156C70.8395 120.156 71.2025 120.615 71.2088 121.03H72.1514V119.996H72.4699V122.397H72.1514V121.311H71.2088C71.2025 121.72 70.8267 122.173 70.1962 122.173C69.5657 122.173 69.1836 121.707 69.1836 121.292V121.298ZM69.4893 121.062V121.273C69.4893 121.624 69.7823 121.892 70.1899 121.892C70.5975 121.892 70.8904 121.624 70.8904 121.273V121.062C70.8904 120.711 70.5975 120.443 70.1899 120.443C69.7823 120.443 69.4893 120.711 69.4893 121.062ZM69.8141 122.646H72.4699V124.19H72.1514V122.933H69.8141V122.652V122.646Z" fill="#B5B5B5"/>
<path d="M76.5688 121.866V122.141H72.7539V121.866H76.5688ZM76.002 122.505V123.475H73.6392V123.916H76.123V124.184H73.3271V123.207H75.6899V122.773H73.308V122.505H76.002ZM75.9637 120.87C75.9637 121.298 75.3969 121.56 74.6645 121.56C73.9321 121.56 73.3653 121.298 73.3653 120.87V120.736C73.3653 120.302 73.9321 120.047 74.6645 120.047C75.3969 120.047 75.9637 120.309 75.9637 120.736V120.87ZM73.6774 120.858C73.6774 121.1 74.1168 121.292 74.6645 121.292C75.2122 121.292 75.6517 121.107 75.6517 120.858V120.749C75.6517 120.507 75.2122 120.315 74.6645 120.315C74.1168 120.315 73.6774 120.5 73.6774 120.749V120.858Z" fill="#B5B5B5"/>
<path d="M77.418 120.249H79.3222V120.53H77.7364V121.724C78.6471 121.724 79.042 121.711 79.6916 121.634L79.7298 121.915C79.0547 121.998 78.6917 122.011 77.418 122.011V120.243V120.249ZM77.9657 122.56H80.4559V124.143H77.9657V122.56ZM78.2714 123.862H80.1438V122.854H78.2714V123.862ZM80.4559 120.977H81.0927V121.258H80.4559V122.317H80.1374V120H80.4559V120.977Z" fill="#B5B5B5"/>
<path d="M84.7289 122.189V122.464H80.9141V122.189H84.7289ZM81.7993 123.83H84.2513V124.111H81.4809V122.885H81.8057V123.83H81.7993ZM81.5191 121.04V120.868C81.5191 120.402 82.0795 120.102 82.8183 120.102C83.5571 120.102 84.1175 120.408 84.1175 120.868V121.04C84.1175 121.506 83.5571 121.806 82.8183 121.806C82.0795 121.806 81.5191 121.5 81.5191 121.04ZM81.8248 120.893V121.021C81.8248 121.321 82.2897 121.538 82.8183 121.538C83.3469 121.538 83.8118 121.321 83.8118 121.021V120.893C83.8118 120.593 83.3469 120.376 82.8183 120.376C82.2897 120.376 81.8248 120.593 81.8248 120.893Z" fill="#B5B5B5"/>
<path d="M86.3008 120.249H88.205V120.53H86.6192V121.724C87.5299 121.724 87.9248 121.711 88.5744 121.634L88.6126 121.915C87.9375 121.998 87.5745 122.011 86.3008 122.011V120.243V120.249ZM86.8485 122.56H89.3387V124.143H86.8485V122.56ZM87.1606 123.862H89.033V122.854H87.1606V123.862ZM89.3387 120.977H89.9755V121.258H89.3387V122.317H89.0202V120H89.3387V120.977Z" fill="#B5B5B5"/>
<path d="M91.5698 120.223V122.132H89.9648V120.223H90.2769V120.887H91.2577V120.223H91.5698ZM91.2577 121.845V121.175H90.2769V121.845H91.2577ZM90.6208 122.675H93.3148V124.188H92.9964V122.962H90.6208V122.681V122.675ZM92.3977 121.021H93.0091V120H93.3212V122.432H93.0091V121.315H92.3977V122.426H92.0856V120.057H92.3977V121.028V121.021Z" fill="#B5B5B5"/>
<path d="M94.9166 120.499H95.9547V120.773H93.5664V120.499H94.5981V119.969H94.9166V120.499ZM95.7063 121.903C95.7063 122.28 95.3433 122.637 94.751 122.637C94.1587 122.637 93.7957 122.28 93.7957 121.903V121.731C93.7957 121.354 94.1587 120.997 94.751 120.997C95.3433 120.997 95.7063 121.354 95.7063 121.731V121.903ZM95.407 121.89V121.744C95.407 121.52 95.165 121.271 94.7574 121.271C94.3498 121.271 94.1078 121.52 94.1078 121.744V121.89C94.1078 122.114 94.3498 122.363 94.7574 122.363C95.165 122.363 95.407 122.114 95.407 121.89ZM94.63 123.831H96.91V124.112H94.3115V122.963H94.6364V123.831H94.63ZM96.7826 121.271H97.4195V121.552H96.7826V123.027H96.4642V120.001H96.7826V121.271Z" fill="#B5B5B5"/>
<path d="M101.772 123.294V123.569H97.957V123.294H101.772ZM100.887 121.589C100.887 121.468 100.893 121.347 100.893 121.213V120.664H98.4665V120.383H101.224V121.04C101.224 121.806 101.173 122.33 101.059 122.917L100.727 122.879C100.791 122.528 100.842 122.202 100.868 121.858L98.4028 121.902V121.615L100.88 121.583L100.887 121.589Z" fill="#B5B5B5"/>
<path d="M102.283 121.928C103.232 121.928 103.729 121.909 104.264 121.845L104.289 122.12C103.793 122.183 103.194 122.209 101.965 122.209V121.06H103.449V120.472H101.965V120.192H103.761V121.334H102.277V121.928H102.283ZM102.564 122.694H105.098V124.15H102.564V122.694ZM102.876 123.862H104.793V122.981H102.876V123.862ZM105.105 122.452H104.786V120H105.105V122.452Z" fill="#B5B5B5"/>
<path d="M109.209 123.296V123.57H105.395V123.296H109.209ZM105.93 121.259C105.93 120.659 106.547 120.27 107.299 120.27C108.05 120.27 108.668 120.659 108.668 121.259V121.483C108.668 122.083 108.044 122.472 107.299 122.472C106.554 122.472 105.93 122.083 105.93 121.483V121.259ZM106.248 121.272V121.47C106.248 121.885 106.706 122.172 107.299 122.172C107.891 122.172 108.35 121.878 108.35 121.47V121.272C108.35 120.857 107.885 120.57 107.299 120.57C106.713 120.57 106.248 120.863 106.248 121.272Z" fill="#B5B5B5"/>
<path d="M112.351 120.333V121.565H109.988V122.236H112.447V122.51H111.179V123.295H112.924V123.57H109.109V123.295H110.854V122.51H109.67V121.284H112.033V120.601H109.657V120.32H112.345L112.351 120.333Z" fill="#B5B5B5"/>
<path d="M70.8431 128.44C70.5884 128.478 70.2254 128.497 69.8942 128.497H69.7031V125.835H70.7349V126.129H70.0216V128.21C70.2954 128.21 70.5502 128.197 70.8177 128.159L70.8431 128.44ZM72.2761 128.433C72.0468 128.465 71.652 128.497 71.2125 128.497H70.9832V125.835H72.0787V126.129H71.2953V128.21C71.652 128.21 71.9768 128.185 72.2315 128.153L72.2634 128.44L72.2761 128.433ZM72.8556 126.997H73.4798V127.284H72.8556V129.621H72.5308V125.465H72.8556V127.003V126.997Z" fill="#B5B5B5"/>
<path d="M77.1117 128.754V129.029H73.2969V128.754H77.1117ZM75.2011 126.961C75.1629 127.05 74.9973 127.203 74.6725 127.427C74.3987 127.612 74.0293 127.829 73.7045 128.008L73.5325 127.752C73.9274 127.548 74.2777 127.337 74.4878 127.19C74.94 126.884 75.0419 126.743 75.0419 126.252V125.754H75.3731V126.252C75.3731 126.743 75.475 126.884 75.9208 127.19C76.131 127.337 76.4812 127.541 76.8697 127.746L76.7041 127.995C76.3793 127.816 76.0163 127.599 75.7425 127.414C75.4177 127.197 75.2521 127.044 75.2139 126.954L75.2011 126.961Z" fill="#B5B5B5"/>
<path d="M78.4127 125.952H79.4508V126.226H77.0625V125.952H78.0942V125.422H78.4127V125.952ZM79.2024 127.356C79.2024 127.733 78.8394 128.09 78.2471 128.09C77.6548 128.09 77.2918 127.733 77.2918 127.356V127.184C77.2918 126.807 77.6548 126.45 78.2471 126.45C78.8394 126.45 79.2024 126.807 79.2024 127.184V127.356ZM78.9031 127.344V127.197C78.9031 126.973 78.6611 126.724 78.2535 126.724C77.8459 126.724 77.6038 126.973 77.6038 127.197V127.344C77.6038 127.567 77.8459 127.816 78.2535 127.816C78.6611 127.816 78.9031 127.567 78.9031 127.344ZM78.1261 129.284H80.4061V129.565H77.8076V128.416H78.1324V129.284H78.1261ZM80.2787 126.731H80.9156V127.012H80.2787V128.486H79.9603V125.46H80.2787V126.731Z" fill="#B5B5B5"/>
<path d="M83.207 127.723V127.244C82.5446 127.206 82.067 126.906 82.067 126.491V126.318C82.067 125.865 82.6274 125.559 83.3662 125.559C84.105 125.559 84.6654 125.865 84.6654 126.318V126.491C84.6654 126.912 84.1814 127.206 83.5191 127.244V127.723H85.2641V127.997H81.4492V127.723H83.1942H83.207ZM82.3472 129.287H84.7928V129.568H82.0224V128.348H82.3472V129.287ZM82.3727 126.337V126.465C82.3727 126.752 82.8376 126.976 83.3662 126.976C83.8948 126.976 84.3597 126.752 84.3597 126.465V126.337C84.3597 126.05 83.8948 125.827 83.3662 125.827C82.8376 125.827 82.3727 126.05 82.3727 126.337Z" fill="#B5B5B5"/>
<path d="M85.3906 128.41C86.7854 127.612 86.9446 127.344 86.9446 126.661V126.138H85.4352V125.844H87.2567V126.661C87.2567 127.491 87.0338 127.798 85.5562 128.666L85.3906 128.404V128.41ZM88.5941 129.617H88.2693V125.461H88.5941V129.617Z" fill="#B5B5B5"/>
<path d="M92.7055 127.437V127.711H88.8906V127.437H92.7055ZM92.1387 128.075V128.988H89.7759V129.371H92.266V129.64H89.4638V128.727H91.8266V128.344H89.4383V128.075H92.1387ZM89.4511 125.566H92.1132V126.46H89.7695V126.824H92.2087V127.092H89.4702V126.198H91.8139V125.835H89.4511V125.566Z" fill="#B5B5B5"/>
<path d="M97.1469 128.752V129.026H93.332V128.752H97.1469ZM94.1918 125.809V127.424H96.6501V127.698H93.867V125.809H94.1918Z" fill="#B5B5B5"/>
<path d="M97.1392 128.244C97.9926 127.37 97.999 127.178 97.999 126.636V126.138H97.2729V125.844H98.3047V126.642C98.3047 127.3 98.2473 127.497 97.3557 128.436L97.1328 128.232L97.1392 128.244ZM98.2792 128.627C99.0944 127.702 99.1581 127.434 99.1581 126.897V126.144H98.5212V125.85H99.4701V126.904C99.4701 127.561 99.381 127.842 98.5148 128.825L98.2856 128.627H98.2792ZM100.508 129.617H100.183V125.461H100.508V129.617Z" fill="#B5B5B5"/>
<path d="M101.642 125.793H101.967V126.725C101.967 127.159 102.018 127.306 102.247 127.606C102.4 127.798 102.616 128.04 102.877 128.296L102.667 128.506C102.438 128.276 102.215 128.021 102.062 127.849C101.928 127.695 101.833 127.549 101.814 127.497C101.801 127.549 101.725 127.676 101.584 127.842C101.419 128.04 101.209 128.27 100.916 128.557L100.699 128.347C100.973 128.085 101.247 127.798 101.387 127.612C101.604 127.331 101.655 127.146 101.655 126.731V125.799L101.642 125.793ZM103.215 126.853V125.55H103.533V129.419H103.215V127.146H102.457V126.853H103.215ZM104.342 129.617H104.024V125.461H104.342V129.617Z" fill="#B5B5B5"/>
<path d="M105.03 126.684C105.03 126.09 105.654 125.707 106.393 125.707C107.131 125.707 107.762 126.096 107.762 126.684V126.907C107.762 127.226 107.577 127.488 107.297 127.661V128.752H108.303V129.027H104.488V128.752H105.495V127.661C105.208 127.495 105.03 127.233 105.03 126.907V126.684ZM105.348 126.697V126.894C105.348 127.303 105.807 127.59 106.399 127.59C106.991 127.59 107.45 127.303 107.45 126.894V126.697C107.45 126.288 106.985 126.001 106.399 126.001C105.813 126.001 105.348 126.288 105.348 126.697ZM105.813 127.801V128.752H106.972V127.801C106.794 127.858 106.596 127.89 106.393 127.89C106.189 127.89 105.991 127.858 105.813 127.801Z" fill="#B5B5B5"/>
</g>
<defs>
<clipPath id="clip0_3110_14777">
<rect width="174" height="146.16" fill="white"/>
</clipPath>
</defs>
</svg>
