<svg width="1660" height="508" viewBox="0 0 1660 508" fill="none" xmlns="http://www.w3.org/2000/svg">
<path opacity="0.1" d="M497.044 10.6566C483.847 10.2969 469.568 49.3664 464.952 47.8554C460.337 46.3444 462.428 2.59806 450.457 0.151715C444.615 -0.999506 432.211 4.54074 420.961 12.0237C409.783 19.5066 399.831 28.7883 398.605 34.6164C396.225 46.5603 437.476 61.5262 437.115 66.3469C436.827 71.1676 395.143 69.225 390.383 81.5286C388.653 85.9896 394.061 97.2859 401.345 108.007C408.413 118.871 416.778 128.153 421.538 128.297C434.735 128.657 449.014 89.5152 453.63 91.0982C458.245 92.6811 456.154 136.427 468.125 138.874C473.895 140.025 486.371 134.413 497.621 127.002C508.799 119.519 518.751 110.237 519.977 104.409C522.357 92.4652 481.106 77.5713 481.467 72.6786C481.755 67.7859 523.439 69.7286 528.199 57.4249C529.929 53.0359 524.521 41.7396 517.237 30.9469C510.169 20.0822 501.732 10.7286 496.972 10.6566H497.044Z" fill="#ED1C2A"/>
<path opacity="0.1" d="M310.908 96.5686C297.855 98.7271 291.437 139.955 286.677 139.236C281.845 138.66 275.355 95.2734 263.167 95.2734C257.253 95.2734 246.147 103.188 236.556 112.686C227.036 122.183 219.104 133.264 219.104 139.164C219.104 151.395 262.446 158.015 263.095 162.836C263.744 167.584 222.493 173.844 220.185 186.795C219.392 191.544 226.892 201.545 236.123 210.611C245.21 219.821 255.234 227.376 259.922 226.585C272.903 224.354 279.321 183.198 284.153 183.845C288.985 184.493 295.403 227.808 307.663 227.808C313.577 227.808 324.683 219.893 334.274 210.467C343.793 200.898 351.798 189.817 351.798 183.917C351.798 171.686 308.384 165.138 307.807 160.245C307.158 155.425 348.409 149.237 350.645 136.286C351.51 131.537 343.938 121.536 334.707 112.47C325.62 103.188 315.596 95.6332 310.908 96.4966V96.5686Z" fill="#ED1C2A"/>
<path opacity="0.1" d="M165.668 229.32C153.336 233.997 155.139 275.585 150.307 275.872C145.475 276.232 130.619 235.004 118.576 237.378C112.806 238.53 103.431 248.459 95.8588 259.611C88.4308 270.836 82.8057 283.211 83.8875 288.968C86.2673 300.983 130.114 298.969 131.629 303.574C133.215 308.179 93.9117 322.281 94.2723 335.52C94.3444 340.269 103.72 348.615 114.537 355.738C125.282 363.005 136.605 368.474 141.076 366.819C153.408 362.07 151.677 320.41 156.437 320.194C161.341 319.835 176.125 361.063 188.168 358.76C193.938 357.537 203.313 347.68 210.885 336.527C218.385 325.303 224.01 312.927 222.857 307.099C220.549 295.155 176.63 297.098 175.115 292.493C173.529 287.888 212.76 273.786 212.472 260.619C212.4 255.87 203.024 247.452 192.135 240.328C181.389 232.989 170.139 227.593 165.668 229.32Z" fill="#ED1C2A"/>
<path opacity="0.1" d="M69.2473 400.848C57.9971 407.828 67.9492 448.336 63.2616 449.559C58.5019 450.855 35.9293 413.296 24.6791 417.901C19.1982 420.203 11.9144 431.715 6.72202 444.091C1.60173 456.539 -1.49929 469.778 0.736329 475.246C5.42392 486.542 48.045 476.109 50.4248 480.355C52.8768 484.528 17.1068 506.041 19.9915 518.92C21.0733 523.597 31.8908 529.929 43.8622 534.822C55.8336 539.858 68.0213 543.024 72.0598 540.506C83.2379 533.455 73.3579 493.018 78.0455 491.795C82.7331 490.5 105.378 528.058 116.7 523.381C122.181 521.079 129.393 509.567 134.585 497.119C139.778 484.672 142.879 471.433 140.643 465.964C135.955 454.668 93.3343 465.101 90.9544 460.928C88.5025 456.755 124.272 435.241 121.316 422.434C120.306 417.757 109.488 411.353 97.4449 406.461C85.5457 401.352 73.3579 398.258 69.3194 400.848H69.2473Z" fill="#ED1C2A"/>
<path opacity="0.1" d="M1162.39 10.6566C1175.59 10.2969 1189.87 49.3664 1194.48 47.8554C1199.1 46.3444 1197.01 2.59806 1208.98 0.151715C1214.82 -0.999506 1227.22 4.54074 1238.47 12.0237C1249.72 19.5066 1259.6 28.7883 1260.83 34.6164C1263.21 46.5603 1221.96 61.5262 1222.32 66.3469C1222.61 71.1676 1264.29 69.225 1269.05 81.5286C1270.78 85.9896 1265.37 97.2859 1258.02 108.007C1250.95 118.871 1242.58 128.153 1237.82 128.297C1224.63 128.657 1210.35 89.5152 1205.73 91.0982C1201.12 92.6811 1203.21 136.427 1191.24 138.874C1185.47 140.025 1172.99 134.413 1161.74 127.002C1150.56 119.519 1140.61 110.237 1139.38 104.409C1137 92.4652 1178.25 77.5713 1177.89 72.6786C1177.61 67.7859 1135.92 69.7286 1131.16 57.4249C1129.43 53.0359 1134.84 41.7396 1142.12 30.9469C1149.19 20.0822 1157.63 10.7286 1162.39 10.6566Z" fill="#ED1C2A"/>
<path opacity="0.1" d="M1348.53 96.5686C1361.58 98.7271 1368 139.955 1372.76 139.236C1377.59 138.66 1384.08 95.2734 1396.27 95.2734C1402.18 95.2734 1413.29 103.188 1422.88 112.686C1432.4 122.183 1440.33 133.264 1440.4 139.164C1440.4 151.395 1397.06 158.015 1396.41 162.836C1395.76 167.584 1437.01 173.844 1439.32 186.795C1440.12 191.544 1432.62 201.545 1423.38 210.611C1414.3 219.821 1404.27 227.376 1399.59 226.585C1386.53 224.354 1380.19 183.198 1375.35 183.845C1370.52 184.493 1364.03 227.808 1351.84 227.808C1345.93 227.808 1334.82 219.893 1325.23 210.467C1315.71 200.898 1307.71 189.817 1307.71 183.917C1307.71 171.686 1351.05 165.138 1351.7 160.245C1352.35 155.425 1311.1 149.237 1308.86 136.286C1308 131.537 1315.57 121.536 1324.8 112.47C1333.89 103.188 1343.91 95.6332 1348.6 96.4966L1348.53 96.5686Z" fill="#ED1C2A"/>
<path opacity="0.1" d="M1498.17 232.63C1510.5 237.307 1508.69 278.895 1513.53 279.183C1518.36 279.542 1533.21 238.242 1545.26 240.689C1551.03 241.84 1560.4 251.769 1567.97 262.85C1575.4 274.074 1581.1 286.45 1579.95 292.206C1577.57 304.222 1533.72 302.207 1532.2 306.812C1530.62 311.417 1569.92 325.519 1569.56 338.758C1569.49 343.507 1560.11 351.853 1549.3 358.977C1538.55 366.244 1527.23 371.712 1522.76 370.057C1510.43 365.308 1512.16 323.649 1507.4 323.433C1502.49 323.145 1487.71 364.301 1475.66 361.999C1469.9 360.775 1460.52 350.918 1452.95 339.766C1445.45 328.541 1439.82 316.166 1440.98 310.338C1443.28 298.394 1487.2 300.336 1488.72 295.731C1490.3 291.127 1451.07 277.024 1451.29 263.857C1451.36 259.108 1460.74 250.69 1471.63 243.567C1482.37 236.228 1493.69 230.831 1498.17 232.558V232.63Z" fill="#ED1C2A"/>
<path opacity="0.1" d="M1590.19 400.848C1601.44 407.828 1591.49 448.336 1596.17 449.559C1600.93 450.855 1623.51 413.296 1634.76 417.901C1640.24 420.203 1647.45 431.715 1652.71 444.091C1657.83 456.539 1661.01 469.778 1658.7 475.246C1654.01 486.542 1611.39 476.109 1609.01 480.355C1606.56 484.528 1642.33 506.041 1639.44 518.92C1638.43 523.597 1627.54 529.929 1615.57 534.822C1603.6 539.858 1591.41 543.024 1587.38 540.506C1576.2 533.455 1586.15 493.018 1581.39 491.795C1576.7 490.5 1554.06 528.058 1542.73 523.381C1537.33 521.079 1530.11 509.567 1524.85 497.119C1519.66 484.672 1516.56 471.433 1518.79 465.964C1523.48 454.668 1566.1 465.101 1568.48 460.928C1570.93 456.755 1535.16 435.241 1538.12 422.434C1539.13 417.757 1549.87 411.353 1561.99 406.461C1573.89 401.352 1586.08 398.258 1590.12 400.848H1590.19Z" fill="#ED1C2A"/>
</svg>
