<svg width="1920" height="984" viewBox="0 0 1920 984" fill="none" xmlns="http://www.w3.org/2000/svg">
<path d="M1508.95 902.44C1559.6 884.767 1658.66 841.261 1693.96 880.23C1712.4 900.613 1698.63 919.169 1687.22 929.345C1684.67 931.644 1686.49 936.464 1689.87 935.96C1708.68 933.125 1743.57 925.658 1772.82 906.945C1815.25 879.852 1842.35 861.013 1887.11 877.521C1902.59 883.221 1913 889.768 1920 895.896V984H1493.73C1493.4 983.023 1493.1 982.067 1492.81 981.137C1491.77 977.703 1484.87 977.356 1483.58 980.695C1483.17 981.761 1482.73 982.864 1482.27 984H236.896C236.492 983.91 236.085 983.825 235.674 983.751C235.485 983.751 235.327 983.751 235.358 983.972C235.359 983.981 235.36 983.99 235.36 984H0V891.357C14.5552 902.389 28.2729 921.323 35.1855 931.676C36.8561 934.164 41.2056 933.471 42.1826 930.636C47.793 914.632 65.2542 881.995 112.878 891.887C175.315 904.835 170.62 923.673 205.951 922.508C241.283 921.342 283.708 888.358 324.934 898.943C354.56 906.567 361.716 947.018 363.354 969.196C363.544 971.685 368.428 972.599 369.5 970.362C379.712 949.349 403.981 911.041 445.081 911.892C501.625 913.057 560.532 929.565 594.698 916.586C628.864 903.638 670.09 882.436 712.514 893.021C754.937 903.606 756.104 924.808 827.966 910.694C872.784 901.873 887.819 884.389 892.799 872.449C893.051 871.819 898.723 871.441 899.071 872.07C907.045 886.247 931.094 905.654 1003.52 887.161C1109.45 860.094 1121.32 935.311 1121.34 935.456C1121.34 935.456 1150.78 900.141 1204.99 915.42C1240 925.312 1248.96 947.995 1250.91 962.802C1251.01 963.495 1255.57 964.313 1255.86 963.652C1263.17 947.964 1279.47 923.989 1309.85 927.171C1354.04 931.833 1418.9 941.064 1436.43 879.002C1436.84 877.584 1437.91 877.174 1438.79 878.371C1444.65 886.468 1464.64 917.909 1508.95 902.44Z" fill="white"/>
<path d="M1469.17 546.827C1470.91 545.126 1475.57 547.425 1475.32 549.851C1473.11 571.179 1476.17 614.402 1533.19 629.492C1610.06 649.812 1650.69 560.594 1692.23 567.682C1733.73 574.731 1722.29 629.384 1722.27 629.492C1722.27 629.492 1749.66 603.249 1788.55 608.29C1824.76 613.016 1831.86 633.903 1831.86 633.903C1831.97 633.919 1850.58 636.469 1902.55 610.937C1908.42 608.055 1914.26 605.813 1920 604.099V788.39C1889.16 780.041 1870.59 760.994 1862.43 750.655C1859.97 747.537 1854.61 747.253 1851.62 749.868C1843.11 757.271 1824.92 768.266 1793.88 764.832C1737.62 758.657 1705.53 729.517 1678.11 734.81C1650.72 740.102 1633.92 776.299 1553.52 771.889C1473.11 767.478 1461.64 708.283 1430.69 706.519C1431.57 706.519 1407.71 756.861 1350.29 756.861C1292.86 756.861 1268.12 700.124 1208.93 707.212C1154.97 713.639 1151.66 769.967 1129.41 788.586C1126.73 790.823 1123.01 788.082 1122.79 784.585C1121.87 769.684 1111.28 739.189 1041.88 731.911C949.091 722.208 960.594 769.873 909.346 769.022C876.693 768.455 865.914 746.024 862.415 729.8C861.879 727.311 855.451 726.335 854.315 728.603C843.032 751.317 815.989 791.579 765.339 792.839C694.643 794.603 664.606 745.143 598.354 747.789C548.367 749.774 510.955 792.492 495.605 813.348C493.588 816.089 486.086 814.576 484.573 811.521C480.381 802.92 470.957 791.61 449.935 782.254C410.19 764.581 396.038 772.551 370.414 746.938C357.492 734.022 351.976 720.223 349.707 709.701C349.423 708.378 341.606 706.96 340.913 708.126C336.469 715.309 329.535 724.035 319.008 732.541C295.18 751.758 259.312 762.091 230.819 756.673C188.081 748.545 162.803 705.447 162.803 705.447C162.803 705.447 143.356 762.847 65.6006 772.582C32.6596 776.688 12.4063 772.405 0 766.104V634.648C8.96316 631.606 18.0054 627.882 26.6123 623.317C69.9184 600.351 85.8038 580.032 118.488 599.47C142.347 613.646 144.553 634.911 144.018 645.339C143.86 648.363 146.477 651.104 149.471 650.6C159.21 648.93 178.121 645.055 189.468 638.597C227.888 616.734 254.111 618.623 265.71 624.42C289.349 636.234 291.682 652.459 291.682 652.459C291.682 652.459 353.521 605.644 395.944 617.143C438.368 628.641 465.757 651.608 509.063 647.166C546.476 643.354 633.34 598.65 656.285 586.584C658.996 585.135 662.432 586.931 663.251 589.893C666.056 599.848 674.44 618.372 698.142 621.554C730.826 625.964 747.625 618.907 793.579 631.257C839.533 643.606 892.547 655.104 939.383 645.401C986.219 635.698 1019.79 581.828 1067.5 583.592C1115.22 585.356 1141.73 606.558 1146.14 621.554C1150.56 636.549 1147.91 655.987 1147.91 655.987C1147.91 655.987 1181.48 604.762 1214.19 612.701C1246.88 620.64 1256.62 650.663 1256.62 650.663C1256.62 650.663 1271.62 630.343 1306.98 605.612C1342.34 580.882 1352.05 582.647 1401.54 578.236C1434.88 575.275 1457.77 557.853 1469.17 546.827Z" fill="white"/>
<path d="M715.887 334.555C762.723 320.441 788.347 281.566 825.444 294.829C848.547 303.083 847.664 319.905 843.725 331.404C842.937 333.736 847.034 337.516 849.209 336.319C865.22 327.467 896.802 313.857 935.002 316.881C990.663 321.291 1010.11 353.804 1037.5 341.423C1064.89 329.073 1094.93 307.871 1131.17 318.456C1153.42 324.977 1163.01 337.799 1167.07 346.715C1167.61 347.88 1172.05 347.786 1172.49 346.558C1177.06 333.263 1189.7 311.557 1223.05 314.046C1270.77 317.574 1382.97 363.034 1414.81 342.714C1432.64 331.341 1432.42 318.834 1428.77 310.045C1428.52 309.415 1432.11 305.76 1432.71 306.075C1449.89 315.652 1484.93 330.27 1531.39 324.158C1598.56 315.306 1666.57 310.013 1694 330.333C1712.56 344.1 1709.22 361.9 1705.12 371.981C1703.77 375.321 1706.22 379.006 1709.72 378.093C1718.77 375.73 1735.44 370.123 1762.01 356.828C1806.2 334.744 1808.85 329.451 1835.35 335.626C1852.41 339.595 1863.22 351.252 1868.8 359.064C1871.13 362.341 1876.45 362.94 1879.39 360.199C1886.77 353.248 1900.74 342.448 1920 337.782V464.009C1912.65 458.716 1905.89 454.556 1895.62 452.978C1893.13 452.599 1890.39 454.489 1889.41 456.789C1884.02 469.202 1863.97 503.667 1814.14 499.288C1765.07 494.972 1754.89 464.696 1752.81 453.765C1752.43 451.749 1750.41 450.299 1748.46 450.866C1740.77 453.071 1722.9 458.742 1708.12 467.469C1688.67 478.968 1630.36 511.637 1578.23 500.139C1526.1 488.64 1564.96 448.913 1549.96 438.328C1534.95 427.743 1480.14 443.62 1457.17 457.766C1439.74 468.477 1414.71 485.268 1403.62 492.798C1400.28 495.034 1395.86 494.751 1392.68 492.294C1379.76 482.339 1344.46 459.057 1302.54 463.94C1249.52 470.115 1224.78 501.493 1154.97 495.318C1104.07 490.813 1079.7 431.46 1070.22 399.642C1070.12 399.295 1066.31 399.862 1066.31 400.209C1064.95 422.325 1054.87 456.033 1008.28 468.099C936.704 486.654 866.922 464.57 836.854 470.745C818.352 474.557 801.9 484.701 791.94 491.947C789.23 493.932 784.376 490.876 784.88 487.537C787.149 472.825 786.929 449.575 764.362 444.219C730.795 436.28 706.052 458.364 669.838 453.04C646.704 449.638 635.452 439.053 630.346 431.87C628.36 429.066 623.538 428.279 621.143 430.768C606.266 446.299 562.109 486.497 506.385 482.213C437.454 476.92 450.723 453.954 418.038 453.954C385.354 453.954 327.045 516.646 235.138 510.472C143.23 504.297 153.852 451.307 128.228 449.543C103.224 447.822 46.2595 488.963 0 489.348V360.569C28.0425 365.453 55.8605 357.166 56.6807 338.934C57.1849 327.372 51.6689 312.974 46.8467 302.673C45.3658 299.523 49.4632 295.711 52.4258 297.569C63.8353 304.689 81.0441 314.676 95.2588 320.095C135.665 335.437 178.467 328.096 216.479 317.479C254.49 306.894 304.982 303.587 322.664 334.523C334.83 355.788 319.67 376.077 309.017 386.662C306.684 388.962 308.513 393.152 311.728 392.521C326.604 389.56 353.835 381.873 380.09 362.782C418.952 334.523 429.575 328.349 451.669 327.467C473.763 326.585 499.388 348.669 499.388 348.669C499.388 348.669 531.189 305.382 577.143 307.178C623.096 308.942 669.019 348.668 715.887 334.555Z" fill="white"/>
<path d="M1508.95 37.9473C1559.6 20.2736 1658.66 -23.2322 1693.96 15.7373C1712.4 36.12 1698.63 54.6443 1687.22 64.8515C1684.67 67.1198 1686.49 71.9718 1689.87 71.4678C1708.68 68.6324 1743.57 61.1653 1772.82 42.4521C1815.25 15.3591 1842.35 -3.47948 1887.11 13.0283C1902.59 18.729 1913 25.2749 1920 31.4033V185.376C1889.1 179.452 1869 157.724 1859.09 143.989C1857.07 141.217 1850.77 142.634 1850.01 145.974C1846.7 160.812 1837.12 183.085 1809.35 187.716C1766.93 194.773 1763.4 155.929 1710.38 160.654C1657.37 165.348 1605.52 185.165 1551.34 175.745C1514.66 169.381 1499.05 136.963 1492.81 116.644C1491.77 113.21 1484.87 112.864 1483.58 116.203C1474.53 139.736 1453.51 181.478 1415.88 189.858C1362.86 201.641 1334.59 173.382 1309.85 179.273C1291.7 183.589 1281.17 210.745 1276.82 224.891C1275.94 227.789 1271.46 228.419 1269.7 225.993C1259.92 212.478 1234.74 184.881 1189.67 180.471C1129.6 174.58 1118.97 208.729 1051.84 204.035C984.707 199.341 974.085 133.372 974.085 133.372C974.085 133.372 956.403 169.885 917.541 169.885C878.679 169.885 836.255 120.424 836.255 120.424C836.255 120.424 869.255 184.439 799.726 196.19C730.228 207.973 721.97 165.569 664.229 164.403C621.647 163.553 588.048 201.105 573.329 220.89C571.28 223.662 565.135 221.834 564.662 218.4C562.078 199.278 550.73 167.712 503.989 166.767C446.248 165.601 447.445 207.973 363.795 209.17C280.335 210.335 276.647 126.694 235.674 119.29C235.485 119.259 235.327 119.29 235.358 119.479C235.485 124.082 251.493 190.678 174.149 212.258C94.1664 234.587 49.4265 172.429 49.2744 172.217C49.2507 172.242 28.6582 194.328 0 204.465V26.8584C14.5553 37.8806 28.2729 56.7986 35.1855 67.1514C36.856 69.64 41.2054 68.9474 42.1826 66.1123C47.7929 50.1084 65.2537 17.4701 112.878 27.3623C175.315 40.3103 170.62 59.1498 205.951 57.9844C241.283 56.8187 283.708 23.8337 324.934 34.4189C354.561 42.043 361.716 82.5258 363.354 104.673C363.544 107.161 368.428 108.074 369.5 105.838C379.712 84.8249 403.981 46.5166 445.081 47.3672C501.625 48.5328 560.532 65.0406 594.698 52.0928C628.864 39.1448 670.09 17.9433 712.514 28.5283C754.937 39.1135 756.104 60.3148 827.966 46.2012C872.785 37.4116 887.819 19.8959 892.799 7.95604C893.051 7.32597 898.725 6.94804 899.071 7.57811C907.045 21.7547 931.094 41.1604 1003.52 22.668C1109.41 -4.39029 1121.31 70.7379 1121.34 70.9316C1121.36 70.9072 1150.8 35.6215 1204.99 50.8955C1240.01 60.7877 1248.96 83.4706 1250.91 98.2773C1251.01 98.9704 1255.57 99.7892 1255.86 99.1592C1263.17 83.4703 1279.47 59.4958 1309.85 62.6777C1354.04 67.3403 1418.9 76.571 1436.43 14.5088C1436.84 13.0911 1437.91 12.6818 1438.79 13.8789C1444.65 21.9756 1464.64 53.4155 1508.95 37.9473Z" fill="white"/>
</svg>
