<svg width="476" height="223" viewBox="0 0 476 223" fill="none" xmlns="http://www.w3.org/2000/svg">
<path opacity="0.1" d="M204.741 4.38961C199.305 4.24142 193.423 20.3347 191.522 19.7123C189.62 19.09 190.482 1.07018 185.551 0.0624935C183.145 -0.411711 178.035 1.8704 173.401 4.95273C168.797 8.03506 164.697 11.8583 164.192 14.259C163.212 19.1789 180.204 25.3435 180.055 27.3293C179.936 29.315 162.766 28.5148 160.806 33.5828C160.093 35.4204 162.321 40.0735 165.321 44.4895C168.232 48.9648 171.678 52.7881 173.639 52.8474C179.075 52.9956 184.957 36.8726 186.858 37.5247C188.759 38.1767 187.897 56.1965 192.829 57.2041C195.205 57.6783 200.344 55.3666 204.978 52.3139C209.583 49.2316 213.682 45.4083 214.187 43.0076C215.168 38.0878 198.176 31.9527 198.324 29.9374C198.443 27.922 215.613 28.7222 217.574 23.6542C218.287 21.8463 216.059 17.1931 213.058 12.7475C210.147 8.27216 206.672 4.41925 204.711 4.38961H204.741Z" fill="#ED1C2A"/>
<path opacity="0.1" d="M128.066 39.7796C122.689 40.6687 120.045 57.6512 118.084 57.3548C116.094 57.1177 113.421 39.2461 108.4 39.2461C105.964 39.2461 101.39 42.5063 97.4388 46.4184C93.5177 50.3306 90.25 54.8948 90.25 57.3251C90.25 62.3636 108.103 65.0902 108.371 67.076C108.638 69.0321 91.6462 71.6106 90.6956 76.9454C90.3688 78.9015 93.4582 83.0211 97.2606 86.7555C101.004 90.5491 105.133 93.6611 107.064 93.3351C112.411 92.4163 115.054 75.4635 117.045 75.7302C119.035 75.9969 121.679 93.8389 126.729 93.8389C129.165 93.8389 133.74 90.5787 137.69 86.6962C141.612 82.7544 144.909 78.1901 144.909 75.7598C144.909 70.7214 127.026 68.0244 126.788 66.009C126.521 64.0233 143.513 61.4744 144.434 56.1396C144.79 54.1835 141.671 50.0639 137.869 46.3295C134.126 42.5062 129.997 39.3943 128.066 39.7499V39.7796Z" fill="#ED1C2A"/>
<path opacity="0.1" d="M68.2377 94.4615C63.1579 96.388 63.9006 113.519 61.9103 113.637C59.92 113.785 53.8006 96.8029 48.8397 97.781C46.4632 98.2552 42.6014 102.345 39.4823 106.939C36.4226 111.563 34.1055 116.66 34.5511 119.031C35.5314 123.981 53.5926 123.151 54.2165 125.048C54.87 126.945 38.6802 132.754 38.8288 138.207C38.8585 140.163 42.7202 143.601 47.1761 146.535C51.6023 149.529 56.2662 151.781 58.1079 151.099C63.1876 149.143 62.4747 131.983 64.4353 131.894C66.4553 131.746 72.545 148.728 77.5059 147.78C79.8824 147.276 83.7442 143.216 86.8633 138.622C89.9527 133.998 92.2698 128.901 91.7945 126.5C90.8439 121.58 72.753 122.38 72.1291 120.483C71.4756 118.587 87.6357 112.778 87.5168 107.354C87.4871 105.398 83.6254 101.93 79.1398 98.9961C74.7136 95.9731 70.0794 93.7502 68.2377 94.4615Z" fill="#ED1C2A"/>
<path opacity="0.1" d="M28.524 165.115C23.8898 167.99 27.9893 184.676 26.0584 185.18C24.0978 185.714 14.7998 170.243 10.1657 172.139C7.90803 173.088 4.90773 177.83 2.7689 182.928C0.659776 188.055 -0.61758 193.508 0.303305 195.761C2.23419 200.414 19.7904 196.116 20.7707 197.865C21.7807 199.584 7.04656 208.446 8.2348 213.751C8.68039 215.677 13.1363 218.286 18.0675 220.301C22.9987 222.376 28.019 223.68 29.6825 222.642C34.2869 219.738 30.2172 203.081 32.1481 202.577C34.079 202.044 43.4067 217.515 48.0705 215.588C50.3281 214.64 53.2987 209.898 55.4376 204.771C57.5764 199.643 58.8538 194.19 57.9329 191.938C56.002 187.284 38.4458 191.582 37.4655 189.863C36.4555 188.144 51.1896 179.282 49.9717 174.007C49.5558 172.08 45.0999 169.442 40.139 167.427C35.2375 165.323 30.2172 164.048 28.5537 165.115H28.524Z" fill="#ED1C2A"/>
<path opacity="0.1" d="M270.673 4.38961C276.109 4.24142 281.991 20.3347 283.892 19.7123C285.794 19.09 284.932 1.07018 289.863 0.0624935C292.27 -0.411711 297.379 1.8704 302.013 4.95273C306.618 8.03506 310.717 11.8583 311.222 14.259C312.202 19.1789 295.21 25.3435 295.359 27.3293C295.478 29.315 312.648 28.5148 314.608 33.5828C315.321 35.4204 313.093 40.0735 310.093 44.4895C307.182 48.9648 303.736 52.7881 301.775 52.8474C296.339 52.9956 290.457 36.8726 288.556 37.5247C286.655 38.1767 287.517 56.1965 282.585 57.2041C280.209 57.6783 275.07 55.3666 270.436 52.3139C265.831 49.2316 261.732 45.4083 261.227 43.0076C260.247 38.0878 277.238 31.9527 277.09 29.9374C276.971 27.922 259.801 28.7222 257.84 23.6542C257.127 21.8463 259.355 17.1931 262.356 12.7475C265.267 8.27216 268.742 4.41925 270.703 4.38961H270.673Z" fill="#ED1C2A"/>
<path opacity="0.1" d="M347.348 39.7796C352.725 40.6687 355.369 57.6512 357.33 57.3548C359.32 57.1177 361.993 39.2461 367.014 39.2461C369.45 39.2461 374.024 42.5063 377.975 46.4184C381.896 50.3306 385.164 54.8948 385.164 57.3251C385.164 62.3636 367.311 65.0902 367.043 67.076C366.776 69.0321 383.768 71.6106 384.718 76.9454C385.045 78.9015 381.956 83.0211 378.153 86.7555C374.411 90.5491 370.281 93.6611 368.35 93.3351C363.003 92.4163 360.36 75.4635 358.369 75.7302C356.379 75.9969 353.735 93.8389 348.685 93.8389C346.249 93.8389 341.675 90.5787 337.724 86.6962C333.802 82.7544 330.505 78.1901 330.505 75.7598C330.505 70.7214 348.388 68.0244 348.626 66.009C348.893 64.0233 331.901 61.4744 330.98 56.1396C330.624 54.1835 333.743 50.0639 337.545 46.3295C341.288 42.5062 345.417 39.3943 347.348 39.7499V39.7796Z" fill="#ED1C2A"/>
<path opacity="0.1" d="M407.176 94.4615C412.256 96.388 411.513 113.519 413.504 113.637C415.494 113.785 421.613 96.8029 426.574 97.781C428.951 98.2552 432.813 102.345 435.932 106.939C438.991 111.563 441.309 116.66 440.863 119.031C439.883 123.981 421.821 123.151 421.198 125.048C420.544 126.945 436.734 132.754 436.585 138.207C436.556 140.163 432.694 143.601 428.238 146.535C423.812 149.529 419.148 151.781 417.306 151.099C412.226 149.143 412.939 131.983 410.979 131.894C408.959 131.746 402.869 148.728 397.908 147.78C395.532 147.276 391.67 143.216 388.551 138.622C385.461 133.998 383.144 128.901 383.62 126.5C384.57 121.58 402.661 122.38 403.285 120.483C403.938 118.587 387.778 112.778 387.897 107.354C387.927 105.398 391.789 101.93 396.274 98.9961C400.7 95.9731 405.335 93.7502 407.176 94.4615Z" fill="#ED1C2A"/>
<path opacity="0.1" d="M446.89 165.115C451.524 167.99 447.425 184.676 449.356 185.18C451.316 185.714 460.614 170.243 465.248 172.139C467.506 173.088 470.506 177.83 472.645 182.928C474.754 188.055 476.032 193.508 475.111 195.761C473.18 200.414 455.624 196.116 454.643 197.865C453.633 199.584 468.368 208.446 467.179 213.751C466.734 215.677 462.278 218.286 457.347 220.301C452.415 222.376 447.395 223.68 445.732 222.642C441.127 219.738 445.197 203.081 443.266 202.577C441.335 202.044 432.007 217.515 427.344 215.588C425.086 214.64 422.115 209.898 419.976 204.771C417.838 199.643 416.56 194.19 417.481 191.938C419.412 187.284 436.968 191.582 437.949 189.863C438.959 188.144 424.224 179.282 425.442 174.007C425.858 172.08 430.314 169.442 435.275 167.427C440.177 165.323 445.197 164.048 446.86 165.115H446.89Z" fill="#ED1C2A"/>
</svg>
