<svg width="543" height="480" viewBox="0 0 543 480" fill="none" xmlns="http://www.w3.org/2000/svg">
<g clip-path="url(#clip0_1658_106)">
<path d="M348.923 542.625H247.552C209.612 520.788 186.599 492.126 167.799 459.26C151.819 431.323 143.258 393.468 120.957 372.889C91.8304 345.989 52.7331 354.694 36.3968 390.122C11.5586 443.996 54.2021 507.168 102.083 531.507L124.429 542.64H0V200.562L7.68592 222.858C30.2095 273.209 82.2453 306.682 138.361 293.906C260.268 266.132 212.357 110.964 291.961 45.1863C324.945 17.9308 373.732 10.632 415.485 14.7774C462.743 19.4705 517.509 48.769 543.015 88.9639L542.896 384.985C522.005 437.541 464.138 466.277 408.66 458.312C338.952 448.29 323.491 384.689 357.277 329.141C385.172 283.276 420.975 248.307 423.809 189.755C425.856 147.457 404.49 87.6907 352.87 92.0581C299.899 96.5439 280.64 167.044 272.642 209.963C258.25 287.273 256.781 384.94 290.492 457.276C304.796 487.966 324.752 518.938 348.953 542.64" fill="#500C08"/>
<path d="M240.409 0C225.26 19.6755 215.467 45.7466 211.105 70.1597C203.434 113.034 212.292 161.623 185.451 199.109C162.23 231.546 118.8 226.379 101.039 188.124C80.7261 144.376 102.968 99.7247 128.103 62.2095C141.531 42.1639 155.493 23.2879 162.971 0L240.409 0Z" fill="#500C08"/>
</g>
<defs>
<clipPath id="clip0_1658_106">
<rect width="543" height="480" fill="white"/>
</clipPath>
</defs>
</svg>
