<svg width="631" height="624" viewBox="0 0 631 624" fill="none" xmlns="http://www.w3.org/2000/svg">
<path d="M629.721 138.857C622.287 172.523 615.409 205.825 611.348 240.088C610.952 243.437 611.054 247.427 610.849 250.849L610.057 250.091C606.054 215.144 599.397 180.896 594.382 146.181C591.068 123.262 589.162 100.284 586.493 77.3063C585.115 65.497 583.912 53.9644 582.886 42.0969C581.83 30.0401 580.393 17.9687 579.352 5.94103C579.176 4.00437 579.455 1.95122 579.352 0H551.506C546.066 23.0069 538.778 45.5334 529.027 67.2152L523.352 83.8443L520.581 64.3321C516.813 48.7369 515.859 32.4427 514.027 16.6291C513.381 11.0812 512.765 5.54788 512.179 0H458.599C459.039 5.85367 461.268 11.1249 462.924 16.6436C464.054 20.3713 464.919 24.6087 466.282 28.3073C466.781 29.6469 468.482 31.2487 468.291 32.7339C450.593 69.6179 438.378 109.079 430.049 149.079C423.861 178.755 418.773 210.062 416.441 240.481C416.148 244.209 416.969 248.082 415.767 251.722C415.019 251.722 413.905 238.413 413.714 237.001C408.846 201.733 402.262 167.208 397.775 132.028C392.775 92.7413 388.933 53.2946 385.795 13.8915C385.428 9.27559 384.636 4.63051 384.46 0H359.635C353.565 21.7984 345.969 43.0725 336.716 63.24C336.262 64.2302 336.482 65.9484 335.25 66.4144C335.206 65.7882 335.367 65.0602 335.221 64.4631C333.886 58.9444 333.388 54.9546 332.537 49.5086C329.956 33.0252 327.713 16.5271 325.66 0.0145614H265.041C265.012 1.38333 264.997 2.72297 265.159 4.07718C265.965 10.5279 268.766 18.5075 270.027 25.2494C270.408 27.2589 273.062 31.9185 272.93 33.6513C272.842 34.7871 268.238 43.3055 267.373 45.315C250.407 84.951 240.407 125.621 232.591 167.703C228.207 191.278 224.438 213.004 222.415 236.957C222.004 241.864 221.256 246.815 220.861 251.737C217.591 230.521 215.054 209.159 211.813 187.973C210.303 178.085 208.411 168.373 206.916 158.457C199.452 108.904 194.789 58.7842 190.889 8.60576C190.669 5.75174 190.067 2.86859 190.009 0H152.852C149.89 38.4711 144.625 76.7384 138.745 115.006L136.341 123.626L131.032 109.953C118.378 74.1901 108.803 37.379 102.585 0H68.8155L73.4491 19.4249C74.9301 21.2887 74.2556 23.2691 74.7835 25.1475C75.326 27.0987 77.8481 32.166 77.7015 33.6659C71.3522 45.7809 66.6453 58.6968 62.1436 71.6128C56.6448 87.3973 51.4393 103.735 47.3042 119.913C37.1131 159.753 29.7668 200.83 26.6581 241.806C26.4088 245.082 26.7168 248.446 26.2035 251.722C25.1918 251.78 25.4117 251.882 25.3091 251.067C24.9865 248.329 25.2064 244.893 24.8398 242.272C24.1947 237.641 22.9336 232.647 22.2004 227.696C16.9363 192.035 8.66609 157.35 4.8536 121.485C4.34037 116.593 2.53677 112.006 1.42235 107.259C0.923796 105.133 2.50745 100.677 0 100.08V212.931C0.835815 213.266 1.07043 214.241 1.23173 215.028C6.51056 242.359 11.8187 269.094 13.769 296.921C15.6312 323.553 16.4964 351.773 15.5286 378.45C14.2089 414.897 9.42858 450.863 4.94158 486.976C3.68052 497.183 2.91802 507.318 0.98245 517.423C0.835815 518.166 0.938459 519.054 0 519.316V623.357H95.0044C93.5234 612.64 91.9104 601.996 90.1801 591.337C89.9015 589.604 89.9601 587.493 89.6375 585.702C87.8926 575.64 86.5436 578.29 89.9015 567.82C93.0395 558.05 96.808 548.293 99.77 538.392C112.776 494.897 114.58 450.208 121.941 405.679C122.132 404.485 122.894 394.991 123.613 395.006C124.185 399.302 123.613 403.714 123.818 408.038C125.182 438.253 134.83 474.482 143.027 503.575C150.505 530.092 161.298 555.953 168.571 582.251C170.8 590.303 172.354 598.21 175.433 605.855C176.504 608.505 177.237 611.067 178.117 613.761C179.202 617.038 180.683 619.644 180.653 623.372H289.412L286.699 600.729C286.039 594.002 284.324 587.376 283.253 580.78C282.022 573.15 284.646 570.572 286.949 563.845C300.644 524.034 308.87 482.549 312.932 440.641C314.193 427.565 314.985 414.533 316.979 401.457C317.317 399.302 317.844 397.088 318.475 395.006C318.9 395.006 318.636 401.428 318.695 402.272C320.953 434.86 326.657 466.357 335.866 497.634C340.397 513.011 346.086 528.432 350.984 543.459C358.242 565.796 365.501 588.206 372.73 610.485C374.137 614.81 375.78 619.164 377.51 623.372H484.274C484.846 619.994 483.453 616.994 482.984 613.849C481.386 603.132 479.479 592.371 478.116 581.654C476.899 572.072 479.611 568.941 482.515 560.569C488.131 544.347 494.509 525.17 497.926 508.424C504.745 474.948 506.05 440.525 511.68 407.019C511.944 405.49 512.751 394.773 513.352 394.569C514.364 394.22 513.983 395.559 514.012 396.113C515.229 422.6 518.528 448.767 524.804 474.453C531.197 500.634 541.403 526.481 549.395 552.298C550.494 555.851 550.993 559.651 552.166 563.204C554.454 570.15 558.237 576.703 560.392 583.692C562.518 590.58 563.442 597.715 565.935 604.646C566.287 605.622 567.123 606.422 567.504 607.5C569.308 612.742 570.95 618.071 572.622 623.357H630.777V135.785C630.044 136.163 629.838 138.056 629.662 138.857M76.7191 508.41L71.0443 525.039L68.2729 505.527C64.5044 489.932 63.5513 473.637 61.7037 457.824C60.0907 444.005 58.683 430.201 57.2607 416.382C50.4275 349.575 55.3398 283.83 65.8095 217.663C74.065 184.755 81.7779 151.293 95.3709 120.044C95.4883 119.782 96.5734 116.884 97.2332 117.714C96.6027 121.311 97.9664 124.427 98.4503 127.747C106.647 183.59 113.715 239.083 113.671 295.61C113.612 367.718 106.53 442.01 76.7044 508.424M195.317 521.268L192.912 529.888L187.604 516.215C168.512 462.294 156.4 405.971 152.28 348.948C149.948 316.812 149.655 282.738 151.84 250.63C153.878 220.707 159.377 191.307 165.052 161.922C166.884 152.443 169.509 143.167 171.342 133.79C171.65 132.246 171.474 129.975 171.811 128.3C173.028 129.159 172.75 131.125 173.366 132.712C174.421 135.421 176.577 138.639 177.809 141.536C197.81 188.875 206.945 248.883 210.464 299.993C215.596 374.737 206.578 448.009 195.317 521.282M307.213 355.982C302.77 412.057 289.999 470.245 266.508 521.428C266.053 522.418 266.273 524.136 265.041 524.602C264.997 523.976 265.159 523.248 265.012 522.651C263.678 517.132 263.179 513.142 262.314 507.682C259.073 486.976 256.346 466.255 253.897 445.505C248.281 397.904 245.656 351.73 249.058 303.517C251.962 262.352 258.414 221.318 269.704 181.624C274.675 164.165 279.749 144.9 286.435 128.14C287.784 124.776 290.277 121.922 290.556 118.122C292.33 120.422 291.714 124.005 292.154 126.669C304.779 203.51 313.401 277.54 307.199 355.952M392.921 505.454L389.783 530.762L387.232 527.791C356.732 449.509 343.33 364.762 344.928 280.568C345.852 232.166 352.128 181.129 364.797 134.547C365.325 132.596 365.823 130.324 365.823 128.286C367.114 129.086 366.923 131.169 367.51 132.567C376.777 154.831 383.537 172.159 389.549 195.763C415.048 295.814 408.582 404.456 392.936 505.454M503.44 313.229C502.956 328.126 502.428 343.357 501.225 358.195C498.674 389.575 494.407 420.416 486.093 450.732C479.172 475.996 469.376 500.328 460.813 525.039C459.904 524.631 459.801 522.549 459.611 521.602C455.168 498.377 452.484 474.263 449.229 450.791C441.882 397.933 441.296 341.944 445.27 288.519C449.346 233.593 461.414 181.638 480.667 130.135C482.163 126.131 484.289 122.286 485.447 118.136C486.239 118.966 486.313 120.408 486.503 121.5C487.94 129.887 488.468 138.479 489.788 146.895C491.137 155.53 493.234 164.369 494.495 173.076C496.694 188.337 497.838 203.611 499.451 218.857C500.8 231.671 502.31 243.48 503 256.338C504.011 275.428 504.07 294.169 503.454 313.2M601.553 369.232C601.039 390.113 598.635 410.339 596.699 430.973C593.84 461.348 590.232 491.49 586.391 521.69C586.244 522.782 585.159 529.902 584.44 529.888C578.003 517.86 574.264 504.682 570.026 491.752C561.991 467.23 555.539 444.063 551.022 418.479C543.925 378.246 540.406 338.435 539.805 297.328C539.644 286.233 539.497 274.918 540.274 263.852C543.251 221.813 548.764 179.833 558.691 138.872C559.131 137.066 560.319 134.853 560.583 133.266C560.832 131.795 560.51 130.324 560.686 128.955C560.788 128.155 560.539 128.242 561.565 128.3C561.727 133.353 565.07 137.998 566.976 142.556C577.812 168.475 584.587 193.637 589.866 221.216C599.192 270.011 602.77 319.52 601.538 369.232" fill="#0B391B"/>
</svg>
