<svg width="1920" height="500" viewBox="0 0 1920 500" fill="none" xmlns="http://www.w3.org/2000/svg">
<g clip-path="url(#clip0_7039_25640)">
<path d="M2705 1611H-784V531H-163.187C-183.29 620.008 -189.904 712.049 -185.876 802.323C-177.027 1000.09 6.22767 1394.17 549.637 1540.76C862.916 1625.23 1400.39 1610.24 1627.28 1490.73C1962.45 1314.21 2120.2 860.077 2012.75 531H2705V1611ZM273.972 0C262.175 41.7945 235.878 147.475 295.561 216.644C377.196 311.269 501.069 313.656 619.235 272.394C806.646 206.966 903.274 51.6592 1157.96 13.0127L1161.02 12.5645C1410.24 -24.1532 1814.48 3.99918 2003.63 505.07C2006.86 513.62 2009.89 522.267 2012.75 531H-163.187C-113.636 311.614 17.8678 110.653 273.972 0Z" fill="#F2E3C2"/>
</g>
<defs>
<clipPath id="clip0_7039_25640">
<rect width="1920" height="500" fill="white"/>
</clipPath>
</defs>
</svg>
