<svg width="1920" height="1080" viewBox="0 0 1920 1080" fill="none" xmlns="http://www.w3.org/2000/svg">
<g clip-path="url(#clip0_7041_25650)">
<rect width="1920" height="1080" fill="#FC1013"/>
<path d="M1192.97 723.38C1396.7 688.531 1695.92 679.47 1920 919.353V1080H0V881.145C64.9712 814.265 145.832 756.186 244.93 710.656C233.545 755.257 196.844 845.932 264.887 919.866C354.896 1017.37 492.723 1033.58 618.495 990.584C825.562 919.875 920.329 771.025 1189.8 723.797L1192.97 723.38Z" fill="#930000"/>
<path d="M1920 186.343C1847.93 278.042 1750.78 357.017 1623.6 415.355C1634.98 370.829 1671.68 280.306 1603.64 206.497C1513.63 109.155 1375.8 92.976 1250.03 135.897C1042.97 206.488 948.198 355.087 678.731 402.235L675.554 402.652C487.065 434.841 216.834 444.99 0 256.669V0H1920V186.343Z" fill="#930000"/>
</g>
<defs>
<clipPath id="clip0_7041_25650">
<rect width="1920" height="1080" fill="white"/>
</clipPath>
</defs>
</svg>
