<svg width="31" height="31" viewBox="0 0 31 31" fill="none" xmlns="http://www.w3.org/2000/svg">
<path d="M20.1084 3.76562C21.7752 3.76562 23.3738 4.42777 24.5524 5.60639C25.731 6.785 26.3932 8.38355 26.3932 10.0504V20.106C26.3932 21.7728 25.731 23.3713 24.5524 24.55C23.3738 25.7286 21.7752 26.3907 20.1084 26.3907H10.0528C8.386 26.3907 6.78745 25.7286 5.60883 24.55C4.43021 23.3713 3.76807 21.7728 3.76807 20.106V10.0504C3.76807 8.38355 4.43021 6.785 5.60883 5.60639C6.78745 4.42777 8.386 3.76563 10.0528 3.76562L20.1084 3.76562ZM15.0806 10.0504C13.7472 10.0504 12.4683 10.5801 11.5254 11.523C10.5825 12.4659 10.0528 13.7447 10.0528 15.0782C10.0528 16.4116 10.5825 17.6905 11.5254 18.6334C12.4683 19.5763 13.7472 20.106 15.0806 20.106C16.4141 20.106 17.6929 19.5763 18.6358 18.6334C19.5787 17.6905 20.1084 16.4116 20.1084 15.0782C20.1084 13.7447 19.5787 12.4659 18.6358 11.523C17.6929 10.5801 16.4141 10.0504 15.0806 10.0504ZM15.0806 12.5643C15.7473 12.5643 16.3868 12.8291 16.8582 13.3006C17.3297 13.772 17.5945 14.4114 17.5945 15.0782C17.5945 15.7449 17.3297 16.3843 16.8582 16.8558C16.3868 17.3272 15.7473 17.5921 15.0806 17.5921C14.4139 17.5921 13.7745 17.3272 13.303 16.8558C12.8316 16.3843 12.5667 15.7449 12.5667 15.0782C12.5667 14.4114 12.8316 13.772 13.303 13.3006C13.7745 12.8291 14.4139 12.5643 15.0806 12.5643ZM20.7369 8.16495C20.4035 8.16495 20.0838 8.29738 19.8481 8.5331C19.6124 8.76882 19.4799 9.08853 19.4799 9.4219C19.4799 9.75526 19.6124 10.075 19.8481 10.3107C20.0838 10.5464 20.4035 10.6788 20.7369 10.6788C21.0703 10.6788 21.39 10.5464 21.6257 10.3107C21.8614 10.075 21.9938 9.75526 21.9938 9.4219C21.9938 9.08853 21.8614 8.76882 21.6257 8.5331C21.39 8.29738 21.0703 8.16495 20.7369 8.16495Z" fill="#FBF7E9"/>
</svg>
