<svg width="29" height="29" viewBox="0 0 29 29" fill="none" xmlns="http://www.w3.org/2000/svg">
<path fill-rule="evenodd" clip-rule="evenodd" d="M14.369 4.79492C15.3928 4.79492 16.443 4.82126 17.4607 4.86437L18.6629 4.92185L19.8136 4.9901L20.8913 5.06314L21.8756 5.13977C22.9439 5.22107 23.9492 5.67673 24.7146 6.42651C25.4799 7.17628 25.9561 8.17207 26.0593 9.23848L26.1072 9.74738L26.197 10.837C26.2808 11.9662 26.3431 13.1971 26.3431 14.3741C26.3431 15.5512 26.2808 16.7821 26.197 17.9113L26.1072 19.0009L26.0593 19.5098C25.956 20.5764 25.4797 21.5723 24.7141 22.3221C23.9485 23.0719 22.9429 23.5275 21.8744 23.6085L20.8925 23.684L19.8148 23.7582L18.6629 23.8264L17.4607 23.8839C16.4308 23.9285 15.4 23.9517 14.369 23.9534C13.3381 23.9517 12.3073 23.9285 11.2774 23.8839L10.0752 23.8264L8.92446 23.7582L7.8468 23.684L6.86253 23.6085C5.79422 23.5272 4.78887 23.0716 4.02354 22.3218C3.25821 21.572 2.78201 20.5762 2.6788 19.5098L2.63091 19.0009L2.5411 17.9113C2.4499 16.7344 2.40117 15.5546 2.39502 14.3741C2.39502 13.1971 2.45728 11.9662 2.5411 10.837L2.63091 9.74738L2.6788 9.23848C2.78197 8.17226 3.258 7.17662 4.02308 6.42687C4.78817 5.67712 5.79324 5.22134 6.86133 5.13977L7.8444 5.06314L8.92206 4.9901L10.074 4.92185L11.2762 4.86437C12.3065 4.81974 13.3377 4.79659 14.369 4.79492ZM11.9742 11.4704V17.2778C11.9742 17.831 12.5729 18.1759 13.0519 17.9005L18.081 14.9968C18.1904 14.9338 18.2813 14.8431 18.3445 14.7338C18.4077 14.6245 18.441 14.5004 18.441 14.3741C18.441 14.2479 18.4077 14.1238 18.3445 14.0145C18.2813 13.9052 18.1904 13.8145 18.081 13.7515L13.0519 10.849C12.9427 10.7859 12.8187 10.7527 12.6926 10.7527C12.5664 10.7528 12.4425 10.786 12.3333 10.8491C12.224 10.9122 12.1333 11.003 12.0703 11.1123C12.0073 11.2215 11.9742 11.3455 11.9742 11.4716V11.4704Z" fill="#FBF7E9"/>
</svg>
