<svg width="48" height="48" viewBox="0 0 48 48" fill="none" xmlns="http://www.w3.org/2000/svg">
<path d="M30.493 9.5C29.931 9.5 29.4583 9.306 29.075 8.918C28.6917 8.53 28.5 8.055 28.5 7.493C28.5 6.931 28.694 6.45833 29.082 6.075C29.47 5.69167 29.945 5.5 30.507 5.5C31.069 5.5 31.5417 5.694 31.925 6.082C32.3083 6.47 32.5 6.945 32.5 7.507C32.5 8.069 32.306 8.54167 31.918 8.925C31.53 9.30833 31.055 9.5 30.493 9.5ZM30.493 42.5C29.931 42.5 29.4583 42.306 29.075 41.918C28.6917 41.53 28.5 41.055 28.5 40.493C28.5 39.931 28.694 39.4583 29.082 39.075C29.47 38.6917 29.945 38.5 30.507 38.5C31.069 38.5 31.5417 38.694 31.925 39.082C32.3083 39.47 32.5 39.945 32.5 40.507C32.5 41.069 32.306 41.5417 31.918 41.925C31.53 42.3083 31.055 42.5 30.493 42.5ZM38.493 16.5C37.931 16.5 37.4583 16.306 37.075 15.918C36.6917 15.53 36.5 15.055 36.5 14.493C36.5 13.931 36.694 13.4583 37.082 13.075C37.47 12.6917 37.945 12.5 38.507 12.5C39.069 12.5 39.5417 12.694 39.925 13.082C40.3083 13.47 40.5 13.945 40.5 14.507C40.5 15.069 40.306 15.5417 39.918 15.925C39.53 16.3083 39.055 16.5 38.493 16.5ZM38.493 35.5C37.931 35.5 37.4583 35.306 37.075 34.918C36.6917 34.53 36.5 34.055 36.5 33.493C36.5 32.931 36.694 32.4583 37.082 32.075C37.47 31.6917 37.945 31.5 38.507 31.5C39.069 31.5 39.5417 31.694 39.925 32.082C40.3083 32.47 40.5 32.945 40.5 33.507C40.5 34.069 40.306 34.5417 39.918 34.925C39.53 35.3083 39.055 35.5 38.493 35.5ZM41.493 26C40.931 26 40.4583 25.806 40.075 25.418C39.6917 25.03 39.5 24.555 39.5 23.993C39.5 23.431 39.694 22.9583 40.082 22.575C40.47 22.1917 40.945 22 41.507 22C42.069 22 42.5417 22.194 42.925 22.582C43.3083 22.97 43.5 23.445 43.5 24.007C43.5 24.569 43.306 25.0417 42.918 25.425C42.53 25.8083 42.055 26 41.493 26ZM24 44C21.2333 44 18.6333 43.475 16.2 42.425C13.7667 41.375 11.65 39.95 9.85 38.15C8.05 36.35 6.625 34.2333 5.575 31.8C4.525 29.3667 4 26.7667 4 24C4 21.2333 4.525 18.6333 5.575 16.2C6.625 13.7667 8.05 11.65 9.85 9.85C11.65 8.05 13.7667 6.625 16.2 5.575C18.6333 4.525 21.2333 4 24 4V7C19.2667 7 15.25 8.64683 11.95 11.9405C8.65 15.2342 7 19.254 7 24C7 28.7457 8.64683 32.7655 11.9405 36.0595C15.2345 39.3532 19.2543 41 24 41V44ZM23.9955 27.5C23.0318 27.5 22.2083 27.1573 21.525 26.472C20.8417 25.7863 20.5 24.9623 20.5 24C20.5 23.802 20.5167 23.5942 20.55 23.3765C20.5833 23.1588 20.6333 22.9695 20.7 22.8085L16.7 18.8L18.8 16.7L22.85 20.7C23.0167 20.6333 23.4 20.5667 24 20.5C24.9627 20.5 25.7867 20.8432 26.472 21.5295C27.1573 22.2158 27.5 23.0408 27.5 24.0045C27.5 24.9682 27.1568 25.7917 26.4705 26.475C25.7842 27.1583 24.9592 27.5 23.9955 27.5Z" fill="#1C1B1F"/>
</svg>
