<svg width="48" height="48" viewBox="0 0 48 48" fill="none" xmlns="http://www.w3.org/2000/svg">
<path d="M5 36C4.2 36 3.5 35.7 2.9 35.1C2.3 34.5 2 33.8 2 33V7C2 6.2 2.3 5.5 2.9 4.9C3.5 4.3 4.2 4 5 4H19.05L22.05 7H39C39.8 7 40.5 7.3 41.1 7.9C41.7 8.5 42 9.2 42 10V19.7C41.5333 19.4333 41.05 19.25 40.55 19.15C40.05 19.05 39.5333 19 39 19V10H20.8L17.8 7H5V33H23V36H5ZM26 40V33.85L37.05 22.85C37.35 22.55 37.6833 22.3333 38.05 22.2C38.4167 22.0667 38.7833 22 39.15 22C39.55 22 39.9333 22.075 40.3 22.225C40.6667 22.375 41 22.6 41.3 22.9L43.15 24.75C43.45 25.05 43.6667 25.3833 43.8 25.75C43.9333 26.1167 44 26.4833 44 26.85C44 27.2167 43.925 27.5917 43.775 27.975C43.625 28.3583 43.4015 28.7 43.1045 29L32.15 40H26ZM29 37H30.9L36.95 30.9L36.05 29.95L35.1 29.05L29 35.1V37ZM36.05 29.95L35.1 29.05L36.95 30.9L36.05 29.95Z" fill="#1C1B1F"/>
</svg>
