<svg width="48" height="48" viewBox="0 0 48 48" fill="none" xmlns="http://www.w3.org/2000/svg">
<path d="M24 29.2C22.5 29.2 21.2583 28.7083 20.275 27.725C19.2917 26.7417 18.8 25.5 18.8 24C18.8 22.5 19.2917 21.2583 20.275 20.275C21.2583 19.2917 22.5 18.8 24 18.8C25.5 18.8 26.7417 19.2917 27.725 20.275C28.7083 21.2583 29.2 22.5 29.2 24C29.2 25.5 28.7083 26.7417 27.725 27.725C26.7417 28.7083 25.5 29.2 24 29.2ZM24 26.2C24.6 26.2 25.1167 25.9833 25.55 25.55C25.9833 25.1167 26.2 24.6 26.2 24C26.2 23.4 25.9833 22.8833 25.55 22.45C25.1167 22.0167 24.6 21.8 24 21.8C23.4 21.8 22.8833 22.0167 22.45 22.45C22.0167 22.8833 21.8 23.4 21.8 24C21.8 24.6 22.0167 25.1167 22.45 25.55C22.8833 25.9833 23.4 26.2 24 26.2ZM9 42C8.2 42 7.5 41.7 6.9 41.1C6.3 40.5 6 39.8 6 39V30.4H9V39H17.6V42H9ZM30.4 42V39H39V30.4H42V39C42 39.8 41.7 40.5 41.1 41.1C40.5 41.7 39.8 42 39 42H30.4ZM6 17.6V9C6 8.2 6.3 7.5 6.9 6.9C7.5 6.3 8.2 6 9 6H17.6V9H9V17.6H6ZM39 17.6V9H30.4V6H39C39.8 6 40.5 6.3 41.1 6.9C41.7 7.5 42 8.2 42 9V17.6H39Z" fill="#1C1B1F"/>
</svg>
