<svg width="48" height="48" viewBox="0 0 48 48" fill="none" xmlns="http://www.w3.org/2000/svg">
<path d="M30 27.85C28.3 27.85 26.8917 27.2917 25.775 26.175C24.6583 25.0583 24.1 23.65 24.1 21.95C24.1 20.25 24.6583 18.8417 25.775 17.725C26.8917 16.6083 28.3 16.05 30 16.05C31.7 16.05 33.1083 16.6083 34.225 17.725C35.3417 18.8417 35.9 20.25 35.9 21.95C35.9 23.65 35.3417 25.0583 34.225 26.175C33.1083 27.2917 31.7 27.85 30 27.85ZM18 40V36.7C18 36.0713 18.15 35.4725 18.45 34.9035C18.75 34.3345 19.15 33.9333 19.65 33.7C21.15 32.6333 22.7917 31.8417 24.575 31.325C26.3583 30.8083 28.1667 30.55 30 30.55C31.8333 30.55 33.6333 30.8333 35.4 31.4C37.1667 31.9667 38.8167 32.7333 40.35 33.7C40.8167 34.0333 41.2083 34.4583 41.525 34.975C41.8417 35.4917 42 36.0667 42 36.7V40H18ZM20.75 36.45V37H39.25V36.45C37.95 35.5833 36.45 34.8833 34.75 34.35C33.05 33.8167 31.4667 33.55 30 33.55C28.5333 33.55 26.9417 33.8167 25.225 34.35C23.5083 34.8833 22.0167 35.5833 20.75 36.45ZM30 24.85C30.8667 24.85 31.5667 24.5833 32.1 24.05C32.6333 23.5167 32.9 22.8167 32.9 21.95C32.9 21.0833 32.6333 20.3833 32.1 19.85C31.5667 19.3167 30.8667 19.05 30 19.05C29.1333 19.05 28.4333 19.3167 27.9 19.85C27.3667 20.3833 27.1 21.0833 27.1 21.95C27.1 22.8167 27.3667 23.5167 27.9 24.05C28.4333 24.5833 29.1333 24.85 30 24.85ZM4 27.5V24.5H19.3V27.5H4ZM4 11V8H27.65V11H4ZM21.45 19.25H4V16.25H23C22.6333 16.6833 22.3212 17.1487 22.0635 17.646C21.8062 18.1433 21.6017 18.678 21.45 19.25Z" fill="#1C1B1F"/>
</svg>
