<svg width="48" height="48" viewBox="0 0 48 48" fill="none" xmlns="http://www.w3.org/2000/svg">
<g clip-path="url(#clip0_3246_5305)">
<mask id="mask0_3246_5305" style="mask-type:alpha" maskUnits="userSpaceOnUse" x="0" y="0" width="48" height="48">
<rect width="48" height="48" fill="#D9D9D9"/>
</mask>
<g mask="url(#mask0_3246_5305)">
<mask id="mask1_3246_5305" style="mask-type:alpha" maskUnits="userSpaceOnUse" x="0" y="0" width="48" height="48">
<rect width="48" height="48" fill="#D9D9D9"/>
</mask>
<g mask="url(#mask1_3246_5305)">
<path d="M34.544 34.5C35.4067 34.5 36.14 34.1833 36.744 33.55C37.348 32.9166 37.65 32.1686 37.65 31.306C37.65 30.4433 37.348 29.71 36.744 29.106C36.14 28.502 35.4067 28.2 34.544 28.2C33.6813 28.2 32.9333 28.502 32.3 29.106C31.6667 29.71 31.35 30.4433 31.35 31.306C31.35 32.1686 31.6667 32.9166 32.3 33.55C32.9333 34.1833 33.6813 34.5 34.544 34.5ZM34.475 40.75C35.5917 40.75 36.6 40.5166 37.5 40.05C38.4 39.5833 39.1667 38.9166 39.8 38.05C38.9333 37.5833 38.0673 37.2333 37.202 37C36.3367 36.7666 35.4367 36.65 34.502 36.65C33.5673 36.65 32.6583 36.7666 31.775 37C30.8917 37.2333 30.0333 37.5833 29.2 38.05C29.8333 38.9166 30.5917 39.5833 31.475 40.05C32.3583 40.5166 33.3583 40.75 34.475 40.75ZM24 44C19.4 42.9333 15.5833 40.325 12.55 36.175C9.51667 32.025 8 27.2666 8 21.9V9.94995L24 3.94995L40 9.94995V23.45C39.5333 23.2166 39.0333 23.0083 38.5 22.825C37.9667 22.6416 37.4667 22.5166 37 22.45V12.05L24 7.24995L11 12.05V21.9C11 24.4333 11.4083 26.7666 12.225 28.9C13.0417 31.0333 14.0833 32.9083 15.35 34.525C16.6167 36.1416 18.0167 37.4833 19.55 38.55C21.0833 39.6166 22.5667 40.3833 24 40.85C24.2 41.25 24.5 41.7 24.9 42.2C25.3 42.7 25.6333 43.0833 25.9 43.35C25.6 43.5166 25.2833 43.6416 24.95 43.725C24.6167 43.8083 24.3 43.9 24 44ZM34.625 44C32.0417 44 29.8333 43.075 28 41.225C26.1667 39.375 25.25 37.1833 25.25 34.65C25.25 32.0356 26.1665 29.807 27.9995 27.964C29.8325 26.1213 32.0493 25.2 34.65 25.2C37.2167 25.2 39.425 26.1213 41.275 27.964C43.125 29.807 44.05 32.0356 44.05 34.65C44.05 37.1833 43.125 39.375 41.275 41.225C39.425 43.075 37.2083 44 34.625 44Z" fill="#1C1B1F"/>
</g>
</g>
</g>
<defs>
<clipPath id="clip0_3246_5305">
<rect width="48" height="48" fill="white"/>
</clipPath>
</defs>
</svg>
