<svg width="48" height="48" viewBox="0 0 48 48" fill="none" xmlns="http://www.w3.org/2000/svg">
<path d="M11.65 42L4 34.35L11.65 26.7L14.1 29.15L10.65 32.6H36.65L33.2 29.15L35.65 26.7L43.3 34.35L35.65 42L33.2 39.55L36.65 36.1H10.65L14.1 39.55L11.65 42ZM4.6 21.25V20.6C4.6 19.8973 4.79017 19.2532 5.1705 18.6675C5.55083 18.0818 6.07733 17.6427 6.75 17.35C7.586 16.9993 8.446 16.7283 9.33 16.537C10.2143 16.3457 11.1387 16.25 12.103 16.25C13.0677 16.25 13.9913 16.3457 14.874 16.537C15.7567 16.7283 16.6153 16.9993 17.45 17.35C18.1227 17.6427 18.6492 18.0818 19.0295 18.6675C19.4098 19.2532 19.6 19.8973 19.6 20.6V21.25H4.6ZM27.7 21.25V20.6C27.7 19.8973 27.8902 19.2532 28.2705 18.6675C28.6508 18.0818 29.1773 17.6427 29.85 17.35C30.686 16.9993 31.546 16.7283 32.43 16.537C33.3143 16.3457 34.2387 16.25 35.203 16.25C36.1677 16.25 37.0913 16.3457 37.974 16.537C38.8567 16.7283 39.7153 16.9993 40.55 17.35C41.2227 17.6427 41.7492 18.0818 42.1295 18.6675C42.5098 19.2532 42.7 19.8973 42.7 20.6V21.25H27.7ZM12.098 13.5C11.066 13.5 10.1833 13.1327 9.45 12.398C8.71667 11.663 8.35 10.7797 8.35 9.748C8.35 8.716 8.71733 7.83333 9.452 7.1C10.187 6.36667 11.0703 6 12.102 6C13.134 6 14.0167 6.36733 14.75 7.102C15.4833 7.837 15.85 8.72033 15.85 9.752C15.85 10.784 15.4827 11.6667 14.748 12.4C14.013 13.1333 13.1297 13.5 12.098 13.5ZM35.198 13.5C34.166 13.5 33.2833 13.1327 32.55 12.398C31.8167 11.663 31.45 10.7797 31.45 9.748C31.45 8.716 31.8173 7.83333 32.552 7.1C33.287 6.36667 34.1703 6 35.202 6C36.234 6 37.1167 6.36733 37.85 7.102C38.5833 7.837 38.95 8.72033 38.95 9.752C38.95 10.784 38.5827 11.6667 37.848 12.4C37.113 13.1333 36.2297 13.5 35.198 13.5Z" fill="#1C1B1F"/>
</svg>
