<svg width="48" height="48" viewBox="0 0 48 48" fill="none" xmlns="http://www.w3.org/2000/svg">
<path d="M33.75 29.5892L30.35 27.6392L36.6 22.9892L40 24.9392L33.75 29.5892ZM23.9 24.6392L30.4 19.8392L14.65 10.9392L10.9 17.2892L23.9 24.6392ZM6 39.9892V36.9892H16.5V23.8892L9.4 19.8892C8.66433 19.4572 8.18883 18.8409 7.9735 18.0402C7.75783 17.2395 7.86667 16.4725 8.3 15.7392L12.05 9.48919C12.4833 8.78919 13.0917 8.33086 13.875 8.11419C14.6583 7.89752 15.4 7.98919 16.1 8.38919L35.85 19.5392L24.1 28.1892L19.5 25.5892V36.9892C19.5 37.8142 19.2063 38.5204 18.619 39.1077C18.0313 39.6954 17.325 39.9892 16.5 39.9892H6Z" fill="#1C1B1F"/>
</svg>
