<svg width="48" height="48" viewBox="0 0 48 48" fill="none" xmlns="http://www.w3.org/2000/svg">
<path d="M18 21H9C8.2 21 7.5 20.7 6.9 20.1C6.3 19.5 6 18.8 6 18V9C6 8.2 6.3 7.5 6.9 6.9C7.5 6.3 8.2 6 9 6H18C18.8 6 19.5 6.3 20.1 6.9C20.7 7.5 21 8.2 21 9V18C21 18.8 20.7 19.5 20.1 20.1C19.5 20.7 18.8 21 18 21ZM9 18H18V9H9V18ZM18 42H9C8.2 42 7.5 41.7 6.9 41.1C6.3 40.5 6 39.8 6 39V30C6 29.2 6.3 28.5 6.9 27.9C7.5 27.3 8.2 27 9 27H18C18.8 27 19.5 27.3 20.1 27.9C20.7 28.5 21 29.2 21 30V39C21 39.8 20.7 40.5 20.1 41.1C19.5 41.7 18.8 42 18 42ZM9 39H18V30H9V39ZM39 21H30C29.2 21 28.5 20.7 27.9 20.1C27.3 19.5 27 18.8 27 18V9C27 8.2 27.3 7.5 27.9 6.9C28.5 6.3 29.2 6 30 6H39C39.8 6 40.5 6.3 41.1 6.9C41.7 7.5 42 8.2 42 9V18C42 18.8 41.7 19.5 41.1 20.1C40.5 20.7 39.8 21 39 21ZM30 18H39V9H30V18ZM39 42H30C29.2 42 28.5 41.7 27.9 41.1C27.3 40.5 27 39.8 27 39V30C27 29.2 27.3 28.5 27.9 27.9C28.5 27.3 29.2 27 30 27H39C39.8 27 40.5 27.3 41.1 27.9C41.7 28.5 42 29.2 42 30V39C42 39.8 41.7 40.5 41.1 41.1C40.5 41.7 39.8 42 39 42ZM30 39H39V30H30V39Z" fill="#1C1B1F"/>
</svg>
