<svg width="388" height="238" viewBox="0 0 388 238" fill="none" xmlns="http://www.w3.org/2000/svg">
<path d="M348.924 113.547L348.988 113.729C349.104 114.075 349.346 114.912 349.43 116.053C349.595 118.26 349.189 121.606 346.183 124.733C341.555 129.541 336.889 128.166 336.088 127.883C336.007 127.858 335.965 127.837 335.965 127.837C335.965 127.837 335.288 135.589 328.065 137.038C320.54 138.554 316.877 134.328 316.877 134.328C316.877 134.328 312.669 139.726 306.81 138.527C303.981 137.952 301.818 136.417 300.337 134.986C298.741 133.445 297.936 132.018 297.936 132.018C297.936 132.018 295.539 132.661 292.537 132.293C292.78 130.911 292.828 129.315 292.488 127.543C291.65 123.168 286.306 120.126 286.306 120.126C286.306 120.126 287.333 118.147 287.218 115.291C287.189 114.503 287.069 113.649 286.821 112.752C286.526 111.696 286.054 110.581 285.318 109.439C285.265 109.358 285.212 109.277 285.158 109.195C283.255 106.365 279.887 105.203 276.966 104.752C276.21 106.364 275.378 107.266 275.378 107.266C275.378 107.266 278.972 111.876 278.303 117.465C278.2 118.348 278.01 119.14 277.757 119.85C275.687 125.68 269.291 126.123 269.291 126.123L269.355 126.304C269.471 126.651 269.712 127.488 269.797 128.628C269.967 130.836 269.561 134.182 266.549 137.309C261.922 142.117 257.255 140.742 256.454 140.459C256.374 140.433 256.331 140.418 256.331 140.418C256.331 140.418 255.655 148.164 248.431 149.618C240.906 151.134 237.248 146.909 237.248 146.909C237.248 146.909 233.04 152.307 227.181 151.108C224.352 150.533 222.189 148.998 220.709 147.562C219.113 146.022 218.308 144.595 218.308 144.595C218.308 144.595 215.999 145.214 213.076 144.887C213.336 143.483 213.394 141.854 213.045 140.036C212.208 135.661 206.863 132.625 206.863 132.625C206.863 132.625 207.897 130.627 207.775 127.75C207.747 127.135 207.669 126.478 207.516 125.792C207.228 124.505 206.676 123.112 205.72 121.694C205.674 121.629 205.629 121.563 205.578 121.497C203.655 118.812 200.375 117.691 197.528 117.251C196.771 118.863 195.94 119.765 195.94 119.765C195.94 119.765 199.534 124.375 198.865 129.964C198.754 130.9 198.549 131.735 198.271 132.48C196.149 138.185 189.852 138.622 189.852 138.622L189.917 138.803C190.033 139.15 190.274 139.986 190.359 141.122C190.529 143.33 190.123 146.676 187.112 149.803C182.484 154.611 177.818 153.236 177.017 152.953C176.936 152.927 176.893 152.912 176.893 152.912C176.893 152.912 176.217 160.658 168.994 162.112C161.468 163.628 157.805 159.403 157.805 159.403C157.805 159.403 153.598 164.801 147.738 163.602C144.91 163.026 142.747 161.492 141.266 160.056C139.671 158.515 138.865 157.088 138.865 157.088C138.865 157.088 136.468 157.73 133.462 157.362C133.703 155.985 133.751 154.389 133.412 152.612C132.575 148.237 127.23 145.195 127.23 145.195C127.23 145.195 128.257 143.216 128.142 140.36C128.113 139.572 127.993 138.718 127.741 137.815C127.451 136.76 126.974 135.644 126.243 134.508C126.189 134.427 126.136 134.346 126.083 134.264C124.18 131.434 120.811 130.272 117.891 129.821C117.134 131.433 116.302 132.335 116.302 132.335C116.302 132.335 119.897 136.945 119.228 142.534C119.125 143.417 118.935 144.209 118.682 144.919C116.612 150.749 110.215 151.192 110.215 151.192L110.279 151.373C110.395 151.72 110.637 152.557 110.722 153.692C110.892 155.9 110.486 159.246 107.474 162.373C102.847 167.181 98.1803 165.806 97.3794 165.523C97.2984 165.497 97.2559 165.482 97.2559 165.482C97.2559 165.482 96.5789 173.233 89.3562 174.682C81.8308 176.198 78.168 171.973 78.168 171.973C78.168 171.973 73.9603 177.371 68.1002 176.177C65.2716 175.601 63.1085 174.067 61.623 172.63C60.0277 171.089 59.222 169.662 59.222 169.662C59.222 169.662 52.4503 171.479 47.4048 167.256C44.951 165.203 44.0163 162.989 43.701 161.255C43.3741 159.425 43.7323 158.138 43.7323 158.138L43.3758 158.163C41.9649 158.226 36.7744 158.114 34.1348 153.29C31.0631 147.676 35.2813 140.81 35.2813 140.81C35.1521 140.738 29.4105 137.479 29.1458 130.954C29.139 130.825 29.1376 130.692 29.1399 130.569C29.4558 132.299 30.3912 134.508 32.8409 136.555C37.8863 140.778 44.658 138.962 44.658 138.962C44.658 138.962 45.444 140.351 46.9981 141.866C48.4816 143.318 50.6699 144.885 53.532 145.47C59.3915 146.669 63.5998 141.266 63.5998 141.266C63.5998 141.266 67.2626 145.492 74.788 143.976C82.0114 142.522 82.6877 134.775 82.6877 134.775C82.6877 134.775 82.7296 134.796 82.8112 134.817C83.6115 135.104 88.2785 136.475 92.9062 131.667C95.9527 128.501 96.3359 125.107 96.1507 122.902C96.0599 121.805 95.8284 121.004 95.7168 120.663L95.6525 120.482C95.6525 120.482 102.044 120.038 104.119 114.209C104.372 113.499 104.563 112.702 104.665 111.823C105.334 106.235 101.74 101.624 101.74 101.624C101.74 101.624 102.571 100.728 103.327 99.1157C106.248 99.566 109.622 100.725 111.519 103.559C111.573 103.64 111.626 103.721 111.679 103.803C112.411 104.943 112.887 106.054 113.178 107.11C113.43 108.012 113.545 108.866 113.579 109.655C113.694 112.511 112.667 114.49 112.667 114.49C112.667 114.49 118.011 117.531 118.85 121.901C119.189 123.679 119.141 125.274 118.899 126.651C121.901 127.019 124.297 126.377 124.297 126.377C124.297 126.377 125.083 127.767 126.637 129.282C128.121 130.733 130.309 132.301 133.171 132.886C139.031 134.085 143.239 128.682 143.239 128.682C143.239 128.682 146.902 132.907 154.427 131.391C161.651 129.938 162.327 122.191 162.327 122.191C162.327 122.191 162.369 122.211 162.451 122.232C163.251 122.52 167.913 123.89 172.546 119.082C175.592 115.916 175.97 112.521 175.785 110.317C175.694 109.224 175.463 108.418 175.351 108.078L175.287 107.896C175.287 107.896 181.588 107.46 183.705 101.755C183.983 101.009 184.189 100.174 184.3 99.2379C184.964 93.649 181.374 89.0391 181.374 89.0391C181.374 89.0391 182.205 88.1424 182.962 86.5256C185.81 86.9658 189.095 88.0825 191.018 90.7675C191.069 90.8336 191.115 90.899 191.159 90.9693C192.115 92.3923 192.667 93.7846 192.96 95.0722C193.113 95.7589 193.191 96.4106 193.22 97.0259C193.346 99.9031 192.307 101.9 192.307 101.9C192.307 101.9 197.651 104.942 198.49 109.312C198.838 111.13 198.78 112.759 198.52 114.163C201.444 114.485 203.752 113.87 203.752 113.87C203.752 113.87 204.538 115.26 206.092 116.775C207.575 118.226 209.764 119.794 212.626 120.379C218.485 121.578 222.693 116.18 222.693 116.18C222.693 116.18 226.356 120.406 233.881 118.89C241.105 117.436 241.781 109.689 241.781 109.689C241.781 109.689 241.823 109.71 241.904 109.731C242.705 110.018 247.367 111.388 251.999 106.58C255.046 103.414 255.428 100.025 255.244 97.8155C255.152 96.7232 254.922 95.9174 254.81 95.5766L254.746 95.3952C254.746 95.3952 261.137 94.9514 263.212 89.1223C263.47 88.4132 263.655 87.6201 263.763 86.7375C264.427 81.1486 260.838 76.5387 260.838 76.5387C260.838 76.5387 261.669 75.642 262.425 74.0301C265.346 74.4804 268.714 75.643 270.617 78.4732C270.671 78.5544 270.724 78.6357 270.777 78.717C271.508 79.8577 271.985 80.9733 272.276 82.0241C272.528 82.9265 272.643 83.7805 272.677 84.5692C272.792 87.4249 271.765 89.4041 271.765 89.4041C271.765 89.4041 277.109 92.4454 277.947 96.8205C278.286 98.5977 278.238 100.194 277.996 101.571C280.998 101.938 283.395 101.296 283.395 101.296C283.395 101.296 284.181 102.686 285.735 104.201C287.223 105.653 289.407 107.22 292.269 107.805C298.128 109.004 302.336 103.606 302.336 103.606C302.336 103.606 305.999 107.831 313.524 106.315C320.747 104.862 321.424 97.1147 321.424 97.1147C321.424 97.1147 321.466 97.1352 321.547 97.1563C322.343 97.4382 327.01 98.8135 331.642 94.0062C334.689 90.8399 335.071 87.4508 334.887 85.2412C334.795 84.1488 334.564 83.343 334.453 83.0023L334.389 82.8209C334.389 82.8209 342.442 82.265 343.401 74.1625C344.065 68.5736 340.476 63.9637 340.476 63.9637C340.476 63.9637 341.307 63.0671 342.064 61.4502C344.985 61.9006 348.353 63.0632 350.256 65.8933C354.103 71.6135 351.403 76.8292 351.403 76.8292C351.403 76.8292 356.747 79.8705 357.586 84.2407C358.229 87.6177 357.482 90.3404 356.631 92.1614C355.875 93.7734 355.044 94.6701 355.044 94.6701C355.044 94.6701 358.638 99.2806 357.969 104.869C357.005 112.971 348.957 113.527 348.957 113.527M387.139 166.33C387.803 160.741 384.208 156.131 384.208 156.131C384.208 156.131 385.05 155.226 385.804 153.599C386.649 151.782 387.391 149.063 386.75 145.702C385.912 141.326 380.568 138.285 380.568 138.285C380.568 138.285 383.273 133.075 379.421 127.349C377.502 124.492 374.083 123.338 371.146 122.895C370.395 124.503 369.565 125.395 369.565 125.395C369.565 125.395 373.159 130.005 372.49 135.593C371.526 143.695 363.478 144.252 363.478 144.252L363.542 144.433C363.665 144.8 363.925 145.718 363.995 146.966C364.125 149.173 363.649 152.411 360.731 155.437C356.104 160.245 351.437 158.87 350.636 158.587C350.555 158.561 350.513 158.545 350.513 158.545C350.513 158.545 349.837 166.292 342.613 167.746C335.088 169.257 331.425 165.037 331.425 165.037C331.425 165.037 327.217 170.435 321.357 169.241C318.64 168.685 316.528 167.246 315.056 165.861C313.349 164.261 312.483 162.732 312.483 162.732C312.483 162.732 310.128 163.365 307.163 163.017C307.404 161.64 307.452 160.049 307.111 158.281C306.274 153.906 300.929 150.865 300.929 150.865C300.929 150.865 301.956 148.886 301.842 146.03C301.812 145.242 301.692 144.387 301.444 143.49C301.154 142.435 300.678 141.319 299.946 140.183C299.946 140.183 299.946 140.183 299.947 140.179C299.893 140.097 299.84 140.016 299.787 139.935C297.868 137.078 294.448 135.923 291.512 135.48C290.761 137.088 289.93 137.98 289.93 137.98C289.93 137.98 293.525 142.59 292.856 148.179C292.753 149.062 292.563 149.854 292.31 150.564C290.24 156.389 283.844 156.832 283.844 156.832L283.908 157.014C284.031 157.381 284.291 158.299 284.366 159.547C284.491 161.753 284.02 164.992 281.102 168.018C276.475 172.826 271.808 171.451 271.007 171.168C270.926 171.142 270.884 171.127 270.884 171.127C270.884 171.127 270.208 178.873 262.984 180.327C255.459 181.843 251.796 177.618 251.796 177.618C251.796 177.618 247.588 183.016 241.729 181.817C239.012 181.261 236.905 179.823 235.427 178.437C233.721 176.837 232.85 175.307 232.85 175.307C232.85 175.307 230.583 175.913 227.696 175.611C227.951 174.211 228.007 172.591 227.663 170.779C226.826 166.404 221.481 163.367 221.481 163.367C221.481 163.367 222.515 161.369 222.393 158.493C222.37 157.873 222.287 157.221 222.134 156.534C221.846 155.247 221.294 153.855 220.338 152.437C220.292 152.372 220.247 152.306 220.196 152.24C218.257 149.528 214.931 148.416 212.058 147.982C211.307 149.59 210.477 150.482 210.477 150.482C210.477 150.482 214.071 155.092 213.402 160.68C213.291 161.617 213.086 162.451 212.808 163.197C210.686 168.901 204.389 169.339 204.389 169.339L204.454 169.52C204.577 169.887 204.836 170.805 204.911 172.053C205.037 174.26 204.566 177.498 201.648 180.525C197.02 185.333 192.354 183.957 191.553 183.675C191.472 183.649 191.429 183.633 191.429 183.633C191.429 183.633 190.752 191.385 183.53 192.834C176.005 194.345 172.342 190.124 172.342 190.124C172.342 190.124 168.134 195.522 162.274 194.328C159.557 193.773 157.45 192.335 155.972 190.948C154.266 189.348 153.395 187.819 153.395 187.819C153.395 187.819 151.039 188.452 148.075 188.104C148.316 186.727 148.364 185.136 148.023 183.368C147.186 178.993 141.841 175.952 141.841 175.952C141.841 175.952 142.868 173.973 142.753 171.117C142.724 170.329 142.605 169.47 142.352 168.572C142.062 167.516 141.585 166.406 140.858 165.266C140.805 165.184 140.752 165.103 140.698 165.022C138.779 162.165 135.36 161.01 132.423 160.567C131.672 162.175 130.842 163.067 130.842 163.067C130.842 163.067 134.436 167.677 133.767 173.266C133.664 174.149 133.474 174.941 133.221 175.651C131.151 181.481 124.755 181.924 124.755 181.924L124.819 182.105C124.942 182.472 125.202 183.391 125.277 184.634C125.403 186.84 124.932 190.079 122.014 193.105C117.386 197.913 112.72 196.538 111.919 196.255C111.838 196.229 111.796 196.214 111.796 196.214C111.796 196.214 111.119 203.961 103.896 205.414C96.3705 206.93 92.7077 202.705 92.7077 202.705C92.7077 202.705 88.5001 208.103 82.6399 206.909C79.9229 206.353 77.816 204.915 76.3384 203.529C74.632 201.929 73.7611 200.399 73.7611 200.399C73.7611 200.399 66.9894 202.216 61.9439 197.993C59.6817 196.099 58.7067 194.067 58.327 192.403L58.3256 192.412C58.5854 198.937 64.3319 202.196 64.4604 202.273C64.4604 202.273 60.2422 209.139 63.3139 214.753C65.9486 219.577 71.144 219.688 72.5549 219.626L72.9115 219.601C72.9115 219.601 72.3874 221.471 73.1782 223.897C73.6651 225.399 74.6546 227.113 76.5833 228.724C81.6238 232.946 88.4004 231.13 88.4004 231.13C88.4004 231.13 91.4143 236.445 97.2744 237.639C103.134 238.838 107.342 233.44 107.342 233.44C107.342 233.44 110.999 237.665 118.525 236.149C125.748 234.695 126.425 226.948 126.425 226.948C126.425 226.948 126.466 226.969 126.548 226.99C127.348 227.277 132.015 228.648 136.643 223.84C141.201 219.101 139.793 213.863 139.449 212.835L139.384 212.654C139.384 212.654 145.781 212.21 147.851 206.381C148.104 205.671 148.294 204.878 148.397 203.995C149.061 198.406 145.472 193.796 145.472 193.796C145.472 193.796 146.314 192.891 147.068 191.264C150.036 191.692 153.531 192.837 155.484 195.738C155.537 195.819 155.591 195.901 155.644 195.982C156.375 197.123 156.846 198.238 157.142 199.294C157.395 200.191 157.509 201.05 157.538 201.838C157.653 204.694 156.626 206.673 156.626 206.673C156.626 206.673 161.97 209.715 162.809 214.085C163.147 215.867 163.098 217.468 162.856 218.849C165.752 219.158 168.029 218.549 168.029 218.549C168.029 218.549 171.043 223.864 176.908 225.059C182.768 226.257 186.975 220.859 186.975 220.859C186.975 220.859 190.638 225.085 198.164 223.569C205.387 222.115 206.063 214.368 206.063 214.368C206.063 214.368 206.105 214.389 206.187 214.41C206.982 214.697 211.649 216.067 216.282 211.26C220.84 206.521 219.427 201.283 219.087 200.255L219.023 200.074C219.023 200.074 225.324 199.637 227.441 193.932C227.719 193.186 227.925 192.352 228.036 191.415C228.7 185.826 225.11 181.217 225.11 181.217C225.11 181.217 225.952 180.312 226.706 178.684C229.607 179.102 233.013 180.206 234.981 182.961C235.032 183.027 235.072 183.092 235.118 183.158C236.073 184.581 236.626 185.968 236.914 187.255C237.067 187.942 237.149 188.599 237.173 189.214C237.295 192.09 236.261 194.088 236.261 194.088C236.261 194.088 241.605 197.129 242.443 201.499C242.791 203.322 242.732 204.956 242.472 206.36C245.289 206.629 247.474 206.041 247.474 206.041C247.474 206.041 250.488 211.356 256.353 212.551C262.212 213.75 266.42 208.351 266.42 208.351C266.42 208.351 270.083 212.577 277.608 211.061C284.832 209.607 285.508 201.86 285.508 201.86C285.508 201.86 285.55 201.881 285.631 201.907C286.427 202.189 291.093 203.564 295.726 198.757C300.284 194.018 298.875 188.781 298.531 187.752L298.467 187.571C298.467 187.571 304.859 187.127 306.933 181.303C307.191 180.594 307.377 179.796 307.479 178.917C308.148 173.329 304.554 168.718 304.554 168.718C304.554 168.718 305.396 167.813 306.15 166.186C309.118 166.614 312.613 167.759 314.566 170.66C314.619 170.741 314.673 170.823 314.726 170.904C315.458 172.04 315.934 173.155 316.224 174.211C316.477 175.114 316.591 175.967 316.626 176.756C316.74 179.612 315.714 181.591 315.714 181.591C315.714 181.591 321.058 184.632 321.896 189.003C322.235 190.785 322.191 192.386 321.939 193.767C324.834 194.075 327.112 193.466 327.112 193.466C327.112 193.466 330.131 198.782 335.991 199.976C341.85 201.175 346.058 195.776 346.058 195.776C346.058 195.776 349.721 200.002 357.246 198.486C364.47 197.032 365.146 189.285 365.146 189.285C365.146 189.285 365.188 189.306 365.269 189.327C366.065 189.614 370.732 190.984 375.364 186.177C379.923 181.438 378.509 176.2 378.17 175.172L378.106 174.991C378.106 174.991 386.159 174.435 387.118 166.333M84.0603 45.7046C83.4802 44.8361 82.887 43.7044 82.5576 42.392C83.2888 43.5328 83.7649 44.6484 84.0603 45.7046ZM328.805 43.4771C329.469 37.8882 325.88 33.2783 325.88 33.2783C325.88 33.2783 326.711 32.3816 327.468 30.7648C328.318 28.9486 329.066 26.2211 328.421 22.8489C327.584 18.4738 322.24 15.4325 322.24 15.4325C322.24 15.4325 324.944 10.2224 321.093 4.49669C319.108 1.54188 315.516 0.407826 312.51 1.43444e-05C311.862 1.19294 311.259 1.84482 311.259 1.84482C311.259 1.84482 314.853 6.45538 314.184 12.0436C313.22 20.1454 305.172 20.702 305.172 20.702L305.236 20.8834C305.372 21.2965 305.682 22.3894 305.711 23.8626C305.75 26.0473 305.156 29.0573 302.43 31.8879C297.802 36.6959 293.136 35.3206 292.335 35.038C292.254 35.0121 292.212 34.9964 292.212 34.9964C292.212 34.9964 291.535 42.7433 284.312 44.1971C276.787 45.7082 273.124 41.4875 273.124 41.4875C273.124 41.4875 268.916 46.8857 263.057 45.6867C260.359 45.1339 258.265 43.7123 256.791 42.3365C255.061 40.7234 254.183 39.1778 254.183 39.1778C254.183 39.1778 251.874 39.7976 248.946 39.4696C249.089 38.2615 249.074 36.9084 248.793 35.4252C247.956 31.0501 242.611 28.0137 242.611 28.0137C242.611 28.0137 243.637 26.0344 243.523 23.1787C243.493 22.3907 243.374 21.5361 243.121 20.6336C242.541 19.7651 241.952 18.6389 241.623 17.3265C241.57 17.2453 241.516 17.164 241.463 17.0827C239.474 14.1224 235.883 12.9883 232.876 12.5854C232.228 13.7734 231.625 14.4253 231.625 14.4253C231.625 14.4253 235.219 19.0359 234.55 24.6241C234.447 25.5073 234.257 26.2997 234.004 27.0095C231.934 32.8393 225.538 33.2825 225.538 33.2825L225.602 33.4639C225.738 33.877 226.049 34.9699 226.077 36.4431C226.116 38.6278 225.523 41.6378 222.796 44.4684C218.169 49.2764 213.502 47.9011 212.701 47.6185C212.62 47.5926 212.578 47.5769 212.578 47.5769C212.578 47.5769 211.901 55.3286 204.678 56.7776C197.153 58.2935 193.49 54.068 193.49 54.068C193.49 54.068 189.282 59.4662 183.422 58.2721C180.725 57.7193 178.63 56.2977 177.156 54.9218C175.427 53.3087 174.548 51.7631 174.548 51.7631C174.548 51.7631 172.327 52.3556 169.483 52.0735C169.639 50.8426 169.634 49.4515 169.344 47.9324C168.506 43.5573 163.162 40.516 163.162 40.516C163.162 40.516 164.196 38.5181 164.074 35.6417C164.046 35.0263 163.968 34.3698 163.815 33.6831C163.527 32.3961 162.974 31.0087 162.019 29.5857C161.973 29.5203 161.928 29.4549 161.882 29.3894C159.868 26.5736 156.37 25.482 153.437 25.0842C152.789 26.2771 152.186 26.929 152.186 26.929C152.186 26.929 155.78 31.5396 155.111 37.1278C155.001 38.0642 154.795 38.8988 154.517 39.6447C152.395 45.3489 146.099 45.7862 146.099 45.7862L146.163 45.9675C146.299 46.3807 146.609 47.4735 146.633 48.9461C146.672 51.1308 146.079 54.1408 143.352 56.9714C138.725 61.7794 134.058 60.4041 133.257 60.1215C133.176 60.0956 133.134 60.0799 133.134 60.0799C133.134 60.0799 132.457 67.8268 125.234 69.2806C117.709 70.7917 114.046 66.571 114.046 66.571C114.046 66.571 109.838 71.9692 103.978 70.7751C101.281 70.2223 99.1863 68.8007 97.7122 67.4248C95.9827 65.8117 95.1041 64.2661 95.1041 64.2661C95.1041 64.2661 92.7903 64.8853 89.8674 64.5579C90.0108 63.3499 89.9961 61.9919 89.7147 60.5136C88.8771 56.1385 83.5321 53.102 83.5321 53.102C83.5321 53.102 84.5586 51.1228 84.4443 48.267C84.4148 47.479 84.2952 46.6244 84.0478 45.7227C83.4677 44.8541 82.8745 43.7224 82.5452 42.41C82.4918 42.3288 82.4385 42.2475 82.3852 42.1662C80.3959 39.2059 76.8047 38.0718 73.7979 37.6689C73.1494 38.8618 72.5465 39.5137 72.5465 39.5137C72.5465 39.5137 76.1407 44.1242 75.4718 49.7125C75.3686 50.5957 75.1787 51.3881 74.9257 52.0979C72.8564 57.9228 66.4599 58.366 66.4599 58.366L66.5241 58.5474C66.6605 58.9605 66.9707 60.0534 66.9943 61.5259C67.0331 63.7106 66.4399 66.7206 63.7136 69.5512C59.0859 74.3593 54.4195 72.9839 53.6186 72.7014C53.5376 72.6755 53.4957 72.6549 53.4957 72.6549C53.4957 72.6549 52.8188 80.4066 45.5961 81.8556C38.0706 83.3715 34.4078 79.146 34.4078 79.146C34.4078 79.146 30.2002 84.5442 24.3401 83.3501C21.6425 82.7973 19.5483 81.3757 18.0742 79.9998C16.3447 78.3867 15.4661 76.8411 15.4661 76.8411C15.4661 76.8411 8.69435 78.6577 3.64891 74.4347C1.34681 72.5063 0.381458 70.4409 0.00927024 68.7578C-0.00205 69.0175 -0.00428575 69.2835 0.00744137 69.5563C0.272071 76.0813 6.01372 79.3399 6.14225 79.4167C6.14225 79.4167 1.92406 86.2828 4.99571 91.8965C7.6304 96.7205 12.8258 96.8322 14.2368 96.7696L14.5981 96.7452C14.5981 96.7452 14.2343 98.0364 14.5668 99.862C14.8821 101.597 15.8168 103.81 18.27 105.868C23.3105 110.09 30.0871 108.275 30.0871 108.275C30.0871 108.275 30.8731 109.664 32.4273 111.18C33.9107 112.631 36.099 114.198 38.9611 114.784C44.8206 115.982 49.0289 110.579 49.0289 110.579C49.0289 110.579 52.6917 114.805 60.2171 113.289C67.4405 111.835 68.1168 104.088 68.1168 104.088C68.1168 104.088 68.1587 104.109 68.2396 104.135C69.0399 104.422 73.707 105.793 78.3346 100.985C81.3811 97.8184 81.7644 94.4245 81.5792 92.2197C81.4877 91.1274 81.2568 90.3216 81.1452 89.9808L81.081 89.7994C81.081 89.7994 87.4725 89.3556 89.5474 83.5265C89.8011 82.8119 89.991 82.0194 90.0935 81.1411C90.7576 75.5522 87.1682 70.9423 87.1682 70.9423C87.1682 70.9423 87.9992 70.0456 88.7564 68.4288C91.6771 68.8791 95.0455 70.0417 96.9485 72.8719C97.0018 72.9531 97.0558 73.0296 97.1085 73.1157C97.8396 74.2564 98.3151 75.3769 98.6105 76.4331C98.8633 77.3307 98.9774 78.1895 99.0076 78.9727C99.122 81.8284 98.0955 83.8077 98.0955 83.8077C98.0955 83.8077 103.44 86.849 104.277 91.224C104.617 93.0013 104.568 94.5971 104.326 95.9789C107.328 96.3467 109.729 95.7051 109.729 95.7051C109.729 95.7051 110.515 97.095 112.069 98.61C113.553 100.061 115.741 101.629 118.603 102.214C124.463 103.413 128.671 98.0099 128.671 98.0099C128.671 98.0099 132.334 102.235 139.859 100.72C147.083 99.2657 147.759 91.5189 147.759 91.5189C147.759 91.5189 147.801 91.5394 147.882 91.5605C148.678 91.8472 153.345 93.2177 157.978 88.4104C161.024 85.2441 161.407 81.8502 161.217 79.6448C161.126 78.5524 160.895 77.7466 160.783 77.4058L160.719 77.2244C160.719 77.2244 167.015 76.7872 169.137 71.0829C169.415 70.3371 169.621 69.5025 169.731 68.5661C170.396 62.9772 166.806 58.3673 166.806 58.3673C166.806 58.3673 167.637 57.4706 168.394 55.8538C171.247 56.2947 174.527 57.4107 176.45 60.1006C176.495 60.166 176.541 60.2314 176.587 60.2969C177.543 61.715 178.094 63.1073 178.383 64.3943C178.383 64.3943 178.383 64.3943 178.382 64.3991C178.535 65.0858 178.613 65.7423 178.641 66.3577C178.768 69.2348 177.729 71.232 177.729 71.232C177.729 71.232 183.073 74.2733 183.91 78.6484C184.259 80.4663 184.201 82.0953 183.941 83.4994C186.864 83.8219 189.173 83.2069 189.173 83.2069C189.173 83.2069 189.959 84.5968 191.513 86.1119C192.996 87.563 195.184 89.1354 198.052 89.7165C203.911 90.9155 208.119 85.5124 208.119 85.5124C208.119 85.5124 211.782 89.738 219.308 88.2221C226.531 86.7682 227.207 79.0214 227.207 79.0214C227.207 79.0214 227.249 79.0419 227.33 79.0678C228.131 79.3504 232.797 80.7257 237.425 75.9177C240.476 72.7521 240.855 69.3575 240.665 67.1521C240.573 66.0597 240.342 65.2539 240.23 64.918L240.166 64.7366C240.166 64.7366 246.562 64.2934 248.632 58.4637C248.885 57.7539 249.075 56.9615 249.178 56.0783C249.842 50.4894 246.253 45.8795 246.253 45.8795C246.253 45.8795 247.089 44.9834 247.841 43.3659C250.762 43.8163 254.13 44.9789 256.033 47.809C256.087 47.8903 256.141 47.9668 256.194 48.048C256.925 49.1888 257.401 50.3092 257.691 51.3648C257.944 52.2624 258.058 53.1212 258.088 53.9044C258.203 56.7601 257.176 58.7394 257.176 58.7394C257.176 58.7394 262.52 61.7807 263.359 66.1509C263.698 67.9281 263.65 69.5239 263.403 70.9051C266.404 71.2729 268.806 70.6313 268.806 70.6313C268.806 70.6313 269.592 72.0211 271.146 73.5362C272.634 74.988 274.817 76.5598 277.685 77.1409C283.544 78.3398 287.752 72.9416 287.752 72.9416C287.752 72.9416 291.415 77.1671 298.94 75.6512C306.163 74.1974 306.84 66.4506 306.84 66.4506C306.84 66.4506 306.882 66.4711 306.963 66.4922C307.764 66.7747 312.426 68.1494 317.058 63.342C320.11 60.1764 320.488 56.7819 320.298 54.5764C320.206 53.4841 319.976 52.6783 319.863 52.3423L319.799 52.161C319.799 52.161 327.847 51.6043 328.811 43.5026" fill="#B94300"/>
</svg>
