<svg width="470" height="472" viewBox="0 0 470 472" fill="none" xmlns="http://www.w3.org/2000/svg">
<path d="M365.307 471.21C339.924 465.647 314.815 460.501 288.982 457.462C286.457 457.165 283.449 457.242 280.869 457.089L281.44 456.496C307.789 453.501 333.611 448.519 359.784 444.767C377.065 442.287 394.389 440.86 411.714 438.863C420.618 437.832 429.313 436.932 438.26 436.164C447.351 435.374 456.452 434.299 465.521 433.52C466.981 433.388 468.529 433.597 470 433.52L470 412.683C452.654 408.612 435.669 403.159 419.322 395.863L406.784 391.616L421.496 389.542C433.254 386.723 445.539 386.009 457.462 384.638C461.645 384.155 465.817 383.694 470 383.255L470 343.162C465.587 343.491 461.612 345.159 457.451 346.399C454.641 347.244 451.446 347.891 448.657 348.912C447.647 349.285 446.44 350.557 445.32 350.415C417.511 337.171 387.758 328.031 357.6 321.799C335.225 317.168 311.621 313.361 288.686 311.616C285.875 311.397 282.955 312.011 280.21 311.112C280.21 310.552 290.245 309.718 291.31 309.576C317.9 305.933 343.931 301.006 370.456 297.649C400.076 293.907 429.818 291.032 459.526 288.684C463.007 288.41 466.509 287.817 470 287.686L470 269.109C453.565 264.567 437.525 258.883 422.319 251.959C421.573 251.619 420.277 251.784 419.926 250.862C420.398 250.829 420.947 250.95 421.397 250.84C425.558 249.842 428.566 249.469 432.672 248.832C445.1 246.901 457.539 245.222 469.989 243.686L469.989 198.326C468.957 198.304 467.947 198.293 466.926 198.414C462.062 199.018 456.046 201.113 450.963 202.057C449.448 202.342 445.935 204.328 444.628 204.229C443.772 204.164 437.349 200.718 435.834 200.071C405.95 187.376 375.286 179.893 343.558 174.044C325.783 170.764 309.403 167.944 291.343 166.429C287.643 166.122 283.91 165.563 280.199 165.266C296.196 162.82 312.301 160.921 328.275 158.496C335.73 157.366 343.053 155.951 350.529 154.832C387.89 149.247 425.679 145.757 463.512 142.839C465.663 142.674 467.837 142.224 470 142.18L470 114.376C440.994 112.16 412.142 108.221 383.29 103.821L376.79 102.021L387.1 98.0494C414.063 88.5803 441.818 81.4153 470 76.763L470 51.4935L455.354 54.9608C453.949 56.069 452.456 55.5643 451.04 55.9593C449.569 56.3653 445.748 58.2525 444.617 58.1428C435.483 53.3917 425.745 49.8696 416.007 46.5011C404.106 42.3864 391.787 38.4912 379.59 35.397C349.552 27.7712 318.581 22.274 287.687 19.9478C285.217 19.7613 282.681 19.9917 280.21 19.6077C280.167 18.8506 280.09 19.0152 280.705 18.9384C282.769 18.697 285.359 18.8616 287.336 18.5873C290.827 18.1045 294.593 17.1609 298.325 16.6122C325.212 12.6731 351.364 6.4847 378.404 3.63188C382.093 3.24784 385.552 1.89824 389.131 1.06434C390.733 0.691273 394.093 1.87629 394.543 1.19605e-05L309.458 8.24127e-06C309.205 0.625435 308.47 0.800994 307.877 0.92169C287.27 4.87176 267.113 8.84377 246.132 10.3031C226.052 11.6966 204.776 12.344 184.662 11.6198C157.183 10.6323 130.065 7.05526 102.838 3.6977C95.1418 2.75407 87.5006 2.18351 79.8814 0.735149C79.3214 0.625425 78.6517 0.702232 78.4541 -1.85623e-06L0.0110019 -5.28508e-06L0.0109988 71.0902C8.09135 69.982 16.1168 68.775 24.1532 67.4803C25.4597 67.2718 27.0516 67.3157 28.402 67.0743C35.9883 65.7686 33.9902 64.7591 41.8839 67.2718C49.2506 69.6199 56.6064 72.4398 64.072 74.6563C96.8655 84.3888 130.559 85.7384 164.132 91.2465C165.032 91.3892 172.191 91.9597 172.18 92.4974C168.941 92.9253 165.614 92.4974 162.354 92.651C139.573 93.6714 112.258 100.891 90.3221 107.025C70.3299 112.621 50.8316 120.696 31.004 126.139C24.9328 127.807 18.9713 128.97 13.2074 131.274C11.2093 132.075 9.27705 132.623 7.24598 133.282C4.77577 134.094 2.81056 135.202 6.49945e-06 135.18L2.94211e-06 216.562L17.072 214.532C22.1441 214.039 27.1395 212.755 32.1128 211.954C37.8657 211.032 39.8089 212.996 44.8811 214.719C74.897 224.967 106.175 231.123 137.772 234.162C147.631 235.106 157.457 235.698 167.316 237.191C168.941 237.443 170.61 237.838 172.18 238.31C172.18 238.628 167.338 238.43 166.701 238.474C142.131 240.164 118.384 244.432 94.8015 251.323C83.2079 254.713 71.5814 258.971 60.2513 262.636C43.41 268.067 26.5137 273.498 9.71619 278.908C6.45551 279.961 3.17286 281.19 6.0561e-08 282.485L-3.43155e-06 362.375C2.54706 362.803 4.8087 361.76 7.1801 361.409C15.2605 360.213 23.3737 358.787 31.4541 357.766C38.6781 356.856 41.0385 358.885 47.3513 361.058C59.5816 365.26 74.0406 370.033 86.6662 372.59C111.906 377.692 137.86 378.669 163.122 382.882C164.275 383.08 172.355 383.683 172.509 384.133C172.772 384.89 171.762 384.605 171.345 384.627C151.375 385.537 131.646 388.006 112.28 392.702C92.5398 397.486 73.0525 405.123 53.5872 411.103C50.9084 411.926 48.043 412.299 45.3642 413.177C40.1273 414.889 35.1869 417.72 29.9171 419.332C24.7241 420.923 19.3446 421.615 14.1187 423.48C13.3831 423.743 12.7792 424.369 11.9668 424.654C8.01447 426.004 3.99627 427.233 0.0109831 428.483L0.0109812 472L367.623 472C367.338 471.451 365.911 471.298 365.307 471.166M86.6772 57.4076L74.1395 53.1613L88.851 51.0875C100.609 48.2676 112.894 47.5544 124.817 46.1719C135.236 44.9649 145.644 43.9116 156.063 42.8472C206.433 37.7341 256.002 41.4099 305.89 49.2442C330.702 55.4216 355.931 61.1931 379.491 71.3645C379.689 71.4523 381.874 72.2643 381.248 72.758C378.536 72.2862 376.187 73.3067 373.683 73.6688C331.58 79.8023 289.74 85.091 247.121 85.0581C192.754 85.0142 136.74 79.7145 86.6662 57.3967M76.9829 146.152L70.4835 144.353L80.7926 140.381C121.447 126.095 163.913 117.032 206.905 113.948C231.135 112.204 256.826 111.984 281.034 113.619C303.595 115.144 325.761 119.259 347.916 123.505C355.064 124.877 362.057 126.841 369.127 128.213C370.291 128.443 372.004 128.311 373.266 128.564C372.619 129.474 371.136 129.266 369.94 129.727C367.898 130.517 365.471 132.13 363.287 133.051C327.595 148.018 282.351 154.854 243.816 157.487C187.462 161.327 132.217 154.579 76.972 146.152M201.603 229.883C159.324 226.558 115.452 217.001 76.8622 199.423C76.1156 199.083 74.8202 199.248 74.4688 198.326C74.9409 198.293 75.4899 198.414 75.94 198.304C80.1009 197.306 83.1091 196.933 87.2261 196.285C102.838 193.86 118.461 191.82 134.105 189.987C169.995 185.785 204.808 183.821 241.159 186.366C272.196 188.539 303.134 193.367 333.062 201.815C346.226 205.535 360.751 209.332 373.387 214.335C375.923 215.344 378.075 217.21 380.94 217.418C379.206 218.746 376.505 218.285 374.496 218.614C316.561 228.061 260.745 234.513 201.625 229.872M88.9059 294.017L69.8248 291.669L72.0645 289.759C131.086 266.937 194.982 256.908 258.462 258.104C294.955 258.795 333.435 263.491 368.556 272.972C370.028 273.367 371.74 273.74 373.277 273.74C372.673 274.705 371.103 274.563 370.05 275.001C353.263 281.936 340.198 286.994 322.402 291.493C246.967 310.574 165.054 305.735 88.9059 294.028M233.836 376.716C222.605 376.354 211.121 375.959 199.934 375.059C176.275 373.15 153.022 369.957 130.164 363.735C111.116 358.556 92.7704 351.227 74.1394 344.819C74.4469 344.139 76.0168 344.062 76.7304 343.919C94.2415 340.594 112.422 338.587 130.12 336.151C169.973 330.654 212.186 330.215 252.467 333.188C293.879 336.238 333.051 345.269 371.883 359.676C374.902 360.795 377.801 362.386 380.929 363.253C380.304 363.845 379.217 363.9 378.393 364.043C372.07 365.118 365.592 365.513 359.246 366.5C352.736 367.51 346.072 369.079 339.507 370.022C328.001 371.668 316.484 372.524 304.989 373.731C295.328 374.741 286.424 375.871 276.73 376.386C262.337 377.144 248.207 377.187 233.858 376.727M191.612 450.132C175.868 449.748 160.619 447.949 145.062 446.5C122.16 444.361 99.4345 441.661 76.6646 438.787C75.8412 438.677 70.4726 437.865 70.4835 437.327C79.552 432.51 89.4877 429.712 99.2369 426.541C117.725 420.528 135.192 415.701 154.482 412.321C184.816 407.01 214.832 404.377 245.825 403.927C254.191 403.807 262.721 403.697 271.065 404.278C302.761 406.506 334.413 410.631 365.296 418.06C366.657 418.389 368.326 419.278 369.523 419.475C370.631 419.662 371.74 419.42 372.772 419.552C373.376 419.629 373.31 419.442 373.266 420.21C369.457 420.331 365.954 422.833 362.518 424.259C342.976 432.368 324.005 437.437 303.211 441.387C266.421 448.365 229.093 451.043 191.612 450.121" fill="#FBFAE7"/>
</svg>
