<svg width="1920" height="868" viewBox="0 0 1920 868" fill="none" xmlns="http://www.w3.org/2000/svg">
<path d="M0 832.059C0 832.059 26.2667 812.449 50.2305 816.819C68.5385 820.141 89.3832 848.522 98.2168 861.752C99.7619 864.054 103.786 863.413 104.689 860.791C109.879 845.988 126.03 815.799 170.08 824.949C227.832 836.925 223.488 854.35 256.169 853.272C288.85 852.194 328.09 821.686 366.223 831.476C383.095 835.818 392.085 851.67 396.859 868H0V832.059Z" fill="#F2F1E9"/>
<path d="M891.476 806.971C891.709 806.388 896.957 806.038 897.277 806.621C904.653 819.734 926.897 837.683 993.891 820.578C1091.89 795.536 1102.85 865.153 1102.87 865.249C1102.93 865.176 1130.15 832.6 1180.24 846.717C1197.15 851.493 1207.48 859.495 1213.76 868H426.817C438.863 854.47 455.547 843.002 477.354 843.453C529.655 844.531 584.142 859.8 615.744 847.795C647.346 835.819 685.479 816.207 724.719 825.998C763.959 835.789 765.038 855.4 831.507 842.346C872.963 834.187 886.869 818.014 891.476 806.971Z" fill="#F2F1E9"/>
<path d="M1461.39 834.711C1508.24 818.364 1599.87 778.122 1632.52 814.168C1649.57 833.021 1636.83 850.184 1626.28 859.596C1623.92 861.723 1625.61 866.182 1628.73 865.716C1646.13 863.093 1678.41 856.186 1705.46 838.878C1744.7 813.818 1769.77 796.393 1811.17 811.662C1836.65 821.045 1847.29 832.904 1851.69 840.655C1853.39 843.627 1858.46 844.968 1860.94 842.637C1869.54 834.478 1885.22 820.812 1895.07 819.297C1909.19 817.119 1919.81 819.282 1919.88 819.297V868H1244.16C1252.3 860.963 1263.12 856.108 1277.23 857.586C1318.1 861.898 1378.1 870.435 1394.31 813.031C1394.69 811.72 1395.68 811.342 1396.5 812.449C1401.92 819.938 1420.4 849.018 1461.39 834.711Z" fill="#F2F1E9"/>
<path d="M1424.6 505.787C1426.2 504.213 1430.52 506.34 1430.28 508.584C1428.24 528.311 1431.07 568.29 1483.81 582.248C1554.91 601.043 1592.49 518.521 1630.92 525.077C1669.3 531.597 1658.72 582.129 1658.7 582.248C1658.79 582.167 1684.09 557.983 1720.01 562.638C1753.51 567.008 1760.07 586.328 1760.07 586.328C1760.09 586.331 1777.27 588.758 1825.46 565.085C1873.68 541.395 1920 564.269 1920 564.269V731.121C1919.96 731.131 1883.45 740.09 1842.6 729.489C1813.47 721.913 1795.98 703.992 1788.34 694.318C1786.07 691.433 1781.11 691.171 1778.34 693.59C1770.47 700.437 1753.65 710.607 1724.94 707.43C1672.9 701.719 1643.22 674.766 1617.86 679.661C1592.52 684.556 1576.98 718.037 1502.61 713.958C1428.24 709.878 1417.63 655.126 1389 653.494C1389.82 653.5 1367.75 700.058 1314.63 700.058C1261.52 700.058 1238.63 647.578 1183.88 654.135C1133.97 660.079 1130.91 712.18 1110.33 729.401C1107.85 731.47 1104.41 728.935 1104.21 725.701C1103.36 711.918 1093.57 683.711 1029.37 676.98C943.543 668.005 954.184 712.093 906.781 711.306C876.579 710.782 866.608 690.034 863.372 675.027C862.876 672.725 856.928 671.823 855.879 673.921C845.442 694.93 820.429 732.17 773.58 733.336C708.189 734.968 680.406 689.218 619.126 691.666C572.889 693.502 538.285 733.014 524.087 752.305C522.221 754.84 515.282 753.442 513.883 750.615C510.005 742.66 501.289 732.199 481.844 723.545C445.082 707.198 431.992 714.57 408.29 690.88C396.337 678.933 391.236 666.169 389.137 656.436C388.873 655.213 381.645 653.902 381.003 654.979C376.892 661.623 370.478 669.695 360.741 677.562C338.701 695.337 305.525 704.896 279.171 699.884C239.677 692.373 216.303 652.578 216.259 652.503C216.259 652.503 198.271 705.594 126.35 714.598C76.5562 720.805 58.102 706.294 51.4551 696.765C51.1047 696.241 47.6669 696.998 47.5781 697.61C46.7035 705.39 43.8459 716.726 34.7793 722.787C20.0957 732.552 0.163266 720.404 0.0585938 720.34V599.408C1.98548 599.338 51.0239 597.359 90.2871 576.537C130.343 555.294 145.037 536.5 175.269 554.478C197.338 567.591 199.378 587.26 198.883 596.905C198.737 599.702 201.157 602.238 203.927 601.771C212.935 600.227 230.427 596.643 240.922 590.67C276.459 570.447 300.715 572.195 311.443 577.556C333.308 588.484 335.466 603.491 335.466 603.491C335.466 603.491 392.664 560.189 431.904 570.825C471.144 581.461 496.479 602.704 536.535 598.596C571.14 595.07 651.486 553.721 672.71 542.56C675.217 541.22 678.394 542.881 679.152 545.62C681.747 554.828 689.502 571.962 711.425 574.905C741.657 578.985 757.196 572.457 799.701 583.88C842.206 595.302 891.242 605.938 934.563 596.964C977.885 587.989 1008.93 538.16 1053.07 539.792C1097.21 541.424 1121.73 561.035 1125.81 574.905C1129.88 588.736 1127.46 606.653 1127.44 606.754C1127.54 606.609 1158.54 559.385 1188.75 566.717C1218.98 574.06 1227.99 601.83 1227.99 601.83C1227.99 601.83 1241.87 583.034 1274.58 560.16C1307.29 537.286 1316.27 538.918 1362.04 534.839C1392.88 532.1 1414.05 515.986 1424.6 505.787Z" fill="#F2F1E9"/>
<path d="M0.0585938 599.408C0.0199905 599.409 0 599.411 0 599.411L0.0585938 599.382V599.408Z" fill="#F2F1E9"/>
<path d="M727.839 309.446C771.16 296.392 794.862 260.434 829.175 272.701C850.544 280.335 849.728 295.896 846.084 306.532C845.355 308.688 849.145 312.185 851.156 311.078C865.966 302.89 895.178 290.301 930.512 293.098C981.996 297.178 999.984 327.25 1025.32 315.799C1050.65 304.376 1078.43 284.765 1111.96 294.555C1132.54 300.587 1141.41 312.447 1145.17 320.693C1145.66 321.771 1149.77 321.684 1150.18 320.548C1154.41 308.251 1166.1 288.174 1196.94 290.476C1241.08 293.74 1344.87 335.788 1374.31 316.993C1390.81 306.474 1390.61 294.905 1387.23 286.775C1386.99 286.192 1390.31 282.814 1390.87 283.104C1406.76 291.963 1439.18 305.483 1482.15 299.83C1544.27 291.642 1607.19 286.746 1632.55 305.541C1649.72 318.275 1646.63 334.739 1642.84 344.063C1641.59 347.152 1643.86 350.561 1647.1 349.717C1655.46 347.531 1670.89 342.344 1695.46 330.048C1736.33 309.621 1738.78 304.725 1763.3 310.436C1779.07 314.108 1789.07 324.889 1794.23 332.116C1796.39 335.146 1801.32 335.7 1804.03 333.165C1813.44 324.307 1834.41 308.688 1863.82 310.466C1904.62 312.909 1919.92 321.072 1919.97 321.101V455.259C1919.92 455.265 1894.87 458.511 1868.72 446.284C1844.26 434.832 1838.4 421.953 1819.04 418.98C1816.74 418.631 1814.2 420.379 1813.3 422.507C1808.31 433.988 1789.77 465.865 1743.68 461.815C1698.29 457.823 1688.87 429.82 1686.95 419.709C1686.6 417.844 1684.73 416.504 1682.93 417.028C1675.81 419.068 1659.28 424.313 1645.61 432.385C1627.62 443.02 1573.69 473.238 1525.47 462.602C1477.25 451.966 1513.2 415.221 1499.32 405.43C1485.44 395.64 1434.74 410.326 1413.49 423.41C1397.37 433.317 1374.22 448.848 1363.96 455.812C1360.87 457.881 1356.79 457.619 1353.84 455.346C1341.89 446.138 1309.24 424.604 1270.47 429.121C1221.43 434.832 1198.55 463.855 1133.97 458.143C1086.89 453.976 1064.35 399.078 1055.58 369.647C1055.49 369.327 1051.97 369.851 1051.96 370.172C1050.71 390.627 1041.38 421.807 998.293 432.968C932.086 450.131 867.541 429.704 839.729 435.415C822.616 438.941 807.398 448.324 798.186 455.026C795.678 456.862 791.189 454.035 791.655 450.946C793.754 437.338 793.549 415.833 772.676 410.88C741.628 403.537 718.743 423.963 685.246 419.039C663.848 415.892 653.44 406.101 648.717 399.457C646.88 396.864 642.42 396.135 640.204 398.437C626.444 412.803 585.6 449.984 534.058 446.021C470.3 441.126 482.573 419.884 452.341 419.884C422.109 419.884 368.176 477.871 283.165 472.16C198.154 466.449 207.979 417.436 184.277 415.805C160.576 414.173 105.826 454.18 62.5049 452.578C19.1832 450.946 0 437.047 0 437.047V324.103C0 324.103 28.1617 323.287 56.79 331.475C85.3893 339.664 117.254 332.291 118.1 313.496C118.566 302.802 113.464 289.485 109.004 279.957C107.634 277.043 111.424 273.517 114.164 275.236C124.718 281.822 140.635 291.059 153.783 296.071C191.158 310.262 230.748 303.472 265.906 293.652C301.065 283.861 347.768 280.802 364.123 309.417C375.376 329.086 361.354 347.852 351.5 357.642C349.343 359.77 351.033 363.645 354.007 363.062C367.767 360.323 392.956 353.213 417.24 335.555C453.186 309.417 463.011 303.705 483.447 302.889C503.836 302.075 527.475 322.405 527.585 322.5C527.643 322.421 557.043 282.465 599.506 284.124C642.011 285.756 684.488 322.501 727.839 309.446Z" fill="#F2F1E9"/>
<path d="M1461.39 35.0994C1508.24 18.7523 1599.87 -21.4889 1632.52 14.5565C1649.57 33.4094 1636.83 50.5431 1626.28 59.9842C1623.92 62.0823 1625.61 66.5695 1628.73 66.1033C1646.14 63.4808 1678.41 56.5751 1705.46 39.2664C1744.7 14.2067 1769.77 -3.21916 1811.17 12.0496C1836.65 21.4325 1847.29 33.2927 1851.69 41.0438C1853.39 44.0158 1858.46 45.3562 1860.94 43.0252C1869.54 34.8662 1885.22 21.1996 1895.07 19.6844C1909.19 17.5074 1919.8 19.6677 1919.88 19.6844V157.309C1919.8 157.377 1897.18 176.913 1849.3 172.55C1816.33 169.548 1795.22 146.994 1785.25 133.182C1783.39 130.618 1777.56 131.93 1776.86 135.018C1773.8 148.743 1764.93 169.344 1739.25 173.628C1700.01 180.155 1696.74 144.226 1647.71 148.596C1598.67 152.938 1550.72 171.267 1500.6 162.555C1466.67 156.668 1452.24 126.684 1446.46 107.889C1445.5 104.713 1439.12 104.393 1437.92 107.481C1429.56 129.248 1410.11 167.858 1375.3 175.609C1326.27 186.507 1300.12 160.369 1277.23 165.818C1260.44 169.81 1250.7 194.928 1246.68 208.012C1245.86 210.692 1241.72 211.276 1240.09 209.032C1231.05 196.531 1207.76 171.005 1166.07 166.926C1110.5 161.477 1100.68 193.063 1038.58 188.721C976.486 184.38 966.661 123.362 966.661 123.362C966.64 123.407 950.283 157.135 914.36 157.135C878.415 157.134 839.175 111.386 839.175 111.386C839.175 111.386 869.698 170.597 805.386 181.466C741.103 192.364 733.465 153.143 680.057 152.064C640.671 151.278 609.593 186.012 595.979 204.311C594.084 206.875 588.4 205.185 587.962 202.01C585.571 184.322 575.076 155.124 531.842 154.25C478.433 153.172 479.541 192.364 402.168 193.471C324.971 194.549 321.559 117.184 283.66 110.337C283.486 110.308 283.34 110.337 283.369 110.512C283.486 114.766 298.295 176.366 226.754 196.327C152.71 216.998 111.319 159.389 111.249 159.291C111.249 159.291 88.3632 183.856 57.8398 191.49C27.3748 199.095 0 187.119 0 187.119V32.4481C0 32.4481 26.2667 12.8372 50.2305 17.2078C68.5385 20.5297 89.3833 48.8818 98.2168 62.1111C99.7619 64.4131 103.786 63.7725 104.689 61.1502C109.879 46.3474 126.03 16.1587 170.08 25.3084C227.832 37.2846 223.488 54.7098 256.169 53.6317C288.85 52.5535 328.09 22.0449 366.223 31.8358C393.626 38.8876 400.244 76.3313 401.76 96.8162C401.935 99.1182 406.454 99.9632 407.445 97.8943C416.891 78.4584 439.339 43.0256 477.354 43.8123C529.655 44.8905 584.142 60.1585 615.744 48.1824C647.346 36.2062 685.479 16.5959 724.719 26.3865C763.959 36.1773 765.038 55.7884 831.507 42.7342C872.963 34.6043 886.869 18.402 891.476 7.35822C891.711 6.7757 896.956 6.42606 897.277 7.00861C904.653 20.1213 926.897 38.0714 993.891 20.9666C1091.96 -4.09315 1102.87 65.6082 1102.87 65.6082C1102.87 65.6082 1130.09 32.9436 1180.24 47.076C1212.63 56.2257 1220.91 77.2057 1222.71 90.9012C1222.8 91.5422 1227.03 92.2994 1227.29 91.7166C1234.05 77.2052 1249.13 55.0304 1277.23 57.9734C1318.1 62.2861 1378.1 70.824 1394.31 13.4197C1394.69 12.1085 1395.68 11.7295 1396.5 12.8367C1401.92 20.3255 1420.4 49.4064 1461.39 35.0994Z" fill="#F2F1E9"/>
</svg>
