<svg width="200" height="106" viewBox="0 0 200 106" fill="none" xmlns="http://www.w3.org/2000/svg">
<g clip-path="url(#clip0_3063_8571)">
<path d="M28.5884 33.1858C27.8863 32.9844 26.9836 32.2794 26.6325 31.5241C26.3818 32.2794 25.5292 33.0851 24.5764 33.4376L24.125 32.783C25.2283 32.4305 26.1812 31.4737 26.1812 30.3659H24.3758V29.6609H28.8391V30.3659H27.0839C27.0839 31.4737 28.0869 32.2794 29.0397 32.5312L28.5884 33.1858ZM25.4289 35.9554V33.488H26.2815V35.3008H30.9956V35.9554H25.4289ZM25.4791 28.2509H27.786V28.9056H25.4791V28.2509ZM30.6947 31.1212V33.9412H29.8422V27.8984H30.6947V30.4163H31.9485V31.1212H30.6947Z" fill="#3E0300"/>
<path d="M37.6641 34.1383V28.5487H38.5166V30.6133H40.7232V28.5487H41.5758V34.1383H37.6641ZM40.7734 31.3183H38.5668V33.4333H40.7734V31.3183ZM43.8326 31.8219V36.2029H42.98V27.8438H43.8326V31.1169H45.1365V31.8219H43.8326Z" fill="#3E0300"/>
<path d="M55.5201 32.3255C54.7177 32.4765 53.0627 32.6276 51.9093 32.6276H50.9062V30.1098H53.815V29.1027H50.9062V28.3977H54.6675V30.7644H51.7588V31.9226H51.9093C52.9123 31.9226 54.5171 31.8723 55.4198 31.6708L55.5201 32.3255ZM51.6585 33.3326H56.9745V36.1022H51.6585V33.3326ZM56.172 34.0376H52.5111V35.4475H56.172V34.0376ZM57.0246 30.7141V32.9297H56.172V27.8438H57.0246V30.0091H58.2784V30.7141H57.0246Z" fill="#3E0300"/>
<path d="M66.1955 28.4984C67.6499 28.4984 68.3018 29.8076 68.3018 31.4694C68.3018 33.1312 67.6499 34.3901 66.1955 34.3901C64.7412 34.3901 64.0391 33.0808 64.0391 31.419C64.0391 29.7573 64.691 28.4984 66.1955 28.4984ZM66.1955 29.2034C65.343 29.2034 64.8916 30.1601 64.8916 31.419C64.8916 32.678 65.343 33.6347 66.1955 33.6347C67.0481 33.6347 67.4994 32.678 67.4994 31.419C67.4994 30.1601 67.0481 29.2034 66.1955 29.2034ZM69.7562 27.8438H70.6088V36.2029H69.7562V27.8438Z" fill="#3E0300"/>
<path d="M130.29 36.3582V34.4447H135.155V33.8908H130.29V33.1858H132.747V32.4808H129.438V31.8261H136.96V32.4808H133.6V33.1858H136.007V35.0489H131.143V35.6029H136.308V36.3079H130.29V36.3582ZM130.34 31.2722V28.4019H131.193V29.2076H135.155V28.3516H136.007V31.2219H130.39L130.34 31.2722ZM135.105 29.8622H131.143V30.5672H135.105V29.8622Z" fill="#3E0300"/>
<path d="M144.735 28.7527C146.089 28.7527 146.741 29.8605 146.841 31.3209H148.546V28.1484H149.399V36.5076H148.546V32.0259H146.841C146.741 33.5366 146.089 34.6444 144.735 34.6444C143.28 34.6444 142.578 33.3351 142.578 31.6734C142.578 30.0116 143.23 28.7024 144.735 28.7024M144.735 29.4577C143.882 29.4577 143.481 30.3641 143.481 31.6734C143.481 32.9826 143.882 33.8891 144.735 33.8891C145.587 33.8891 146.039 32.9826 146.039 31.6734C146.039 30.3641 145.587 29.4577 144.735 29.4577Z" fill="#3E0300"/>
<path d="M159.881 33.1848V34.7459H163.241V35.4509H155.719V34.7459H159.029V33.1848C157.424 33.0338 156.371 32.1777 156.371 30.9692C156.371 29.6095 157.624 28.7031 159.48 28.7031C161.336 28.7031 162.589 29.6095 162.589 30.9692C162.589 32.2281 161.536 33.0841 159.931 33.2352M159.48 29.3578C158.126 29.3578 157.273 30.0124 157.273 30.9188C157.273 31.8252 158.176 32.4798 159.48 32.4798C160.784 32.4798 161.737 31.8252 161.737 30.9188C161.737 30.0124 160.834 29.3578 159.48 29.3578Z" fill="#3E0300"/>
<path d="M169.258 28.9038H173.119V32.8316H169.258V28.9038ZM172.267 29.5584H170.11V32.1266H172.267V29.5584ZM170.311 36.2558V33.6876H171.164V35.5508H175.878V36.2558H170.311ZM173.47 30.213V29.5584H174.825V28.1484H175.677V34.1912H174.825V32.0259H173.47V31.3209H174.825V30.1627H173.47V30.213Z" fill="#3E0300"/>
<path d="M100.358 0C87.7698 0 77.5391 10.172 77.5391 24.4732C77.5391 40.6375 90.5782 42.5007 100.358 42.5007C110.137 42.5007 123.176 40.6375 123.176 24.4732C123.176 10.2223 112.945 0 100.358 0Z" fill="#3E0300"/>
<path d="M91.9206 37.6177C91.9206 37.6177 91.5194 37.9198 91.2185 37.9198C90.9176 37.9198 90.6668 37.8191 90.5164 37.6177C90.3659 37.4666 90.2656 37.2148 90.2656 36.9127H90.5665C90.5665 36.9127 90.6167 37.2652 90.717 37.3659C90.8173 37.4666 91.0179 37.5673 91.1683 37.5673C91.3188 37.5673 91.5194 37.5673 91.6197 37.4163C91.6698 37.3155 91.72 37.2148 91.72 37.0638C91.72 36.8623 91.6197 36.6609 91.3188 36.6106H90.9176C90.5665 36.4595 90.2656 36.2077 90.2656 35.7545C90.2656 35.5531 90.3659 35.3516 90.4662 35.2006C90.6167 34.9991 90.8674 34.8984 91.1182 34.8984C91.3689 34.8984 91.5695 34.9991 91.72 35.2006C91.8704 35.3516 91.9206 35.5531 91.9707 35.8049H91.6698C91.6698 35.8049 91.6698 35.5531 91.5695 35.4524C91.4692 35.3516 91.3188 35.2509 91.1683 35.2509C91.0179 35.2509 90.8674 35.3013 90.717 35.4524C90.6668 35.5531 90.6167 35.6538 90.6167 35.7545C90.6167 36.0063 90.8173 36.1573 90.9677 36.1573C91.1182 36.1573 91.2185 36.1573 91.3689 36.2077C91.7701 36.2581 92.0209 36.5602 92.0209 37.0134C92.0209 37.2652 91.9206 37.4163 91.8203 37.5673" fill="#C49A6C"/>
<path d="M93.2775 34.8984H92.9766V37.8191H93.2775V34.8984Z" fill="#C49A6C"/>
<path d="M95.7825 37.8191L94.629 35.5027V37.8191H94.3281V34.8984H94.6792L95.8326 37.2652V34.8984H96.1335V37.8191H95.7825Z" fill="#C49A6C"/>
<path d="M98.597 37.563C98.597 37.563 98.1958 37.8651 97.945 37.8651C97.6943 37.8651 97.4435 37.7644 97.2931 37.563C97.0423 37.2609 96.9922 36.8076 96.9922 36.3544C96.9922 35.9012 96.9922 35.448 97.2931 35.1459C97.4435 34.9445 97.6943 34.8438 97.945 34.8438C98.1958 34.8438 98.4465 34.9445 98.597 35.1459C98.7475 35.297 98.7976 35.5487 98.8477 35.8005H98.5468C98.5468 35.8005 98.5469 35.4984 98.3964 35.3977C98.2961 35.2466 98.1457 35.1962 97.945 35.1962C97.7946 35.1962 97.6441 35.297 97.4937 35.3977C97.2931 35.6495 97.2931 36.0523 97.2931 36.3544C97.2931 36.6566 97.2931 37.0594 97.4937 37.3112C97.594 37.4623 97.7444 37.5126 97.945 37.5126C98.1457 37.5126 98.2961 37.4119 98.3964 37.3112C98.4466 37.2105 98.4967 37.0594 98.5468 36.9084H98.8477C98.8477 37.1601 98.7475 37.4119 98.597 37.563Z" fill="#C49A6C"/>
<path d="M99.7031 37.8191V34.8984H101.308V35.2509H100.004V36.1573H101.157V36.5098H100.004V37.517H101.308V37.8191H99.7031Z" fill="#C49A6C"/>
<path d="M103.411 37.82V35.4029L102.859 35.8561V35.5036L103.461 35H103.712V37.82H103.411Z" fill="#C49A6C"/>
<path d="M106.318 37.5178C106.318 37.5178 106.017 37.9207 105.716 37.9207C105.516 37.9207 105.365 37.82 105.215 37.6689C105.115 37.5682 105.014 37.3667 105.014 37.1653H105.315C105.315 37.1653 105.365 37.4171 105.466 37.4675C105.516 37.5178 105.616 37.5682 105.716 37.5682C105.867 37.5682 105.967 37.5178 106.017 37.4171C106.168 37.2157 106.168 36.8632 106.168 36.561C106.118 36.7625 105.867 36.9135 105.666 36.9135C105.466 36.9135 105.265 36.8128 105.165 36.7121C105.014 36.561 104.914 36.2589 104.914 35.9568C104.914 35.6546 105.014 35.4532 105.115 35.2518C105.265 35.1007 105.416 35 105.666 35C105.917 35 106.118 35.1511 106.268 35.3525C106.419 35.6546 106.469 36.0575 106.469 36.4603C106.469 36.8632 106.469 37.266 106.268 37.6185M106.017 35.4029C106.017 35.4029 105.817 35.2518 105.666 35.2518C105.516 35.2518 105.416 35.3021 105.365 35.4029C105.265 35.5036 105.215 35.705 105.215 35.9064C105.215 36.1078 105.215 36.2589 105.365 36.41C105.416 36.5107 105.566 36.561 105.716 36.561C105.867 36.561 105.967 36.5107 106.068 36.41C106.168 36.3093 106.218 36.1078 106.218 35.9064C106.218 35.705 106.218 35.5539 106.068 35.4029" fill="#C49A6C"/>
<path d="M107.77 37.82H107.419L108.422 35.3021H107.219V35H108.723V35.3021L107.77 37.82Z" fill="#C49A6C"/>
<path d="M110.286 37.82V35.4029L109.734 35.8561V35.5036L110.286 35H110.587V37.82H110.286Z" fill="#C49A6C"/>
<path d="M105.918 25.9829C105.266 25.8822 105.266 25.58 105.918 25.3786C108.877 24.17 110.833 22.0551 110.833 19.638C110.833 17.2209 109.028 15.257 106.269 14.0484C106.269 14.0484 106.269 14.0484 106.219 14.0484C105.668 13.7966 105.668 13.5952 106.32 13.4945C109.579 12.9406 110.783 11.7824 110.783 10.5235C110.783 8.81137 108.476 7.90496 102.608 7.70353C102.608 5.94106 101.305 5.4375 100.352 5.4375C99.3988 5.4375 98.0949 5.94106 98.0949 7.70353C92.2273 7.8546 89.9204 8.81137 89.9204 10.5235C89.9204 11.8327 91.124 12.9406 94.3837 13.4945C95.0357 13.5952 95.0357 13.7966 94.484 14.0484C94.484 14.0484 94.484 14.0484 94.4339 14.0484C91.6756 15.257 89.8702 17.3216 89.8702 19.638C89.8702 21.9544 91.8261 24.17 94.7849 25.3786C95.4369 25.6304 95.4369 25.9325 94.7849 25.9829C90.4219 26.5368 88.8672 27.7957 88.8672 29.3064C88.8672 31.3206 92.478 32.3278 100.402 32.3278C108.326 32.3278 111.936 31.3206 111.936 29.3064C111.936 27.8461 110.382 26.5368 106.019 25.9829" fill="white"/>
<path d="M103.561 20.2425C103.41 22.7099 102.257 23.8681 100.351 23.8681C98.4456 23.8681 97.2921 22.7099 97.1417 20.2425C96.9912 17.8757 98.7967 16.0629 99.248 15.2572C99.7495 14.4515 100.351 13.7969 100.351 13.7969C100.351 13.7969 100.953 14.4515 101.455 15.2572C101.906 16.0126 103.711 17.8757 103.561 20.2425Z" fill="#C41425"/>
<path d="M41.1726 83.1363H11.7343C9.67812 86.3087 8.52466 92.7543 10.0292 97.3871C11.7343 102.775 16.4484 105.696 23.971 105.948C24.4725 105.948 24.974 105.948 25.4755 105.948C32.3963 105.948 38.314 104.135 43.4795 100.459H43.5297V85.4527C43.5297 83.8413 42.8276 83.0859 41.1726 83.0859M33.8506 90.1862V96.6318C32.0452 97.79 27.9329 98.6964 24.1214 98.1425C22.1656 97.8403 20.6611 96.9843 19.8587 95.675C19.0061 94.265 18.9058 92.3011 19.6079 90.2365H33.8506V90.1862Z" fill="#3E0300"/>
<path d="M16.5496 69.2925C19.1073 71.911 22.4674 76.0402 24.1224 79.0113V79.112L24.323 79.0616C26.3791 78.1048 28.1846 77.1984 29.4885 75.8892C30.7924 74.5799 30.8927 72.7671 29.4885 70.7025C27.3821 67.6307 23.6209 64.0051 19.9097 61.5376C20.7623 58.617 21.665 54.5885 21.665 52.4231C21.665 50.9628 20.9127 50.2578 19.4082 50.2578H13.2397V50.4089C12.7884 59.2716 7.92377 68.235 0.150451 74.3281L0 74.4288L0.100301 74.5296C1.60481 76.141 3.20963 77.3495 4.76429 78.2056C6.72016 79.2127 8.77633 78.8098 10.5316 76.997C12.8385 74.731 14.7944 72.2132 16.4995 69.2925" fill="#3E0300"/>
<path d="M43.7771 62.5407V51.0594C43.7771 49.5487 42.9747 48.8438 41.3197 48.8438H34.75V80.1654H34.9005C35.8032 80.2661 36.6557 80.3668 37.408 80.3668C40.9185 80.3668 43.1251 79.259 43.5263 77.144C43.8272 75.6837 43.8272 73.8708 43.8272 71.6048C43.8272 71.2523 43.8272 70.9502 43.8272 70.5977H50.1462L50.2465 70.648C51.4501 68.8352 51.6507 66.1663 51.1492 64.4038C50.4972 62.0371 48.4411 61.4832 43.7771 62.5407Z" fill="#3E0300"/>
<path d="M93.6317 82.1788H86.6607V86.9627H70.8132L71.1642 83.6895C71.1642 83.2363 71.0639 82.8838 70.8132 82.5817C70.5624 82.2796 70.1612 82.1285 69.7099 82.1285H62.2876V82.2292C60.9336 87.718 59.8804 93.9119 62.087 98.7461C63.9927 102.875 69.3087 105.695 75.6276 105.897C76.3297 105.897 77.0319 105.897 77.6838 105.897C85.5073 105.897 90.8734 104.235 95.8383 100.357H95.8884V84.2434C95.8884 83.0853 94.8854 82.0781 93.6818 82.0781M86.6607 93.3579V96.7318C83.6517 98.4439 78.9877 99.0986 75.0258 98.3936C71.9165 97.8397 70.412 96.1779 70.5123 93.3579H86.7109H86.6607Z" fill="#3E0300"/>
<path d="M95.9874 68.4827V51.0594C95.9874 49.8005 95.0847 48.8438 93.9312 48.8438H86.9603V70.5977C81.193 72.6119 72.1659 73.4176 67.6022 72.4105C65.847 72.0076 64.6935 71.3027 64.192 70.3459C63.8409 69.6409 63.8409 68.8352 64.192 67.9791H78.3344C80.2401 67.9791 81.2432 67.0727 81.2432 65.2095V53.6276C81.2432 51.8148 80.2903 50.858 78.3344 50.858H55.6163V54.534C55.6163 56.5986 56.9202 57.7568 59.2772 57.7568H72.6173V61.4832H57.1208C55.0646 64.7563 53.9613 69.9934 55.867 73.7701C57.522 77.0433 61.2331 79.1582 66.2983 79.6618C73.1689 80.3668 80.8921 79.6618 87.0105 77.7483V80.0143H87.1609C88.1639 80.1654 89.0165 80.2157 89.8189 80.2157C94.2321 80.2157 95.5862 78.5036 95.8871 76.9929C96.1378 75.5326 96.1378 73.3673 96.0877 70.8495C96.0877 70.0941 96.0877 69.2884 96.0877 68.4827" fill="#3E0300"/>
<path d="M106.927 64.2513H143.838V59.4674C143.838 57.8057 142.835 56.8489 141.129 56.8489H128.291C129.394 54.6332 129.645 52.7197 129.043 51.3097C128.492 50.1515 127.388 49.3458 125.733 48.9933C123.577 48.5401 121.019 49.1947 119.063 50.6551H119.013V50.8061C119.264 51.914 119.565 53.1225 119.866 54.3814C120.066 55.1871 120.267 55.9928 120.467 56.7985H104.219V61.5824C104.219 63.2441 105.222 64.2009 106.927 64.2009" fill="#3E0300"/>
<path d="M119.309 87.6719V93.2614H100.703V98.1963C100.703 99.8581 101.706 100.815 103.411 100.815H147.293V95.88C147.293 94.2182 146.29 93.2614 144.585 93.2614H128.787V87.6719" fill="#3E0300"/>
<path d="M164.142 79.0102C165.797 80.3194 168.405 81.0244 171.113 81.0244C172.015 81.0244 172.918 80.9237 173.821 80.7726C176.93 80.2187 179.337 78.708 180.641 76.5427V53.3788C180.641 52.2206 179.889 51.5156 178.635 51.5156H172.768V60.4287H168.856L169.709 53.2781C169.759 52.7745 169.709 52.3717 169.408 52.0695C169.107 51.7171 168.605 51.566 168.003 51.566H162.637V51.6667C162.136 54.2852 161.735 57.1052 161.333 60.479H157.221L158.224 53.5299C158.274 52.9256 158.224 52.4724 157.873 52.1199C157.572 51.7674 157.071 51.566 156.419 51.566H150.551V51.6667C149.498 57.6591 148.395 64.5076 148.294 69.5432C148.144 74.176 149.297 77.4491 151.654 79.2116C154.764 81.528 160.581 81.3769 164.142 78.9095C164.142 78.9095 164.192 78.9598 164.242 79.0102M169.307 74.0752C168.154 73.1688 167.753 70.3992 168.204 65.7665H172.768V73.8738C172.517 74.2263 172.066 74.4781 171.464 74.5788C170.661 74.6795 169.859 74.5285 169.307 74.0752ZM161.083 74.2767C160.18 74.5788 159.277 74.6292 158.525 74.3774C156.569 73.6724 156.068 71.4064 156.569 65.7665H160.782C160.681 66.7736 160.581 67.8311 160.581 68.7878C160.531 71.0539 160.681 72.8163 161.083 74.327" fill="#3E0300"/>
<path d="M199.752 65.2634C199.1 62.8966 197.044 62.3427 192.38 63.4002L192.53 51.0126C192.53 49.5019 191.728 48.7969 190.073 48.7969H184.055V82.586H184.205C184.807 82.6363 185.409 82.6867 185.96 82.6867C189.672 82.6867 191.878 81.5788 192.279 79.5142V71.4069L198.749 71.4572H198.849C200.053 69.6444 200.253 66.9755 199.752 65.213" fill="#3E0300"/>
<path d="M175.23 82.9375H175.03C163.244 82.9879 157.828 89.1313 157.828 94.7712C157.828 97.5408 158.731 99.8572 160.486 101.62C163.244 104.389 168.009 105.799 174.729 105.799H175.03C186.213 105.749 192.131 101.922 192.131 94.8216C192.131 92.2534 191.028 89.6852 188.972 87.671C186.815 85.556 182.703 82.9879 175.18 82.9879M183.104 94.2173C183.104 96.8862 180.245 98.3969 175.03 98.3969C169.814 98.3969 166.956 96.9366 166.956 94.2173C166.956 91.2966 169.914 89.6349 175.03 89.6349C180.145 89.6349 183.104 91.2966 183.104 94.2173Z" fill="#3E0300"/>
<path d="M124.274 65.9141H124.073C112.689 65.9644 107.523 71.9568 107.523 77.496C107.523 80.2153 108.376 82.4813 110.081 84.1934C112.739 86.9126 117.353 88.2723 123.772 88.2723H124.023C134.805 88.2219 140.472 84.4955 140.472 77.496C140.472 74.9782 139.419 72.4604 137.463 70.4965C135.407 68.4319 131.445 65.9141 124.224 65.9141M131.796 76.9421C131.796 79.5606 129.038 81.021 124.023 81.021C119.008 81.021 116.25 79.5606 116.25 76.9421C116.25 74.0718 119.058 72.4604 124.023 72.4604C128.988 72.4604 131.796 74.0718 131.796 76.9421Z" fill="#3E0300"/>
</g>
<defs>
<clipPath id="clip0_3063_8571">
<rect width="200" height="106" fill="white"/>
</clipPath>
</defs>
</svg>
