<svg width="156" height="145" viewBox="0 0 156 145" fill="none" xmlns="http://www.w3.org/2000/svg">
<g clip-path="url(#clip0_1465_19757)">
<path d="M78 0C34.9714 0 0 34.7038 0 83.4953C0 138.643 44.5714 145 78 145C111.429 145 156 138.643 156 83.4953C156 34.7038 121.029 0 78 0Z" fill="#3E0300"/>
<path d="M49.6571 128C49.6571 128 48.2857 129 47.2571 129C46.2286 129 45.3714 128.667 44.8571 128C44.3429 127.5 44 126.667 44 125.667H45.0286C45.0286 125.667 45.2 126.833 45.5429 127.167C45.8857 127.5 46.5714 127.833 47.0857 127.833C47.6 127.833 48.2857 127.833 48.6286 127.333C48.8 127 48.9714 126.667 48.9714 126.167C48.9714 125.5 48.6286 124.833 47.6 124.667H46.2286C45.0286 124.167 44 123.333 44 121.833C44 121.167 44.3429 120.5 44.6857 120C45.2 119.333 46.0571 119 46.9143 119C47.7714 119 48.4571 119.333 48.9714 120C49.4857 120.5 49.6571 121.167 49.8286 122H48.8C48.8 122 48.8 121.167 48.4571 120.833C48.1143 120.5 47.6 120.167 47.0857 120.167C46.5714 120.167 46.0571 120.333 45.5429 120.833C45.3714 121.167 45.2 121.5 45.2 121.833C45.2 122.667 45.8857 123.167 46.4 123.167C46.9143 123.167 47.2571 123.167 47.7714 123.333C49.1429 123.5 50 124.5 50 126C50 126.833 49.6571 127.333 49.3143 127.833" fill="#C49A6C"/>
<path d="M54 119H53V129H54V119Z" fill="#C49A6C"/>
<path d="M61.8649 129L57.973 121.069V129H57V119H58.1351L62.027 127.103V119H63V129H61.8649Z" fill="#C49A6C"/>
<path d="M72.1892 128C72.1892 128 70.8919 129 70.0811 129C69.2703 129 68.4595 128.667 67.973 128C67.1622 127 67 125.5 67 124C67 122.5 67 121 67.973 120C68.4595 119.333 69.2703 119 70.0811 119C70.8919 119 71.7027 119.333 72.1892 120C72.6757 120.5 72.8378 121.333 73 122.167H72.027C72.027 122.167 72.027 121.167 71.5405 120.833C71.2162 120.333 70.7297 120.167 70.0811 120.167C69.5946 120.167 69.1081 120.5 68.6216 120.833C67.973 121.667 67.973 123 67.973 124C67.973 125 67.973 126.333 68.6216 127.167C68.9459 127.667 69.4324 127.833 70.0811 127.833C70.7297 127.833 71.2162 127.5 71.5405 127.167C71.7027 126.833 71.8649 126.333 72.027 125.833H73C73 126.667 72.6757 127.5 72.1892 128Z" fill="#C49A6C"/>
<path d="M76 129V119H81V120.207H76.9375V123.31H80.5313V124.517H76.9375V127.966H81V129H76Z" fill="#C49A6C"/>
<path d="M88.9412 130V121.429L87 123.036V121.786L88.9412 120H90V130H88.9412Z" fill="#C49A6C"/>
<path d="M98.5161 128.621C98.5161 128.621 97.5484 130 96.5806 130C95.9355 130 95.4516 129.655 94.9677 129.138C94.6452 128.793 94.3226 128.103 94.3226 127.414H95.2903C95.2903 127.414 95.4516 128.276 95.7742 128.448C95.9355 128.621 96.2581 128.793 96.5806 128.793C97.0645 128.793 97.3871 128.621 97.5484 128.276C98.0323 127.586 98.0323 126.379 98.0323 125.345C97.871 126.034 97.0645 126.552 96.4194 126.552C95.7742 126.552 95.129 126.207 94.8065 125.862C94.3226 125.345 94 124.31 94 123.276C94 122.241 94.3226 121.552 94.6452 120.862C95.129 120.345 95.6129 120 96.4194 120C97.2258 120 97.871 120.517 98.3548 121.207C98.8387 122.241 99 123.621 99 125C99 126.379 99 127.759 98.3548 128.966M97.5484 121.379C97.5484 121.379 96.9032 120.862 96.4194 120.862C95.9355 120.862 95.6129 121.034 95.4516 121.379C95.129 121.724 94.9677 122.414 94.9677 123.103C94.9677 123.793 94.9677 124.31 95.4516 124.828C95.6129 125.172 96.0968 125.345 96.5806 125.345C97.0645 125.345 97.3871 125.172 97.7097 124.828C98.0323 124.483 98.1935 123.793 98.1935 123.103C98.1935 122.414 98.1935 121.897 97.7097 121.379" fill="#C49A6C"/>
<path d="M102.833 130H101.833L105 121.071H101V120H106V121.071L102.833 130Z" fill="#C49A6C"/>
<path d="M111.941 130V121.429L110 123.036V121.786L112.118 120H113V130H111.941Z" fill="#C49A6C"/>
<path d="M97.3913 89.2921C95.1587 88.9476 95.1587 87.9139 97.3913 87.2247C107.524 83.0899 114.222 75.8539 114.222 67.5843C114.222 59.3146 108.039 52.5955 98.5935 48.4607C98.5935 48.4607 98.5935 48.4607 98.4217 48.4607C96.5326 47.5992 96.5326 46.9101 98.7652 46.5655C109.928 44.6704 114.05 40.7079 114.05 36.4007C114.05 30.5431 106.15 27.4419 86.0565 26.7528C86.0565 20.7228 81.5913 19 78.3283 19C75.0652 19 70.6 20.7228 70.6 26.7528C50.5065 27.2697 42.6065 30.5431 42.6065 36.4007C42.6065 40.8801 46.7283 44.6704 57.8913 46.5655C60.1239 46.9101 60.1239 47.5992 58.2348 48.4607C58.2348 48.4607 58.2348 48.4607 58.063 48.4607C48.6174 52.5955 42.4348 59.6592 42.4348 67.5843C42.4348 75.5094 49.1326 83.0899 59.2652 87.2247C61.4978 88.0861 61.4978 89.1199 59.2652 89.2921C44.3239 91.1873 39 95.4944 39 100.663C39 107.554 51.3652 111 78.5 111C105.635 111 118 107.554 118 100.663C118 95.6667 112.676 91.1873 97.7348 89.2921" fill="white"/>
<path d="M88.9697 68.76C88.4555 77.09 84.5132 81 78 81C71.4868 81 67.5445 77.09 67.0303 68.76C66.5161 60.77 72.6866 54.65 74.2292 51.93C75.9432 49.21 78 47 78 47C78 47 80.0568 49.21 81.7708 51.93C83.3134 54.48 89.4839 60.77 88.9697 68.76Z" fill="#C41425"/>
</g>
<defs>
<clipPath id="clip0_1465_19757">
<rect width="156" height="145" fill="white"/>
</clipPath>
</defs>
</svg>
