<svg width="1920" height="400" viewBox="0 0 1920 400" fill="none" xmlns="http://www.w3.org/2000/svg">
<path d="M1502.37 210.479C1553 192.805 1652.03 149.297 1687.31 188.269C1705.74 208.652 1691.98 227.21 1680.57 237.386C1678.02 239.686 1679.85 244.505 1683.22 244.001C1702.03 241.165 1736.9 233.699 1766.14 214.985C1808.55 187.891 1835.65 169.051 1880.39 185.56C1901.91 193.488 1913.63 203.053 1920 210.854V358.929C1885.28 355.114 1862.99 331.236 1852.38 316.526C1850.36 313.754 1844.06 315.171 1843.3 318.511C1839.99 333.35 1830.42 355.655 1802.66 360.255C1760.25 367.312 1756.72 328.467 1703.73 333.192C1650.73 337.918 1598.9 357.703 1544.74 348.283C1508.07 341.919 1492.47 309.5 1486.24 289.18C1485.2 285.746 1478.3 285.399 1477 288.738C1467.96 312.272 1446.95 354.017 1409.33 362.397C1356.33 374.18 1328.07 345.889 1303.34 351.78C1285.19 356.097 1274.67 383.254 1270.32 397.399C1269.44 400.298 1264.96 400.928 1263.2 398.502C1253.43 384.986 1228.26 357.388 1183.21 352.978C1123.15 347.086 1112.54 381.237 1045.43 376.543C978.318 371.849 967.699 305.877 967.699 305.877C967.699 305.877 950.024 342.391 911.177 342.392C872.375 342.392 830.022 293.046 829.921 292.929C829.984 293.05 862.842 356.958 793.404 368.729C723.932 380.512 715.677 338.107 657.957 336.941C615.392 336.059 581.806 373.644 567.092 393.43C565.044 396.202 558.9 394.375 558.427 390.941C555.843 371.849 544.501 340.25 497.776 339.305C440.056 338.139 441.253 380.513 357.635 381.679C274.205 382.844 270.519 299.199 229.561 291.795C229.372 291.795 229.214 291.794 229.245 292.015C229.371 296.614 245.377 363.217 168.06 384.798C88.0527 407.143 43.3224 344.884 43.2295 344.755C43.1572 344.832 25.4282 363.834 0 374.657V204.431C12.2183 215.545 23.2006 230.808 29.1465 239.717C30.8165 242.205 35.164 241.512 36.1406 238.677C41.7489 222.672 59.2041 190.033 106.811 199.926C169.225 212.874 164.531 231.715 199.85 230.549C235.169 229.383 277.576 196.397 318.787 206.982C348.403 214.607 355.556 255.06 357.194 277.239C357.384 279.728 362.266 280.642 363.338 278.405C373.546 257.391 397.806 219.081 438.891 219.932C495.414 221.097 554.3 237.606 588.453 224.626C622.606 211.677 663.818 190.474 706.226 201.06C748.633 211.645 749.799 232.848 821.634 218.734C866.436 209.913 881.465 192.428 886.443 180.487C886.695 179.857 892.366 179.479 892.713 180.109C900.684 194.287 924.725 213.694 997.127 195.2C1103.03 168.127 1114.88 243.38 1114.9 243.497C1114.92 243.473 1144.34 208.185 1198.52 223.46C1233.52 233.353 1242.47 256.036 1244.42 270.844C1244.52 271.537 1249.09 272.356 1249.37 271.694C1256.68 256.005 1272.97 232.029 1303.34 235.211C1347.51 239.874 1412.35 249.105 1429.87 187.04C1430.28 185.622 1431.35 185.213 1432.23 186.41C1438.09 194.507 1458.07 225.948 1502.37 210.479Z" fill="white"/>
<path d="M1920 98.0723C1918.13 97.6562 1916.24 97.2062 1914.35 96.7148C1882.87 88.5235 1863.97 69.1482 1855.72 58.6885C1853.26 55.5696 1847.9 55.2858 1844.91 57.9004C1836.4 65.3041 1818.22 76.3003 1787.19 72.8662C1730.95 66.6912 1698.88 37.5492 1671.46 42.8418C1644.09 48.1346 1627.29 84.3334 1546.92 79.9229C1466.55 75.5121 1455.08 16.3141 1424.14 14.5498C1425.02 14.5498 1401.17 64.8943 1343.76 64.8945C1286.36 64.8945 1261.63 8.15478 1202.46 15.2432C1148.52 21.6702 1145.21 78.0016 1122.96 96.6211C1120.29 98.8573 1116.57 96.116 1116.35 92.6191C1115.43 77.7172 1104.85 47.2211 1035.47 39.9434C942.715 30.2398 954.214 77.9063 902.984 77.0557C870.344 76.4885 859.569 54.0571 856.071 37.832C855.536 35.3432 849.108 34.3665 847.974 36.6348C836.694 59.3499 809.662 99.6138 759.03 100.874C688.361 102.638 658.334 53.1749 592.107 55.8213C542.138 57.8063 504.74 100.527 489.396 121.384C487.38 124.125 479.882 122.612 478.369 119.557C474.179 110.956 464.758 99.6451 443.743 90.2881C404.013 72.6137 389.866 80.5843 364.251 54.9707C351.333 42.0537 345.82 28.2541 343.552 17.7314C343.267 16.4084 335.454 14.9909 334.761 16.1562C330.318 23.3394 323.387 32.0669 312.864 40.5732C289.045 59.7913 253.19 70.1249 224.708 64.7061C181.985 56.5777 156.717 13.4785 156.717 13.4785C156.717 13.4785 137.277 70.8811 59.5498 80.6162C31.4864 84.1157 12.635 81.5206 0 76.7773V0H1920V98.0723Z" fill="white"/>
</svg>
