<svg width="360" height="665" viewBox="0 0 360 665" fill="none" xmlns="http://www.w3.org/2000/svg">
<path d="M340.778 837.288H180.465C120.465 802.721 84.0714 757.349 54.3413 705.322C29.0696 661.098 15.5303 601.173 -19.7374 568.597C-65.7991 526.015 -127.629 539.795 -153.464 595.877C-192.744 681.159 -125.306 781.16 -49.5848 819.688L-14.2466 837.312H-211.023V295.805L-198.869 331.099C-163.249 410.804 -80.9574 463.793 7.78693 443.568C200.575 399.602 124.806 153.972 250.696 49.8468C302.858 6.7016 380.011 -4.85223 446.041 1.70978C520.777 9.13892 607.386 55.5183 647.722 119.146L647.534 587.744C614.496 670.941 522.983 716.43 435.247 703.822C325.009 687.956 300.559 587.276 353.988 499.345C398.102 426.741 454.723 371.385 459.205 278.697C462.443 211.741 428.654 117.131 347.019 124.044C263.25 131.145 232.792 242.747 220.144 310.687C197.383 433.068 195.06 587.674 248.373 702.181C270.993 750.764 302.553 799.791 340.824 837.312" fill="#2C0200"/>
</svg>
