<svg width="1055" height="1126" viewBox="0 0 1055 1126" fill="none" xmlns="http://www.w3.org/2000/svg">
<path d="M855.957 263.824L856.173 264.243C856.568 265.046 857.431 267 858.018 269.744C859.157 275.053 859.3 283.322 853.105 291.926C843.566 305.156 831.857 303.371 829.832 302.951C829.628 302.915 829.521 302.879 829.521 302.879C829.521 302.879 830.491 321.946 813.57 327.878C795.942 334.073 785.696 325.025 785.696 325.025C785.696 325.025 777.367 339.55 762.843 338.591C755.832 338.136 750.104 335.128 746.053 332.144C741.691 328.932 739.27 325.733 739.27 325.733C739.27 325.733 733.71 328.093 726.352 328.201C726.472 324.762 726.052 320.867 724.638 316.673C721.151 306.319 707.25 300.71 707.25 300.71C707.25 300.71 709.059 295.557 707.825 288.655C707.489 286.749 706.914 284.712 706.015 282.615C704.949 280.146 703.439 277.593 701.282 275.065C701.126 274.885 700.97 274.705 700.814 274.526C695.278 268.282 686.769 266.58 679.579 266.461C678.297 270.631 676.595 273.1 676.595 273.1C676.595 273.1 686.805 283.106 687.069 296.911C687.117 299.092 686.925 301.082 686.553 302.891C683.522 317.751 668.254 320.963 668.254 320.963L668.47 321.382C668.865 322.185 669.728 324.139 670.315 326.883C671.466 332.192 671.61 340.461 665.402 349.065C655.863 362.295 644.155 360.51 642.13 360.09C641.926 360.054 641.818 360.03 641.818 360.03C641.818 360.03 642.789 379.085 625.867 385.029C608.239 391.224 598.005 382.176 598.005 382.176C598.005 382.176 589.676 396.701 575.152 395.742C568.141 395.287 562.413 392.279 558.363 389.283C554 386.071 551.58 382.871 551.58 382.871C551.58 382.871 546.223 385.148 539.069 385.328C539.224 381.829 538.817 377.85 537.367 373.548C533.88 363.194 519.978 357.598 519.978 357.598C519.978 357.598 521.8 352.397 520.542 345.446C520.266 343.96 519.858 342.39 519.259 340.772C518.133 337.74 516.335 334.541 513.555 331.413C513.423 331.269 513.291 331.125 513.148 330.981C507.611 325.097 499.33 323.468 492.32 323.348C491.037 327.518 489.336 329.987 489.336 329.987C489.336 329.987 499.546 339.993 499.81 353.799C499.857 356.112 499.642 358.209 499.222 360.114C496.023 374.686 480.995 377.85 480.995 377.85L481.211 378.27C481.606 379.073 482.469 381.026 483.056 383.758C484.207 389.067 484.35 397.336 478.143 405.94C468.604 419.17 456.895 417.385 454.87 416.965C454.666 416.929 454.559 416.906 454.559 416.906C454.559 416.906 455.529 435.96 438.608 441.904C420.98 448.099 410.734 439.052 410.734 439.052C410.734 439.052 402.405 453.576 387.881 452.617C380.87 452.162 375.142 449.154 371.091 446.158C366.729 442.946 364.308 439.747 364.308 439.747C364.308 439.747 358.748 442.107 351.378 442.215C351.498 438.788 351.078 434.893 349.664 430.687C346.177 420.333 332.276 414.724 332.276 414.724C332.276 414.724 334.085 409.571 332.851 402.669C332.515 400.763 331.94 398.726 331.029 396.617C329.975 394.148 328.453 391.596 326.308 389.079C326.152 388.899 325.996 388.72 325.84 388.54C320.304 382.296 311.795 380.594 304.605 380.475C303.323 384.645 301.621 387.114 301.621 387.114C301.621 387.114 311.831 397.12 312.095 410.926C312.143 413.107 311.951 415.096 311.58 416.906C308.548 431.765 293.28 434.977 293.28 434.977L293.496 435.397C293.891 436.199 294.754 438.153 295.341 440.885C296.492 446.194 296.636 454.463 290.428 463.067C280.889 476.297 269.181 474.512 267.155 474.092C266.952 474.056 266.844 474.032 266.844 474.032C266.844 474.032 267.815 493.099 250.893 499.031C233.265 505.226 223.019 496.179 223.019 496.179C223.019 496.179 214.69 510.703 200.166 509.756C193.155 509.301 187.427 506.293 183.365 503.297C179.002 500.085 176.582 496.886 176.582 496.886C176.582 496.886 160.871 503.561 147.293 494.98C140.69 490.81 137.694 485.741 136.352 481.63C134.95 477.292 135.381 474.044 135.381 474.044L134.53 474.224C131.151 474.847 118.604 476.309 110.623 465.464C101.335 452.845 109.197 434.749 109.197 434.749C108.861 434.618 93.9293 428.614 91.1011 412.843C91.0412 412.531 90.9932 412.208 90.9573 411.908C92.2994 416.007 95.2954 421.064 101.887 425.222C115.464 433.803 131.175 427.128 131.175 427.128C131.175 427.128 133.536 430.243 137.79 433.407C141.853 436.439 147.653 439.519 154.747 439.986C169.272 440.945 177.6 426.409 177.6 426.409C177.6 426.409 187.847 435.456 205.475 429.261C222.396 423.317 221.425 404.263 221.425 404.263C221.425 404.263 221.533 404.299 221.737 404.322C223.762 404.754 235.47 406.527 245.009 393.297C251.289 384.585 251.073 376.208 249.887 370.912C249.3 368.275 248.473 366.406 248.089 365.615L247.874 365.195C247.874 365.195 263.129 361.984 266.173 347.124C266.544 345.314 266.736 343.313 266.688 341.144C266.424 327.338 256.214 317.332 256.214 317.332C256.214 317.332 257.916 314.875 259.198 310.705C266.389 310.825 274.909 312.514 280.434 318.77C280.589 318.95 280.745 319.129 280.901 319.309C283.046 321.838 284.568 324.378 285.623 326.847C286.533 328.956 287.097 330.993 287.444 332.899C288.678 339.802 286.869 344.955 286.869 344.955C286.869 344.955 300.77 350.563 304.257 360.905C305.672 365.111 306.091 369.006 305.971 372.433C313.329 372.326 318.89 369.965 318.89 369.965C318.89 369.965 321.25 373.081 325.505 376.244C329.567 379.276 335.367 382.356 342.462 382.823C356.986 383.782 365.315 369.246 365.315 369.246C365.315 369.246 375.561 378.294 393.189 372.098C410.111 366.154 409.14 347.1 409.14 347.1C409.14 347.1 409.248 347.136 409.451 347.16C411.477 347.591 423.173 349.365 432.724 336.134C439.004 327.422 438.776 319.046 437.589 313.749C437.002 311.124 436.175 309.243 435.792 308.452L435.576 308.032C435.576 308.032 450.616 304.869 453.804 290.296C454.223 288.391 454.439 286.294 454.391 283.981C454.115 270.175 443.917 260.169 443.917 260.169C443.917 260.169 445.619 257.712 446.901 253.53C453.911 253.65 462.204 255.268 467.741 261.152C467.885 261.295 468.016 261.439 468.148 261.595C470.929 264.735 472.726 267.935 473.865 270.966C474.464 272.584 474.871 274.142 475.147 275.628C476.417 282.579 474.584 287.78 474.584 287.78C474.584 287.78 488.485 293.388 491.972 303.73C493.422 308.032 493.83 312.011 493.674 315.51C500.828 315.319 506.185 313.054 506.185 313.054C506.185 313.054 508.546 316.169 512.8 319.333C516.862 322.365 522.663 325.445 529.757 325.912C544.282 326.871 552.61 312.347 552.61 312.347C552.61 312.347 562.856 321.394 580.485 315.199C597.406 309.255 596.435 290.2 596.435 290.2C596.435 290.2 596.543 290.236 596.747 290.26C598.772 290.692 610.468 292.465 620.019 279.235C626.299 270.523 626.083 262.158 624.897 256.849C624.31 254.225 623.483 252.344 623.099 251.553L622.883 251.133C622.883 251.133 638.139 247.922 641.183 233.062C641.566 231.252 641.746 229.263 641.71 227.082C641.434 213.276 631.236 203.27 631.236 203.27C631.236 203.27 632.938 200.813 634.22 196.643C641.41 196.763 649.919 198.464 655.456 204.708C655.611 204.888 655.767 205.067 655.923 205.247C658.068 207.776 659.59 210.328 660.644 212.785C661.555 214.894 662.118 216.931 662.466 218.837C663.7 225.739 661.891 230.892 661.891 230.892C661.891 230.892 675.792 236.501 679.279 246.855C680.693 251.061 681.113 254.956 680.993 258.383C688.351 258.276 693.912 255.915 693.912 255.915C693.912 255.915 696.272 259.031 700.527 262.194C704.601 265.226 710.389 268.306 717.484 268.773C732.008 269.732 740.337 255.208 740.337 255.208C740.337 255.208 750.583 264.255 768.211 258.06C785.132 252.116 784.162 233.062 784.162 233.062C784.162 233.062 784.27 233.098 784.473 233.121C786.487 233.541 798.195 235.327 807.746 222.096C814.025 213.384 813.81 205.019 812.623 199.711C812.036 197.086 811.209 195.205 810.826 194.414L810.61 193.994C810.61 193.994 829.832 189.956 829.425 169.943C829.149 156.137 818.951 146.131 818.951 146.131C818.951 146.131 820.653 143.674 821.935 139.492C829.125 139.612 837.634 141.313 843.17 147.557C854.363 160.176 849.605 173.754 849.605 173.754C849.605 173.754 863.507 179.362 866.994 189.704C869.678 197.697 868.792 204.564 867.354 209.274C866.071 213.444 864.37 215.901 864.37 215.901C864.37 215.901 874.58 225.907 874.843 239.713C875.239 259.726 856.029 263.764 856.029 263.764M965.777 379.36C965.501 365.555 955.291 355.548 955.291 355.548C955.291 355.548 957.017 353.068 958.287 348.861C959.713 344.164 960.588 337.309 957.915 329.352C954.428 318.998 940.527 313.389 940.527 313.389C940.527 313.389 945.296 299.823 934.091 287.193C928.507 280.889 919.879 279.223 912.652 279.127C911.382 283.286 909.68 285.73 909.68 285.73C909.68 285.73 919.891 295.737 920.154 309.542C920.55 329.555 901.34 333.594 901.34 333.594L901.555 334.013C901.975 334.864 902.91 337.009 903.497 340.017C904.551 345.338 904.491 353.367 898.476 361.696C888.936 374.926 877.228 373.141 875.203 372.721C874.999 372.685 874.891 372.661 874.891 372.661C874.891 372.661 875.862 391.715 858.941 397.659C841.313 403.843 831.067 394.807 831.067 394.807C831.067 394.807 822.738 409.332 808.213 408.385C801.478 407.942 795.906 405.149 791.891 402.273C787.242 398.954 784.641 395.526 784.641 395.526C784.641 395.526 779.177 397.851 771.914 397.995C772.034 394.568 771.615 390.685 770.201 386.502C766.713 376.148 752.812 370.54 752.812 370.54C752.812 370.54 754.622 365.387 753.387 358.484C753.052 356.579 752.477 354.542 751.578 352.444C750.523 349.976 749.001 347.423 746.856 344.907C746.856 344.907 746.856 344.907 746.856 344.895C746.7 344.715 746.545 344.535 746.389 344.355C740.804 338.052 732.176 336.386 724.95 336.29C723.679 340.449 721.978 342.893 721.978 342.893C721.978 342.893 732.188 352.9 732.452 366.705C732.5 368.886 732.308 370.876 731.936 372.685C728.904 387.533 713.637 390.745 713.637 390.745L713.853 391.164C714.272 392.015 715.207 394.16 715.806 397.168C716.849 402.489 716.801 410.518 710.785 418.847C701.246 432.077 689.538 430.291 687.512 429.872C687.309 429.836 687.201 429.812 687.201 429.812C687.201 429.812 688.171 448.866 671.25 454.81C653.622 461.006 643.376 451.958 643.376 451.958C643.376 451.958 635.047 466.483 620.523 465.524C613.788 465.08 608.227 462.288 604.201 459.412C599.551 456.093 596.938 452.665 596.938 452.665C596.938 452.665 591.678 454.894 584.619 455.122C584.763 451.635 584.355 447.68 582.917 443.39C579.43 433.036 565.529 427.439 565.529 427.439C565.529 427.439 567.35 422.238 566.092 415.288C565.828 413.79 565.409 412.232 564.81 410.614C563.683 407.582 561.886 404.382 559.106 401.255C558.974 401.111 558.842 400.967 558.698 400.823C553.114 394.879 544.725 393.285 537.654 393.189C536.384 397.348 534.682 399.793 534.682 399.793C534.682 399.793 544.893 409.799 545.156 423.604C545.204 425.917 544.989 428.014 544.569 429.92C541.369 444.492 526.342 447.656 526.342 447.656L526.557 448.075C526.977 448.926 527.912 451.071 528.511 454.079C529.553 459.4 529.505 467.429 523.49 475.758C513.95 488.988 502.242 487.203 500.217 486.783C500.013 486.747 499.905 486.723 499.905 486.723C499.905 486.723 500.876 505.79 483.955 511.722C466.327 517.905 456.081 508.869 456.081 508.869C456.081 508.869 447.752 523.394 433.227 522.447C426.492 522.004 420.932 519.211 416.905 516.335C412.256 513.016 409.643 509.588 409.643 509.588C409.643 509.588 404.179 511.913 396.916 512.057C397.036 508.63 396.617 504.747 395.203 500.565C391.715 490.211 377.814 484.602 377.814 484.602C377.814 484.602 379.624 479.449 378.389 472.546C378.054 470.641 377.479 468.592 376.568 466.495C375.513 464.026 373.991 461.485 371.858 458.957C371.702 458.777 371.547 458.597 371.391 458.417C365.806 452.114 357.178 450.448 349.952 450.352C348.681 454.511 346.98 456.955 346.98 456.955C346.98 456.955 357.19 466.962 357.454 480.767C357.502 482.948 357.31 484.938 356.938 486.747C353.906 501.607 338.639 504.819 338.639 504.819L338.855 505.238C339.274 506.089 340.209 508.234 340.808 511.23C341.851 516.551 341.803 524.58 335.787 532.909C326.248 546.139 314.54 544.354 312.514 543.934C312.311 543.898 312.203 543.874 312.203 543.874C312.203 543.874 313.173 562.928 296.252 568.872C278.624 575.068 268.378 566.02 268.378 566.02C268.378 566.02 260.049 580.545 245.525 579.598C238.79 579.155 233.229 576.362 229.203 573.486C224.553 570.167 221.941 566.739 221.941 566.739C221.941 566.739 206.23 573.414 192.652 564.834C186.564 560.987 183.532 556.373 182.058 552.455V552.479C184.875 568.249 199.818 574.253 200.154 574.397C200.154 574.397 192.293 592.493 201.58 605.112C209.549 615.957 222.108 614.495 225.488 613.872L226.339 613.692C226.339 613.692 225.703 618.414 228.424 624.046C230.101 627.533 233.061 631.368 238.25 634.64C251.816 643.22 267.539 636.545 267.539 636.545C267.539 636.545 276.587 648.457 291.111 649.404C305.636 650.362 313.964 635.838 313.964 635.838C313.964 635.838 324.199 644.886 341.827 638.69C358.748 632.746 357.777 613.692 357.777 613.692C357.777 613.692 357.885 613.728 358.089 613.752C360.114 614.183 371.822 615.957 381.361 602.727C390.757 589.688 385.604 577.429 384.429 575.044L384.214 574.625C384.214 574.625 399.481 571.413 402.513 556.553C402.884 554.743 403.076 552.754 403.028 550.573C402.753 536.768 392.554 526.761 392.554 526.761C392.554 526.761 394.28 524.281 395.55 520.074C402.848 520.122 411.656 521.74 417.337 528.139C417.493 528.319 417.648 528.499 417.804 528.679C419.949 531.207 421.459 533.76 422.526 536.228C423.437 538.326 424 540.375 424.335 542.28C425.57 549.183 423.76 554.336 423.76 554.336C423.76 554.336 437.661 559.944 441.149 570.287C442.563 574.505 442.982 578.412 442.862 581.851C449.945 581.635 455.23 579.394 455.23 579.394C455.23 579.394 464.277 591.306 478.814 592.253C493.338 593.212 501.667 578.687 501.667 578.687C501.667 578.687 511.913 587.735 529.541 581.539C546.463 575.595 545.492 556.541 545.492 556.541C545.492 556.541 545.6 556.577 545.803 556.601C547.817 557.032 559.525 558.806 569.076 545.576C578.471 532.537 573.306 520.278 572.144 517.893L571.928 517.474C571.928 517.474 586.968 514.31 590.156 499.738C590.575 497.832 590.791 495.735 590.743 493.422C590.467 479.617 580.269 469.61 580.269 469.61C580.269 469.61 581.995 467.13 583.265 462.923C590.395 462.971 598.976 464.517 604.644 470.557C604.788 470.701 604.908 470.845 605.04 470.988C607.82 474.128 609.617 477.316 610.744 480.348C611.343 481.966 611.762 483.536 612.026 485.022C613.284 491.972 611.463 497.173 611.463 497.173C611.463 497.173 625.364 502.782 628.851 513.124C630.301 517.438 630.709 521.428 630.553 524.928C637.432 524.64 642.501 522.483 642.501 522.483C642.501 522.483 651.549 534.395 666.085 535.342C680.61 536.3 688.938 521.776 688.938 521.776C688.938 521.776 699.184 530.824 716.813 524.628C733.734 518.684 732.763 499.63 732.763 499.63C732.763 499.63 732.871 499.666 733.075 499.702C735.088 500.121 746.796 501.907 756.347 488.677C765.743 475.638 760.59 463.379 759.415 460.994L759.199 460.575C759.199 460.575 774.455 457.363 777.499 442.515C777.882 440.705 778.062 438.704 778.014 436.535C777.75 422.73 767.54 412.723 767.54 412.723C767.54 412.723 769.266 410.242 770.536 406.036C777.834 406.084 786.642 407.702 792.323 414.101C792.479 414.281 792.634 414.461 792.79 414.641C794.935 417.157 796.457 419.71 797.512 422.178C798.423 424.288 798.986 426.325 799.333 428.23C800.568 435.133 798.758 440.286 798.758 440.286C798.758 440.286 812.659 445.894 816.147 456.236C817.561 460.455 817.992 464.361 817.848 467.801C824.931 467.585 830.216 465.344 830.216 465.344C830.216 465.344 839.275 477.256 853.8 478.203C868.324 479.161 876.653 464.637 876.653 464.637C876.653 464.637 886.899 473.685 904.527 467.489C921.449 461.545 920.478 442.491 920.478 442.491C920.478 442.491 920.586 442.527 920.789 442.551C922.803 442.982 934.511 444.756 944.062 431.526C953.457 418.487 948.292 406.228 947.13 403.843L946.914 403.424C946.914 403.424 966.136 399.385 965.729 379.372M194.833 187.319C193.143 185.402 191.334 182.849 190.099 179.769C192.245 182.298 193.767 184.851 194.833 187.319ZM783.946 100.233C783.67 86.4274 773.472 76.4209 773.472 76.4209C773.472 76.4209 775.174 73.9643 776.456 69.7819C777.894 65.0842 778.781 58.2055 776.097 50.2243C772.609 39.8703 758.708 34.2618 758.708 34.2618C758.708 34.2618 763.478 20.6961 752.273 8.06519C746.497 1.54598 737.461 -0.0119154 730.079 6.84223e-05C728.916 3.11586 727.682 4.90145 727.682 4.90145C727.682 4.90145 737.892 14.9079 738.156 28.7133C738.551 48.7263 719.341 52.7649 719.341 52.7649L719.557 53.1843C720.024 54.143 721.139 56.6956 721.702 60.2667C722.529 65.5636 722.11 73.0775 716.489 80.8669C706.95 94.0971 695.242 92.3115 693.216 91.8921C693.013 91.8561 692.905 91.8321 692.905 91.8321C692.905 91.8321 693.876 110.886 676.955 116.83C659.326 123.014 649.08 113.978 649.08 113.978C649.08 113.978 640.751 128.503 626.227 127.544C619.54 127.101 614.015 124.344 610.001 121.492C605.291 118.149 602.655 114.685 602.655 114.685C602.655 114.685 597.298 116.962 590.132 117.142C590.072 114.158 589.58 110.874 588.406 107.363C584.919 97.0092 571.017 91.4127 571.017 91.4127C571.017 91.4127 572.827 86.2597 571.593 79.357C571.257 77.4515 570.682 75.4143 569.771 73.3051C568.081 71.3877 566.284 68.8472 565.049 65.7673C564.894 65.5876 564.738 65.4078 564.582 65.228C558.794 58.6969 549.758 57.139 542.376 57.1629C541.214 60.2667 539.979 62.0523 539.979 62.0523C539.979 62.0523 550.19 72.0588 550.453 85.8642C550.501 88.0453 550.309 90.0346 549.938 91.8441C546.906 106.704 531.639 109.916 531.639 109.916L531.854 110.335C532.322 111.294 533.436 113.846 533.999 117.418C534.826 122.714 534.407 130.228 528.786 138.018C519.247 151.248 507.539 149.462 505.514 149.043C505.31 149.007 505.202 148.983 505.202 148.983C505.202 148.983 506.173 168.049 489.252 173.981C471.624 180.177 461.377 171.129 461.377 171.129C461.377 171.129 453.049 185.654 438.524 184.707C431.837 184.263 426.313 181.507 422.298 178.655C417.588 175.312 414.952 171.848 414.952 171.848C414.952 171.848 409.799 174.029 402.848 174.293C402.812 171.249 402.333 167.87 401.123 164.274C397.635 153.92 383.734 148.312 383.734 148.312C383.734 148.312 385.556 143.111 384.297 136.16C384.022 134.674 383.614 133.104 383.015 131.487C381.889 128.455 380.091 125.267 377.311 122.127C377.179 121.983 377.047 121.84 376.915 121.696C371.115 115.524 362.319 114.038 355.117 114.05C353.954 117.166 352.72 118.952 352.72 118.952C352.72 118.952 362.93 128.958 363.194 142.763C363.242 145.076 363.026 147.173 362.607 149.079C359.407 163.651 344.379 166.815 344.379 166.815L344.595 167.234C345.062 168.193 346.177 170.746 346.728 174.317C347.555 179.614 347.136 187.128 341.515 194.917C331.976 208.147 320.268 206.362 318.243 205.942C318.039 205.906 317.931 205.882 317.931 205.882C317.931 205.882 318.902 224.937 301.981 230.881C284.352 237.064 274.106 228.028 274.106 228.028C274.106 228.028 265.777 242.553 251.253 241.606C244.566 241.163 239.041 238.406 235.027 235.554C230.317 232.211 227.681 228.747 227.681 228.747C227.681 228.747 222.312 231.024 215.158 231.204C215.098 228.22 214.606 224.925 213.432 221.425C209.945 211.071 196.043 205.475 196.043 205.475C196.043 205.475 197.853 200.322 196.619 193.419C196.283 191.514 195.708 189.476 194.809 187.367C193.119 185.45 191.31 182.897 190.076 179.817C189.92 179.638 189.764 179.458 189.608 179.278C183.82 172.747 174.784 171.189 167.402 171.213C166.24 174.329 165.005 176.114 165.005 176.114C165.005 176.114 175.216 186.121 175.479 199.926C175.527 202.107 175.335 204.097 174.964 205.906C171.932 220.754 156.665 223.966 156.665 223.966L156.88 224.385C157.348 225.344 158.462 227.897 159.013 231.468C159.84 236.765 159.421 244.278 153.8 252.068C144.261 265.298 132.553 263.512 130.528 263.093C130.324 263.057 130.216 263.021 130.216 263.021C130.216 263.021 131.187 282.087 114.266 288.019C96.6376 294.215 86.3914 285.167 86.3914 285.167C86.3914 285.167 78.0627 299.692 63.5383 298.745C56.8513 298.302 51.3267 295.545 47.3122 292.693C42.6025 289.35 39.9661 285.886 39.9661 285.886C39.9661 285.886 24.2553 292.561 10.6776 283.981C4.48195 280.062 1.46203 275.364 0 271.398C0.0599191 272.033 0.143806 272.68 0.263644 273.339C3.09183 289.11 18.0237 295.114 18.3592 295.258C18.3592 295.258 10.4978 313.353 19.7853 325.972C27.7545 336.818 40.3136 335.356 43.693 334.732L44.5559 334.553C44.5559 334.553 44.1125 337.812 45.5266 342.138C46.8688 346.249 49.8647 351.318 56.4678 355.5C70.0335 364.081 85.7563 357.406 85.7563 357.406C85.7563 357.406 88.1171 360.522 92.3714 363.685C96.4339 366.717 102.234 369.797 109.328 370.264C123.853 371.223 132.182 356.687 132.182 356.687C132.182 356.687 142.428 365.735 160.056 359.539C176.977 353.595 176.007 334.541 176.007 334.541C176.007 334.541 176.114 334.577 176.318 334.613C178.343 335.044 190.052 336.818 199.591 323.587C205.87 314.875 205.654 306.498 204.468 301.202C203.881 298.577 203.054 296.696 202.671 295.905L202.455 295.485C202.455 295.485 217.71 292.274 220.754 277.414C221.126 275.592 221.317 273.603 221.269 271.434C220.994 257.628 210.796 247.622 210.796 247.622C210.796 247.622 212.497 245.165 213.78 240.983C220.97 241.103 229.478 242.804 235.015 249.048C235.171 249.228 235.326 249.396 235.482 249.587C237.627 252.116 239.149 254.68 240.216 257.149C241.127 259.246 241.69 261.295 242.025 263.189C243.26 270.092 241.45 275.245 241.45 275.245C241.45 275.245 255.351 280.853 258.839 291.207C260.253 295.413 260.672 299.308 260.552 302.748C267.91 302.64 273.483 300.279 273.483 300.279C273.483 300.279 275.844 303.395 280.098 306.558C284.161 309.59 289.961 312.67 297.055 313.137C311.58 314.096 319.908 299.56 319.908 299.56C319.908 299.56 330.154 308.608 347.783 302.412C364.704 296.468 363.733 277.414 363.733 277.414C363.733 277.414 363.841 277.45 364.045 277.474C366.058 277.905 377.766 279.679 387.317 266.449C393.597 257.736 393.381 249.36 392.183 244.063C391.596 241.438 390.769 239.557 390.385 238.766L390.169 238.346C390.169 238.346 405.197 235.183 408.397 220.61C408.816 218.705 409.032 216.608 408.984 214.295C408.708 200.49 398.51 190.483 398.51 190.483C398.51 190.483 400.212 188.026 401.494 183.844C408.517 183.964 416.798 185.582 422.334 191.478C422.466 191.621 422.598 191.765 422.73 191.909C425.51 195.037 427.307 198.237 428.434 201.268C428.434 201.268 428.434 201.268 428.434 201.28C429.033 202.898 429.44 204.468 429.716 205.954C430.986 212.905 429.153 218.106 429.153 218.106C429.153 218.106 443.054 223.714 446.541 234.068C447.991 238.37 448.399 242.349 448.243 245.848C455.397 245.657 460.754 243.392 460.754 243.392C460.754 243.392 463.115 246.507 467.369 249.671C471.432 252.703 477.232 255.795 484.338 256.25C498.863 257.209 507.192 242.673 507.192 242.673C507.192 242.673 517.438 251.72 535.066 245.525C551.987 239.581 551.016 220.526 551.016 220.526C551.016 220.526 551.124 220.562 551.328 220.598C553.353 221.018 565.061 222.803 574.601 209.573C580.892 200.861 580.664 192.484 579.466 187.187C578.879 184.563 578.052 182.682 577.668 181.903L577.453 181.483C577.453 181.483 592.72 178.272 595.752 163.412C596.124 161.602 596.315 159.613 596.267 157.432C595.992 143.626 585.793 133.62 585.793 133.62C585.793 133.62 587.507 131.163 588.777 126.981C595.968 127.101 604.476 128.802 610.013 135.046C610.169 135.226 610.324 135.393 610.48 135.573C612.625 138.102 614.147 140.666 615.202 143.135C616.113 145.232 616.676 147.281 617.011 149.175C618.246 156.077 616.436 161.23 616.436 161.23C616.436 161.23 630.337 166.839 633.825 177.181C635.239 181.387 635.658 185.282 635.526 188.721C642.884 188.614 648.457 186.253 648.457 186.253C648.457 186.253 650.818 189.369 655.072 192.532C659.147 195.564 664.935 198.656 672.041 199.111C686.565 200.07 694.894 185.546 694.894 185.546C694.894 185.546 705.14 194.593 722.769 188.398C739.69 182.454 738.719 163.4 738.719 163.4C738.719 163.4 738.827 163.436 739.031 163.459C741.056 163.879 752.752 165.665 762.303 152.434C768.595 143.722 768.367 135.345 767.169 130.049C766.582 127.424 765.755 125.543 765.371 124.764L765.155 124.344C765.155 124.344 784.366 120.306 783.97 100.293" fill="#E51713"/>
<path d="M944.627 740.224L944.843 740.644C945.238 741.447 946.101 743.4 946.688 746.144C947.827 751.453 947.97 759.722 941.775 768.327C932.236 781.557 920.527 779.771 918.502 779.352C918.298 779.316 918.191 779.28 918.191 779.28C918.191 779.28 919.161 798.346 902.24 804.278C884.612 810.474 874.366 801.426 874.366 801.426C874.366 801.426 866.037 815.95 851.513 814.992C844.502 814.536 838.774 811.528 834.723 808.544C830.361 805.333 827.94 802.133 827.94 802.133C827.94 802.133 822.38 804.494 815.022 804.602C815.142 801.162 814.722 797.267 813.308 793.073C809.821 782.719 795.92 777.111 795.92 777.111C795.92 777.111 797.729 771.958 796.495 765.055C796.159 763.15 795.584 761.112 794.685 759.015C793.619 756.546 792.109 753.994 789.952 751.465C789.796 751.286 789.64 751.106 789.484 750.926C783.948 744.682 775.439 742.981 768.249 742.861C766.967 747.031 765.265 749.5 765.265 749.5C765.265 749.5 775.475 759.506 775.739 773.312C775.787 775.493 775.595 777.482 775.223 779.292C772.192 794.152 756.924 797.363 756.924 797.363L757.14 797.783C757.535 798.586 758.398 800.539 758.985 803.283C760.136 808.592 760.28 816.861 754.072 825.465C744.533 838.696 732.825 836.91 730.799 836.491C730.596 836.455 730.488 836.431 730.488 836.431C730.488 836.431 731.459 855.485 714.537 861.429C696.909 867.625 686.675 858.577 686.675 858.577C686.675 858.577 678.346 873.101 663.822 872.142C656.811 871.687 651.083 868.679 647.032 865.683C642.67 862.471 640.25 859.272 640.25 859.272C640.25 859.272 634.893 861.549 627.738 861.728C627.894 858.229 627.487 854.251 626.037 849.948C622.549 839.594 608.648 833.998 608.648 833.998C608.648 833.998 610.47 828.797 609.211 821.846C608.936 820.36 608.528 818.79 607.929 817.173C606.803 814.141 605.005 810.941 602.225 807.813C602.093 807.669 601.961 807.526 601.817 807.382C596.281 801.498 588 799.868 580.99 799.748C579.707 803.919 578.006 806.387 578.006 806.387C578.006 806.387 588.216 816.394 588.479 830.199C588.527 832.512 588.312 834.609 587.892 836.515C584.693 851.087 569.665 854.251 569.665 854.251L569.881 854.67C570.276 855.473 571.139 857.426 571.726 860.159C572.877 865.467 573.02 873.736 566.813 882.341C557.274 895.571 545.565 893.785 543.54 893.366C543.336 893.33 543.229 893.306 543.229 893.306C543.229 893.306 544.199 912.36 527.278 918.304C509.65 924.5 499.404 915.452 499.404 915.452C499.404 915.452 491.075 929.976 476.55 929.018C469.54 928.562 463.812 925.554 459.761 922.558C455.399 919.347 452.978 916.147 452.978 916.147C452.978 916.147 447.418 918.508 440.048 918.616C440.168 915.188 439.748 911.294 438.334 907.087C434.847 896.733 420.946 891.125 420.946 891.125C420.946 891.125 422.755 885.972 421.521 879.069C421.185 877.164 420.61 875.126 419.699 873.017C418.645 870.549 417.123 867.996 414.978 865.479C414.822 865.3 414.666 865.12 414.51 864.94C408.974 858.697 400.465 856.995 393.275 856.875C391.993 861.045 390.291 863.514 390.291 863.514C390.291 863.514 400.501 873.521 400.765 887.326C400.813 889.507 400.621 891.496 400.249 893.306C397.218 908.166 381.95 911.377 381.95 911.377L382.166 911.797C382.561 912.6 383.424 914.553 384.011 917.286C385.162 922.594 385.306 930.863 379.098 939.468C369.559 952.698 357.851 950.912 355.825 950.493C355.622 950.457 355.514 950.433 355.514 950.433C355.514 950.433 356.485 969.499 339.563 975.431C321.935 981.627 311.689 972.579 311.689 972.579C311.689 972.579 303.36 987.103 288.836 986.157C281.825 985.701 276.097 982.693 272.034 979.697C267.672 976.486 265.252 973.286 265.252 973.286C265.252 973.286 249.541 979.961 235.963 971.381C229.36 967.21 226.364 962.141 225.022 958.031C223.62 953.692 224.051 950.445 224.051 950.445L223.2 950.625C219.821 951.248 207.274 952.71 199.293 941.864C190.005 929.245 197.867 911.15 197.867 911.15C197.531 911.018 182.599 905.014 179.771 889.243C179.711 888.932 179.663 888.608 179.627 888.309C180.969 892.407 183.965 897.464 190.556 901.623C204.134 910.203 219.845 903.528 219.845 903.528C219.845 903.528 222.206 906.644 226.46 909.808C230.523 912.84 236.323 915.919 243.417 916.387C257.942 917.345 266.27 902.809 266.27 902.809C266.27 902.809 276.516 911.857 294.145 905.661C311.066 899.717 310.095 880.663 310.095 880.663C310.095 880.663 310.203 880.699 310.407 880.723C312.432 881.154 324.14 882.928 333.679 869.698C339.959 860.985 339.743 852.609 338.557 847.312C337.97 844.676 337.143 842.806 336.759 842.015L336.543 841.596C336.543 841.596 351.799 838.384 354.843 823.524C355.214 821.714 355.406 819.713 355.358 817.544C355.094 803.739 344.884 793.732 344.884 793.732C344.884 793.732 346.586 791.276 347.868 787.105C355.058 787.225 363.579 788.915 369.104 795.17C369.259 795.35 369.415 795.53 369.571 795.71C371.716 798.238 373.238 800.779 374.292 803.247C375.203 805.357 375.767 807.394 376.114 809.299C377.348 816.202 375.539 821.355 375.539 821.355C375.539 821.355 389.44 826.963 392.927 837.305C394.341 841.512 394.761 845.407 394.641 848.834C401.999 848.726 407.56 846.365 407.56 846.365C407.56 846.365 409.92 849.481 414.175 852.645C418.237 855.677 424.037 858.757 431.132 859.224C445.656 860.183 453.985 845.646 453.985 845.646C453.985 845.646 464.231 854.694 481.859 848.498C498.78 842.554 497.81 823.5 497.81 823.5C497.81 823.5 497.918 823.536 498.121 823.56C500.147 823.991 511.843 825.765 521.394 812.535C527.674 803.823 527.446 795.446 526.259 790.149C525.672 787.525 524.845 785.643 524.462 784.852L524.246 784.433C524.246 784.433 539.286 781.269 542.474 766.697C542.893 764.791 543.109 762.694 543.061 760.381C542.785 746.576 532.587 736.569 532.587 736.569C532.587 736.569 534.289 734.113 535.571 729.93C542.581 730.05 550.874 731.668 556.411 737.552C556.555 737.696 556.686 737.84 556.818 737.995C559.598 741.135 561.396 744.335 562.534 747.367C563.134 748.985 563.541 750.543 563.817 752.029C565.087 758.979 563.253 764.18 563.253 764.18C563.253 764.18 577.155 769.789 580.642 780.131C582.092 784.433 582.5 788.411 582.344 791.911C589.498 791.719 594.855 789.454 594.855 789.454C594.855 789.454 597.216 792.57 601.47 795.734C605.532 798.765 611.333 801.845 618.427 802.313C632.951 803.271 641.28 788.747 641.28 788.747C641.28 788.747 651.526 797.795 669.155 791.599C686.076 785.655 685.105 766.601 685.105 766.601C685.105 766.601 685.213 766.637 685.417 766.661C687.442 767.092 699.138 768.866 708.689 755.636C714.969 746.923 714.753 738.559 713.567 733.25C712.979 730.625 712.153 728.744 711.769 727.953L711.553 727.534C711.553 727.534 726.809 724.322 729.853 709.462C730.236 707.652 730.416 705.663 730.38 703.482C730.104 689.677 719.906 679.67 719.906 679.67C719.906 679.67 721.608 677.213 722.89 673.043C730.08 673.163 738.589 674.865 744.125 681.108C744.281 681.288 744.437 681.468 744.593 681.648C746.738 684.176 748.26 686.729 749.314 689.185C750.225 691.294 750.788 693.332 751.136 695.237C752.37 702.14 750.561 707.293 750.561 707.293C750.561 707.293 764.462 712.901 767.949 723.255C769.363 727.462 769.783 731.356 769.663 734.784C777.021 734.676 782.582 732.315 782.582 732.315C782.582 732.315 784.942 735.431 789.197 738.595C793.271 741.627 799.059 744.706 806.154 745.174C820.678 746.132 829.007 731.608 829.007 731.608C829.007 731.608 839.253 740.656 856.881 734.46C873.802 728.516 872.832 709.462 872.832 709.462C872.832 709.462 872.94 709.498 873.143 709.522C875.157 709.941 886.865 711.727 896.416 698.497C902.695 689.785 902.48 681.42 901.293 676.111C900.706 673.487 899.879 671.605 899.496 670.814L899.28 670.395C899.28 670.395 918.502 666.356 918.095 646.343C917.819 632.538 907.621 622.531 907.621 622.531C907.621 622.531 909.322 620.075 910.605 615.892C917.795 616.012 926.304 617.714 931.84 623.957C943.033 636.576 938.275 650.154 938.275 650.154C938.275 650.154 952.177 655.762 955.664 666.104C958.348 674.098 957.461 680.964 956.023 685.674C954.741 689.844 953.039 692.301 953.039 692.301C953.039 692.301 963.25 702.308 963.513 716.113C963.909 736.126 944.699 740.165 944.699 740.165M1054.45 855.761C1054.17 841.955 1043.96 831.949 1043.96 831.949C1043.96 831.949 1045.69 829.468 1046.96 825.262C1048.38 820.564 1049.26 813.709 1046.59 805.752C1043.1 795.398 1029.2 789.79 1029.2 789.79C1029.2 789.79 1033.97 776.224 1022.76 763.593C1017.18 757.289 1008.55 755.624 1001.32 755.528C1000.05 759.686 998.35 762.131 998.35 762.131C998.35 762.131 1008.56 772.137 1008.82 785.943C1009.22 805.956 990.01 809.994 990.01 809.994L990.225 810.414C990.645 811.265 991.579 813.41 992.167 816.418C993.221 821.738 993.161 829.768 987.145 838.096C977.606 851.327 965.898 849.541 963.873 849.121C963.669 849.086 963.561 849.062 963.561 849.062C963.561 849.062 964.532 868.116 947.611 874.06C929.983 880.243 919.736 871.208 919.736 871.208C919.736 871.208 911.408 885.732 896.883 884.785C890.148 884.342 884.576 881.55 880.561 878.674C875.912 875.354 873.311 871.927 873.311 871.927C873.311 871.927 867.846 874.252 860.584 874.395C860.704 870.968 860.285 867.085 858.871 862.903C855.383 852.549 841.482 846.94 841.482 846.94C841.482 846.94 843.292 841.787 842.057 834.885C841.722 832.979 841.146 830.942 840.248 828.845C839.193 826.376 837.671 823.824 835.526 821.307C835.526 821.307 835.526 821.307 835.526 821.295C835.37 821.115 835.215 820.936 835.059 820.756C829.474 814.452 820.846 812.787 813.62 812.691C812.349 816.849 810.648 819.294 810.648 819.294C810.648 819.294 820.858 829.3 821.122 843.106C821.169 845.287 820.978 847.276 820.606 849.086C817.574 863.933 802.307 867.145 802.307 867.145L802.523 867.565C802.942 868.415 803.877 870.561 804.476 873.569C805.519 878.889 805.471 886.919 799.455 895.247C789.916 908.477 778.207 906.692 776.182 906.272C775.978 906.236 775.871 906.212 775.871 906.212C775.871 906.212 776.841 925.267 759.92 931.211C742.292 937.406 732.046 928.359 732.046 928.359C732.046 928.359 723.717 942.883 709.193 941.924C702.458 941.481 696.897 938.689 692.871 935.812C688.221 932.493 685.608 929.066 685.608 929.066C685.608 929.066 680.347 931.295 673.289 931.522C673.433 928.035 673.025 924.08 671.587 919.79C668.1 909.436 654.199 903.84 654.199 903.84C654.199 903.84 656.02 898.639 654.762 891.688C654.498 890.19 654.079 888.632 653.48 887.014C652.353 883.982 650.556 880.783 647.775 877.655C647.644 877.511 647.512 877.367 647.368 877.224C641.784 871.28 633.395 869.686 626.324 869.59C625.054 873.748 623.352 876.193 623.352 876.193C623.352 876.193 633.563 886.199 633.826 900.005C633.874 902.318 633.658 904.415 633.239 906.32C630.039 920.893 615.012 924.056 615.012 924.056L615.227 924.476C615.647 925.327 616.582 927.472 617.181 930.48C618.223 935.801 618.175 943.83 612.159 952.158C602.62 965.389 590.912 963.603 588.887 963.184C588.683 963.148 588.575 963.124 588.575 963.124C588.575 963.124 589.546 982.19 572.625 988.122C554.997 994.306 544.75 985.27 544.75 985.27C544.75 985.27 536.422 999.794 521.897 998.847C515.162 998.404 509.602 995.612 505.575 992.736C500.926 989.416 498.313 985.989 498.313 985.989C498.313 985.989 492.848 988.314 485.586 988.457C485.706 985.03 485.287 981.147 483.873 976.965C480.385 966.611 466.484 961.003 466.484 961.003C466.484 961.003 468.294 955.849 467.059 948.947C466.724 947.041 466.149 944.992 465.238 942.895C464.183 940.426 462.661 937.886 460.528 935.357C460.372 935.177 460.217 934.998 460.061 934.818C454.476 928.514 445.848 926.849 438.622 926.753C437.351 930.911 435.65 933.356 435.65 933.356C435.65 933.356 445.86 943.362 446.124 957.168C446.171 959.349 445.98 961.338 445.608 963.148C442.576 978.008 427.309 981.219 427.309 981.219L427.525 981.639C427.944 982.49 428.879 984.635 429.478 987.631C430.521 992.951 430.473 1000.98 424.457 1009.31C414.918 1022.54 403.209 1020.75 401.184 1020.33C400.98 1020.3 400.873 1020.27 400.873 1020.27C400.873 1020.27 401.843 1039.33 384.922 1045.27C367.294 1051.47 357.048 1042.42 357.048 1042.42C357.048 1042.42 348.719 1056.95 334.195 1056C327.46 1055.55 321.899 1052.76 317.873 1049.89C313.223 1046.57 310.61 1043.14 310.61 1043.14C310.61 1043.14 294.9 1049.81 281.322 1041.23C275.234 1037.39 272.202 1032.77 270.728 1028.85V1028.88C273.544 1044.65 288.488 1050.65 288.824 1050.8C288.824 1050.8 280.962 1068.89 290.25 1081.51C298.219 1092.36 310.778 1090.9 314.158 1090.27L315.009 1090.09C315.009 1090.09 314.373 1094.81 317.094 1100.45C318.771 1103.93 321.731 1107.77 326.92 1111.04C340.486 1119.62 356.209 1112.95 356.209 1112.95C356.209 1112.95 365.257 1124.86 379.781 1125.8C394.305 1126.76 402.634 1112.24 402.634 1112.24C402.634 1112.24 412.868 1121.29 430.497 1115.09C447.418 1109.15 446.447 1090.09 446.447 1090.09C446.447 1090.09 446.555 1090.13 446.759 1090.15C448.784 1090.58 460.492 1092.36 470.031 1079.13C479.427 1066.09 474.274 1053.83 473.099 1051.44L472.883 1051.03C472.883 1051.03 488.151 1047.81 491.183 1032.95C491.554 1031.14 491.746 1029.15 491.698 1026.97C491.422 1013.17 481.224 1003.16 481.224 1003.16C481.224 1003.16 482.95 1000.68 484.22 996.475C491.518 996.523 500.326 998.14 506.007 1004.54C506.163 1004.72 506.318 1004.9 506.474 1005.08C508.619 1007.61 510.129 1010.16 511.196 1012.63C512.107 1014.73 512.67 1016.78 513.005 1018.68C514.24 1025.58 512.43 1030.74 512.43 1030.74C512.43 1030.74 526.331 1036.34 529.819 1046.69C531.233 1050.91 531.652 1054.81 531.532 1058.25C538.615 1058.04 543.9 1055.79 543.9 1055.79C543.9 1055.79 552.947 1067.71 567.484 1068.65C582.008 1069.61 590.337 1055.09 590.337 1055.09C590.337 1055.09 600.583 1064.14 618.211 1057.94C635.132 1052 634.162 1032.94 634.162 1032.94C634.162 1032.94 634.27 1032.98 634.473 1033C636.487 1033.43 648.195 1035.21 657.746 1021.98C667.141 1008.94 661.976 996.678 660.814 994.294L660.598 993.874C660.598 993.874 675.638 990.71 678.826 976.138C679.245 974.233 679.461 972.135 679.413 969.823C679.137 956.017 668.939 946.011 668.939 946.011C668.939 946.011 670.665 943.53 671.935 939.324C679.065 939.372 687.646 940.918 693.314 946.957C693.458 947.101 693.578 947.245 693.709 947.389C696.49 950.529 698.287 953.716 699.414 956.748C700.013 958.366 700.432 959.936 700.696 961.422C701.954 968.373 700.133 973.574 700.133 973.574C700.133 973.574 714.034 979.182 717.521 989.524C718.971 993.838 719.379 997.829 719.223 1001.33C726.102 1001.04 731.171 998.883 731.171 998.883C731.171 998.883 740.219 1010.8 754.755 1011.74C769.279 1012.7 777.608 998.176 777.608 998.176C777.608 998.176 787.854 1007.22 805.483 1001.03C822.404 995.085 821.433 976.03 821.433 976.03C821.433 976.03 821.541 976.066 821.745 976.102C823.758 976.522 835.466 978.307 845.017 965.077C854.413 952.039 849.26 939.779 848.085 937.394L847.869 936.975C847.869 936.975 863.125 933.763 866.169 918.915C866.552 917.106 866.732 915.104 866.684 912.935C866.42 899.13 856.21 889.124 856.21 889.124C856.21 889.124 857.936 886.643 859.206 882.437C866.504 882.484 875.312 884.102 880.993 890.502C881.148 890.681 881.304 890.861 881.46 891.041C883.605 893.558 885.127 896.11 886.182 898.579C887.092 900.688 887.656 902.725 888.003 904.631C889.238 911.533 887.428 916.686 887.428 916.686C887.428 916.686 901.329 922.295 904.817 932.637C906.231 936.855 906.662 940.762 906.518 944.201C913.601 943.985 918.886 941.745 918.886 941.745C918.886 941.745 927.945 953.656 942.47 954.603C956.994 955.562 965.323 941.037 965.323 941.037C965.323 941.037 975.569 950.085 993.197 943.89C1010.12 937.946 1009.15 918.891 1009.15 918.891C1009.15 918.891 1009.26 918.927 1009.46 918.951C1011.47 919.383 1023.18 921.156 1032.73 907.926C1042.13 894.888 1036.96 882.628 1035.8 880.243L1035.58 879.824C1035.58 879.824 1054.81 875.786 1054.4 855.773M283.503 663.72C281.813 661.802 280.004 659.25 278.769 656.17C280.915 658.698 282.436 661.251 283.503 663.72ZM872.616 576.633C872.34 562.828 862.142 552.821 862.142 552.821C862.142 552.821 863.844 550.365 865.126 546.182C866.564 541.485 867.451 534.606 864.767 526.625C861.279 516.271 847.378 510.662 847.378 510.662C847.378 510.662 852.148 497.097 840.943 484.466C835.167 477.946 826.131 476.388 818.749 476.4C817.586 479.516 816.352 481.302 816.352 481.302C816.352 481.302 826.562 491.308 826.826 505.114C827.221 525.127 808.011 529.165 808.011 529.165L808.227 529.585C808.694 530.543 809.809 533.096 810.372 536.667C811.199 541.964 810.779 549.478 805.159 557.267C795.62 570.497 783.912 568.712 781.886 568.292C781.683 568.257 781.575 568.233 781.575 568.233C781.575 568.233 782.546 587.287 765.624 593.231C747.996 599.414 737.75 590.379 737.75 590.379C737.75 590.379 729.421 604.903 714.897 603.944C708.21 603.501 702.685 600.745 698.671 597.893C693.961 594.549 691.325 591.086 691.325 591.086C691.325 591.086 685.968 593.363 678.802 593.542C678.742 590.558 678.25 587.275 677.076 583.764C673.589 573.41 659.687 567.813 659.687 567.813C659.687 567.813 661.497 562.66 660.263 555.757C659.927 553.852 659.352 551.815 658.441 549.706C656.751 547.788 654.954 545.248 653.719 542.168C653.564 541.988 653.408 541.808 653.252 541.628C647.464 535.097 638.428 533.539 631.046 533.563C629.884 536.667 628.649 538.453 628.649 538.453C628.649 538.453 638.859 548.459 639.123 562.265C639.171 564.446 638.979 566.435 638.608 568.245C635.576 583.104 620.308 586.316 620.308 586.316L620.524 586.736C620.992 587.694 622.106 590.247 622.669 593.818C623.496 599.115 623.077 606.629 617.456 614.418C607.917 627.648 596.209 625.863 594.184 625.443C593.98 625.407 593.872 625.383 593.872 625.383C593.872 625.383 594.843 644.45 577.922 650.382C560.293 656.577 550.047 647.53 550.047 647.53C550.047 647.53 541.719 662.054 527.194 661.107C520.507 660.664 514.983 657.908 510.968 655.055C506.258 651.712 503.622 648.249 503.622 648.249C503.622 648.249 498.469 650.43 491.518 650.693C491.482 647.649 491.003 644.27 489.793 640.675C486.305 630.321 472.404 624.712 472.404 624.712C472.404 624.712 474.226 619.511 472.967 612.561C472.692 611.075 472.284 609.505 471.685 607.887C470.559 604.855 468.761 601.667 465.981 598.528C465.849 598.384 465.717 598.24 465.585 598.096C459.785 591.925 450.989 590.439 443.787 590.451C442.624 593.566 441.39 595.352 441.39 595.352C441.39 595.352 451.6 605.358 451.864 619.164C451.912 621.477 451.696 623.574 451.277 625.479C448.077 640.052 433.049 643.215 433.049 643.215L433.265 643.635C433.732 644.594 434.847 647.146 435.398 650.717C436.225 656.014 435.805 663.528 430.185 671.317C420.646 684.548 408.938 682.762 406.912 682.343C406.709 682.307 406.601 682.283 406.601 682.283C406.601 682.283 407.572 701.337 390.65 707.281C373.022 713.465 362.776 704.429 362.776 704.429C362.776 704.429 354.447 718.953 339.923 718.006C333.236 717.563 327.711 714.807 323.697 711.955C318.987 708.611 316.351 705.148 316.351 705.148C316.351 705.148 310.982 707.425 303.828 707.604C303.768 704.62 303.276 701.325 302.102 697.826C298.615 687.472 284.713 681.875 284.713 681.875C284.713 681.875 286.523 676.722 285.289 669.819C284.953 667.914 284.378 665.877 283.479 663.768C281.789 661.85 279.98 659.298 278.745 656.218C278.59 656.038 278.434 655.858 278.278 655.679C272.49 649.147 263.454 647.589 256.072 647.613C254.91 650.729 253.675 652.515 253.675 652.515C253.675 652.515 263.885 662.521 264.149 676.327C264.197 678.508 264.005 680.497 263.634 682.307C260.602 697.155 245.335 700.366 245.335 700.366L245.55 700.786C246.018 701.744 247.132 704.297 247.683 707.868C248.51 713.165 248.091 720.679 242.47 728.468C232.931 741.698 221.223 739.913 219.198 739.493C218.994 739.457 218.886 739.422 218.886 739.422C218.886 739.422 219.857 758.488 202.936 764.42C185.308 770.615 175.061 761.568 175.061 761.568C175.061 761.568 166.733 776.092 152.208 775.145C145.521 774.702 139.997 771.946 135.982 769.093C131.272 765.75 128.636 762.287 128.636 762.287C128.636 762.287 112.925 768.962 99.3475 760.381C93.1519 756.463 90.1319 751.765 88.6699 747.798C88.7298 748.433 88.8137 749.08 88.9336 749.74C91.7617 765.51 106.694 771.514 107.029 771.658C107.029 771.658 99.1678 789.754 108.455 802.373C116.424 813.218 128.984 811.756 132.363 811.133L133.226 810.953C133.226 810.953 132.782 814.213 134.196 818.539C135.539 822.649 138.535 827.718 145.138 831.901C158.703 840.481 174.426 833.806 174.426 833.806C174.426 833.806 176.787 836.922 181.041 840.086C185.104 843.118 190.904 846.197 197.998 846.665C212.523 847.624 220.852 833.087 220.852 833.087C220.852 833.087 231.098 842.135 248.726 835.939C265.647 829.995 264.676 810.941 264.676 810.941C264.676 810.941 264.784 810.977 264.988 811.013C267.013 811.444 278.721 813.218 288.261 799.988C294.54 791.276 294.324 782.899 293.138 777.602C292.551 774.978 291.724 773.096 291.34 772.305L291.125 771.886C291.125 771.886 306.38 768.674 309.424 753.814C309.796 751.993 309.987 750.003 309.939 747.834C309.664 734.029 299.465 724.022 299.465 724.022C299.465 724.022 301.167 721.566 302.449 717.383C309.64 717.503 318.148 719.205 323.685 725.448C323.841 725.628 323.996 725.796 324.152 725.988C326.297 728.516 327.819 731.081 328.886 733.549C329.797 735.647 330.36 737.696 330.695 739.589C331.93 746.492 330.12 751.645 330.12 751.645C330.12 751.645 344.021 757.253 347.509 767.607C348.923 771.814 349.342 775.709 349.222 779.148C356.58 779.04 362.153 776.679 362.153 776.679C362.153 776.679 364.514 779.795 368.768 782.959C372.83 785.991 378.631 789.071 385.725 789.538C400.249 790.497 408.578 775.96 408.578 775.96C408.578 775.96 418.824 785.008 436.453 778.812C453.374 772.868 452.403 753.814 452.403 753.814C452.403 753.814 452.511 753.85 452.715 753.874C454.728 754.305 466.436 756.079 475.987 742.849C482.267 734.137 482.051 725.76 480.853 720.463C480.265 717.839 479.439 715.957 479.055 715.166L478.839 714.747C478.839 714.747 493.867 711.583 497.067 697.011C497.486 695.105 497.702 693.008 497.654 690.695C497.378 676.89 487.18 666.883 487.18 666.883C487.18 666.883 488.882 664.427 490.164 660.244C497.187 660.364 505.467 661.982 511.004 667.878C511.136 668.022 511.268 668.166 511.399 668.309C514.18 671.437 515.977 674.637 517.104 677.669C517.104 677.669 517.104 677.669 517.104 677.681C517.703 679.299 518.11 680.869 518.386 682.355C519.656 689.305 517.823 694.506 517.823 694.506C517.823 694.506 531.724 700.115 535.211 710.469C536.661 714.771 537.069 718.749 536.913 722.249C544.067 722.057 549.424 719.792 549.424 719.792C549.424 719.792 551.785 722.908 556.039 726.072C560.102 729.103 565.902 732.195 573.008 732.651C587.533 733.609 595.861 719.073 595.861 719.073C595.861 719.073 606.108 728.121 623.736 721.925C640.657 715.981 639.686 696.927 639.686 696.927C639.686 696.927 639.794 696.963 639.998 696.999C642.023 697.418 653.731 699.204 663.271 685.974C669.562 677.261 669.334 668.885 668.136 663.588C667.549 660.963 666.722 659.082 666.338 658.303L666.123 657.884C666.123 657.884 681.39 654.672 684.422 639.812C684.793 638.002 684.985 636.013 684.937 633.832C684.662 620.027 674.463 610.02 674.463 610.02C674.463 610.02 676.177 607.563 677.447 603.381C684.638 603.501 693.146 605.203 698.683 611.446C698.839 611.626 698.994 611.794 699.15 611.974C701.295 614.502 702.817 617.067 703.872 619.535C704.782 621.632 705.346 623.682 705.681 625.575C706.916 632.478 705.106 637.631 705.106 637.631C705.106 637.631 719.007 643.239 722.495 653.581C723.909 657.788 724.328 661.682 724.196 665.122C731.554 665.014 737.127 662.653 737.127 662.653C737.127 662.653 739.488 665.769 743.742 668.933C747.816 671.965 753.605 675.056 760.711 675.512C775.235 676.47 783.564 661.946 783.564 661.946C783.564 661.946 793.81 670.994 811.439 664.798C828.36 658.854 827.389 639.8 827.389 639.8C827.389 639.8 827.497 639.836 827.701 639.86C829.726 640.279 841.422 642.065 850.973 628.835C857.265 620.123 857.037 611.746 855.839 606.449C855.251 603.824 854.425 601.943 854.041 601.164L853.825 600.745C853.825 600.745 873.035 596.706 872.64 576.693" fill="#E51713"/>
</svg>
