<svg width="1952" height="528" viewBox="0 0 1952 528" fill="none" xmlns="http://www.w3.org/2000/svg">
<g clip-path="url(#clip0_3217_6239)">
<path d="M0 -599.038C0 -599.038 26.7048 -618.959 51.0681 -614.519C69.6815 -611.145 90.8734 -582.343 99.854 -568.904C101.425 -566.566 105.515 -567.217 106.434 -569.881C111.71 -584.918 128.13 -615.585 172.914 -606.29C231.629 -594.124 227.213 -576.423 260.439 -577.518C293.664 -578.613 333.558 -609.606 372.326 -599.66C400.187 -592.496 406.915 -554.459 408.456 -533.65C408.634 -531.311 413.228 -530.453 414.236 -532.554C423.839 -552.298 446.661 -588.293 485.31 -587.494C538.483 -586.398 593.878 -570.888 626.007 -583.054C658.136 -595.22 696.904 -615.141 736.798 -605.195C776.692 -595.249 777.789 -575.328 845.366 -588.589C887.513 -596.848 901.65 -613.306 906.333 -624.524C906.57 -625.116 911.905 -625.472 912.232 -624.88C919.73 -611.559 942.345 -593.325 1010.46 -610.701C1110.16 -636.158 1121.25 -565.352 1121.25 -565.352C1121.25 -565.352 1148.93 -598.535 1199.91 -584.178C1232.84 -574.884 1241.25 -553.571 1243.09 -539.659C1243.18 -539.007 1247.48 -538.238 1247.75 -538.83C1254.62 -553.571 1269.95 -576.097 1298.52 -573.108C1340.07 -568.727 1401.07 -560.054 1417.55 -618.367C1417.93 -619.699 1418.94 -620.084 1419.77 -618.959C1425.28 -611.352 1444.08 -581.81 1485.75 -596.344C1533.38 -612.95 1626.53 -653.829 1659.73 -617.213C1677.07 -598.061 1664.12 -580.656 1653.39 -571.065C1650.99 -568.934 1652.7 -564.375 1655.88 -564.849C1673.57 -567.513 1706.38 -574.528 1733.89 -592.111C1773.78 -617.568 1799.27 -635.27 1841.36 -619.759C1867.26 -610.227 1878.08 -598.18 1882.56 -590.306C1884.27 -587.286 1889.43 -585.925 1891.95 -588.293C1900.69 -596.581 1916.64 -610.464 1926.66 -612.003C1941.06 -614.223 1951.88 -612.003 1951.88 -612.003V-472.198C1951.88 -472.198 1928.88 -452.277 1880.13 -456.717C1846.6 -459.766 1825.14 -482.677 1815.01 -496.708C1813.11 -499.313 1807.18 -497.981 1806.47 -494.843C1803.36 -480.901 1794.35 -459.973 1768.24 -455.622C1728.34 -448.991 1725.02 -485.489 1675.17 -481.049C1625.32 -476.638 1576.56 -458.019 1525.61 -466.87C1491.11 -472.849 1476.44 -503.309 1470.57 -522.401C1469.59 -525.628 1463.1 -525.953 1461.89 -522.816C1453.38 -500.704 1433.61 -461.483 1398.22 -453.609C1348.37 -442.538 1321.78 -469.09 1298.52 -463.555C1281.45 -459.499 1271.55 -433.983 1267.46 -420.693C1266.63 -417.969 1262.42 -417.377 1260.76 -419.656C1251.57 -432.355 1227.89 -458.286 1185.5 -462.43C1129.01 -467.965 1119.02 -435.878 1055.89 -440.288C992.761 -444.699 982.772 -506.683 982.772 -506.683C982.772 -506.683 966.145 -472.376 929.6 -472.376C893.055 -472.376 853.161 -518.849 853.161 -518.849C853.161 -518.849 884.193 -458.7 818.809 -447.659C753.455 -436.588 745.69 -476.431 691.391 -477.526C651.348 -478.325 619.753 -443.041 605.912 -424.452C603.985 -421.847 598.205 -423.564 597.761 -426.79C595.33 -444.758 584.66 -474.418 540.706 -475.306C486.407 -476.401 487.533 -436.588 408.871 -435.463C330.387 -434.368 326.919 -512.959 288.388 -519.915C288.21 -519.944 288.062 -519.915 288.092 -519.737C288.21 -515.415 303.267 -452.839 230.533 -432.562C155.19 -411.546 113.103 -470.185 113.103 -470.185C113.103 -470.185 89.836 -445.232 58.8039 -437.476C27.8311 -429.75 0 -441.916 0 -441.916V-599.038ZM0 -302.762C0 -302.762 28.6313 -303.591 57.7369 -295.273C86.8129 -286.956 119.208 -294.445 120.068 -313.537C120.542 -324.401 115.355 -337.928 110.821 -347.608C109.427 -350.568 113.281 -354.15 116.067 -352.403C126.796 -345.713 142.979 -336.33 156.346 -331.239C194.343 -316.823 234.593 -323.72 270.338 -333.695C306.083 -343.641 353.565 -346.749 370.192 -317.681C381.633 -297.701 367.376 -278.638 357.358 -268.692C355.165 -266.531 356.884 -262.594 359.907 -263.186C373.897 -265.969 399.505 -273.191 424.194 -291.129C460.739 -317.681 470.728 -323.483 491.505 -324.312C512.282 -325.141 536.378 -304.39 536.378 -304.39C536.378 -304.39 566.284 -345.062 609.498 -343.375C652.712 -341.717 695.896 -304.391 739.969 -317.652C784.013 -330.913 808.109 -367.44 842.995 -354.978C864.72 -347.223 863.89 -331.416 860.185 -320.612C859.444 -318.421 863.297 -314.869 865.342 -315.994C880.399 -324.312 910.097 -337.1 946.02 -334.258C998.363 -330.114 1016.65 -299.566 1042.41 -311.199C1068.16 -322.802 1096.41 -342.724 1130.49 -332.778C1151.42 -326.65 1160.43 -314.603 1164.25 -306.226C1164.76 -305.131 1168.94 -305.219 1169.35 -306.374C1173.65 -318.865 1185.53 -339.26 1216.89 -336.922C1261.77 -333.607 1367.28 -290.892 1397.22 -309.985C1413.99 -320.671 1413.78 -332.423 1410.35 -340.681C1410.11 -341.273 1413.49 -344.707 1414.05 -344.411C1430.2 -335.412 1463.16 -321.677 1506.85 -327.42C1570.01 -335.738 1633.97 -340.711 1659.76 -321.618C1677.22 -308.683 1674.07 -291.958 1670.22 -282.486C1668.95 -279.348 1671.26 -275.885 1674.55 -276.743C1683.05 -278.963 1698.73 -284.232 1723.72 -296.724C1765.27 -317.474 1767.76 -322.447 1792.69 -316.645C1808.72 -312.916 1818.89 -301.963 1824.14 -294.622C1826.33 -291.544 1831.34 -290.981 1834.1 -293.557C1843.67 -302.555 1864.98 -318.421 1894.89 -316.616C1936.44 -314.129 1951.97 -305.811 1951.97 -305.811V-169.529C1951.97 -169.529 1926.48 -166.213 1899.86 -178.646C1875 -190.279 1869.04 -203.363 1849.36 -206.382C1847.02 -206.737 1844.44 -204.961 1843.52 -202.8C1838.45 -191.137 1819.6 -158.754 1772.74 -162.868C1726.59 -166.924 1717.02 -195.37 1715.07 -205.642C1714.71 -207.536 1712.81 -208.898 1710.98 -208.365C1703.74 -206.293 1686.94 -200.965 1673.04 -192.765C1654.75 -181.961 1599.92 -151.265 1550.89 -162.069C1501.87 -172.874 1538.42 -210.2 1524.31 -220.146C1510.2 -230.092 1458.66 -215.173 1437.05 -201.883C1420.66 -191.818 1397.13 -176.041 1386.69 -168.966C1383.55 -166.865 1379.4 -167.131 1376.41 -169.44C1364.26 -178.794 1331.06 -200.669 1291.64 -196.081C1241.79 -190.279 1218.52 -160.796 1152.87 -166.598C1105 -170.831 1082.09 -226.599 1073.17 -256.496C1073.08 -256.822 1069.5 -256.289 1069.5 -255.963C1068.22 -235.184 1058.74 -203.511 1014.93 -192.173C947.621 -174.738 882 -195.489 853.724 -189.687C836.326 -186.105 820.854 -176.574 811.488 -169.766C808.939 -167.901 804.375 -170.772 804.849 -173.91C806.983 -187.733 806.776 -209.579 785.554 -214.611C753.989 -222.07 730.722 -201.32 696.667 -206.323C674.911 -209.52 664.33 -219.465 659.529 -226.214C657.661 -228.849 653.127 -229.589 650.874 -227.25C636.885 -212.657 595.36 -174.886 542.958 -178.912C478.138 -183.885 490.616 -205.464 459.88 -205.464C429.144 -205.464 374.312 -146.558 287.884 -152.36C201.457 -158.162 211.445 -207.951 187.349 -209.608C163.252 -211.266 107.59 -170.624 63.5462 -172.252C19.5025 -173.91 0 -188.029 0 -188.029V-302.733L0 -302.762ZM0 -23.0929C0 -23.0929 51.0681 -24.7506 91.7922 -46.3297C132.516 -67.9088 147.454 -87.0014 178.19 -68.7376C200.627 -55.4172 202.702 -35.4365 202.198 -25.6386C202.05 -22.7969 204.51 -20.2217 207.325 -20.6953C216.484 -22.2641 234.267 -25.905 244.937 -31.9732C281.067 -52.5163 305.727 -50.7402 316.634 -45.2936C338.864 -34.1933 341.057 -18.9488 341.057 -18.9488C341.057 -18.9488 399.209 -62.9358 439.103 -52.1315C478.997 -41.3272 504.753 -19.7481 545.478 -23.9218C580.659 -27.5035 662.344 -69.5072 683.922 -80.8444C686.471 -82.206 689.701 -80.5188 690.472 -77.7363C693.11 -68.3824 700.994 -50.977 723.282 -47.9873C754.018 -43.8432 769.816 -50.4738 813.03 -38.8702C856.243 -27.2667 906.096 -16.4624 950.14 -25.5795C994.184 -34.6965 1025.75 -85.3141 1070.62 -83.6564C1115.5 -81.9988 1140.42 -62.0774 1144.57 -47.9873C1148.72 -33.8973 1146.23 -15.6336 1146.23 -15.6336C1146.23 -15.6336 1177.8 -63.7646 1208.56 -56.3052C1239.3 -48.8458 1248.46 -20.6361 1248.46 -20.6361C1248.46 -20.6361 1262.57 -39.7287 1295.82 -62.9654C1329.08 -86.2021 1338.2 -84.5445 1384.74 -88.6886C1416.1 -91.4711 1437.61 -107.84 1448.34 -118.201C1449.97 -119.799 1454.36 -117.638 1454.12 -115.359C1452.05 -95.3192 1454.92 -54.7067 1508.54 -40.5279C1580.83 -21.4353 1619.03 -105.265 1658.1 -98.6049C1697.16 -91.9743 1686.35 -40.5279 1686.35 -40.5279C1686.35 -40.5279 1712.1 -65.1855 1748.68 -60.4493C1782.73 -56.0092 1789.4 -36.3838 1789.4 -36.3838C1789.4 -36.3838 1806.86 -33.8973 1855.88 -57.9629C1904.9 -82.0284 1952 -58.7917 1952 -58.7917V110.703C1952 110.703 1914.86 119.82 1873.31 109.046C1843.7 101.349 1825.92 83.1447 1818.15 73.3172C1815.84 70.3867 1810.8 70.1203 1807.98 72.5772C1799.98 79.5334 1782.88 89.8641 1753.68 86.6376C1700.78 80.8359 1670.61 53.455 1644.82 58.428C1619.06 63.4009 1603.27 97.4124 1527.66 93.2683C1452.05 89.1241 1441.26 33.504 1412.15 31.8463C1412.98 31.8463 1390.55 79.1486 1336.54 79.1486C1282.54 79.1486 1259.28 25.8374 1203.61 32.4976C1152.87 38.5362 1149.76 91.4626 1128.83 108.957C1126.31 111.058 1122.82 108.483 1122.61 105.197C1121.75 91.1962 1111.79 62.5425 1046.53 55.7047C959.269 46.5876 970.087 91.3738 921.894 90.5746C891.188 90.0417 881.051 68.9659 877.761 53.7214C877.257 51.383 871.211 50.4653 870.144 52.5966C859.533 73.9388 834.103 111.769 786.473 112.953C719.992 114.61 691.746 68.137 629.445 70.6235C582.437 72.4884 547.256 112.627 532.822 132.223C530.925 134.798 523.871 133.378 522.448 130.506C518.506 122.425 509.644 111.798 489.875 103.007C452.5 86.4008 439.192 93.8899 415.095 69.8243C402.943 57.688 397.756 44.7227 395.622 34.836C395.356 33.5928 388.005 32.2607 387.353 33.356C383.174 40.105 376.653 48.3044 366.754 56.2967C344.347 74.3532 310.618 84.0624 283.824 78.971C243.633 71.334 219.863 30.8399 219.863 30.8399C219.863 30.8399 201.575 84.7728 128.456 93.9195C77.8322 100.224 59.0707 85.4832 52.313 75.8037C51.9573 75.2709 48.4599 76.0405 48.371 76.6621C47.4818 84.5656 44.5772 96.0803 35.3594 102.237C20.3917 112.183 0.0592782 99.7509 0.0592782 99.7509V-23.1226L0 -23.0929ZM0 213.241C0 213.241 26.7048 193.319 51.0681 197.76C69.6815 201.134 90.8734 229.965 99.854 243.404C101.425 245.743 105.515 245.091 106.434 242.427C111.71 227.39 128.13 196.723 172.914 206.018C231.629 218.184 227.213 235.885 260.439 234.79C293.664 233.695 333.558 202.703 372.326 212.649C400.187 219.812 406.915 257.82 408.456 278.659C408.634 280.997 413.228 281.856 414.236 279.754C423.839 260.01 446.661 224.015 485.31 224.815C538.483 225.91 593.878 241.421 626.007 229.225C658.136 217.059 696.904 197.138 736.798 207.084C776.692 217.03 777.789 236.951 845.366 223.69C887.513 215.402 901.65 198.973 906.333 187.754C906.57 187.162 911.905 186.807 912.232 187.399C919.73 200.72 942.345 218.954 1010.46 201.578C1110.16 176.121 1121.25 246.956 1121.25 246.956C1121.25 246.956 1148.93 213.774 1199.91 228.13C1232.84 237.425 1241.25 258.737 1243.09 272.65C1243.18 273.301 1247.48 274.071 1247.75 273.449C1254.62 258.708 1269.95 236.181 1298.52 239.171C1340.07 243.552 1401.07 252.225 1417.55 193.911C1417.93 192.579 1418.94 192.195 1419.77 193.319C1425.28 200.927 1444.08 230.468 1485.75 215.934C1533.38 199.328 1626.53 158.449 1659.73 195.066C1677.07 214.218 1664.12 231.653 1653.39 241.214C1650.99 243.374 1652.7 247.903 1655.88 247.43C1673.57 244.766 1706.38 237.75 1733.89 220.167C1773.78 194.711 1799.27 177.009 1841.36 192.52C1867.26 202.052 1878.08 214.099 1882.56 221.973C1884.27 224.992 1889.43 226.354 1891.95 223.986C1900.69 215.698 1916.64 201.815 1926.66 200.276C1941.06 198.056 1951.88 200.276 1951.88 200.276V340.081C1951.88 340.081 1928.88 360.002 1880.13 355.562C1846.6 352.513 1825.14 329.602 1815.01 315.571C1813.11 312.966 1807.18 314.298 1806.47 317.436C1803.36 331.378 1794.35 352.335 1768.24 356.657C1728.34 363.288 1725.02 326.79 1675.17 331.23C1625.32 335.67 1576.56 354.26 1525.61 345.409C1491.11 339.43 1476.44 308.97 1470.57 289.878C1469.59 286.651 1463.1 286.325 1461.89 289.463C1453.38 311.575 1433.61 350.796 1398.22 358.67C1348.37 369.741 1321.78 343.159 1298.52 348.695C1281.45 352.75 1271.55 378.266 1267.46 391.557C1266.63 394.28 1262.42 394.872 1260.76 392.593C1251.57 379.894 1227.89 353.964 1185.5 349.819C1129.01 344.284 1119.02 376.371 1055.89 371.961C992.761 367.55 982.772 305.566 982.772 305.566C982.772 305.566 966.145 339.873 929.6 339.873C893.055 339.873 853.161 293.4 853.161 293.4C853.161 293.4 884.193 353.549 818.809 364.62C753.455 375.691 745.69 335.848 691.391 334.753C651.348 333.924 619.753 369.238 605.912 387.827C603.985 390.432 598.205 388.715 597.761 385.488C595.33 367.55 584.66 337.861 540.706 336.973C486.407 335.877 487.533 375.691 408.871 376.786C330.387 377.881 326.919 299.291 288.388 292.334C288.21 292.334 288.062 292.334 288.092 292.542C288.21 296.863 303.267 359.44 230.533 379.716C155.19 400.733 113.103 342.094 113.103 342.094C113.103 342.094 89.836 367.047 58.8039 374.803C27.8311 382.528 0 370.333 0 370.333V213.211V213.241Z" fill="#FDFAF8"/>
</g>
<defs>
<clipPath id="clip0_3217_6239">
<rect width="1952" height="528" fill="white"/>
</clipPath>
</defs>
</svg>
