<svg width="1920" height="1014" viewBox="0 0 1920 1014" fill="none" xmlns="http://www.w3.org/2000/svg">
<g clip-path="url(#clip0_5325_17694)">
<g opacity="0.3">
<path d="M1431.12 397.592C1453.47 403.948 1478.86 416.352 1490.91 440.599C1491.24 441.287 1491.57 441.976 1491.9 442.664C1491.9 442.691 1491.89 442.701 1491.89 442.701C1496.44 452.311 1499.03 461.51 1500.23 470.057C1501.26 477.319 1501.34 484.124 1500.78 490.319C1498.83 512.716 1488.94 527.175 1488.89 527.256C1489.04 527.372 1527.34 556.388 1529.47 591.379C1530.36 605.545 1528.4 617.949 1525.16 628.486C1547.82 634.128 1566.73 631.494 1566.73 631.494C1566.76 631.574 1571.96 644.357 1583.58 658.514C1593.62 670.806 1608.58 684.145 1629.11 691.168C1673.4 706.284 1711.43 668.187 1711.43 668.187C1711.51 668.314 1735.76 704.815 1795.55 700.41C1853.05 696.148 1866.02 636.194 1866.02 636.194C1866.03 636.203 1866.35 636.367 1866.93 636.642C1871.42 638.91 1892.43 648.239 1920 638.37V938.85C1909.8 947.402 1896.28 954.049 1878.49 955.367C1818.69 959.809 1794.45 923.272 1794.37 923.145C1794.26 923.257 1756.27 961.219 1712.06 946.089C1667.84 930.994 1649.69 886.526 1649.64 886.404C1649.59 886.412 1631.33 888.921 1609.2 883.66C1612.53 873.106 1614.47 860.618 1613.61 846.34C1611.47 811.387 1573.17 782.37 1573.02 782.254C1573.08 782.165 1582.96 767.709 1584.91 745.318C1585.43 739.113 1585.39 732.318 1584.33 725.008C1583.13 716.462 1580.54 707.263 1576 697.653C1575.66 696.965 1575.33 696.275 1575 695.587C1562.73 670.963 1536.75 658.556 1514.14 652.288C1506.71 664.212 1499.32 670.462 1499.23 670.531C1499.32 670.672 1522.51 710.227 1511.78 753.22C1510.11 759.992 1507.87 766.054 1505.16 771.349C1483.32 814.786 1433.44 812.071 1433.22 812.059L1433.54 813.541C1435.19 821.928 1440.9 864.299 1400.81 896.89C1360.08 929.944 1325.23 914.588 1319.33 911.598C1318.75 911.322 1318.44 911.122 1318.43 911.113C1318.38 911.321 1305.36 971.073 1247.96 975.328C1188.18 979.769 1163.94 943.256 1163.84 943.105C1163.82 943.123 1125.8 981.199 1081.53 966.05C1037.28 950.947 1019.17 906.501 1019.11 906.365C1019.11 906.365 1001.57 908.81 979.979 903.936C983.397 893.205 985.478 880.478 984.595 865.872C982.448 830.94 944.198 801.937 943.998 801.786C944.053 801.705 954.018 787.107 955.935 764.542C956.362 759.709 956.376 754.485 955.873 748.961C954.919 738.606 952.012 727.205 946.016 715.129C945.727 714.572 945.475 714.025 945.149 713.458C932.62 689.96 907.284 677.967 885.193 671.84C877.757 683.778 870.352 690.029 870.288 690.083C870.364 690.212 893.534 729.762 882.832 772.771C881.042 779.99 878.614 786.319 875.715 791.881C853.655 834.337 804.503 831.66 804.271 831.647L804.588 833.13C806.196 841.507 811.948 883.888 771.856 916.479C731.121 949.533 696.269 934.214 690.38 931.186C689.787 930.948 689.481 930.751 689.463 930.739C689.423 930.922 676.411 990.699 618.996 994.954C559.219 999.394 534.978 962.891 534.872 962.731C534.872 962.731 496.844 1000.83 452.567 985.676C408.304 970.57 390.197 926.113 390.147 925.991C390.057 926.004 371.811 928.502 349.703 923.247C352.959 912.673 354.932 900.195 354.08 885.917C351.932 850.971 313.653 821.96 313.483 821.831C313.561 821.718 323.427 807.267 325.376 784.896C325.932 778.7 325.902 771.867 324.834 764.595C323.593 756.038 321.046 746.85 316.509 737.203C316.176 736.515 315.844 735.825 315.511 735.137C303.246 710.512 277.262 698.106 254.65 691.838C247.2 703.799 239.782 710.05 239.745 710.081C239.788 710.154 262.998 749.73 252.289 792.77C250.609 799.579 248.346 805.594 245.676 810.898C223.845 854.401 173.903 851.655 173.728 851.646L174.045 853.128C175.691 861.515 181.406 903.887 141.313 936.478C100.615 969.541 65.7632 954.222 59.8369 951.185C59.2349 950.943 58.9296 950.743 58.9199 950.736C58.903 950.814 47.6898 1002.52 0 1013.25V702.262C15.0383 703.348 35.8162 699.912 58.3975 681.566C84.0523 660.76 90.933 635.879 92.1582 618.49C92.8103 608.689 91.7076 601.247 91.1191 598.255L90.8018 596.772C90.9761 596.782 140.919 599.529 162.75 556.025C165.42 550.72 167.683 544.706 169.363 537.896C180.11 494.867 156.862 455.281 156.819 455.208C156.856 455.177 164.169 449.017 171.58 437.205C193.928 443.561 219.312 455.966 231.36 480.213C231.693 480.901 232.026 481.59 232.358 482.278C236.859 491.915 239.453 501.077 240.656 509.623C241.725 516.896 241.792 523.738 241.236 529.934C239.283 552.357 229.374 566.824 229.343 566.87C229.449 566.95 267.791 595.981 269.931 630.993C270.813 645.159 268.86 657.562 265.614 668.1C288.227 673.73 307.105 671.119 307.185 671.108C307.211 671.174 312.45 683.973 324.068 698.138C334.154 710.44 349.072 723.769 369.604 730.792C413.824 745.885 451.807 707.924 451.919 707.812C452.038 707.991 476.293 744.436 536.044 740.034C593.529 735.81 606.507 675.833 606.51 675.818C606.525 675.826 606.839 675.99 607.427 676.266C613.364 679.267 648.205 694.622 688.903 661.559C714.558 640.752 721.439 615.871 722.664 598.482C723.326 588.644 722.224 581.203 721.636 578.21L721.317 576.728C721.534 576.74 770.662 579.413 792.762 536.961C795.661 531.399 798.089 525.07 799.879 517.852C810.606 474.899 787.462 435.379 787.336 435.163C787.403 435.107 794.701 428.947 802.096 417.16C823.96 423.386 848.662 435.366 861.011 458.497C861.336 459.064 861.625 459.621 861.913 460.178C867.92 472.217 870.817 483.655 871.771 494.01C872.275 499.533 872.27 504.72 871.832 509.591C869.915 532.156 859.951 546.754 859.896 546.835C860.06 546.959 898.355 575.936 900.493 610.921C901.359 625.442 899.308 638.059 895.938 648.762C918.036 653.973 936.234 651.465 936.234 651.465C936.261 651.53 941.5 664.33 953.118 678.495C963.204 690.798 978.122 704.127 998.653 711.149C1042.92 726.299 1080.94 688.222 1080.96 688.205C1081.04 688.332 1105.28 724.871 1165.08 720.429C1222.52 716.171 1235.52 656.35 1235.55 656.213C1235.56 656.221 1235.88 656.385 1236.47 656.66C1242.4 659.661 1277.24 675.017 1317.94 641.953C1343.6 621.147 1350.48 596.266 1351.7 578.877C1352.37 569.039 1351.26 561.596 1350.67 558.604L1350.36 557.121C1350.57 557.133 1400.48 559.858 1422.29 516.411C1424.97 511.106 1427.23 505.092 1428.91 498.282C1439.65 455.283 1416.44 415.723 1416.36 415.594C1416.43 415.54 1423.73 409.381 1431.12 397.592Z" fill="#F2E3C2"/>
<path d="M1920 280.114C1907.94 282.882 1898.89 282.393 1898.77 282.387L1898.82 283.995C1899.37 286.819 1900.41 293.605 1899.93 302.615C1899.02 320.047 1892.53 345.832 1866.09 367.344C1825.39 400.408 1790.55 385.051 1784.61 382.051C1784.02 381.776 1783.72 381.577 1783.7 381.566C1783.7 381.566 1770.73 441.557 1713.24 445.782C1653.48 450.221 1629.24 413.747 1629.11 413.56C1629.01 413.657 1591.03 451.636 1546.81 436.503C1525.43 429.212 1510.17 415.073 1500.1 402.416C1489.29 388.831 1484.45 376.9 1484.43 376.829C1484.43 376.829 1465.19 379.494 1442.26 373.66C1445.51 363.086 1447.48 350.645 1446.61 336.441C1444.47 301.456 1406.18 272.443 1406.02 272.318C1406.08 272.232 1415.96 257.774 1417.91 235.382C1418.47 229.187 1418.39 222.382 1417.36 215.119C1416.12 206.563 1413.57 197.373 1409 187.717C1408.67 187.028 1408.33 186.34 1408 185.651C1396.05 161.631 1371.07 149.215 1348.85 142.814C1341.41 154.631 1334.09 160.865 1334.02 160.919C1334.1 161.048 1357.31 200.608 1346.57 243.607C1344.89 250.417 1342.62 256.43 1339.95 261.735C1318.13 305.22 1268.22 302.496 1268.01 302.483L1268.32 303.966C1268.88 306.79 1269.92 313.576 1269.44 322.586C1268.56 340.028 1262.07 365.813 1235.59 387.314C1194.89 420.378 1160.05 405.023 1154.12 402.022C1153.53 401.747 1153.21 401.582 1153.2 401.574C1153.2 401.574 1140.23 461.529 1082.73 465.791C1022.93 470.233 998.729 433.704 998.645 433.577C998.645 433.577 960.616 471.674 916.34 456.521C894.963 449.23 879.705 435.091 869.645 422.396C858.841 408.825 854.006 396.905 853.968 396.811C853.929 396.816 835.409 399.38 813.076 393.945C816.494 383.215 818.564 370.525 817.671 355.956C815.533 320.966 777.227 291.986 777.074 291.87C777.129 291.789 787.094 277.191 789.011 254.626C789.401 249.783 789.453 244.568 788.95 239.045C787.996 228.69 785.099 217.252 779.092 205.213C778.803 204.656 778.515 204.099 778.189 203.532C765.939 180.628 741.603 168.626 719.944 162.376C712.5 174.193 705.18 180.426 705.116 180.48C705.192 180.609 728.399 220.169 717.66 263.169C715.87 270.388 713.442 276.716 710.543 282.278C688.454 324.71 639.363 322.06 639.099 322.045L639.416 323.527C639.97 326.351 641.01 333.138 640.542 342.11C639.662 359.552 633.175 385.337 606.694 406.839C565.996 439.903 531.154 424.547 525.218 421.546C524.635 421.272 524.32 421.11 524.301 421.1C524.261 421.282 511.25 481.06 453.835 485.315C394.05 489.756 369.81 453.243 369.71 453.092C369.692 453.109 331.671 491.185 287.405 476.036C266.028 468.745 250.769 454.606 240.709 441.911C229.904 428.337 225.069 416.416 225.032 416.325C224.927 416.34 205.731 418.974 182.829 413.146C186.075 402.608 188.038 390.168 187.176 375.927C185.035 340.906 146.676 311.87 146.589 311.804C146.621 311.756 156.529 297.29 158.482 274.868C159.039 268.673 158.961 261.867 157.902 254.557C156.699 246.01 154.115 236.812 149.567 227.202C149.235 226.514 148.902 225.825 148.569 225.137C136.62 201.116 111.638 188.7 89.4219 182.3C81.9733 194.124 74.6483 200.358 74.5938 200.404C74.6584 200.514 97.8792 240.083 87.1377 283.093C85.4579 289.902 83.1945 295.916 80.5244 301.221C58.6822 344.746 8.69972 341.976 8.5752 341.969L8.89355 343.451C9.44781 346.275 10.4878 353.061 10.0195 362.034C9.50839 372.161 7.10672 385.1 0 398.38V42.5C1.854 38.2278 3.45413 33.5359 4.71191 28.4346C7.1591 18.6358 7.84341 9.01563 7.44043 0H75.4766C76.526 7.28568 76.5643 14.0597 76.0469 20.2471C74.0947 42.6588 64.1952 57.1215 64.1533 57.1826C64.2405 57.2485 102.601 86.2852 104.751 121.269C105.613 135.51 103.649 147.95 100.403 158.487C123.248 164.301 142.431 161.675 142.569 161.656C142.584 161.692 147.301 173.327 157.837 186.693C167.904 199.51 183.324 213.932 204.951 221.331C249.176 236.466 287.178 198.439 287.268 198.35C287.375 198.511 311.617 235.012 371.393 230.572C428.895 226.31 441.858 166.356 441.858 166.356C441.872 166.366 442.178 166.564 442.775 166.804C448.702 169.842 483.516 185.151 524.252 152.097C551.046 130.321 557.363 104.13 558.122 86.6953C558.5 78.0574 557.511 71.5245 556.984 68.748L556.666 67.2656C556.883 67.2777 606.047 69.9617 628.11 27.499C631.01 21.9368 633.438 15.6083 635.229 8.38965C635.929 5.575 636.483 2.77494 636.909 0H706.642C704.734 22.4928 694.778 37.021 694.717 37.1104C694.87 37.2261 733.165 66.2429 735.313 101.196C736.207 115.765 734.136 128.455 730.719 139.186C753.085 144.589 771.61 142.051 771.61 142.051C771.645 142.136 776.364 153.75 786.877 167.087C796.944 179.903 812.365 194.326 833.992 201.725C878.268 216.877 916.297 178.78 916.297 178.78C916.381 178.907 940.617 215.446 1000.42 211.004C1057.89 206.744 1070.87 146.862 1070.89 146.788C1070.9 146.799 1071.21 146.997 1071.8 147.235C1077.73 150.274 1112.55 165.582 1153.28 132.528C1180.08 110.752 1186.42 84.6088 1187.19 67.1367C1187.57 58.4989 1186.58 51.966 1186.05 49.1895L1185.73 47.707C1185.97 47.7201 1235.83 50.4254 1257.68 6.95898C1258.8 4.76579 1259.84 2.44664 1260.79 0H1331.78C1328.26 11.0089 1323.82 17.5156 1323.77 17.5889C1323.95 17.7207 1362.22 46.7313 1364.36 81.7119C1365.22 95.9529 1363.26 108.393 1360.01 118.931C1382.88 124.751 1402.08 122.113 1402.18 122.1C1402.2 122.162 1406.92 133.786 1417.45 147.137C1427.55 159.963 1442.93 174.375 1464.56 181.773C1508.83 196.923 1546.85 158.848 1546.87 158.83C1546.99 159.021 1571.24 195.491 1630.99 191.053C1688.49 186.791 1701.46 126.837 1701.46 126.837C1701.47 126.847 1701.78 127.046 1702.37 127.284C1708.27 130.275 1743.11 145.632 1783.85 112.577C1810.64 90.8013 1816.99 64.6576 1817.76 47.1855C1818.14 38.5478 1817.15 32.0147 1816.62 29.2383L1816.3 27.7559C1816.54 27.769 1855.84 29.9068 1879.93 0H1920V280.114Z" fill="#F2E3C2"/>
</g>
</g>
<defs>
<clipPath id="clip0_5325_17694">
<rect width="1920" height="1013.25" fill="white"/>
</clipPath>
</defs>
</svg>
