<svg width="1920" height="912" viewBox="0 0 1920 912" fill="none" xmlns="http://www.w3.org/2000/svg">
<g clip-path="url(#clip0_3159_4736)">
<path d="M-80 -622.821C-80 -622.821 -51.5304 -644.082 -25.557 -639.344C-5.71356 -635.742 16.8789 -605.004 26.453 -590.661C28.1277 -588.165 32.4882 -588.86 33.4677 -591.704C39.0921 -607.752 56.5973 -640.481 104.342 -630.561C166.937 -617.577 162.229 -598.685 197.65 -599.854C233.071 -601.023 275.602 -634.1 316.932 -623.485C346.634 -615.84 353.806 -575.244 355.449 -553.035C355.639 -550.54 360.537 -549.624 361.611 -551.867C371.849 -572.938 396.179 -611.354 437.382 -610.501C494.069 -609.332 553.125 -592.778 587.377 -605.762C621.629 -618.746 662.959 -640.007 705.49 -629.392C748.02 -618.778 749.19 -597.516 821.233 -611.669C866.165 -620.484 881.237 -638.048 886.229 -650.022C886.482 -650.654 892.17 -651.033 892.517 -650.401C900.511 -636.185 924.621 -616.724 997.232 -635.268C1103.53 -662.437 1115.34 -586.87 1115.34 -586.87C1115.34 -586.87 1144.86 -622.284 1199.21 -606.962C1234.31 -597.043 1243.28 -574.297 1245.24 -559.448C1245.34 -558.753 1249.92 -557.932 1250.2 -558.564C1257.54 -574.297 1273.87 -598.338 1304.33 -595.147C1348.63 -590.471 1413.66 -581.215 1431.23 -643.451C1431.64 -644.872 1432.71 -645.283 1433.6 -644.082C1439.48 -635.963 1459.51 -604.435 1503.93 -619.946C1554.71 -637.669 1654.02 -681.297 1689.41 -642.219C1707.9 -621.779 1694.09 -603.203 1682.65 -592.967C1680.09 -590.693 1681.93 -585.827 1685.31 -586.333C1704.17 -589.176 1739.15 -596.663 1768.47 -615.429C1811 -642.598 1838.18 -661.489 1883.05 -644.935C1910.66 -634.763 1922.19 -621.905 1926.97 -613.502C1928.8 -610.279 1934.3 -608.826 1936.98 -611.354C1946.3 -620.199 1963.3 -635.016 1973.98 -636.658C1989.34 -639.028 2000.87 -636.658 2000.87 -636.658V-487.451C2000.87 -487.451 1976.35 -466.19 1924.38 -470.929C1888.64 -474.183 1865.76 -498.635 1854.95 -513.609C1852.93 -516.389 1846.61 -514.967 1845.85 -511.619C1842.54 -496.739 1832.93 -474.404 1805.09 -469.76C1762.56 -462.683 1759.02 -501.636 1705.88 -496.897C1652.73 -492.19 1600.75 -472.319 1546.43 -481.765C1509.65 -488.146 1494.01 -520.654 1487.76 -541.031C1486.71 -544.474 1479.79 -544.822 1478.5 -541.473C1469.43 -517.874 1448.35 -476.015 1410.63 -467.612C1357.48 -455.796 1329.14 -484.134 1304.33 -478.226C1286.13 -473.898 1275.58 -446.666 1271.22 -432.482C1270.33 -429.575 1265.85 -428.944 1264.08 -431.376C1254.28 -444.929 1229.03 -472.603 1183.85 -477.026C1123.62 -482.934 1112.98 -448.688 1045.67 -453.395C978.368 -458.103 967.72 -524.255 967.72 -524.255C967.72 -524.255 949.994 -487.641 911.034 -487.641C872.074 -487.641 829.543 -537.24 829.543 -537.24C829.543 -537.24 862.626 -473.045 792.921 -461.262C723.248 -449.446 714.969 -491.969 657.082 -493.138C614.393 -493.991 580.71 -456.333 565.954 -436.494C563.9 -433.714 557.738 -435.546 557.265 -438.99C554.673 -458.166 543.298 -489.821 496.439 -490.768C438.552 -491.937 439.752 -449.446 355.892 -448.246C272.221 -447.077 268.524 -530.953 227.447 -538.377C227.257 -538.408 227.099 -538.377 227.131 -538.187C227.257 -533.575 243.309 -466.79 165.768 -445.15C85.4461 -422.72 40.5772 -485.303 40.5772 -485.303C40.5772 -485.303 15.7729 -458.671 -17.31 -450.394C-50.3297 -442.149 -80 -455.133 -80 -455.133V-622.821ZM-80 -306.621C-80 -306.621 -49.4765 -307.505 -18.4475 -298.628C12.55 -289.751 47.0864 -297.744 48.0027 -318.12C48.5083 -329.714 42.9787 -344.152 38.1442 -354.482C36.6591 -357.641 40.7668 -361.464 43.737 -359.6C55.1754 -352.46 72.4278 -342.446 86.6784 -337.012C127.187 -321.627 170.097 -328.988 208.204 -339.634C246.311 -350.249 296.93 -353.566 314.657 -322.543C326.853 -301.219 311.655 -280.874 300.975 -270.259C298.636 -267.953 300.469 -263.751 303.692 -264.383C318.606 -267.352 345.907 -275.061 372.228 -294.205C411.188 -322.543 421.836 -328.735 443.986 -329.619C466.136 -330.504 491.825 -308.358 491.825 -308.358C491.825 -308.358 523.708 -351.765 569.777 -349.964C615.847 -348.195 661.885 -308.358 708.871 -322.511C755.825 -336.664 781.514 -375.648 818.705 -362.348C841.866 -354.071 840.981 -337.201 837.032 -325.671C836.242 -323.333 840.349 -319.542 842.529 -320.742C858.581 -329.619 890.242 -343.267 928.539 -340.234C984.34 -335.811 1003.84 -303.209 1031.29 -315.624C1058.75 -328.008 1088.87 -349.269 1125.2 -338.655C1147.51 -332.115 1157.12 -319.257 1161.19 -310.317C1161.73 -309.148 1166.19 -309.243 1166.63 -310.475C1171.21 -323.807 1183.88 -345.573 1217.31 -343.077C1265.15 -339.539 1377.64 -293.953 1409.55 -314.329C1427.44 -325.734 1427.22 -338.276 1423.55 -347.09C1423.3 -347.721 1426.9 -351.386 1427.5 -351.07C1444.72 -341.466 1479.86 -326.808 1526.43 -332.937C1593.77 -341.814 1661.96 -347.121 1689.45 -326.745C1708.06 -312.939 1704.71 -295.09 1700.6 -284.98C1699.24 -281.632 1701.71 -277.936 1705.21 -278.852C1714.28 -281.221 1731 -286.844 1757.63 -300.176C1801.93 -322.322 1804.59 -327.629 1831.16 -321.437C1848.26 -317.457 1859.09 -305.768 1864.69 -297.933C1867.03 -294.648 1872.37 -294.047 1875.3 -296.796C1885.51 -306.4 1908.23 -323.333 1940.11 -321.406C1984.41 -318.752 2000.97 -309.875 2000.97 -309.875V-164.427C2000.97 -164.427 1973.79 -160.889 1945.42 -174.157C1918.91 -186.573 1912.56 -200.536 1891.58 -203.758C1889.08 -204.138 1886.33 -202.242 1885.35 -199.936C1879.95 -187.489 1859.85 -152.927 1809.9 -157.319C1760.7 -161.647 1750.49 -192.006 1748.41 -202.969C1748.03 -204.991 1746.01 -206.444 1744.05 -205.875C1736.34 -203.664 1718.42 -197.977 1703.6 -189.226C1684.11 -177.695 1625.65 -144.935 1573.39 -156.466C1521.12 -167.997 1560.08 -207.834 1545.04 -218.449C1530 -229.063 1475.05 -213.141 1452.02 -198.957C1434.55 -188.215 1409.46 -171.377 1398.33 -163.827C1394.99 -161.584 1390.56 -161.868 1387.37 -164.332C1374.42 -174.315 1339.03 -197.661 1297 -192.765C1243.85 -186.573 1219.05 -155.107 1149.06 -161.299C1098.03 -165.817 1073.6 -225.335 1064.09 -257.243C1064 -257.591 1060.18 -257.022 1060.18 -256.674C1058.82 -234.497 1048.71 -200.694 1002 -188.594C930.245 -169.987 860.288 -192.133 830.143 -185.941C811.595 -182.118 795.101 -171.946 785.116 -164.68C782.399 -162.689 777.533 -165.754 778.038 -169.102C780.313 -183.856 780.092 -207.17 757.468 -212.541C723.817 -220.502 699.012 -198.356 662.706 -203.695C639.514 -207.107 628.233 -217.722 623.114 -224.925C621.124 -227.736 616.289 -228.526 613.888 -226.03C598.974 -210.456 554.705 -170.145 498.84 -174.441C429.736 -179.749 443.038 -202.779 410.272 -202.779C377.505 -202.779 319.049 -139.912 226.909 -146.104C134.77 -152.296 145.419 -205.433 119.73 -207.202C94.0407 -208.971 34.7 -165.596 -12.2543 -167.333C-59.2086 -169.102 -80 -184.172 -80 -184.172V-306.589L-80 -306.621ZM-80 -8.14307C-80 -8.14307 -25.557 -9.91222 17.8584 -32.9425C61.2738 -55.9728 77.1991 -76.3494 109.966 -56.8574C133.886 -42.6412 136.097 -21.3168 135.56 -10.86C135.402 -7.82716 138.025 -5.07869 141.027 -5.58416C150.79 -7.25851 169.749 -11.1443 181.124 -17.6206C219.642 -39.5451 245.931 -37.6496 257.559 -31.8368C281.258 -19.9899 283.596 -3.72026 283.596 -3.72026C283.596 -3.72026 345.591 -50.6654 388.121 -39.1345C430.652 -27.6036 458.111 -4.57326 501.526 -9.02768C539.033 -12.8503 626.116 -57.6788 649.119 -69.7784C651.837 -71.2316 655.281 -69.4308 656.102 -66.4612C658.915 -56.4783 667.32 -37.9024 691.081 -34.7116C723.848 -30.2888 740.69 -37.3653 786.759 -24.9814C832.829 -12.5975 885.977 -1.06658 932.931 -10.7968C979.885 -20.527 1013.54 -74.5487 1061.38 -72.7796C1109.21 -71.0104 1135.79 -49.7493 1140.21 -34.7116C1144.64 -19.674 1141.98 -0.182016 1141.98 -0.182016C1141.98 -0.182016 1175.63 -51.55 1208.43 -43.5889C1241.2 -35.6278 1250.96 -5.52101 1250.96 -5.52101C1250.96 -5.52101 1266 -25.8976 1301.46 -50.697C1336.91 -75.4964 1346.64 -73.7273 1396.25 -78.1501C1429.68 -81.1197 1452.62 -98.5899 1464.06 -109.647C1465.8 -111.353 1470.47 -109.047 1470.22 -106.614C1468.01 -85.2267 1471.07 -41.8829 1528.23 -26.7505C1605.3 -6.37394 1646.03 -95.8414 1687.68 -88.7333C1729.32 -81.6568 1717.79 -26.7505 1717.79 -26.7505C1717.79 -26.7505 1745.25 -53.0664 1784.24 -48.0117C1820.54 -43.273 1827.65 -22.3277 1827.65 -22.3277C1827.65 -22.3277 1846.27 -19.6741 1898.53 -45.358C1950.79 -71.042 2001 -46.2426 2001 -46.2426V134.651C2001 134.651 1961.41 144.381 1917.11 132.882C1885.54 124.668 1866.58 105.239 1858.3 94.7508C1855.84 91.6232 1850.47 91.3389 1847.47 93.961C1838.93 101.385 1820.7 112.411 1789.58 108.967C1733.18 102.775 1701.01 73.5528 1673.52 78.8602C1646.06 84.1676 1629.22 120.466 1548.61 116.044C1468.01 111.621 1456.51 52.2601 1425.48 50.491C1426.36 50.491 1402.44 100.974 1344.87 100.974C1287.3 100.974 1262.5 44.0779 1203.16 51.186C1149.06 57.6307 1145.74 114.117 1123.43 132.787C1120.75 135.03 1117.02 132.282 1116.8 128.775C1115.88 113.832 1105.27 83.2515 1035.69 75.9538C942.663 66.2236 954.196 114.022 902.818 113.169C870.083 112.6 859.276 90.1069 855.769 73.8372C855.232 71.3414 848.786 70.3621 847.648 72.6367C836.336 95.4142 809.225 135.788 758.448 137.052C687.574 138.821 657.461 89.2223 591.043 91.876C540.928 93.8662 503.422 136.704 488.034 157.618C486.011 160.367 478.491 158.85 476.975 155.786C472.772 147.161 463.324 135.82 442.249 126.437C402.404 108.714 388.216 116.707 362.527 91.023C349.572 78.0705 344.043 64.2333 341.767 53.6817C341.483 52.3549 333.647 50.9332 332.952 52.1021C328.496 59.305 321.545 68.0559 310.991 76.5856C287.103 95.8565 251.145 106.219 222.581 100.785C179.734 92.6342 154.393 49.4168 154.393 49.4168C154.393 49.4168 134.897 106.977 56.9449 116.739C2.97584 123.468 -17.0256 107.735 -24.2299 97.4045C-24.609 96.8359 -28.3376 97.6573 -28.4324 98.3207C-29.3803 106.756 -32.4769 119.045 -42.3038 125.616C-58.2607 136.231 -79.9368 122.962 -79.9368 122.962V-8.17469L-80 -8.14307ZM-80 244.084C-80 244.084 -51.5304 222.823 -25.557 227.562C-5.71356 231.163 16.8789 261.934 26.453 276.276C28.1277 278.772 32.4882 278.077 33.4677 275.234C39.0921 259.185 56.5973 226.456 104.342 236.376C166.937 249.36 162.229 268.252 197.65 267.083C233.071 265.914 275.602 232.838 316.932 243.453C346.634 251.098 353.806 291.661 355.449 313.902C355.639 316.398 360.537 317.314 361.611 315.071C371.849 293.999 396.179 255.584 437.382 256.437C494.069 257.606 553.125 274.16 587.377 261.144C621.629 248.16 662.959 226.899 705.49 237.513C748.02 248.128 749.19 269.389 821.233 255.236C866.165 246.391 881.237 228.857 886.229 216.884C886.482 216.252 892.17 215.873 892.517 216.505C900.511 230.721 924.621 250.182 997.232 231.637C1103.53 204.468 1115.34 280.067 1115.34 280.067C1115.34 280.067 1144.86 244.653 1199.21 259.975C1234.31 269.895 1243.28 292.641 1245.24 307.489C1245.34 308.184 1249.92 309.005 1250.2 308.342C1257.54 292.609 1273.87 268.568 1304.33 271.759C1348.63 276.434 1413.66 285.691 1431.23 223.455C1431.64 222.033 1432.71 221.623 1433.6 222.823C1439.48 230.942 1459.51 262.471 1503.93 246.959C1554.71 229.236 1654.02 185.608 1689.41 224.687C1707.9 245.127 1694.09 263.734 1682.65 273.939C1680.09 276.245 1681.93 281.078 1685.31 280.573C1704.17 277.73 1739.15 270.242 1768.47 251.477C1811 224.308 1838.18 205.416 1883.05 221.97C1910.66 232.143 1922.19 245.001 1926.97 253.404C1928.8 256.626 1934.3 258.079 1936.98 255.552C1946.3 246.707 1963.3 231.89 1973.98 230.247C1989.34 227.878 2000.87 230.247 2000.87 230.247V379.455C2000.87 379.455 1976.35 400.716 1924.38 395.977C1888.64 392.723 1865.76 368.271 1854.95 353.297C1852.93 350.517 1846.61 351.938 1845.85 355.287C1842.54 370.167 1832.93 392.533 1805.09 397.146C1762.56 404.222 1759.02 365.27 1705.88 370.009C1652.73 374.747 1600.75 394.587 1546.43 385.141C1509.65 378.76 1494.01 346.252 1487.76 325.875C1486.71 322.432 1479.79 322.084 1478.5 325.433C1469.43 349.032 1448.35 390.891 1410.63 399.294C1357.48 411.109 1329.14 382.74 1304.33 388.648C1286.13 392.976 1275.58 420.208 1271.22 434.392C1270.33 437.299 1265.85 437.931 1264.08 435.498C1254.28 421.945 1229.03 394.271 1183.85 389.848C1123.62 383.941 1112.98 418.186 1045.67 413.479C978.368 408.772 967.72 342.619 967.72 342.619C967.72 342.619 949.994 379.233 911.034 379.233C872.074 379.233 829.543 329.635 829.543 329.635C829.543 329.635 862.626 393.829 792.921 405.644C723.248 417.459 714.969 374.937 657.082 373.768C614.393 372.883 580.71 410.572 565.954 430.412C563.9 433.192 557.738 431.36 557.265 427.916C554.673 408.772 543.298 377.085 496.439 376.137C438.552 374.969 439.752 417.459 355.892 418.628C272.221 419.797 268.524 335.921 227.447 328.497C227.257 328.497 227.099 328.497 227.131 328.718C227.257 333.331 243.309 400.115 165.768 421.756C85.4461 444.186 40.5772 381.603 40.5772 381.603C40.5772 381.603 15.7729 408.235 -17.31 416.512C-50.3297 424.757 -80 411.741 -80 411.741V244.053V244.084Z" fill="#D6F0DA"/>
</g>
<defs>
<clipPath id="clip0_3159_4736">
<rect width="1920" height="912" fill="white"/>
</clipPath>
</defs>
</svg>
