<svg width="1524" height="845" viewBox="0 0 1524 845" fill="none" xmlns="http://www.w3.org/2000/svg">
<path opacity="0.3" d="M1390.88 488.981L1391.02 489.766C1391.27 491.261 1391.71 494.847 1391.32 499.58C1390.57 508.738 1386.76 522.205 1372.52 533.116C1350.6 549.887 1332.51 541.269 1329.43 539.599C1329.12 539.441 1328.96 539.33 1328.96 539.33C1328.96 539.33 1321.21 570.695 1290.91 572.032C1259.33 573.45 1247.15 553.781 1247.15 553.781C1247.15 553.781 1226.56 573.24 1203.51 564.585C1192.38 560.42 1184.57 552.745 1179.47 545.93C1173.97 538.594 1171.62 532.226 1171.62 532.226C1171.62 532.226 1161.46 533.332 1149.49 529.909C1151.36 524.396 1152.59 517.881 1152.35 510.394C1151.76 491.914 1131.99 476.03 1131.99 476.03C1131.99 476.03 1137.44 468.566 1138.82 456.779C1139.2 453.528 1139.27 449.946 1138.84 446.109C1138.32 441.588 1137.12 436.714 1134.86 431.563C1134.7 431.195 1134.53 430.828 1134.37 430.461C1128.45 417.638 1115.51 410.721 1103.92 407.011C1099.8 413.14 1095.84 416.308 1095.84 416.308C1095.84 416.308 1107.48 437.512 1101.16 460.008C1100.17 463.565 1098.89 466.694 1097.4 469.444C1085.23 492.037 1058.93 489.775 1058.93 489.775L1059.07 490.56C1059.32 492.054 1059.76 495.641 1059.37 500.374C1058.64 509.538 1054.83 523.004 1040.57 533.91C1018.65 550.68 1000.56 542.062 997.486 540.392C997.173 540.235 997.01 540.143 997.01 540.143C997.01 540.143 989.266 571.488 958.954 572.844C927.373 574.263 915.221 554.6 915.221 554.6C915.221 554.6 894.63 574.059 871.575 565.404C860.443 561.238 852.636 553.564 847.54 546.73C842.046 539.393 839.689 533.026 839.689 533.026C839.689 533.026 829.9 534.096 818.225 530.889C820.188 525.295 821.473 518.65 821.228 510.971C820.643 492.491 800.864 476.627 800.864 476.627C800.864 476.627 806.357 469.091 807.718 457.215C807.998 454.673 808.106 451.93 807.926 449.016C807.584 443.553 806.237 437.49 803.263 431.063C803.12 430.766 802.977 430.468 802.815 430.165C796.724 417.925 784.109 411.235 772.813 407.613C768.697 413.743 764.734 416.91 764.734 416.91C764.734 416.91 776.379 438.115 770.056 460.61C769.002 464.381 767.628 467.673 766.017 470.555C753.709 492.6 727.823 490.377 727.823 490.377L727.967 491.162C728.215 492.657 728.658 496.243 728.273 500.957C727.54 510.121 723.73 523.588 709.469 534.493C687.551 551.263 669.461 542.645 666.385 540.976C666.073 540.818 665.91 540.726 665.91 540.726C665.91 540.726 658.166 572.071 627.854 573.428C596.273 574.846 584.102 555.177 584.102 555.177C584.102 555.177 563.511 574.636 540.455 565.981C529.323 561.816 521.516 554.141 516.421 547.307C510.926 539.971 508.57 533.603 508.57 533.603C508.57 533.603 498.41 534.709 486.42 531.28C488.29 525.786 489.515 519.271 489.281 511.765C488.696 493.284 468.923 477.401 468.923 477.401C468.923 477.401 474.373 469.937 475.749 458.15C476.137 454.899 476.202 451.317 475.758 447.455C475.257 442.939 474.04 438.06 471.796 432.934C471.632 432.566 471.467 432.199 471.303 431.831C465.389 419.009 452.44 412.091 440.853 408.381C436.737 414.511 432.774 417.679 432.774 417.679C432.774 417.679 444.418 438.883 438.095 461.378C437.106 464.935 435.823 468.065 434.337 470.815C422.16 493.407 395.862 491.146 395.862 491.146L396.007 491.931C396.255 493.425 396.697 497.011 396.312 501.725C395.58 510.889 391.77 524.356 377.509 535.261C355.59 552.031 337.5 543.414 334.425 541.744C334.112 541.586 333.95 541.494 333.95 541.494C333.95 541.494 326.199 572.859 295.893 574.196C264.312 575.614 252.141 555.945 252.141 555.945C252.141 555.945 231.55 575.405 208.489 566.769C197.357 562.603 189.55 554.929 184.435 548.089C178.94 540.752 176.584 534.385 176.584 534.385C176.584 534.385 147.875 537.517 130.079 516.977C121.424 506.992 119.05 497.314 118.886 489.998C118.736 482.284 121.022 477.234 121.022 477.234L119.557 477.109C113.778 476.466 92.7419 472.7 85.118 451.226C76.2457 426.24 97.8259 400.767 97.8259 400.767C97.3469 400.389 76.0983 383.361 79.2287 356.427C79.284 355.893 79.3645 355.345 79.4528 354.843C79.6227 362.139 82.0024 371.797 90.6444 381.757C108.44 402.298 137.149 399.165 137.149 399.165C137.149 399.165 139.45 405.368 144.793 412.573C149.89 419.472 157.779 427.298 169.04 431.524C192.096 440.179 212.693 420.7 212.693 420.7C212.693 420.7 224.864 440.369 256.445 438.951C286.757 437.595 294.501 406.249 294.501 406.249C294.501 406.249 294.658 406.36 294.977 406.499C298.046 408.188 316.142 416.786 338.06 400.016C352.491 388.971 356.237 375.294 356.905 366.133C357.243 361.574 356.818 358.141 356.584 356.672L356.439 355.887C356.439 355.887 382.718 358.143 394.914 335.556C396.4 332.806 397.689 329.658 398.672 326.12C404.995 303.624 393.351 282.42 393.351 282.42C393.351 282.42 397.308 279.272 401.424 273.142C413.011 276.852 425.985 283.756 431.874 296.592C432.039 296.96 432.203 297.327 432.367 297.695C434.605 302.84 435.828 307.7 436.329 312.215C436.773 316.078 436.689 319.654 436.32 322.911C434.944 334.698 429.494 342.162 429.494 342.162C429.494 342.162 449.267 358.045 449.858 376.506C450.092 384.012 448.867 390.527 446.997 396.022C458.967 399.445 469.127 398.339 469.127 398.339C469.127 398.339 471.428 404.541 476.771 411.747C481.869 418.646 489.757 426.471 501.019 430.697C524.074 439.353 544.671 419.874 544.671 419.874C544.671 419.874 556.842 439.543 588.423 438.124C618.735 436.768 626.479 405.423 626.479 405.423C626.479 405.423 626.637 405.534 626.955 405.672C630.024 407.362 648.1 415.954 670.039 399.189C684.469 388.145 688.196 374.462 688.864 365.3C689.196 360.761 688.777 357.309 688.542 355.84L688.398 355.055C688.398 355.055 714.304 357.283 726.592 335.232C728.203 332.35 729.578 329.058 730.631 325.288C736.934 302.786 725.31 281.588 725.31 281.588C725.31 281.588 729.267 278.44 733.389 272.291C744.684 275.913 757.325 282.589 763.415 294.829C763.578 295.132 763.721 295.429 763.858 295.746C766.826 302.193 768.173 308.256 768.534 313.724C768.714 316.638 768.612 319.362 768.332 321.904C766.991 333.786 761.478 341.316 761.478 341.316C761.478 341.316 781.251 357.199 781.842 375.66C782.087 383.339 780.802 389.984 778.839 395.578C790.52 398.765 800.303 397.715 800.303 397.715C800.303 397.715 802.603 403.917 807.947 411.123C813.044 418.022 820.933 425.847 832.194 430.074C855.25 438.729 875.841 419.27 875.841 419.27C875.841 419.27 888.012 438.938 919.593 437.52C949.905 436.164 957.649 404.819 957.649 404.819C957.649 404.819 957.807 404.93 958.125 405.068C961.194 406.757 979.27 415.35 1001.21 398.585C1015.64 387.541 1019.38 373.883 1020.05 364.702C1020.39 360.163 1019.97 356.71 1019.73 355.241L1019.59 354.456C1019.59 354.456 1045.87 356.712 1058.06 334.125C1059.57 331.381 1060.83 328.246 1061.84 324.695C1068.14 302.194 1056.52 280.995 1056.52 280.995C1056.52 280.995 1060.48 277.847 1064.59 271.717C1076.18 275.427 1089.13 282.345 1095.04 295.167C1095.21 295.535 1095.37 295.902 1095.53 296.269C1097.77 301.415 1098.99 306.295 1099.5 310.79C1099.94 314.653 1099.86 318.229 1099.49 321.486C1098.11 333.273 1092.66 340.737 1092.66 340.737C1092.66 340.737 1112.43 356.62 1113.02 375.1C1113.25 382.607 1112.03 389.122 1110.16 394.616C1122.13 398.039 1132.29 396.933 1132.29 396.933C1132.29 396.933 1134.59 403.136 1139.93 410.341C1145.05 417.246 1152.92 425.066 1164.18 429.292C1187.24 437.947 1207.83 418.488 1207.83 418.488C1207.83 418.488 1220 438.156 1251.58 436.738C1281.89 435.382 1289.64 404.037 1289.64 404.037C1289.64 404.037 1289.79 404.148 1290.11 404.286C1293.17 405.95 1311.26 414.568 1333.19 397.803C1347.62 386.759 1351.37 373.101 1352.04 363.92C1352.37 359.381 1351.95 355.928 1351.72 354.46L1351.57 353.675C1351.57 353.675 1384.68 356.53 1393.81 323.907C1400.11 301.406 1388.48 280.207 1388.48 280.207C1388.48 280.207 1392.44 277.059 1396.56 270.91C1408.15 274.62 1421.1 281.538 1427.01 294.36C1438.97 320.278 1424.63 339.949 1424.63 339.949C1424.63 339.949 1444.4 355.833 1444.99 374.293C1445.43 388.556 1440.64 399.248 1436.01 406.175C1431.89 412.304 1427.93 415.452 1427.93 415.452C1427.93 415.452 1439.58 436.657 1433.25 459.152C1424.11 491.769 1391.02 488.919 1391.02 488.919M1512.25 729.864C1518.56 707.362 1506.91 686.158 1506.91 686.158C1506.91 686.158 1510.92 682.983 1515.03 676.789C1519.64 669.875 1524.41 659.198 1523.97 644.999C1523.39 626.519 1503.61 610.635 1503.61 610.635C1503.61 610.635 1517.97 590.989 1506 565.046C1500.04 552.103 1486.88 545.186 1475.22 541.497C1471.13 547.613 1467.18 550.742 1467.18 550.742C1467.18 550.742 1478.82 571.946 1472.5 594.442C1463.35 627.059 1430.27 624.209 1430.27 624.209L1430.41 624.994C1430.67 626.577 1431.14 630.51 1430.62 635.67C1429.73 644.806 1425.7 657.785 1411.89 668.338C1389.97 685.108 1371.88 676.49 1368.8 674.82C1368.49 674.663 1368.33 674.571 1368.33 674.571C1368.33 674.571 1360.58 705.916 1330.27 707.272C1298.7 708.671 1286.52 689.022 1286.52 689.022C1286.52 689.022 1265.93 708.481 1242.87 699.845C1232.18 695.834 1224.52 688.585 1219.42 681.963C1213.51 674.311 1210.98 667.487 1210.98 667.487C1210.98 667.487 1200.99 668.581 1189.16 665.263C1191.03 659.769 1192.24 653.273 1192 645.806C1191.41 627.326 1171.64 611.442 1171.64 611.442C1171.64 611.442 1177.09 603.978 1178.47 592.192C1178.86 588.94 1178.92 585.359 1178.49 581.521C1177.99 577.006 1176.77 572.126 1174.53 567C1174.53 567 1174.53 567 1174.53 566.981C1174.37 566.614 1174.21 566.246 1174.04 565.879C1168.08 552.936 1154.92 546.018 1143.26 542.329C1139.17 548.445 1135.22 551.574 1135.22 551.574C1135.22 551.574 1146.86 572.778 1140.54 595.274C1139.55 598.831 1138.27 601.96 1136.78 604.71C1124.61 627.283 1098.31 625.022 1098.31 625.022L1098.46 625.807C1098.72 627.39 1099.19 631.323 1098.69 636.489C1097.77 645.619 1093.77 658.604 1079.95 669.156C1058.03 685.927 1039.94 677.309 1036.87 675.639C1036.56 675.481 1036.39 675.39 1036.39 675.39C1036.39 675.39 1028.65 706.735 998.338 708.091C966.757 709.51 954.586 689.841 954.586 689.841C954.586 689.841 933.995 709.3 910.939 700.645C900.248 696.633 892.607 689.391 887.492 682.762C881.584 675.11 879.029 668.28 879.029 668.28C879.029 668.28 869.418 669.319 857.875 666.237C859.813 660.657 861.086 654.051 860.855 646.397C860.269 627.917 840.491 612.053 840.491 612.053C840.491 612.053 845.984 604.517 847.344 592.641C847.65 590.085 847.732 587.356 847.553 584.442C847.211 578.979 845.864 572.916 842.89 566.489C842.747 566.192 842.604 565.894 842.441 565.591C836.303 553.23 823.495 546.546 812.091 542.934C808 549.05 804.049 552.178 804.049 552.178C804.049 552.178 815.693 573.383 809.37 595.878C808.316 599.649 806.942 602.941 805.331 605.823C793.023 627.868 767.137 625.645 767.137 625.645L767.282 626.43C767.545 628.014 768.01 631.946 767.51 637.113C766.597 646.243 762.593 659.228 748.778 669.78C726.859 686.551 708.769 677.933 705.694 676.263C705.381 676.105 705.218 676.014 705.218 676.014C705.218 676.014 697.468 707.378 667.162 708.715C635.587 710.114 623.41 690.465 623.41 690.465C623.41 690.465 602.819 709.924 579.758 701.288C569.066 697.276 561.426 690.034 556.31 683.405C550.403 675.754 547.847 668.923 547.847 668.923C547.847 668.923 537.86 670.018 526.027 666.7C527.897 661.206 529.116 654.71 528.871 647.243C528.285 628.763 508.513 612.879 508.513 612.879C508.513 612.879 513.963 605.415 515.339 593.628C515.727 590.377 515.797 586.776 515.348 582.933C514.847 578.418 513.624 573.557 511.405 568.418C511.241 568.05 511.076 567.683 510.912 567.315C504.949 554.372 491.789 547.455 480.132 543.766C476.041 549.882 472.09 553.011 472.09 553.011C472.09 553.011 483.734 574.215 477.411 596.71C476.422 600.267 475.139 603.397 473.653 606.147C461.476 628.74 435.178 626.478 435.178 626.478L435.323 627.263C435.586 628.846 436.051 632.779 435.557 637.926C434.644 647.056 430.64 660.041 416.825 670.593C394.906 687.363 376.816 678.746 373.741 677.076C373.428 676.918 373.266 676.826 373.266 676.826C373.266 676.826 365.521 708.172 335.209 709.528C303.628 710.946 291.457 691.278 291.457 691.278C291.457 691.278 270.866 710.737 247.805 702.101C237.114 698.089 229.473 690.847 224.358 684.218C218.45 676.567 215.894 669.736 215.894 669.736C215.894 669.736 187.185 672.869 169.389 652.328C161.41 643.119 158.755 634.162 158.284 627.092L158.272 627.131C155.123 654.059 176.391 671.093 176.864 671.49C176.864 671.49 155.283 696.964 164.156 721.949C171.76 743.417 192.816 747.189 198.594 747.832L200.06 747.957C200.06 747.957 196.723 755.296 198.375 765.751C199.387 772.221 202.306 779.882 209.111 787.719C226.887 808.254 255.616 805.127 255.616 805.127C255.616 805.127 264.446 828.85 287.507 837.486C310.563 846.141 331.154 826.682 331.154 826.682C331.154 826.682 343.305 846.345 374.886 844.927C405.198 843.571 412.943 812.225 412.943 812.225C412.943 812.225 413.1 812.336 413.418 812.475C416.487 814.164 434.583 822.762 456.502 805.992C478.094 789.462 475.742 767.08 475.006 762.642L474.861 761.857C474.861 761.857 501.159 764.119 513.336 741.526C514.822 738.776 516.105 735.647 517.094 732.09C523.398 709.589 511.773 688.39 511.773 688.39C511.773 688.39 515.781 685.215 519.895 679.021C531.692 682.667 545.166 689.595 551.238 702.741C551.402 703.108 551.566 703.475 551.731 703.843C553.969 708.988 555.166 713.862 555.687 718.383C556.136 722.226 556.047 725.822 555.659 729.073C554.283 740.86 548.832 748.324 548.832 748.324C548.832 748.324 568.605 764.207 569.197 782.668C569.424 790.194 568.194 796.728 566.318 802.242C577.894 805.355 587.549 804.309 587.549 804.309C587.549 804.309 596.379 828.032 619.46 836.673C642.516 845.328 663.107 825.869 663.107 825.869C663.107 825.869 675.278 845.538 706.858 844.12C737.171 842.763 744.915 811.418 744.915 811.418C744.915 811.418 745.072 811.529 745.39 811.667C748.44 813.351 766.536 821.949 788.474 805.185C810.066 788.655 807.695 766.267 806.978 761.835L806.834 761.05C806.834 761.05 832.739 763.278 845.027 741.228C846.638 738.346 848.013 735.054 849.066 731.283C855.37 708.781 843.745 687.583 843.745 687.583C843.745 687.583 847.753 684.408 851.867 678.214C863.392 681.778 876.533 688.478 882.761 701.035C882.924 701.339 883.047 701.63 883.19 701.928C886.158 708.374 887.511 714.417 887.853 719.88C888.033 722.794 887.944 725.543 887.645 728.079C886.284 739.956 880.791 747.491 880.791 747.491C880.791 747.491 900.564 763.375 901.155 781.836C901.395 789.534 900.103 796.199 898.14 801.792C909.422 804.689 918.687 803.673 918.687 803.673C918.687 803.673 927.516 827.396 950.597 836.038C973.653 844.693 994.244 825.234 994.244 825.234C994.244 825.234 1006.41 844.902 1038 843.484C1068.31 842.128 1076.05 810.783 1076.05 810.783C1076.05 810.783 1076.21 810.894 1076.52 811.051C1079.58 812.715 1097.67 821.333 1119.61 804.569C1141.2 788.038 1138.85 765.657 1138.11 761.219L1137.96 760.434C1137.96 760.434 1164.24 762.69 1176.43 740.123C1177.94 737.378 1179.21 734.224 1180.19 730.686C1186.51 708.191 1174.87 686.986 1174.87 686.986C1174.87 686.986 1178.88 683.811 1182.99 677.617C1194.79 681.264 1208.26 688.191 1214.34 701.337C1214.5 701.704 1214.66 702.072 1214.83 702.439C1217.07 707.565 1218.29 712.445 1218.79 716.96C1219.23 720.823 1219.15 724.398 1218.78 727.655C1217.41 739.442 1211.96 746.906 1211.96 746.906C1211.96 746.906 1231.73 762.79 1232.32 781.251C1232.55 788.776 1231.34 795.317 1229.42 800.818C1241 803.932 1250.65 802.886 1250.65 802.886C1250.65 802.886 1259.5 826.614 1282.56 835.25C1305.62 843.905 1326.21 824.446 1326.21 824.446C1326.21 824.446 1338.38 844.115 1369.96 842.696C1400.27 841.34 1408.02 809.995 1408.02 809.995C1408.02 809.995 1408.18 810.106 1408.49 810.244C1411.54 811.928 1429.64 820.526 1451.58 803.762C1473.17 787.231 1470.8 764.844 1470.08 760.412L1469.94 759.627C1469.94 759.627 1503.04 762.483 1512.17 729.86M357.504 41.7685C355.705 37.8358 354.022 32.8155 353.529 27.2222C355.767 32.3677 356.984 37.2474 357.504 41.7685ZM1354.23 188.73C1360.54 166.229 1348.91 145.03 1348.91 145.03C1348.91 145.03 1352.87 141.882 1356.99 135.733C1361.62 128.825 1366.41 118.115 1365.97 103.871C1365.38 85.3912 1345.61 69.5076 1345.61 69.5076C1345.61 69.5076 1359.97 49.8613 1348 23.9187C1341.83 10.5323 1327.96 3.59014 1315.99 0C1312.59 4.47964 1309.72 6.769 1309.72 6.769C1309.72 6.769 1321.36 27.9733 1315.04 50.4689C1305.89 83.0861 1272.8 80.2361 1272.8 80.2361L1272.95 81.0211C1273.24 82.8029 1273.79 87.4833 1272.96 93.5445C1271.71 102.53 1267.36 114.499 1254.44 124.371C1232.53 141.141 1214.44 132.523 1211.36 130.854C1211.05 130.696 1210.89 130.604 1210.89 130.604C1210.89 130.604 1203.14 161.949 1172.83 163.306C1141.25 164.705 1129.08 145.055 1129.08 145.055C1129.08 145.055 1108.49 164.514 1085.43 155.859C1074.82 151.871 1067.22 144.704 1062.11 138.121C1056.12 130.401 1053.54 123.501 1053.54 123.501C1053.54 123.501 1043.75 124.57 1032.06 121.357C1033.42 116.494 1034.23 110.934 1034.04 104.671C1033.46 86.1905 1013.68 70.3263 1013.68 70.3263C1013.68 70.3263 1019.13 62.8624 1020.5 51.0756C1020.89 47.8245 1020.96 44.2426 1020.51 40.3801C1018.71 36.4474 1017.04 31.4524 1016.55 25.8591C1016.39 25.4917 1016.22 25.1243 1016.06 24.7569C1009.88 11.3452 996.003 4.40305 984.035 0.832347C980.635 5.29257 977.763 7.58192 977.763 7.58192C977.763 7.58192 989.407 28.7862 983.084 51.2818C982.095 54.8388 980.812 57.9681 979.326 60.7181C967.149 83.3109 940.851 81.049 940.851 81.049L940.996 81.834C941.284 83.6158 941.841 88.2962 941.007 94.3574C939.756 103.343 935.403 115.312 922.492 125.184C900.573 141.954 882.483 133.336 879.408 131.667C879.096 131.509 878.933 131.417 878.933 131.417C878.933 131.417 871.183 162.782 840.876 164.119C809.296 165.537 797.124 145.868 797.124 145.868C797.124 145.868 776.533 165.327 753.472 156.692C742.858 152.704 735.258 145.537 730.151 138.953C724.157 131.233 721.581 124.333 721.581 124.333C721.581 124.333 712.168 125.347 700.782 122.375C702.212 117.426 703.088 111.717 702.886 105.3C702.3 86.8202 682.527 70.9366 682.527 70.9366C682.527 70.9366 688.02 63.4009 689.381 51.5247C689.661 48.9824 689.769 46.2397 689.589 43.3257C689.247 37.8627 687.894 31.8193 684.926 25.373C684.783 25.0755 684.64 24.7781 684.497 24.4806C678.12 11.6456 664.6 4.9371 652.929 1.43488C649.523 5.91452 646.651 8.20388 646.651 8.20388C646.651 8.20388 658.295 29.4082 651.972 51.9038C650.919 55.6744 649.544 58.9666 647.933 61.8486C635.626 83.8933 609.74 81.671 609.74 81.671L609.884 82.456C610.172 84.2378 610.729 88.9183 609.876 94.9736C608.625 103.96 604.272 115.928 591.361 125.8C569.442 142.57 551.352 133.953 548.277 132.283C547.965 132.125 547.802 132.033 547.802 132.033C547.802 132.033 540.057 163.378 509.745 164.735C478.17 166.134 465.993 146.484 465.993 146.484C465.993 146.484 445.402 165.943 422.341 157.308C411.727 153.32 404.127 146.153 399.02 139.569C393.026 131.849 390.45 124.949 390.45 124.949C390.45 124.949 380.641 126.013 368.966 122.806C370.328 117.942 371.143 112.363 370.952 106.119C370.366 87.639 350.588 71.7748 350.588 71.7748C350.588 71.7748 356.038 64.3109 357.414 52.524C357.802 49.2729 357.867 45.691 357.442 41.8344C355.643 37.9017 353.96 32.8814 353.467 27.2881C353.302 26.9207 353.138 26.5533 352.974 26.1859C346.792 12.7742 332.919 5.83207 320.951 2.26135C317.545 6.74101 314.673 9.0304 314.673 9.0304C314.673 9.0304 326.317 30.2347 319.994 52.7302C319.005 56.2873 317.722 59.4165 316.236 62.1666C304.065 84.7399 277.767 82.478 277.767 82.478L277.912 83.2631C278.2 85.0449 278.757 89.7253 277.904 95.7806C276.653 104.767 272.3 116.735 259.388 126.607C237.47 143.377 219.38 134.76 216.305 133.09C215.992 132.932 215.835 132.821 215.835 132.821C215.835 132.821 208.085 164.186 177.779 165.522C146.198 166.941 134.027 147.272 134.027 147.272C134.027 147.272 113.436 166.731 90.3744 158.095C79.7607 154.107 72.1606 146.94 67.053 140.357C61.0599 132.637 58.4832 125.737 58.4832 125.737C58.4832 125.737 29.7738 128.869 11.9782 108.329C3.85961 98.9503 1.26532 89.8629 0.836831 82.7215C0.623327 83.7798 0.442796 84.8692 0.314623 85.9957C-2.81572 112.929 18.4328 129.958 18.906 130.355C18.906 130.355 -2.67428 155.828 6.19807 180.814C13.8026 202.282 34.8585 206.054 40.6366 206.697L42.122 206.827C42.122 206.827 39.8101 211.891 39.9852 219.592C40.1492 226.908 42.523 236.585 51.1727 246.59C68.9488 267.124 97.6777 263.998 97.6777 263.998C97.6777 263.998 99.9779 270.2 105.321 277.406C110.419 284.305 118.307 292.131 129.569 296.357C152.624 305.012 173.221 285.533 173.221 285.533C173.221 285.533 185.392 305.202 216.973 303.784C247.285 302.427 255.03 271.082 255.03 271.082C255.03 271.082 255.187 271.193 255.499 271.351C258.568 273.04 276.664 281.639 298.583 264.868C313.013 253.824 316.759 240.147 317.428 230.985C317.76 226.446 317.341 222.993 317.106 221.524L316.962 220.739C316.962 220.739 343.24 222.995 355.436 200.408C356.928 197.639 358.212 194.51 359.194 190.972C365.498 168.471 353.873 147.272 353.873 147.272C353.873 147.272 357.831 144.124 361.952 137.975C373.539 141.685 386.488 148.602 392.402 161.425C392.567 161.792 392.737 162.14 392.896 162.527C395.134 167.673 396.345 172.572 396.865 177.093C397.315 180.936 397.225 184.531 396.843 187.763C395.467 199.55 390.017 207.014 390.017 207.014C390.017 207.014 409.789 222.897 410.375 241.378C410.609 248.884 409.384 255.399 407.508 260.913C419.478 264.336 429.658 263.236 429.658 263.236C429.658 263.236 431.958 269.438 437.301 276.644C442.399 283.542 450.287 291.368 461.549 295.594C484.604 304.249 505.201 284.771 505.201 284.771C505.201 284.771 517.372 304.44 548.953 303.021C579.265 301.665 587.01 270.32 587.01 270.32C587.01 270.32 587.167 270.431 587.485 270.569C590.535 272.253 608.631 280.851 630.569 264.086C644.999 253.042 648.745 239.365 649.394 230.197C649.726 225.658 649.307 222.206 649.073 220.737L648.928 219.952C648.928 219.952 674.815 222.174 687.122 200.129C688.733 197.247 690.108 193.955 691.161 190.184C697.465 167.683 685.84 146.485 685.84 146.485C685.84 146.485 689.797 143.336 693.919 137.187C705.234 140.815 717.855 147.485 723.939 159.745C724.082 160.042 724.226 160.34 724.369 160.637C727.343 167.064 728.689 173.127 729.032 178.59C729.032 178.59 729.032 178.59 729.026 178.609C729.205 181.524 729.098 184.266 728.817 186.808C727.476 198.691 721.964 206.22 721.964 206.22C721.964 206.22 741.736 222.104 742.322 240.584C742.567 248.263 741.282 254.908 739.318 260.502C750.999 263.689 760.783 262.639 760.783 262.639C760.783 262.639 763.083 268.841 768.427 276.047C773.524 282.946 781.406 290.791 792.694 295.003C815.749 303.659 836.346 284.18 836.346 284.18C836.346 284.18 848.517 303.849 880.098 302.43C910.41 301.074 918.154 269.729 918.154 269.729C918.154 269.729 918.311 269.84 918.624 269.998C921.699 271.668 939.789 280.285 961.708 263.515C976.157 252.476 979.884 238.793 980.533 229.626C980.865 225.087 980.446 221.634 980.206 220.185L980.061 219.4C980.061 219.4 1006.36 221.661 1018.54 199.069C1020.02 196.319 1021.31 193.189 1022.29 189.632C1028.6 167.131 1016.97 145.933 1016.97 145.933C1016.97 145.933 1020.95 142.79 1025.05 136.635C1036.64 140.345 1049.59 147.263 1055.5 160.085C1055.67 160.453 1055.84 160.801 1056 161.168C1058.24 166.314 1059.45 171.213 1059.95 175.728C1060.4 179.571 1060.31 183.166 1059.93 186.398C1058.55 198.185 1053.1 205.649 1053.1 205.649C1053.1 205.649 1072.88 221.533 1073.47 239.993C1073.7 247.5 1072.48 254.015 1070.58 259.522C1082.55 262.945 1092.73 261.845 1092.73 261.845C1092.73 261.845 1095.03 268.048 1100.37 275.254C1105.49 282.158 1113.35 289.997 1124.64 294.21C1147.7 302.865 1168.29 283.406 1168.29 283.406C1168.29 283.406 1180.46 303.075 1212.04 301.656C1242.35 300.3 1250.1 268.955 1250.1 268.955C1250.1 268.955 1250.25 269.066 1250.57 269.204C1253.65 270.874 1271.72 279.486 1293.65 262.721C1308.1 251.683 1311.83 238 1312.48 228.832C1312.81 224.293 1312.39 220.841 1312.15 219.391L1312.01 218.606C1312.01 218.606 1345.1 221.456 1354.24 188.839" fill="#3F8E19"/>
</svg>
