<svg width="524" height="130" viewBox="0 0 524 130" fill="none" xmlns="http://www.w3.org/2000/svg">
<g clip-path="url(#clip0_3157_4721)">
<path d="M88.2339 121.111H85.1425V9.53538H88.2339V121.111ZM77.1562 128.584H96.0914V2.32031H77.1562V128.584Z" fill="#39B54A"/>
<path d="M160.625 12.7564H139.887V121.111H136.796V12.7564H116.315V9.66422H160.625V12.7564ZM108.844 2.32031V20.1003H128.938V128.584H147.873V20.1003H168.354V2.32031H108.973H108.844Z" fill="#39B54A"/>
<path d="M51.2665 36.2042H48.175V29.1179C48.175 18.9395 39.8024 10.5649 29.6264 10.5649C19.4503 10.5649 11.0777 18.9395 11.0777 29.1179V101.011C11.0777 111.189 19.4503 119.564 29.6264 119.564C39.8024 119.564 48.175 111.189 48.175 101.011V90.9613H51.2665V101.011C51.2665 112.993 41.4769 122.785 29.4975 122.785C17.5182 122.785 7.72861 112.993 7.72861 101.011V28.9891C7.72861 17.0069 17.5182 7.3439 29.4975 7.3439C41.4769 7.3439 51.2665 17.1358 51.2665 28.9891V36.0753V36.2042ZM54.8732 14.0436C49.9784 5.15362 40.704 0 29.7552 0C20.6096 0 12.4946 3.73637 7.5998 10.0496C1.15929 18.0377 0 23.449 0 43.6769V86.3231C0 106.809 1.2881 112.478 7.5998 119.95C12.881 126.392 20.8673 130 29.7552 130C40.9617 130 50.3648 124.46 54.8732 115.183C58.4798 107.968 59.2527 103.845 59.2527 90.446V83.4886H40.1888V87.0961L39.9312 93.9247C39.8024 102.686 39.4159 104.49 37.8702 107.582C36.1957 110.545 32.9754 112.478 29.4975 112.478C23.9587 112.478 20.0944 108.355 19.4503 101.655C19.0639 98.6918 18.8063 92.5074 18.8063 85.0347V45.0942C18.8063 37.7502 19.0639 31.6947 19.4503 28.4737C19.5792 26.4123 20.2232 24.4797 21.1249 22.8048C22.6706 19.8414 25.8909 17.9088 29.4975 17.9088C35.0364 17.9088 38.9007 21.6452 39.6735 27.7007C39.8024 30.1487 40.06 35.8176 40.06 40.7136V43.6769H59.1239V37.106C59.1239 24.4797 58.351 20.0991 54.7443 14.0436" fill="#39B54A"/>
<path d="M215.886 77.9496V121.111H212.795V77.9496L191.155 9.53538H194.504L214.469 72.4095L234.435 9.53538H237.784L216.144 77.9496H215.886ZM227.221 2.32031L214.34 51.9239L200.944 2.32031H181.107L204.808 77.4343V128.584H223.744V77.4343L246.414 2.32031H227.35H227.221Z" fill="#39B54A"/>
<path d="M344.439 99.0795C344.439 111.319 334.52 121.24 322.283 121.24H301.545V9.79306H322.283C334.52 9.79306 344.439 19.7138 344.439 31.9536V99.0795ZM320.609 2.32031H293.688V128.584H320.609C342.12 128.584 352.425 117.246 352.425 93.024V38.138C352.425 13.916 342.378 2.32031 320.609 2.32031Z" fill="#39B54A"/>
<path d="M333.49 89.414C333.49 99.0771 332.975 102.685 330.27 105.906C327.694 109.255 323.83 111.059 318.548 111.059H312.623V20.0979H318.548C323.83 20.0979 327.951 21.7728 330.27 24.9938C332.975 28.6013 333.49 31.9512 333.49 41.4854V89.414ZM322.284 12.8828H304.766V118.017H322.284C332.717 118.017 341.219 109.513 341.219 99.0771V31.9512C341.219 21.5151 332.717 13.0117 322.284 13.0117" fill="#39B54A"/>
<path d="M406.525 61.4581V64.5502H382.953V117.89H415.799V120.982H379.732V9.79306H415.799V12.8852H382.953V61.4581H406.525ZM423.399 20.1003V2.32031H371.875V128.584H423.399V110.933H390.81V71.8941H414.125V54.243H390.81V20.1003H423.399Z" fill="#39B54A"/>
<path d="M483.554 120.982H448.646V9.66422H451.738V117.89H483.425V120.982H483.554ZM459.724 111.062V2.32031H440.789V128.584H491.154V110.933H459.724V111.062Z" fill="#39B54A"/>
<path d="M513.181 9.66422H516.273V121.24H513.181V9.66422ZM505.066 128.584H524.002V2.32031H505.066V128.584Z" fill="#39B54A"/>
</g>
<defs>
<clipPath id="clip0_3157_4721">
<rect width="524" height="130" fill="white"/>
</clipPath>
</defs>
</svg>
