<svg width="360" height="776" viewBox="0 0 360 776" fill="none" xmlns="http://www.w3.org/2000/svg">
<g clip-path="url(#clip0_3126_12281)">
<rect width="360" height="776" fill="#E51713"/>
<mask id="mask0_3126_12281" style="mask-type:luminance" maskUnits="userSpaceOnUse" x="0" y="0" width="360" height="776">
<path d="M360 0H0V776H360V0Z" fill="white"/>
</mask>
<g mask="url(#mask0_3126_12281)">
<mask id="mask1_3126_12281" style="mask-type:luminance" maskUnits="userSpaceOnUse" x="0" y="-5" width="360" height="781">
<path d="M0 776H360L360 -5H0L0 776Z" fill="white"/>
</mask>
<g mask="url(#mask1_3126_12281)">
<path d="M-32.2162 295.499C62.4463 279.272 95.415 227.139 167.788 202.426C211.575 187.457 259.559 193.1 290.895 227.046C314.584 252.786 301.807 284.354 297.844 299.882C429.578 239.357 468.749 115.134 460.822 -0.135193C455.832 -73.0179 384.625 -216.825 182.43 -266.159C65.897 -294.604 -132.708 -284.392 -215.526 -238.321C-341.152 -168.47 -395.058 7.69865 -346.048 128.61C-271.717 311.82 -124.081 311.167 -32.2162 295.452" fill="#930000"/>
<path d="M408.013 449.353C313.351 465.58 280.382 517.712 208.009 542.426C164.222 557.394 116.238 551.752 84.9014 517.805C61.2125 492.066 73.9896 460.497 77.9533 444.969C-53.7815 505.495 -92.9522 629.717 -85.0248 744.987C-80.0352 817.869 -8.82848 961.676 193.367 1011.01C309.9 1039.46 508.505 1029.24 591.323 983.173C716.949 913.321 770.855 737.153 721.845 616.241C647.514 433.032 499.878 433.685 408.013 449.399" fill="#930000"/>
</g>
</g>
</g>
<defs>
<clipPath id="clip0_3126_12281">
<rect width="360" height="776" fill="white"/>
</clipPath>
</defs>
</svg>
