<svg width="1963" height="1032" viewBox="0 0 1963 1032" fill="none" xmlns="http://www.w3.org/2000/svg">
<path opacity="0.3" d="M0 33.1547C0 33.1547 26.8553 13.1168 51.3559 17.5829C70.0741 20.9772 91.3855 49.9473 100.417 63.4647C101.996 65.8168 106.11 65.1618 107.034 62.4821C112.339 47.3569 128.852 16.511 173.889 25.8601C232.935 38.0972 228.494 55.9021 261.906 54.8004C295.319 53.6988 335.438 22.5254 374.424 32.5295C402.442 39.7348 409.208 77.9944 410.758 98.9255C410.937 101.278 415.557 102.141 416.57 100.027C426.227 80.1679 449.178 43.9627 488.045 44.7666C541.517 45.8682 597.225 61.4698 629.535 49.2327C661.844 36.9956 700.831 16.9577 740.95 26.9617C781.069 36.9658 782.172 57.0037 850.13 43.665C892.514 35.358 906.731 18.8036 911.441 7.51929C911.679 6.92381 917.044 6.56652 917.372 7.16201C924.913 20.5603 947.655 38.9011 1016.15 21.4238C1116.42 -4.1819 1127.56 67.0376 1127.56 67.0376C1127.56 67.0376 1155.4 33.6609 1206.67 48.1013C1239.78 57.4503 1248.25 78.8876 1250.1 92.8814C1250.19 93.5364 1254.51 94.3106 1254.78 93.7151C1261.69 78.8876 1277.1 56.2296 1305.83 59.2368C1347.62 63.6433 1408.96 72.3671 1425.54 13.7123C1425.92 12.3725 1426.94 11.9854 1427.77 13.1168C1433.32 20.7687 1452.21 50.4832 1494.12 35.8642C1542.02 19.1609 1635.7 -21.957 1669.08 14.8735C1686.52 34.1373 1673.49 51.6444 1662.7 61.2912C1660.29 63.4349 1662.02 68.0201 1665.21 67.5437C1683 64.8641 1716 57.8076 1743.66 40.1218C1783.78 14.5162 1809.41 -3.28868 1851.73 12.3129C1877.78 21.9001 1888.66 34.0182 1893.16 41.9381C1894.89 44.975 1900.08 46.3446 1902.61 43.9627C1911.41 35.626 1927.44 21.662 1937.52 20.1137C1952 17.8807 1962.88 20.1137 1962.88 20.1137V160.736C1962.88 160.736 1939.75 180.774 1890.72 176.308C1857.01 173.241 1835.43 150.196 1825.24 136.084C1823.33 133.463 1817.37 134.803 1816.65 137.959C1813.52 151.983 1804.46 173.033 1778.2 177.41C1738.08 184.079 1734.74 147.368 1684.61 151.834C1634.48 156.27 1585.45 174.998 1534.21 166.096C1499.51 160.081 1484.76 129.444 1478.86 110.24C1477.88 106.994 1471.35 106.667 1470.13 109.823C1461.57 132.064 1441.69 171.515 1406.1 179.434C1355.97 190.57 1329.23 163.863 1305.83 169.43C1288.67 173.509 1278.71 199.175 1274.6 212.543C1273.76 215.282 1269.53 215.878 1267.86 213.585C1258.62 200.812 1234.81 174.73 1192.18 170.562C1135.37 164.994 1125.33 197.269 1061.84 192.833C998.355 188.396 988.311 126.05 988.311 126.05C988.311 126.05 971.589 160.558 934.839 160.558C898.088 160.558 857.969 113.813 857.969 113.813C857.969 113.813 889.176 174.313 823.423 185.419C757.701 196.555 749.892 156.479 695.287 155.377C655.019 154.573 623.246 190.064 609.326 208.762C607.389 211.382 601.576 209.655 601.129 206.41C598.685 188.337 587.955 158.503 543.753 157.61C489.148 156.508 490.281 196.555 411.175 197.686C332.249 198.788 328.761 119.738 290.013 112.741C289.835 112.711 289.685 112.741 289.715 112.919C289.834 117.266 304.976 180.209 231.832 200.604C156.065 221.743 113.74 162.761 113.74 162.761C113.74 162.761 90.3423 187.861 59.1353 195.661C27.9879 203.432 0 191.195 0 191.195V33.1547ZM0 331.163C0 331.163 28.7927 330.329 58.0623 338.696C87.3021 347.062 119.88 339.529 120.745 320.325C121.221 309.398 116.005 295.791 111.445 286.055C110.044 283.078 113.919 279.475 116.721 281.232C127.51 287.961 143.785 297.399 157.227 302.52C195.439 317.02 235.915 310.083 271.861 300.049C307.808 290.045 355.557 286.919 372.278 316.157C383.783 336.254 369.447 355.429 359.372 365.433C357.166 367.606 358.895 371.566 361.935 370.971C376.004 368.172 401.756 360.907 426.585 342.864C463.336 316.157 473.38 310.321 494.275 309.487C515.169 308.654 539.401 329.525 539.401 329.525C539.401 329.525 569.475 288.616 612.933 290.313C656.39 291.98 699.817 329.525 744.139 316.187C788.431 302.848 812.663 266.107 847.745 278.642C869.593 286.442 868.758 302.342 865.033 313.209C864.287 315.412 868.162 318.985 870.219 317.854C885.36 309.487 915.226 296.625 951.351 299.483C1003.99 303.652 1022.38 334.378 1048.28 322.677C1074.18 311.006 1102.59 290.968 1136.86 300.972C1157.91 307.135 1166.97 319.253 1170.81 327.679C1171.32 328.781 1175.52 328.692 1175.94 327.53C1180.26 314.966 1192.21 294.452 1223.75 296.804C1268.88 300.138 1374.99 343.102 1405.09 323.898C1421.96 313.15 1421.75 301.329 1418.29 293.022C1418.05 292.427 1421.45 288.973 1422.02 289.271C1438.26 298.322 1471.41 312.137 1515.34 306.361C1578.86 297.995 1643.18 292.993 1669.11 312.197C1686.67 325.208 1683.51 342.03 1679.63 351.558C1678.35 354.714 1680.68 358.198 1683.98 357.334C1692.54 355.101 1708.31 349.801 1733.43 337.237C1775.22 316.365 1777.73 311.363 1802.79 317.199C1818.92 320.95 1829.14 331.967 1834.42 339.351C1836.62 342.447 1841.66 343.013 1844.43 340.423C1854.06 331.371 1875.49 315.412 1905.56 317.229C1947.35 319.73 1962.97 328.096 1962.97 328.096V465.176C1962.97 465.176 1937.34 468.51 1910.57 456.005C1885.56 444.304 1879.57 431.144 1859.78 428.107C1857.43 427.75 1854.83 429.536 1853.91 431.71C1848.81 443.441 1829.86 476.014 1782.73 471.875C1736.32 467.796 1726.7 439.183 1724.73 428.851C1724.37 426.946 1722.46 425.576 1720.62 426.112C1713.34 428.196 1696.44 433.556 1682.46 441.803C1664.07 452.671 1608.93 483.546 1559.63 472.679C1510.33 461.811 1547.09 424.266 1532.9 414.262C1518.71 404.258 1466.88 419.264 1445.15 432.633C1428.67 442.756 1405 458.625 1394.51 465.741C1391.35 467.855 1387.18 467.587 1384.17 465.265C1371.94 455.857 1338.56 433.854 1298.92 438.468C1248.79 444.304 1225.39 473.959 1159.37 468.123C1111.23 463.866 1088.19 407.771 1079.22 377.7C1079.13 377.372 1075.52 377.908 1075.52 378.236C1074.24 399.137 1064.7 430.995 1020.65 442.399C952.961 459.936 886.97 439.064 858.535 444.9C841.039 448.502 825.48 458.09 816.061 464.938C813.498 466.813 808.908 463.925 809.385 460.769C811.531 446.865 811.322 424.892 789.981 419.83C758.237 412.327 734.84 433.198 700.592 428.167C678.715 424.951 668.074 414.947 663.245 408.159C661.368 405.509 656.807 404.764 654.542 407.116C640.473 421.795 598.715 459.787 546.018 455.737C480.832 450.735 493.38 429.03 462.471 429.03C431.563 429.03 376.421 488.28 289.507 482.445C202.592 476.609 212.637 426.529 188.404 424.862C164.172 423.194 108.196 464.074 63.9043 462.437C19.6124 460.769 0 446.567 0 446.567V331.193L0 331.163ZM0 612.468C0 612.468 51.3559 610.801 92.3095 589.095C133.263 567.39 148.285 548.186 179.194 566.556C201.757 579.955 203.844 600.052 203.337 609.907C203.188 612.766 205.662 615.356 208.494 614.88C217.704 613.302 235.587 609.639 246.318 603.536C282.651 582.873 307.45 584.659 318.419 590.137C340.773 601.303 342.979 616.636 342.979 616.636C342.979 616.636 401.458 572.392 441.577 583.26C481.696 594.127 507.598 615.832 548.551 611.634C583.931 608.032 666.077 565.782 687.776 554.379C690.339 553.009 693.588 554.706 694.363 557.505C697.016 566.914 704.944 584.421 727.358 587.428C758.267 591.596 774.154 584.927 817.611 596.598C861.068 608.27 911.202 619.137 955.494 609.967C999.786 600.796 1031.53 549.883 1076.66 551.55C1121.78 553.218 1146.85 573.255 1151.02 587.428C1155.2 601.6 1152.69 619.971 1152.69 619.971C1152.69 619.971 1184.43 571.558 1215.37 579.061C1246.28 586.564 1255.49 614.939 1255.49 614.939C1255.49 614.939 1269.68 595.735 1303.12 572.362C1336.57 548.99 1345.75 550.657 1392.54 546.489C1424.08 543.69 1445.72 527.225 1456.5 516.804C1458.14 515.196 1462.56 517.37 1462.32 519.662C1460.23 539.819 1463.12 580.669 1517.04 594.931C1589.74 614.135 1628.16 529.815 1667.44 536.514C1706.73 543.184 1695.85 594.931 1695.85 594.931C1695.85 594.931 1721.75 570.129 1758.53 574.893C1792.78 579.359 1799.48 599.099 1799.48 599.099C1799.48 599.099 1817.04 601.6 1866.34 577.394C1915.64 553.188 1963 576.56 1963 576.56V747.046C1963 747.046 1925.65 756.217 1883.86 745.379C1854.09 737.638 1836.2 719.327 1828.4 709.442C1826.07 706.494 1821 706.226 1818.17 708.698C1810.12 715.694 1792.93 726.086 1763.57 722.84C1710.36 717.004 1680.02 689.463 1654.09 694.466C1628.19 699.468 1612.3 733.678 1536.27 729.51C1460.23 725.341 1449.38 669.396 1420.11 667.728C1420.95 667.728 1398.38 715.307 1344.08 715.307C1289.77 715.307 1266.37 661.684 1210.4 668.383C1159.37 674.457 1156.24 727.693 1135.2 745.29C1132.66 747.404 1129.14 744.813 1128.94 741.508C1128.07 727.425 1118.06 698.604 1052.42 691.726C964.674 682.556 975.554 727.604 927.089 726.8C896.21 726.264 886.016 705.065 882.708 689.731C882.201 687.379 876.12 686.456 875.047 688.6C864.377 710.067 838.803 748.118 790.905 749.309C724.05 750.977 695.645 704.231 632.992 706.732C585.72 708.608 550.34 748.982 535.824 768.692C533.917 771.282 526.823 769.853 525.392 766.965C521.428 758.837 512.516 748.148 492.635 739.305C455.05 722.602 441.667 730.135 417.434 705.929C405.214 693.721 399.998 680.68 397.852 670.736C397.584 669.485 390.192 668.145 389.536 669.247C385.333 676.035 378.776 684.283 368.821 692.322C346.287 710.484 312.368 720.25 285.423 715.129C245.006 707.447 221.102 666.716 221.102 666.716C221.102 666.716 202.711 720.964 129.18 730.165C78.2708 736.506 59.4036 721.679 52.6078 711.943C52.2501 711.407 48.733 712.181 48.6436 712.806C47.7494 720.756 44.8284 732.338 35.5587 738.531C20.5066 748.535 0.0596122 736.03 0.0596122 736.03V612.438L0 612.468ZM0 850.184C0 850.184 26.8553 830.146 51.3559 834.612C70.0741 838.006 91.3855 867.006 100.417 880.523C101.996 882.876 106.11 882.221 107.034 879.541C112.339 864.416 128.852 833.57 173.889 842.919C232.935 855.156 228.494 872.961 261.906 871.859C295.319 870.757 335.438 839.584 374.424 849.588C402.442 856.794 409.208 895.023 410.758 915.984C410.937 918.336 415.557 919.2 416.57 917.086C426.227 897.227 449.178 861.021 488.045 861.825C541.517 862.927 597.225 878.529 629.535 866.262C661.844 854.025 700.831 833.987 740.95 843.991C781.069 853.995 782.172 874.033 850.13 860.694C892.514 852.357 906.731 835.833 911.441 824.548C911.679 823.953 917.044 823.595 917.372 824.191C924.913 837.589 947.655 855.93 1016.15 838.453C1116.42 812.847 1127.56 884.096 1127.56 884.096C1127.56 884.096 1155.4 850.72 1206.67 865.16C1239.78 874.509 1248.25 895.946 1250.1 909.94C1250.19 910.595 1254.51 911.369 1254.78 910.744C1261.69 895.917 1277.1 873.259 1305.83 876.266C1347.62 880.672 1408.96 889.396 1425.54 830.741C1425.92 829.401 1426.94 829.014 1427.77 830.146C1433.32 837.798 1452.21 867.512 1494.12 852.893C1542.02 836.19 1635.7 795.072 1669.08 831.902C1686.52 851.166 1673.49 868.703 1662.7 878.32C1660.29 880.494 1662.02 885.049 1665.21 884.573C1683 881.893 1716 874.837 1743.66 857.151C1783.78 831.545 1809.41 813.74 1851.73 829.342C1877.78 838.929 1888.66 851.047 1893.16 858.967C1894.89 862.004 1900.08 863.374 1902.61 860.992C1911.41 852.655 1927.44 838.691 1937.52 837.143C1952 834.91 1962.88 837.143 1962.88 837.143V977.765C1962.88 977.765 1939.75 997.803 1890.72 993.337C1857.01 990.27 1835.43 967.225 1825.24 953.112C1823.33 950.492 1817.37 951.832 1816.65 954.988C1813.52 969.012 1804.46 990.092 1778.2 994.439C1738.08 1001.11 1734.74 964.397 1684.61 968.863C1634.48 973.329 1585.45 992.027 1534.21 983.125C1499.51 977.11 1484.76 946.473 1478.86 927.269C1477.88 924.023 1471.35 923.696 1470.13 926.852C1461.57 949.093 1441.69 988.544 1406.1 996.463C1355.97 1007.6 1329.23 980.862 1305.83 986.43C1288.67 990.509 1278.71 1016.17 1274.6 1029.54C1273.76 1032.28 1269.53 1032.88 1267.86 1030.58C1258.62 1017.81 1234.81 991.729 1192.18 987.561C1135.37 981.993 1125.33 1014.27 1061.84 1009.83C998.355 1005.4 988.311 943.049 988.311 943.049C988.311 943.049 971.589 977.557 934.839 977.557C898.088 977.557 857.969 930.812 857.969 930.812C857.969 930.812 889.176 991.313 823.423 1002.45C757.701 1013.58 749.892 973.508 695.287 972.406C655.019 971.572 623.246 1007.09 609.326 1025.79C607.389 1028.41 601.576 1026.68 601.129 1023.44C598.685 1005.4 587.955 975.532 543.753 974.639C489.148 973.537 490.281 1013.58 411.175 1014.69C332.249 1015.79 328.761 936.737 290.013 929.74C289.835 929.74 289.685 929.74 289.715 929.948C289.834 934.295 304.976 997.238 231.832 1017.63C156.065 1038.77 113.74 979.79 113.74 979.79C113.74 979.79 90.3423 1004.89 59.1353 1012.69C27.9879 1020.46 0 1008.19 0 1008.19V850.154V850.184Z" fill="#CABCD4"/>
</svg>
