<svg width="2216" height="2219" viewBox="0 0 2216 2219" fill="none" xmlns="http://www.w3.org/2000/svg">
<g clip-path="url(#clip0_3166_4724)">
<g opacity="0.3">
<path d="M1423.93 2218.94H1010.24C855.41 2129.66 761.495 2012.49 684.776 1878.12C619.562 1763.9 584.624 1609.14 493.615 1525.01C374.753 1415.03 215.2 1450.62 148.533 1595.46C47.1696 1815.71 221.194 2073.98 416.594 2173.49L507.784 2219H0V820.478L31.3656 911.63C123.283 1117.48 335.636 1254.33 564.642 1202.1C1062.13 1088.55 866.612 454.172 1191.47 185.253C1326.08 73.8235 1525.17 43.984 1695.56 60.9314C1888.42 80.1183 2111.91 199.9 2216 364.229L2215.52 1574.46C2130.26 1789.32 1894.11 1906.81 1667.71 1874.24C1383.24 1833.27 1320.14 1573.24 1458.02 1346.15C1571.85 1158.64 1717.96 1015.68 1729.53 776.293C1737.89 603.369 1650.69 359.024 1440.03 376.879C1223.87 395.219 1145.27 683.446 1112.63 858.912C1053.9 1174.98 1047.9 1574.27 1185.48 1870.01C1243.85 1995.48 1325.29 2122.1 1424.05 2219" fill="#EEEAF1"/>
<path d="M981.096 0C919.238 80.5062 879.251 187.181 861.439 287.072C830.116 462.502 866.286 661.314 756.687 814.694C661.87 947.417 484.536 926.276 412.015 769.746C329.073 590.742 419.891 408.044 522.523 254.543C577.353 172.522 634.364 95.2869 664.899 0L981.096 0Z" fill="#EEEAF1"/>
</g>
</g>
<defs>
<clipPath id="clip0_3166_4724">
<rect width="2216" height="2219" fill="white"/>
</clipPath>
</defs>
</svg>
