<svg width="2189" height="836" viewBox="0 0 2189 836" fill="none" xmlns="http://www.w3.org/2000/svg">
<path d="M0 60.9219C0 60.9219 32.1076 60 64.747 69.2524C97.3531 78.5048 133.682 70.1743 134.646 48.9365C135.178 36.8524 129.361 21.8048 124.276 11.0378C122.713 7.7451 127.034 3.76094 130.159 5.70362C142.191 13.1451 160.339 23.5829 175.329 29.2463C217.939 45.2817 263.076 37.6097 303.161 26.5134C343.245 15.45 396.492 11.9927 415.139 44.3268C427.968 66.5524 411.981 87.7572 400.747 98.8207C398.287 101.224 400.215 105.604 403.605 104.945C419.293 101.85 448.011 93.8158 475.698 73.8622C516.68 44.3268 527.881 37.8731 551.18 36.9512C574.48 36.0292 601.502 59.1109 601.502 59.1109C601.502 59.1109 635.039 13.8695 683.5 15.7463C731.96 17.5902 780.387 59.1109 829.812 44.3597C879.203 29.6085 906.225 -11.0232 945.346 2.83898C969.709 11.4658 968.778 29.0487 964.624 41.067C963.793 43.5036 968.114 47.4548 970.407 46.2036C987.292 36.9512 1020.6 22.7268 1060.88 25.8878C1119.58 30.4975 1140.09 64.478 1168.97 51.5377C1197.85 38.6304 1229.53 16.4707 1267.75 27.5341C1291.22 34.3499 1301.32 47.7512 1305.61 57.0695C1306.17 58.2878 1310.86 58.189 1311.33 56.9048C1316.15 43.0097 1329.47 20.3232 1364.64 22.9244C1414.96 26.6122 1533.29 74.1256 1566.86 52.8878C1585.67 41.0012 1585.44 27.9292 1581.58 18.7426C1581.32 18.0841 1585.1 14.2646 1585.74 14.5939C1603.85 24.6036 1640.81 39.8817 1689.8 33.4939C1760.63 24.2414 1832.36 18.7097 1861.28 39.9475C1880.85 54.3365 1877.33 72.9402 1873.01 83.4768C1871.58 86.967 1874.17 90.8195 1877.86 89.8646C1887.4 87.3951 1904.98 81.5341 1933 67.639C1979.6 44.5573 1982.39 39.0256 2010.35 45.4792C2028.33 49.628 2039.73 61.8109 2045.61 69.9768C2048.07 73.4012 2053.69 74.0268 2056.78 71.1621C2067.52 61.1524 2091.41 43.5036 2124.95 45.5122C2171.55 48.278 2188.97 57.5304 2188.97 57.5304V209.126C2188.97 209.126 2160.38 212.813 2130.53 198.984C2102.65 186.044 2095.97 171.49 2073.9 168.132C2071.27 167.737 2068.38 169.712 2067.35 172.116C2061.67 185.089 2040.53 221.111 1987.98 216.534C1936.23 212.023 1925.49 180.38 1923.3 168.955C1922.9 166.847 1920.77 165.333 1918.71 165.926C1910.6 168.23 1891.76 174.157 1876.17 183.278C1855.66 195.296 1794.17 229.441 1739.19 217.423C1684.22 205.405 1725.2 163.884 1709.38 152.821C1693.56 141.757 1635.76 158.352 1611.53 173.137C1593.15 184.332 1566.76 201.882 1555.06 209.751C1551.53 212.089 1546.88 211.793 1543.52 209.224C1529.9 198.819 1492.67 174.487 1448.46 179.59C1392.56 186.044 1366.47 218.839 1292.85 212.385C1239.17 207.677 1213.47 145.643 1203.47 112.387C1203.37 112.024 1199.35 112.617 1199.35 112.979C1197.92 136.094 1187.28 171.326 1138.16 183.937C1062.67 203.33 989.087 180.249 957.378 186.702C937.867 190.686 920.517 201.289 910.014 208.862C907.156 210.937 902.037 207.743 902.569 204.252C904.962 188.876 904.729 164.576 880.931 158.978C845.533 150.68 819.442 173.762 781.252 168.197C756.855 164.641 744.989 153.578 739.605 146.071C737.511 143.14 732.425 142.317 729.899 144.918C714.211 161.151 667.645 203.166 608.881 198.688C536.19 193.156 550.183 169.152 515.716 169.152C481.248 169.152 419.759 234.677 322.838 228.223C225.916 221.769 237.118 166.386 210.095 164.543C183.073 162.699 120.653 207.907 71.2616 206.096C21.8704 204.252 0 188.546 0 188.546V60.9548L0 60.9219ZM0 372.015C0 372.015 57.2685 370.171 102.937 346.167C148.606 322.163 165.357 300.925 199.825 321.241C224.986 336.058 227.312 358.284 226.747 369.183C226.581 372.344 229.34 375.208 232.498 374.682C242.768 372.937 262.711 368.886 274.676 362.136C315.193 339.285 342.847 341.261 355.078 347.319C380.006 359.667 382.466 376.624 382.466 376.624C382.466 376.624 447.678 327.695 492.416 339.713C537.154 351.732 566.038 375.735 611.706 371.093C651.159 367.108 742.762 320.385 766.959 307.774C769.818 306.26 773.441 308.136 774.305 311.232C777.263 321.636 786.104 340.997 811.099 344.323C845.566 348.933 863.282 341.557 911.743 354.465C960.203 367.372 1016.11 379.39 1065.5 369.249C1114.89 359.107 1150.29 302.802 1200.61 304.646C1250.93 306.49 1278.89 328.65 1283.54 344.323C1288.19 359.996 1285.4 380.312 1285.4 380.312C1285.4 380.312 1320.8 326.773 1355.3 335.071C1389.77 343.368 1400.04 374.747 1400.04 374.747C1400.04 374.747 1415.86 353.51 1453.15 327.662C1490.44 301.815 1500.68 303.658 1552.86 299.049C1588.03 295.954 1612.16 277.745 1624.19 266.221C1626.02 264.443 1630.94 266.846 1630.67 269.382C1628.35 291.673 1631.57 336.849 1691.7 352.621C1772.76 373.858 1815.61 280.61 1859.42 288.018C1903.22 295.394 1891.09 352.621 1891.09 352.621C1891.09 352.621 1919.97 325.193 1960.99 330.461C1999.18 335.4 2006.66 357.23 2006.66 357.23C2006.66 357.23 2026.23 359.996 2081.21 333.227C2136.19 306.457 2189 332.305 2189 332.305V520.844C2189 520.844 2147.35 530.985 2100.75 519C2067.55 510.439 2047.61 490.189 2038.9 479.257C2036.31 475.997 2030.66 475.701 2027.5 478.434C2018.52 486.172 1999.35 497.663 1966.61 494.074C1907.28 487.621 1873.44 457.163 1844.52 462.695C1815.64 468.227 1797.93 506.06 1713.14 501.45C1628.35 496.84 1616.25 434.971 1583.61 433.127C1584.54 433.127 1559.38 485.744 1498.82 485.744C1438.26 485.744 1412.17 426.443 1349.75 433.851C1292.85 440.568 1289.36 499.441 1265.89 518.901C1263.06 521.239 1259.14 518.374 1258.91 514.719C1257.95 499.145 1246.78 467.272 1173.59 459.666C1075.74 449.524 1087.87 499.342 1033.82 498.453C999.39 497.861 988.023 474.417 984.334 457.46C983.769 454.858 976.988 453.838 975.792 456.208C963.892 479.949 935.375 522.029 881.962 523.346C807.41 525.19 775.734 473.495 705.868 476.261C653.153 478.335 613.7 522.984 597.514 544.782C595.386 547.646 587.476 546.066 585.88 542.872C581.46 533.883 571.522 522.062 549.352 512.283C507.44 493.811 492.516 502.141 465.494 475.372C451.866 461.872 446.05 447.45 443.656 436.452C443.357 435.069 435.114 433.588 434.383 434.806C429.697 442.313 422.384 451.434 411.283 460.324C386.155 480.41 348.331 491.21 318.284 485.546C273.214 477.051 246.557 432.007 246.557 432.007C246.557 432.007 226.049 492 144.052 502.174C87.2821 509.188 66.2427 492.79 58.6645 482.023C58.2656 481.43 54.3436 482.286 54.2439 482.978C53.2468 491.769 49.9895 504.578 39.6525 511.427C22.8675 522.49 0.0664753 508.661 0.0664753 508.661V371.982L0 372.015ZM0 634.902C0 634.902 29.9471 612.743 57.2685 617.682C78.1418 621.435 101.907 653.506 111.978 668.455C113.739 671.056 118.326 670.331 119.356 667.368C125.273 650.641 143.686 616.529 193.909 626.868C259.752 640.401 254.8 660.091 292.059 658.873C329.319 657.655 374.057 623.18 417.532 634.244C448.775 642.212 456.32 684.49 458.048 707.671C458.248 710.272 463.4 711.227 464.53 708.889C475.299 686.927 500.892 646.888 544.234 647.777C603.862 648.995 665.983 666.249 702.013 652.683C738.043 639.15 781.517 616.99 826.255 628.054C870.993 639.117 872.223 661.277 948.005 646.525C995.269 637.306 1011.12 619.032 1016.37 606.552C1016.64 605.894 1022.62 605.499 1022.99 606.157C1031.4 620.974 1056.76 641.257 1133.14 621.929C1244.95 593.612 1257.38 672.406 1257.38 672.406C1257.38 672.406 1288.43 635.495 1345.59 651.464C1382.52 661.803 1391.96 685.511 1394.02 700.986C1394.12 701.711 1398.94 702.567 1399.24 701.875C1406.95 685.478 1424.13 660.421 1456.18 663.746C1502.77 668.619 1571.18 678.267 1589.66 613.401C1590.09 611.919 1591.22 611.491 1592.15 612.743C1598.33 621.205 1619.41 654.066 1666.14 637.899C1719.55 619.427 1824.02 573.955 1861.24 614.685C1880.69 635.989 1866.16 655.383 1854.13 666.018C1851.44 668.422 1853.37 673.46 1856.92 672.933C1876.77 669.969 1913.56 662.166 1944.4 642.607C1989.14 614.29 2017.73 594.6 2064.92 611.853C2093.97 622.456 2106.1 635.857 2111.12 644.616C2113.05 647.974 2118.84 649.489 2121.66 646.855C2131.47 637.635 2149.35 622.193 2160.58 620.48C2176.74 618.011 2188.87 620.48 2188.87 620.48V775.994C2188.87 775.994 2163.07 798.153 2108.4 793.214C2070.81 789.823 2046.74 764.338 2035.38 748.73C2033.25 745.833 2026.6 747.314 2025.8 750.805C2022.31 766.313 2012.21 789.625 1982.93 794.433C1938.19 801.808 1934.47 761.21 1878.56 766.149C1822.65 771.088 1767.98 791.766 1710.84 781.921C1672.15 775.269 1655.7 741.388 1649.12 720.15C1648.02 716.561 1640.74 716.199 1639.38 719.689C1629.84 744.285 1607.67 787.913 1567.99 796.672C1512.08 808.986 1482.27 779.418 1456.18 785.575C1437.03 790.086 1425.93 818.469 1421.34 833.253C1420.41 836.283 1415.69 836.941 1413.83 834.406C1403.53 820.28 1376.97 791.436 1329.44 786.827C1266.09 780.669 1254.89 816.362 1184.09 811.456C1113.3 806.55 1102.09 737.601 1102.09 737.601C1102.09 737.601 1083.45 775.763 1042.47 775.763C1001.48 775.763 956.746 724.068 956.746 724.068C956.746 724.068 991.546 790.975 918.224 803.29C844.935 815.605 836.227 771.285 775.335 770.067C730.431 769.145 695 808.427 679.478 829.105C677.317 832.002 670.836 830.092 670.337 826.503C667.612 806.55 655.646 773.524 606.355 772.536C545.463 771.318 546.726 815.605 458.514 816.823C370.5 818.041 366.612 730.621 323.403 722.883C323.203 722.883 323.037 722.883 323.07 723.113C323.203 727.921 340.088 797.528 258.523 820.083C174.032 843.461 126.835 778.233 126.835 778.233C126.835 778.233 100.743 805.99 65.9435 814.617C31.2102 823.211 0 809.645 0 809.645V634.869V634.902Z" fill="#FBFAE7"/>
</svg>
