<svg width="1950" height="900" viewBox="0 0 1950 900" fill="none" xmlns="http://www.w3.org/2000/svg">
<g opacity="0.55">
<mask id="mask0_3162_11399" style="mask-type:luminance" maskUnits="userSpaceOnUse" x="0" y="0" width="995" height="900">
<path d="M-3.93403e-05 -0.00128174L0 900L994.25 900L994.25 -0.0013252L-3.93403e-05 -0.00128174Z" fill="white"/>
</mask>
<g mask="url(#mask0_3162_11399)">
<g opacity="0.33">
<g opacity="0.7">
<path d="M443.861 -102.683L627.793 7.29687L627.793 -12.6945L460.567 -112.651L443.861 -102.683Z" fill="white"/>
<path d="M92.6004 -112.651L75.8945 -102.683L259.882 7.29687L276.588 -2.67085L92.6004 -112.651Z" fill="white"/>
<path d="M9.0009 597.18L-174.986 487.144L-191.748 497.223L-7.70498 607.203L9.0009 597.18Z" fill="white"/>
<path d="M42.411 577.132L-141.576 467.207L-158.227 477.175L25.7608 587.211L42.411 577.132Z" fill="white"/>
<path d="M75.8856 557.251L-108.102 447.215L-124.752 457.183L59.1797 567.219L75.8856 557.251Z" fill="white"/>
<path d="M477.275 537.262L627.795 627.195L627.795 607.26L493.981 527.239L477.275 537.262Z" fill="white"/>
<path d="M443.863 557.254L627.795 667.234L627.795 647.299L460.569 547.286L443.863 557.254Z" fill="white"/>
<path d="M611.139 457.18L627.789 467.203L627.789 447.212L611.139 457.18Z" fill="white"/>
<path d="M577.684 477.173L627.801 507.187L627.801 487.14L594.389 467.205L577.684 477.173Z" fill="white"/>
<path d="M510.752 517.149L627.804 587.258L627.804 567.211L527.458 507.237L510.752 517.149Z" fill="white"/>
<path d="M544.207 497.22L627.792 547.227L627.792 527.18L560.913 487.141L544.207 497.22Z" fill="white"/>
<path d="M443.874 557.251L259.886 447.215L243.236 457.183L427.224 567.219L443.874 557.251Z" fill="white"/>
<path d="M376.876 597.18L193 487.144L176.238 497.223L360.17 607.203L376.876 597.18Z" fill="white"/>
<path d="M410.464 577.132L226.476 467.207L209.715 477.175L393.702 587.211L410.464 577.132Z" fill="white"/>
<path d="M92.6004 547.286L75.8945 557.254L259.882 667.234L276.588 657.267L92.6004 547.286Z" fill="white"/>
<path d="M310.009 637.274L126.077 527.238L109.371 537.262L293.358 647.242L310.009 637.274Z" fill="white"/>
<path d="M343.464 617.228L159.476 507.247L142.826 517.159L326.758 627.195L343.464 617.228Z" fill="white"/>
<path d="M192.994 927.173L9.00665 817.137L-7.69922 827.16L176.232 937.141L192.994 927.173Z" fill="white"/>
<path d="M226.473 907.124L42.4295 797.199L25.7793 807.167L209.711 917.203L226.473 907.124Z" fill="white"/>
<path d="M259.883 887.141L75.8953 777.216L59.1894 787.184L243.233 897.164L259.883 887.141Z" fill="white"/>
<path d="M159.483 947.22L-24.4484 837.184L-41.1543 847.151L142.833 957.187L159.483 947.22Z" fill="white"/>
<path d="M-91.3801 877.169L-108.086 887.137L75.9015 997.117L92.6073 987.205L-91.3801 877.169Z" fill="white"/>
<path d="M126.062 967.155L-57.925 857.175L-74.6309 867.143L109.357 977.234L126.062 967.155Z" fill="white"/>
<path d="M109.371 -82.7498L109.371 137.267L126.077 147.234L126.077 -72.7263L109.371 -82.7498Z" fill="white"/>
<path d="M75.8945 -102.679L75.8945 117.282L92.6004 127.25L92.6004 -92.7107L75.8945 -102.679Z" fill="white"/>
<path d="M142.826 -62.6473L142.826 157.202L159.476 167.281L159.476 -52.6795L142.826 -62.6473Z" fill="white"/>
<path d="M243.236 -2.67068L243.236 217.234L259.887 227.258L259.886 7.29704L243.236 -2.67068Z" fill="white"/>
<path d="M209.715 -22.663L209.715 197.298L226.476 207.266L226.476 -12.6951L209.715 -22.663Z" fill="white"/>
<path d="M176.238 -42.7675L176.238 177.305L193 187.328L193 -32.6883L176.238 -42.7675Z" fill="white"/>
<path d="M75.9034 -62.6983L-108.084 47.2264L-108.084 67.2734L75.9034 -42.7627L75.9034 -62.6983Z" fill="white"/>
<path d="M75.9034 -102.683L-108.084 7.29772L-108.084 27.2891L75.9034 -82.7469L75.9034 -102.683Z" fill="white"/>
<path d="M75.9034 -22.7149L-108.084 87.2654L-108.084 107.312L75.9034 -2.66786L75.9034 -22.7149Z" fill="white"/>
<path d="M75.9034 97.286L-108.084 207.266L-108.084 227.258L75.9034 117.277L75.9034 97.286Z" fill="white"/>
<path d="M75.9034 57.3007L-108.084 167.337L-108.084 187.328L75.9034 77.292L75.9034 57.3007Z" fill="white"/>
<path d="M75.9034 17.3174L-108.084 127.353L-108.084 147.289L75.9034 37.253L75.9034 17.3174Z" fill="white"/>
<path d="M-7.67384 287.283L-7.67383 507.244L9.03205 517.156L9.03204 297.251L-7.67384 287.283Z" fill="white"/>
<path d="M59.1914 327.266L59.1914 547.282L75.8973 557.25L75.8973 337.234L59.1914 327.266Z" fill="white"/>
<path d="M25.7793 307.274L25.7793 527.234L42.4295 537.258L42.4295 317.297L25.7793 307.274Z" fill="white"/>
<path d="M75.8945 557.243L75.8945 777.204L92.6004 787.172L92.6004 567.211L75.8945 557.243Z" fill="white"/>
<path d="M142.826 597.172L142.826 817.133L159.476 827.156L159.476 607.196L142.826 597.172Z" fill="white"/>
<path d="M109.371 577.124L109.371 797.196L126.077 807.164L126.077 587.203L109.371 577.124Z" fill="white"/>
<path d="M176.238 617.219L176.238 837.18L193 847.203L193 627.187L176.238 617.219Z" fill="white"/>
<path d="M209.715 637.268L209.715 857.173L226.476 867.141L226.476 647.236L209.715 637.268Z" fill="white"/>
<path d="M243.236 657.26L243.236 877.165L259.887 887.133L259.886 667.228L243.236 657.26Z" fill="white"/>
<path d="M75.9034 597.177L-108.084 707.157L-108.084 727.148L75.9034 617.224L75.9034 597.177Z" fill="white"/>
<path d="M75.9034 637.151L-108.084 747.132L-108.084 767.234L75.9034 657.143L75.9034 637.151Z" fill="white"/>
<path d="M75.9034 557.248L-108.084 667.228L-108.084 687.164L75.9034 577.128L75.9034 557.248Z" fill="white"/>
<path d="M75.9034 717.231L-108.084 827.156L-108.084 847.203L75.9034 737.223L75.9034 717.231Z" fill="white"/>
<path d="M75.9034 677.191L-108.084 787.172L-108.084 807.219L75.9034 697.183L75.9034 677.191Z" fill="white"/>
<path d="M75.9034 757.217L-108.084 867.197L-108.084 887.133L75.9034 777.208L75.9034 757.217Z" fill="white"/>
<path d="M259.882 267.239L75.8945 377.22L75.8945 397.211L259.882 287.231L259.882 267.239Z" fill="white"/>
<path d="M259.882 427.334L75.8945 537.259L75.8945 557.25L259.882 447.214L259.882 427.334Z" fill="white"/>
<path d="M259.882 227.256L75.8945 337.236L75.8945 357.172L259.882 247.247L259.882 227.256Z" fill="white"/>
<path d="M259.882 307.271L75.8945 417.252L75.8945 437.188L259.882 327.207L259.882 307.271Z" fill="white"/>
<path d="M259.882 347.254L75.8945 457.234L75.8945 477.281L259.882 367.245L259.882 347.254Z" fill="white"/>
<path d="M259.882 387.246L75.8945 497.282L75.8945 517.273L259.882 407.293L259.882 387.246Z" fill="white"/>
<path d="M259.882 887.138L75.8945 997.118L75.8945 1017.11L259.882 907.129L259.882 887.138Z" fill="white"/>
<path d="M226.474 247.242L42.4314 137.262L25.7812 147.23L209.713 257.266L226.474 247.242Z" fill="white"/>
<path d="M193.019 267.235L9.03204 157.199L-7.67383 167.278L176.258 277.203L193.019 267.235Z" fill="white"/>
<path d="M259.885 227.258L75.8973 117.277L59.1914 127.245L243.234 237.281L259.885 227.258Z" fill="white"/>
<path d="M-91.3781 217.23L-108.084 227.254L75.9034 337.234L92.6093 327.266L-91.3781 217.23Z" fill="white"/>
<path d="M126.086 307.281L-57.9016 197.301L-74.6074 207.269L109.38 317.305L126.086 307.281Z" fill="white"/>
<path d="M159.485 287.29L-24.4465 177.31L-41.1523 187.333L142.835 297.258L159.485 287.29Z" fill="white"/>
<path d="M594.394 247.242L410.463 137.262L393.701 147.23L577.689 257.266L594.394 247.242Z" fill="white"/>
<path d="M427.223 127.245L611.154 237.281L627.805 227.258L443.873 117.277L427.223 127.245Z" fill="white"/>
<path d="M527.516 287.29L343.529 177.31L326.768 187.333L510.755 297.258L527.516 287.29Z" fill="white"/>
<path d="M276.585 217.23L259.879 227.254L443.866 337.234L460.572 327.266L276.585 217.23Z" fill="white"/>
<path d="M560.995 267.235L377.008 157.199L360.246 167.278L544.289 277.203L560.995 267.235Z" fill="white"/>
<path d="M493.995 307.273L310.063 197.293L293.357 207.261L477.289 317.297L493.995 307.273Z" fill="white"/>
<path d="M427.219 787.184L611.15 897.164L627.801 887.141L443.869 777.216L427.219 787.184Z" fill="white"/>
<path d="M594.391 907.124L410.459 797.199L393.697 807.167L577.685 917.203L594.391 907.124Z" fill="white"/>
<path d="M493.993 967.155L310.061 857.175L293.355 867.143L477.287 977.234L493.993 967.155Z" fill="white"/>
<path d="M276.585 877.169L259.879 887.137L443.866 997.117L460.572 987.205L276.585 877.169Z" fill="white"/>
<path d="M527.515 947.22L343.527 837.184L326.766 847.151L510.753 957.187L527.515 947.22Z" fill="white"/>
<path d="M560.97 927.173L376.982 817.137L360.221 827.16L544.264 937.141L560.97 927.173Z" fill="white"/>
<path d="M611.139 217.234L627.789 227.258L627.789 7.29704L611.139 -2.67068L611.139 217.234Z" fill="white"/>
<path d="M577.684 -22.663L577.684 197.298L594.389 207.266L594.389 -12.6951L577.684 -22.663Z" fill="white"/>
<path d="M443.863 -102.679L443.863 117.282L460.569 127.25L460.569 -92.7107L443.863 -102.679Z" fill="white"/>
<path d="M510.752 -62.6473L510.752 157.202L527.513 167.281L527.513 -52.6795L510.752 -62.6473Z" fill="white"/>
<path d="M544.271 -42.7675L544.271 177.305L560.977 187.328L560.977 -32.6883L544.271 -42.7675Z" fill="white"/>
<path d="M477.275 -82.7498L477.275 137.267L493.981 147.234L493.981 -72.7263L477.275 -82.7498Z" fill="white"/>
<path d="M443.866 -22.7149L259.879 87.2654L259.879 107.312L443.866 -2.66786L443.866 -22.7149Z" fill="white"/>
<path d="M443.866 -62.6983L259.879 47.2264L259.879 67.2734L443.866 -42.7627L443.866 -62.6983Z" fill="white"/>
<path d="M443.866 -102.683L259.879 7.29772L259.879 27.2891L443.866 -82.7469L443.866 -102.683Z" fill="white"/>
<path d="M443.866 97.286L259.879 207.266L259.879 227.258L443.866 117.277L443.866 97.286Z" fill="white"/>
<path d="M443.866 17.3174L259.879 127.353L259.879 147.289L443.866 37.253L443.866 17.3174Z" fill="white"/>
<path d="M443.866 57.3007L259.879 167.337L259.879 187.328L443.866 77.292L443.866 57.3007Z" fill="white"/>
<path d="M293.357 247.243L293.357 467.204L310.063 477.172L310.063 257.267L293.357 247.243Z" fill="white"/>
<path d="M326.768 267.242L326.768 487.147L343.529 497.227L343.529 277.21L326.768 267.242Z" fill="white"/>
<path d="M427.221 327.266L427.221 547.282L443.871 557.25L443.871 337.234L427.221 327.266Z" fill="white"/>
<path d="M259.879 227.259L259.879 447.22L276.585 457.187L276.585 237.227L259.879 227.259Z" fill="white"/>
<path d="M360.223 287.283L360.223 507.244L376.984 517.156L376.984 297.251L360.223 287.283Z" fill="white"/>
<path d="M393.699 307.274L393.699 527.234L410.461 537.258L410.461 317.297L393.699 307.274Z" fill="white"/>
<path d="M443.861 557.243L443.861 777.204L460.567 787.172L460.567 567.211L443.861 557.243Z" fill="white"/>
<path d="M611.137 877.165L627.787 887.133L627.787 667.228L611.137 657.26L611.137 877.165Z" fill="white"/>
<path d="M477.273 577.124L477.273 797.196L493.979 807.164L493.979 587.203L477.273 577.124Z" fill="white"/>
<path d="M577.682 637.268L577.682 857.173L594.388 867.141L594.388 647.236L577.682 637.268Z" fill="white"/>
<path d="M510.75 597.172L510.75 817.133L527.512 827.156L527.512 607.196L510.75 597.172Z" fill="white"/>
<path d="M544.27 617.219L544.27 837.18L560.975 847.203L560.975 627.187L544.27 617.219Z" fill="white"/>
<path d="M443.866 637.151L259.879 747.132L259.879 767.234L443.866 657.143L443.866 637.151Z" fill="white"/>
<path d="M443.866 597.177L259.879 707.157L259.879 727.148L443.866 617.224L443.866 597.177Z" fill="white"/>
<path d="M443.866 557.248L259.879 667.228L259.879 687.164L443.866 577.128L443.866 557.248Z" fill="white"/>
<path d="M443.866 677.191L259.879 787.172L259.879 807.219L443.866 697.183L443.866 677.191Z" fill="white"/>
<path d="M443.866 757.217L259.879 867.197L259.879 887.133L443.866 777.208L443.866 757.217Z" fill="white"/>
<path d="M443.866 717.231L259.879 827.156L259.879 847.203L443.866 737.223L443.866 717.231Z" fill="white"/>
<path d="M443.863 397.211L627.795 287.231L627.795 267.239L443.863 377.22L443.863 397.211Z" fill="white"/>
<path d="M443.863 357.172L627.795 247.247L627.795 227.256L443.863 337.236L443.863 357.172Z" fill="white"/>
<path d="M443.863 477.281L627.795 367.245L627.795 347.254L443.863 457.234L443.863 477.281Z" fill="white"/>
<path d="M443.863 517.273L627.795 407.293L627.795 387.246L443.863 497.282L443.863 517.273Z" fill="white"/>
<path d="M443.863 437.188L627.795 327.207L627.795 307.271L443.863 417.252L443.863 437.188Z" fill="white"/>
<path d="M443.863 557.25L627.795 447.214L627.795 427.334L443.863 537.259L443.863 557.25Z" fill="white"/>
<path d="M259.879 887.15L259.879 1107.11L276.585 1117.08L276.585 897.173L259.879 887.15Z" fill="white"/>
<path d="M443.861 1017.11L627.793 907.129L627.793 887.138L443.861 997.118L443.861 1017.11Z" fill="white"/>
</g>
<g opacity="0.7">
<path d="M828.498 -112.651L811.848 -102.683L995.779 7.29687L1012.49 -2.67085L828.498 -112.651Z" fill="white"/>
<path d="M644.507 -2.67084L627.801 -12.6945L627.801 7.29688L644.507 -2.67084Z" fill="white"/>
<path d="M828.498 547.286L811.848 557.254L995.779 667.234L1012.49 657.155L828.498 547.286Z" fill="white"/>
<path d="M1179.77 557.251L995.786 447.215L979.08 457.183L1163.07 567.219L1179.77 557.251Z" fill="white"/>
<path d="M1112.83 597.18L928.897 487.144L912.191 497.223L1096.12 607.203L1112.83 597.18Z" fill="white"/>
<path d="M1146.36 577.132L962.374 467.207L945.668 477.175L1129.6 587.211L1146.36 577.132Z" fill="white"/>
<path d="M1045.9 637.274L861.966 527.238L845.26 537.262L1029.25 647.242L1045.9 637.274Z" fill="white"/>
<path d="M1079.36 617.228L895.431 507.247L878.67 517.159L1062.66 627.195L1079.36 617.228Z" fill="white"/>
<path d="M811.844 557.251L627.801 447.215L627.801 467.206L795.082 567.219L811.844 557.251Z" fill="white"/>
<path d="M677.974 637.266L627.801 607.252L627.801 627.187L661.268 647.234L677.974 637.266Z" fill="white"/>
<path d="M644.507 657.155L627.801 647.299L627.801 667.234L644.507 657.155Z" fill="white"/>
<path d="M711.441 617.228L627.801 567.221L627.801 587.268L694.736 627.195L711.441 617.228Z" fill="white"/>
<path d="M778.376 577.132L627.801 487.143L627.801 507.19L761.67 587.211L778.376 577.132Z" fill="white"/>
<path d="M744.965 597.18L627.801 527.182L627.801 547.173L728.203 607.203L744.965 597.18Z" fill="white"/>
<path d="M845.26 -82.7498L845.26 137.267L861.966 147.234L861.966 -72.7263L845.26 -82.7498Z" fill="white"/>
<path d="M811.848 -102.679L811.848 117.282L828.498 127.25L828.498 -92.7107L811.848 -102.679Z" fill="white"/>
<path d="M878.67 -62.6473L878.67 157.202L895.431 167.281L895.431 -52.6795L878.67 -62.6473Z" fill="white"/>
<path d="M979.08 -2.67068L979.08 217.234L995.786 227.258L995.786 7.29704L979.08 -2.67068Z" fill="white"/>
<path d="M912.191 -42.7675L912.191 177.305L928.897 187.328L928.897 -32.6883L912.191 -42.7675Z" fill="white"/>
<path d="M945.668 -22.663L945.668 197.298L962.374 207.266L962.374 -12.6951L945.668 -22.663Z" fill="white"/>
<path d="M811.842 57.3007L627.799 167.337L627.799 187.328L811.842 77.292L811.842 57.3007Z" fill="white"/>
<path d="M811.842 17.3174L627.799 127.353L627.799 147.289L811.842 37.253L811.842 17.3174Z" fill="white"/>
<path d="M811.842 -102.683L627.799 7.29772L627.799 27.2891L811.842 -82.7469L811.842 -102.683Z" fill="white"/>
<path d="M811.842 97.286L627.799 207.266L627.799 227.258L811.842 117.277L811.842 97.286Z" fill="white"/>
<path d="M811.842 -22.7149L627.799 87.2654L627.799 107.312L811.842 -2.66786L811.842 -22.7149Z" fill="white"/>
<path d="M811.842 -62.6983L627.799 47.2264L627.799 67.2734L811.842 -42.7627L811.842 -62.6983Z" fill="white"/>
<path d="M661.277 247.243L661.277 467.204L677.983 477.172L677.983 257.267L661.277 247.243Z" fill="white"/>
<path d="M644.507 237.227L627.801 227.259L627.801 447.22L644.507 457.187L644.507 237.227Z" fill="white"/>
<path d="M728.211 287.283L728.211 507.244L744.917 517.156L744.917 297.251L728.211 287.283Z" fill="white"/>
<path d="M694.732 267.242L694.732 487.147L711.383 497.227L711.383 277.21L694.732 267.242Z" fill="white"/>
<path d="M795.078 327.266L795.078 547.282L811.84 557.25L811.84 337.234L795.078 327.266Z" fill="white"/>
<path d="M761.664 307.274L761.664 527.234L778.37 537.258L778.37 317.297L761.664 307.274Z" fill="white"/>
<path d="M995.779 267.239L811.848 377.22L811.848 397.211L995.779 287.231L995.779 267.239Z" fill="white"/>
<path d="M995.779 227.256L811.848 337.236L811.848 357.172L995.779 247.247L995.779 227.256Z" fill="white"/>
<path d="M995.779 307.271L811.848 417.252L811.848 437.188L995.779 327.207L995.779 307.271Z" fill="white"/>
<path d="M995.779 347.254L811.848 457.234L811.848 477.281L995.779 367.245L995.779 347.254Z" fill="white"/>
<path d="M995.779 387.246L811.848 497.282L811.848 517.273L995.779 407.293L995.779 387.246Z" fill="white"/>
<path d="M995.779 427.334L811.848 537.259L811.848 557.25L995.779 447.214L995.779 427.334Z" fill="white"/>
<path d="M995.769 887.141L811.838 777.216L795.076 787.184L979.064 897.164L995.769 887.141Z" fill="white"/>
<path d="M677.981 857.176L661.275 867.144L845.263 977.18L861.969 967.156L677.981 857.176Z" fill="white"/>
<path d="M828.492 987.205L644.505 877.169L627.799 887.137L811.842 997.117L828.492 987.205Z" fill="white"/>
<path d="M962.357 907.124L778.37 797.199L761.664 807.167L945.651 917.203L962.357 907.124Z" fill="white"/>
<path d="M895.424 947.22L711.381 837.184L694.73 847.151L878.662 957.187L895.424 947.22Z" fill="white"/>
<path d="M928.902 927.173L744.915 817.137L728.209 827.16L912.196 937.141L928.902 927.173Z" fill="white"/>
<path d="M811.848 557.243L811.848 777.204L828.498 787.172L828.498 567.211L811.848 557.243Z" fill="white"/>
<path d="M878.67 597.172L878.67 817.133L895.431 827.156L895.431 607.196L878.67 597.172Z" fill="white"/>
<path d="M845.26 577.124L845.26 797.196L861.966 807.164L861.966 587.203L845.26 577.124Z" fill="white"/>
<path d="M912.191 617.219L912.191 837.18L928.897 847.203L928.897 627.187L912.191 617.219Z" fill="white"/>
<path d="M945.668 637.268L945.668 857.173L962.374 867.141L962.374 647.236L945.668 637.268Z" fill="white"/>
<path d="M979.08 657.149L979.08 877.165L995.786 887.133L995.786 667.228L979.08 657.149Z" fill="white"/>
<path d="M811.842 717.231L627.799 827.156L627.799 847.203L811.842 737.223L811.842 717.231Z" fill="white"/>
<path d="M811.842 757.217L627.799 867.197L627.799 887.133L811.842 777.208L811.842 757.217Z" fill="white"/>
<path d="M811.842 557.248L627.799 667.228L627.799 687.164L811.842 577.128L811.842 557.248Z" fill="white"/>
<path d="M811.842 597.177L627.799 707.157L627.799 727.148L811.842 617.224L811.842 597.177Z" fill="white"/>
<path d="M811.842 637.153L627.799 747.134L627.799 767.125L811.842 657.145L811.842 637.153Z" fill="white"/>
<path d="M811.842 677.191L627.799 787.172L627.799 807.219L811.842 697.183L811.842 677.191Z" fill="white"/>
<path d="M644.507 897.157L627.801 887.134L627.801 1107.09L644.507 1117.06L644.507 897.157Z" fill="white"/>
<path d="M995.779 887.138L811.848 997.118L811.848 1017.11L995.779 907.129L995.779 887.138Z" fill="white"/>
<path d="M995.769 227.258L811.838 117.277L795.076 127.245L979.064 237.281L995.769 227.258Z" fill="white"/>
<path d="M828.494 327.266L644.507 217.23L627.801 227.254L811.844 337.234L828.494 327.266Z" fill="white"/>
<path d="M677.983 197.301L661.277 207.269L845.265 317.305L861.971 307.281L677.983 197.301Z" fill="white"/>
<path d="M962.359 247.242L778.372 137.262L761.666 147.23L945.653 257.266L962.359 247.242Z" fill="white"/>
<path d="M928.902 267.235L744.915 157.199L728.209 167.278L912.196 277.203L928.902 267.235Z" fill="white"/>
<path d="M895.426 287.29L711.383 177.31L694.732 187.333L878.664 297.258L895.426 287.29Z" fill="white"/>
</g>
</g>
</g>
</g>
<g opacity="0.55">
<mask id="mask1_3162_11399" style="mask-type:luminance" maskUnits="userSpaceOnUse" x="994" y="0" width="956" height="900">
<path d="M994.25 -0.00128174L994.25 900L1949.41 900L1949.41 -0.00132349L994.25 -0.00128174Z" fill="white"/>
</mask>
<g mask="url(#mask1_3162_11399)">
<g opacity="0.33">
<g opacity="0.7">
<path d="M1177.5 -102.996L1361.43 6.98437L1361.43 -13.007L1194.2 -112.964L1177.5 -102.996Z" fill="white"/>
<path d="M826.237 -112.964L809.531 -102.996L993.519 6.98437L1010.22 -2.98335L826.237 -112.964Z" fill="white"/>
<path d="M1210.91 536.95L1361.43 626.883L1361.43 606.947L1227.62 526.926L1210.91 536.95Z" fill="white"/>
<path d="M1177.5 556.942L1361.43 666.922L1361.43 646.986L1194.21 546.974L1177.5 556.942Z" fill="white"/>
<path d="M1344.78 456.867L1361.43 466.891L1361.43 446.899L1344.78 456.867Z" fill="white"/>
<path d="M1311.32 476.86L1361.44 506.875L1361.44 486.828L1328.03 466.892L1311.32 476.86Z" fill="white"/>
<path d="M1244.39 516.836L1361.44 586.945L1361.44 566.898L1261.09 506.924L1244.39 516.836Z" fill="white"/>
<path d="M1277.84 496.908L1361.43 546.914L1361.43 526.867L1294.55 486.829L1277.84 496.908Z" fill="white"/>
<path d="M1177.51 556.938L993.523 446.902L976.873 456.87L1160.86 566.906L1177.51 556.938Z" fill="white"/>
<path d="M1110.51 596.867L926.637 486.831L909.875 496.91L1093.81 606.891L1110.51 596.867Z" fill="white"/>
<path d="M1144.1 576.819L960.113 466.895L943.352 476.862L1127.34 586.898L1144.1 576.819Z" fill="white"/>
<path d="M826.237 546.974L809.531 556.942L993.519 666.922L1010.22 656.954L826.237 546.974Z" fill="white"/>
<path d="M1043.65 636.962L859.714 526.926L843.008 536.949L1027 646.93L1043.65 636.962Z" fill="white"/>
<path d="M1077.1 616.915L893.113 506.935L876.463 516.847L1060.39 626.883L1077.1 616.915Z" fill="white"/>
<path d="M1328.03 246.93L1144.1 136.949L1127.34 146.917L1311.33 256.953L1328.03 246.93Z" fill="white"/>
<path d="M1160.86 126.933L1344.79 236.969L1361.44 226.945L1177.51 116.965L1160.86 126.933Z" fill="white"/>
<path d="M1261.15 286.978L1077.17 176.997L1060.4 187.021L1244.39 296.945L1261.15 286.978Z" fill="white"/>
<path d="M1010.22 216.918L993.518 226.942L1177.5 336.922L1194.21 326.954L1010.22 216.918Z" fill="white"/>
<path d="M1294.63 266.923L1110.64 156.887L1093.88 166.966L1277.93 276.891L1294.63 266.923Z" fill="white"/>
<path d="M1227.63 306.961L1043.7 196.98L1026.99 206.948L1210.93 316.984L1227.63 306.961Z" fill="white"/>
<path d="M1160.86 786.871L1344.79 896.852L1361.44 886.828L1177.51 776.903L1160.86 786.871Z" fill="white"/>
<path d="M1328.03 906.811L1144.1 796.887L1127.33 806.855L1311.32 916.891L1328.03 906.811Z" fill="white"/>
<path d="M1227.63 966.843L1043.7 856.862L1026.99 866.83L1210.92 976.922L1227.63 966.843Z" fill="white"/>
<path d="M1010.22 876.856L993.516 886.824L1177.5 996.805L1194.21 986.893L1010.22 876.856Z" fill="white"/>
<path d="M1261.15 946.907L1077.16 836.871L1060.4 846.839L1244.39 956.875L1261.15 946.907Z" fill="white"/>
<path d="M1294.61 926.86L1110.62 816.824L1093.86 826.848L1277.9 936.828L1294.61 926.86Z" fill="white"/>
<path d="M1344.78 216.922L1361.43 226.945L1361.43 6.98454L1344.78 -2.98318L1344.78 216.922Z" fill="white"/>
<path d="M1311.32 -22.9755L1311.32 196.985L1328.03 206.953L1328.03 -13.0076L1311.32 -22.9755Z" fill="white"/>
<path d="M1177.5 -102.991L1177.5 116.97L1194.21 126.937L1194.21 -93.0232L1177.5 -102.991Z" fill="white"/>
<path d="M1244.39 -62.9598L1244.39 156.89L1261.15 166.969L1261.15 -52.992L1244.39 -62.9598Z" fill="white"/>
<path d="M1277.91 -43.08L1277.91 176.992L1294.61 187.016L1294.61 -33.0008L1277.91 -43.08Z" fill="white"/>
<path d="M1210.91 -83.0623L1210.91 136.954L1227.62 146.922L1227.62 -73.0388L1210.91 -83.0623Z" fill="white"/>
<path d="M1177.5 -23.0274L993.516 86.9529L993.516 107L1177.5 -2.98036L1177.5 -23.0274Z" fill="white"/>
<path d="M1177.5 -63.0108L993.516 46.9139L993.516 66.9609L1177.5 -43.0752L1177.5 -63.0108Z" fill="white"/>
<path d="M1177.5 -102.995L993.516 6.98522L993.516 26.9766L1177.5 -83.0594L1177.5 -102.995Z" fill="white"/>
<path d="M1177.5 96.9735L993.516 206.954L993.516 226.945L1177.5 116.965L1177.5 96.9735Z" fill="white"/>
<path d="M1177.5 17.0049L993.516 127.041L993.516 146.977L1177.5 36.9405L1177.5 17.0049Z" fill="white"/>
<path d="M1177.5 56.9882L993.516 167.024L993.516 187.016L1177.5 76.9795L1177.5 56.9882Z" fill="white"/>
<path d="M1026.99 246.931L1026.99 466.892L1043.7 476.859L1043.7 256.954L1026.99 246.931Z" fill="white"/>
<path d="M1060.4 266.93L1060.4 486.835L1077.16 496.914L1077.16 276.898L1060.4 266.93Z" fill="white"/>
<path d="M1160.86 326.953L1160.86 546.97L1177.51 556.937L1177.51 336.921L1160.86 326.953Z" fill="white"/>
<path d="M993.514 226.947L993.514 446.907L1010.22 456.875L1010.22 236.914L993.514 226.947Z" fill="white"/>
<path d="M1093.86 286.971L1093.86 506.932L1110.62 516.844L1110.62 296.939L1093.86 286.971Z" fill="white"/>
<path d="M1127.33 306.961L1127.33 526.922L1144.1 536.945L1144.1 316.985L1127.33 306.961Z" fill="white"/>
<path d="M1177.5 556.931L1177.5 776.892L1194.2 786.859L1194.2 566.899L1177.5 556.931Z" fill="white"/>
<path d="M1344.77 876.852L1361.42 886.82L1361.42 666.915L1344.77 656.948L1344.77 876.852Z" fill="white"/>
<path d="M1210.91 576.812L1210.91 796.884L1227.62 806.852L1227.62 586.891L1210.91 576.812Z" fill="white"/>
<path d="M1311.32 636.955L1311.32 856.86L1328.02 866.828L1328.02 646.923L1311.32 636.955Z" fill="white"/>
<path d="M1244.39 596.86L1244.39 816.82L1261.15 826.844L1261.15 606.883L1244.39 596.86Z" fill="white"/>
<path d="M1277.91 616.906L1277.91 836.867L1294.61 846.891L1294.61 626.874L1277.91 616.906Z" fill="white"/>
<path d="M1177.5 636.839L993.516 746.819L993.516 766.922L1177.5 656.83L1177.5 636.839Z" fill="white"/>
<path d="M1177.5 596.864L993.516 706.845L993.516 726.836L1177.5 616.911L1177.5 596.864Z" fill="white"/>
<path d="M1177.5 556.936L993.516 666.916L993.516 686.852L1177.5 576.816L1177.5 556.936Z" fill="white"/>
<path d="M1177.5 676.879L993.516 786.859L993.516 806.906L1177.5 696.87L1177.5 676.879Z" fill="white"/>
<path d="M1177.5 756.904L993.516 866.885L993.516 886.82L1177.5 776.896L1177.5 756.904Z" fill="white"/>
<path d="M1177.5 716.919L993.516 826.844L993.516 846.891L1177.5 736.91L1177.5 716.919Z" fill="white"/>
<path d="M1177.5 396.898L1361.43 286.918L1361.43 266.927L1177.5 376.907L1177.5 396.898Z" fill="white"/>
<path d="M1177.5 356.859L1361.43 246.935L1361.43 226.943L1177.5 336.924L1177.5 356.859Z" fill="white"/>
<path d="M1177.5 476.969L1361.43 366.933L1361.43 346.941L1177.5 456.922L1177.5 476.969Z" fill="white"/>
<path d="M1177.5 516.961L1361.43 406.981L1361.43 386.933L1177.5 496.97L1177.5 516.961Z" fill="white"/>
<path d="M1177.5 436.875L1361.43 326.895L1361.43 306.959L1177.5 416.939L1177.5 436.875Z" fill="white"/>
<path d="M1177.5 556.938L1361.43 446.901L1361.43 427.021L1177.5 536.946L1177.5 556.938Z" fill="white"/>
<path d="M993.514 886.837L993.514 1106.8L1010.22 1116.77L1010.22 896.861L993.514 886.837Z" fill="white"/>
<path d="M1177.5 1016.8L1361.43 906.817L1361.43 886.825L1177.5 996.805L1177.5 1016.8Z" fill="white"/>
</g>
<g opacity="0.7">
<path d="M1930.05 -112.964L1913.4 -102.996L2097.39 6.98437L2114.04 -2.98335L1930.05 -112.964Z" fill="white"/>
<path d="M1562.13 -112.964L1545.48 -102.996L1729.42 6.98437L1746.12 -2.98335L1562.13 -112.964Z" fill="white"/>
<path d="M1378.14 -2.98334L1361.44 -13.007L1361.44 6.98438L1378.14 -2.98334Z" fill="white"/>
<path d="M1930.05 546.974L1913.4 556.942L2097.39 666.922L2114.04 656.843L1930.05 546.974Z" fill="white"/>
<path d="M1562.14 546.974L1545.49 556.942L1729.42 666.922L1746.12 656.843L1562.14 546.974Z" fill="white"/>
<path d="M1913.41 556.938L1729.42 446.902L1712.72 456.87L1896.71 566.906L1913.41 556.938Z" fill="white"/>
<path d="M1846.47 596.867L1662.54 486.831L1645.83 496.91L1829.76 606.891L1846.47 596.867Z" fill="white"/>
<path d="M1880 576.819L1696.01 466.895L1679.31 476.862L1863.24 586.898L1880 576.819Z" fill="white"/>
<path d="M1779.54 636.962L1595.6 526.926L1578.9 536.949L1762.89 646.93L1779.54 636.962Z" fill="white"/>
<path d="M1813 616.915L1629.07 506.935L1612.31 516.847L1796.3 626.883L1813 616.915Z" fill="white"/>
<path d="M1545.48 556.938L1361.44 446.902L1361.44 466.894L1528.72 566.906L1545.48 556.938Z" fill="white"/>
<path d="M1411.61 636.954L1361.44 606.939L1361.44 626.875L1394.9 646.922L1411.61 636.954Z" fill="white"/>
<path d="M1378.14 656.843L1361.44 646.986L1361.44 666.922L1378.14 656.843Z" fill="white"/>
<path d="M1445.08 616.915L1361.44 566.909L1361.44 586.956L1428.37 626.883L1445.08 616.915Z" fill="white"/>
<path d="M1512.01 576.819L1361.44 486.83L1361.44 506.877L1495.31 586.898L1512.01 576.819Z" fill="white"/>
<path d="M1478.6 596.867L1361.44 526.87L1361.44 546.861L1461.84 606.891L1478.6 596.867Z" fill="white"/>
<path d="M1578.9 -83.0623L1578.9 136.954L1595.6 146.922L1595.6 -73.0388L1578.9 -83.0623Z" fill="white"/>
<path d="M1545.49 -102.991L1545.49 116.97L1562.14 126.937L1562.14 -93.0232L1545.49 -102.991Z" fill="white"/>
<path d="M1612.31 -62.9598L1612.31 156.89L1629.07 166.969L1629.07 -52.992L1612.31 -62.9598Z" fill="white"/>
<path d="M1712.72 -2.98318L1712.72 216.922L1729.42 226.945L1729.42 6.98454L1712.72 -2.98318Z" fill="white"/>
<path d="M1645.83 -43.08L1645.83 176.992L1662.54 187.016L1662.54 -33.0008L1645.83 -43.08Z" fill="white"/>
<path d="M1679.31 -22.9755L1679.31 196.985L1696.01 206.953L1696.01 -13.0076L1679.31 -22.9755Z" fill="white"/>
<path d="M1545.48 56.9882L1361.44 167.024L1361.44 187.016L1545.48 76.9795L1545.48 56.9882Z" fill="white"/>
<path d="M1545.48 17.0049L1361.44 127.041L1361.44 146.977L1545.48 36.9405L1545.48 17.0049Z" fill="white"/>
<path d="M1545.48 -102.995L1361.44 6.98522L1361.44 26.9766L1545.48 -83.0594L1545.48 -102.995Z" fill="white"/>
<path d="M1545.48 96.9735L1361.44 206.954L1361.44 226.945L1545.48 116.965L1545.48 96.9735Z" fill="white"/>
<path d="M1545.48 -23.0274L1361.44 86.9529L1361.44 107L1545.48 -2.98036L1545.48 -23.0274Z" fill="white"/>
<path d="M1545.48 -63.0108L1361.44 46.9139L1361.44 66.9609L1545.48 -43.0752L1545.48 -63.0108Z" fill="white"/>
<path d="M1394.92 246.931L1394.92 466.892L1411.62 476.859L1411.62 256.954L1394.92 246.931Z" fill="white"/>
<path d="M1378.14 236.914L1361.44 226.947L1361.44 446.907L1378.14 456.875L1378.14 236.914Z" fill="white"/>
<path d="M1461.85 286.971L1461.85 506.932L1478.55 516.844L1478.55 296.939L1461.85 286.971Z" fill="white"/>
<path d="M1428.37 266.93L1428.37 486.835L1445.02 496.914L1445.02 276.898L1428.37 266.93Z" fill="white"/>
<path d="M1528.71 326.953L1528.71 546.97L1545.48 556.937L1545.48 336.921L1528.71 326.953Z" fill="white"/>
<path d="M1495.3 306.961L1495.3 526.922L1512.01 536.945L1512.01 316.985L1495.3 306.961Z" fill="white"/>
<path d="M1729.42 266.927L1545.49 376.907L1545.49 396.898L1729.42 286.918L1729.42 266.927Z" fill="white"/>
<path d="M1729.42 226.943L1545.49 336.924L1545.49 356.859L1729.42 246.935L1729.42 226.943Z" fill="white"/>
<path d="M1729.42 306.959L1545.49 416.939L1545.49 436.875L1729.42 326.895L1729.42 306.959Z" fill="white"/>
<path d="M1729.42 346.941L1545.49 456.922L1545.49 476.969L1729.42 366.933L1729.42 346.941Z" fill="white"/>
<path d="M1729.42 386.933L1545.49 496.97L1545.49 516.961L1729.42 406.981L1729.42 386.933Z" fill="white"/>
<path d="M1729.42 427.021L1545.49 536.946L1545.49 556.938L1729.42 446.901L1729.42 427.021Z" fill="white"/>
<path d="M1946.82 -83.0623L1946.82 136.954L1963.58 146.922L1963.58 -73.0388L1946.82 -83.0623Z" fill="white"/>
<path d="M1913.41 -102.991L1913.41 116.97L1930.06 126.937L1930.06 -93.0232L1913.41 -102.991Z" fill="white"/>
<path d="M1913.39 -63.0108L1729.4 46.9139L1729.4 66.9609L1913.39 -43.0752L1913.39 -63.0108Z" fill="white"/>
<path d="M1913.39 -23.0274L1729.4 86.9529L1729.4 107L1913.39 -2.98036L1913.39 -23.0274Z" fill="white"/>
<path d="M1913.39 -102.995L1729.4 6.98522L1729.4 26.9766L1913.39 -83.0594L1913.39 -102.995Z" fill="white"/>
<path d="M1913.39 96.9735L1729.4 206.954L1729.4 226.945L1913.39 116.965L1913.39 96.9735Z" fill="white"/>
<path d="M1913.39 56.9882L1729.4 167.024L1729.4 187.016L1913.39 76.9795L1913.39 56.9882Z" fill="white"/>
<path d="M1913.39 17.0049L1729.4 127.041L1729.4 146.977L1913.39 36.9405L1913.39 17.0049Z" fill="white"/>
<path d="M1762.88 246.931L1762.88 466.892L1779.53 476.859L1779.53 256.954L1762.88 246.931Z" fill="white"/>
<path d="M1729.4 226.947L1729.4 446.907L1746.1 456.875L1746.1 236.914L1729.4 226.947Z" fill="white"/>
<path d="M1796.29 266.93L1796.29 486.835L1812.99 496.914L1812.99 276.898L1796.29 266.93Z" fill="white"/>
<path d="M1829.74 286.971L1829.74 506.932L1846.45 516.844L1846.45 296.939L1829.74 286.971Z" fill="white"/>
<path d="M1863.22 306.961L1863.22 526.922L1879.98 536.945L1879.98 316.985L1863.22 306.961Z" fill="white"/>
<path d="M1896.68 326.953L1896.68 546.97L1913.38 556.937L1913.38 336.921L1896.68 326.953Z" fill="white"/>
<path d="M2097.39 266.927L1913.41 376.907L1913.41 396.898L2097.39 286.918L2097.39 266.927Z" fill="white"/>
<path d="M2097.39 306.959L1913.41 416.939L1913.41 436.875L2097.39 326.895L2097.39 306.959Z" fill="white"/>
<path d="M2097.39 226.943L1913.41 336.924L1913.41 356.859L2097.39 246.935L2097.39 226.943Z" fill="white"/>
<path d="M2097.39 427.021L1913.41 536.946L1913.41 556.938L2097.39 446.901L2097.39 427.021Z" fill="white"/>
<path d="M2097.39 346.941L1913.41 456.922L1913.41 476.969L2097.39 366.933L2097.39 346.941Z" fill="white"/>
<path d="M2097.39 386.933L1913.41 496.97L1913.41 516.961L2097.39 406.981L2097.39 386.933Z" fill="white"/>
<path d="M1729.41 886.828L1545.47 776.903L1528.71 786.871L1712.7 896.852L1729.41 886.828Z" fill="white"/>
<path d="M1411.62 856.863L1394.91 866.831L1578.9 976.867L1595.61 966.844L1411.62 856.863Z" fill="white"/>
<path d="M1562.13 986.893L1378.14 876.856L1361.44 886.824L1545.48 996.805L1562.13 986.893Z" fill="white"/>
<path d="M1695.99 906.811L1512.01 796.887L1495.3 806.855L1679.29 916.891L1695.99 906.811Z" fill="white"/>
<path d="M1629.06 946.907L1445.02 836.871L1428.37 846.839L1612.3 956.875L1629.06 946.907Z" fill="white"/>
<path d="M1662.54 926.86L1478.55 816.824L1461.84 826.848L1645.83 936.828L1662.54 926.86Z" fill="white"/>
<path d="M1545.49 556.931L1545.49 776.892L1562.14 786.859L1562.14 566.899L1545.49 556.931Z" fill="white"/>
<path d="M1612.31 596.86L1612.31 816.82L1629.07 826.844L1629.07 606.883L1612.31 596.86Z" fill="white"/>
<path d="M1578.9 576.812L1578.9 796.884L1595.6 806.852L1595.6 586.891L1578.9 576.812Z" fill="white"/>
<path d="M1645.83 616.906L1645.83 836.867L1662.54 846.891L1662.54 626.874L1645.83 616.906Z" fill="white"/>
<path d="M1679.31 636.955L1679.31 856.86L1696.01 866.828L1696.01 646.923L1679.31 636.955Z" fill="white"/>
<path d="M1712.72 656.836L1712.72 876.852L1729.42 886.82L1729.42 666.915L1712.72 656.836Z" fill="white"/>
<path d="M1545.48 716.919L1361.44 826.844L1361.44 846.891L1545.48 736.91L1545.48 716.919Z" fill="white"/>
<path d="M1545.48 756.904L1361.44 866.885L1361.44 886.82L1545.48 776.896L1545.48 756.904Z" fill="white"/>
<path d="M1545.48 556.936L1361.44 666.916L1361.44 686.852L1545.48 576.816L1545.48 556.936Z" fill="white"/>
<path d="M1545.48 596.864L1361.44 706.845L1361.44 726.836L1545.48 616.911L1545.48 596.864Z" fill="white"/>
<path d="M1545.48 636.841L1361.44 746.821L1361.44 766.812L1545.48 656.832L1545.48 636.841Z" fill="white"/>
<path d="M1545.48 676.879L1361.44 786.859L1361.44 806.906L1545.48 696.87L1545.48 676.879Z" fill="white"/>
<path d="M1378.14 896.845L1361.44 886.821L1361.44 1106.78L1378.14 1116.75L1378.14 896.845Z" fill="white"/>
<path d="M1729.42 886.825L1545.49 996.805L1545.49 1016.8L1729.42 906.817L1729.42 886.825Z" fill="white"/>
<path d="M1746.11 876.856L1729.4 886.824L1913.39 996.805L1930.04 986.893L1746.11 876.856Z" fill="white"/>
<path d="M2097.39 886.828L1913.4 776.903L1896.7 786.871L2080.68 896.852L2097.39 886.828Z" fill="white"/>
<path d="M2030.4 926.86L1846.47 816.824L1829.77 826.848L2013.75 936.828L2030.4 926.86Z" fill="white"/>
<path d="M2063.97 906.811L1879.98 796.887L1863.22 806.855L2047.21 916.891L2063.97 906.811Z" fill="white"/>
<path d="M1963.57 966.844L1779.53 856.863L1762.88 866.831L1946.81 976.867L1963.57 966.844Z" fill="white"/>
<path d="M1997.04 946.907L1812.99 836.871L1796.29 846.839L1980.33 956.875L1997.04 946.907Z" fill="white"/>
<path d="M1946.82 576.812L1946.82 796.884L1963.58 806.852L1963.58 586.891L1946.82 576.812Z" fill="white"/>
<path d="M1913.41 556.931L1913.41 776.892L1930.06 786.859L1930.06 566.899L1913.41 556.931Z" fill="white"/>
<path d="M1913.39 636.839L1729.4 746.819L1729.4 766.922L1913.39 656.83L1913.39 636.839Z" fill="white"/>
<path d="M1913.39 596.864L1729.4 706.845L1729.4 726.836L1913.39 616.911L1913.39 596.864Z" fill="white"/>
<path d="M1913.39 556.936L1729.4 666.916L1729.4 686.852L1913.39 576.816L1913.39 556.936Z" fill="white"/>
<path d="M1913.39 756.904L1729.4 866.885L1729.4 886.82L1913.39 776.896L1913.39 756.904Z" fill="white"/>
<path d="M1913.39 676.879L1729.4 786.859L1729.4 806.906L1913.39 696.87L1913.39 676.879Z" fill="white"/>
<path d="M1913.39 716.919L1729.4 826.844L1729.4 846.891L1913.39 736.91L1913.39 716.919Z" fill="white"/>
<path d="M1729.4 886.837L1729.4 1106.8L1746.1 1116.77L1746.1 896.861L1729.4 886.837Z" fill="white"/>
<path d="M2097.39 886.825L1913.41 996.805L1913.41 1016.8L2097.39 906.817L2097.39 886.825Z" fill="white"/>
<path d="M1729.41 226.945L1545.47 116.965L1528.71 126.933L1712.7 236.969L1729.41 226.945Z" fill="white"/>
<path d="M1562.13 326.954L1378.14 216.918L1361.44 226.942L1545.48 336.922L1562.13 326.954Z" fill="white"/>
<path d="M1411.62 196.988L1394.91 206.956L1578.9 316.992L1595.61 306.969L1411.62 196.988Z" fill="white"/>
<path d="M1695.99 246.937L1512.01 136.957L1495.3 146.925L1679.29 256.961L1695.99 246.937Z" fill="white"/>
<path d="M1662.54 266.923L1478.55 156.887L1461.85 166.966L1645.83 276.891L1662.54 266.923Z" fill="white"/>
<path d="M1629.06 286.978L1445.02 176.997L1428.37 187.021L1612.3 296.945L1629.06 286.978Z" fill="white"/>
<path d="M2030.41 266.923L1846.47 156.887L1829.77 166.966L2013.75 276.891L2030.41 266.923Z" fill="white"/>
<path d="M2097.39 226.945L1913.41 116.965L1896.7 126.933L2080.69 236.969L2097.39 226.945Z" fill="white"/>
<path d="M2063.97 246.93L1879.98 136.949L1863.22 146.917L2047.21 256.953L2063.97 246.93Z" fill="white"/>
<path d="M1746.11 216.918L1729.4 226.942L1913.39 336.922L1930.04 326.954L1746.11 216.918Z" fill="white"/>
<path d="M1963.57 306.961L1779.53 196.98L1762.88 206.948L1946.81 316.984L1963.57 306.961Z" fill="white"/>
<path d="M1997.04 286.978L1812.99 176.997L1796.29 187.021L1980.33 296.945L1997.04 286.978Z" fill="white"/>
</g>
</g>
</g>
</g>
</svg>
