<svg width="277" height="547" viewBox="0 0 277 547" fill="none" xmlns="http://www.w3.org/2000/svg">
<g clip-path="url(#clip0_3162_10096)">
<mask id="mask0_3162_10096" style="mask-type:luminance" maskUnits="userSpaceOnUse" x="9" y="277" width="253" height="202">
<path d="M261.339 277.281H9.71094V478.291H261.339V277.281Z" fill="white"/>
</mask>
<g mask="url(#mask0_3162_10096)">
<path d="M259.562 325.436C258.622 313.959 259.092 308.794 257.265 297.525C256.743 293.978 256.221 288.395 256.534 284.796C256.639 283.648 257.996 279.996 257.683 279.109C254.759 271.492 223.227 296.117 219.677 299.664C214.039 305.298 214.457 304.881 208.244 311.089C197.542 321.732 193.731 328.618 185.587 343.382C180.837 342.495 175.668 340.878 171.231 338.844C156.666 333.105 141.109 332.688 125.708 334.826C116.259 336.131 105.348 337.018 97.4131 342.078C93.2367 344.791 89.478 333.627 87.8074 330.757C83.5788 323.506 77.3664 318.497 72.0415 311.976C63.8975 302.012 53.5609 294.499 45.2603 289.595C38.1082 285.37 30.2774 281.039 22.1334 278.848C20.2541 278.327 17.5916 277.701 15.6078 277.648C14.6681 277.648 13.7806 277.648 12.8409 277.805C12.0579 277.961 11.2748 277.909 10.2307 278.379C9.3432 279.37 9.86525 280.831 10.0219 281.979C10.2307 283.544 11.2748 285.891 11.4314 287.456C11.849 291.369 12.0057 294.812 12.0057 298.829C12.0057 313.698 9.70864 326.532 10.4917 341.4C11.2226 354.338 9.3432 355.694 12.7887 371.137C14.3027 378.023 22.8121 390.596 28.4502 394.978C35.0281 400.091 41.4493 403.378 50.5852 404.212C52.6734 404.421 53.091 405.882 55.127 405.83L54.7616 406.195C54.7616 406.195 51.7859 426.019 51.3161 428.419C49.2801 438.801 49.2279 447.67 50.7418 455.286C50.8984 458.469 52.83 469.79 70.1099 491.231C80.8119 504.587 88.7993 517.212 88.7993 517.212L92.036 520.394L93.0801 522.951L95.0639 525.507L96.369 527.75L97.7264 530.307L99.3969 533.124L101.433 537.923L102.529 542.723L103.208 546.218L105.505 547.157L113.649 547.001L116.103 540.845L118.4 543.401L124.508 543.923L125.708 539.749L125.604 518.255L123.568 510.534L120.958 504.117L129.885 506.882L153.742 505.839L163.035 504.17L161.103 520.603L161.312 538.132V538.341L161.155 538.497L161.312 539.436V541.367H161.625L162.2 545.54L169.299 546.062L170.761 542.358L174.155 542.723L176.086 544.966L185.17 545.592L186.371 542.671V539.801C187.154 535.837 188.146 529.994 188.146 527.124C188.146 517.212 193.314 505.891 193.314 505.891C193.314 505.891 201.353 493.11 203.703 487.893C207.096 480.328 215.814 466.19 217.955 448.922C219.155 442.505 219.155 435.932 217.537 429.723C216.075 424.193 210.907 399.726 208.14 398.943C229.805 405.204 240.351 398.578 251.627 382.144C260.45 369.363 262.016 351.99 260.502 337.8C260.084 333.783 259.719 329.714 259.405 325.592M186.632 415.95C186.527 416.472 186.318 416.994 186.162 417.568C183.865 423.985 177.13 428.628 170.866 430.61C165.645 432.227 159.328 432.019 153.899 432.019L137.089 434.419C135.157 434.21 131.712 434.053 127.535 433.166L119.235 430.819C111.874 428.158 104.617 423.672 101.955 416.316C101.59 414.959 101.276 413.394 101.067 411.516C101.067 411.516 100.493 397.482 111.978 386.422C123.463 375.415 129.206 370.98 134.479 369.572C139.699 368.111 148.209 366.859 152.542 368.059C156.927 369.311 162.878 370.667 165.906 373.745C172.432 380.266 179.062 387.309 182.925 395.813C185.692 401.917 188.198 409.325 186.579 416.055" fill="#007167"/>
<g style="mix-blend-mode:multiply">
<path d="M79.5085 374.062C73.9748 377.714 77.8902 386.792 78.36 387.783C78.6733 388.513 79.4563 388.983 80.2916 388.931L80.657 388.826C84.6768 387.679 88.2268 384.601 88.9055 381.627C89.3231 379.749 88.4878 376.932 86.9217 375.106C84.9901 372.81 82.0666 372.393 79.4563 374.062" fill="#221E1F"/>
</g>
<g style="mix-blend-mode:multiply">
<path d="M183.816 380.79C184.755 383.763 185.904 387.05 188.984 386.841C189.767 386.841 190.55 386.476 191.385 385.902C195.614 382.876 192.116 375.155 191.385 373.642C191.072 373.016 190.446 372.599 189.715 372.547C189.715 372.547 189.141 372.547 188.358 372.547C186.008 372.756 184.286 373.538 183.45 374.894C182.928 375.677 182.511 377.033 183.189 378.912C183.398 379.538 183.607 380.216 183.816 380.842" fill="#221E1F"/>
</g>
<path d="M136.414 397.797C135.369 397.014 133.908 396.754 131.976 396.858C129 397.067 125.92 398.266 125.868 398.319H125.764L125.451 398.84C124.789 399.884 124.476 400.944 124.511 402.023C124.511 402.544 124.511 403.223 124.511 404.214C124.406 408.544 127.017 408.909 132.028 409.222C132.655 409.222 133.177 409.222 133.699 409.222C136.936 409.013 138.084 407.344 139.18 405.779L139.598 405.205C141.008 403.275 139.702 400.249 136.361 397.797" fill="#007167"/>
<path d="M131.865 408.279L131.812 408.07L131.865 408.279Z" fill="#007167"/>
<path d="M167.157 395.187C166.687 395.187 166.217 395.291 165.695 395.343C165.121 395.343 164.547 395.5 163.92 395.5C160.266 395.761 160.005 400.143 160.005 400.195C159.744 404.16 160.422 405.36 160.475 405.412C161.623 407.656 163.189 408.595 165.591 408.438C167.053 408.334 168.775 407.812 170.707 407.238C171.177 407.082 171.699 406.977 172.221 406.821C174.257 406.247 175.405 405.256 175.666 403.847C176.188 401.395 173.683 398.474 172.638 397.326C170.707 395.344 169.141 395.03 167.209 395.135" fill="#007167"/>
</g>
<path d="M85.9314 3.0258C88.1762 2.76495 90.2645 2.71278 92.0916 2.86929C93.971 3.07797 95.5894 3.54749 96.9989 4.27787C98.4084 5.06042 99.557 6.10381 100.444 7.46023C101.332 8.81664 101.906 10.4861 102.115 12.5207C102.376 14.7118 102.219 16.5899 101.593 18.155C100.966 19.7201 100.027 21.0765 98.7217 22.1199C97.4688 23.2155 95.9026 24.0502 94.1276 24.6762C92.3527 25.3023 90.3689 25.7718 88.3329 26.0327L82.9558 26.7109L84.5219 39.4925C84.6263 40.3272 84.5741 41.0576 84.3653 41.5793C84.1565 42.101 83.8954 42.5183 83.5822 42.8835C83.269 43.1965 82.9035 43.4574 82.5381 43.6139C82.1205 43.7704 81.8072 43.8226 81.494 43.8747C81.1808 43.8747 80.8675 43.8747 80.3977 43.8747C79.9801 43.8747 79.5624 43.666 79.197 43.4574C78.8316 43.1965 78.4661 42.8313 78.1529 42.3618C77.8397 41.8923 77.6308 41.2141 77.5264 40.3793L73.611 8.7123C73.2978 5.9473 74.4985 4.38221 77.2654 4.06919L85.9314 3.0258ZM82.2249 20.8679L87.0799 20.2418C88.2285 20.0853 89.3248 19.8766 90.3167 19.6158C91.3086 19.3028 92.196 18.9376 92.9791 18.3637C93.7622 17.842 94.3364 17.1638 94.7019 16.3813C95.0673 15.5987 95.2239 14.6075 95.0673 13.4076C94.9107 12.2598 94.5975 11.373 94.0232 10.6948C93.449 10.0165 92.7703 9.54702 91.8828 9.234C91.0475 8.92098 90.1078 8.76447 89.0637 8.76447C88.0196 8.76447 86.9755 8.81664 85.8792 8.97315L80.7631 9.59919L82.1727 20.8679H82.2249Z" fill="#007167"/>
<path d="M130.883 36.4641C130.883 37.2989 130.779 37.9771 130.518 38.4988C130.257 39.0205 129.995 39.4378 129.63 39.7508C129.265 40.0639 128.899 40.2725 128.482 40.3769C128.064 40.4812 127.698 40.5334 127.437 40.5334C127.124 40.5334 126.811 40.5334 126.393 40.4291C125.976 40.3769 125.61 40.1682 125.245 39.8552C124.879 39.5422 124.566 39.177 124.305 38.6553C124.044 38.1336 123.887 37.5075 123.835 36.6207L123 4.01455C123 3.17984 123.104 2.50163 123.313 1.97993C123.574 1.45824 123.835 1.04088 124.201 0.727859C124.566 0.41484 124.932 0.206161 125.349 0.101822C125.767 -0.00251773 126.132 -0.0546875 126.393 -0.0546875C126.707 -0.0546875 127.02 -0.0546875 127.437 0.049652C127.855 0.153992 128.221 0.310501 128.586 0.623519C128.951 0.936538 129.265 1.30173 129.526 1.82342C129.787 2.34512 129.943 3.02333 129.943 3.80588L130.779 36.412L130.883 36.4641Z" fill="#007167"/>
<path d="M187.21 36.8785C187.106 38.0784 186.845 38.9653 186.271 39.5913C185.749 40.2173 184.861 40.6869 183.608 41.0521C181.886 41.5216 180.006 41.7824 178.127 41.9911C176.195 42.1476 174.159 42.1998 171.914 41.9911C168.73 41.7824 165.859 41.0521 163.248 39.9043C160.69 38.7044 158.498 37.1393 156.723 35.1569C154.948 33.1744 153.643 30.879 152.703 28.2705C151.815 25.662 151.45 22.7926 151.659 19.7146C151.868 16.5844 152.599 13.7673 153.851 11.2631C155.104 8.81115 156.775 6.72435 158.811 5.05492C160.847 3.38549 163.196 2.18559 165.859 1.40304C168.521 0.620492 171.392 0.307473 174.42 0.516152C177.03 0.672662 179.328 1.14219 181.311 1.92474C183.295 2.65511 184.966 3.59417 186.219 4.63756C186.949 5.21143 187.367 5.73313 187.524 6.25483C187.68 6.77652 187.785 7.24605 187.733 7.71558C187.68 8.70681 187.315 9.43718 186.688 10.011C186.062 10.5849 185.279 10.8458 184.391 10.7936C184.078 10.7936 183.661 10.6893 183.295 10.5327C182.877 10.3762 182.46 10.1676 181.99 9.7502C181.102 9.07199 180.006 8.39379 178.701 7.81992C177.396 7.19388 175.83 6.82869 174.055 6.72435C171.967 6.56785 170.087 6.82869 168.312 7.45473C166.589 8.08077 165.076 9.01982 163.77 10.2197C162.517 11.4196 161.473 12.8804 160.69 14.602C159.907 16.3236 159.49 18.2017 159.333 20.2363C159.176 22.3753 159.385 24.3056 159.907 26.1315C160.429 27.9575 161.265 29.5225 162.413 30.9311C163.562 32.3397 164.919 33.4353 166.642 34.27C168.312 35.1047 170.244 35.6264 172.436 35.7307C175.464 35.9394 178.075 35.6264 180.372 34.8439L181.05 24.8273L175.464 24.4621C174.786 24.4621 174.264 24.2534 173.846 24.0447C173.428 23.836 173.115 23.523 172.906 23.21C172.697 22.897 172.541 22.5318 172.489 22.2188C172.489 21.8536 172.436 21.5927 172.436 21.3841C172.436 21.1754 172.489 20.8624 172.593 20.5493C172.697 20.2363 172.854 19.9233 173.115 19.6103C173.376 19.2973 173.742 19.0886 174.159 18.8799C174.577 18.7234 175.151 18.6191 175.83 18.6712L184.235 19.2451C186.897 19.4016 188.098 20.8102 187.941 23.4708L187.054 36.8785H187.21Z" fill="#007167"/>
<path d="M51.8861 118.688C52.0427 119.523 52.0427 120.201 51.8861 120.775C51.7295 121.297 51.5207 121.766 51.2074 122.132C50.9464 122.497 50.581 122.758 50.2155 122.966C49.8501 123.123 49.4847 123.279 49.2236 123.331C48.9104 123.384 48.5972 123.436 48.1795 123.436C47.7619 123.436 47.3442 123.331 46.9266 123.123C46.509 122.914 46.1435 122.549 45.7781 122.132C45.4127 121.714 45.1516 121.036 44.995 120.201L38.3128 88.2734C38.1562 87.4909 38.1562 86.8127 38.3128 86.2388C38.4694 85.6649 38.6782 85.1954 38.9392 84.8302C39.2003 84.465 39.5657 84.2042 39.9311 84.0477C40.2966 83.8911 40.662 83.7346 40.923 83.6825C41.2363 83.6303 41.5495 83.5781 41.9671 83.5781C42.3848 83.5781 42.8024 83.6825 43.22 83.9433C43.6377 84.152 44.0031 84.5172 44.3686 84.9345C44.734 85.4041 44.995 86.0301 45.1516 86.8126L51.8339 118.741L51.8861 118.688Z" fill="#007167"/>
<path d="M71.4614 88.2684H71.357L75.6378 112.527C75.7944 113.362 75.7944 114.04 75.6378 114.614C75.4812 115.136 75.2202 115.605 74.9591 115.971C74.6459 116.336 74.3327 116.597 73.915 116.753C73.5496 116.91 73.1842 117.014 72.8709 117.066C72.5577 117.066 72.2445 117.118 71.8268 117.066C71.4092 117.066 70.9916 116.91 70.5739 116.701C70.1563 116.492 69.7908 116.127 69.4776 115.658C69.1122 115.188 68.9034 114.562 68.7467 113.727L63.3174 82.7384C63.1086 81.695 63.1608 80.8081 63.3174 80.0777C63.5262 79.3474 63.8395 78.7735 64.2049 78.304C64.6225 77.8344 65.0402 77.5214 65.51 77.3127C65.9799 77.1041 66.3975 76.9475 66.7107 76.8954C67.4938 76.7389 68.2769 76.8432 69.1122 77.1041C69.9475 77.3649 70.9394 78.0953 72.0879 79.243L94.5882 100.998H94.6926L90.464 76.791C90.3074 76.0085 90.3596 75.3303 90.464 74.7564C90.6207 74.1825 90.8817 73.7652 91.1427 73.4C91.4559 73.0348 91.7692 72.774 92.1868 72.6175C92.5522 72.4609 92.9177 72.3566 93.2309 72.3044C93.5441 72.3044 93.8574 72.2523 94.275 72.3044C94.6926 72.3044 95.1103 72.4609 95.5279 72.6696C95.9456 72.8783 96.311 73.2435 96.6242 73.713C96.9897 74.1826 97.1985 74.8086 97.3551 75.6433L102.784 106.632C102.993 107.676 102.941 108.562 102.784 109.293C102.576 110.023 102.262 110.597 101.845 111.067C101.427 111.536 101.009 111.849 100.54 112.058C100.07 112.266 99.6521 112.423 99.3389 112.475C98.5558 112.632 97.7205 112.527 96.9375 112.266C96.1544 111.953 95.1625 111.275 93.9618 110.128L71.4614 88.3206V88.2684Z" fill="#007167"/>
<path d="M148.723 70.0625C149.454 70.0625 150.081 70.1668 150.551 70.4277C151.02 70.6364 151.386 70.9494 151.595 71.2624C151.856 71.5754 152.012 71.9406 152.065 72.3058C152.117 72.671 152.169 72.9318 152.169 73.1927C152.169 73.4535 152.169 73.7144 152.065 74.0796C152.012 74.4448 151.856 74.7578 151.595 75.123C151.334 75.436 151.02 75.749 150.551 75.9577C150.081 76.1664 149.507 76.2707 148.723 76.2707H139.535L139.483 106.164C139.483 106.999 139.327 107.677 139.066 108.199C138.804 108.72 138.491 109.085 138.126 109.398C137.76 109.712 137.395 109.868 136.977 109.972C136.56 110.077 136.194 110.129 135.933 110.129C135.62 110.129 135.307 110.129 134.889 109.972C134.471 109.868 134.106 109.712 133.741 109.398C133.375 109.085 133.062 108.72 132.801 108.199C132.54 107.677 132.435 106.999 132.435 106.164V76.2185H123.352C122.621 76.2185 121.994 76.1142 121.525 75.9055C121.055 75.6968 120.689 75.3838 120.481 75.0708C120.219 74.7578 120.063 74.3926 120.011 74.0274C119.958 73.6622 119.906 73.4014 119.906 73.1405C119.906 72.9318 119.906 72.6188 120.011 72.2536C120.063 71.8884 120.272 71.5754 120.481 71.2102C120.742 70.8972 121.055 70.5842 121.525 70.3755C121.994 70.1668 122.621 70.0625 123.352 70.0625H148.723Z" fill="#007167"/>
<path d="M185.115 95.5722L166.739 93.5898L165.225 107.571C165.12 108.406 164.912 109.084 164.598 109.554C164.285 110.023 163.92 110.388 163.554 110.649C163.189 110.91 162.771 111.067 162.354 111.119C161.936 111.119 161.571 111.171 161.257 111.119C160.944 111.119 160.631 111.014 160.213 110.858C159.796 110.701 159.482 110.493 159.117 110.128C158.804 109.815 158.543 109.345 158.334 108.823C158.125 108.302 158.073 107.623 158.177 106.737L161.675 74.287C161.779 73.4522 161.988 72.8262 162.301 72.3045C162.615 71.835 162.98 71.4176 163.346 71.1568C163.711 70.8959 164.129 70.7394 164.546 70.6872C164.964 70.6872 165.329 70.6351 165.59 70.6872C165.904 70.6872 166.217 70.7916 166.634 70.9481C167.052 71.1046 167.365 71.3133 167.731 71.6785C168.044 71.9915 168.305 72.461 168.514 72.9827C168.723 73.5566 168.775 74.2348 168.67 75.0173L167.313 87.4337L185.689 89.4162L187.047 76.9998C187.151 76.1651 187.36 75.539 187.673 75.0173C187.986 74.5478 188.352 74.1305 188.717 73.8696C189.083 73.6088 189.5 73.4522 189.918 73.4001C190.336 73.4001 190.701 73.3479 190.962 73.4001C191.275 73.4001 191.588 73.5044 192.006 73.6609C192.424 73.8174 192.737 74.0261 193.102 74.3913C193.416 74.7043 193.677 75.1738 193.885 75.6955C194.094 76.2694 194.146 76.9476 194.042 77.7302L190.544 110.128C190.44 110.962 190.231 111.641 189.918 112.11C189.605 112.58 189.239 112.945 188.874 113.206C188.508 113.466 188.091 113.623 187.673 113.675C187.255 113.675 186.89 113.727 186.629 113.675C186.316 113.675 186.002 113.571 185.585 113.414C185.167 113.258 184.854 113.049 184.489 112.684C184.175 112.371 183.914 111.901 183.705 111.38C183.497 110.858 183.444 110.18 183.549 109.293L185.063 95.3114L185.115 95.5722Z" fill="#007167"/>
<path d="M211.27 100.999L208.711 111.851L225.521 115.816C226.252 115.972 226.774 116.233 227.192 116.546C227.557 116.859 227.871 117.224 228.027 117.589C228.184 117.955 228.236 118.32 228.236 118.685C228.236 119.05 228.236 119.363 228.132 119.624C228.08 119.885 227.975 120.146 227.818 120.511C227.662 120.824 227.453 121.137 227.14 121.398C226.827 121.659 226.409 121.867 225.939 121.972C225.469 122.076 224.843 122.076 224.112 121.867L204.535 117.224C201.82 116.598 200.776 114.877 201.403 112.164L208.555 81.8531C209.181 79.1403 210.904 78.0969 213.619 78.7229L232.152 83.1052C232.882 83.2617 233.457 83.5226 233.822 83.8356C234.24 84.1486 234.501 84.5138 234.657 84.879C234.814 85.2442 234.866 85.6094 234.866 85.9745C234.866 86.3397 234.866 86.6006 234.762 86.8614C234.762 87.0701 234.605 87.331 234.449 87.6961C234.292 88.0092 234.083 88.3222 233.77 88.583C233.457 88.8439 233.039 89.0526 232.569 89.1569C232.047 89.2612 231.421 89.2612 230.742 89.0526L214.976 85.3485L212.679 95.1043L227.557 98.5996C228.288 98.7561 228.81 99.017 229.228 99.33C229.593 99.643 229.855 100.008 230.011 100.373C230.168 100.739 230.22 101.104 230.22 101.417C230.22 101.782 230.22 102.043 230.116 102.252C230.116 102.46 229.959 102.721 229.802 103.034C229.646 103.347 229.437 103.608 229.124 103.869C228.81 104.13 228.445 104.286 227.975 104.443C227.505 104.547 226.879 104.547 226.148 104.338L211.27 100.791V100.999Z" fill="#007167"/>
<path d="M40.8225 186.352C41.2401 187.448 41.3445 188.439 41.0835 189.222C40.8225 190.004 40.2482 190.839 39.2563 191.622C37.8468 192.717 36.2806 193.761 34.6101 194.7C32.9395 195.639 31.0601 196.473 28.9719 197.256C25.944 198.351 23.0205 198.925 20.2015 198.873C17.3824 198.873 14.7199 198.299 12.3185 197.204C9.91707 196.108 7.72446 194.595 5.84508 192.561C3.9657 190.526 2.50396 188.074 1.40765 185.205C0.311346 182.231 -0.1585 179.362 -0.00188466 176.597C0.15473 173.832 0.781191 171.275 1.98191 168.928C3.18262 166.58 4.80098 164.493 6.94139 162.72C9.02959 160.894 11.5354 159.485 14.4067 158.389C16.8603 157.503 19.1574 156.981 21.2978 156.824C23.4382 156.668 25.3176 156.824 26.8837 157.294C27.7712 157.503 28.3977 157.816 28.7631 158.233C29.1285 158.65 29.3896 159.068 29.5462 159.485C29.8594 160.372 29.8594 161.259 29.5462 162.041C29.1807 162.824 28.6065 163.346 27.7712 163.659C27.458 163.763 27.0925 163.867 26.6749 163.867C26.2573 163.867 25.7352 163.867 25.1609 163.711C24.0646 163.45 22.8117 163.293 21.35 163.293C19.8882 163.293 18.3221 163.554 16.6515 164.18C14.7199 164.911 13.0494 165.902 11.7443 167.206C10.4391 168.51 9.39502 169.971 8.76856 171.588C8.0899 173.206 7.77667 174.979 7.77667 176.858C7.77667 178.736 8.1421 180.614 8.82077 182.544C9.55164 184.526 10.5435 186.248 11.7443 187.657C12.9972 189.065 14.3545 190.213 15.9729 190.996C17.539 191.778 19.314 192.248 21.1934 192.3C23.0727 192.404 25.0565 192.039 27.0925 191.256C29.9116 190.213 32.2086 188.857 33.9836 187.239L30.4859 177.797L25.2654 179.727C24.6389 179.988 24.0646 180.04 23.5948 179.988C23.125 179.988 22.7073 179.831 22.3941 179.623C22.0808 179.414 21.8198 179.153 21.611 178.892C21.4022 178.579 21.2978 178.37 21.1934 178.162C21.089 177.953 21.0367 177.692 20.9845 177.327C20.9845 177.014 20.9845 176.649 21.089 176.231C21.1934 175.866 21.4544 175.501 21.7676 175.136C22.0808 174.771 22.6029 174.51 23.2294 174.249L31.1645 171.328C33.6704 170.388 35.3409 171.171 36.2806 173.675L40.9269 186.3L40.8225 186.352Z" fill="#007167"/>
<path d="M79.4555 173.876L61.6536 177.423L60.1918 184.727C59.983 185.927 59.5654 186.71 58.9911 187.179C58.4169 187.649 57.8426 187.91 57.2683 188.014C56.3287 188.223 55.4412 188.014 54.6581 187.596C53.875 187.127 53.353 186.344 53.1441 185.301C53.0919 184.988 53.0397 184.727 53.0919 184.362C53.0919 184.049 53.1441 183.632 53.2486 183.162L61.0271 149.356C61.1837 148.573 61.4447 147.895 61.7058 147.374C61.9668 146.852 62.28 146.487 62.5933 146.174C62.9065 145.861 63.2719 145.652 63.5852 145.495C63.9506 145.339 64.2638 145.235 64.6293 145.182C64.9425 145.13 65.3079 145.078 65.6734 145.078C66.0388 145.078 66.4564 145.13 66.8741 145.287C67.2917 145.443 67.7616 145.704 68.1792 146.069C68.649 146.435 69.1189 146.956 69.5887 147.634L89.6355 175.806C89.8965 176.223 90.1053 176.589 90.2097 176.902C90.3141 177.215 90.4185 177.476 90.4708 177.684C90.6796 178.832 90.4707 179.771 89.9487 180.501C89.3744 181.284 88.5914 181.753 87.6517 181.91C87.0774 182.014 86.3988 181.962 85.7201 181.806C84.9892 181.597 84.3106 180.971 83.6319 179.928L79.5077 173.824L79.4555 173.876ZM62.9587 171.006L75.9055 168.45L66.4042 154.156L62.9587 171.006Z" fill="#007167"/>
<path d="M113.285 162.299L108.169 162.56L108.9 175.811C108.9 176.646 108.9 177.376 108.639 177.846C108.43 178.368 108.117 178.785 107.804 179.098C107.491 179.411 107.073 179.62 106.708 179.724C106.29 179.828 105.977 179.881 105.663 179.933C105.35 179.933 105.037 179.933 104.619 179.828C104.202 179.776 103.836 179.568 103.419 179.307C103.053 179.046 102.74 178.629 102.427 178.159C102.114 177.689 101.957 177.011 101.905 176.124L100.13 144.301C99.9731 141.536 101.278 140.023 104.097 139.866L113.651 139.345C115.53 139.24 117.305 139.345 119.08 139.606C120.855 139.919 122.421 140.44 123.831 141.275C125.24 142.11 126.389 143.205 127.276 144.614C128.164 146.022 128.686 147.744 128.79 149.831C128.947 152.7 128.268 155.048 126.754 156.978C125.24 158.856 123.1 160.213 120.333 160.995L129.312 172.733C129.626 173.151 129.887 173.568 130.043 173.985C130.2 174.403 130.304 174.768 130.304 175.081C130.356 176.072 130.095 176.855 129.469 177.585C128.843 178.263 128.059 178.629 127.015 178.681C126.546 178.681 126.023 178.629 125.449 178.368C124.875 178.159 124.353 177.637 123.831 176.959L113.285 162.195V162.299ZM107.804 156.822L113.546 156.509C114.538 156.456 115.53 156.3 116.522 156.091C117.514 155.882 118.402 155.569 119.185 155.1C119.968 154.63 120.594 154.004 121.064 153.222C121.534 152.439 121.743 151.448 121.69 150.248C121.638 149.153 121.325 148.318 120.803 147.64C120.281 146.961 119.654 146.44 118.871 146.075C118.088 145.709 117.253 145.501 116.261 145.396C115.321 145.292 114.382 145.292 113.494 145.344L107.125 145.709L107.752 156.822H107.804Z" fill="#007167"/>
<path d="M147.686 178.367C144.919 178.21 143.614 176.698 143.77 173.933L145.754 142.839C145.911 140.074 147.425 138.77 150.192 138.927L160.006 139.553C162.564 139.709 165.122 140.231 167.68 141.066C170.238 141.9 172.535 143.152 174.519 144.822C176.503 146.491 178.069 148.63 179.218 151.239C180.366 153.847 180.836 156.977 180.575 160.681C180.366 164.125 179.531 167.046 178.069 169.498C176.607 171.898 174.78 173.828 172.588 175.289C170.395 176.75 167.994 177.793 165.331 178.367C162.669 178.941 160.058 179.202 157.5 178.993L147.686 178.367ZM150.922 172.42L156.769 172.785C158.597 172.889 160.424 172.785 162.251 172.472C164.078 172.159 165.801 171.533 167.315 170.594C168.829 169.655 170.134 168.35 171.178 166.681C172.222 165.012 172.796 162.82 173.005 160.16C173.162 157.343 172.849 154.995 172.066 153.169C171.23 151.343 170.134 149.882 168.724 148.735C167.315 147.639 165.697 146.856 163.922 146.387C162.147 145.917 160.319 145.604 158.492 145.5L152.645 145.135L150.922 172.42Z" fill="#007167"/>
<path d="M202.604 166.577L200.568 177.533L217.534 180.715C218.265 180.871 218.839 181.08 219.205 181.393C219.622 181.706 219.883 182.019 220.092 182.436C220.249 182.802 220.353 183.167 220.353 183.532C220.353 183.897 220.353 184.21 220.301 184.471C220.301 184.732 220.145 185.045 220.04 185.358C219.883 185.671 219.675 185.984 219.361 186.297C219.048 186.558 218.683 186.767 218.213 186.923C217.743 187.08 217.117 187.08 216.386 186.923L196.6 183.219C193.833 182.697 192.737 181.08 193.259 178.315L199.001 147.691C199.523 144.926 201.142 143.831 203.909 144.353L222.65 147.848C223.381 148.004 223.955 148.213 224.373 148.526C224.791 148.839 225.104 149.152 225.261 149.517C225.417 149.883 225.522 150.248 225.522 150.613C225.522 150.978 225.522 151.291 225.522 151.5C225.522 151.709 225.365 152.022 225.261 152.335C225.104 152.648 224.895 152.961 224.582 153.274C224.269 153.587 223.903 153.795 223.381 153.9C222.859 154.056 222.285 154.056 221.554 153.9L205.631 150.926L203.804 160.786L218.839 163.603C219.57 163.76 220.145 163.968 220.51 164.281C220.928 164.594 221.189 164.907 221.345 165.273C221.502 165.638 221.606 165.951 221.606 166.316C221.606 166.681 221.606 166.942 221.606 167.151C221.606 167.359 221.502 167.62 221.345 167.933C221.189 168.246 220.98 168.559 220.719 168.82C220.458 169.081 220.04 169.29 219.57 169.446C219.1 169.603 218.474 169.603 217.743 169.446L202.708 166.629L202.604 166.577Z" fill="#007167"/>
<path d="M247.866 166.263H247.762L239.618 189.479C239.357 190.314 238.991 190.887 238.574 191.253C238.156 191.618 237.738 191.931 237.321 192.087C236.903 192.244 236.485 192.296 236.068 192.244C235.65 192.244 235.285 192.14 235.024 192.035C234.763 191.931 234.397 191.774 234.084 191.566C233.719 191.357 233.405 191.044 233.196 190.627C232.935 190.209 232.779 189.74 232.727 189.166C232.622 188.592 232.727 187.914 233.04 187.131L243.429 157.447C243.794 156.403 244.212 155.673 244.786 155.151C245.308 154.629 245.882 154.264 246.457 154.056C247.031 153.847 247.553 153.795 248.075 153.847C248.597 153.847 249.015 153.951 249.328 154.056C250.059 154.316 250.737 154.786 251.312 155.412C251.886 156.09 252.408 157.186 252.878 158.699L261.857 188.644H261.961L270.105 165.481C270.366 164.698 270.732 164.124 271.15 163.707C271.567 163.29 271.985 163.029 272.402 162.872C272.82 162.716 273.238 162.664 273.655 162.716C274.073 162.716 274.438 162.82 274.7 162.924C274.961 163.029 275.326 163.185 275.639 163.394C276.005 163.603 276.266 163.916 276.527 164.333C276.736 164.75 276.892 165.22 276.997 165.794C277.049 166.368 276.997 167.046 276.683 167.828L266.294 197.513C265.929 198.556 265.511 199.287 264.937 199.808C264.415 200.33 263.841 200.695 263.267 200.904C262.692 201.113 262.17 201.165 261.648 201.113C261.126 201.113 260.709 201.008 260.395 200.904C259.612 200.643 258.934 200.174 258.412 199.548C257.837 198.869 257.315 197.774 256.845 196.261L247.866 166.263Z" fill="#007167"/>
<g style="mix-blend-mode:multiply">
<path d="M40.4577 237.057C40.9275 237.266 41.3974 237.37 41.9194 237.37C42.3893 237.37 42.8591 237.37 43.329 237.161C43.6422 237.057 43.9554 236.9 44.2165 236.692C44.5297 236.483 44.7385 236.274 44.9473 236.013C45.1561 235.753 45.2606 235.44 45.3128 235.127C45.365 234.814 45.3128 234.448 45.2084 234.031C45.0517 233.666 44.8951 233.353 44.5819 233.144C44.3209 232.935 44.0076 232.831 43.6422 232.727C43.2768 232.675 42.8591 232.622 42.3893 232.622C41.9194 232.622 41.4496 232.622 40.9275 232.622C40.4577 232.622 39.9356 232.622 39.4136 232.622C38.8915 232.622 38.4217 232.466 37.9518 232.257C37.482 232.049 37.0644 231.788 36.6989 231.37C36.3335 231.005 36.0203 230.431 35.7592 229.753C35.4982 229.023 35.446 228.292 35.5504 227.666C35.6548 227.04 35.9159 226.414 36.2813 225.893C36.6467 225.371 37.1166 224.901 37.743 224.484C38.3173 224.067 38.9437 223.754 39.6224 223.545C40.1967 223.336 40.8231 223.232 41.4496 223.18C42.076 223.18 42.6503 223.18 43.1724 223.388C43.4856 223.493 43.7466 223.597 43.9032 223.754C44.0598 223.91 44.1643 224.067 44.2165 224.223C44.3209 224.536 44.3209 224.849 44.2165 225.162C44.0598 225.475 43.851 225.684 43.5378 225.788C43.4334 225.788 43.329 225.84 43.1724 225.84C43.0157 225.84 42.8069 225.84 42.5459 225.736C42.076 225.632 41.6584 225.527 41.293 225.58C40.9275 225.58 40.6143 225.684 40.3533 225.736C40.0401 225.84 39.779 225.997 39.4658 226.153C39.2048 226.362 38.9437 226.571 38.7349 226.779C38.5261 227.04 38.4217 227.301 38.3695 227.614C38.3173 227.927 38.3695 228.24 38.4739 228.605C38.5783 228.918 38.7871 229.179 38.9959 229.388C39.2048 229.597 39.4658 229.701 39.779 229.805C40.0923 229.91 40.4055 229.91 40.8231 229.91C41.1886 229.91 41.6584 229.91 42.0761 229.91C42.5981 229.91 43.1724 229.91 43.7466 229.91C44.3209 229.91 44.8951 230.014 45.4172 230.17C45.9392 230.327 46.4613 230.64 46.8789 231.005C47.2966 231.37 47.662 231.944 47.923 232.675C48.184 233.457 48.2884 234.188 48.2362 234.918C48.1318 235.596 47.923 236.222 47.6098 236.796C47.2443 237.37 46.7745 237.839 46.2002 238.257C45.626 238.674 44.9473 239.039 44.2687 239.248C43.4856 239.509 42.7547 239.665 41.9194 239.718C41.1364 239.718 40.4055 239.665 39.7268 239.352C39.4136 239.248 39.2048 239.091 39.0482 238.935C38.8915 238.778 38.7871 238.622 38.7349 238.465C38.6305 238.152 38.6305 237.787 38.7349 237.474C38.8915 237.161 39.1526 236.9 39.4658 236.796C39.6224 236.796 39.779 236.744 39.9356 236.744C40.0923 236.744 40.3011 236.744 40.5621 236.848L40.4577 237.057Z" fill="#221E1F"/>
</g>
<g style="mix-blend-mode:multiply">
<path d="M62.0678 229.593L55.1767 231.576L54.8113 234.497C54.8113 234.967 54.6546 235.28 54.4458 235.489C54.237 235.697 54.0282 235.802 53.7672 235.906C53.4017 236.01 53.0363 235.958 52.7231 235.802C52.4098 235.645 52.201 235.384 52.0444 234.967C52.0444 234.863 51.9922 234.706 51.9922 234.602C51.9922 234.497 51.9922 234.341 51.9922 234.132L53.976 220.568C53.976 220.255 54.0804 219.994 54.1848 219.786C54.2892 219.577 54.3936 219.42 54.498 219.264C54.6024 219.16 54.7591 219.055 54.8635 218.951C55.0201 218.899 55.1245 218.847 55.2289 218.794C55.3333 218.794 55.4899 218.742 55.6465 218.742C55.8032 218.742 55.9598 218.742 56.1164 218.742C56.273 218.742 56.4818 218.847 56.6384 219.003C56.8473 219.107 57.0561 219.316 57.2127 219.577L65.9831 230.011C65.9831 230.011 66.192 230.272 66.2442 230.428C66.2964 230.533 66.3486 230.637 66.3486 230.741C66.453 231.159 66.453 231.576 66.2442 231.889C66.0353 232.202 65.7743 232.411 65.3567 232.515C65.1479 232.567 64.8868 232.567 64.5736 232.515C64.3126 232.463 63.9993 232.254 63.6861 231.837L61.8589 229.541L62.0678 229.593ZM55.4899 229.02L60.5016 227.611L56.3252 222.29L55.4899 229.02Z" fill="#221E1F"/>
</g>
<g style="mix-blend-mode:multiply">
<path d="M67.6563 217.232C67.6041 216.919 67.6041 216.658 67.6563 216.45C67.7085 216.241 67.813 216.032 67.9174 215.876C68.0218 215.719 68.1784 215.615 68.335 215.563C68.4916 215.511 68.596 215.458 68.7526 215.406C68.8571 215.406 69.0137 215.406 69.1703 215.406C69.3269 215.406 69.4835 215.406 69.6401 215.511C69.7967 215.615 69.9534 215.719 70.11 215.928C70.2666 216.084 70.371 216.345 70.4232 216.658L72.9813 228.136L78.3584 226.936C78.6194 226.884 78.8804 226.884 79.0892 226.936C79.2981 226.936 79.4547 227.04 79.5591 227.144C79.6635 227.249 79.7679 227.353 79.8201 227.51C79.8723 227.614 79.9245 227.77 79.9245 227.875C79.9245 227.979 79.9245 228.083 79.9245 228.24C79.9245 228.397 79.9245 228.553 79.8201 228.657C79.7679 228.814 79.6635 228.918 79.5069 229.075C79.3503 229.179 79.1415 229.283 78.8282 229.336L72.3548 230.744C71.2585 231.005 70.632 230.535 70.371 229.492L67.6563 217.232Z" fill="#221E1F"/>
</g>
<g style="mix-blend-mode:multiply">
<path d="M92.6079 223.332L85.5602 224.427L84.8816 227.297C84.7772 227.766 84.6205 228.079 84.3595 228.236C84.1507 228.392 83.8897 228.497 83.6809 228.549C83.3154 228.601 82.95 228.549 82.6368 228.34C82.3235 228.131 82.1669 227.818 82.0625 227.401C82.0625 227.297 82.0625 227.14 82.0625 227.036C82.0625 226.931 82.0625 226.775 82.1669 226.566L85.7691 213.367C85.8735 213.054 85.9779 212.793 86.0823 212.585C86.1867 212.376 86.3433 212.22 86.4477 212.115C86.5521 212.011 86.7087 211.907 86.8654 211.854C87.022 211.854 87.1264 211.75 87.283 211.75C87.3874 211.75 87.544 211.75 87.7006 211.75C87.8573 211.75 88.0139 211.75 88.1705 211.854C88.3271 211.907 88.4837 212.011 88.6925 212.167C88.8492 212.324 89.058 212.533 89.2146 212.793L96.6799 224.219C96.6799 224.219 96.8365 224.532 96.8887 224.636C96.8887 224.74 96.9409 224.845 96.9931 224.949C97.0453 225.418 96.9931 225.784 96.7321 226.045C96.4711 226.358 96.1579 226.514 95.7924 226.566C95.5314 226.566 95.3226 226.566 95.0094 226.462C94.7483 226.358 94.4873 226.097 94.2263 225.679L92.7123 223.227L92.6079 223.332ZM86.1345 221.923L91.2506 221.088L87.7006 215.298L86.0823 221.871L86.1345 221.923Z" fill="#221E1F"/>
</g>
<g style="mix-blend-mode:multiply">
<path d="M102.634 225.629C101.538 225.734 100.964 225.212 100.859 224.116L99.7631 211.857C99.6587 210.761 100.181 210.187 101.277 210.083L105.14 209.77C106.132 209.665 107.176 209.77 108.22 209.874C109.264 210.031 110.204 210.396 111.092 210.918C111.979 211.439 112.71 212.17 113.284 213.109C113.858 214.048 114.224 215.248 114.38 216.708C114.485 218.065 114.38 219.265 113.911 220.308C113.493 221.351 112.867 222.186 112.136 222.917C111.353 223.595 110.517 224.169 109.473 224.534C108.481 224.899 107.489 225.16 106.445 225.264L102.582 225.629H102.634ZM103.574 223.125L105.871 222.917C106.602 222.864 107.281 222.708 108.011 222.499C108.69 222.238 109.317 221.925 109.891 221.456C110.413 220.986 110.883 220.412 111.144 219.682C111.457 218.952 111.561 218.065 111.457 217.021C111.353 215.926 111.092 215.039 110.674 214.361C110.256 213.683 109.734 213.161 109.108 212.848C108.481 212.483 107.803 212.274 107.072 212.222C106.341 212.117 105.61 212.117 104.879 212.222L102.582 212.43L103.522 223.177L103.574 223.125Z" fill="#221E1F"/>
</g>
<g style="mix-blend-mode:multiply">
<path d="M186.317 227.823C186.317 227.823 186.056 228.136 185.899 228.24C185.743 228.344 185.586 228.396 185.43 228.396C185.273 228.396 185.116 228.396 185.064 228.396C184.96 228.396 184.803 228.396 184.646 228.292C184.49 228.24 184.385 228.136 184.229 228.031C184.124 227.927 184.02 227.718 183.916 227.51C183.863 227.301 183.811 227.04 183.916 226.675L185.116 217.858L179.844 226.362C179.53 226.884 179.217 227.197 178.904 227.301C178.591 227.405 178.33 227.457 178.069 227.405C177.808 227.405 177.547 227.249 177.286 227.04C177.025 226.831 176.816 226.466 176.607 225.892L173.892 216.293H173.84L172.639 225.162C172.639 225.475 172.535 225.736 172.378 225.892C172.274 226.101 172.117 226.205 171.961 226.31C171.804 226.414 171.647 226.466 171.491 226.466C171.334 226.466 171.178 226.466 171.125 226.466C171.021 226.466 170.864 226.466 170.76 226.362C170.603 226.31 170.499 226.205 170.342 226.101C170.238 225.997 170.133 225.84 170.029 225.631C169.977 225.423 169.925 225.162 170.029 224.849L171.752 212.38C171.804 211.963 171.908 211.65 172.065 211.441C172.222 211.233 172.378 211.024 172.587 210.92C172.796 210.815 173.005 210.763 173.214 210.711C173.422 210.711 173.579 210.711 173.736 210.711C173.84 210.711 173.997 210.763 174.153 210.815C174.31 210.867 174.466 210.972 174.623 211.076C174.78 211.233 174.936 211.389 175.041 211.65C175.197 211.859 175.302 212.172 175.406 212.589L178.591 224.014L184.751 213.893C184.96 213.528 185.168 213.267 185.377 213.111C185.586 212.902 185.743 212.798 185.952 212.693C186.108 212.589 186.317 212.537 186.474 212.537C186.63 212.537 186.787 212.537 186.891 212.537C187.048 212.537 187.205 212.589 187.413 212.693C187.622 212.746 187.779 212.902 187.935 213.059C188.092 213.215 188.196 213.424 188.301 213.685C188.405 213.945 188.405 214.311 188.301 214.676L186.578 227.092C186.578 227.405 186.421 227.666 186.317 227.875V227.823Z" fill="#221E1F"/>
</g>
<g style="mix-blend-mode:multiply">
<path d="M195.819 223.233L194.931 227.563L201.613 228.92C201.927 228.972 202.135 229.076 202.292 229.18C202.449 229.285 202.553 229.441 202.605 229.598C202.657 229.754 202.71 229.911 202.71 230.015C202.71 230.119 202.71 230.276 202.71 230.38C202.71 230.485 202.657 230.589 202.605 230.745C202.553 230.902 202.449 231.006 202.344 231.111C202.24 231.215 202.083 231.319 201.874 231.372C201.665 231.372 201.457 231.372 201.143 231.372L193.365 229.806C192.269 229.598 191.851 228.92 192.06 227.876L194.513 215.825C194.722 214.729 195.401 214.312 196.445 214.521L203.806 216.034C204.067 216.086 204.328 216.19 204.485 216.294C204.641 216.399 204.746 216.555 204.85 216.712C204.902 216.868 204.954 217.025 204.954 217.129C204.954 217.286 204.954 217.39 204.954 217.494C204.954 217.599 204.902 217.703 204.85 217.807C204.798 217.912 204.693 218.068 204.589 218.173C204.485 218.277 204.328 218.381 204.119 218.433C203.91 218.433 203.701 218.433 203.388 218.433L197.124 217.129L196.341 220.99L202.24 222.19C202.501 222.242 202.762 222.346 202.918 222.45C203.075 222.555 203.179 222.711 203.232 222.868C203.284 223.024 203.336 223.129 203.336 223.285C203.336 223.442 203.336 223.546 203.336 223.598C203.336 223.703 203.284 223.807 203.232 223.911C203.179 224.016 203.075 224.172 202.971 224.276C202.866 224.381 202.71 224.433 202.501 224.485C202.292 224.537 202.083 224.485 201.77 224.485L195.871 223.285L195.819 223.233Z" fill="#221E1F"/>
</g>
<g style="mix-blend-mode:multiply">
<path d="M217.016 231.732L210.125 229.854L208.35 232.15C208.089 232.515 207.776 232.723 207.515 232.828C207.254 232.88 206.993 232.88 206.732 232.828C206.366 232.723 206.105 232.515 205.896 232.202C205.687 231.889 205.635 231.524 205.74 231.106C205.74 231.002 205.792 230.897 205.896 230.793C205.949 230.689 206.053 230.532 206.157 230.376L214.876 219.785C214.876 219.785 215.293 219.368 215.45 219.211C215.659 219.055 215.815 219.003 215.972 218.951C216.129 218.951 216.285 218.898 216.442 218.898C216.598 218.898 216.703 218.898 216.859 218.951C216.964 218.951 217.12 219.055 217.277 219.107C217.434 219.159 217.538 219.264 217.642 219.42C217.747 219.524 217.903 219.733 217.956 219.942C218.06 220.151 218.112 220.411 218.165 220.724L220.305 234.184C220.305 234.184 220.305 234.549 220.305 234.654C220.305 234.81 220.305 234.915 220.253 234.967C220.148 235.384 219.887 235.697 219.574 235.854C219.209 236.01 218.895 236.062 218.53 235.958C218.321 235.906 218.06 235.749 217.851 235.593C217.642 235.384 217.486 235.071 217.434 234.549L217.068 231.68L217.016 231.732ZM211.691 227.819L216.703 229.176L215.867 222.446L211.691 227.819Z" fill="#221E1F"/>
</g>
<g style="mix-blend-mode:multiply">
<path d="M228.292 224.008C228.396 223.695 228.553 223.486 228.71 223.33C228.866 223.173 229.023 223.069 229.232 222.964C229.388 222.912 229.545 222.86 229.754 222.912C229.91 222.912 230.067 222.912 230.171 223.017C230.276 223.017 230.432 223.121 230.537 223.225C230.693 223.33 230.798 223.434 230.902 223.59C231.007 223.747 231.059 223.956 231.111 224.164C231.111 224.373 231.111 224.686 231.007 224.947L227.196 236.059L232.364 237.833C232.625 237.937 232.834 238.041 232.99 238.198C233.147 238.354 233.199 238.511 233.251 238.668C233.251 238.824 233.304 238.981 233.251 239.137C233.251 239.294 233.251 239.398 233.199 239.502C233.199 239.607 233.095 239.711 233.043 239.815C232.99 239.92 232.886 240.024 232.729 240.128C232.573 240.233 232.416 240.285 232.26 240.285C232.051 240.285 231.842 240.285 231.581 240.18L225.316 238.041C224.272 237.676 223.959 236.998 224.272 235.955L228.344 224.06L228.292 224.008Z" fill="#221E1F"/>
</g>
<g style="mix-blend-mode:multiply">
<path d="M139.124 205.96L139.751 205.491C139.751 205.491 140.168 205.073 140.273 204.813L140.429 203.769L140.273 203.508C140.273 203.508 140.168 203.248 140.116 203.039V202.778L139.751 202.517C139.751 202.309 139.594 202.1 139.438 201.995L139.072 201.735L138.707 201.839C138.707 201.839 138.707 201.839 138.654 201.839C138.654 201.839 138.55 201.839 138.498 201.787L138.028 201.682H137.871C137.871 201.682 137.402 201.682 137.141 201.787L136.566 201.578L136.253 201.891L135.313 202.152L135.157 202.361L135 202.569H134.844L134.635 202.882C134.478 203.091 134.321 203.3 134.165 203.508C133.956 203.613 133.695 203.821 133.643 204.134C133.486 204.291 133.382 204.447 133.382 204.656V204.813C133.382 204.813 133.069 205.074 133.016 205.178L132.755 205.595C132.755 205.595 132.494 206.013 132.442 206.169V206.273C132.442 206.273 132.285 206.482 132.129 206.639L131.972 206.795V207.056L131.502 207.995L131.137 208.36V208.621C131.137 208.621 130.876 208.83 130.824 208.882L130.563 209.299L130.667 209.456C130.667 209.456 130.563 209.664 130.511 209.717L130.197 210.447C130.197 210.447 130.093 210.447 130.041 210.447H129.414L128.683 210.603H127.744H127.378H127.169C126.856 210.395 126.647 210.395 126.491 210.395C126.125 210.395 125.76 210.603 125.603 210.917L125.29 211.438V211.647C125.29 211.647 125.29 212.377 125.655 212.69C125.812 212.847 126.021 212.951 126.386 213.055L126.7 213.212L126.908 213.108H127.117L127.848 213.003L128.266 213.108L128.683 213.003L128.944 213.212L129.101 213.108L128.527 214.777L128.266 215.194L127.952 216.029L127.744 216.499L127.535 217.125C127.535 217.125 127.43 217.542 127.378 217.855L127.065 218.377L126.752 219.212L126.595 219.525C126.595 219.525 126.491 219.785 126.439 219.994L126.23 220.203V220.62C125.969 221.194 125.76 221.507 125.655 221.716C125.342 221.82 125.186 222.081 125.133 222.185V222.342H124.925L124.559 222.185L124.142 222.603L123.672 222.342V222.446L123.411 222.342L122.575 222.029L122.001 222.29L121.897 222.394L121.688 222.603V222.707L121.531 222.863L121.688 223.333V223.698H121.792L121.897 223.907L122.053 224.011C122.053 224.011 122.21 224.168 122.262 224.22L122.628 224.585C122.628 224.585 122.993 224.898 123.254 224.898L123.515 225.002H123.724C123.724 225.002 123.828 225.002 123.88 225.002H123.933H124.664C124.925 224.95 125.133 224.794 125.447 224.637L126.177 224.376L126.595 223.855L126.804 223.698L126.961 223.542C126.961 223.542 127.013 223.333 127.065 223.281H127.274L127.378 222.863C127.43 222.759 127.483 222.655 127.483 222.55C127.587 222.446 127.744 222.342 127.848 222.081C128.057 221.82 128.161 221.559 128.161 221.298V221.194V221.142C128.266 220.985 128.422 220.724 128.527 220.516L128.631 220.203C128.736 219.89 128.892 219.733 128.892 219.525V219.42C128.892 219.42 128.997 219.212 129.101 219.003L129.205 218.794V218.533C129.205 218.533 129.362 218.168 129.414 218.012V217.542L129.832 216.968V216.603L129.988 216.394L130.458 215.194L130.98 214.099V213.682L131.137 213.421L131.241 213.108C131.241 213.108 131.555 212.951 131.763 212.795L132.077 213.003L132.912 212.69C132.912 212.69 133.069 212.69 133.121 212.69H133.33L133.486 212.586V212.69L134.06 212.586C134.321 212.586 134.53 212.482 134.687 212.429L135.313 212.586L136.566 212.221L136.723 211.908C136.827 211.647 136.88 211.543 136.88 211.49L136.984 210.969L136.462 210.343H136.096L135.992 210.134L135.313 210.395L135.052 210.29L134.374 210.395C133.956 210.238 133.852 210.238 133.382 210.395H133.33C133.33 210.395 133.121 210.395 133.016 210.395C132.912 210.395 132.808 210.395 132.755 210.395H132.547C132.547 210.395 132.599 210.238 132.651 210.186L133.069 209.508L133.225 209.038C133.225 209.038 133.538 208.569 133.695 208.152L133.956 207.63C133.956 207.63 134.269 207.212 134.374 207.004L134.635 206.743C134.635 206.743 134.896 206.43 135.157 205.856C135.627 205.282 135.888 204.969 136.044 204.813C136.41 204.813 136.619 204.552 136.671 204.447L136.775 204.343H136.88L137.245 204.552L137.767 204.239L138.028 204.447C138.028 204.447 138.028 204.604 138.028 204.656L138.185 206.221L138.863 205.856L139.02 206.065L139.124 205.96Z" fill="#221E1F"/>
</g>
<g style="mix-blend-mode:multiply">
<path d="M148.416 212.012H148.312V211.804L148.051 211.647C148.051 211.647 147.999 211.595 147.894 211.386L147.529 210.656H146.85C146.85 210.656 146.328 210.499 146.119 210.499H145.65H145.336C144.919 210.343 144.606 210.447 144.344 210.604H143.979L143.822 210.969C143.561 211.386 143.353 211.491 143.196 211.491L142.57 211.647L142.308 212.012C142.308 212.012 142.308 212.064 142.308 212.117L142.047 212.482V213.003C142.047 213.003 141.891 213.108 141.839 213.212L141.212 214.047V214.151L141.108 214.308C140.951 214.464 140.847 214.673 140.795 214.934V215.351C140.795 215.351 140.795 215.403 140.638 215.508L140.481 215.664L140.22 216.394L139.907 216.864C139.907 216.864 139.594 217.334 139.542 217.542C139.281 217.803 139.176 218.064 139.124 218.273C139.124 218.325 139.124 218.481 139.072 218.69C139.072 218.69 139.072 218.794 139.072 218.846L138.863 219.264V219.89L138.602 220.255L138.706 221.194L138.445 221.716L138.759 222.081C138.759 222.081 139.02 222.498 139.072 222.655L139.228 223.177H140.481L141.264 223.542L141.525 223.646L142.1 223.02C142.1 223.02 142.361 222.864 142.517 222.759C142.726 222.759 142.987 222.707 143.248 222.498C143.77 222.394 144.083 222.133 144.24 221.872C144.24 221.872 144.24 221.872 144.344 221.872C144.658 221.768 144.814 221.664 144.971 221.507L145.232 221.194L145.754 220.985L145.858 220.672L146.172 220.516L146.485 219.994L146.85 219.786L146.955 219.577L147.164 219.42L147.268 219.159C147.425 218.899 147.529 218.742 147.581 218.638L148.155 217.803L148.26 217.49C148.26 217.49 148.469 217.177 148.573 217.021V216.812L148.73 216.551L148.834 216.238V216.081L149.043 215.664V214.673V214.36L148.939 213.108L148.469 212.064L148.416 212.012ZM146.642 214.986L146.328 215.351L146.589 215.716L146.224 216.238L146.328 216.603C146.328 216.603 146.328 216.603 146.328 216.655C146.328 216.76 146.328 216.864 146.328 216.916L145.963 217.386L145.597 217.542V217.803L145.493 218.012V218.168C145.493 218.168 145.389 218.325 145.336 218.377L145.18 218.481C145.18 218.481 144.867 218.69 144.71 218.846L144.083 219.368L143.927 219.473L143.457 219.368L143.3 219.786C143.3 219.786 143.248 219.786 143.144 219.89L142.935 220.099H142.674V220.151L142.152 219.994L142.047 220.412H141.63L141.421 220.672H140.847L140.638 220.777H140.534V220.672L140.742 220.099L140.951 219.212V219.107L141.369 218.377V218.064L141.839 217.386V217.229C141.839 217.229 142.204 216.812 142.256 216.603C142.256 216.603 142.256 216.551 142.256 216.499L142.778 216.186V215.716C142.778 215.716 142.778 215.664 142.778 215.455L143.092 215.247L143.405 214.516L143.666 214.36L143.77 214.151L144.344 213.786L144.971 213.264L145.232 212.795C145.023 213.16 145.493 212.795 145.545 212.795H145.65L145.806 212.586L146.015 212.69L146.276 213.369V213.838L146.485 213.89C146.485 213.995 146.589 214.047 146.694 214.151L146.537 214.621V214.829L146.642 214.986Z" fill="#221E1F"/>
</g>
<g style="mix-blend-mode:multiply">
<path d="M165.642 212.486C165.486 212.016 165.016 211.912 164.651 211.808H164.494C164.494 211.808 164.233 211.808 164.129 211.808L163.815 211.703L163.502 211.912C163.241 211.912 162.928 212.016 162.197 212.486L161.101 213.164C161.101 213.164 160.735 213.425 160.631 213.529L160.265 213.634L160.109 213.895C160.109 213.895 160.004 214.051 159.952 214.051L159.326 214.155L159.169 214.573L158.595 214.781V214.99L158.49 215.199L158.073 215.46L158.334 213.79L158.647 212.955L158.49 212.642C158.49 212.642 158.49 212.538 158.49 212.486V211.86L157.551 211.547L157.29 211.651C156.872 211.808 156.507 212.016 156.298 212.225L156.037 212.486V212.799C156.037 212.799 156.037 212.955 156.089 213.06V213.164C155.985 213.477 155.932 213.738 155.985 214.051L155.88 214.521V215.094V215.251L155.776 215.355V215.616V215.877L155.619 216.242V216.816L155.358 217.129L155.462 217.39L155.254 217.964V218.172L155.149 218.381L155.045 218.851L154.94 218.955V219.216C154.94 219.216 154.888 219.372 154.836 219.529V219.685C154.836 219.685 154.523 219.998 154.471 220.155C154.418 220.364 154.418 220.572 154.471 220.729L154.105 221.876V221.981L153.949 222.346V222.607L153.688 223.859L155.88 224.015V223.65L156.246 223.389V223.076L156.611 222.398L156.454 222.085L156.611 221.616C156.611 221.616 156.611 221.459 156.611 221.355L157.029 220.885V220.52C157.29 220.103 157.446 219.894 157.498 219.738L157.968 219.529V219.216V218.851H158.177L158.282 218.433C158.282 218.433 158.334 218.329 158.647 218.068L158.804 217.859L159.169 218.016L159.43 217.286L159.534 217.025H159.691L160.161 216.399V216.503V216.294H160.265L160.787 215.981L160.892 215.825H161.101L161.57 215.251L162.197 214.886C162.197 214.886 162.354 214.781 162.458 214.677L163.241 214.312H163.45L164.181 213.895L165.173 213.79L165.642 212.903V212.59V212.486Z" fill="#221E1F"/>
</g>
</g>
<defs>
<clipPath id="clip0_3162_10096">
<rect width="277" height="547" fill="white"/>
</clipPath>
</defs>
</svg>
