<svg width="360" height="698" viewBox="0 0 360 698" fill="none" xmlns="http://www.w3.org/2000/svg">
<g clip-path="url(#clip0_3164_12168)">
<rect width="360" height="698" fill="white"/>
<g clip-path="url(#clip1_3164_12168)">
<rect width="1337" height="698" transform="translate(-400)" fill="#238600"/>
<g clip-path="url(#clip2_3164_12168)">
<path d="M542.81 856.831H383.076C323.293 822.349 287.03 777.09 257.407 725.192C232.227 681.079 218.736 621.303 183.596 588.808C137.7 546.331 76.0934 560.077 50.3518 616.02C11.2132 701.09 78.4081 800.842 153.856 839.274L189.067 856.854H-7V316.694L5.11097 351.901C40.6022 431.408 122.597 484.264 211.021 464.089C403.113 420.233 327.618 175.214 453.053 71.3479C505.028 28.3099 581.902 16.7848 647.694 23.3305C722.16 30.7412 808.456 77.0052 848.647 140.475L848.46 607.908C815.541 690.898 724.358 736.273 636.939 723.696C527.099 707.87 502.736 607.44 555.973 519.728C599.928 447.304 656.345 392.087 660.81 299.629C664.037 232.839 630.369 138.465 549.029 145.361C465.562 152.444 435.214 263.768 422.612 331.539C399.933 453.616 397.619 607.837 450.739 722.06C473.277 770.521 504.724 819.427 542.857 856.854" fill="#0B391B"/>
<path d="M371.831 0C347.959 31.0687 332.528 72.2364 325.655 110.786C313.567 178.487 327.525 255.212 285.23 314.404C248.64 365.624 180.206 357.465 152.22 297.058C120.212 227.977 155.259 157.471 194.865 98.2321C216.025 66.579 238.025 36.7728 249.809 0L371.831 0Z" fill="#0B391B"/>
</g>
</g>
</g>
<defs>
<clipPath id="clip0_3164_12168">
<rect width="360" height="698" fill="white"/>
</clipPath>
<clipPath id="clip1_3164_12168">
<rect width="1337" height="698" fill="white" transform="translate(-400)"/>
</clipPath>
<clipPath id="clip2_3164_12168">
<rect width="855.624" height="856.831" fill="white" transform="translate(-7)"/>
</clipPath>
</defs>
</svg>
