<svg width="1920" height="1080" viewBox="0 0 1920 1080" fill="none" xmlns="http://www.w3.org/2000/svg">
<g clip-path="url(#clip0_3164_12273)">
<rect width="1920" height="1080" fill="#238600"/>
<g clip-path="url(#clip1_3164_12273)">
<path d="M1263.13 1842H866.237C717.691 1756.32 627.587 1643.87 553.983 1514.91C491.416 1405.3 457.895 1256.78 370.58 1176.04C256.542 1070.49 103.465 1104.65 39.504 1243.65C-57.7449 1455.03 109.217 1702.88 296.685 1798.38L384.174 1842.06H-103V499.904L-72.9074 587.383C15.2789 784.937 219.014 916.271 438.725 866.142C916.023 757.171 728.438 148.363 1040.11 -109.717C1169.25 -216.655 1360.27 -245.292 1523.74 -229.028C1708.77 -210.614 1923.19 -95.6604 2023.06 62.0455L2022.59 1223.49C1940.8 1429.7 1714.23 1542.45 1497.02 1511.2C1224.09 1471.87 1163.56 1222.33 1295.84 1004.39C1405.06 824.436 1545.24 687.235 1556.33 457.501C1564.35 291.547 1480.69 57.05 1278.59 74.1857C1071.19 91.786 995.786 368.396 964.473 536.79C908.122 840.119 902.371 1223.32 1034.36 1507.13C1090.36 1627.54 1168.5 1749.06 1263.25 1842.06" fill="#0B391B"/>
<path d="M838.295 -287C778.982 -209.803 740.64 -107.512 723.56 -11.7263C693.526 156.493 728.208 347.134 623.116 494.21C532.199 621.479 362.159 601.206 292.621 451.11C213.09 279.463 300.173 104.273 398.584 -42.919C451.159 -121.569 505.825 -195.629 535.104 -287L838.295 -287Z" fill="#0B391B"/>
</g>
</g>
<defs>
<clipPath id="clip0_3164_12273">
<rect width="1920" height="1080" fill="white"/>
</clipPath>
<clipPath id="clip1_3164_12273">
<rect width="2126" height="2129" fill="white" transform="translate(-103 -287)"/>
</clipPath>
</defs>
</svg>
