<svg width="1919" height="739" viewBox="0 0 1919 739" fill="none" xmlns="http://www.w3.org/2000/svg">
<path d="M0 53.8551C0 53.8551 28.1473 53.0401 56.7608 61.2192C85.3452 69.3984 117.193 62.0342 118.038 43.26C118.504 32.5776 113.405 19.2755 108.947 9.75741C107.578 6.84668 111.365 3.32467 114.104 5.04201C124.652 11.6203 140.562 20.8473 153.703 25.8538C191.058 40.0291 230.627 33.247 265.768 23.4379C300.908 13.6578 347.587 10.6015 363.934 39.185C375.181 58.8324 361.166 77.5776 351.317 87.3576C349.161 89.4825 350.851 93.3538 353.823 92.7716C367.576 90.0355 392.751 82.9333 417.023 65.2943C452.95 39.185 462.77 33.4799 483.196 32.6649C503.621 31.8499 527.31 52.2542 527.31 52.2542C527.31 52.2542 556.711 12.2606 599.194 13.9198C641.677 15.5498 684.131 52.2542 727.459 39.2141C770.759 26.174 794.448 -9.74453 828.743 2.50967C850.101 10.1358 849.285 25.6791 845.643 36.3033C844.915 38.4573 848.703 41.9502 850.713 40.8441C865.515 32.6649 894.712 20.0905 930.027 22.8848C981.485 26.9599 999.463 56.9986 1024.78 45.5594C1050.1 34.1494 1077.87 14.5601 1111.38 24.3402C1131.95 30.3654 1140.81 42.2121 1144.57 50.4495C1145.07 51.5265 1149.17 51.4391 1149.58 50.304C1153.81 38.0206 1165.49 17.9657 1196.32 20.2652C1240.43 23.5252 1344.17 65.5271 1373.59 46.7529C1390.09 36.2451 1389.88 24.6895 1386.5 16.5685C1386.27 15.9864 1389.59 12.6099 1390.15 12.901C1406.03 21.7497 1438.43 35.2555 1481.38 29.6086C1543.47 21.4295 1606.35 16.5394 1631.7 35.3137C1648.86 48.0336 1645.77 64.4793 1641.98 73.7936C1640.73 76.879 1643 80.2846 1646.24 79.4404C1654.6 77.2574 1670.02 72.0763 1694.58 59.7929C1735.43 39.3887 1737.88 34.4987 1762.38 40.2037C1778.15 43.8712 1788.14 54.641 1793.3 61.8596C1795.45 64.8868 1800.38 65.4398 1803.09 62.9075C1812.5 54.0588 1833.45 38.4573 1862.85 40.2328C1903.7 42.6779 1918.97 50.857 1918.97 50.857V184.867C1918.97 184.867 1893.91 188.127 1867.75 175.902C1843.3 164.463 1837.44 151.598 1818.1 148.629C1815.79 148.279 1813.26 150.026 1812.35 152.151C1807.37 163.619 1788.84 195.462 1742.77 191.416C1697.41 187.429 1687.99 159.457 1686.07 149.356C1685.72 147.493 1683.86 146.154 1682.05 146.678C1674.94 148.716 1658.42 153.955 1644.75 162.018C1626.77 172.642 1572.87 202.827 1524.68 192.202C1476.48 181.578 1512.41 144.874 1498.54 135.094C1484.67 125.314 1434 139.984 1412.76 153.053C1396.64 162.949 1373.51 178.464 1363.25 185.42C1360.16 187.487 1356.08 187.225 1353.14 184.955C1341.19 175.757 1308.56 154.246 1269.81 158.758C1220.8 164.463 1197.92 193.454 1133.38 187.749C1086.32 183.587 1063.8 128.748 1055.03 99.3499C1054.94 99.0297 1051.42 99.5536 1051.42 99.8738C1050.16 120.307 1040.84 151.452 997.773 162.6C931.6 179.744 867.089 159.34 839.291 165.045C822.187 168.567 806.977 177.94 797.77 184.634C795.264 186.468 790.776 183.645 791.242 180.559C793.34 166.966 793.137 145.485 772.274 140.537C741.242 133.202 718.368 153.606 684.889 148.687C663.502 145.543 653.099 135.763 648.379 129.127C646.543 126.536 642.085 125.808 639.871 128.108C626.117 142.458 585.295 179.599 533.779 175.64C470.054 170.75 482.321 149.531 452.105 149.531C421.889 149.531 367.984 207.455 283.017 201.75C198.051 196.045 207.871 147.086 184.181 145.456C160.492 143.826 105.771 183.79 62.4719 182.189C19.1728 180.559 0 166.675 0 166.675V53.8842L0 53.8551ZM0 328.861C0 328.861 50.2048 327.231 90.2404 306.012C130.276 284.793 144.962 266.019 175.178 283.978C197.235 297.076 199.275 316.724 198.779 326.358C198.634 329.153 201.052 331.685 203.82 331.219C212.824 329.676 230.307 326.096 240.796 320.129C276.316 299.929 300.559 301.675 311.281 307.031C333.135 317.946 335.291 332.936 335.291 332.936C335.291 332.936 392.46 289.683 431.68 300.307C470.899 310.931 496.22 332.151 536.256 328.046C570.843 324.524 651.147 283.221 672.359 272.073C674.865 270.734 678.041 272.393 678.799 275.129C681.392 284.327 689.143 301.442 711.055 304.382C741.271 308.457 756.801 301.937 799.285 313.347C841.768 324.757 890.778 335.381 934.077 326.416C977.376 317.451 1008.41 267.678 1052.52 269.308C1096.64 270.938 1121.14 290.527 1125.22 304.382C1129.3 318.237 1126.85 336.197 1126.85 336.197C1126.85 336.197 1157.89 288.868 1188.13 296.203C1218.35 303.538 1227.35 331.277 1227.35 331.277C1227.35 331.277 1241.22 312.503 1273.91 289.654C1306.61 266.805 1315.58 268.435 1361.33 264.36C1392.16 261.623 1413.31 245.527 1423.86 235.339C1425.46 233.768 1429.77 235.893 1429.54 238.134C1427.5 257.839 1430.33 297.775 1483.04 311.717C1554.1 330.492 1591.66 248.059 1630.07 254.609C1668.47 261.129 1657.84 311.717 1657.84 311.717C1657.84 311.717 1683.16 287.471 1719.11 292.128C1752.59 296.494 1759.15 315.792 1759.15 315.792C1759.15 315.792 1776.31 318.237 1824.51 294.573C1872.7 270.909 1919 293.758 1919 293.758V460.427C1919 460.427 1882.49 469.392 1841.64 458.797C1812.53 451.229 1795.05 433.328 1787.41 423.664C1785.14 420.783 1780.19 420.521 1777.42 422.936C1769.55 429.777 1752.74 439.935 1724.04 436.762C1672.03 431.057 1642.36 404.133 1617.01 409.023C1591.69 413.913 1576.16 447.358 1501.83 443.283C1427.5 439.207 1416.89 384.515 1388.28 382.885C1389.1 382.885 1367.04 429.398 1313.95 429.398C1260.86 429.398 1237.99 376.976 1183.27 383.525C1133.38 389.463 1130.32 441.507 1109.75 458.709C1107.27 460.776 1103.84 458.244 1103.63 455.013C1102.79 441.245 1093 413.069 1028.83 406.345C943.052 397.38 953.687 441.42 906.309 440.634C876.122 440.11 866.156 419.385 862.922 404.395C862.427 402.096 856.482 401.193 855.434 403.289C845.002 424.275 820.002 461.475 773.177 462.639C707.82 464.269 680.052 418.57 618.804 421.015C572.591 422.849 538.004 462.319 523.814 481.588C521.949 484.12 515.014 482.723 513.616 479.9C509.74 471.953 501.028 461.504 481.593 452.859C444.85 436.53 431.767 443.894 408.078 420.229C396.131 408.295 391.032 395.546 388.934 385.825C388.672 384.602 381.446 383.292 380.805 384.369C376.696 391.006 370.286 399.068 360.554 406.927C338.525 424.683 305.366 434.23 279.026 429.224C239.514 421.714 216.146 381.895 216.146 381.895C216.146 381.895 198.168 434.929 126.284 443.923C76.5164 450.123 58.072 435.627 51.4286 426.109C51.0789 425.585 47.6406 426.342 47.5532 426.953C46.6791 434.725 43.8236 446.048 34.7616 452.102C20.0469 461.882 0.058276 449.657 0.058276 449.657V328.832L0 328.861ZM0 561.255C0 561.255 26.2533 541.665 50.2048 546.032C68.5034 549.35 89.3371 577.7 98.1659 590.915C99.7103 593.214 103.731 592.574 104.635 589.955C109.821 575.168 125.964 545.013 169.991 554.152C227.714 566.116 223.372 583.522 256.036 582.445C288.699 581.368 327.919 550.892 366.032 560.673C393.421 567.716 400.036 605.09 401.551 625.582C401.726 627.881 406.242 628.725 407.233 626.659C416.673 607.244 439.11 571.85 477.106 572.636C529.379 573.713 583.838 588.965 615.424 576.973C647.009 565.01 685.122 545.42 724.342 555.2C763.561 564.98 764.64 584.57 831.074 571.53C872.508 563.379 886.407 547.225 891.011 536.193C891.244 535.611 896.489 535.262 896.81 535.844C904.181 548.942 926.414 566.872 993.373 549.786C1091.39 524.754 1102.29 594.408 1102.29 594.408C1102.29 594.408 1129.51 561.779 1179.62 575.896C1212 585.035 1220.27 605.993 1222.08 619.673C1222.16 620.313 1226.39 621.07 1226.65 620.459C1233.41 605.964 1248.48 583.813 1276.57 586.753C1317.42 591.061 1377.38 599.589 1393.58 542.247C1393.96 540.938 1394.95 540.559 1395.77 541.665C1401.19 549.146 1419.66 578.195 1460.63 563.903C1507.45 547.574 1599.04 507.377 1631.67 543.383C1648.72 562.215 1635.98 579.359 1625.43 588.761C1623.07 590.886 1624.76 595.339 1627.88 594.874C1645.28 592.254 1677.53 585.356 1704.57 568.066C1743.79 543.033 1768.85 525.627 1810.23 540.879C1835.69 550.252 1846.33 562.099 1850.73 569.841C1852.42 572.81 1857.49 574.149 1859.97 571.821C1868.56 563.671 1884.24 550.019 1894.09 548.506C1908.25 546.323 1918.88 548.506 1918.88 548.506V685.98C1918.88 685.98 1896.27 705.569 1848.34 701.203C1815.39 698.205 1794.29 675.676 1784.32 661.879C1782.46 659.317 1776.63 660.627 1775.93 663.713C1772.87 677.422 1764.01 698.03 1738.34 702.28C1699.12 708.8 1695.86 672.911 1646.85 677.277C1597.84 681.643 1549.91 699.922 1499.82 691.219C1465.9 685.339 1451.48 655.388 1445.71 636.614C1444.75 633.441 1438.37 633.121 1437.17 636.206C1428.81 657.949 1409.38 696.517 1374.59 704.259C1325.58 715.145 1299.44 689.007 1276.57 694.45C1259.78 698.438 1250.05 723.528 1246.03 736.597C1245.21 739.275 1241.08 739.857 1239.44 737.616C1230.41 725.129 1207.13 699.631 1165.46 695.556C1109.92 690.113 1100.11 721.665 1038.04 717.328C975.978 712.991 966.158 652.04 966.158 652.04C966.158 652.04 949.812 685.776 913.884 685.776C877.957 685.776 838.737 640.077 838.737 640.077C838.737 640.077 869.245 699.224 804.967 710.11C740.717 720.996 733.083 681.817 679.702 680.74C640.337 679.925 609.276 714.65 595.668 732.93C593.774 735.491 588.092 733.803 587.655 730.63C585.266 712.991 574.776 683.797 531.565 682.923C478.184 681.846 479.291 720.996 401.959 722.073C324.801 723.15 321.392 645.87 283.513 639.03C283.338 639.03 283.192 639.03 283.221 639.233C283.338 643.483 298.14 705.016 226.635 724.955C152.567 745.621 111.191 687.959 111.191 687.959C111.191 687.959 88.3173 712.497 57.8098 720.123C27.3606 727.72 0 715.727 0 715.727V561.226V561.255Z" fill="#3D1909"/>
</svg>
