<svg width="564" height="296" viewBox="0 0 564 296" fill="none" xmlns="http://www.w3.org/2000/svg">
<path opacity="0.3" d="M0 9.5095C0 9.5095 7.71594 3.76219 14.7553 5.04316C20.1334 6.0167 26.2565 14.326 28.8513 18.203C29.3051 18.8777 30.4869 18.6898 30.7524 17.9212C32.2768 13.583 37.0211 4.73573 49.9609 7.41723C66.9257 10.9271 65.6497 16.0339 75.2497 15.718C84.8496 15.402 96.3764 6.46077 107.578 9.33016C115.628 11.3968 117.572 22.3705 118.017 28.374C118.068 29.0486 119.396 29.2963 119.687 28.69C122.462 22.9939 129.056 12.6095 140.223 12.84C155.586 13.156 171.592 17.6309 180.875 14.121C190.158 10.6111 201.359 4.86382 212.886 7.73321C224.413 10.6026 224.73 16.3499 244.255 12.5241C256.433 10.1414 260.518 5.39329 261.871 2.1567C261.939 1.9859 263.481 1.88342 263.575 2.05422C265.742 5.89714 272.276 11.1577 291.955 6.1448C320.764 -1.19946 323.967 19.2278 323.967 19.2278C323.967 19.2278 331.965 9.65467 346.695 13.7965C356.209 16.478 358.641 22.6267 359.172 26.6404C359.198 26.8283 360.44 27.0503 360.517 26.8795C362.504 22.6267 366.931 16.1279 375.186 16.9904C387.193 18.2543 404.817 20.7565 409.578 3.93298C409.69 3.54869 409.981 3.43767 410.221 3.76219C411.814 5.95692 417.243 14.4797 429.284 10.2866C443.046 5.49577 469.961 -6.29774 479.553 4.26604C484.563 9.79131 480.82 14.8127 477.72 17.5796C477.027 18.1945 477.523 19.5096 478.44 19.373C483.552 18.6044 493.032 16.5805 500.979 11.5078C512.506 4.16356 519.871 -0.943264 532.031 3.53161C539.516 6.28144 542.642 9.75715 543.935 12.0287C544.432 12.8998 545.922 13.2926 546.65 12.6095C549.176 10.2183 553.783 6.21312 556.678 5.76905C560.84 5.12856 563.966 5.76905 563.966 5.76905V46.1027C563.966 46.1027 557.32 51.85 543.233 50.569C533.547 49.6894 527.347 43.0796 524.418 39.0317C523.87 38.2802 522.157 38.6645 521.952 39.5697C521.053 43.592 518.449 49.6296 510.905 50.885C499.378 52.7979 498.419 42.2683 484.015 43.5493C469.61 44.8217 455.523 50.1933 440.802 47.6399C430.834 45.9148 426.595 37.1273 424.899 31.6191C424.616 30.6883 422.741 30.5943 422.39 31.4996C419.932 37.8788 414.22 49.1941 403.995 51.4657C389.591 54.6596 381.909 46.9994 375.186 48.5963C370.254 49.7663 367.393 57.1276 366.212 60.962C365.972 61.7477 364.756 61.9185 364.276 61.2609C361.621 57.5973 354.779 50.1164 342.533 48.9208C326.21 47.3239 323.324 56.5811 305.084 55.3086C286.843 54.0362 283.957 36.1538 283.957 36.1538C283.957 36.1538 279.153 46.0515 268.593 46.0515C258.034 46.0515 246.508 32.6439 246.508 32.6439C246.508 32.6439 255.474 49.9969 236.582 53.1822C217.699 56.3761 215.455 44.8815 199.767 44.5655C188.197 44.3349 179.068 54.5144 175.069 59.8774C174.512 60.629 172.842 60.1336 172.714 59.2028C172.011 54.0191 168.929 45.4622 156.228 45.206C140.54 44.89 140.865 56.3761 118.137 56.7006C95.4601 57.0166 94.4582 34.3433 83.3253 32.3365C83.2739 32.3279 83.2311 32.3365 83.2396 32.3877C83.2739 33.6345 87.6243 51.6877 66.6088 57.5375C44.8398 63.6008 32.6793 46.6834 32.6793 46.6834C32.6793 46.6834 25.9567 53.8825 16.9905 56.1199C8.04136 58.3488 0 54.8389 0 54.8389V9.5095ZM0 94.9847C0 94.9847 8.27258 94.7456 16.6822 97.1453C25.0832 99.545 34.4434 97.3844 34.6917 91.8762C34.8288 88.7421 33.3301 84.8394 32.0199 82.0469C31.6174 81.1929 32.7306 80.1596 33.5356 80.6634C36.6357 82.5934 41.3115 85.3005 45.1738 86.7694C56.1525 90.9283 67.7821 88.9385 78.11 86.0606C88.4378 83.1912 102.157 82.2945 106.961 90.6806C110.267 96.445 106.148 101.945 103.253 104.814C102.619 105.437 103.116 106.573 103.99 106.402C108.032 105.6 115.431 103.516 122.564 98.3409C133.123 90.6806 136.009 89.0068 142.013 88.7677C148.016 88.5286 154.978 94.515 154.978 94.515C154.978 94.515 163.619 82.7813 176.105 83.2681C188.591 83.7463 201.068 94.515 213.803 90.6892C226.528 86.8633 233.491 76.3252 243.57 79.9204C249.847 82.1579 249.608 86.7181 248.537 89.8352C248.323 90.4671 249.436 91.4919 250.027 91.1674C254.378 88.7677 262.958 85.0785 273.338 85.8983C288.461 87.0939 293.745 95.907 301.187 92.5509C308.629 89.2032 316.79 83.4559 326.639 86.3253C332.685 88.0931 335.288 91.5688 336.393 93.9855C336.538 94.3015 337.746 94.2759 337.866 93.9429C339.107 90.339 342.541 84.4551 351.602 85.1297C364.567 86.0862 395.054 98.4092 403.704 92.901C408.551 89.8181 408.491 86.4278 407.497 84.0452C407.429 83.8744 408.405 82.8838 408.568 82.9692C413.235 85.5653 422.758 89.5278 435.381 87.871C453.63 85.4713 472.111 84.0366 479.561 89.5448C484.605 93.2767 483.698 98.1018 482.584 100.834C482.216 101.74 482.884 102.739 483.835 102.491C486.292 101.851 490.823 100.331 498.042 96.7268C510.048 90.7404 510.768 89.3057 517.97 90.9795C522.603 92.0555 525.54 95.2153 527.056 97.3332C527.69 98.2213 529.137 98.3836 529.933 97.6406C532.699 95.0445 538.857 90.4671 547.498 90.9881C559.504 91.7054 563.991 94.1051 563.991 94.1051V133.423C563.991 133.423 556.627 134.379 548.936 130.792C541.751 127.436 540.03 123.661 534.344 122.79C533.667 122.688 532.922 123.2 532.657 123.824C531.192 127.188 525.746 136.531 512.206 135.344C498.873 134.174 496.107 125.967 495.541 123.004C495.439 122.457 494.891 122.065 494.36 122.218C492.27 122.816 487.414 124.353 483.398 126.719C478.114 129.836 462.271 138.692 448.107 135.575C433.942 132.458 444.501 121.689 440.425 118.819C436.349 115.95 421.456 120.254 415.213 124.088C410.478 126.992 403.678 131.544 400.664 133.585C399.756 134.191 398.557 134.114 397.692 133.448C394.181 130.75 384.589 124.439 373.2 125.762C358.795 127.436 352.073 135.942 333.104 134.268C319.274 133.047 312.654 116.958 310.076 108.332C310.051 108.239 309.014 108.392 309.014 108.486C308.646 114.481 305.906 123.619 293.248 126.89C273.8 131.919 254.84 125.933 246.67 127.607C241.643 128.64 237.173 131.39 234.467 133.354C233.73 133.892 232.412 133.064 232.549 132.159C233.165 128.171 233.105 121.868 226.974 120.416C217.853 118.264 211.131 124.251 201.291 122.807C195.005 121.885 191.948 119.016 190.561 117.069C190.021 116.309 188.711 116.095 188.06 116.77C184.018 120.98 172.02 131.877 156.879 130.715C138.15 129.281 141.756 123.055 132.875 123.055C123.995 123.055 108.152 140.049 83.1797 138.376C58.2078 136.702 61.0938 122.338 54.1315 121.86C47.1691 121.381 31.0864 133.107 18.3607 132.637C5.63495 132.159 0 128.085 0 128.085V94.9932L0 94.9847ZM0 175.669C0 175.669 14.7553 175.191 26.5219 168.965C38.2885 162.74 42.6047 157.232 51.4853 162.501C57.968 166.344 58.5675 172.108 58.4219 174.935C58.3791 175.754 59.0899 176.497 59.9034 176.361C62.5496 175.908 67.6879 174.858 70.7708 173.107C81.21 167.18 88.3351 167.693 91.4865 169.264C97.9093 172.467 98.5431 176.865 98.5431 176.865C98.5431 176.865 115.345 164.174 126.872 167.291C138.399 170.409 145.841 176.634 157.607 175.43C167.772 174.397 191.374 162.279 197.609 159.008C198.345 158.615 199.278 159.102 199.501 159.905C200.263 162.603 202.541 167.625 208.981 168.487C217.862 169.683 222.426 167.77 234.912 171.117C247.398 174.465 261.802 177.582 274.528 174.952C287.254 172.321 296.374 157.718 309.34 158.197C322.305 158.675 329.507 164.422 330.706 168.487C331.905 172.552 331.186 177.821 331.186 177.821C331.186 177.821 340.306 163.935 349.195 166.087C358.076 168.239 360.722 176.378 360.722 176.378C360.722 176.378 364.799 170.87 374.407 164.166C384.016 157.462 386.653 157.94 400.098 156.745C409.159 155.942 415.376 151.22 418.476 148.231C418.947 147.769 420.215 148.393 420.146 149.05C419.547 154.832 420.377 166.549 435.869 170.639C456.756 176.147 467.795 151.962 479.082 153.884C490.369 155.797 487.243 170.639 487.243 170.639C487.243 170.639 494.685 163.525 505.253 164.892C515.092 166.173 517.019 171.835 517.019 171.835C517.019 171.835 522.063 172.552 536.228 165.609C550.392 158.666 564 165.37 564 165.37V214.269C564 214.269 553.27 216.899 541.263 213.791C532.708 211.571 527.57 206.319 525.326 203.483C524.658 202.638 523.202 202.561 522.389 203.27C520.076 205.277 515.135 208.257 506.7 207.326C491.414 205.652 482.696 197.753 475.245 199.188C467.803 200.622 463.239 210.435 441.393 209.239C419.547 208.044 416.429 191.997 408.02 191.519C408.26 191.519 401.777 205.166 386.174 205.166C370.571 205.166 363.848 189.785 347.765 191.707C333.104 193.449 332.205 208.718 326.159 213.765C325.431 214.372 324.421 213.629 324.361 212.681C324.112 208.641 321.235 200.375 302.377 198.402C277.166 195.772 280.292 208.693 266.367 208.462C257.495 208.308 254.566 202.228 253.615 197.83C253.47 197.155 251.723 196.891 251.415 197.505C248.349 203.663 241.001 214.577 227.239 214.918C208.031 215.396 199.869 201.989 181.868 202.706C168.286 203.244 158.121 214.824 153.951 220.478C153.402 221.221 151.364 220.811 150.953 219.982C149.814 217.651 147.254 214.585 141.542 212.049C130.743 207.258 126.898 209.419 119.935 202.476C116.424 198.974 114.926 195.234 114.309 192.382C114.232 192.023 112.108 191.639 111.92 191.955C110.712 193.902 108.828 196.267 105.968 198.573C99.4936 203.782 89.7481 206.583 82.0065 205.114C70.394 202.911 63.5259 191.229 63.5259 191.229C63.5259 191.229 58.2421 206.788 37.1153 209.427C22.4884 211.246 17.0676 206.993 15.115 204.201C15.0123 204.047 14.0017 204.269 13.976 204.448C13.7191 206.728 12.8799 210.05 10.2166 211.827C5.89186 214.696 0.0171275 211.109 0.0171275 211.109V175.661L0 175.669ZM0 243.851C0 243.851 7.71594 238.104 14.7553 239.385C20.1334 240.358 26.2565 248.676 28.8513 252.553C29.3051 253.228 30.4869 253.04 30.7524 252.271C32.2768 247.933 37.0211 239.086 49.9609 241.767C66.9257 245.277 65.6497 250.384 75.2497 250.068C84.8496 249.752 96.3764 240.811 107.578 243.68C115.628 245.747 117.572 256.712 118.017 262.724C118.068 263.399 119.396 263.646 119.687 263.04C122.462 257.344 129.056 246.96 140.223 247.19C155.586 247.506 171.592 251.981 180.875 248.463C190.158 244.953 201.359 239.205 212.886 242.075C224.413 244.944 224.73 250.692 244.255 246.866C256.433 244.475 260.518 239.735 261.871 236.498C261.939 236.328 263.481 236.225 263.575 236.396C265.742 240.239 272.276 245.499 291.955 240.486C320.764 233.142 323.967 253.578 323.967 253.578C323.967 253.578 331.965 244.005 346.695 248.147C356.209 250.828 358.641 256.977 359.172 260.991C359.198 261.178 360.44 261.401 360.517 261.221C362.504 256.968 366.931 250.469 375.186 251.332C387.193 252.596 404.817 255.098 409.578 238.275C409.69 237.89 409.981 237.779 410.221 238.104C411.814 240.299 417.243 248.821 429.284 244.628C443.046 239.837 469.961 228.044 479.553 238.608C484.563 244.133 480.82 249.163 477.72 251.921C477.027 252.545 477.523 253.851 478.44 253.715C483.552 252.946 493.032 250.922 500.979 245.849C512.506 238.505 519.871 233.398 532.031 237.873C539.516 240.623 542.642 244.099 543.935 246.37C544.432 247.241 545.922 247.634 546.65 246.951C549.176 244.56 553.783 240.555 556.678 240.111C560.84 239.47 563.966 240.111 563.966 240.111V280.444C563.966 280.444 557.32 286.192 543.233 284.911C533.547 284.031 527.347 277.421 524.418 273.373C523.87 272.622 522.157 273.006 521.952 273.911C521.053 277.934 518.449 283.98 510.905 285.227C499.378 287.14 498.419 276.61 484.015 277.891C469.61 279.172 455.523 284.535 440.802 281.982C430.834 280.256 426.595 271.469 424.899 265.961C424.616 265.03 422.741 264.936 422.39 265.841C419.932 272.22 414.22 283.536 403.995 285.807C389.591 289.001 381.909 281.332 375.186 282.929C370.254 284.099 367.393 291.461 366.212 295.295C365.972 296.081 364.756 296.252 364.276 295.594C361.621 291.93 354.779 284.45 342.533 283.254C326.21 281.657 323.324 290.914 305.084 289.642C286.843 288.369 283.957 270.487 283.957 270.487C283.957 270.487 279.153 280.385 268.593 280.385C258.034 280.385 246.508 266.977 246.508 266.977C246.508 266.977 255.474 284.33 236.582 287.524C217.699 290.718 215.455 279.223 199.767 278.907C188.197 278.668 179.068 288.856 175.069 294.219C174.512 294.971 172.842 294.475 172.714 293.544C172.011 288.369 168.929 279.804 156.228 279.548C140.54 279.232 140.865 290.718 118.137 291.034C95.4601 291.35 94.4582 268.676 83.3253 266.67C83.2739 266.67 83.2311 266.67 83.2396 266.729C83.2739 267.976 87.6243 286.029 66.6088 291.879C44.8398 297.942 32.6793 281.025 32.6793 281.025C32.6793 281.025 25.9567 288.224 16.9905 290.462C8.04136 292.69 0 289.172 0 289.172V243.843V243.851Z" fill="#CABCD4"/>
</svg>
