<svg width="1920" height="1010" viewBox="0 0 1920 1010" fill="none" xmlns="http://www.w3.org/2000/svg">
<path d="M0 32.4479C0 32.4479 26.267 12.8372 50.2309 17.2081C68.5391 20.53 89.3837 48.8825 98.2171 62.1118C99.7622 64.4138 103.785 63.7727 104.689 61.1502C109.878 46.3474 126.029 16.1591 170.08 25.3088C227.832 37.2851 223.488 54.7104 256.169 53.6322C288.85 52.5541 328.09 22.0452 366.222 31.836C393.626 38.8877 400.244 76.3317 401.76 96.8167C401.935 99.1187 406.454 99.9637 407.445 97.8948C416.891 78.4589 439.339 43.0255 477.354 43.8123C529.655 44.8904 584.142 60.1594 615.745 48.1832C647.347 36.2069 685.479 16.5962 724.719 26.387C763.959 36.1778 765.038 55.7885 831.507 42.7341C872.963 34.6042 886.869 18.4028 891.475 7.359C891.709 6.77621 896.956 6.42654 897.277 7.00933C904.653 20.122 926.897 38.0718 993.891 20.9671C1091.96 -4.09275 1102.87 65.6085 1102.87 65.6085C1102.87 65.6085 1130.09 32.9433 1180.24 47.0759C1212.63 56.2256 1220.91 77.2059 1222.71 90.9014C1222.8 91.5425 1227.03 92.3001 1227.29 91.7173C1234.05 77.2059 1249.13 55.0309 1277.23 57.974C1318.1 62.2866 1378.1 70.8244 1394.31 13.42C1394.69 12.1087 1395.68 11.7299 1396.5 12.8372C1401.92 20.326 1420.4 49.407 1461.39 35.0996C1508.24 18.7525 1599.87 -21.4889 1632.52 14.5564C1649.57 33.4095 1636.84 50.5435 1626.28 59.9846C1623.92 62.0826 1625.61 66.5701 1628.73 66.1038C1646.13 63.4813 1678.41 56.5753 1705.46 39.2665C1744.7 14.2067 1769.77 -3.21857 1811.17 12.0504C1836.65 21.4333 1847.29 33.293 1851.69 41.044C1853.38 44.0162 1858.46 45.3567 1860.94 43.0255C1869.54 34.8665 1885.22 21.2002 1895.07 19.6849C1909.24 17.4995 1919.88 19.6849 1919.88 19.6849V157.31C1919.88 157.31 1897.26 176.921 1849.3 172.55C1816.33 169.548 1795.22 146.995 1785.25 133.183C1783.39 130.618 1777.56 131.93 1776.86 135.018C1773.8 148.743 1764.93 169.344 1739.25 173.628C1700.01 180.155 1696.74 144.226 1647.71 148.597C1598.67 152.939 1550.72 171.268 1500.6 162.555C1466.67 156.669 1452.24 126.684 1446.46 107.89C1445.5 104.713 1439.12 104.393 1437.92 107.482C1429.56 129.249 1410.11 167.858 1375.3 175.609C1326.27 186.507 1300.12 160.369 1277.23 165.819C1260.44 169.811 1250.7 194.929 1246.68 208.012C1245.86 210.693 1241.72 211.276 1240.09 209.032C1231.05 196.531 1207.76 171.005 1166.07 166.926C1110.5 161.477 1100.68 193.064 1038.58 188.722C976.486 184.38 966.661 123.363 966.661 123.363C966.661 123.363 950.307 157.135 914.361 157.135C878.415 157.135 839.175 111.386 839.175 111.386C839.175 111.386 869.698 170.597 805.386 181.466C741.103 192.364 733.465 153.143 680.056 152.065C640.671 151.278 609.593 186.012 595.979 204.312C594.084 206.876 588.399 205.186 587.961 202.01C585.571 184.322 575.076 155.124 531.842 154.25C478.433 153.172 479.541 192.364 402.168 193.472C324.971 194.55 321.56 117.185 283.661 110.337C283.486 110.308 283.34 110.337 283.369 110.512C283.486 114.766 298.295 176.367 226.754 196.327C152.646 217.016 111.249 159.291 111.249 159.291C111.249 159.291 88.3633 183.856 57.8399 191.49C27.3748 199.096 0 187.119 0 187.119V32.4479ZM0 324.103C0 324.103 28.162 323.287 56.7904 331.475C85.3897 339.664 117.254 332.291 118.1 313.497C118.566 302.802 113.464 289.486 109.004 279.957C107.634 277.043 111.423 273.517 114.164 275.237C124.717 281.822 140.635 291.059 153.783 296.071C191.157 310.262 230.747 303.473 265.906 293.653C301.065 283.862 347.768 280.802 364.123 309.417C375.376 329.086 361.354 347.852 351.5 357.643C349.343 359.77 351.034 363.645 354.007 363.062C367.767 360.323 392.956 353.213 417.24 335.555C453.186 309.417 463.011 303.706 483.447 302.89C503.884 302.074 527.585 322.501 527.585 322.501C527.585 322.501 557.001 282.463 599.506 284.124C642.012 285.756 684.488 322.501 727.839 309.446C771.16 296.392 794.862 260.434 829.175 272.702C850.544 280.336 849.728 295.896 846.084 306.532C845.355 308.689 849.145 312.185 851.156 311.078C865.966 302.89 895.178 290.302 930.511 293.099C981.996 297.179 999.984 327.25 1025.32 315.799C1050.65 304.376 1078.43 284.765 1111.96 294.556C1132.54 300.588 1141.41 312.448 1145.17 320.694C1145.66 321.772 1149.77 321.685 1150.18 320.548C1154.41 308.251 1166.1 288.174 1196.94 290.477C1241.08 293.74 1344.87 335.788 1374.31 316.993C1390.81 306.474 1390.61 294.906 1387.23 286.776C1386.99 286.193 1390.32 282.813 1390.87 283.104C1406.76 291.963 1439.18 305.483 1482.15 299.83C1544.27 291.642 1607.19 286.747 1632.55 305.542C1649.72 318.275 1646.63 334.739 1642.84 344.064C1641.59 347.152 1643.86 350.562 1647.1 349.717C1655.46 347.531 1670.89 342.344 1695.46 330.048C1736.33 309.621 1738.78 304.726 1763.3 310.437C1779.07 314.108 1789.07 324.89 1794.23 332.117C1796.39 335.147 1801.32 335.701 1804.03 333.166C1813.44 324.307 1834.41 308.689 1863.82 310.466C1904.69 312.914 1919.97 321.102 1919.97 321.102V455.259C1919.97 455.259 1894.9 458.523 1868.72 446.284C1844.26 434.833 1838.4 421.953 1819.04 418.981C1816.74 418.631 1814.2 420.38 1813.3 422.507C1808.31 433.988 1789.77 465.866 1743.68 461.816C1698.29 457.824 1688.87 429.821 1686.95 419.709C1686.6 417.844 1684.73 416.504 1682.93 417.029C1675.81 419.068 1659.28 424.313 1645.61 432.385C1627.62 443.021 1573.69 473.238 1525.47 462.602C1477.25 451.967 1513.2 415.222 1499.32 405.431C1485.44 395.64 1434.75 410.326 1413.49 423.41C1397.37 433.317 1374.22 448.849 1363.96 455.813C1360.87 457.882 1356.79 457.62 1353.84 455.347C1341.89 446.139 1309.24 424.605 1270.47 429.121C1221.43 434.833 1198.55 463.855 1133.97 458.144C1086.89 453.977 1064.35 399.079 1055.58 369.648C1055.49 369.327 1051.96 369.852 1051.96 370.173C1050.71 390.628 1041.38 421.807 998.293 432.968C932.086 450.131 867.541 429.704 839.729 435.415C822.616 438.941 807.398 448.324 798.185 455.026C795.678 456.862 791.188 454.035 791.655 450.947C793.754 437.339 793.55 415.834 772.676 410.88C741.628 403.537 718.743 423.964 685.246 419.039C663.847 415.892 653.44 406.101 648.717 399.457C646.88 396.864 642.42 396.136 640.204 398.438C626.444 412.803 585.6 449.985 534.057 446.022C470.299 441.127 482.573 419.884 452.341 419.884C422.109 419.884 368.176 477.871 283.165 472.16C198.154 466.449 207.979 417.436 184.277 415.805C160.576 414.173 105.826 454.181 62.5044 452.578C19.1828 450.947 0 437.047 0 437.047V324.132L0 324.103ZM0 599.411C0 599.411 50.2309 597.78 90.2874 576.537C130.344 555.294 145.037 536.5 175.269 554.479C197.338 567.591 199.379 587.26 198.883 596.905C198.737 599.703 201.157 602.238 203.927 601.772C212.935 600.227 230.427 596.643 240.922 590.67C276.46 570.447 300.715 572.195 311.444 577.557C333.308 588.484 335.466 603.491 335.466 603.491C335.466 603.491 392.664 560.19 431.904 570.826C471.145 581.462 496.479 602.704 536.535 598.596C571.14 595.07 651.486 553.721 672.71 542.561C675.217 541.22 678.395 542.881 679.153 545.62C681.747 554.828 689.502 571.962 711.425 574.905C741.657 578.985 757.196 572.458 799.701 583.88C842.206 595.303 891.242 605.939 934.564 596.964C977.885 587.989 1008.93 538.161 1053.07 539.792C1097.21 541.424 1121.73 561.035 1125.81 574.905C1129.89 588.776 1127.44 606.755 1127.44 606.755C1127.44 606.755 1158.49 559.374 1188.75 566.717C1218.98 574.06 1227.99 601.83 1227.99 601.83C1227.99 601.83 1241.87 583.035 1274.58 560.161C1307.29 537.286 1316.27 538.918 1362.04 534.839C1392.88 532.1 1414.05 515.986 1424.6 505.787C1426.2 504.213 1430.52 506.34 1430.28 508.584C1428.24 528.312 1431.07 568.291 1483.81 582.248C1554.91 601.043 1592.49 518.521 1630.92 525.077C1669.34 531.604 1658.7 582.248 1658.7 582.248C1658.7 582.248 1684.03 557.975 1720.01 562.638C1753.51 567.008 1760.07 586.328 1760.07 586.328C1760.07 586.328 1777.24 588.776 1825.46 565.085C1873.68 541.395 1920 564.269 1920 564.269V731.121C1920 731.121 1883.47 740.096 1842.6 729.489C1813.47 721.913 1795.98 703.992 1788.34 694.318C1786.07 691.433 1781.11 691.171 1778.34 693.59C1770.47 700.437 1753.65 710.607 1724.94 707.431C1672.9 701.72 1643.22 674.766 1617.86 679.661C1592.52 684.556 1576.98 718.038 1502.61 713.958C1428.24 709.879 1417.63 655.126 1389 653.494C1389.82 653.494 1367.75 700.059 1314.63 700.059C1261.52 700.059 1238.63 647.579 1183.88 654.135C1133.97 660.079 1130.91 712.181 1110.33 729.402C1107.85 731.471 1104.41 728.936 1104.21 725.701C1103.36 711.918 1093.57 683.711 1029.37 676.98C943.543 668.005 954.184 712.093 906.781 711.306C876.578 710.782 866.608 690.035 863.372 675.028C862.876 672.726 856.929 671.823 855.879 673.921C845.442 694.93 820.429 732.17 773.58 733.336C708.189 734.967 680.406 689.219 619.126 691.666C572.889 693.502 538.284 733.015 524.087 752.305C522.221 754.84 515.283 753.442 513.883 750.615C510.006 742.66 501.289 732.199 481.844 723.545C445.082 707.198 431.992 714.57 408.29 690.88C396.338 678.933 391.236 666.17 389.137 656.437C388.874 655.213 381.644 653.902 381.003 654.98C376.892 661.624 370.479 669.695 360.742 677.563C338.702 695.338 305.525 704.896 279.171 699.884C239.639 692.366 216.258 652.503 216.258 652.503C216.258 652.503 198.271 705.595 126.35 714.599C76.5563 720.806 58.1023 706.294 51.4554 696.766C51.1055 696.241 47.6655 696.999 47.578 697.611C46.7034 705.391 43.8464 716.726 34.7798 722.787C20.0574 732.578 0.0583064 720.34 0.0583064 720.34V599.382L0 599.411ZM0 832.06C0 832.06 26.267 812.449 50.2309 816.82C68.5391 820.142 89.3837 848.523 98.2171 861.753C99.7622 864.055 103.785 863.414 104.689 860.791C109.878 845.988 126.029 815.8 170.08 824.95C227.832 836.926 223.488 854.351 256.169 853.273C288.85 852.195 328.09 821.686 366.222 831.477C393.626 838.529 400.244 875.943 401.76 896.458C401.935 898.76 406.454 899.605 407.445 897.536C416.891 878.1 439.339 842.666 477.354 843.453C529.655 844.531 584.142 859.8 615.745 847.795C647.347 835.819 685.479 816.208 724.719 825.999C763.959 835.789 765.038 855.4 831.507 842.346C872.963 834.187 886.869 818.015 891.475 806.971C891.709 806.388 896.956 806.038 897.277 806.621C904.653 819.734 926.897 837.683 993.891 820.579C1091.96 795.519 1102.87 865.249 1102.87 865.249C1102.87 865.249 1130.09 832.584 1180.24 846.717C1212.63 855.866 1220.91 876.847 1222.71 890.542C1222.8 891.183 1227.03 891.941 1227.29 891.329C1234.05 876.818 1249.13 854.643 1277.23 857.586C1318.1 861.898 1378.1 870.436 1394.31 813.032C1394.69 811.72 1395.68 811.342 1396.5 812.449C1401.92 819.938 1420.4 849.019 1461.39 834.711C1508.24 818.364 1599.87 778.123 1632.52 814.168C1649.57 833.021 1636.84 850.184 1626.28 859.596C1623.92 861.723 1625.61 866.182 1628.73 865.716C1646.13 863.093 1678.41 856.187 1705.46 838.878C1744.7 813.818 1769.77 796.393 1811.17 811.662C1836.65 821.045 1847.29 832.905 1851.69 840.656C1853.38 843.628 1858.46 844.968 1860.94 842.637C1869.54 834.478 1885.22 820.812 1895.07 819.297C1909.24 817.111 1919.88 819.297 1919.88 819.297V956.922C1919.88 956.922 1897.26 976.532 1849.3 972.161C1816.33 969.16 1795.22 946.606 1785.25 932.794C1783.39 930.23 1777.56 931.541 1776.86 934.63C1773.8 948.355 1764.93 968.985 1739.25 973.24C1700.01 979.767 1696.74 943.838 1647.71 948.209C1598.67 952.58 1550.72 970.879 1500.6 962.167C1466.67 956.281 1452.24 926.296 1446.46 907.501C1445.5 904.325 1439.12 904.005 1437.92 907.093C1429.56 928.86 1410.11 967.47 1375.3 975.221C1326.27 986.119 1300.12 959.952 1277.23 965.401C1260.44 969.393 1250.7 994.511 1246.68 1007.59C1245.86 1010.28 1241.72 1010.86 1240.09 1008.61C1231.05 996.114 1207.76 970.588 1166.07 966.508C1110.5 961.059 1100.68 992.646 1038.58 988.305C976.486 983.963 966.661 922.945 966.661 922.945C966.661 922.945 950.307 956.718 914.361 956.718C878.415 956.718 839.175 910.969 839.175 910.969C839.175 910.969 869.698 970.18 805.386 981.078C741.103 991.976 733.465 952.755 680.056 951.677C640.671 950.861 609.593 985.624 595.979 1003.92C594.084 1006.49 588.399 1004.8 587.961 1001.62C585.571 983.963 575.076 954.736 531.842 953.862C478.433 952.784 479.541 991.976 402.168 993.054C324.971 994.132 321.56 916.768 283.661 909.92C283.486 909.92 283.34 909.92 283.369 910.124C283.486 914.378 298.295 975.979 226.754 995.939C152.646 1016.63 111.249 958.903 111.249 958.903C111.249 958.903 88.3633 983.468 57.8399 991.102C27.3748 998.707 0 986.702 0 986.702V832.031V832.06Z" fill="#FBFAE7"/>
</svg>
